<svg width="16" height="16" viewBox="0 0 16 16" fill="none" xmlns="http://www.w3.org/2000/svg">
<g clip-path="url(#clip0_1388_8377)">
<path fill-rule="evenodd" clip-rule="evenodd" d="M8 16C12.4183 16 16 12.4183 16 8C16 3.58172 12.4183 0 8 0C3.58172 0 0 3.58172 0 8C0 12.4183 3.58172 16 8 16ZM5.7835 4.32969C5.89395 4.32969 5.9835 4.41923 5.9835 4.52969V11.6C5.9835 11.7105 5.89395 11.8 5.7835 11.8H4.69951C4.58906 11.8 4.49951 11.7105 4.49951 11.6V5.94791L3.08037 6.87487C3.0189 6.91502 2.94037 6.91826 2.8758 6.88331C2.81123 6.84836 2.771 6.78085 2.771 6.70742V5.68203C2.771 5.61461 2.80496 5.55173 2.86135 5.51477L4.61916 4.36243C4.65174 4.34107 4.68985 4.32969 4.72881 4.32969H5.7835ZM2.971 6.70742L4.66045 5.60391L4.6604 5.60391L2.971 6.70739V6.70742ZM5.7835 11.6L5.78345 11.6V4.52969L5.7835 4.52969V11.6ZM8.71787 8.0654C8.71548 8.93009 8.85531 9.56612 9.09231 9.97879C9.3228 10.3801 9.64269 10.5699 10.0413 10.5699C10.4371 10.5699 10.7559 10.3806 10.9866 9.97879C11.2238 9.56588 11.3647 8.9296 11.3647 8.06485C11.3647 7.20301 11.2227 6.56251 10.9845 6.14417C10.7522 5.73633 10.4327 5.54259 10.0413 5.54024C9.6473 5.54259 9.32794 5.73654 9.09642 6.144C8.85876 6.56227 8.71787 7.2033 8.71787 8.0654ZM8.51787 8.06485C8.51787 6.30703 9.08916 5.34512 10.0413 5.34024L10.0413 5.34023C9.08911 5.34512 8.51782 6.30703 8.51782 8.06484C8.5135 9.62624 8.96126 10.544 9.72877 10.7332C8.96129 10.544 8.51355 9.62621 8.51787 8.06485ZM12.839 8.06527C12.8365 9.24594 12.5917 10.2007 12.1142 10.8658C11.6304 11.5396 10.9203 11.8977 10.0413 11.8977C9.16238 11.8977 8.45111 11.5397 7.96669 10.8659C7.48847 10.2007 7.24365 9.24579 7.24365 8.06485C7.24365 6.89056 7.49118 5.93591 7.97034 5.26928C8.45539 4.59445 9.16622 4.23203 10.0413 4.23203C10.9142 4.23203 11.6237 4.59463 12.1086 5.26928C12.5877 5.93574 12.8365 6.89106 12.839 8.06527ZM12.639 8.06485C12.6342 5.79872 11.6907 4.47128 10.1121 4.43289C11.6906 4.47131 12.6341 5.79874 12.6389 8.06484C12.634 10.3793 11.677 11.6977 10.0413 11.6977L10.0413 11.6977C11.6771 11.6977 12.6341 10.3793 12.639 8.06485Z" fill="#A9A9A9"/>
</g>
<defs>
<clipPath id="clip0_1388_8377">
<rect width="16" height="16" fill="white"/>
</clipPath>
</defs>
</svg>
