<svg width="16" height="16" viewBox="0 0 16 16" fill="none" xmlns="http://www.w3.org/2000/svg">
<path d="M12.9999 5.73283C13.006 4.89383 12.7732 4.06857 12.3255 3.34272C11.8779 2.61688 11.2317 2.01691 10.4541 1.60511C9.67646 1.1933 8.79577 0.984672 7.90343 1.00088C7.01109 1.01708 6.13963 1.25753 5.37951 1.69726C4.6194 2.13699 3.99835 2.75997 3.58083 3.50153C3.16332 4.24309 2.96456 5.07619 3.00518 5.91434C3.04581 6.7525 3.32435 7.56515 3.81188 8.26794C4.29941 8.97072 4.97816 9.53802 5.77766 9.91094V11.4777C5.77766 11.6162 5.83619 11.7491 5.94038 11.847C6.04456 11.945 6.18587 12 6.33321 12H9.66655C9.81389 12 9.9552 11.945 10.0594 11.847C10.1636 11.7491 10.2221 11.6162 10.2221 11.4777V9.91094C11.0526 9.52627 11.7526 8.93148 12.2433 8.1934C12.734 7.45532 12.996 6.60321 12.9999 5.73283Z" fill="#A9A9A9"/>
<rect x="5.375" y="13.25" width="5.25" height="1.75" rx="0.875" fill="#A9A9A9"/>
</svg>
