<svg width="16" height="16" viewBox="0 0 16 16" fill="none" xmlns="http://www.w3.org/2000/svg">
<g clip-path="url(#clip0_1390_23026)">
<path d="M1 13V8.2C1 6.29044 1.7375 4.45909 3.05025 3.10883C4.36301 1.75857 6.14348 1 8 1C9.85652 1 11.637 1.75857 12.9497 3.10883C14.2625 4.45909 15 6.29044 15 8.2V13" stroke="#A9A9A9" stroke-width="2" stroke-linecap="round" stroke-linejoin="round"/>
<path d="M15 13.2857C15 13.7404 14.8361 14.1764 14.5444 14.4979C14.2527 14.8194 13.857 15 13.4444 15H12.6667C12.2541 15 11.8584 14.8194 11.5667 14.4979C11.275 14.1764 11.1111 13.7404 11.1111 13.2857V10.7143C11.1111 10.2596 11.275 9.82359 11.5667 9.5021C11.8584 9.18061 12.2541 9 12.6667 9H15V13.2857ZM1 13.2857C1 13.7404 1.16389 14.1764 1.45561 14.4979C1.74733 14.8194 2.143 15 2.55556 15H3.33333C3.74589 15 4.14155 14.8194 4.43328 14.4979C4.725 14.1764 4.88889 13.7404 4.88889 13.2857V10.7143C4.88889 10.2596 4.725 9.82359 4.43328 9.5021C4.14155 9.18061 3.74589 9 3.33333 9H1V13.2857Z" fill="#A9A9A9" stroke="#A9A9A9" stroke-width="2" stroke-linecap="round" stroke-linejoin="round"/>
</g>
<defs>
<clipPath id="clip0_1390_23026">
<rect width="16" height="16" fill="white"/>
</clipPath>
</defs>
</svg>
