<svg width="16" height="16" viewBox="0 0 16 16" fill="none" xmlns="http://www.w3.org/2000/svg">
<path fill-rule="evenodd" clip-rule="evenodd" d="M4.84725 10.5833H10.3889C11.4889 10.5833 12.0388 10.5833 12.3805 10.2416C12.7222 9.89992 12.7222 9.34994 12.7222 8.25V5.33333C12.7222 4.23339 12.7222 3.68342 12.3805 3.34171C12.0388 3 11.4889 3 10.3889 3H5.72225C4.62231 3 4.07233 3 3.73062 3.34171C3.38892 3.68342 3.38892 4.23339 3.38892 5.33333V12.0417C3.38892 11.2363 4.04183 10.5833 4.84725 10.5833ZM6.30551 3.91667C5.20094 3.91667 4.30551 4.8121 4.30551 5.91667C4.30551 7.02124 5.20094 7.91667 6.30551 7.91667L9.80551 7.91667C10.9101 7.91667 11.8055 7.02124 11.8055 5.91667C11.8055 4.8121 10.9101 3.91667 9.80551 3.91667L6.30551 3.91667Z" fill="#A9A9A9"/>
<path d="M12.3805 10.2416L11.6734 9.53452L11.6734 9.53452L12.3805 10.2416ZM12.3805 3.34171L11.6734 4.04881L11.6734 4.04882L12.3805 3.34171ZM4.30551 5.91667H3.30551H4.30551ZM6.30551 3.91667V4.91667V3.91667ZM6.30551 7.91667L6.30551 6.91667H6.30551V7.91667ZM9.80551 7.91667V8.91667V7.91667ZM11.8055 5.91667L10.8055 5.91667V5.91667H11.8055ZM9.80551 3.91667V2.91667V3.91667ZM10.3889 9.58333H4.84725V11.5833H10.3889V9.58333ZM11.6734 9.53452C11.7193 9.4886 11.7426 9.52173 11.5358 9.54954C11.3002 9.58121 10.9672 9.58333 10.3889 9.58333V11.5833C10.9106 11.5833 11.4025 11.5855 11.8023 11.5317C12.2309 11.4741 12.7 11.3364 13.0876 10.9487L11.6734 9.53452ZM11.7222 8.25C11.7222 8.82824 11.7201 9.16132 11.6885 9.3969C11.6606 9.60371 11.6275 9.58043 11.6734 9.53452L13.0876 10.9487C13.4753 10.5611 13.613 10.092 13.6706 9.6634C13.7244 9.26358 13.7222 8.7717 13.7222 8.25H11.7222ZM11.7222 5.33333V8.25H13.7222V5.33333H11.7222ZM11.6734 4.04882C11.6275 4.0029 11.6606 3.97962 11.6885 4.18643C11.7201 4.42201 11.7222 4.75509 11.7222 5.33333H13.7222C13.7222 4.81163 13.7244 4.31976 13.6706 3.91994C13.613 3.49135 13.4753 3.02222 13.0876 2.6346L11.6734 4.04882ZM10.3889 4C10.9672 4 11.3002 4.00212 11.5358 4.0338C11.7426 4.0616 11.7193 4.09473 11.6734 4.04881L13.0876 2.6346C12.7 2.24698 12.2309 2.10925 11.8023 2.05163C11.4025 1.99788 10.9106 2 10.3889 2V4ZM5.72225 4H10.3889V2H5.72225V4ZM4.43773 4.04882C4.39182 4.09473 4.36854 4.0616 4.57535 4.0338C4.81092 4.00212 5.14401 4 5.72225 4V2C5.20055 2 4.70867 1.99788 4.30885 2.05163C3.88026 2.10925 3.41114 2.24698 3.02352 2.6346L4.43773 4.04882ZM4.38892 5.33333C4.38892 4.75509 4.39104 4.42201 4.42271 4.18643C4.45052 3.97962 4.48365 4.0029 4.43773 4.04882L3.02352 2.6346C2.63589 3.02223 2.49817 3.49135 2.44055 3.91994C2.38679 4.31976 2.38892 4.81163 2.38892 5.33333H4.38892ZM4.38892 12.0417V5.33333H2.38892V12.0417H4.38892ZM4.84725 9.58333C3.48955 9.58333 2.38892 10.684 2.38892 12.0417H4.38892C4.38892 11.7885 4.59412 11.5833 4.84725 11.5833V9.58333ZM5.30551 5.91667C5.30551 5.36438 5.75323 4.91667 6.30551 4.91667V2.91667C4.64866 2.91667 3.30551 4.25981 3.30551 5.91667H5.30551ZM6.30551 6.91667C5.75323 6.91667 5.30551 6.46895 5.30551 5.91667H3.30551C3.30551 7.57352 4.64866 8.91667 6.30551 8.91667V6.91667ZM9.80551 6.91667L6.30551 6.91667L6.30551 8.91667L9.80551 8.91667V6.91667ZM10.8055 5.91667C10.8055 6.46895 10.3578 6.91667 9.80551 6.91667V8.91667C11.4624 8.91667 12.8055 7.57352 12.8055 5.91667H10.8055ZM9.80551 4.91667C10.3578 4.91667 10.8055 5.36438 10.8055 5.91667L12.8055 5.91667C12.8055 4.25981 11.4624 2.91667 9.80551 2.91667V4.91667ZM6.30551 4.91667L9.80551 4.91667V2.91667L6.30551 2.91667V4.91667ZM7.47225 12.5H4.84725V14.5H7.47225V12.5ZM2.38892 12.0417C2.38892 13.3994 3.48955 14.5 4.84725 14.5V12.5C4.59412 12.5 4.38892 12.2948 4.38892 12.0417H2.38892Z" fill="#A9A9A9"/>
<path d="M6.74902 13.5H12.629" stroke="#A9A9A9" stroke-width="2" stroke-linecap="round"/>
</svg>
