<svg width="16" height="16" viewBox="0 0 16 16" fill="none" xmlns="http://www.w3.org/2000/svg">
<path d="M3 2.5V8.85714H6.54089C6.84518 8.85714 6.99733 8.85714 7.11901 8.93329C7.2407 9.00944 7.30722 9.14628 7.44025 9.41995L7.72641 10.0086C7.85945 10.2823 7.92597 10.4191 8.04765 10.4953C8.16934 10.5714 8.32149 10.5714 8.62578 10.5714H12.5C12.7357 10.5714 12.8536 10.5714 12.9268 10.4982C13 10.425 13 10.3071 13 10.0714V4.21429C13 3.97858 13 3.86073 12.9268 3.78751C12.8536 3.71429 12.7357 3.71429 12.5 3.71429H8.62578C8.32149 3.71429 8.16934 3.71429 8.04765 3.63814C7.92597 3.56199 7.85945 3.42515 7.72641 3.15148L7.44025 2.56281C7.30722 2.28914 7.2407 2.1523 7.11901 2.07615C6.99733 2 6.84518 2 6.54089 2H3.5C3.2643 2 3.14645 2 3.07322 2.07322C3 2.14645 3 2.2643 3 2.5Z" fill="#A9A9A9"/>
<path d="M3 2.5V8.85714H6.54089C6.84518 8.85714 6.99733 8.85714 7.11901 8.93329C7.2407 9.00944 7.30722 9.14628 7.44025 9.41995L7.72641 10.0086C7.85945 10.2823 7.92597 10.4191 8.04765 10.4953C8.16934 10.5714 8.32149 10.5714 8.62578 10.5714H12.5C12.7357 10.5714 12.8536 10.5714 12.9268 10.4982C13 10.425 13 10.3071 13 10.0714V4.21429C13 3.97858 13 3.86073 12.9268 3.78751C12.8536 3.71429 12.7357 3.71429 12.5 3.71429H8.62578C8.32149 3.71429 8.16934 3.71429 8.04765 3.63814C7.92597 3.56199 7.85945 3.42515 7.72641 3.15148L7.44025 2.56281C7.30722 2.28914 7.2407 2.1523 7.11901 2.07615C6.99733 2 6.84518 2 6.54089 2H3.5C3.2643 2 3.14645 2 3.07322 2.07322C3 2.14645 3 2.2643 3 2.5Z" fill="#A9A9A9"/>
<path d="M3 8.85714V2.5C3 2.2643 3 2.14645 3.07322 2.07322C3.14645 2 3.2643 2 3.5 2H6.54089C6.84518 2 6.99733 2 7.11901 2.07615C7.2407 2.1523 7.30722 2.28914 7.44025 2.56281L7.72641 3.15148C7.85945 3.42515 7.92597 3.56199 8.04765 3.63814C8.16934 3.71429 8.32149 3.71429 8.62578 3.71429H12.5C12.7357 3.71429 12.8536 3.71429 12.9268 3.78751C13 3.86073 13 3.97858 13 4.21429V10.0714C13 10.3071 13 10.425 12.9268 10.4982C12.8536 10.5714 12.7357 10.5714 12.5 10.5714H8.62578C8.32149 10.5714 8.16934 10.5714 8.04765 10.4953C7.92597 10.4191 7.85945 10.2823 7.72641 10.0086L7.44025 9.41995C7.30722 9.14628 7.2407 9.00944 7.11901 8.93329C6.99733 8.85714 6.84518 8.85714 6.54089 8.85714H3ZM3 8.85714V14" stroke="#A9A9A9" stroke-width="2" stroke-linecap="round"/>
</svg>
