<svg width="16" height="16" viewBox="0 0 16 16" fill="none" xmlns="http://www.w3.org/2000/svg">
<path fill-rule="evenodd" clip-rule="evenodd" d="M7.99997 11.8839C7.08443 11.8828 6.20669 11.5187 5.55931 10.8713C4.91192 10.2239 4.54777 9.34617 4.54672 8.43063C4.54759 7.51498 4.91167 6.63707 5.55907 5.98954C6.20648 5.34202 7.08432 4.97777 7.99997 4.97672C8.91562 4.97777 9.79346 5.34202 10.4409 5.98954C11.0883 6.63707 11.4523 7.51498 11.4532 8.43063C11.4522 9.34617 11.088 10.2239 10.4406 10.8713C9.79324 11.5187 8.9155 11.8828 7.99997 11.8839ZM13.3405 3.24023H11.3959L10.6633 1.81245C10.5471 1.58643 10.3709 1.3968 10.154 1.26441C9.93703 1.13203 9.6878 1.062 9.43366 1.06203H6.52875C6.26961 1.062 6.01569 1.13481 5.79594 1.27215C5.57619 1.4095 5.39948 1.60584 5.28595 1.83878L4.60399 3.24023H2.65948C2.44159 3.24014 2.22581 3.28298 2.02447 3.36631C1.82314 3.44963 1.6402 3.57181 1.48609 3.72585C1.33198 3.8799 1.20974 4.06279 1.12633 4.26409C1.04293 4.46539 1 4.68115 1 4.89905V12.5356C1 12.7535 1.04293 12.9692 1.12633 13.1705C1.20974 13.3718 1.33198 13.5547 1.48609 13.7088C1.6402 13.8628 1.82314 13.985 2.02447 14.0683C2.22581 14.1516 2.44159 14.1945 2.65948 14.1944H13.3405C13.5583 14.1945 13.7741 14.1516 13.9755 14.0683C14.1768 13.985 14.3597 13.8628 14.5138 13.7088C14.6679 13.5547 14.7902 13.3718 14.8736 13.1705C14.957 12.9692 14.9999 12.7535 14.9999 12.5356V4.89905C14.9999 4.68115 14.957 4.46539 14.8736 4.26409C14.7902 4.06279 14.6679 3.8799 14.5138 3.72585C14.3597 3.57181 14.1768 3.44963 13.9755 3.36631C13.7741 3.28298 13.5583 3.24014 13.3405 3.24023Z" fill="#A9A9A9"/>
<path fill-rule="evenodd" clip-rule="evenodd" d="M8.00022 6.22084C7.4146 6.22154 6.85317 6.45453 6.43913 6.86869C6.02509 7.28285 5.79227 7.84435 5.79175 8.42997C5.7921 9.01565 6.02487 9.57725 6.43894 9.99144C6.85301 10.4056 7.41454 10.6386 8.00022 10.6391C8.5859 10.6386 9.14743 10.4056 9.5615 9.99144C9.97557 9.57725 10.2083 9.01565 10.2087 8.42997C10.2082 7.84435 9.97534 7.28285 9.56131 6.86869C9.14727 6.45453 8.58584 6.22154 8.00022 6.22084Z" fill="#A9A9A9"/>
</svg>
