<svg width="250" height="250" viewBox="0 0 250 250" fill="none" xmlns="http://www.w3.org/2000/svg">
<g clip-path="url(#clip0_1584_5196)">
<path d="M157.487 49.7817H30.8369V179.477C30.8369 185.971 36.5325 191.235 43.5582 191.235H98.1C91.0743 191.235 85.3787 185.971 85.3787 179.477V171.439H147.806V132.523H157.488V49.7817H157.487Z" fill="#D092F1" stroke="black" stroke-miterlimit="10"/>
<path d="M116.454 191.235H43.7627C50.1628 191.235 55.3513 186.06 55.3513 179.674V134.365C55.3513 126.789 61.5073 120.647 69.1 120.647C76.6927 120.647 82.8487 126.789 82.8487 134.365H128.044V179.671C128.044 186.057 122.855 191.234 116.455 191.234L116.454 191.235Z" fill="#7600BE" stroke="black" stroke-miterlimit="10"/>
<path d="M144.635 136.854V120.648H68.3604C75.4795 120.648 81.2511 126.407 81.2511 133.51V136.854H81.2395V212.484H183.188V136.854H144.635Z" fill="#B03EF5" stroke="black" stroke-miterlimit="10"/>
<path d="M185.272 120.647H68.3037C78.6017 120.647 86.9501 128.975 86.9515 139.25V212.155C86.9515 224.347 96.8564 234.229 109.075 234.229C121.293 234.229 131.198 224.347 131.198 212.155H203.92V139.253C203.92 128.978 195.572 120.647 185.272 120.647Z" fill="#D092F1" stroke="black" stroke-miterlimit="10"/>
<path d="M130.891 190.082V212.156C130.891 224.347 120.986 234.23 108.768 234.23H203.613C215.831 234.23 225.736 224.347 225.736 212.156V190.082H130.891Z" fill="#7600BE" stroke="black" stroke-miterlimit="10"/>
<path d="M146.691 66.5883L133.559 71.0973L120.427 66.5883L107.295 71.0973L94.163 66.5883L81.0311 71.0973L67.8991 66.5883L54.7657 71.0973L41.6338 66.5883V65.7863V64.9842V64.1821V63.3801V62.578V61.776V60.9739V60.1719L54.7657 64.6809L67.8991 60.1719L81.0311 64.6809L94.163 60.1719L107.295 64.6809L120.427 60.1719L133.559 64.6809L146.691 60.1719V60.9739V61.776V62.578V63.3801V64.1821V64.9842V65.7863V66.5883Z" fill="#B03EF5" stroke="black" stroke-miterlimit="10"/>
<path d="M146.691 83.3498L133.559 87.8588L120.427 83.3498L107.295 87.8588L94.163 83.3498L81.0311 87.8588L67.8991 83.3498L54.7657 87.8588L41.6338 83.3498V82.5477V81.7457V80.9436V80.1416V79.3395V78.5375V77.7354V76.9333L54.7657 81.4409L67.8991 76.9333L81.0311 81.4409L94.163 76.9333L107.295 81.4409L120.427 76.9333L133.559 81.4409L146.691 76.9333V77.7354V78.5375V79.3395V80.1416V80.9436V81.7457V82.5477V83.3498Z" fill="#B03EF5" stroke="black" stroke-miterlimit="10"/>
<path d="M94.1626 100.11C89.7852 101.614 85.4079 103.116 81.0306 104.619L67.8987 100.11L54.7667 104.619L41.6348 100.11V93.6936L54.7667 98.2026L67.8987 93.6936L81.0306 98.2026C85.4079 96.6991 89.7852 95.1971 94.1626 93.6936V100.11Z" fill="#B03EF5" stroke="black" stroke-miterlimit="10"/>
<path d="M177.14 139.113C172.763 140.616 168.386 142.118 164.008 143.622L150.876 139.113L137.744 143.622L124.613 139.113L111.481 143.622L98.3486 139.113V132.697L111.481 137.206L124.613 132.697L137.744 137.206L150.876 132.697L164.008 137.206C168.386 135.702 172.763 134.2 177.14 132.697V139.113Z" fill="#B03EF5" stroke="black" stroke-miterlimit="10"/>
<path d="M150.876 155.873C146.499 157.376 142.122 158.878 137.744 160.382L124.613 155.873L111.481 160.382L98.3486 155.873V149.457L111.481 153.966L124.613 149.457L137.744 153.966C142.122 152.462 146.499 150.96 150.876 149.457V155.873Z" fill="#B03EF5" stroke="black" stroke-miterlimit="10"/>
<path d="M243.181 80.9846C241.441 84.5194 238.195 86.141 236.819 86.7273C239.731 84.8286 243.335 84.6346 246.059 86.2737C248.82 87.9362 249.622 90.8455 249.846 92.0165C250.504 95.4638 248.873 98.1179 248.332 98.9681C245.665 103.159 240.91 103.856 240.152 103.955C240.992 106.872 241.692 111.206 239.661 115.018C238.433 117.321 236.344 119.183 223.49 124.056C212.778 128.118 209.642 128.565 204.858 132.067C201.469 134.549 199.125 137.193 197.651 139.081C194.975 143.742 192.84 147.574 191.422 150.143C191.422 150.143 173.425 182.942 168.763 190.388C168.274 191.168 167.795 191.922 167.099 192.871C163.457 197.85 160.248 199.515 156.338 203.452C154.951 204.849 152.959 207.051 150.903 210.172C150.262 211.143 183.581 152.099 224.442 79.5627C224.848 78.8409 226.074 76.6622 226.477 75.9477C227.252 74.4033 228.025 72.859 228.8 71.3147C231.755 67.0886 236.239 64.9347 239.547 66.0212C244.355 67.599 245.773 75.7245 243.181 80.9831V80.9846Z" fill="#FFDE46" stroke="black" stroke-miterlimit="10"/>
<path d="M101.997 20.3956C98.4439 20.3956 95.5592 17.5398 95.5031 14C95.5031 14 95.5016 14 95.5 14C95.4984 14 95.4984 14 95.4969 14C95.4408 17.5413 92.5561 20.3956 89.0031 20.3956C89.0031 20.4299 89 20.4657 89 20.5C89 20.5343 89.0016 20.5701 89.0031 20.6044C92.5561 20.6044 95.4408 23.4602 95.4969 27C95.4969 27 95.4984 27 95.5 27C95.5016 27 95.5016 27 95.5031 27C95.5592 23.4587 98.4439 20.6044 101.997 20.6044C101.997 20.5701 102 20.5343 102 20.5C102 20.4657 101.998 20.4299 101.997 20.3956Z" fill="#FFDE46" stroke="black" stroke-miterlimit="10"/>
<path d="M16.9969 45.8876C13.4439 45.8876 10.5592 42.8121 10.5031 39C10.5031 39 10.5016 39 10.5 39C10.4984 39 10.4984 39 10.4969 39C10.4408 42.8138 7.55607 45.8876 4.00311 45.8876C4.00311 45.9245 4 45.9631 4 46C4 46.0369 4.00156 46.0755 4.00311 46.1124C7.55607 46.1124 10.4408 49.1879 10.4969 53C10.4969 53 10.4984 53 10.5 53C10.5016 53 10.5016 53 10.5031 53C10.5592 49.1862 13.4439 46.1124 16.9969 46.1124C16.9969 46.0755 17 46.0369 17 46C17 45.9631 16.9984 45.9245 16.9969 45.8876Z" fill="#FFDE46" stroke="black" stroke-miterlimit="10"/>
<path d="M197.604 95.9966C197.604 92.1704 200.46 89.0637 204 89.0034C204 89.0034 204 89.0017 204 89C204 88.9983 204 88.9983 204 88.9966C200.459 88.9363 197.604 85.8296 197.604 82.0034C197.57 82.0034 197.534 82 197.5 82C197.466 82 197.43 82.0017 197.396 82.0034C197.396 85.8296 194.54 88.9363 191 88.9966C191 88.9966 191 88.9983 191 89C191 89.0017 191 89.0017 191 89.0034C194.541 89.0637 197.396 92.1704 197.396 95.9966C197.43 95.9966 197.466 96 197.5 96C197.534 96 197.57 95.9983 197.604 95.9966Z" fill="#FFDE46" stroke="black" stroke-miterlimit="10"/>
<path d="M220.604 23.9966C220.604 20.1704 223.46 17.0637 227 17.0034C227 17.0034 227 17.0017 227 17C227 16.9983 227 16.9983 227 16.9966C223.459 16.9363 220.604 13.8296 220.604 10.0034C220.57 10.0034 220.534 10 220.5 10C220.466 10 220.43 10.0017 220.396 10.0034C220.396 13.8296 217.54 16.9363 214 16.9966C214 16.9966 214 16.9983 214 17C214 17.0017 214 17.0017 214 17.0034C217.541 17.0637 220.396 20.1704 220.396 23.9966C220.43 23.9966 220.466 24 220.5 24C220.534 24 220.57 23.9983 220.604 23.9966Z" fill="#FFDE46" stroke="black" stroke-miterlimit="10"/>
<path d="M173.604 44.9966C173.604 41.1704 176.46 38.0637 180 38.0034C180 38.0034 180 38.0017 180 38C180 37.9983 180 37.9983 180 37.9966C176.459 37.9363 173.604 34.8296 173.604 31.0034C173.57 31.0034 173.534 31 173.5 31C173.466 31 173.43 31.0017 173.396 31.0034C173.396 34.8296 170.54 37.9363 167 37.9966C167 37.9966 167 37.9983 167 38C167 38.0017 167 38.0017 167 38.0034C170.541 38.0637 173.396 41.1704 173.396 44.9966C173.43 44.9966 173.466 45 173.5 45C173.534 45 173.57 44.9983 173.604 44.9966Z" fill="#FFDE46" stroke="black" stroke-miterlimit="10"/>
<path d="M8.60439 204.997C8.60439 201.444 11.4602 198.559 15 198.503C15 198.503 15 198.502 15 198.5C15 198.5 15 198.498 15 198.497C11.4587 198.441 8.60439 195.556 8.60439 192.003C8.57011 192.003 8.53428 192 8.5 192C8.46572 192 8.42989 192.002 8.39561 192.003C8.39561 195.556 5.53979 198.441 2 198.497C2 198.497 2 198.498 2 198.5C2 198.502 2 198.502 2 198.503C5.54135 198.559 8.39561 201.444 8.39561 204.997C8.42989 204.997 8.46572 205 8.5 205C8.53428 205 8.57011 204.998 8.60439 204.997Z" fill="#FFDE46" stroke="black" stroke-miterlimit="10"/>
<path d="M74.1044 229.997C74.1044 226.444 76.9602 223.559 80.5 223.503V223.5V223.497C76.9587 223.441 74.1044 220.556 74.1044 217.003C74.0701 217.003 74.0343 217 74 217C73.9657 217 73.9299 217.002 73.8956 217.003C73.8956 220.556 71.0398 223.441 67.5 223.497V223.5V223.503C71.0413 223.559 73.8956 226.444 73.8956 229.997C73.9299 229.997 73.9657 230 74 230C74.0343 230 74.0701 229.998 74.1044 229.997Z" fill="#FFDE46" stroke="black" stroke-miterlimit="10"/>
<path d="M239.604 243.997C239.604 240.444 242.46 237.559 246 237.503C246 237.503 246 237.502 246 237.5C246 237.5 246 237.498 246 237.497C242.459 237.441 239.604 234.556 239.604 231.003C239.57 231.003 239.534 231 239.5 231C239.466 231 239.43 231.002 239.396 231.003C239.396 234.556 236.54 237.441 233 237.497C233 237.497 233 237.498 233 237.5C233 237.502 233 237.502 233 237.503C236.541 237.559 239.396 240.444 239.396 243.997C239.43 243.997 239.466 244 239.5 244C239.534 244 239.57 243.998 239.604 243.997Z" fill="#FFDE46" stroke="black" stroke-miterlimit="10"/>
<path d="M193.604 214.997C193.604 211.444 196.46 208.559 200 208.503C200 208.503 200 208.502 200 208.5C200 208.5 200 208.498 200 208.497C196.459 208.441 193.604 205.556 193.604 202.003C193.57 202.003 193.534 202 193.5 202C193.466 202 193.43 202.002 193.396 202.003C193.396 205.556 190.54 208.441 187 208.497C187 208.497 187 208.498 187 208.5C187 208.502 187 208.502 187 208.503C190.541 208.559 193.396 211.444 193.396 214.997C193.43 214.997 193.466 215 193.5 215C193.534 215 193.57 214.998 193.604 214.997Z" fill="#FFDE46" stroke="black" stroke-miterlimit="10"/>
</g>
<defs>
<clipPath id="clip0_1584_5196">
<rect width="250" height="250" fill="white"/>
</clipPath>
</defs>
</svg>
