<svg width="375" height="227" viewBox="0 0 375 227" fill="none" xmlns="http://www.w3.org/2000/svg">
<g clip-path="url(#clip0_1723_4405)">
<rect x="0.697222" y="0.113146" width="25.3206" height="39.4606" rx="2.5" transform="matrix(0.810612 -0.585583 0.583832 0.811875 192.474 114.097)" fill="#1575E5" stroke="black"/>
<path d="M251.976 84.7666L263.145 126.133L234.949 109.138L232.491 96.4197L232.431 96.1111L232.127 96.031L209.84 90.1642L209.271 90.0144L209.215 90.6001L207.553 107.964L207.551 107.987V108.011V108.015V108.018V108.021V108.025V108.028V108.031V108.034V108.038V108.041V108.044V108.047V108.051V108.054V108.057V108.06V108.064V108.067V108.07V108.074V108.077V108.08V108.083V108.087V108.09V108.093V108.096V108.1V108.103V108.106V108.109V108.112V108.116V108.119V108.122V108.125V108.129V108.132V108.135V108.138V108.142V108.145V108.148V108.151V108.155V108.158V108.161V108.164V108.167V108.171V108.174V108.177V108.18V108.184V108.187V108.19V108.193V108.196V108.2V108.203V108.206V108.209V108.213V108.216V108.219V108.222V108.225V108.229V108.232V108.235V108.238V108.242V108.245V108.248V108.251V108.254V108.258V108.261V108.264V108.267V108.271V108.274V108.277V108.28V108.283V108.287V108.29V108.293V108.296V108.3V108.303V108.306V108.309V108.312V108.316V108.319V108.322V108.325V108.329V108.332V108.335V108.338V108.342V108.345V108.348V108.351V108.355V108.358V108.361V108.364V108.367V108.371V108.374V108.377V108.38V108.384V108.387V108.39V108.393V108.397V108.4V108.403V108.406V108.41V108.413V108.416V108.42V108.423V108.426V108.429V108.433V108.436V108.439V108.442V108.446V108.449V108.452V108.455V108.459V108.462V108.465V108.469V108.472V108.475V108.479V108.482V108.485V108.488V108.492V108.495V108.498V108.502V108.505V108.508V108.512V108.515V108.518V108.522V108.525V108.528V108.531V108.535V108.538V108.541V108.545V108.548V108.552V108.555V108.558V108.562V108.565V108.568V108.572V108.575V108.578V108.582V108.585V108.588V108.592V108.595V108.599V108.602V108.605V108.609V108.612V108.616V108.619V108.622V108.626V108.629V108.633V108.636V108.639V108.643V108.646V108.65V108.653V108.657V108.66V108.663V108.667V108.67V108.674V108.677V108.681V108.684V108.688V108.691V108.695V108.698V108.702V108.705V108.709V108.712V108.716V108.719V108.723V108.726V108.73V108.733V108.737V108.74V108.744V108.747V108.751V108.754V108.758V108.761V108.765V108.769V108.772V108.776V108.779V108.783V108.786V108.79V108.794V108.797V108.801V108.804V108.808V108.812V108.815V108.819V108.822V108.826V108.83V108.833V108.837V108.841V108.844V108.848V108.852V108.855V108.859V108.863V108.866V108.87V108.874V108.877V108.881V108.885V108.889V108.892V108.896V108.9V108.903V108.907V108.911V108.915V108.918V108.922V108.926V108.93V108.934V108.937V108.941V108.945V108.949V108.953V108.956V108.96V108.964V108.968V108.972V108.975V108.979V108.983V108.987V108.991V108.995V108.999V109.003V109.006V109.01V109.014V109.018V109.022V109.026V109.03V109.034V109.038V109.042V109.046V109.05V109.054V109.058V109.062V109.066V109.069V109.073V109.077V109.082V109.086V109.09V109.094V109.098V109.102V109.106V109.11V109.114V109.118V109.122V109.126V109.13V109.134V109.138V109.142V109.147V109.151V109.155V109.159V109.163V109.167V109.171V109.176V109.18V109.184V109.188V109.192V109.196V109.201V109.205V109.209V109.213V109.218V109.222V109.226V109.23V109.235V109.239V109.243V109.247V109.252V109.256V109.26V109.265V109.269V109.273V109.278V109.282V109.286V109.291V109.295V109.3V109.304V109.308V109.313V109.317V109.322V109.326V109.33V109.335V109.339V109.344V109.348V109.353V109.357V109.362V109.366V109.371V109.375V109.38V109.384V109.389V109.393V109.398V109.403V109.407V109.412V109.416V109.421V109.426V109.43V109.435V109.44V109.444V109.449V109.454V109.458V109.463V109.468V109.472V109.477V109.482V109.486V109.491V109.496V109.501V109.505V109.51V109.515V109.52V109.525V109.529V109.531C207.476 109.528 207.42 109.525 207.377 109.523C207.355 109.522 207.335 109.521 207.317 109.519C207.247 109.515 207.198 109.513 207.131 109.513C207.077 109.513 207.002 109.515 206.854 109.519C206.629 109.525 206.236 109.536 205.495 109.551H205.492H205.489H205.485H205.48H205.475H205.469H205.463H205.456H205.448H205.44H205.431H205.422H205.412H205.401H205.39H205.378H205.366H205.353H205.34H205.326H205.311H205.296H205.28H205.264H205.247H205.23H205.212H205.193H205.174H205.155H205.134H205.114H205.093H205.071H205.049H205.026H205.002H204.979H204.954H204.929H204.904H204.878H204.852H204.825H204.797H204.769H204.741H204.712H204.682H204.652H204.622H204.591H204.559H204.527H204.495H204.462H204.429H204.395H204.36H204.326H204.29H204.255H204.218H204.182H204.145H204.107H204.069H204.03H203.991H203.952H203.912H203.872H203.831H203.79H203.748H203.706H203.664H203.621H203.578H203.534H203.49H203.445H203.4H203.355H203.309H203.262H203.216H203.169H203.121H203.073H203.025H202.976H202.927H202.878H202.828H202.778H202.727H202.676H202.625H202.573H202.521H202.469H202.416H202.362H202.309H202.255H202.201H202.146H202.091H202.036H201.98H201.924H201.867H201.811H201.754H201.696H201.638H201.58H201.522H201.463H201.404H201.345H201.285H201.225H201.164H201.104H201.043H200.982H200.92H200.858H200.796H200.733H200.671H200.607H200.544H200.48H200.416H200.352H200.288H200.223H200.158H200.092H200.027H199.961H199.895H199.828H199.762H199.695H199.627H199.56H199.492H199.424H199.356H199.288H199.219H199.15H199.081H199.011H198.942H198.872H198.802H198.731H198.661H198.59H198.519H198.448H198.376H198.305H198.233H198.161H198.089H198.016H197.943H197.871H197.797H197.724H197.651H197.577H197.503H197.429H197.355H197.281H197.206H197.132H197.057H196.982H196.906H196.831H196.755H196.68H196.604H196.528H196.452H196.375H196.299H196.222H196.146H196.069H195.992H195.915H195.837H195.76H195.682H195.605H195.527H195.449H195.371H195.293H195.215H195.136H195.058H194.979H194.901H194.822H194.743H194.664H194.585H194.506H194.426H194.347H194.268H194.188H194.109H194.029H193.949H193.87H193.79H193.71H193.63H193.55H193.47H193.389H193.309H193.229H193.149H193.068H192.988H192.907H192.827H192.746H192.666H192.585H192.504H192.424H192.343H192.262H192.182H192.101H192.02H191.939H191.858H191.778H191.697H191.616H191.535H191.454H191.374H191.293H191.212H191.131H191.05H190.97H190.889H190.808H190.727H190.647H190.566H190.485H190.405H190.324H190.244H190.163H190.083H190.002H189.922H189.842H189.762H189.681H189.601H189.521H189.441H189.361H189.281H189.201H189.122H189.042H188.962H188.883H188.804H188.724H188.645H188.566H188.487H188.408H188.329H188.25H188.171H188.093H188.014H187.936H187.857H187.779H187.701H187.623H187.545H187.468H187.39H187.313H187.235H187.158H187.081H187.004H186.928H186.851H186.774H186.698H186.622H186.546H186.47H186.394H186.319H186.243H186.168H186.093H186.018H185.943H185.869H185.794H185.72H185.646H185.572H185.498H185.425H185.351H185.278H185.205H185.133H185.06H184.988H184.916H184.844H184.772H184.701H184.629H184.558H184.487H184.417H184.346H184.276H184.206H184.137H184.067H183.998H183.929H183.86H183.791H183.723H183.655H183.587H183.52H183.453H183.386H183.319H183.252H183.186H183.12H183.054H182.989H182.924H182.859H182.794H182.73H182.666H182.602H182.539H182.475H182.413H182.35H182.288H182.226H182.164H182.103H182.042H181.981H181.92H181.86H181.8H181.741H181.682H181.623H181.564H181.506H181.448H181.391H181.334H181.277H181.22H181.164H181.108H181.053H180.998H180.943H180.889H180.834H180.781H180.727H180.675H180.622H180.57H180.518H180.466H180.415H180.365H180.314H180.264H180.215H180.166H180.117H180.068H180.02H179.973H179.926H179.879H179.832H179.787H179.741H179.696H179.651H179.607H179.563H179.519H179.476H179.434H179.392H179.35H179.309H179.268H179.227H179.187H179.148H179.109H179.07H179.032H178.994H178.957H178.92H178.884H178.848H178.812H178.777H178.743H178.709H178.675H178.642H178.61H178.578H178.546H178.515H178.484H178.454H178.425H178.396H178.367H178.339H178.311H178.284H178.258H178.231H178.206H178.181H178.156H178.132H178.109H178.086H178.063H178.042H178.02H177.999H177.979H177.959H177.94H177.922H177.903H177.886H177.869H177.853H177.837H177.821H177.807H177.792H177.779H177.766H177.753H177.741H177.73H177.719H177.709H177.7H177.691H177.682H177.674H177.667H177.661H177.655H177.649H177.644H177.64H177.637C177.368 109.551 176.967 109.538 176.628 109.526C176.543 109.522 176.463 109.519 176.391 109.516C176.361 109.397 176.326 109.255 176.292 109.104C176.191 108.666 176.108 108.225 176.108 108.011C176.108 107.912 176.079 107.551 176.034 107.047C175.988 106.524 175.921 105.809 175.842 104.967C175.684 103.283 175.472 101.092 175.261 98.9179C175.049 96.7441 174.838 94.5878 174.68 92.975C174.6 92.1686 174.534 91.4981 174.488 91.0291L174.434 90.4851L174.42 90.3419L174.418 90.3174V89.5V88.1207L173.534 89.1796L152.274 114.65L145.207 113.878L145.207 113.878L145.035 113.857L109.563 109.614L113.625 79.3385L146.837 90.8146L147.137 90.9184L147.359 90.6904L164.94 72.5907L172.879 71.7266L172.927 71.7214L172.973 71.707C173.392 71.5764 178.085 70.3999 182.709 69.2478C185.012 68.6737 187.289 68.1081 188.99 67.686C189.84 67.4749 190.546 67.2998 191.04 67.1774L191.612 67.0354L191.698 67.0142L209.294 71.1173L209.35 71.1303H209.407C209.825 71.1303 210.206 71.3015 210.485 71.5822C210.562 71.6591 210.653 71.7262 210.762 71.7704C210.848 71.8052 210.934 71.8213 211.016 71.8232L211.308 71.8873L244.29 79.132L251.976 84.7666Z" fill="#A6CFFF" stroke="black" stroke-miterlimit="10"/>
<path d="M117.503 38.4615C113.95 38.4615 111.065 35.6057 111.009 32.0659C111.009 32.0659 111.007 32.0659 111.006 32.0659C111.004 32.0659 111.004 32.0659 111.003 32.0659C110.947 35.6073 108.062 38.4615 104.509 38.4615C104.509 38.4958 104.506 38.5316 104.506 38.5659C104.506 38.6002 104.507 38.636 104.509 38.6703C108.062 38.6703 110.947 41.5261 111.003 45.0659C111.003 45.0659 111.004 45.0659 111.006 45.0659C111.007 45.0659 111.007 45.0659 111.009 45.0659C111.065 41.5246 113.95 38.6703 117.503 38.6703C117.503 38.636 117.506 38.6002 117.506 38.5659C117.506 38.5316 117.504 38.4958 117.503 38.4615Z" fill="#C8E1FF" stroke="black" stroke-miterlimit="10"/>
<path d="M57.0018 17.7672C53.4488 17.7672 50.5641 14.9114 50.508 11.3716C50.508 11.3716 50.5064 11.3716 50.5049 11.3716C50.5033 11.3716 50.5033 11.3716 50.5018 11.3716C50.4457 14.9129 47.561 17.7672 44.008 17.7672C44.008 17.8015 44.0049 17.8373 44.0049 17.8716C44.0049 17.9059 44.0064 17.9417 44.008 17.976C47.561 17.976 50.4457 20.8318 50.5018 24.3716C50.5018 24.3716 50.5033 24.3716 50.5049 24.3716C50.5064 24.3716 50.5064 24.3716 50.508 24.3716C50.5641 20.8302 53.4488 17.976 57.0018 17.976C57.0018 17.9417 57.0049 17.9059 57.0049 17.8716C57.0049 17.8373 57.0033 17.8015 57.0018 17.7672Z" fill="#C8E1FF" stroke="black" stroke-miterlimit="10"/>
<path d="M142.074 8.96348C138.521 8.96348 135.636 6.10766 135.58 2.56787C135.58 2.56787 135.579 2.56787 135.577 2.56787C135.576 2.56787 135.576 2.56787 135.574 2.56787C135.518 6.10922 132.633 8.96348 129.08 8.96348C129.08 8.99776 129.077 9.03359 129.077 9.06787C129.077 9.10215 129.079 9.13798 129.08 9.17226C132.633 9.17226 135.518 12.0281 135.574 15.5679C135.574 15.5679 135.576 15.5679 135.577 15.5679C135.579 15.5679 135.579 15.5679 135.58 15.5679C135.636 12.0265 138.521 9.17226 142.074 9.17226C142.074 9.13798 142.077 9.10215 142.077 9.06787C142.077 9.03359 142.076 8.99776 142.074 8.96348Z" fill="#C8E1FF" stroke="black" stroke-miterlimit="10"/>
<path d="M24.9695 126.802C21.4166 126.802 18.5318 123.946 18.4758 120.406C18.4758 120.406 18.4742 120.406 18.4727 120.406C18.4711 120.406 18.4711 120.406 18.4695 120.406C18.4135 123.947 15.5287 126.802 11.9758 126.802C11.9758 126.836 11.9727 126.872 11.9727 126.906C11.9727 126.94 11.9742 126.976 11.9758 127.01C15.5287 127.01 18.4135 129.866 18.4695 133.406C18.4695 133.406 18.4711 133.406 18.4727 133.406C18.4742 133.406 18.4742 133.406 18.4758 133.406C18.5318 129.865 21.4166 127.01 24.9695 127.01C24.9695 126.976 24.9727 126.94 24.9727 126.906C24.9727 126.872 24.9711 126.836 24.9695 126.802Z" fill="#C8E1FF" stroke="black" stroke-miterlimit="10"/>
<path d="M341.675 68.4149C341.675 64.8619 344.531 61.9772 348.07 61.9211C348.07 61.9211 348.07 61.9195 348.07 61.918C348.07 61.9164 348.07 61.9164 348.07 61.9149C344.529 61.8588 341.675 58.974 341.675 55.4211C341.64 55.4211 341.605 55.418 341.57 55.418C341.536 55.418 341.5 55.4195 341.466 55.4211C341.466 58.974 338.61 61.8588 335.07 61.9149C335.07 61.9149 335.07 61.9164 335.07 61.918C335.07 61.9195 335.07 61.9195 335.07 61.9211C338.612 61.9772 341.466 64.8619 341.466 68.4149C341.5 68.4149 341.536 68.418 341.57 68.418C341.605 68.418 341.64 68.4164 341.675 68.4149Z" fill="#C8E1FF" stroke="black" stroke-miterlimit="10"/>
<path d="M236.131 13.14C236.131 9.58699 238.987 6.70226 242.526 6.64618C242.526 6.64618 242.526 6.64462 242.526 6.64307C242.526 6.64151 242.526 6.64151 242.526 6.63995C238.985 6.58388 236.131 3.69914 236.131 0.146182C236.096 0.146182 236.061 0.143066 236.026 0.143066C235.992 0.143066 235.956 0.144624 235.922 0.146182C235.922 3.69914 233.066 6.58388 229.526 6.63995C229.526 6.63995 229.526 6.64151 229.526 6.64307C229.526 6.64462 229.526 6.64462 229.526 6.64618C233.068 6.70226 235.922 9.58699 235.922 13.14C235.956 13.14 235.992 13.1431 236.026 13.1431C236.061 13.1431 236.096 13.1415 236.131 13.14Z" fill="#C8E1FF" stroke="black" stroke-miterlimit="10"/>
<path d="M323.084 18.4041C323.084 14.8512 325.94 11.9664 329.479 11.9103C329.479 11.9103 329.479 11.9088 329.479 11.9072C329.479 11.9057 329.479 11.9057 329.479 11.9041C325.938 11.848 323.084 8.9633 323.084 5.41034C323.05 5.41034 323.014 5.40723 322.979 5.40723C322.945 5.40723 322.909 5.40878 322.875 5.41034C322.875 8.9633 320.019 11.848 316.479 11.9041C316.479 11.9041 316.479 11.9057 316.479 11.9072C316.479 11.9088 316.479 11.9088 316.479 11.9103C320.021 11.9664 322.875 14.8512 322.875 18.4041C322.909 18.4041 322.945 18.4072 322.979 18.4072C323.014 18.4072 323.05 18.4057 323.084 18.4041Z" fill="#C8E1FF" stroke="black" stroke-miterlimit="10"/>
<path d="M283.291 54.7713C283.291 51.2183 286.147 48.3336 289.687 48.2775C289.687 48.2775 289.687 48.276 289.687 48.2744C289.687 48.2729 289.687 48.2729 289.687 48.2713C286.145 48.2152 283.291 45.3305 283.291 41.7775C283.257 41.7775 283.221 41.7744 283.187 41.7744C283.152 41.7744 283.116 41.776 283.082 41.7775C283.082 45.3305 280.226 48.2152 276.687 48.2713C276.687 48.2713 276.687 48.2729 276.687 48.2744C276.687 48.276 276.687 48.276 276.687 48.2775C280.228 48.3336 283.082 51.2183 283.082 54.7713C283.116 54.7713 283.152 54.7744 283.187 54.7744C283.221 54.7744 283.257 54.7729 283.291 54.7713Z" fill="#C8E1FF" stroke="black" stroke-miterlimit="10"/>
<path d="M357.528 174.076C357.528 170.523 360.384 167.638 363.924 167.582C363.924 167.582 363.924 167.58 363.924 167.579C363.924 167.577 363.924 167.577 363.924 167.575C360.382 167.519 357.528 164.635 357.528 161.082C357.494 161.082 357.458 161.079 357.424 161.079C357.39 161.079 357.354 161.08 357.319 161.082C357.319 164.635 354.464 167.519 350.924 167.575C350.924 167.575 350.924 167.577 350.924 167.579C350.924 167.58 350.924 167.58 350.924 167.582C354.465 167.638 357.319 170.523 357.319 174.076C357.354 174.076 357.39 174.079 357.424 174.079C357.458 174.079 357.494 174.077 357.528 174.076Z" fill="#C8E1FF" stroke="black" stroke-miterlimit="10"/>
<path d="M305.119 109.048C305.119 105.495 307.975 102.61 311.515 102.554C311.515 102.554 311.515 102.552 311.515 102.551C311.515 102.549 311.515 102.549 311.515 102.548C307.973 102.492 305.119 99.6069 305.119 96.0539C305.085 96.0539 305.049 96.0508 305.015 96.0508C304.98 96.0508 304.945 96.0523 304.91 96.0539C304.91 99.6069 302.054 102.492 298.515 102.548C298.515 102.548 298.515 102.549 298.515 102.551C298.515 102.552 298.515 102.552 298.515 102.554C302.056 102.61 304.91 105.495 304.91 109.048C304.945 109.048 304.98 109.051 305.015 109.051C305.049 109.051 305.085 109.049 305.119 109.048Z" fill="#C8E1FF" stroke="black" stroke-miterlimit="10"/>
<path d="M52.9892 163.298C52.9892 159.745 55.845 156.86 59.3848 156.804V156.801V156.798C55.8434 156.742 52.9892 153.857 52.9892 150.304C52.9549 150.304 52.919 150.301 52.8848 150.301C52.8505 150.301 52.8147 150.302 52.7804 150.304C52.7804 153.857 49.9246 156.742 46.3848 156.798V156.801V156.804C49.9261 156.86 52.7804 159.745 52.7804 163.298C52.8147 163.298 52.8505 163.301 52.8848 163.301C52.919 163.301 52.9549 163.299 52.9892 163.298Z" fill="#C8E1FF" stroke="black" stroke-miterlimit="10"/>
<path d="M36.6024 202.221C36.6024 198.668 39.4583 195.783 42.998 195.727C42.998 195.727 42.998 195.725 42.998 195.724C42.998 195.724 42.998 195.722 42.998 195.721C39.4567 195.664 36.6024 192.78 36.6024 189.227C36.5682 189.227 36.5323 189.224 36.498 189.224C36.4638 189.224 36.4279 189.225 36.3937 189.227C36.3937 192.78 33.5378 195.664 29.998 195.721C29.998 195.721 29.998 195.722 29.998 195.724C29.998 195.725 29.998 195.725 29.998 195.727C33.5394 195.783 36.3937 198.668 36.3937 202.221C36.4279 202.221 36.4638 202.224 36.498 202.224C36.5323 202.224 36.5682 202.222 36.6024 202.221Z" fill="#C8E1FF" stroke="black" stroke-miterlimit="10"/>
<path d="M250.423 173.391C250.423 173.391 250.423 173.392 250.423 173.393C250.423 173.395 250.424 173.397 250.425 173.398C250.425 173.396 250.423 173.393 250.423 173.391Z" fill="#4E9FFF" stroke="black" stroke-miterlimit="10"/>
<path d="M281.721 194.908C280.396 194.575 279.663 194.042 279.345 193.783C276.636 191.586 276.987 187.447 277.056 186.753C266.239 186.787 255.667 180.818 251.119 174.947C256.172 184.324 263.965 188.799 269.624 191.891C271.186 192.745 275.557 193.978 280.298 194.784C281.144 194.928 281.923 195.021 282.615 195.081C282.316 195.039 282.017 194.982 281.719 194.908H281.721Z" fill="#4E9FFF" stroke="black" stroke-miterlimit="10"/>
<path d="M283.979 195.169C284.196 195.178 284.398 195.183 284.583 195.188C284.575 195.175 284.567 195.162 284.558 195.148C284.365 195.159 284.172 195.168 283.979 195.169Z" fill="#4E9FFF" stroke="black" stroke-miterlimit="10"/>
<path d="M261.007 189.674C253.523 199.31 256.046 213.211 265.447 219.308C274.185 224.975 286.711 222.508 293.001 213.107C291.971 207.898 290.712 199.794 290.647 189.789C290.567 176.903 292.526 169.99 288.294 166.471C285.56 164.196 282.727 165.402 272.062 165.223C265.101 165.106 259.456 164.477 255.83 163.976C257.558 172.559 259.276 181.091 261.004 189.674" fill="#1575E5"/>
<path d="M261.007 189.674C253.523 199.31 256.046 213.211 265.447 219.308C274.185 224.975 286.711 222.508 293.001 213.107C291.971 207.898 290.712 199.794 290.647 189.789C290.567 176.903 292.526 169.99 288.294 166.471C285.56 164.196 282.727 165.402 272.062 165.223C265.101 165.106 259.456 164.477 255.83 163.976C257.558 172.559 259.276 181.091 261.004 189.674" stroke="black" stroke-miterlimit="10"/>
<path d="M199.048 58.0818H185.832V66.5057H199.048V58.0818Z" fill="#F4DBCB" stroke="black" stroke-miterlimit="10"/>
<path d="M207.15 36.8401C206.888 36.8401 206.631 36.8534 206.376 36.8771C206.878 38.3585 207.15 39.9436 207.15 41.5893V48.6946C207.15 50.3403 206.878 51.9253 206.376 53.4067C206.631 53.4304 206.89 53.4437 207.15 53.4437C211.711 53.4437 215.408 49.7261 215.408 45.1412C215.408 40.5563 211.711 36.8386 207.15 36.8386V36.8401Z" fill="#F4DBCB" stroke="black" stroke-miterlimit="10"/>
<path d="M179.529 48.6945V41.5893C179.529 40.0871 179.757 38.6353 180.178 37.2678C179.356 36.991 178.477 36.8401 177.563 36.8401C173.002 36.8401 169.305 40.5577 169.305 45.1426C169.305 49.7276 173.002 53.4452 177.563 53.4452C178.477 53.4452 179.357 53.2928 180.178 53.0175C179.757 51.65 179.529 50.1982 179.529 48.696V48.6945Z" fill="#F4DBCB" stroke="black" stroke-miterlimit="10"/>
<path d="M173.729 47.426C176.194 47.426 178.658 48.3658 180.527 50.2453C182.397 52.1249 183.331 54.6023 183.331 57.0798" stroke="black" stroke-miterlimit="10"/>
<path d="M211.688 47.426C209.224 47.426 206.76 48.3658 204.89 50.2453C203.021 52.1249 202.086 54.6023 202.086 57.0798" stroke="black" stroke-miterlimit="10"/>
<path d="M194.161 26H190.839C182.644 26 176 32.1622 176 39.7636V49.2364C176 56.8378 182.644 64 190.839 64H194.161C202.356 64 209 56.8378 209 49.2364V39.7636C209 32.1622 202.356 26 194.161 26Z" fill="#F4DBCB" stroke="black" stroke-miterlimit="10"/>
<path d="M185.098 46.9392C185.802 46.9392 186.372 46.3661 186.372 45.6591C186.372 44.9521 185.802 44.3789 185.098 44.3789C184.395 44.3789 183.825 44.9521 183.825 45.6591C183.825 46.3661 184.395 46.9392 185.098 46.9392Z" fill="black"/>
<path d="M199.782 46.9392C200.485 46.9392 201.055 46.3661 201.055 45.6591C201.055 44.9521 200.485 44.3789 199.782 44.3789C199.079 44.3789 198.509 44.9521 198.509 45.6591C198.509 46.3661 199.079 46.9392 199.782 46.9392Z" fill="black"/>
<path d="M192.521 51.7965H191.835C191.184 51.7965 190.651 51.2608 190.651 50.6066C190.651 49.9525 191.184 49.4167 191.835 49.4167H192.521" fill="#F4DBCB"/>
<path d="M192.521 51.7965H191.835C191.184 51.7965 190.651 51.2608 190.651 50.6066C190.651 49.9525 191.184 49.4167 191.835 49.4167H192.521" stroke="black" stroke-miterlimit="10"/>
<path d="M199.309 54.2913C197.566 56.0435 195.164 57.1298 192.52 57.1298C189.877 57.1298 187.474 56.042 185.731 54.2913" fill="#F4DBCB"/>
<path d="M199.309 54.2913C197.566 56.0435 195.164 57.1298 192.52 57.1298C189.877 57.1298 187.474 56.042 185.731 54.2913" stroke="black" stroke-miterlimit="10"/>
<path d="M181.422 41.1008C183.867 41.7076 186.312 42.3159 188.758 42.9227L181.422 41.1008Z" fill="#1575E5"/>
<path d="M181.422 41.1008C183.867 41.7076 186.312 42.3159 188.758 42.9227" stroke="black" stroke-miterlimit="10"/>
<path d="M180.482 24.8676C180.244 24.9978 179.913 25.2316 179.726 25.6283C179.496 26.1137 179.596 26.6006 179.642 26.8122C180.677 31.5821 183.342 34.8469 183.342 34.8469C184.757 36.5725 186.9 39.1269 190.577 40.598C191.516 40.9739 194.699 42.2482 195.541 41.19C196.69 39.7456 192.762 34.8528 193.018 34.6782C193.208 34.548 194.986 37.5493 198.065 40.006C200.26 41.7568 202.302 42.5693 203.953 43.2205C206.415 44.1899 209.858 45.547 214.201 45.1548C214.778 45.103 222.526 44.3334 223.092 40.8689C223.349 39.3016 222.04 37.7698 221.023 36.8286C224.819 34.9357 225.216 32.8371 225.286 32.2984C225.679 29.232 221.897 26.3076 218.166 23.4216C216.576 22.1918 215.152 21.2964 214.123 20.6956C214.506 20.7459 216.595 20.9975 217.095 20.0621C217.6 19.1194 216.205 17.5063 215.625 16.8373C210.987 11.4784 191.709 4.48115 183.813 12.9406C182.918 13.8996 182.372 14.8394 182.084 15.3958C182.771 12.063 182.075 9.55149 180.822 9.1371C179.857 8.81743 178.585 9.75128 177.962 10.66C176.98 12.0941 177.11 14.2045 178.383 15.9035C177.79 15.7614 176.904 15.6193 175.86 15.7347C170.798 16.2927 167.183 22.3235 166.102 27.1526C165.11 31.5866 165.4 38.6918 168.962 40.0075C169.541 40.2206 171.388 40.7209 174.504 38.5172C174.622 38.9508 175.586 42.3429 177.894 42.744C178.314 42.8165 178.707 42.7795 178.963 42.704C181.717 41.8959 181.529 32.9037 181.501 31.9107" fill="#1575E5"/>
<path d="M180.482 24.8676C180.244 24.9978 179.913 25.2316 179.726 25.6283C179.496 26.1137 179.596 26.6006 179.642 26.8122C180.677 31.5821 183.342 34.8469 183.342 34.8469C184.757 36.5725 186.9 39.1269 190.577 40.598C191.516 40.9739 194.699 42.2482 195.541 41.19C196.69 39.7456 192.762 34.8528 193.018 34.6782C193.208 34.548 194.986 37.5493 198.065 40.006C200.26 41.7568 202.302 42.5693 203.953 43.2205C206.415 44.1899 209.858 45.547 214.201 45.1548C214.778 45.103 222.526 44.3334 223.092 40.8689C223.349 39.3016 222.04 37.7698 221.023 36.8286C224.819 34.9357 225.216 32.8371 225.286 32.2984C225.679 29.232 221.897 26.3076 218.166 23.4216C216.576 22.1918 215.152 21.2964 214.123 20.6956C214.506 20.7459 216.595 20.9975 217.095 20.0621C217.6 19.1194 216.205 17.5063 215.625 16.8373C210.987 11.4784 191.709 4.48115 183.813 12.9406C182.918 13.8996 182.372 14.8394 182.084 15.3958C182.771 12.063 182.075 9.55149 180.822 9.1371C179.857 8.81743 178.585 9.75128 177.962 10.66C176.98 12.0941 177.11 14.2045 178.383 15.9035C177.79 15.7614 176.904 15.6193 175.86 15.7347C170.798 16.2927 167.183 22.3235 166.102 27.1526C165.11 31.5866 165.4 38.6918 168.962 40.0075C169.541 40.2206 171.388 40.7209 174.504 38.5172C174.622 38.9508 175.586 42.3429 177.894 42.744C178.314 42.8165 178.707 42.7795 178.963 42.704C181.717 41.8959 181.529 32.9037 181.501 31.9107" stroke="black" stroke-miterlimit="10"/>
<path d="M202.978 41.1008C200.533 41.7076 198.088 42.3159 195.642 42.9227L202.978 41.1008Z" fill="#1575E5"/>
<path d="M202.978 41.1008C200.533 41.7076 198.088 42.3159 195.642 42.9227" stroke="black" stroke-miterlimit="10"/>
<path d="M192.705 66.5059C195.219 65.7881 197.733 65.0703 200.248 64.3525C201.203 65.8754 202.158 67.3983 203.115 68.9197C200.13 71.3143 197.146 73.7088 194.161 76.1034C193.675 72.9037 193.191 69.7041 192.705 66.5059Z" fill="#A6CFFF" stroke="black" stroke-miterlimit="10"/>
<path d="M192.576 66.5059C190.062 65.7881 187.548 65.0703 185.033 64.3525C184.078 65.8754 183.123 67.3983 182.166 68.9197C185.151 71.3143 188.135 73.7088 191.12 76.1034C191.606 72.9037 192.09 69.7041 192.576 66.5059Z" fill="#A6CFFF" stroke="black" stroke-miterlimit="10"/>
<path d="M136.179 197.858C124.35 178.071 105.529 180.553 96.4625 189.903C88.0353 198.593 87.9426 213.495 97.1338 222.857H161.307V191.649C151.195 191.649 143.587 192.742 136.18 197.858H136.179Z" fill="#1575E5" stroke="black" stroke-miterlimit="10"/>
<path d="M225.881 153.005L203.807 115.315V109.651H180.177V115.358L144.027 143.964L144.067 144.013L143.998 144.002L136.182 197.744L161.331 201.441L167.684 157.764L189.2 140.737L209.105 174.722L209.159 174.689L209.14 174.756L261.059 189.757L268.079 165.197L225.881 153.005Z" fill="#1575E5" stroke="black" stroke-miterlimit="10"/>
<path d="M216.416 115.952L212.939 116.743L177.47 69.8249L180.945 69.0334L216.416 115.952Z" fill="#1575E5" stroke="black" stroke-miterlimit="10"/>
<path d="M236.569 145.877L248.41 149.253C254.933 151.112 261.72 147.303 263.569 140.745L267.729 125.995C269.579 119.437 265.79 112.613 259.267 110.753L247.426 107.378C240.903 105.518 234.116 109.327 232.267 115.885L228.107 130.636C226.257 137.194 230.046 144.018 236.569 145.877Z" fill="#F4DBCB" stroke="black" stroke-miterlimit="10"/>
<path d="M221.922 130.267L222.664 127.636C223.509 124.639 221.778 121.521 218.798 120.672L217.587 120.327C214.607 119.477 211.506 121.217 210.661 124.214L209.919 126.845C209.074 129.841 210.805 132.959 213.785 133.809L214.996 134.154C217.976 135.004 221.077 133.263 221.922 130.267Z" fill="#F4DBCB" stroke="black" stroke-miterlimit="10"/>
<path d="M223.035 135.933L224.086 136.233C226.675 136.971 229.37 135.459 230.104 132.856L235.263 114.561C235.997 111.958 234.493 109.25 231.904 108.512L230.853 108.212C228.263 107.474 225.569 108.986 224.835 111.589L219.676 129.883C218.942 132.486 220.446 135.195 223.035 135.933Z" fill="#F4DBCB" stroke="black" stroke-miterlimit="10"/>
<path d="M244.689 112.763C241.821 111.945 238.809 113.636 237.997 116.519L233.135 133.757C232.321 136.641 234.003 139.669 236.871 140.485C239.739 141.303 242.75 139.612 243.562 136.729L248.425 119.491" fill="#F4DBCB"/>
<path d="M244.689 112.763C241.821 111.945 238.809 113.636 237.997 116.519L233.135 133.757C232.321 136.641 234.003 139.669 236.871 140.485C239.739 141.303 242.75 139.612 243.562 136.729L248.425 119.491" stroke="black" stroke-miterlimit="10"/>
<path d="M248.352 119.472L243.489 136.71C242.676 139.593 244.357 142.622 247.225 143.438C250.093 144.256 253.105 142.565 253.917 139.682L258.779 122.443" fill="#F4DBCB"/>
<path d="M248.352 119.472L243.489 136.71C242.676 139.593 244.357 142.622 247.225 143.438C250.093 144.256 253.105 142.565 253.917 139.682L258.779 122.443" stroke="black" stroke-miterlimit="10"/>
<path d="M95.141 69.9207L85.7386 79.3738C80.5591 84.5813 80.5591 93.0242 85.7386 98.2316L97.3882 109.944C102.568 115.152 110.965 115.152 116.145 109.944L125.547 100.491C130.727 95.2836 130.727 86.8406 125.547 81.6332L113.897 69.9207C108.718 64.7133 100.32 64.7132 95.141 69.9207Z" fill="#F4DBCB" stroke="black" stroke-miterlimit="10"/>
<path d="M140.744 68.4229L138.666 66.3336C136.299 63.9542 132.462 63.9542 130.096 66.3336L129.135 67.2999C126.768 69.6793 126.768 73.537 129.135 75.9163L131.213 78.0056C133.579 80.385 137.416 80.385 139.783 78.0056L140.744 77.0393C143.111 74.6599 143.111 70.8022 140.744 68.4229Z" fill="#F4DBCB" stroke="black" stroke-miterlimit="10"/>
<path d="M108.025 140.294C108.025 140.294 108.025 140.294 108.028 140.289C108.03 140.287 108.035 140.283 108.039 140.282C108.036 140.287 108.028 140.289 108.025 140.294Z" fill="#4E9FFF" stroke="black" stroke-miterlimit="10"/>
<path d="M136.971 62.3394C136.968 65.3294 136.226 67.1707 135.848 67.9876C132.635 74.913 123.723 76.3776 122.219 76.5994C127.976 99.5547 120.937 125.191 110.944 137.986C128.068 122.247 133.414 103.31 136.963 89.639C137.941 85.8669 138.247 75.926 137.456 65.4258C137.317 63.5537 137.102 61.8505 136.868 60.3471C136.937 61.0031 136.975 61.6693 136.971 62.3394Z" fill="#4E9FFF" stroke="black" stroke-miterlimit="10"/>
<path d="M136.336 57.4065C136.24 56.9385 136.145 56.5068 136.054 56.1146C136.03 56.1365 136.008 56.1627 135.983 56.1847C136.11 56.588 136.229 56.9935 136.333 57.4049L136.336 57.4065Z" fill="#4E9FFF" stroke="black" stroke-miterlimit="10"/>
<path d="M111.725 137.247C111.493 137.464 111.268 137.682 111.034 137.898C111.267 137.685 111.498 137.467 111.725 137.247Z" fill="#A6CFFF" stroke="black" stroke-miterlimit="10"/>
<path d="M136.335 57.4063C136.33 57.385 136.322 57.362 136.318 57.338C136.254 57.0888 136.183 56.8391 136.109 56.5948C136.083 56.5062 136.055 56.4134 136.029 56.3248C133.508 48.1678 126.69 41.713 124.437 39.689C125.094 44.8818 126.774 63.2513 115.134 81.2864C106.249 95.0547 94.2309 101.451 88.9683 103.872C90.7741 107.463 92.8167 112.625 93.6765 119.084C95.3572 131.7 91.5147 141.756 89.3965 146.349C97.5051 146.02 102.995 143.558 106.446 141.403C108.043 140.405 109.544 139.258 110.951 137.979C120.945 125.184 127.979 99.5491 122.223 76.598C123.726 76.372 132.639 74.9117 135.852 67.9862C136.23 67.1694 136.971 65.3307 136.975 62.3381C136.977 61.6664 136.94 61.0044 136.872 60.3457C136.878 60.3783 136.882 60.4135 136.888 60.4461C136.781 59.4116 136.595 58.395 136.341 57.4026C136.341 57.4026 136.342 57.4068 136.343 57.4111L136.335 57.4063ZM108.031 140.292C108.031 140.292 108.031 140.292 108.028 140.297C108.031 140.292 108.039 140.29 108.042 140.285C108.041 140.287 108.035 140.291 108.031 140.292Z" fill="#A6CFFF" stroke="black" stroke-miterlimit="10"/>
<path d="M111.226 61.933L110.391 62.7725C108.335 64.8395 108.335 68.1908 110.391 70.2578L124.839 84.7844C126.895 86.8515 130.228 86.8515 132.284 84.7844L133.119 83.9449C135.175 81.8779 135.175 78.5266 133.119 76.4596L118.671 61.933C116.615 59.8659 113.281 59.8659 111.226 61.933Z" fill="#F4DBCB" stroke="black" stroke-miterlimit="10"/>
<path d="M104.376 72.3873C106.652 70.0988 110.379 70.0988 112.655 72.3873L126.269 86.0749C128.546 88.3635 128.546 92.1103 126.269 94.3989C123.993 96.6875 120.266 96.6875 117.99 94.3989L104.376 80.7114" fill="#F4DBCB"/>
<path d="M104.376 72.3873C106.652 70.0988 110.379 70.0988 112.655 72.3873L126.269 86.0749C128.546 88.3635 128.546 92.1103 126.269 94.3989C123.993 96.6875 120.266 96.6875 117.99 94.3989L104.376 80.7114" stroke="black" stroke-miterlimit="10"/>
<path d="M104.429 80.6521L118.043 94.3397C120.319 96.6282 120.319 100.375 118.043 102.664C115.766 104.952 112.04 104.952 109.763 102.664L96.1494 88.9761" fill="#F4DBCB"/>
<path d="M104.429 80.6521L118.043 94.3397C120.319 96.6282 120.319 100.375 118.043 102.664C115.766 104.952 112.04 104.952 109.763 102.664L96.1494 88.9761" stroke="black" stroke-miterlimit="10"/>
<path d="M151.619 209.271C151.619 209.271 151.62 209.272 151.621 209.273C151.622 209.274 151.626 209.276 151.628 209.276C151.626 209.273 151.621 209.273 151.619 209.271Z" fill="#4E9FFF" stroke="black" stroke-miterlimit="10"/>
<path d="M206.003 203.433C204.243 204.311 202.941 204.417 202.351 204.433C197.329 204.572 193.832 199.72 193.256 198.896C181.467 209.079 164.315 212.471 153.838 210.319C168.154 215.828 180.868 213.41 189.954 211.482C192.461 210.949 198.394 208.198 204.331 204.631C205.391 203.996 206.329 203.367 207.142 202.783C206.777 203.018 206.396 203.237 206.001 203.434L206.003 203.433Z" fill="#4E9FFF" stroke="black" stroke-miterlimit="10"/>
<path d="M208.715 201.602C208.961 201.407 209.187 201.224 209.393 201.055C209.373 201.048 209.352 201.042 209.329 201.035C209.128 201.228 208.925 201.419 208.715 201.602Z" fill="#4E9FFF" stroke="black" stroke-miterlimit="10"/>
<path d="M67.0137 154.8C67.0137 154.8 67.0148 154.801 67.0159 154.803C67.0171 154.804 67.0206 154.805 67.023 154.805C67.0207 154.803 67.0159 154.803 67.0137 154.8Z" fill="#4E9FFF" stroke="black" stroke-miterlimit="10"/>
<path d="M121.228 147.559C119.492 148.483 118.193 148.622 117.604 148.653C112.587 148.922 108.965 144.162 108.369 143.353C96.8462 153.837 79.7883 157.671 69.2588 155.791C83.7127 160.928 96.3601 158.183 105.393 156.02C107.885 155.423 113.745 152.519 119.588 148.801C120.631 148.138 121.553 147.485 122.35 146.881C121.991 147.125 121.616 147.353 121.227 147.561L121.228 147.559Z" fill="#4E9FFF" stroke="black" stroke-miterlimit="10"/>
<path d="M123.893 145.659C124.133 145.458 124.354 145.269 124.556 145.095C124.536 145.088 124.514 145.083 124.492 145.076C124.296 145.275 124.098 145.471 123.893 145.659Z" fill="#4E9FFF" stroke="black" stroke-miterlimit="10"/>
<path d="M79.4561 198.505C79.4561 198.505 79.4557 198.507 79.4553 198.509C79.455 198.51 79.4526 198.513 79.4506 198.515C79.4513 198.511 79.4553 198.509 79.4561 198.505Z" fill="#4E9FFF" stroke="black" stroke-miterlimit="10"/>
<path d="M28.885 219.342C30.8508 219.274 32.0446 218.745 32.571 218.477C37.0498 216.201 37.8064 210.268 37.9183 209.27C53.1394 212.588 69.8289 207.379 78.0078 200.486C68.0589 212.162 55.7332 216.108 46.8295 218.751C44.3722 219.48 37.8456 219.896 30.9259 219.597C29.6915 219.545 28.5667 219.44 27.574 219.315C28.0068 219.347 28.4463 219.358 28.887 219.343L28.885 219.342Z" fill="#4E9FFF" stroke="black" stroke-miterlimit="10"/>
<path d="M25.6273 219.028C25.3186 218.974 25.0327 218.921 24.7712 218.872C24.7851 218.856 24.801 218.84 24.8173 218.823C25.086 218.897 25.3556 218.968 25.6273 219.028Z" fill="#4E9FFF" stroke="black" stroke-miterlimit="10"/>
<path d="M337.459 132.677C337.459 132.677 337.459 132.679 337.458 132.681C337.458 132.682 337.456 132.685 337.454 132.686C337.454 132.683 337.458 132.681 337.459 132.677Z" fill="#4E9FFF" stroke="black" stroke-miterlimit="10"/>
<path d="M286.888 153.514C288.854 153.446 290.048 152.917 290.574 152.649C295.053 150.373 295.809 144.44 295.921 143.441C311.142 146.76 327.832 141.551 336.011 134.658C326.062 146.334 313.736 150.28 304.832 152.923C302.375 153.652 295.849 154.068 288.929 153.769C287.694 153.717 286.57 153.612 285.577 153.487C286.01 153.519 286.449 153.529 286.89 153.515L286.888 153.514Z" fill="#4E9FFF" stroke="black" stroke-miterlimit="10"/>
<path d="M283.63 153.2C283.321 153.146 283.036 153.093 282.774 153.043C282.788 153.028 282.804 153.012 282.82 152.995C283.089 153.069 283.359 153.14 283.63 153.2Z" fill="#4E9FFF" stroke="black" stroke-miterlimit="10"/>
<path d="M69.9312 156.019C69.7325 155.952 69.5365 155.888 69.3379 155.817C69.5336 155.887 69.7323 155.955 69.9312 156.019Z" fill="#A6CFFF" stroke="black" stroke-miterlimit="10"/>
<path d="M123.892 145.659C123.904 145.648 123.915 145.638 123.927 145.627C124.053 145.514 124.174 145.394 124.294 145.273C124.338 145.231 124.381 145.187 124.424 145.142C128.369 141.137 129.993 135.15 130.468 133.203C127.66 135.198 117.529 141.877 103.449 140.66C92.6998 139.731 85.2501 134.687 82.2098 132.359C80.6884 134.527 78.3307 137.325 74.8523 139.829C68.0578 144.723 61.0309 145.594 57.708 145.78C60.4202 150.419 63.5564 152.868 65.8792 154.217C66.9551 154.842 68.0867 155.364 69.2664 155.79C79.7961 157.667 96.8509 153.836 108.371 143.352C108.967 144.161 112.589 148.921 117.605 148.652C118.195 148.621 119.494 148.482 121.23 147.558C121.619 147.351 121.993 147.123 122.354 146.878C122.337 146.893 122.318 146.905 122.301 146.917C122.868 146.535 123.4 146.11 123.897 145.652C123.897 145.652 123.894 145.655 123.892 145.656L123.892 145.659ZM67.0165 154.803C67.0165 154.803 67.0151 154.802 67.0137 154.8C67.0165 154.803 67.0223 154.803 67.025 154.807C67.0237 154.805 67.0194 154.803 67.0165 154.803Z" fill="#A6CFFF" stroke="black" stroke-miterlimit="10"/>
<path d="M154.504 210.564C154.307 210.492 154.113 210.423 153.916 210.348C154.11 210.423 154.307 210.495 154.504 210.564Z" fill="#A6CFFF" stroke="black" stroke-miterlimit="10"/>
<path d="M208.714 201.602C208.727 201.591 208.737 201.582 208.75 201.571C208.879 201.461 209.002 201.344 209.126 201.227C209.171 201.185 209.215 201.142 209.259 201.099C213.306 197.197 215.084 191.254 215.609 189.32C212.751 191.242 202.451 197.657 188.407 196.077C177.685 194.87 170.368 189.635 167.389 187.229C165.812 189.358 163.383 192.094 159.841 194.507C152.922 199.224 145.875 199.914 142.549 200.013C145.14 204.721 148.212 207.25 150.499 208.658C151.559 209.311 152.676 209.862 153.845 210.319C164.322 212.467 181.471 209.078 193.257 198.894C193.833 199.719 197.33 204.57 202.352 204.432C202.943 204.416 204.244 204.31 206.004 203.432C206.398 203.234 206.778 203.017 207.145 202.781C207.127 202.796 207.108 202.807 207.091 202.819C207.668 202.451 208.21 202.04 208.719 201.595C208.719 201.595 208.716 201.598 208.714 201.599L208.714 201.602ZM151.621 209.274C151.621 209.274 151.62 209.272 151.618 209.271C151.621 209.274 151.627 209.274 151.63 209.277C151.628 209.276 151.624 209.274 151.621 209.274Z" fill="#A6CFFF" stroke="black" stroke-miterlimit="10"/>
<path d="M77.5391 201.019C77.6776 200.861 77.8152 200.708 77.9521 200.548C77.8176 200.706 77.6791 200.864 77.5391 201.019Z" fill="#A6CFFF" stroke="black" stroke-miterlimit="10"/>
<path d="M25.6271 219.028C25.6111 219.025 25.5971 219.022 25.5811 219.018C25.415 218.982 25.2506 218.939 25.0863 218.895C25.0267 218.88 24.9675 218.863 24.9083 218.846C19.4891 217.35 15.0896 212.977 13.7049 211.529C17.1336 211.852 29.2471 212.571 40.8324 204.477C49.6767 198.298 53.6061 190.205 55.075 186.668C57.477 187.786 60.9175 189.03 65.1819 189.459C73.5134 190.3 80.0344 187.541 83.0049 186.04C82.9755 191.414 81.4842 195.103 80.1468 197.433C79.5277 198.512 78.8088 199.53 78.0001 200.489C69.8196 207.379 53.1341 212.589 37.9154 209.269C37.8035 210.268 37.0469 216.201 32.5682 218.476C32.0417 218.744 30.848 219.273 28.8822 219.342C28.4414 219.356 28.0039 219.347 27.5691 219.314C27.5911 219.319 27.614 219.32 27.6344 219.322C26.9517 219.274 26.2787 219.172 25.6196 219.024C25.6196 219.024 25.6236 219.025 25.6256 219.026L25.6271 219.028ZM79.4551 198.509C79.4551 198.509 79.4555 198.507 79.4559 198.505C79.4551 198.509 79.4502 198.512 79.4494 198.516C79.4498 198.514 79.4526 198.511 79.4551 198.509Z" fill="#A6CFFF" stroke="black" stroke-miterlimit="10"/>
<path d="M335.544 135.191C335.682 135.033 335.82 134.88 335.957 134.72C335.823 134.878 335.684 135.036 335.544 135.191Z" fill="#A6CFFF" stroke="black" stroke-miterlimit="10"/>
<path d="M283.632 153.2C283.616 153.196 283.602 153.193 283.586 153.19C283.42 153.154 283.256 153.111 283.091 153.067C283.032 153.052 282.972 153.035 282.913 153.018C277.494 151.522 273.094 147.149 271.71 145.7C275.139 146.024 287.252 146.743 298.837 138.649C307.682 132.47 311.611 124.376 313.08 120.84C315.482 121.958 318.922 123.201 323.187 123.631C331.518 124.472 338.039 121.713 341.01 120.212C340.98 125.586 339.489 129.275 338.152 131.604C337.533 132.684 336.814 133.702 336.005 134.661C327.825 141.551 311.139 146.761 295.92 143.441C295.808 144.44 295.052 150.373 290.573 152.648C290.047 152.916 288.853 153.445 286.887 153.513C286.446 153.528 286.009 153.519 285.574 153.486C285.596 153.491 285.619 153.492 285.639 153.494C284.957 153.446 284.284 153.344 283.624 153.196C283.624 153.196 283.628 153.197 283.63 153.197L283.632 153.2ZM337.46 132.681C337.46 132.681 337.46 132.679 337.461 132.677C337.46 132.681 337.455 132.684 337.454 132.688C337.455 132.686 337.458 132.683 337.46 132.681Z" fill="#A6CFFF" stroke="black" stroke-miterlimit="10"/>
<path d="M41.2188 105.072C41.2188 105.072 41.2191 105.073 41.2195 105.075C41.2198 105.077 41.2222 105.08 41.2242 105.081C41.2235 105.078 41.2195 105.075 41.2188 105.072Z" fill="#4E9FFF" stroke="black" stroke-miterlimit="10"/>
<path d="M91.7898 125.909C89.824 125.84 88.6302 125.311 88.1038 125.044C83.625 122.768 82.8684 116.835 82.7565 115.836C67.5354 119.154 50.8459 113.945 42.667 107.053C52.6159 118.728 64.9416 122.675 73.8453 125.318C76.3026 126.047 82.8292 126.462 89.749 126.164C90.9833 126.111 92.1081 126.007 93.1008 125.882C92.6681 125.914 92.2285 125.924 91.7878 125.909L91.7898 125.909Z" fill="#4E9FFF" stroke="black" stroke-miterlimit="10"/>
<path d="M95.0475 125.595C95.3562 125.541 95.6421 125.488 95.9036 125.438C95.8897 125.422 95.8738 125.407 95.8575 125.389C95.5888 125.464 95.3192 125.534 95.0475 125.595Z" fill="#4E9FFF" stroke="black" stroke-miterlimit="10"/>
<path d="M43.1357 107.585C42.9972 107.428 42.8596 107.274 42.7227 107.114C42.8572 107.273 42.9957 107.43 43.1357 107.585Z" fill="#A6CFFF" stroke="black" stroke-miterlimit="10"/>
<path d="M95.0477 125.594C95.0637 125.591 95.0777 125.588 95.0937 125.584C95.2598 125.549 95.4242 125.505 95.5885 125.461C95.6482 125.447 95.7073 125.43 95.7665 125.413C101.186 123.917 105.585 119.544 106.97 118.095C103.541 118.418 91.4277 119.137 79.8424 111.044C70.9981 104.864 67.0687 96.771 65.5998 93.2346C63.1978 94.3522 59.7573 95.596 55.4929 96.0253C47.1615 96.8667 40.6404 94.1076 37.6699 92.6069C37.6994 97.9804 39.1906 101.67 40.528 103.999C41.1471 105.078 41.866 106.096 42.6747 107.055C50.8552 113.945 67.5407 119.155 82.7594 115.835C82.8713 116.834 83.6279 122.767 88.1066 125.043C88.6331 125.311 89.8268 125.84 91.7926 125.908C92.2334 125.923 92.6709 125.913 93.1057 125.881C93.0837 125.886 93.0608 125.886 93.0404 125.888C93.7231 125.841 94.3961 125.738 95.0553 125.591C95.0553 125.591 95.0512 125.592 95.0492 125.592L95.0477 125.594ZM41.2197 105.075C41.2197 105.075 41.2193 105.073 41.2189 105.071C41.2197 105.075 41.2246 105.079 41.2254 105.083C41.225 105.081 41.2222 105.077 41.2197 105.075Z" fill="#A6CFFF" stroke="black" stroke-miterlimit="10"/>
<path d="M284.359 173.023C284.359 173.023 284.36 173.025 284.36 173.027C284.36 173.028 284.363 173.031 284.365 173.033C284.364 173.029 284.36 173.027 284.359 173.023Z" fill="#4E9FFF" stroke="black" stroke-miterlimit="10"/>
<path d="M334.93 193.86C332.965 193.792 331.771 193.263 331.244 192.995C326.766 190.72 326.009 184.787 325.897 183.788C310.676 187.106 293.987 181.897 285.808 175.004C295.757 186.68 308.082 190.626 316.986 193.269C319.443 193.999 325.97 194.414 332.89 194.115C334.124 194.063 335.249 193.958 336.241 193.834C335.809 193.865 335.369 193.876 334.928 193.861L334.93 193.86Z" fill="#4E9FFF" stroke="black" stroke-miterlimit="10"/>
<path d="M338.188 193.546C338.497 193.492 338.783 193.439 339.044 193.39C339.03 193.374 339.014 193.358 338.998 193.341C338.729 193.415 338.46 193.486 338.188 193.546Z" fill="#4E9FFF" stroke="black" stroke-miterlimit="10"/>
<path d="M286.275 175.537C286.137 175.38 285.999 175.226 285.862 175.066C285.997 175.224 286.135 175.382 286.275 175.537Z" fill="#A6CFFF" stroke="black" stroke-miterlimit="10"/>
<path d="M338.187 193.546C338.203 193.543 338.217 193.54 338.233 193.536C338.399 193.5 338.564 193.457 338.728 193.413C338.788 193.398 338.847 193.381 338.906 193.364C344.325 191.868 348.725 187.495 350.11 186.047C346.681 186.37 334.567 187.089 322.982 178.995C314.138 172.816 310.208 164.723 308.739 161.186C306.337 162.304 302.897 163.548 298.633 163.977C290.301 164.818 283.78 162.059 280.81 160.559C280.839 165.932 282.33 169.622 283.668 171.951C284.287 173.03 285.006 174.048 285.814 175.007C293.995 181.897 310.68 187.107 325.899 183.787C326.011 184.786 326.768 190.719 331.246 192.995C331.773 193.262 332.966 193.791 334.932 193.86C335.373 193.874 335.811 193.865 336.245 193.832C336.223 193.837 336.2 193.838 336.18 193.84C336.863 193.793 337.536 193.69 338.195 193.542C338.195 193.542 338.191 193.543 338.189 193.544L338.187 193.546ZM284.359 173.027C284.359 173.027 284.359 173.025 284.359 173.023C284.359 173.027 284.364 173.03 284.365 173.034C284.365 173.032 284.362 173.029 284.359 173.027Z" fill="#A6CFFF" stroke="black" stroke-miterlimit="10"/>
<path d="M318.478 179.218C318.478 179.218 318.479 179.219 318.481 179.219C318.482 179.22 318.486 179.219 318.488 179.218C318.485 179.217 318.481 179.219 318.478 179.218Z" fill="#4E9FFF" stroke="black" stroke-miterlimit="10"/>
<path d="M361.809 145.84C360.767 147.508 359.712 148.278 359.217 148.6C355.007 151.341 349.49 149.029 348.569 148.627C343.832 163.468 330.977 175.317 320.918 178.954C336.004 176.176 345.584 167.474 352.325 161.085C354.185 159.322 357.808 153.877 361.009 147.735C361.581 146.64 362.053 145.614 362.441 144.691C362.253 145.082 362.042 145.468 361.808 145.842L361.809 145.84Z" fill="#4E9FFF" stroke="black" stroke-miterlimit="10"/>
<path d="M363.166 142.862C363.274 142.568 363.371 142.294 363.458 142.043C363.438 142.047 363.416 142.053 363.393 142.058C363.323 142.328 363.25 142.597 363.166 142.862Z" fill="#4E9FFF" stroke="black" stroke-miterlimit="10"/>
<path d="M321.614 178.815C321.408 178.857 321.206 178.899 320.999 178.938C321.203 178.9 321.409 178.859 321.614 178.815Z" fill="#A6CFFF" stroke="black" stroke-miterlimit="10"/>
<path d="M363.166 142.863C363.171 142.847 363.175 142.834 363.18 142.818C363.232 142.656 363.277 142.492 363.321 142.328C363.338 142.269 363.353 142.209 363.368 142.15C364.782 136.708 363.194 130.712 362.632 128.788C361.198 131.919 355.764 142.769 342.962 148.756C333.188 153.325 324.214 152.682 320.417 152.186C320.184 154.825 319.541 158.426 317.781 162.334C314.344 169.97 308.694 174.238 305.909 176.06C310.577 178.721 314.518 179.274 317.204 179.281C318.448 179.284 319.689 179.171 320.924 178.95C330.981 175.31 343.836 163.465 348.57 148.625C349.491 149.028 355.007 151.339 359.218 148.598C359.713 148.276 360.768 147.507 361.81 145.839C362.043 145.464 362.253 145.081 362.443 144.688C362.436 144.709 362.425 144.73 362.417 144.748C362.717 144.133 362.965 143.499 363.166 142.855C363.166 142.855 363.165 142.858 363.164 142.86L363.166 142.863ZM318.482 179.22C318.482 179.22 318.48 179.219 318.478 179.219C318.482 179.22 318.487 179.217 318.491 179.219C318.489 179.218 318.484 179.219 318.482 179.22Z" fill="#A6CFFF" stroke="black" stroke-miterlimit="10"/>
<path d="M254.616 77.9309C254.128 80.0215 252.612 81.2776 251.957 81.7562C253.263 80.3934 255.143 79.8528 256.783 80.3935C258.444 80.9422 259.223 82.3914 259.485 82.9868C260.253 84.7397 259.716 86.3487 259.534 86.8663C258.637 89.4182 256.21 90.3659 255.821 90.5106C256.622 91.9592 257.521 94.1783 256.913 96.4514C256.546 97.8246 255.67 99.0681 249.475 103.219C244.312 106.679 242.71 107.297 240.61 109.739C239.123 111.47 238.207 113.16 237.66 114.343C236.815 117.146 236.156 119.442 235.72 120.98C235.72 120.98 230.219 140.601 228.665 145.126C228.503 145.6 228.342 146.059 228.09 146.648C226.774 149.737 225.282 151.012 223.698 153.58C223.136 154.491 222.352 155.903 221.647 157.812C221.427 158.406 231.817 122.972 244.542 79.4497C244.669 79.0167 245.051 77.7096 245.176 77.2807C245.397 76.3657 245.617 75.4509 245.837 74.5358C246.882 71.9304 248.988 70.2411 250.868 70.4172C253.601 70.6723 255.343 74.82 254.616 77.9302L254.616 77.9309Z" fill="#C8E1FF" stroke="black" stroke-miterlimit="10"/>
<path d="M197.309 187.888C197.309 187.888 197.308 187.89 197.308 187.891C197.308 187.893 197.305 187.896 197.303 187.897C197.304 187.894 197.308 187.891 197.309 187.888Z" fill="#4E9FFF" stroke="black" stroke-miterlimit="10"/>
<path d="M146.738 208.725C148.703 208.656 149.897 208.128 150.424 207.86C154.902 205.584 155.659 199.651 155.771 198.652C170.992 201.97 187.681 196.762 195.86 189.869C185.911 201.545 173.586 205.491 164.682 208.134C162.225 208.863 155.698 209.278 148.778 208.98C147.544 208.927 146.419 208.823 145.427 208.698C145.859 208.73 146.299 208.74 146.74 208.725L146.738 208.725Z" fill="#4E9FFF" stroke="black" stroke-miterlimit="10"/>
<path d="M143.48 208.411C143.171 208.357 142.885 208.304 142.624 208.254C142.638 208.238 142.654 208.223 142.67 208.205C142.939 208.28 143.208 208.35 143.48 208.411Z" fill="#4E9FFF" stroke="black" stroke-miterlimit="10"/>
<path d="M195.394 190.401C195.532 190.244 195.67 190.09 195.807 189.93C195.672 190.089 195.534 190.246 195.394 190.401Z" fill="#A6CFFF" stroke="black" stroke-miterlimit="10"/>
<path d="M143.482 208.41C143.466 208.407 143.452 208.404 143.436 208.4C143.269 208.365 143.105 208.321 142.941 208.277C142.881 208.262 142.822 208.246 142.763 208.229C137.344 206.733 132.944 202.359 131.559 200.911C134.988 201.234 147.102 201.953 158.687 193.86C167.531 187.68 171.461 179.587 172.929 176.05C175.331 177.168 178.772 178.412 183.036 178.841C191.368 179.683 197.889 176.924 200.859 175.423C200.83 180.796 199.339 184.486 198.001 186.815C197.382 187.894 196.663 188.912 195.855 189.871C187.674 196.761 170.989 201.971 155.77 198.651C155.658 199.65 154.901 205.583 150.423 207.859C149.896 208.127 148.702 208.656 146.737 208.724C146.296 208.739 145.858 208.729 145.424 208.697C145.446 208.701 145.468 208.702 145.489 208.704C144.806 208.657 144.133 208.554 143.474 208.407C143.474 208.407 143.478 208.407 143.48 208.408L143.482 208.41ZM197.31 187.891C197.31 187.891 197.31 187.889 197.31 187.887C197.31 187.891 197.305 187.895 197.304 187.899C197.304 187.897 197.307 187.893 197.31 187.891Z" fill="#A6CFFF" stroke="black" stroke-miterlimit="10"/>
</g>
<defs>
<clipPath id="clip0_1723_4405">
<rect width="375" height="227" fill="white"/>
</clipPath>
</defs>
</svg>
