<svg width="78" height="17" viewBox="0 0 78 17" fill="none" xmlns="http://www.w3.org/2000/svg">
<path d="M23.7031 3.84375V3.45312H26.7812V2.25H19.0625V3.45312H22.2031V3.84375C22.1953 5.74219 20.8516 7.57031 18.6719 8.32812L19.4375 9.46875C21.1016 8.88281 22.3438 7.67969 22.9766 6.16406C23.6094 7.57031 24.8281 8.67188 26.4375 9.20312L27.2031 8.04688C25.0391 7.36719 23.7031 5.64062 23.7031 3.84375ZM20.6406 11.6875H28.6406V15.3281H30.125V10.4844H20.6406V11.6875ZM28.6406 9.78125H30.125V1.32812H28.6406V9.78125ZM45.1406 9.35938H32.3281V10.5625H37.9688V15.3125H39.4219V10.5625H45.1406V9.35938ZM33.9375 7.57812H43.5312V2.07812H33.9375V7.57812ZM35.3906 6.42188V3.26562H42.0469V6.42188H35.3906ZM62.0625 1.32812H60.6406V6.85938H58.9062V1.70312H57.5156V14.6562H58.9062V8.0625H60.6406V15.3281H62.0625V1.32812ZM50.0312 11.3281L50.8906 12.3594C54.8984 10.1016 56.1172 6.78906 56.125 3.10938H50.625V4.32812H54.6797C54.4453 7.17969 53.1406 9.5625 50.0312 11.3281ZM65.9062 1.92188H64.4531V8.03125H71.0469V1.92188H69.5781V3.82812H65.9062V1.92188ZM65.8594 10.3125H73.4375V11.5781H65.8906V15.1875H75.3906V14H67.3438V12.6719H74.9062V9.14062H65.8594V10.3125ZM65.9062 6.84375V4.96875H69.5781V6.84375H65.9062ZM73.4219 8.53125H74.9062V5.46875H76.9375V4.26562H74.9062V1.32812H73.4219V8.53125Z" fill="#222222"/>
<path fill-rule="evenodd" clip-rule="evenodd" d="M2.7541 10.4001H4.13001V8.94902H2.7541V10.4001ZM2.7541 7.37623H4.13001V5.92517H2.7541V7.37623ZM2.7541 4.35319H4.13001V2.90212H2.7541V4.35319ZM5.81243 10.4001H7.18833V8.94902H5.81243V10.4001ZM5.81243 7.37623H7.18833V5.92517H5.81243V7.37623ZM5.81243 4.35319H7.18833V2.90212H5.81243V4.35319ZM8.87152 10.4001H10.2474V8.94902H8.87152V10.4001ZM8.87152 7.37623H10.2474V5.92517H8.87152V7.37623ZM8.87152 4.35319H10.2474V2.90212H8.87152V4.35319ZM12.2356 4.03109e-07H0.765156C0.66471 -0.000105529 0.565229 0.0206679 0.472401 0.0611331C0.379572 0.101598 0.295216 0.160962 0.224155 0.23583C0.153094 0.310698 0.0967209 0.399603 0.0582588 0.497461C0.0197968 0.59532 -5.02227e-08 0.700214 0 0.806146V16.0326C0 16.2892 0.0966406 16.5352 0.268662 16.7167C0.440683 16.8981 0.673994 17 0.917269 17H4.9716V13.9745C4.9716 13.7607 5.05213 13.5557 5.19549 13.4045C5.33884 13.2533 5.53326 13.1684 5.73599 13.1684H7.26477C7.4675 13.1684 7.66193 13.2533 7.80528 13.4045C7.94863 13.5557 8.02916 13.7607 8.02916 13.9745V17H12.0827C12.326 17 12.5593 16.8981 12.7313 16.7167C12.9034 16.5352 13 16.2892 13 16.0326V0.806146C13 0.592343 12.9195 0.387297 12.7761 0.236115C12.6328 0.0849333 12.4383 4.03109e-07 12.2356 4.03109e-07Z" fill="#222222"/>
</svg>
