<svg width="375" height="227" viewBox="0 0 375 227" fill="none" xmlns="http://www.w3.org/2000/svg">
<g clip-path="url(#clip0_1723_4405)">
<path d="M187.5 205C236.377 205 276 165.377 276 116.5C276 67.6228 236.377 28 187.5 28C138.623 28 99 67.6228 99 116.5C99 165.377 138.623 205 187.5 205Z" fill="#D9FFF6" stroke="black" stroke-miterlimit="10"/>
<path d="M363.927 222.5H11.073L187.501 163.527L363.927 222.5Z" fill="#B7FFFF" stroke="black" stroke-miterlimit="10"/>
<path d="M117.503 38.4615C113.95 38.4615 111.065 35.6057 111.009 32.0659C111.009 32.0659 111.007 32.0659 111.006 32.0659C111.004 32.0659 111.004 32.0659 111.003 32.0659C110.947 35.6073 108.062 38.4615 104.509 38.4615C104.509 38.4958 104.506 38.5316 104.506 38.5659C104.506 38.6002 104.507 38.636 104.509 38.6703C108.062 38.6703 110.947 41.5261 111.003 45.0659C111.003 45.0659 111.004 45.0659 111.006 45.0659C111.007 45.0659 111.007 45.0659 111.009 45.0659C111.065 41.5246 113.95 38.6703 117.503 38.6703C117.503 38.636 117.506 38.6002 117.506 38.5659C117.506 38.5316 117.504 38.4958 117.503 38.4615Z" fill="#00FFFF" stroke="black" stroke-miterlimit="10"/>
<path d="M57.0018 17.7672C53.4488 17.7672 50.5641 14.9114 50.508 11.3716C50.508 11.3716 50.5064 11.3716 50.5049 11.3716C50.5033 11.3716 50.5033 11.3716 50.5018 11.3716C50.4457 14.9129 47.561 17.7672 44.008 17.7672C44.008 17.8015 44.0049 17.8373 44.0049 17.8716C44.0049 17.9059 44.0064 17.9417 44.008 17.976C47.561 17.976 50.4457 20.8318 50.5018 24.3716C50.5018 24.3716 50.5033 24.3716 50.5049 24.3716C50.5064 24.3716 50.5064 24.3716 50.508 24.3716C50.5641 20.8302 53.4488 17.976 57.0018 17.976C57.0018 17.9417 57.0049 17.9059 57.0049 17.8716C57.0049 17.8373 57.0033 17.8015 57.0018 17.7672Z" fill="#00FFFF" stroke="black" stroke-miterlimit="10"/>
<path d="M142.074 8.96348C138.521 8.96348 135.636 6.10766 135.58 2.56787C135.58 2.56787 135.579 2.56787 135.577 2.56787C135.576 2.56787 135.576 2.56787 135.574 2.56787C135.518 6.10922 132.633 8.96348 129.08 8.96348C129.08 8.99776 129.077 9.03359 129.077 9.06787C129.077 9.10215 129.079 9.13798 129.08 9.17226C132.633 9.17226 135.518 12.0281 135.574 15.5679C135.574 15.5679 135.576 15.5679 135.577 15.5679C135.579 15.5679 135.579 15.5679 135.58 15.5679C135.636 12.0265 138.521 9.17226 142.074 9.17226C142.074 9.13798 142.077 9.10215 142.077 9.06787C142.077 9.03359 142.076 8.99776 142.074 8.96348Z" fill="#00FFFF" stroke="black" stroke-miterlimit="10"/>
<path d="M24.9695 126.802C21.4166 126.802 18.5318 123.946 18.4758 120.406C18.4758 120.406 18.4742 120.406 18.4727 120.406C18.4711 120.406 18.4711 120.406 18.4695 120.406C18.4135 123.947 15.5287 126.802 11.9758 126.802C11.9758 126.836 11.9727 126.872 11.9727 126.906C11.9727 126.94 11.9742 126.976 11.9758 127.01C15.5287 127.01 18.4135 129.866 18.4695 133.406C18.4695 133.406 18.4711 133.406 18.4727 133.406C18.4742 133.406 18.4742 133.406 18.4758 133.406C18.5318 129.865 21.4166 127.01 24.9695 127.01C24.9695 126.976 24.9727 126.94 24.9727 126.906C24.9727 126.872 24.9711 126.836 24.9695 126.802Z" fill="#00FFFF" stroke="black" stroke-miterlimit="10"/>
<path d="M341.675 68.4149C341.675 64.8619 344.531 61.9772 348.07 61.9211C348.07 61.9211 348.07 61.9195 348.07 61.918C348.07 61.9164 348.07 61.9164 348.07 61.9149C344.529 61.8588 341.675 58.974 341.675 55.4211C341.64 55.4211 341.605 55.418 341.57 55.418C341.536 55.418 341.5 55.4195 341.466 55.4211C341.466 58.974 338.61 61.8588 335.07 61.9149C335.07 61.9149 335.07 61.9164 335.07 61.918C335.07 61.9195 335.07 61.9195 335.07 61.9211C338.612 61.9772 341.466 64.8619 341.466 68.4149C341.5 68.4149 341.536 68.418 341.57 68.418C341.605 68.418 341.64 68.4164 341.675 68.4149Z" fill="#00FFFF" stroke="black" stroke-miterlimit="10"/>
<path d="M236.131 13.14C236.131 9.58699 238.987 6.70226 242.526 6.64618C242.526 6.64618 242.526 6.64462 242.526 6.64307C242.526 6.64151 242.526 6.64151 242.526 6.63995C238.985 6.58388 236.131 3.69914 236.131 0.146182C236.096 0.146182 236.061 0.143066 236.026 0.143066C235.992 0.143066 235.956 0.144624 235.922 0.146182C235.922 3.69914 233.066 6.58388 229.526 6.63995C229.526 6.63995 229.526 6.64151 229.526 6.64307C229.526 6.64462 229.526 6.64462 229.526 6.64618C233.068 6.70226 235.922 9.58699 235.922 13.14C235.956 13.14 235.992 13.1431 236.026 13.1431C236.061 13.1431 236.096 13.1415 236.131 13.14Z" fill="#00FFFF" stroke="black" stroke-miterlimit="10"/>
<path d="M323.084 18.4041C323.084 14.8512 325.94 11.9664 329.479 11.9103C329.479 11.9103 329.479 11.9088 329.479 11.9072C329.479 11.9057 329.479 11.9057 329.479 11.9041C325.938 11.848 323.084 8.9633 323.084 5.41034C323.05 5.41034 323.014 5.40723 322.979 5.40723C322.945 5.40723 322.909 5.40878 322.875 5.41034C322.875 8.9633 320.019 11.848 316.479 11.9041C316.479 11.9041 316.479 11.9057 316.479 11.9072C316.479 11.9088 316.479 11.9088 316.479 11.9103C320.021 11.9664 322.875 14.8512 322.875 18.4041C322.909 18.4041 322.945 18.4072 322.979 18.4072C323.014 18.4072 323.05 18.4057 323.084 18.4041Z" fill="#00FFFF" stroke="black" stroke-miterlimit="10"/>
<rect x="0.697222" y="0.113146" width="18.5693" height="29.0824" rx="2.5" transform="matrix(0.810612 -0.585583 0.583832 0.811875 198.534 122.522)" fill="#005672" stroke="black"/>
<path d="M283.291 54.7713C283.291 51.2183 286.147 48.3336 289.687 48.2775C289.687 48.2775 289.687 48.276 289.687 48.2744C289.687 48.2729 289.687 48.2729 289.687 48.2713C286.145 48.2152 283.291 45.3305 283.291 41.7775C283.257 41.7775 283.221 41.7744 283.187 41.7744C283.152 41.7744 283.116 41.776 283.082 41.7775C283.082 45.3305 280.226 48.2152 276.687 48.2713C276.687 48.2713 276.687 48.2729 276.687 48.2744C276.687 48.276 276.687 48.276 276.687 48.2775C280.228 48.3336 283.082 51.2183 283.082 54.7713C283.116 54.7713 283.152 54.7744 283.187 54.7744C283.221 54.7744 283.257 54.7729 283.291 54.7713Z" fill="#00FFFF" stroke="black" stroke-miterlimit="10"/>
<path d="M357.528 174.076C357.528 170.523 360.384 167.638 363.924 167.582C363.924 167.582 363.924 167.58 363.924 167.579C363.924 167.577 363.924 167.577 363.924 167.575C360.382 167.519 357.528 164.635 357.528 161.082C357.494 161.082 357.458 161.079 357.424 161.079C357.39 161.079 357.354 161.08 357.319 161.082C357.319 164.635 354.464 167.519 350.924 167.575C350.924 167.575 350.924 167.577 350.924 167.579C350.924 167.58 350.924 167.58 350.924 167.582C354.465 167.638 357.319 170.523 357.319 174.076C357.354 174.076 357.39 174.079 357.424 174.079C357.458 174.079 357.494 174.077 357.528 174.076Z" fill="#00FFFF" stroke="black" stroke-miterlimit="10"/>
<path d="M305.119 109.048C305.119 105.495 307.975 102.61 311.515 102.554C311.515 102.554 311.515 102.552 311.515 102.551C311.515 102.549 311.515 102.549 311.515 102.548C307.973 102.492 305.119 99.6069 305.119 96.0539C305.085 96.0539 305.049 96.0508 305.015 96.0508C304.98 96.0508 304.945 96.0523 304.91 96.0539C304.91 99.6069 302.054 102.492 298.515 102.548C298.515 102.548 298.515 102.549 298.515 102.551C298.515 102.552 298.515 102.552 298.515 102.554C302.056 102.61 304.91 105.495 304.91 109.048C304.945 109.048 304.98 109.051 305.015 109.051C305.049 109.051 305.085 109.049 305.119 109.048Z" fill="#00FFFF" stroke="black" stroke-miterlimit="10"/>
<path d="M52.9892 163.298C52.9892 159.745 55.845 156.86 59.3848 156.804V156.801V156.798C55.8434 156.742 52.9892 153.857 52.9892 150.304C52.9549 150.304 52.919 150.301 52.8848 150.301C52.8505 150.301 52.8147 150.302 52.7804 150.304C52.7804 153.857 49.9246 156.742 46.3848 156.798V156.801V156.804C49.9261 156.86 52.7804 159.745 52.7804 163.298C52.8147 163.298 52.8505 163.301 52.8848 163.301C52.919 163.301 52.9549 163.299 52.9892 163.298Z" fill="#00FFFF" stroke="black" stroke-miterlimit="10"/>
<path d="M36.6024 202.221C36.6024 198.668 39.4583 195.783 42.998 195.727C42.998 195.727 42.998 195.725 42.998 195.724C42.998 195.724 42.998 195.722 42.998 195.721C39.4567 195.664 36.6024 192.78 36.6024 189.227C36.5682 189.227 36.5323 189.224 36.498 189.224C36.4638 189.224 36.4279 189.225 36.3937 189.227C36.3937 192.78 33.5378 195.664 29.998 195.721C29.998 195.721 29.998 195.722 29.998 195.724C29.998 195.725 29.998 195.725 29.998 195.727C33.5394 195.783 36.3937 198.668 36.3937 202.221C36.4279 202.221 36.4638 202.224 36.498 202.224C36.5323 202.224 36.5682 202.222 36.6024 202.221Z" fill="#00FFFF" stroke="black" stroke-miterlimit="10"/>
<path d="M250.423 173.391C250.423 173.391 250.423 173.392 250.423 173.393C250.423 173.395 250.424 173.397 250.425 173.398C250.425 173.396 250.423 173.393 250.423 173.391Z" fill="#7ADFFF" stroke="black" stroke-miterlimit="10"/>
<path d="M281.721 194.908C280.396 194.575 279.663 194.042 279.345 193.783C276.636 191.586 276.987 187.447 277.056 186.753C266.239 186.787 255.667 180.818 251.119 174.947C256.172 184.324 263.965 188.799 269.624 191.891C271.186 192.745 275.557 193.978 280.298 194.784C281.144 194.928 281.923 195.021 282.615 195.081C282.316 195.039 282.017 194.982 281.719 194.908H281.721Z" fill="#7ADFFF" stroke="black" stroke-miterlimit="10"/>
<path d="M283.979 195.169C284.196 195.178 284.398 195.183 284.583 195.188C284.575 195.175 284.567 195.162 284.558 195.148C284.365 195.159 284.172 195.168 283.979 195.169Z" fill="#7ADFFF" stroke="black" stroke-miterlimit="10"/>
<path d="M248.929 89.3248V89.3205V89.3162H248.918L210.598 78.0302C210.541 77.6073 210.347 77.2257 210.06 76.9371C209.716 76.5913 209.242 76.3769 208.721 76.3769L192.163 72.5159L175.862 76.3769C175.34 76.3769 174.866 76.5913 174.523 76.9371C174.375 77.0857 174.255 77.2586 174.161 77.4501L166.935 77.763L141.5 99L118.796 83.889L106.5 112.667L143.5 121L148.492 117.252H148.494H148.498L148.502 117.244L174.862 96.9226L175 98.3701L177.126 111.321C177.126 111.845 177.339 112.323 177.683 112.667C178.027 113.013 178.5 113.227 179.021 113.227H205.557C206.079 113.227 206.553 113.013 206.896 112.667C207.24 112.321 207.453 111.845 207.453 111.321L208.721 96.9226L232.5 104.5L236.692 132.37L259.71 129.262L248.926 89.3248H248.929Z" fill="#50DFFF" stroke="black" stroke-miterlimit="10"/>
<path d="M258.235 190.817C251.009 200.121 253.445 213.543 262.522 219.431C270.958 224.902 283.054 222.52 289.127 213.443C288.132 208.413 286.917 200.588 286.854 190.928C286.776 178.486 288.668 171.812 284.581 168.414C281.942 166.217 279.206 167.382 268.909 167.209C262.188 167.096 256.737 166.489 253.236 166.004C254.905 174.292 256.564 182.53 258.232 190.817" fill="#005672"/>
<path d="M258.235 190.817C251.009 200.121 253.445 213.543 262.522 219.431C270.958 224.902 283.054 222.52 289.127 213.443C288.132 208.413 286.917 200.588 286.854 190.928C286.776 178.486 288.668 171.812 284.581 168.414C281.942 166.217 279.206 167.382 268.909 167.209C262.188 167.096 256.737 166.489 253.236 166.004C254.905 174.292 256.564 182.53 258.232 190.817" stroke="black" stroke-miterlimit="10"/>
<path d="M198.411 63.759H185.65V71.8927H198.411V63.759Z" fill="#F4DBCB" stroke="black" stroke-miterlimit="10"/>
<path d="M206.234 43.2492C205.981 43.2492 205.732 43.2621 205.486 43.285C205.971 44.7154 206.234 46.2458 206.234 47.8348V54.6952C206.234 56.2843 205.971 57.8147 205.486 59.2451C205.732 59.2679 205.982 59.2808 206.234 59.2808C210.637 59.2808 214.207 55.6912 214.207 51.2643C214.207 46.8374 210.637 43.2478 206.234 43.2478V43.2492Z" fill="#F4DBCB" stroke="black" stroke-miterlimit="10"/>
<path d="M179.565 54.6953V47.8348C179.565 46.3844 179.785 44.9826 180.191 43.6622C179.397 43.395 178.548 43.2493 177.666 43.2493C173.263 43.2493 169.692 46.8388 169.692 51.2658C169.692 55.6927 173.263 59.2823 177.666 59.2823C178.548 59.2823 179.398 59.1351 180.191 58.8693C179.785 57.5489 179.565 56.1471 179.565 54.6967V54.6953Z" fill="#F4DBCB" stroke="black" stroke-miterlimit="10"/>
<path d="M173.965 53.4705C176.344 53.4705 178.723 54.3779 180.528 56.1926C182.333 58.0074 183.236 60.3995 183.236 62.7916" stroke="black" stroke-miterlimit="10"/>
<path d="M210.616 53.4705C208.237 53.4705 205.857 54.3779 204.052 56.1926C202.247 58.0074 201.345 60.3995 201.345 62.7916" stroke="black" stroke-miterlimit="10"/>
<path d="M193.532 33.6338H190.688C183.672 33.6338 177.984 39.352 177.984 46.4059V56.1243C177.984 63.1781 183.672 68.8964 190.688 68.8964H193.532C200.548 68.8964 206.235 63.1781 206.235 56.1243V46.4059C206.235 39.352 200.548 33.6338 193.532 33.6338Z" fill="#F4DBCB" stroke="black" stroke-miterlimit="10"/>
<path d="M185.908 53.0004C186.587 53.0004 187.138 52.447 187.138 51.7644C187.138 51.0817 186.587 50.5283 185.908 50.5283C185.229 50.5283 184.679 51.0817 184.679 51.7644C184.679 52.447 185.229 53.0004 185.908 53.0004Z" fill="black"/>
<path d="M198.154 53.0004C198.833 53.0004 199.384 52.447 199.384 51.7644C199.384 51.0817 198.833 50.5283 198.154 50.5283C197.475 50.5283 196.925 51.0817 196.925 51.7644C196.925 52.447 197.475 53.0004 198.154 53.0004Z" fill="black"/>
<path d="M192.109 57.6904H191.446C190.818 57.6904 190.304 57.1731 190.304 56.5415C190.304 55.9099 190.818 55.3926 191.446 55.3926H192.109" fill="#F4DBCB"/>
<path d="M192.109 57.6904H191.446C190.818 57.6904 190.304 57.1731 190.304 56.5415C190.304 55.9099 190.818 55.3926 191.446 55.3926H192.109" stroke="black" stroke-miterlimit="10"/>
<path d="M198.664 59.1335C196.981 60.8254 194.661 61.8743 192.109 61.8743C189.556 61.8743 187.237 60.824 185.554 59.1335" fill="#F4DBCB"/>
<path d="M198.664 59.1335C196.981 60.8254 194.661 61.8743 192.109 61.8743C189.556 61.8743 187.237 60.824 185.554 59.1335" stroke="black" stroke-miterlimit="10"/>
<path d="M181.393 47.3633C183.753 47.9492 186.114 48.5365 188.476 49.1223L181.393 47.3633Z" fill="#005672"/>
<path d="M181.393 47.3633C183.753 47.9492 186.114 48.5365 188.476 49.1223" stroke="black" stroke-miterlimit="10"/>
<path d="M180.485 32.6548C180.255 32.7806 179.935 33.0064 179.755 33.3893C179.533 33.858 179.63 34.3281 179.674 34.5325C180.673 39.138 183.247 42.2903 183.247 42.2903C184.613 43.9565 186.682 46.4229 190.233 47.8433C191.139 48.2063 194.212 49.4366 195.025 48.4149C196.135 47.0202 192.342 42.2961 192.589 42.1274C192.773 42.0017 194.489 44.8996 197.463 47.2717C199.582 48.9622 201.553 49.7467 203.148 50.3754C205.524 51.3114 208.849 52.6218 213.043 52.2431C213.6 52.1931 221.08 51.45 221.628 48.1048C221.875 46.5915 220.611 45.1125 219.629 44.2037C223.295 42.3761 223.678 40.3498 223.745 39.8297C224.125 36.8688 220.473 34.0452 216.87 31.2587C215.335 30.0713 213.961 29.2067 212.968 28.6266C213.337 28.6752 215.354 28.9181 215.837 28.015C216.325 27.1047 214.977 25.5472 214.417 24.9013C209.939 19.727 191.326 12.9708 183.702 21.1388C182.838 22.0648 182.31 22.9722 182.032 23.5095C182.696 20.2914 182.023 17.8665 180.814 17.4664C179.881 17.1577 178.653 18.0594 178.052 18.9368C177.104 20.3214 177.229 22.3591 178.459 23.9996C177.886 23.8624 177.03 23.7252 176.023 23.8367C171.135 24.3754 167.644 30.1984 166.601 34.8612C165.687 38.9437 165.785 45.9928 169.362 47.2731C172.233 48.3006 175.764 45.0468 176.348 44.4967C176.979 48.9507 177.563 49.9039 177.988 49.9153C178.786 49.9339 179.637 46.6615 180.815 42.1289C181.105 41.0157 181.325 40.0883 181.47 39.4553" fill="#005672"/>
<path d="M180.485 32.6548C180.255 32.7806 179.935 33.0064 179.755 33.3893C179.533 33.858 179.63 34.3281 179.674 34.5325C180.673 39.138 183.247 42.2903 183.247 42.2903C184.613 43.9565 186.682 46.4229 190.233 47.8433C191.139 48.2063 194.212 49.4366 195.025 48.4149C196.135 47.0202 192.342 42.2961 192.589 42.1274C192.773 42.0017 194.489 44.8996 197.463 47.2717C199.582 48.9622 201.553 49.7467 203.148 50.3754C205.524 51.3114 208.849 52.6218 213.043 52.2431C213.6 52.1931 221.08 51.45 221.628 48.1048C221.875 46.5915 220.611 45.1125 219.629 44.2037C223.295 42.3761 223.678 40.3498 223.745 39.8297C224.125 36.8688 220.473 34.0452 216.87 31.2587C215.335 30.0713 213.961 29.2067 212.968 28.6266C213.337 28.6752 215.354 28.9181 215.837 28.015C216.325 27.1047 214.977 25.5472 214.417 24.9013C209.939 19.727 191.326 12.9708 183.702 21.1388C182.838 22.0648 182.31 22.9722 182.032 23.5095C182.696 20.2914 182.023 17.8665 180.814 17.4664C179.881 17.1577 178.653 18.0594 178.052 18.9368C177.104 20.3214 177.229 22.3591 178.459 23.9996C177.886 23.8624 177.03 23.7252 176.023 23.8367C171.135 24.3754 167.644 30.1984 166.601 34.8612C165.687 38.9437 165.785 45.9928 169.362 47.2731C172.233 48.3006 175.764 45.0468 176.348 44.4967C176.979 48.9507 177.563 49.9039 177.988 49.9153C178.786 49.9339 179.637 46.6615 180.815 42.1289C181.105 41.0157 181.325 40.0883 181.47 39.4553" stroke="black" stroke-miterlimit="10"/>
<path d="M180.485 32.6548C180.255 32.7806 179.935 33.0064 179.755 33.3893C179.533 33.858 179.63 34.3281 179.674 34.5325C180.673 39.138 183.247 42.2903 183.247 42.2903C184.613 43.9565 186.682 46.4229 190.233 47.8433C191.139 48.2063 194.212 49.4366 195.025 48.4149C196.135 47.0202 192.342 42.2961 192.589 42.1274C192.772 42.0017 194.489 44.8996 197.463 47.2717C199.582 48.9622 201.553 49.7467 203.148 50.3754C205.524 51.3114 208.849 52.6218 213.043 52.2431C213.6 52.1931 221.08 51.45 221.627 48.1048C221.875 46.5915 220.611 45.1125 219.629 44.2037C223.295 42.3761 223.678 40.3498 223.745 39.8297C224.125 36.8688 220.473 34.0452 216.87 31.2587C215.335 30.0713 213.961 29.2067 212.967 28.6266C213.337 28.6752 215.354 28.9181 215.837 28.015C216.325 27.1047 214.977 25.5472 214.417 24.9013C209.939 19.727 191.326 12.9708 183.702 21.1388C182.838 22.0648 182.31 22.9722 182.032 23.5095C182.695 20.2914 182.023 17.8665 180.814 17.4664C179.881 17.1577 178.653 18.0594 178.052 18.9368C177.104 20.3214 177.229 22.3591 178.459 23.9996C177.886 23.8624 177.03 23.7252 176.023 23.8367C171.135 24.3754 167.644 30.1984 166.601 34.8612C165.643 39.1423 165.923 46.0028 169.362 47.2731C169.921 47.4789 171.705 47.9619 174.713 45.8342C174.827 46.2529 175.758 49.528 177.987 49.9153C178.392 49.9853 178.771 49.9496 179.019 49.8767C181.678 49.0965 181.496 40.4141 181.469 39.4553" fill="#00A2D6"/>
<path d="M180.485 32.6548C180.255 32.7806 179.935 33.0064 179.755 33.3893C179.533 33.858 179.63 34.3281 179.674 34.5325C180.673 39.138 183.247 42.2903 183.247 42.2903C184.613 43.9565 186.682 46.4229 190.233 47.8433C191.139 48.2063 194.212 49.4366 195.025 48.4149C196.135 47.0202 192.342 42.2961 192.589 42.1274C192.772 42.0017 194.489 44.8996 197.463 47.2717C199.582 48.9622 201.553 49.7467 203.148 50.3754C205.524 51.3114 208.849 52.6218 213.043 52.2431C213.6 52.1931 221.08 51.45 221.627 48.1048C221.875 46.5915 220.611 45.1125 219.629 44.2037C223.295 42.3761 223.678 40.3498 223.745 39.8297C224.125 36.8688 220.473 34.0452 216.87 31.2587C215.335 30.0713 213.961 29.2067 212.967 28.6266C213.337 28.6752 215.354 28.9181 215.837 28.015C216.325 27.1047 214.977 25.5472 214.417 24.9013C209.939 19.727 191.326 12.9708 183.702 21.1388C182.838 22.0648 182.31 22.9722 182.032 23.5095C182.695 20.2914 182.023 17.8665 180.814 17.4664C179.881 17.1577 178.653 18.0594 178.052 18.9368C177.104 20.3214 177.229 22.3591 178.459 23.9996C177.886 23.8624 177.03 23.7252 176.023 23.8367C171.135 24.3754 167.644 30.1984 166.601 34.8612C165.643 39.1423 165.923 46.0028 169.362 47.2731C169.921 47.4789 171.705 47.9619 174.713 45.8342C174.827 46.2529 175.758 49.528 177.987 49.9153C178.392 49.9853 178.771 49.9496 179.019 49.8767C181.678 49.0965 181.496 40.4141 181.469 39.4553" stroke="black" stroke-miterlimit="10"/>
<path d="M202.206 47.3633C199.845 47.9492 197.484 48.5365 195.122 49.1223L202.206 47.3633Z" fill="#005672"/>
<path d="M202.206 47.3633C199.845 47.9492 197.484 48.5365 195.122 49.1223" stroke="black" stroke-miterlimit="10"/>
<path d="M192.287 71.8929C194.715 71.1998 197.142 70.5068 199.57 69.8137C200.492 71.2841 201.415 72.7545 202.338 74.2235C199.456 76.5356 196.575 78.8476 193.693 81.1597C193.224 78.0703 192.756 74.9809 192.287 71.8929Z" fill="#50DFFF" stroke="black" stroke-miterlimit="10"/>
<path d="M192.162 71.8929C189.734 71.1998 187.307 70.5068 184.879 69.8137C183.957 71.2841 183.034 72.7545 182.11 74.2235C184.993 76.5356 187.874 78.8476 190.756 81.1597C191.225 78.0703 191.693 74.9809 192.162 71.8929Z" fill="#50DFFF" stroke="black" stroke-miterlimit="10"/>
<path d="M137.708 198.719C126.287 179.614 108.114 182.01 99.3607 191.038C91.2238 199.429 91.1342 213.818 100.009 222.857H161.971V192.725C152.207 192.725 144.862 193.779 137.71 198.719H137.708Z" fill="#005672" stroke="black" stroke-miterlimit="10"/>
<path d="M224.32 155.412L203.006 119.02V113.552H180.19V119.062L145.286 146.682L145.325 146.729L145.258 146.719L137.711 198.609L161.994 202.179L168.128 160.007L188.903 143.567L208.122 176.38L208.174 176.349L208.156 176.413L258.286 190.897L265.064 167.183L224.32 155.412Z" fill="#00A2D6" stroke="black" stroke-miterlimit="10"/>
<path d="M215.181 119.635L211.823 120.399L177.576 75.0977L180.932 74.3335L215.181 119.635Z" fill="#005672" stroke="black" stroke-miterlimit="10"/>
<path d="M234.64 148.529L246.073 151.789C252.371 153.584 258.924 149.906 260.71 143.574L264.726 129.332C266.512 123 262.854 116.411 256.556 114.616L245.123 111.356C238.825 109.561 232.272 113.239 230.486 119.571L226.469 133.813C224.684 140.145 228.342 146.734 234.64 148.529Z" fill="#F4DBCB" stroke="black" stroke-miterlimit="10"/>
<path d="M220.498 133.457L221.214 130.916C222.03 128.023 220.359 125.012 217.481 124.192L216.312 123.859C213.434 123.039 210.44 124.719 209.624 127.612L208.908 130.153C208.092 133.046 209.763 136.057 212.641 136.877L213.81 137.21C216.687 138.03 219.682 136.35 220.498 133.457Z" fill="#F4DBCB" stroke="black" stroke-miterlimit="10"/>
<path d="M221.571 138.928L222.587 139.217C225.087 139.93 227.688 138.47 228.397 135.957L233.378 118.293C234.087 115.779 232.635 113.164 230.135 112.451L229.12 112.162C226.62 111.449 224.019 112.909 223.31 115.422L218.328 133.087C217.619 135.6 219.071 138.215 221.571 138.928Z" fill="#F4DBCB" stroke="black" stroke-miterlimit="10"/>
<path d="M242.48 116.556C239.711 115.766 236.803 117.399 236.019 120.183L231.324 136.827C230.538 139.611 232.162 142.535 234.931 143.323C237.7 144.113 240.608 142.481 241.392 139.697L246.087 123.052" fill="#F4DBCB"/>
<path d="M242.48 116.556C239.711 115.766 236.803 117.399 236.019 120.183L231.324 136.827C230.538 139.611 232.162 142.535 234.931 143.323C237.7 144.113 240.608 142.481 241.392 139.697L246.087 123.052" stroke="black" stroke-miterlimit="10"/>
<path d="M246.016 123.034L241.321 139.678C240.535 142.462 242.159 145.386 244.928 146.174C247.697 146.964 250.605 145.331 251.389 142.547L256.084 125.903" fill="#F4DBCB"/>
<path d="M246.016 123.034L241.321 139.678C240.535 142.462 242.159 145.386 244.928 146.174C247.697 146.964 250.605 145.331 251.389 142.547L256.084 125.903" stroke="black" stroke-miterlimit="10"/>
<path d="M98.0837 75.1902L89.0053 84.3176C84.0043 89.3456 84.0043 97.4976 89.0053 102.526L100.254 113.835C105.255 118.863 113.363 118.863 118.364 113.835L127.442 104.707C132.443 99.6792 132.443 91.5271 127.442 86.4991L116.194 75.1902C111.193 70.1622 103.085 70.1621 98.0837 75.1902Z" fill="#F4DBCB" stroke="black" stroke-miterlimit="10"/>
<path d="M142.116 73.744L140.109 71.7266C137.824 69.4293 134.119 69.4293 131.834 71.7266L130.906 72.6597C128.621 74.9571 128.621 78.6819 130.906 80.9792L132.913 82.9965C135.198 85.2939 138.902 85.2939 141.188 82.9965L142.116 82.0635C144.401 79.7661 144.401 76.0413 142.116 73.744Z" fill="#F4DBCB" stroke="black" stroke-miterlimit="10"/>
<path d="M110.524 143.139C110.524 143.139 110.524 143.139 110.527 143.134C110.529 143.132 110.534 143.128 110.538 143.127C110.535 143.132 110.527 143.134 110.524 143.139Z" fill="#7ADFFF" stroke="black" stroke-miterlimit="10"/>
<path d="M138.472 67.8698C138.469 70.7568 137.752 72.5347 137.388 73.3234C134.286 80.0102 125.68 81.4243 124.229 81.6385C129.787 103.803 122.991 128.556 113.342 140.91C129.876 125.714 135.038 107.429 138.464 94.2288C139.409 90.5867 139.704 80.9883 138.941 70.8499C138.806 69.0423 138.598 67.3978 138.373 65.9461C138.44 66.5795 138.476 67.2228 138.472 67.8698Z" fill="#7ADFFF" stroke="black" stroke-miterlimit="10"/>
<path d="M137.859 63.1069C137.767 62.655 137.675 62.2382 137.588 61.8595C137.565 61.8807 137.543 61.906 137.519 61.9272C137.642 62.3166 137.756 62.7081 137.857 63.1053L137.859 63.1069Z" fill="#7ADFFF" stroke="black" stroke-miterlimit="10"/>
<path d="M114.097 140.197C113.873 140.407 113.656 140.617 113.43 140.825C113.655 140.62 113.878 140.41 114.097 140.197Z" fill="#58EBFF" stroke="black" stroke-miterlimit="10"/>
<path d="M137.859 63.1069C137.854 63.0863 137.846 63.0641 137.842 63.041C137.781 62.8004 137.712 62.5593 137.641 62.3233C137.615 62.2378 137.589 62.1482 137.563 62.0627C135.129 54.1867 128.546 47.9543 126.37 46C127.005 51.0139 128.627 68.7505 117.389 86.1642C108.809 99.4581 97.2052 105.634 92.1239 107.972C93.8675 111.439 95.8398 116.423 96.6699 122.66C98.2927 134.841 94.5826 144.55 92.5374 148.985C100.367 148.668 105.668 146.29 109 144.21C110.541 143.246 111.991 142.138 113.349 140.903C122.998 128.55 129.79 103.798 124.233 81.6374C125.684 81.4191 134.29 80.0091 137.392 73.3223C137.757 72.5336 138.472 70.7583 138.477 67.8687C138.478 67.2202 138.443 66.581 138.377 65.945C138.383 65.9765 138.387 66.0105 138.392 66.0419C138.29 65.0431 138.11 64.0615 137.864 63.1033C137.864 63.1033 137.865 63.1074 137.866 63.1115L137.859 63.1069ZM110.53 143.137C110.53 143.137 110.53 143.137 110.526 143.142C110.53 143.137 110.538 143.135 110.541 143.13C110.539 143.132 110.534 143.136 110.53 143.137Z" fill="#58EBFF" stroke="black" stroke-miterlimit="10"/>
<path d="M113.614 67.4776L112.808 68.2881C110.823 70.2839 110.823 73.5198 112.808 75.5156L126.759 89.5417C128.744 91.5375 131.962 91.5375 133.948 89.5417L134.754 88.7311C136.739 86.7353 136.739 83.4995 134.754 81.5037L120.803 67.4776C118.818 65.4818 115.599 65.4818 113.614 67.4776Z" fill="#F4DBCB" stroke="black" stroke-miterlimit="10"/>
<path d="M107.001 77.5718C109.199 75.3621 112.797 75.3621 114.995 77.5718L128.14 90.7878C130.338 92.9975 130.338 96.6153 128.14 98.825C125.942 101.035 122.344 101.035 120.146 98.825L107.001 85.6091" fill="#F4DBCB"/>
<path d="M107.001 77.5718C109.199 75.3621 112.797 75.3621 114.995 77.5718L128.14 90.7878C130.338 92.9975 130.338 96.6153 128.14 98.825C125.942 101.035 122.344 101.035 120.146 98.825L107.001 85.6091" stroke="black" stroke-miterlimit="10"/>
<path d="M107.052 85.5518L120.197 98.7677C122.394 100.977 122.394 104.595 120.197 106.805C117.999 109.015 114.4 109.015 112.203 106.805L99.0576 93.589" fill="#F4DBCB"/>
<path d="M107.052 85.5518L120.197 98.7677C122.394 100.977 122.394 104.595 120.197 106.805C117.999 109.015 114.4 109.015 112.203 106.805L99.0576 93.589" stroke="black" stroke-miterlimit="10"/>
<path d="M154.164 208.914C154.164 208.914 154.165 208.915 154.166 208.916C154.167 208.918 154.171 208.919 154.173 208.919C154.171 208.917 154.166 208.916 154.164 208.914Z" fill="#7ADFFF" stroke="black" stroke-miterlimit="10"/>
<path d="M205.226 202.094C203.59 202.964 202.367 203.095 201.812 203.124C197.087 203.377 193.676 198.894 193.114 198.132C182.261 208.007 166.195 211.618 156.278 209.847C169.892 214.685 181.804 212.1 190.311 210.063C192.658 209.5 198.177 206.765 203.681 203.263C204.663 202.639 205.531 202.024 206.282 201.455C205.944 201.685 205.591 201.9 205.224 202.095L205.226 202.094Z" fill="#7ADFFF" stroke="black" stroke-miterlimit="10"/>
<path d="M207.735 200.304C207.962 200.115 208.17 199.937 208.36 199.773C208.341 199.767 208.321 199.762 208.299 199.755C208.115 199.943 207.928 200.127 207.735 200.304Z" fill="#7ADFFF" stroke="black" stroke-miterlimit="10"/>
<path d="M156.911 210.062C156.724 209.998 156.54 209.938 156.353 209.872C156.537 209.938 156.724 210.001 156.911 210.062Z" fill="#58EBFF" stroke="black" stroke-miterlimit="10"/>
<path d="M207.735 200.304C207.746 200.294 207.756 200.285 207.767 200.275C207.886 200.167 208 200.054 208.113 199.941C208.155 199.901 208.195 199.859 208.235 199.818C211.951 196.045 213.48 190.407 213.927 188.573C211.283 190.451 201.741 196.742 188.48 195.596C178.356 194.721 171.34 189.97 168.476 187.777C167.043 189.82 164.823 192.455 161.546 194.813C155.147 199.423 148.529 200.243 145.399 200.418C147.954 204.787 150.907 207.094 153.095 208.364C154.108 208.953 155.174 209.445 156.285 209.846C166.203 211.614 182.266 208.006 193.116 198.131C193.677 198.893 197.089 203.376 201.813 203.123C202.369 203.094 203.592 202.963 205.227 202.093C205.594 201.898 205.946 201.684 206.285 201.452C206.27 201.467 206.251 201.478 206.236 201.49C206.77 201.129 207.271 200.729 207.739 200.298C207.739 200.298 207.736 200.3 207.735 200.302L207.735 200.304ZM154.166 208.917C154.166 208.917 154.165 208.915 154.164 208.914C154.166 208.917 154.172 208.917 154.174 208.92C154.173 208.918 154.169 208.917 154.166 208.917Z" fill="#58EBFF" stroke="black" stroke-miterlimit="10"/>
<path d="M49.8691 110.077C49.8691 110.077 49.8695 110.079 49.8699 110.08C49.8702 110.082 49.8726 110.085 49.8746 110.086C49.8739 110.083 49.8699 110.08 49.8691 110.077Z" fill="#7ADFFF" stroke="black" stroke-miterlimit="10"/>
<path d="M97.4995 129.702C95.648 129.638 94.5237 129.14 94.0278 128.887C89.8096 126.744 89.0969 121.156 88.9916 120.215C74.6556 123.341 58.9366 118.435 51.2334 111.943C60.6037 122.94 72.2127 126.656 80.5986 129.146C82.9129 129.832 89.06 130.224 95.5773 129.942C96.7399 129.893 97.7993 129.794 98.7343 129.677C98.3267 129.707 97.9127 129.717 97.4976 129.703L97.4995 129.702Z" fill="#7ADFFF" stroke="black" stroke-miterlimit="10"/>
<path d="M100.568 129.406C100.858 129.356 101.128 129.306 101.374 129.259C101.361 129.244 101.346 129.23 101.331 129.213C101.077 129.283 100.824 129.35 100.568 129.406Z" fill="#7ADFFF" stroke="black" stroke-miterlimit="10"/>
<path d="M51.6742 112.445C51.5438 112.296 51.4141 112.152 51.2852 112.001C51.4118 112.15 51.5423 112.299 51.6742 112.445Z" fill="#58EBFF" stroke="black" stroke-miterlimit="10"/>
<path d="M100.567 129.406C100.582 129.403 100.595 129.4 100.61 129.397C100.767 129.363 100.922 129.322 101.077 129.281C101.133 129.267 101.188 129.251 101.244 129.235C106.348 127.826 110.492 123.707 111.796 122.343C108.567 122.648 97.1577 123.325 86.2461 115.702C77.9161 109.882 74.2153 102.259 72.8318 98.9284C70.5694 99.9811 67.329 101.153 63.3126 101.557C55.4657 102.349 49.3238 99.7507 46.5261 98.3372C46.5538 103.398 47.9584 106.873 49.218 109.067C49.8011 110.084 50.4782 111.042 51.2399 111.945C58.9446 118.435 74.6598 123.342 88.9934 120.215C89.0988 121.156 89.8114 126.744 94.0297 128.887C94.5255 129.139 95.6499 129.637 97.5014 129.702C97.9165 129.716 98.3285 129.707 98.7381 129.676C98.7173 129.681 98.6958 129.681 98.6765 129.683C99.3195 129.639 99.9535 129.542 100.574 129.403C100.574 129.403 100.57 129.404 100.569 129.404L100.567 129.406ZM49.8695 110.081C49.8695 110.081 49.8691 110.079 49.8687 110.077C49.8695 110.081 49.874 110.084 49.8749 110.088C49.8745 110.086 49.8718 110.082 49.8695 110.081Z" fill="#58EBFF" stroke="black" stroke-miterlimit="10"/>
<path d="M278.869 174.077C278.869 174.077 278.869 174.079 278.87 174.08C278.87 174.082 278.873 174.085 278.875 174.086C278.874 174.083 278.87 174.08 278.869 174.077Z" fill="#7ADFFF" stroke="black" stroke-miterlimit="10"/>
<path d="M326.499 193.702C324.648 193.638 323.524 193.14 323.028 192.887C318.81 190.744 318.097 185.156 317.992 184.215C303.656 187.341 287.937 182.435 280.233 175.943C289.604 186.94 301.213 190.656 309.599 193.146C311.913 193.832 318.06 194.224 324.577 193.942C325.74 193.893 326.799 193.794 327.734 193.677C327.327 193.707 326.913 193.717 326.498 193.703L326.499 193.702Z" fill="#7ADFFF" stroke="black" stroke-miterlimit="10"/>
<path d="M329.568 193.406C329.858 193.356 330.128 193.306 330.374 193.259C330.361 193.244 330.346 193.23 330.331 193.213C330.077 193.283 329.824 193.35 329.568 193.406Z" fill="#7ADFFF" stroke="black" stroke-miterlimit="10"/>
<path d="M280.674 176.445C280.544 176.296 280.414 176.152 280.285 176.001C280.412 176.15 280.542 176.299 280.674 176.445Z" fill="#58EBFF" stroke="black" stroke-miterlimit="10"/>
<path d="M329.567 193.406C329.582 193.403 329.595 193.4 329.61 193.397C329.767 193.363 329.922 193.322 330.077 193.281C330.133 193.267 330.188 193.251 330.244 193.235C335.348 191.826 339.492 187.707 340.796 186.343C337.567 186.648 326.158 187.325 315.246 179.702C306.916 173.882 303.215 166.259 301.832 162.928C299.569 163.981 296.329 165.153 292.313 165.557C284.466 166.349 278.324 163.751 275.526 162.337C275.554 167.398 276.958 170.873 278.218 173.067C278.801 174.084 279.478 175.042 280.24 175.945C287.945 182.435 303.66 187.342 317.993 184.215C318.099 185.156 318.811 190.744 323.03 192.887C323.526 193.139 324.65 193.637 326.501 193.702C326.916 193.716 327.329 193.707 327.738 193.676C327.717 193.681 327.696 193.681 327.677 193.683C328.32 193.639 328.953 193.542 329.574 193.403C329.574 193.403 329.57 193.404 329.569 193.404L329.567 193.406ZM278.869 174.081C278.869 174.081 278.869 174.079 278.869 174.077C278.869 174.081 278.874 174.084 278.875 174.088C278.874 174.086 278.872 174.082 278.869 174.081Z" fill="#58EBFF" stroke="black" stroke-miterlimit="10"/>
<path d="M311.004 179.912C311.004 179.912 311.006 179.912 311.007 179.913C311.009 179.913 311.012 179.913 311.015 179.912C311.011 179.911 311.007 179.913 311.004 179.912Z" fill="#7ADFFF" stroke="black" stroke-miterlimit="10"/>
<path d="M351.815 148.475C350.833 150.046 349.84 150.771 349.373 151.074C345.408 153.656 340.212 151.479 339.345 151.1C334.884 165.077 322.775 176.238 313.302 179.663C327.51 177.046 336.534 168.851 342.882 162.833C344.634 161.172 348.047 156.044 351.062 150.26C351.6 149.228 352.045 148.261 352.41 147.393C352.233 147.761 352.034 148.124 351.814 148.477L351.815 148.475Z" fill="#7ADFFF" stroke="black" stroke-miterlimit="10"/>
<path d="M353.093 145.67C353.195 145.393 353.286 145.135 353.368 144.898C353.349 144.902 353.329 144.908 353.307 144.913C353.241 145.167 353.172 145.42 353.093 145.67Z" fill="#7ADFFF" stroke="black" stroke-miterlimit="10"/>
<path d="M313.957 179.532C313.763 179.571 313.573 179.611 313.378 179.647C313.571 179.612 313.764 179.574 313.957 179.532Z" fill="#58EBFF" stroke="black" stroke-miterlimit="10"/>
<path d="M353.092 145.671C353.097 145.656 353.101 145.643 353.106 145.629C353.155 145.476 353.197 145.322 353.239 145.167C353.255 145.111 353.269 145.055 353.283 144.999C354.615 139.874 353.119 134.226 352.59 132.415C351.239 135.364 346.121 145.583 334.064 151.221C324.858 155.525 316.406 154.919 312.83 154.451C312.61 156.937 312.005 160.329 310.347 164.009C307.11 171.201 301.788 175.221 299.165 176.937C303.562 179.444 307.274 179.965 309.803 179.971C310.975 179.974 312.144 179.867 313.307 179.659C322.78 176.231 334.886 165.075 339.345 151.098C340.213 151.477 345.409 153.654 349.374 151.073C349.84 150.769 350.834 150.045 351.815 148.473C352.035 148.121 352.233 147.76 352.411 147.39C352.405 147.41 352.395 147.429 352.387 147.447C352.67 146.867 352.903 146.27 353.093 145.663C353.093 145.663 353.092 145.667 353.091 145.668L353.092 145.671ZM311.007 179.913C311.007 179.913 311.005 179.913 311.003 179.912C311.007 179.913 311.012 179.911 311.016 179.912C311.014 179.912 311.01 179.912 311.007 179.913Z" fill="#58EBFF" stroke="black" stroke-miterlimit="10"/>
<path d="M254.616 77.9309C254.128 80.0215 252.612 81.2776 251.957 81.7562C253.263 80.3934 255.143 79.8528 256.783 80.3935C258.444 80.9422 259.223 82.3914 259.485 82.9868C260.253 84.7397 259.716 86.3487 259.534 86.8663C258.637 89.4182 256.21 90.3659 255.821 90.5106C256.622 91.9592 257.521 94.1783 256.913 96.4514C256.546 97.8246 255.67 99.0681 249.475 103.219C244.312 106.679 242.71 107.297 240.61 109.739C239.123 111.47 238.207 113.16 237.66 114.343C236.815 117.146 236.156 119.442 235.72 120.98C235.72 120.98 230.219 140.601 228.665 145.126C228.503 145.6 228.342 146.059 228.09 146.648C226.774 149.737 225.282 151.012 223.698 153.58C223.136 154.491 222.352 155.903 221.647 157.812C221.427 158.406 231.817 122.972 244.542 79.4497C244.669 79.0167 245.051 77.7096 245.176 77.2807C245.397 76.3657 245.617 75.4509 245.837 74.5358C246.882 71.9304 248.988 70.2411 250.868 70.4172C253.601 70.6723 255.343 74.82 254.616 77.9302L254.616 77.9309Z" fill="#00FFFF" stroke="black" stroke-miterlimit="10"/>
</g>
<defs>
<clipPath id="clip0_1723_4405">
<rect width="375" height="227" fill="white"/>
</clipPath>
</defs>
</svg>
