<svg width="267" height="50" viewBox="0 0 267 50" fill="none" xmlns="http://www.w3.org/2000/svg">
<path fill-rule="evenodd" clip-rule="evenodd" d="M10.8182 43.3182L9.41818 43.7636C8.65455 44.0182 8.08182 44.5909 7.82727 45.3545L7.31818 46.8182C7.19091 47.1364 6.80909 47.1364 6.74545 46.8182L6.3 45.4182C6.04545 44.6545 5.47273 44.0818 4.70909 43.8273L3.18182 43.3182C2.86364 43.1909 2.86364 42.8091 3.18182 42.7455L4.58182 42.3C5.34545 42.0455 5.91818 41.4727 6.17273 40.7091L6.68182 39.1818C6.80909 38.8636 7.19091 38.8636 7.25454 39.1818L7.7 40.5818C7.95455 41.3455 8.52727 41.9182 9.29091 42.1727L10.6909 42.6182C11.1364 42.8091 11.1364 43.1909 10.8182 43.3182ZM7 36C3.11818 36 0 39.1182 0 43C0 46.8818 3.11818 50 7 50C10.8818 50 14 46.8818 14 43C14 39.1182 10.8818 36 7 36Z" fill="#929292"/>
<path d="M27.6367 36.9121H26.3242V49.1621H27.6367V36.9121ZM17.5742 45.8809L18.2578 46.9336C22.4619 44.917 23.9863 41.8135 23.9863 38.2246H18.1621V39.2637H22.6738C22.4209 42.1211 20.8281 44.3291 17.5742 45.8809ZM37.248 37.9648H34.2676V36.8301H32.9688V37.9648H30.002V38.9355H37.248V37.9648ZM29.6055 43.7891L29.7832 44.8008C31.9844 44.8008 34.9102 44.7598 37.5625 44.3223L37.4668 43.4199C36.4482 43.5498 35.3545 43.6387 34.2676 43.6934V42.9619C35.6826 42.8047 36.5986 42.1553 36.6055 41.1777C36.5986 40.043 35.3955 39.332 33.625 39.3457C31.8271 39.332 30.6514 40.043 30.6582 41.1777C30.6514 42.1553 31.5469 42.8047 32.9688 42.9619V43.7412C31.7725 43.7822 30.6104 43.7891 29.6055 43.7891ZM31.3691 46.7012H38.4102V49.1621H39.709V45.6895H31.3691V46.7012ZM31.8887 41.1777C31.8955 40.5762 32.5723 40.2207 33.625 40.2344C34.6641 40.2207 35.3613 40.5762 35.3613 41.1777C35.3613 41.7451 34.6641 42.1006 33.625 42.0938C32.5723 42.1006 31.8955 41.7451 31.8887 41.1777ZM38.4102 45.1426H39.709V36.9395H38.4102V45.1426ZM45.916 40.5215V39.2227H48.582V38.1426H41.8691V39.2227H44.6309V40.5215C44.624 42.5928 43.2773 44.9033 41.418 45.7988L42.1836 46.8242C43.5781 46.127 44.7266 44.6162 45.2871 42.873C45.8408 44.4727 46.9346 45.8535 48.3086 46.5098L49.0469 45.498C47.1875 44.6162 45.9092 42.4561 45.916 40.5215ZM49.8945 49.1621H51.1934V42.8594H53.1621V41.7656H51.1934V36.9121H49.8945V49.1621Z" fill="#888888"/>
<path fill-rule="evenodd" clip-rule="evenodd" d="M76.8182 43.3182L75.4182 43.7636C74.6545 44.0182 74.0818 44.5909 73.8273 45.3545L73.3182 46.8182C73.1909 47.1364 72.8091 47.1364 72.7455 46.8182L72.3 45.4182C72.0455 44.6545 71.4727 44.0818 70.7091 43.8273L69.1818 43.3182C68.8636 43.1909 68.8636 42.8091 69.1818 42.7455L70.5818 42.3C71.3455 42.0455 71.9182 41.4727 72.1727 40.7091L72.6818 39.1818C72.8091 38.8636 73.1909 38.8636 73.2545 39.1818L73.7 40.5818C73.9545 41.3455 74.5273 41.9182 75.2909 42.1727L76.6909 42.6182C77.1364 42.8091 77.1364 43.1909 76.8182 43.3182ZM73 36C69.1182 36 66 39.1182 66 43C66 46.8818 69.1182 50 73 50C76.8818 50 80 46.8818 80 43C80 39.1182 76.8818 36 73 36Z" fill="#929292"/>
<path d="M90.6445 38.1289H84.916V46.0859H90.6445V38.1289ZM86.1875 45.0332V39.1543H89.3594V45.0332H86.1875ZM92.6953 49.1621H93.9941V42.8047H95.9629V41.7109H93.9941V36.9121H92.6953V49.1621ZM101.965 38.334H97.1934V39.4004H100.7C100.659 40.0156 100.563 40.6104 100.413 41.1777L96.5918 41.4102L96.7695 42.5312L100.051 42.1963C99.4424 43.5566 98.3691 44.7529 96.5918 45.7441L97.3301 46.6465C99.2715 45.5664 100.447 44.2334 101.131 42.7363H103.264V48.5605H104.494V37.2266H103.264V41.6836H101.527C101.842 40.624 101.965 39.4961 101.965 38.334ZM105.848 49.1621H107.078V36.9121H105.848V49.1621ZM118.863 36.9121H117.578V41.4375H115.145V42.5039H117.578V49.1895H118.863V36.9121ZM109.211 46.291H110.168C112.438 46.2842 113.976 46.209 115.76 45.9219L115.623 44.8691C113.996 45.1494 112.574 45.2109 110.523 45.2109V42.4766H114.42V41.4375H110.523V39.0586H114.939V38.0059H109.211V46.291Z" fill="#888888"/>
<path fill-rule="evenodd" clip-rule="evenodd" d="M143.818 43.3182L142.418 43.7636C141.655 44.0182 141.082 44.5909 140.827 45.3545L140.318 46.8182C140.191 47.1364 139.809 47.1364 139.745 46.8182L139.3 45.4182C139.045 44.6545 138.473 44.0818 137.709 43.8273L136.182 43.3182C135.864 43.1909 135.864 42.8091 136.182 42.7455L137.582 42.3C138.345 42.0455 138.918 41.4727 139.173 40.7091L139.682 39.1818C139.809 38.8636 140.191 38.8636 140.255 39.1818L140.7 40.5818C140.955 41.3455 141.527 41.9182 142.291 42.1727L143.691 42.6182C144.136 42.8091 144.136 43.1909 143.818 43.3182ZM140 36C136.118 36 133 39.1182 133 43C133 46.8818 136.118 50 140 50C143.882 50 147 46.8818 147 43C147 39.1182 143.882 36 140 36Z" fill="#929292"/>
<path d="M161.938 36.9121H160.693V41.752H159.176V37.2402H157.959V48.5742H159.176V42.8047H160.693V49.1621H161.938V36.9121ZM151.41 45.6621L152.162 46.5645C155.669 44.5889 156.735 41.6904 156.742 38.4707H151.93V39.5371H155.478C155.272 42.0322 154.131 44.1172 151.41 45.6621ZM165.301 37.4316H164.029V42.7773H169.799V37.4316H168.514V39.0996H165.301V37.4316ZM165.26 44.7734H171.891V45.8809H165.287V49.0391H173.6V48H166.559V46.8379H173.176V43.748H165.26V44.7734ZM165.301 41.7383V40.0977H168.514V41.7383H165.301ZM171.877 43.2148H173.176V40.5352H174.953V39.4824H173.176V36.9121H171.877V43.2148ZM179.916 40.5215V39.2227H182.582V38.1426H175.869V39.2227H178.631V40.5215C178.624 42.5928 177.277 44.9033 175.418 45.7988L176.184 46.8242C177.578 46.127 178.727 44.6162 179.287 42.873C179.841 44.4727 180.935 45.8535 182.309 46.5098L183.047 45.498C181.188 44.6162 179.909 42.4561 179.916 40.5215ZM183.895 49.1621H185.193V42.8594H187.162V41.7656H185.193V36.9121H183.895V49.1621Z" fill="#888888"/>
<path fill-rule="evenodd" clip-rule="evenodd" d="M210.818 43.3182L209.418 43.7636C208.655 44.0182 208.082 44.5909 207.827 45.3545L207.318 46.8182C207.191 47.1364 206.809 47.1364 206.745 46.8182L206.3 45.4182C206.045 44.6545 205.473 44.0818 204.709 43.8273L203.182 43.3182C202.864 43.1909 202.864 42.8091 203.182 42.7455L204.582 42.3C205.345 42.0455 205.918 41.4727 206.173 40.7091L206.682 39.1818C206.809 38.8636 207.191 38.8636 207.255 39.1818L207.7 40.5818C207.955 41.3455 208.527 41.9182 209.291 42.1727L210.691 42.6182C211.136 42.8091 211.136 43.1909 210.818 43.3182ZM207 36C203.118 36 200 39.1182 200 43C200 46.8818 203.118 50 207 50C210.882 50 214 46.8818 214 43C214 39.1182 210.882 36 207 36Z" fill="#929292"/>
<path d="M228.596 36.9121H227.297V49.1895H228.596V36.9121ZM219.23 46.1816H220.242C222.785 46.1748 224.385 46.1064 226.217 45.7715L226.08 44.6914C224.351 44.999 222.86 45.0674 220.543 45.0742V39.127H225.096V38.0469H219.23V46.1816ZM234.816 40.5215V39.2227H237.482V38.1426H230.77V39.2227H233.531V40.5215C233.524 42.5928 232.178 44.9033 230.318 45.7988L231.084 46.8242C232.479 46.127 233.627 44.6162 234.188 42.873C234.741 44.4727 235.835 45.8535 237.209 46.5098L237.947 45.498C236.088 44.6162 234.81 42.4561 234.816 40.5215ZM238.795 49.1621H240.094V42.8594H242.062V41.7656H240.094V36.9121H238.795V49.1621ZM252.795 36.9121H251.496V49.1895H252.795V36.9121ZM243.074 42.1211C243.074 44.7666 244.394 46.4346 246.246 46.4277C248.064 46.4346 249.404 44.7666 249.404 42.1211C249.404 39.5029 248.064 37.835 246.246 37.8281C244.394 37.835 243.074 39.5029 243.074 42.1211ZM244.332 42.1211C244.325 40.2002 245.104 38.9971 246.246 38.9902C247.367 38.9971 248.146 40.2002 248.146 42.1211C248.146 44.0693 247.367 45.2656 246.246 45.2656C245.104 45.2656 244.325 44.0693 244.332 42.1211ZM264.977 36.9121H263.678V40.8633H260.027V41.9297H263.678V49.1895H264.977V36.9121ZM255.406 46.2363H256.391C258.312 46.2432 260.089 46.1338 262.064 45.7305L261.9 44.6641C260.116 45.0195 258.469 45.1289 256.719 45.1562V38.2656H255.406V46.2363Z" fill="#888888"/>
<path d="M42.6582 3.38086H38.791V1.46875H36.041V3.38086H32.1309V5.50781H36.0195C35.9443 7.15137 34.5693 8.6875 31.6152 9.24609L32.7324 11.373C35.0312 10.9111 36.5889 9.81543 37.4482 8.37598C38.3184 9.68652 39.8438 10.6641 42.0566 11.0938L43.1309 8.98828C40.2412 8.45117 38.8555 7.04395 38.791 5.50781H42.6582V3.38086ZM30.9492 12.2109L31.293 14.4238C32.7217 14.4238 34.3438 14.4238 36.041 14.3594V20.375H38.7695V14.209C40.4023 14.0908 42.0566 13.9082 43.668 13.6289L43.4961 11.6523C39.3711 12.1787 34.5586 12.2109 30.9492 12.2109ZM44.6777 20.9766H47.3848V1.44727H44.6777V20.9766ZM55.377 2.26367C52.3691 2.24219 50.1562 4.20801 50.1777 6.88281C50.1562 9.61133 52.3691 11.5664 55.377 11.5664C57.8906 11.5664 59.8994 10.1055 60.4043 7.95703H63.6699V11.9316H66.3984V1.42578H63.6699V5.76562H60.3936C59.8564 3.6709 57.8691 2.24219 55.377 2.26367ZM52.7773 6.88281C52.7666 5.42188 53.8408 4.53027 55.377 4.54102C56.8594 4.53027 57.9229 5.42188 57.9336 6.88281C57.9229 8.34375 56.8594 9.26758 55.377 9.26758C53.8408 9.26758 52.7666 8.34375 52.7773 6.88281ZM53.3574 20.7617H66.3984V12.791H63.6699V14.6816H56.0645V12.791H53.3574V20.7617ZM56.0645 18.5488V16.7871H63.6699V18.5488H56.0645ZM77.8496 1.70508C73.3379 1.70508 70.7168 2.88672 70.7168 5.03516C70.7168 7.21582 73.3379 8.38672 77.8496 8.38672C82.3506 8.38672 84.9502 7.21582 84.9609 5.03516C84.9502 2.88672 82.3506 1.70508 77.8496 1.70508ZM68.9336 11.4805H86.7656V9.31055H68.9336V11.4805ZM70.9961 14.6172H81.8887V15.6914H71.0176V20.8477H85.1113V18.7852H73.7031V17.6035H84.5957V12.6191H70.9961V14.6172ZM73.5957 5.03516C73.585 4.16504 74.9814 3.70312 77.8496 3.70312C80.7393 3.70312 82.125 4.16504 82.125 5.03516C82.125 5.99121 80.7393 6.36719 77.8496 6.36719C74.9814 6.36719 73.585 5.99121 73.5957 5.03516ZM99.3984 2.24219C96.4229 2.2207 94.2529 3.92871 94.2637 6.38867C94.2529 8.82715 96.4229 10.5566 99.3984 10.5352C102.385 10.5566 104.555 8.82715 104.555 6.38867C104.555 3.92871 102.385 2.2207 99.3984 2.24219ZM93.0605 11.7383L93.4043 13.9727C94.8115 13.9512 96.4336 13.9404 98.1523 13.8652V20.3965H100.881V13.7041C102.514 13.5752 104.168 13.3711 105.779 13.0488L105.607 11.0293C101.439 11.6631 96.5303 11.7275 93.0605 11.7383ZM96.9062 6.38867C96.8955 5.14258 97.9375 4.42285 99.3984 4.43359C100.902 4.42285 101.955 5.14258 101.955 6.38867C101.955 7.61328 100.902 8.32227 99.3984 8.30078C97.9375 8.32227 96.8955 7.61328 96.9062 6.38867ZM106.789 20.9766H109.496V1.44727H106.789V20.9766ZM127.543 1.44727H124.793V16.0352H127.543V9.67578H130.186V7.44141H127.543V1.44727ZM112.031 5.6582H123.633V3.48828H119.207V1.4043H116.479V3.48828H112.031V5.6582ZM112.977 10.127C112.977 12.3828 114.985 13.8652 117.832 13.8652C120.668 13.8652 122.645 12.3828 122.645 10.127C122.645 7.86035 120.668 6.3457 117.832 6.3457C114.985 6.3457 112.977 7.86035 112.977 10.127ZM114.867 20.6328H128.252V18.4414H117.596V14.918H114.867V20.6328ZM115.662 10.127C115.651 9.04199 116.521 8.44043 117.832 8.42969C119.153 8.44043 120.045 9.04199 120.045 10.127C120.045 11.2012 119.153 11.7812 117.832 11.7812C116.521 11.7812 115.651 11.2012 115.662 10.127ZM151.627 1.42578H148.877V15.5625H151.627V9.00977H154.27V6.75391H151.627V1.42578ZM136.867 12.3398H138.521C142.851 12.3398 145.106 12.2217 147.566 11.7168L147.287 9.52539C145.106 9.9873 143.162 10.1055 139.617 10.127V5.18555H145.697V2.99414H136.867V12.3398ZM138.951 20.6328H152.336V18.4414H141.68V14.0586H138.951V20.6328ZM170.641 1.42578H167.891V15.5625H170.641V9.00977H173.283V6.75391H170.641V1.42578ZM155.881 12.3398H157.535C161.864 12.3398 164.12 12.2217 166.58 11.7168L166.301 9.52539C164.12 9.9873 162.176 10.1055 158.631 10.127V5.18555H164.711V2.99414H155.881V12.3398ZM157.965 20.6328H171.35V18.4414H160.693V14.0586H157.965V20.6328ZM189.654 1.44727H186.904V16.0352H189.654V9.67578H192.297V7.44141H189.654V1.44727ZM174.143 5.6582H185.744V3.48828H181.318V1.4043H178.59V3.48828H174.143V5.6582ZM175.088 10.127C175.088 12.3828 177.097 13.8652 179.943 13.8652C182.779 13.8652 184.756 12.3828 184.756 10.127C184.756 7.86035 182.779 6.3457 179.943 6.3457C177.097 6.3457 175.088 7.86035 175.088 10.127ZM176.979 20.6328H190.363V18.4414H179.707V14.918H176.979V20.6328ZM177.773 10.127C177.763 9.04199 178.633 8.44043 179.943 8.42969C181.265 8.44043 182.156 9.04199 182.156 10.127C182.156 11.2012 181.265 11.7812 179.943 11.7812C178.633 11.7812 177.763 11.2012 177.773 10.127ZM214.447 2.26367H199.859V4.41211H205.209C204.887 6.0127 202.889 7.65625 199.021 8.08594L200.01 10.2344C203.662 9.82617 206.09 8.30078 207.121 6.28125C208.152 8.31152 210.591 9.82617 214.254 10.2344L215.264 8.08594C211.396 7.65625 209.366 6.02344 209.055 4.41211H214.447V2.26367ZM198.205 13.3496H206.025V16.7227H208.732V13.3496H216.102V11.1582H198.205V13.3496ZM200.311 20.6328H214.125V18.4414H203.039V14.9824H200.311V20.6328ZM233.611 1.42578H230.84V21.0195H233.611V1.42578ZM218.207 16.4434H227.875V2.97266H225.168V7.74219H220.957V2.97266H218.207V16.4434ZM220.957 14.2305V9.86914H225.168V14.2305H220.957Z" fill="#222222"/>
</svg>
