<svg width="59" height="32" viewBox="0 0 59 32" fill="none" xmlns="http://www.w3.org/2000/svg">
<rect width="59" height="32" rx="16" fill="#EEF9E8"/>
<path fill-rule="evenodd" clip-rule="evenodd" d="M19.3135 14.8641L15.7607 18.4175C15.641 18.5364 15.4792 18.6031 15.3105 18.6031C15.1418 18.6031 14.98 18.5364 14.8603 18.4175L12.6865 16.2437C12.6274 16.1846 12.5805 16.1145 12.5485 16.0373C12.5166 15.9601 12.5001 15.8774 12.5001 15.7938C12.5001 15.6251 12.5671 15.4632 12.6865 15.3439C12.8058 15.2246 12.9676 15.1576 13.1364 15.1576C13.3051 15.1576 13.4669 15.2246 13.5863 15.3439L15.3102 17.0678L18.4137 13.9643C18.4728 13.9052 18.543 13.8583 18.6201 13.8263C18.6973 13.7944 18.7801 13.7779 18.8636 13.7779C18.9472 13.7779 19.0299 13.7944 19.1071 13.8263C19.1843 13.8583 19.2545 13.9052 19.3135 13.9643C19.3726 14.0234 19.4195 14.0935 19.4515 14.1707C19.4834 14.2479 19.4999 14.3306 19.4999 14.4142C19.4999 14.4977 19.4834 14.5805 19.4515 14.6577C19.4195 14.7349 19.3726 14.805 19.3135 14.8641ZM16 9C12.1341 9 9 12.1341 9 16C9 19.8659 12.1341 23 16 23C19.8659 23 23 19.8659 23 16C23 12.1341 19.8659 9 16 9Z" fill="#52C41A"/>
<path d="M32.013 12.0117V10.959H30.2494V12.0938C30.2425 13.8301 29.3265 15.498 27.2005 16.1816L28.1166 17.5762C29.6136 17.0703 30.6185 16.0518 31.1654 14.7529C31.6918 15.874 32.6009 16.7285 33.9408 17.1934L34.8568 15.8262C32.8607 15.2109 32.0062 13.6729 32.013 12.0117ZM29.265 20.3516C29.265 21.8896 30.892 22.7646 33.5443 22.7578C36.2035 22.7646 37.8304 21.8896 37.8373 20.3516C37.8304 18.8203 36.2035 17.9248 33.5443 17.9316C30.892 17.9248 29.265 18.8203 29.265 20.3516ZM31.0013 20.3516C31.0013 19.6406 31.8968 19.2852 33.5443 19.2852C35.1986 19.2852 36.0941 19.6406 36.1009 20.3516C36.0941 21.042 35.1986 21.4043 33.5443 21.4043C31.8968 21.4043 31.0013 21.042 31.0013 20.3516ZM33.722 14.0215H36.0599V17.6035H37.7962V10.3164H36.0599V12.5996H33.722V14.0215ZM44.875 18.0684C42.1748 18.0684 40.4385 18.9297 40.4453 20.4199C40.4385 21.8896 42.1748 22.7646 44.875 22.7578C47.5957 22.7646 49.3047 21.8896 49.3184 20.4199C49.3047 18.9297 47.5957 18.0684 44.875 18.0684ZM39.2969 17.2754H50.5898V15.8672H45.2578V13.6934H43.5352V15.8672H39.2969V17.2754ZM40.5684 12.2441H47.5137C47.5 13.0918 47.4658 13.9326 47.1855 15.0605L48.8945 15.2246C49.2568 13.9463 49.2568 12.8799 49.25 11.8887V10.877H40.5684V12.2441ZM42.1816 20.4199C42.1748 19.7295 43.1592 19.3604 44.875 19.3672C46.5908 19.3604 47.582 19.7295 47.582 20.4199C47.582 21.0898 46.5908 21.4316 44.875 21.4316C43.1592 21.4316 42.1748 21.0898 42.1816 20.4199Z" fill="#52C41A"/>
</svg>
