<svg width="82" height="32" viewBox="0 0 82 32" fill="none" xmlns="http://www.w3.org/2000/svg">
<rect width="82" height="32" rx="16" fill="#FFEDED"/>
<path fill-rule="evenodd" clip-rule="evenodd" d="M18.8585 16.6752H13.1313C13.0409 16.678 12.9509 16.6626 12.8666 16.6299C12.7823 16.5972 12.7054 16.548 12.6405 16.485C12.5756 16.4221 12.524 16.3467 12.4888 16.2635C12.4535 16.1802 12.4354 16.0907 12.4354 16.0003C12.4354 15.9099 12.4535 15.8204 12.4888 15.7372C12.524 15.6539 12.5756 15.5786 12.6405 15.5156C12.7054 15.4527 12.7823 15.4034 12.8666 15.3707C12.9509 15.3381 13.0409 15.3227 13.1313 15.3255H18.8585C19.0339 15.3308 19.2004 15.4043 19.3225 15.5303C19.4447 15.6563 19.513 15.8248 19.513 16.0003C19.513 16.1758 19.4447 16.3444 19.3225 16.4704C19.2004 16.5963 19.0339 16.6698 18.8585 16.6752ZM16 9C12.1341 9 9 12.1341 9 16C9 19.8665 12.1341 23 16 23C19.8659 23 23 19.8665 23 16C23 12.1341 19.8659 9 16 9Z" fill="#FF4D4F"/>
<path d="M27.269 21.5H34.351V19.8047H30.1264V19.75L31.6303 18.2871C33.6674 16.4414 34.2143 15.5186 34.2143 14.3906C34.2143 12.6748 32.8061 11.4648 30.687 11.4648C28.602 11.4648 27.1664 12.7021 27.1733 14.6367H29.1284C29.1215 13.6865 29.7299 13.0986 30.6596 13.1055C31.5688 13.0986 32.2319 13.6455 32.2319 14.5273C32.2319 15.3135 31.7329 15.8604 30.81 16.7422L27.2553 20.0098L27.269 21.5ZM45.7227 10.3164H43.9864V22.7578H45.7227V10.3164ZM35.3184 19.2441L35.5509 20.666C37.7657 20.6729 40.6983 20.6455 43.4259 20.1738L43.3028 18.8887C42.3048 19.0186 41.2589 19.1006 40.213 19.1484V18.1572C41.5802 17.9043 42.4688 17.0566 42.4688 15.8945C42.4688 14.5068 41.1837 13.5566 39.338 13.5566C37.5059 13.5566 36.2413 14.5068 36.2481 15.8945C36.2413 17.0635 37.13 17.9111 38.4903 18.1572V19.21C37.3555 19.2373 36.2686 19.2373 35.3184 19.2441ZM35.5645 13.0645H43.1251V11.6973H40.2266V10.3711H38.4903V11.6973H35.5645V13.0645ZM37.9024 15.8945C37.8956 15.252 38.4903 14.8896 39.338 14.8828C40.213 14.8896 40.8009 15.252 40.8009 15.8945C40.8009 16.5508 40.213 16.9062 39.338 16.9062C38.4903 16.9062 37.8956 16.5508 37.9024 15.8945ZM60.7142 10.3164H58.9779V16.6191H60.7142V10.3164ZM50.2552 15.2793L51.1166 16.6465C52.6 16.2021 53.6185 15.252 54.1791 14.042C54.7464 15.1494 55.7308 16.0176 57.1595 16.4277L58.0072 15.0879C55.9701 14.5 55.0677 13.0576 55.0814 11.5469V10.5898H53.263V11.5469C53.263 13.0918 52.3334 14.6572 50.2552 15.2793ZM52.3744 18.5059H58.9916V19.2305H52.4017V22.6758H61.0697V21.2949H54.1107V20.5293H60.7279V17.1523H52.3744V18.5059ZM73.0566 10.3164H71.3887V15.1152H70.3633V10.5215H68.7227V22.1562H70.3633V16.5234H71.3887V22.7578H73.0566V10.3164ZM62.1328 18.4785L62.3242 19.9141C63.8623 19.9141 66.4053 19.8662 68.3125 19.4629L68.2168 18.1914C67.9297 18.2324 67.6221 18.2666 67.3008 18.3008V13.1328H68.1074V11.7246H62.3652V13.1328H63.1855V18.4785C62.8027 18.4785 62.4473 18.4785 62.1328 18.4785ZM64.7578 18.4512V13.1328H65.7422V18.4102C65.4141 18.4307 65.0791 18.4375 64.7578 18.4512Z" fill="#FF4D4F"/>
</svg>
