<svg width="59" height="32" viewBox="0 0 59 32" fill="none" xmlns="http://www.w3.org/2000/svg">
<rect width="59" height="32" rx="16" fill="#F1EFFF"/>
<path fill-rule="evenodd" clip-rule="evenodd" d="M18.8585 16.6752H13.1313C13.0409 16.678 12.9509 16.6626 12.8666 16.6299C12.7823 16.5972 12.7054 16.548 12.6405 16.485C12.5756 16.4221 12.524 16.3467 12.4888 16.2635C12.4535 16.1802 12.4354 16.0907 12.4354 16.0003C12.4354 15.9099 12.4535 15.8204 12.4888 15.7372C12.524 15.6539 12.5756 15.5786 12.6405 15.5156C12.7054 15.4527 12.7823 15.4034 12.8666 15.3707C12.9509 15.3381 13.0409 15.3227 13.1313 15.3255H18.8585C19.0339 15.3308 19.2004 15.4043 19.3225 15.5303C19.4447 15.6563 19.513 15.8248 19.513 16.0003C19.513 16.1758 19.4447 16.3444 19.3225 16.4704C19.2004 16.5963 19.0339 16.6698 18.8585 16.6752ZM16 9C12.1341 9 9 12.1341 9 16C9 19.8665 12.1341 23 16 23C19.8659 23 23 19.8665 23 16C23 12.1341 19.8659 9 16 9Z" fill="#6B47FD"/>
<path d="M32.1634 12.7773V12.5996H34.6654V11.2051H27.8295V12.5996H30.3861V12.7773C30.3861 14.3496 29.4359 15.9697 27.3646 16.6328L28.267 18C29.7298 17.5146 30.7416 16.5371 31.3089 15.3066C31.8695 16.4277 32.847 17.3232 34.2416 17.7676L35.1302 16.4004C33.0863 15.7783 32.1566 14.2607 32.1634 12.7773ZM29.388 22.5391H38.056V21.1445H31.1517V18.5059H29.388V22.5391ZM35.9779 19.3262H37.7279V10.3301H35.9779V19.3262ZM49.9609 10.3164H48.3066V13.3926H47.3086V10.5488H45.6816V17.7129H47.3086V14.8145H48.3066V18.123H49.9609V10.3164ZM39.2012 12.9551H45.3125V11.6016H43.1387V10.4258H41.4023V11.6016H39.2012V12.9551ZM39.584 15.5391C39.5771 16.8311 40.7187 17.6924 42.2773 17.6992C43.8564 17.6924 44.9912 16.8311 44.998 15.5391C44.9912 14.2334 43.8564 13.3652 42.2773 13.3652C40.7187 13.3652 39.5771 14.2334 39.584 15.5391ZM41.1426 15.5391C41.1357 14.958 41.6006 14.6162 42.2773 14.623C42.9541 14.6162 43.4189 14.958 43.4258 15.5391C43.4189 16.1133 42.9541 16.4619 42.2773 16.4551C41.5937 16.4619 41.1357 16.1133 41.1426 15.5391ZM41.4023 20.502C41.3955 21.9375 43.0293 22.7646 45.709 22.7578C48.3955 22.7646 50.0156 21.9375 50.0293 20.502C50.0156 19.0596 48.3955 18.2393 45.709 18.2324C43.0293 18.2393 41.3955 19.0596 41.4023 20.502ZM43.1523 20.502C43.1387 19.8457 44.0205 19.5381 45.709 19.5449C47.4043 19.5381 48.2656 19.8457 48.2656 20.502C48.2656 21.1309 47.4043 21.4453 45.709 21.4453C44.0205 21.4453 43.1387 21.1309 43.1523 20.502Z" fill="#6B47FD"/>
</svg>
