<svg width="16" height="16" viewBox="0 0 16 16" fill="none" xmlns="http://www.w3.org/2000/svg">
<path fill-rule="evenodd" clip-rule="evenodd" d="M5.11854 9.56478H6.17693V8.36978H5.11854V9.56478ZM5.11854 7.07455H6.17693V5.87955H5.11854V7.07455ZM5.11854 4.58498H6.17693V3.38999H5.11854V4.58498ZM7.4711 9.56478H8.52949V8.36978H7.4711V9.56478ZM7.4711 7.07455H8.52949V5.87955H7.4711V7.07455ZM7.4711 4.58498H8.52949V3.38999H7.4711V4.58498ZM9.82425 9.56478H10.8826V8.36978H9.82425V9.56478ZM9.82425 7.07455H10.8826V5.87955H9.82425V7.07455ZM9.82425 4.58498H10.8826V3.38999H9.82425V4.58498ZM12.412 1H3.58858C3.51132 0.999913 3.43479 1.01702 3.36339 1.05034C3.29198 1.08367 3.22709 1.13256 3.17243 1.19421C3.11776 1.25587 3.0744 1.32908 3.04481 1.40967C3.01523 1.49026 3 1.57665 3 1.66388V14.2033C3 14.4146 3.07434 14.6173 3.20666 14.7667C3.33899 14.9161 3.51846 15 3.70559 15H6.82431V12.5084C6.82431 12.3324 6.88626 12.1635 6.99653 12.039C7.1068 11.9145 7.25636 11.8446 7.4123 11.8446H8.58829C8.74423 11.8446 8.89379 11.9145 9.00406 12.039C9.11433 12.1635 9.17628 12.3324 9.17628 12.5084V15H12.2944C12.4815 15 12.661 14.9161 12.7933 14.7667C12.9257 14.6173 13 14.4146 13 14.2033V1.66388C13 1.48781 12.9381 1.31895 12.8278 1.19445C12.7175 1.06995 12.568 1 12.412 1Z" fill="#222222"/>
</svg>
