<svg width="16" height="16" viewBox="0 0 16 16" fill="none" xmlns="http://www.w3.org/2000/svg">
<path fill-rule="evenodd" clip-rule="evenodd" d="M14.0005 5.77831L8.41185 1.1499C8.29493 1.05285 8.14984 1 8.00033 1C7.85082 1 7.70573 1.05285 7.58881 1.1499L1.99952 5.77831C1.84374 5.90736 1.71792 6.07134 1.63144 6.25805C1.54495 6.44476 1.50002 6.64939 1.5 6.85669V13.3463C1.5 13.7849 1.66729 14.2055 1.96508 14.5156C2.26286 14.8258 2.66674 15 3.08787 15H6.67711V11.7256C6.67711 11.5428 6.74681 11.3676 6.87089 11.2383C6.99497 11.1091 7.16325 11.0365 7.33872 11.0365H8.66194C8.83741 11.0365 9.0057 11.1091 9.12977 11.2383C9.25385 11.3676 9.32355 11.5428 9.32355 11.7256V15H12.9121C13.3333 15 13.7371 14.8258 14.0349 14.5156C14.3327 14.2055 14.5 13.7849 14.5 13.3463V6.85738C14.5 6.65008 14.455 6.44545 14.3686 6.25874C14.2821 6.07203 14.1563 5.90805 14.0005 5.779" fill="#222222"/>
</svg>
