<svg width="307" height="75" viewBox="0 0 307 75" fill="none" xmlns="http://www.w3.org/2000/svg">
<path d="M290.527 21.4961H289.461V25.6562H288.102V21.707H287.082V31.457H288.102V26.5703H289.461V31.9961H290.527V21.4961ZM281.867 29.4766H282.57C284.1 29.4648 285.189 29.4238 286.449 29.1602L286.367 28.2461C285.242 28.4629 284.27 28.5215 282.98 28.5273V23.6641H285.805V22.7617H281.867V29.4766ZM295.508 23.1719V22.0469H294.406V23.0781C294.395 24.6484 293.445 26.0488 291.805 26.6289L292.402 27.5195C293.627 27.0684 294.518 26.1426 294.975 24.9648C295.432 26.002 296.293 26.8223 297.441 27.2266L298.039 26.3477C296.475 25.832 295.502 24.5488 295.508 23.1719ZM293.223 30.0273C293.223 31.2695 294.564 31.9785 296.75 31.9727C298.906 31.9785 300.23 31.2695 300.23 30.0273C300.23 28.7969 298.906 28.0762 296.75 28.082C294.564 28.0762 293.223 28.7969 293.223 30.0273ZM294.336 30.0273C294.33 29.3594 295.232 28.9609 296.75 28.9609C298.256 28.9609 299.146 29.3594 299.141 30.0273C299.146 30.7188 298.256 31.0938 296.75 31.1055C295.232 31.0938 294.33 30.7188 294.336 30.0273ZM299.023 27.8359H300.137V25.0703H301.66V24.1328H300.137V21.4961H299.023V27.8359Z" fill="#929292"/>
<path d="M22.5244 56.9258H21.2256V60.6172H18.6826V61.6973H21.2256V65.9492H22.5244V56.9258ZM12.4893 63.543L13.0361 64.582C16.5566 63.4473 18.751 61.041 18.7646 57.8418H13.1182V58.9219H17.3359C17.0693 61 15.2168 62.6611 12.4893 63.543ZM14.6357 68.9023H22.8389V67.8496H15.9482V65.0195H14.6357V68.9023ZM34.0361 56.9121H32.7373V64.1855H34.0361V61.0547H35.8135V60.002H34.0361V56.9121ZM24.3975 63.2285L24.9307 64.2812C28.5195 63.2422 30.6729 60.9521 30.6729 57.7871H24.9443V58.8398H29.2646C29.0254 60.8223 27.2686 62.4219 24.3975 63.2285ZM26.0654 66.7285C26.0518 68.2324 27.665 69.1416 30.126 69.1484C32.5938 69.1416 34.1729 68.2324 34.1729 66.7285C34.1729 65.2383 32.5938 64.3154 30.126 64.3223C27.665 64.3154 26.0518 65.2383 26.0654 66.7285ZM27.3506 66.7285C27.3438 65.8672 28.4102 65.3408 30.126 65.3477C31.8281 65.3408 32.9014 65.8672 32.9014 66.7285C32.9014 67.5898 31.8281 68.1162 30.126 68.123C28.4102 68.1162 27.3438 67.5898 27.3506 66.7285Z" fill="#888888"/>
<path d="M83.4473 58.1016H81.9707L79.5098 59.7148V61.1504L81.875 59.6055H81.9297V68H83.4473V58.1016ZM96.709 63.8164H85.5391V64.8691H90.4609V69.1484H91.7324V64.8691H96.709V63.8164ZM86.168 61.8613L86.6602 62.8867C88.6426 62.5723 90.3721 61.5811 91.124 60.1865C91.8691 61.5811 93.6055 62.5723 95.6152 62.8867L96.0938 61.8613C93.7764 61.5469 91.8896 60.1865 91.8691 58.6758H95.6562V57.6367H86.5781V58.6758H90.3926C90.3516 60.1865 88.4512 61.5469 86.168 61.8613Z" fill="#888888"/>
<path d="M146.055 58.1426V57.4316H144.715V58.1426C144.708 59.6191 143.546 60.9248 141.611 61.4238L142.254 62.4355C143.737 62.0254 144.845 61.123 145.392 59.9404C145.945 61.0068 147.012 61.7861 148.475 62.1621L149.076 61.1367C147.169 60.6924 146.041 59.5234 146.055 58.1426ZM141.338 63.4199L141.516 64.5C142.493 64.5 143.614 64.5 144.797 64.4453V68.7793H146.096V64.3701C147.224 64.2881 148.386 64.1582 149.5 63.9531L149.404 63.0234C146.725 63.3994 143.621 63.4268 141.338 63.4199ZM150.252 69.1621H151.537V56.9258H150.252V69.1621ZM159.029 57.1172C156.35 57.124 154.647 57.9854 154.654 59.4551C154.647 60.8975 156.35 61.752 159.029 61.752C161.716 61.752 163.397 60.8975 163.404 59.4551C163.397 57.9854 161.716 57.124 159.029 57.1172ZM153.451 63.6387H158.387V64.9238H154.791V69.0117H163.254V64.9238H159.672V63.6387H164.621V62.5859H153.451V63.6387ZM155.994 59.4551C155.987 58.6074 157.143 58.1289 159.029 58.1289C160.902 58.1289 162.071 58.6074 162.064 59.4551C162.071 60.2754 160.902 60.7402 159.029 60.7402C157.143 60.7402 155.987 60.2754 155.994 59.4551ZM156.076 67.959V65.9629H161.996V67.959H156.076Z" fill="#888888"/>
<path d="M217.549 63.9395H206.338V64.9922H211.273V69.1484H212.545V64.9922H217.549V63.9395ZM207.746 62.3809H216.141V57.5684H207.746V62.3809ZM209.018 61.3691V58.6074H214.842V61.3691H209.018ZM229.662 66.6055H226.723V64.4453H228.582V63.3789H221.104V61.6016H228.295V57.7734H219.791V58.8398H227.01V60.5488H219.818V64.4453H221.514V66.6055H218.451V67.6992H229.662V66.6055ZM222.771 66.6055V64.4453H225.451V66.6055H222.771Z" fill="#888888"/>
<path d="M267.113 66.0723H271.926V68H273.348V66.0723H274.701V64.8008H273.348V58.1016H271.488L267.113 64.8555V66.0723ZM268.699 64.8008V64.7188L271.816 59.8926H271.926V64.8008H268.699ZM279.992 60.8496V60.043H282.686V59.0039H280.02V57.1582H278.707V59.0039H276.014V60.043H278.721V60.8496C278.714 62.8662 277.511 64.958 275.645 65.8125L276.369 66.8105C277.771 66.1611 278.837 64.8076 279.377 63.1875C279.896 64.6846 280.901 65.9629 282.234 66.5918L282.973 65.6074C281.147 64.7324 279.992 62.7363 279.992 60.8496ZM284.039 69.1621H285.338V62.9414H287.307V61.8477H285.338V56.9121H284.039V69.1621ZM292.393 60.0293V57.9375H291.08V60.0293C291.08 62.3672 289.727 64.7119 287.799 65.5664L288.592 66.6602C290.062 65.9424 291.189 64.4658 291.757 62.668C292.331 64.3428 293.445 65.7168 294.854 66.3867L295.633 65.3613C293.732 64.5205 292.379 62.2646 292.393 60.0293ZM296.74 69.1895H298.039V56.9121H296.74V69.1895Z" fill="#888888"/>
<circle cx="24" cy="24" r="24" fill="#F2F2F2"/>
<circle cx="88.75" cy="24" r="24" fill="#F2F2F2"/>
<circle cx="153.5" cy="24" r="24" fill="#F2F2F2"/>
<circle cx="218.25" cy="24" r="24" fill="#F2F2F2"/>
<circle cx="283" cy="24" r="24" fill="#F2F2F2"/>
<path fill-rule="evenodd" clip-rule="evenodd" d="M94.368 22.8846L88.6113 28.6251C88.418 28.8179 88.1558 28.9261 87.8825 28.9261C87.6091 28.9261 87.3469 28.8179 87.1536 28.6251L83.632 25.1123C83.5362 25.0169 83.4603 24.9036 83.4085 24.7789C83.3567 24.6542 83.3301 24.5205 83.3301 24.3855C83.3301 24.2505 83.3567 24.1169 83.4085 23.9922C83.4603 23.8675 83.5362 23.7541 83.632 23.6587C83.7277 23.5632 83.8413 23.4875 83.9664 23.4359C84.0914 23.3842 84.2255 23.3576 84.3608 23.3576C84.4962 23.3576 84.6302 23.3842 84.7553 23.4359C84.8803 23.4875 84.994 23.5632 85.0897 23.6587L87.8825 26.4436L90.3964 23.9373L92.9103 21.4309C93.006 21.3355 93.1197 21.2598 93.2447 21.2081C93.3698 21.1565 93.5038 21.1299 93.6392 21.1299C93.7745 21.1299 93.9086 21.1565 94.0336 21.2081C94.1587 21.2598 94.2723 21.3355 94.368 21.4309C94.4638 21.5264 94.5397 21.6397 94.5915 21.7644C94.6433 21.8891 94.6699 22.0228 94.6699 22.1578C94.6699 22.2927 94.6433 22.4264 94.5915 22.5511C94.5397 22.6758 94.4638 22.7891 94.368 22.8846ZM96.9381 15.0561H95.2577V14.028C95.2577 13.7554 95.1491 13.4939 94.9558 13.3011C94.7624 13.1083 94.5002 13 94.2268 13C93.9534 13 93.6912 13.1083 93.4978 13.3011C93.3045 13.4939 93.1959 13.7554 93.1959 14.028V15.0561H84.8041V14.028C84.8041 13.7554 84.6955 13.4939 84.5022 13.3011C84.3088 13.1083 84.0466 13 83.7732 13C83.4998 13 83.2376 13.1083 83.0442 13.3011C82.8509 13.4939 82.7423 13.7554 82.7423 14.028V15.0561H81.0619C80.515 15.0561 79.9906 15.2727 79.6039 15.6583C79.2172 16.0439 79 16.5668 79 17.1121V32.9439C79 33.4892 79.2172 34.0122 79.6039 34.3978C79.9906 34.7834 80.515 35 81.0619 35H96.9381C97.485 35 98.0094 34.7834 98.3961 34.3978C98.7828 34.0122 99 33.4892 99 32.9439V17.1121C99 16.5668 98.7828 16.0439 98.3961 15.6583C98.0094 15.2727 97.485 15.0561 96.9381 15.0561Z" fill="#888888"/>
<path fill-rule="evenodd" clip-rule="evenodd" d="M32 15.9879V13.7371C31.9992 13.6392 31.9709 13.5432 31.9181 13.4592C31.8653 13.3752 31.7899 13.3062 31.6997 13.2594C31.6096 13.2126 31.5079 13.1896 31.4053 13.1929C31.3026 13.1962 31.2028 13.2256 31.1161 13.2781C26.4085 16.0832 25.1971 22.7908 24.8942 25.507C24.8782 25.6557 24.8951 25.8058 24.9438 25.9478C24.9926 26.0898 25.0722 26.2205 25.1773 26.3312C25.2824 26.442 25.4108 26.5305 25.5542 26.5908C25.6975 26.6512 25.8525 26.6821 26.0091 26.6817L28.9031 26.6859L28.5912 35.3149C28.5829 35.5333 28.6208 35.751 28.7027 35.9551C28.7846 36.1592 28.9088 36.3454 29.0678 36.5027C29.2268 36.66 29.4175 36.7851 29.6283 36.8705C29.8392 36.956 30.066 37 30.2951 37C30.5242 37 30.7509 36.956 30.9618 36.8705C31.1726 36.7851 31.3633 36.66 31.5223 36.5027C31.6813 36.3454 31.8055 36.1592 31.8874 35.9551C31.9693 35.751 32.0072 35.5333 31.9989 35.3149V15.9879H32ZM22.6374 13C22.3399 13 22.0546 13.1127 21.8443 13.3133C21.6339 13.514 21.5157 13.7861 21.5157 14.0698V18.5234C21.5157 18.5897 21.5012 18.6517 21.4989 18.717H19.5012V14.0698C19.5012 13.7861 19.383 13.514 19.1727 13.3133C18.9623 13.1127 18.677 13 18.3795 13C18.0821 13 17.7968 13.1127 17.5864 13.3133C17.376 13.514 17.2579 13.7861 17.2579 14.0698V18.717H15.2602C15.2579 18.6517 15.2433 18.5897 15.2433 18.5234V14.0698C15.2433 13.7861 15.1252 13.514 14.9148 13.3133C14.7045 13.1127 14.4192 13 14.1217 13C13.8242 13 13.5389 13.1127 13.3285 13.3133C13.1182 13.514 13 13.7861 13 14.0698V18.5234C13 21.2738 14.7689 23.5803 17.1378 24.1901L16.6757 35.3171C16.6699 35.5341 16.7097 35.7499 16.7927 35.952C16.8757 36.1541 17.0003 36.3383 17.1592 36.4938C17.318 36.6492 17.5079 36.7727 17.7176 36.8571C17.9272 36.9414 18.1525 36.9849 18.3801 36.9849C18.6077 36.9849 18.8329 36.9414 19.0426 36.8571C19.2523 36.7727 19.4422 36.6492 19.601 36.4938C19.7599 36.3383 19.8845 36.1541 19.9675 35.952C20.0505 35.7499 20.0903 35.5341 20.0845 35.3171L19.6224 24.1901C21.9902 23.5803 23.7591 21.2738 23.7591 18.5234V14.0698C23.7591 13.7861 23.6409 13.514 23.4305 13.3133C23.2202 13.1127 22.9349 13 22.6374 13" fill="#929292"/>
<path fill-rule="evenodd" clip-rule="evenodd" d="M223.9 26.354H221.813L221.072 29.046C221.015 29.2592 220.889 29.4474 220.713 29.5811C220.538 29.7148 220.323 29.7865 220.102 29.785C219.881 29.7867 219.667 29.715 219.491 29.5812C219.316 29.4474 219.19 29.2592 219.133 29.046L217.9 24.568L216.668 29.046C216.611 29.2591 216.485 29.4472 216.31 29.581C216.134 29.7147 215.92 29.7865 215.699 29.785H215.698C215.477 29.7866 215.263 29.715 215.087 29.5815C214.912 29.4479 214.785 29.26 214.728 29.047L213.987 26.354H211.9C211.688 26.354 211.484 26.2697 211.334 26.1197C211.184 25.9697 211.1 25.7662 211.1 25.554C211.1 25.3418 211.184 25.1383 211.334 24.9883C211.484 24.8383 211.688 24.754 211.9 24.754H213.546L212.881 22.335C212.849 22.2326 212.839 22.1249 212.85 22.0183C212.86 21.9117 212.892 21.8084 212.944 21.7145C212.995 21.6205 213.065 21.5379 213.149 21.4714C213.233 21.405 213.33 21.3561 213.433 21.3277C213.537 21.2993 213.645 21.2919 213.751 21.3061C213.857 21.3202 213.959 21.3555 214.052 21.4099C214.144 21.4643 214.224 21.5367 214.288 21.6228C214.352 21.7088 214.398 21.8069 214.423 21.911L215.698 26.54L216.93 22.062C216.987 21.8488 217.113 21.6606 217.289 21.5269C217.464 21.3932 217.679 21.3215 217.9 21.323C218.358 21.323 218.748 21.62 218.87 22.062L220.102 26.54L221.377 21.911C221.433 21.7064 221.568 21.5325 221.753 21.4276C221.844 21.3756 221.945 21.3421 222.049 21.3291C222.153 21.316 222.259 21.3237 222.361 21.3515C222.462 21.3793 222.557 21.4269 222.64 21.4914C222.723 21.5558 222.792 21.636 222.844 21.7274C222.896 21.8187 222.929 21.9194 222.942 22.0236C222.955 22.1279 222.948 22.2337 222.92 22.335L222.254 24.754H223.9C224.005 24.754 224.109 24.7747 224.206 24.8149C224.303 24.8551 224.391 24.914 224.466 24.9883C224.54 25.0626 224.599 25.1508 224.639 25.2479C224.679 25.3449 224.7 25.4489 224.7 25.554C224.7 25.6591 224.679 25.7631 224.639 25.8601C224.599 25.9572 224.54 26.0454 224.466 26.1197C224.391 26.194 224.303 26.2529 224.206 26.2931C224.109 26.3333 224.005 26.354 223.9 26.354ZM226.9 15H208.9C208.661 15 208.432 15.0948 208.264 15.2636C208.095 15.4324 208 15.6613 208 15.9C208 16.1387 208.095 16.3676 208.264 16.5364C208.432 16.7052 208.661 16.8 208.9 16.8V33.9C208.9 34.1652 209.005 34.4196 209.193 34.6071C209.38 34.7946 209.635 34.9 209.9 34.9H225.9C226.165 34.9 226.42 34.7946 226.607 34.6071C226.795 34.4196 226.9 34.1652 226.9 33.9V16.8C227.139 16.8 227.368 16.7052 227.536 16.5364C227.705 16.3676 227.8 16.1387 227.8 15.9C227.8 15.6613 227.705 15.4324 227.536 15.2636C227.368 15.0948 227.139 15 226.9 15" fill="#929292"/>
<path fill-rule="evenodd" clip-rule="evenodd" d="M147.737 33H145C144.735 33 144.48 32.8946 144.293 32.7071C144.105 32.5196 144 32.2652 144 32V25.474C144 25.2088 144.105 24.9544 144.293 24.7669C144.48 24.5794 144.735 24.474 145 24.474H147.737C148.002 24.474 148.257 24.5794 148.444 24.7669C148.632 24.9544 148.737 25.2088 148.737 25.474V32C148.737 32.2652 148.632 32.5196 148.444 32.7071C148.257 32.8946 148.002 33 147.737 33ZM154.369 33H151.632C151.367 33 151.112 32.8946 150.925 32.7071C150.737 32.5196 150.632 32.2652 150.632 32V20.737C150.632 20.4718 150.737 20.2174 150.925 20.0299C151.112 19.8424 151.367 19.737 151.632 19.737H154.369C154.634 19.737 154.889 19.8424 155.076 20.0299C155.264 20.2174 155.369 20.4718 155.369 20.737V32C155.369 32.2652 155.264 32.5196 155.076 32.7071C154.889 32.8946 154.634 33 154.369 33ZM161 33H158.263C157.998 33 157.743 32.8946 157.556 32.7071C157.368 32.5196 157.263 32.2652 157.263 32V16C157.263 15.7348 157.368 15.4804 157.556 15.2929C157.743 15.1054 157.998 15 158.263 15H161C161.265 15 161.52 15.1054 161.707 15.2929C161.895 15.4804 162 15.7348 162 16V32C162 32.2652 161.895 32.5196 161.707 32.7071C161.52 32.8946 161.265 33 161 33Z" fill="#929292"/>
<path fill-rule="evenodd" clip-rule="evenodd" d="M291 15H276C275.735 15 275.48 15.1054 275.293 15.2929C275.105 15.4804 275 15.7348 275 16V34C275 34.2652 275.105 34.5196 275.293 34.7071C275.48 34.8946 275.735 35 276 35H284.5V30C284.5 28.622 285.622 27.5 287 27.5H292V16C292 15.7348 291.895 15.4804 291.707 15.2929C291.52 15.1054 291.265 15 291 15" fill="#929292"/>
<path fill-rule="evenodd" clip-rule="evenodd" d="M286 30V35L292 29H287C286.735 29 286.48 29.1054 286.293 29.2929C286.105 29.4804 286 29.7348 286 30Z" fill="#929292"/>
</svg>
