<svg width="48" height="17" viewBox="0 0 48 17" fill="none" xmlns="http://www.w3.org/2000/svg">
<path d="M25.9219 4.03125H28.9219V2.85938H25.9219V1.35938H24.4375V2.85938H21.4219V4.03125H24.4375C24.4297 5.42969 23.1797 6.67969 21.1094 7.125L21.7344 8.28125C23.3906 7.89844 24.5938 7.01562 25.1953 5.85938C25.8125 6.92188 27 7.72656 28.6094 8.09375L29.2188 6.9375C27.1719 6.50781 25.9141 5.35156 25.9219 4.03125ZM20.5 9.14062L20.7031 10.375C21.8281 10.375 23.1094 10.3672 24.4531 10.3125V14.9062H25.9375V10.2344C27.2266 10.1562 28.5469 10.0234 29.8281 9.8125L29.7188 8.73438C26.6719 9.11719 23.1562 9.14062 20.5 9.14062ZM30.6875 15.3281H32.1562V1.34375H30.6875V15.3281ZM38.2188 1.96875C36.0781 1.95312 34.5391 3.3125 34.5469 5.21875C34.5391 7.14844 36.0781 8.5 38.2188 8.5C40.0781 8.5 41.5156 7.42188 41.8047 5.8125H44.5312V8.84375H46.0156V1.32812H44.5312V4.59375H41.7969C41.4922 3.02344 40.0625 1.95312 38.2188 1.96875ZM35.9688 5.21875C35.9609 4.01562 36.8984 3.19531 38.2188 3.20312C39.5156 3.19531 40.4375 4.01562 40.4375 5.21875C40.4375 6.41406 39.5156 7.25 38.2188 7.25C36.8984 7.25 35.9609 6.41406 35.9688 5.21875ZM36.8906 15.1562H46.0156V9.51562H44.5312V11.1406H38.3594V9.51562H36.8906V15.1562ZM38.3594 13.9375V12.3125H44.5312V13.9375H38.3594Z" fill="black"/>
<path fill-rule="evenodd" clip-rule="evenodd" d="M2.7541 10.4001H4.13001V8.94902H2.7541V10.4001ZM2.7541 7.37623H4.13001V5.92517H2.7541V7.37623ZM2.7541 4.35319H4.13001V2.90212H2.7541V4.35319ZM5.81243 10.4001H7.18833V8.94902H5.81243V10.4001ZM5.81243 7.37623H7.18833V5.92517H5.81243V7.37623ZM5.81243 4.35319H7.18833V2.90212H5.81243V4.35319ZM8.87152 10.4001H10.2474V8.94902H8.87152V10.4001ZM8.87152 7.37623H10.2474V5.92517H8.87152V7.37623ZM8.87152 4.35319H10.2474V2.90212H8.87152V4.35319ZM12.2356 4.03109e-07H0.765156C0.66471 -0.000105529 0.565229 0.0206679 0.472401 0.0611331C0.379572 0.101598 0.295216 0.160962 0.224155 0.23583C0.153094 0.310698 0.0967209 0.399603 0.0582588 0.497461C0.0197968 0.59532 -5.02227e-08 0.700214 0 0.806146V16.0326C0 16.2892 0.0966406 16.5352 0.268662 16.7167C0.440683 16.8981 0.673994 17 0.917269 17H4.9716V13.9745C4.9716 13.7607 5.05213 13.5557 5.19549 13.4045C5.33884 13.2533 5.53326 13.1684 5.73599 13.1684H7.26477C7.4675 13.1684 7.66193 13.2533 7.80528 13.4045C7.94863 13.5557 8.02916 13.7607 8.02916 13.9745V17H12.0827C12.326 17 12.5593 16.8981 12.7313 16.7167C12.9034 16.5352 13 16.2892 13 16.0326V0.806146C13 0.592343 12.9195 0.387297 12.7761 0.236115C12.6328 0.0849333 12.4383 4.03109e-07 12.2356 4.03109e-07Z" fill="black"/>
</svg>
