<svg width="72" height="72" viewBox="0 0 72 72" fill="none" xmlns="http://www.w3.org/2000/svg">
<mask id="mask0_866_8848" style="mask-type:alpha" maskUnits="userSpaceOnUse" x="0" y="0" width="72" height="72">
<circle cx="36" cy="36" r="36" fill="#D9D9D9"/>
</mask>
<g mask="url(#mask0_866_8848)">
<circle cx="36" cy="36" r="36" fill="white"/>
<path fill-rule="evenodd" clip-rule="evenodd" d="M51.0019 27.0388C51.0021 29.0141 50.6143 30.97 49.8608 32.795C49.1072 34.62 48.0026 36.2782 46.61 37.6751C45.2174 39.072 43.5641 40.1801 41.7445 40.9362C39.9249 41.6922 37.9746 42.0815 36.0049 42.0817C32.0271 42.0821 28.212 40.4978 25.399 37.6773C22.5859 34.8568 21.0054 31.0311 21.0049 27.0419C21.0047 25.0666 21.3925 23.1107 22.1461 21.2857C22.8996 19.4607 24.0042 17.8025 25.3968 16.4056C28.2093 13.5845 32.024 11.9994 36.0019 11.999C39.9797 11.9986 43.7948 13.5829 46.6078 16.4034C49.4209 19.224 51.0015 23.0496 51.0019 27.0388M36.0034 46.6832C14.405 46.6832 6.00342 60.4678 6.00342 66.8807C6.00342 73.2905 23.8882 74.999 36.0034 74.999C48.1186 74.999 66.0034 73.2905 66.0034 66.8807C66.0034 60.4678 57.6018 46.6832 36.0034 46.6832Z" fill="#E3E6FA"/>
</g>
</svg>
