<svg width="50" height="16" viewBox="0 0 50 16" fill="none" xmlns="http://www.w3.org/2000/svg">
<path d="M7.48937 7.48892V0C5.51873 0.124037 3.74216 0.953626 2.41138 2.24653C3.77426 3.60729 4.66291 5.44449 4.79132 7.48892H7.48937Z" fill="#CECECE"/>
<path d="M3.77007 7.48894C3.64458 5.74439 2.88434 4.17642 1.72574 3.00317C0.73203 4.24938 0.107495 5.79765 0.000244141 7.48894H3.77007Z" fill="#CECECE"/>
<path d="M8.51074 7.48892H11.2088C11.3365 5.44522 12.2258 3.60802 13.5887 2.24653C12.258 0.953626 10.4814 0.124037 8.51074 0V7.48892Z" fill="#CECECE"/>
<path d="M16.0001 7.48894C15.8928 5.79765 15.2683 4.24938 14.2746 3.00317C13.116 4.17569 12.3557 5.74366 12.231 7.48821H16.0001V7.48894Z" fill="#CECECE"/>
<path d="M11.2088 8.51025H8.51074V15.9999C10.4814 15.8759 12.258 15.0463 13.5887 13.7526C12.2258 12.3912 11.3372 10.5539 11.2088 8.51025Z" fill="#CECECE"/>
<path d="M0.000244141 8.51025C0.106765 10.2008 0.73203 11.7491 1.72574 12.9953C2.88434 11.8228 3.64458 10.2548 3.76934 8.51025H0.000244141Z" fill="#CECECE"/>
<path d="M12.2302 8.51025C12.355 10.2548 13.1152 11.8228 14.2738 12.9953C15.2675 11.7491 15.8928 10.2008 15.9993 8.51025H12.2302Z" fill="#CECECE"/>
<path d="M7.48937 8.51025H4.79132C4.66364 10.5539 3.77426 12.3912 2.41138 13.7526C3.74216 15.0455 5.51873 15.8751 7.48937 15.9999V8.51025Z" fill="#CECECE"/>
<path d="M34.1875 1.34375H32.7031V5.5625H29.7969V6.79688H32.7031V11.6562H34.1875V1.34375ZM22.7188 8.90625L23.3438 10.0938C27.3672 8.79688 29.875 6.04688 29.8906 2.39062H23.4375V3.625H28.2578C27.9531 6 25.8359 7.89844 22.7188 8.90625ZM25.1719 15.0312H34.5469V13.8281H26.6719V10.5938H25.1719V15.0312ZM47.3438 1.32812H45.8594V9.64062H47.3438V6.0625H49.375V4.85938H47.3438V1.32812ZM36.3281 8.54688L36.9375 9.75C41.0391 8.5625 43.5 5.94531 43.5 2.32812H36.9531V3.53125H41.8906C41.6172 5.79688 39.6094 7.625 36.3281 8.54688ZM38.2344 12.5469C38.2188 14.2656 40.0625 15.3047 42.875 15.3125C45.6953 15.3047 47.5 14.2656 47.5 12.5469C47.5 10.8438 45.6953 9.78906 42.875 9.79688C40.0625 9.78906 38.2188 10.8438 38.2344 12.5469ZM39.7031 12.5469C39.6953 11.5625 40.9141 10.9609 42.875 10.9688C44.8203 10.9609 46.0469 11.5625 46.0469 12.5469C46.0469 13.5312 44.8203 14.1328 42.875 14.1406C40.9141 14.1328 39.6953 13.5312 39.7031 12.5469Z" fill="#CECECE"/>
</svg>
