<svg width="50" height="16" viewBox="0 0 50 16" fill="none" xmlns="http://www.w3.org/2000/svg">
<path d="M7.48913 7.48892V0C5.51849 0.124037 3.74192 0.953626 2.41113 2.24653C3.77402 3.60729 4.66267 5.44449 4.79108 7.48892H7.48913Z" fill="black"/>
<path d="M3.76983 7.48894C3.64434 5.74439 2.8841 4.17642 1.7255 3.00317C0.731786 4.24938 0.107251 5.79765 0 7.48894H3.76983Z" fill="black"/>
<path d="M8.5105 7.48892H11.2085C11.3362 5.44522 12.2256 3.60802 13.5885 2.24653C12.2577 0.953626 10.4811 0.124037 8.5105 0V7.48892Z" fill="black"/>
<path d="M15.9998 7.48894C15.8926 5.79765 15.268 4.24938 14.2743 3.00317C13.1157 4.17569 12.3555 5.74366 12.2307 7.48821H15.9998V7.48894Z" fill="black"/>
<path d="M11.2085 8.51025H8.5105V15.9999C10.4811 15.8759 12.2577 15.0463 13.5885 13.7526C12.2256 12.3912 11.337 10.5539 11.2085 8.51025Z" fill="black"/>
<path d="M0 8.51025C0.106521 10.2008 0.731786 11.7491 1.7255 12.9953C2.8841 11.8228 3.64434 10.2548 3.7691 8.51025H0Z" fill="black"/>
<path d="M12.23 8.51025C12.3547 10.2548 13.115 11.8228 14.2736 12.9953C15.2673 11.7491 15.8926 10.2008 15.9991 8.51025H12.23Z" fill="black"/>
<path d="M7.48913 8.51025H4.79108C4.6634 10.5539 3.77402 12.3912 2.41113 13.7526C3.74192 15.0455 5.51849 15.8751 7.48913 15.9999V8.51025Z" fill="black"/>
<path d="M34.1873 1.34375H32.7029V5.5625H29.7966V6.79688H32.7029V11.6562H34.1873V1.34375ZM22.7185 8.90625L23.3435 10.0938C27.3669 8.79688 29.8748 6.04688 29.8904 2.39062H23.4373V3.625H28.2576C27.9529 6 25.8357 7.89844 22.7185 8.90625ZM25.1716 15.0312H34.5466V13.8281H26.6716V10.5938H25.1716V15.0312ZM47.3435 1.32812H45.8591V9.64062H47.3435V6.0625H49.3748V4.85938H47.3435V1.32812ZM36.3279 8.54688L36.9373 9.75C41.0388 8.5625 43.4998 5.94531 43.4998 2.32812H36.9529V3.53125H41.8904C41.6169 5.79688 39.6091 7.625 36.3279 8.54688ZM38.2341 12.5469C38.2185 14.2656 40.0623 15.3047 42.8748 15.3125C45.6951 15.3047 47.4998 14.2656 47.4998 12.5469C47.4998 10.8438 45.6951 9.78906 42.8748 9.79688C40.0623 9.78906 38.2185 10.8438 38.2341 12.5469ZM39.7029 12.5469C39.6951 11.5625 40.9138 10.9609 42.8748 10.9688C44.8201 10.9609 46.0466 11.5625 46.0466 12.5469C46.0466 13.5312 44.8201 14.1328 42.8748 14.1406C40.9138 14.1328 39.6951 13.5312 39.7029 12.5469Z" fill="black"/>
</svg>
