<svg width="16" height="16" viewBox="0 0 16 16" fill="none" xmlns="http://www.w3.org/2000/svg">
<rect x="4" y="13" width="8" height="2" rx="1" fill="#A9A9A9"/>
<path fill-rule="evenodd" clip-rule="evenodd" d="M10.6385 3.10067C10.3787 1.9 9.31133 1 8.03347 1C7.42499 1.00001 6.83484 1.20842 6.36116 1.59059C5.88748 1.97276 5.55879 2.50565 5.42976 3.10067C5.08872 2.99869 4.73072 2.96607 4.37687 3.00473C4.02302 3.0434 3.6805 3.15257 3.36949 3.3258C3.05848 3.49904 2.78528 3.73283 2.566 4.01339C2.34673 4.29396 2.18581 4.61562 2.09275 4.9594C1.99968 5.30318 1.97635 5.66213 2.02413 6.01508C2.07191 6.36803 2.18983 6.70783 2.37093 7.01446C2.55204 7.32108 2.79267 7.58831 3.07864 7.8004C3.3646 8.01248 3.69011 8.16513 4.03597 8.24933V11.1096C4.09057 11.6103 4.5148 12 5.03003 12H11.03C11.5823 12 12.03 11.5523 12.03 11V12H12.031V8.24933C12.7133 8.06457 13.2943 7.61614 13.6462 7.00271C13.9981 6.38928 14.0921 5.66109 13.9075 4.97833C13.7228 4.29558 13.2747 3.71418 12.6616 3.36205C12.0486 3.00992 11.3208 2.9159 10.6385 3.10067Z" fill="#A9A9A9"/>
</svg>
