<svg width="16" height="16" viewBox="0 0 16 16" fill="none" xmlns="http://www.w3.org/2000/svg">
<path fill-rule="evenodd" clip-rule="evenodd" d="M2.22416 6.33299C1.89949 6.33299 1.58812 6.46337 1.35855 6.69545C1.12897 6.92754 1 7.24231 1 7.57052V12.7618C1 13.4456 1.54779 14 2.22416 14H3.46504V6.33299H2.22416ZM12.1634 4.89851H9.24315V2.129C9.24329 1.88049 9.16228 1.63889 9.01268 1.44169C8.86309 1.2445 8.65328 1.10274 8.41583 1.03843C8.17839 0.974127 7.92658 0.990863 7.6995 1.08604C7.47243 1.18123 7.28279 1.34953 7.16002 1.56483L4.43652 6.33299H4.42945V14H10.3664C10.9138 14 11.4454 13.8146 11.8763 13.4734C12.3073 13.1322 12.6128 12.6549 12.744 12.1177L13.9463 7.20134C14.0132 6.9278 14.0177 6.64245 13.9593 6.36691C13.901 6.09136 13.7814 5.83285 13.6096 5.61095C13.4378 5.38905 13.2183 5.20959 12.9678 5.08615C12.7172 4.96272 12.4421 4.89855 12.1634 4.89851Z" fill="#A9A9A9"/>
</svg>
