<svg width="16" height="16" viewBox="0 0 16 16" fill="none" xmlns="http://www.w3.org/2000/svg">
<g clip-path="url(#clip0_1388_8379)">
<path fill-rule="evenodd" clip-rule="evenodd" d="M16 8C16 12.4183 12.4183 16 8 16C3.58172 16 0 12.4183 0 8C0 3.58172 3.58172 0 8 0C12.4183 0 16 3.58172 16 8ZM9.71677 8.03337C9.71438 8.89806 9.85421 9.53409 10.0912 9.94676C10.3217 10.3481 10.6416 10.5379 11.0402 10.5379C11.436 10.5379 11.7548 10.3485 11.9855 9.94676C12.2227 9.53385 12.3636 8.89757 12.3636 8.03281C12.3636 7.17098 12.2216 6.53048 11.9834 6.11214C11.7511 5.7043 11.4316 5.51056 11.0402 5.50821C10.6462 5.51056 10.3268 5.70451 10.0953 6.11197C9.85766 6.53024 9.71677 7.17127 9.71677 8.03337ZM13.8379 8.03324C13.8354 9.21391 13.5906 10.1687 13.1131 10.8338C12.6293 11.5076 11.9192 11.8656 11.0402 11.8656C10.1613 11.8656 9.45001 11.5077 8.96559 10.8339C8.48737 10.1687 8.24255 9.21376 8.24255 8.03281C8.24255 6.85853 8.49008 5.90388 8.96924 5.23725C9.4543 4.56242 10.1651 4.2 11.0402 4.2C11.9131 4.2 12.6226 4.5626 13.1075 5.23725C13.5866 5.90371 13.8354 6.85903 13.8379 8.03324ZM6.29993 8.04654V8.04653C6.41996 8.08842 6.5311 8.14002 6.63287 8.20055C7.0807 8.46688 7.34706 8.90591 7.39114 9.44973C7.39578 9.50689 7.39796 9.56521 7.39763 9.62461C7.40133 10.5153 6.77838 11.227 5.84007 11.5203C6.77836 11.227 7.40128 10.5153 7.39758 9.62461C7.39791 9.56518 7.39573 9.50683 7.39109 9.44964C7.34698 8.90588 7.08067 8.46689 6.63289 8.20057C6.53112 8.14004 6.41997 8.08843 6.29993 8.04654ZM7.12415 6.32383C7.13195 6.96739 6.81573 7.46451 6.29993 7.73557V7.73559C6.81576 7.46454 7.132 6.96741 7.12419 6.32383C7.13396 5.27891 6.25994 4.4 4.86834 4.4L4.86829 4.4C6.25989 4.4 7.13391 5.27891 7.12415 6.32383ZM3.49133 6.3336L3.49138 6.33359C3.51546 5.7027 4.1333 5.30931 4.82955 5.29866C4.13328 5.30929 3.51541 5.70268 3.49133 6.3336ZM3.39368 9.72227C3.4303 10.3036 3.97332 10.6876 4.69283 10.7333C3.97334 10.6876 3.43035 10.3036 3.39373 9.72227L3.39368 9.72227ZM7.14931 8.36756C6.96227 8.15862 6.72339 7.99604 6.44184 7.88584C6.98995 7.57704 7.33204 7.02755 7.3242 6.32354C7.33399 5.14648 6.34692 4.2 4.86834 4.2C3.48457 4.2 2.28932 5.02926 2.25629 6.32851C2.25492 6.38242 2.27538 6.4346 2.31302 6.47321C2.35066 6.51182 2.4023 6.53359 2.45623 6.53359H3.49138C3.59887 6.53359 3.68714 6.44863 3.69124 6.34122C3.70072 6.09278 3.82671 5.88766 4.03491 5.73887C4.24614 5.58792 4.53954 5.49844 4.85857 5.49844C5.19348 5.49844 5.45053 5.59661 5.62108 5.74821C5.7896 5.898 5.88904 6.11311 5.88904 6.38242C5.88904 6.66179 5.7756 6.8868 5.5812 7.04528C5.38345 7.20648 5.08986 7.30769 4.72306 7.30547H4.11638C4.00593 7.30547 3.91638 7.39501 3.91638 7.50547V8.38438C3.91638 8.49483 4.00593 8.58438 4.11638 8.58438H4.72127C5.19597 8.58673 5.54647 8.7049 5.77357 8.8825C5.9962 9.05659 6.11365 9.29731 6.11365 9.58555C6.11365 9.86357 5.9908 10.0947 5.7746 10.2616C5.55482 10.4311 5.2319 10.5379 4.83904 10.5379C4.0931 10.5379 3.62253 10.1732 3.59333 9.70969C3.58669 9.60433 3.4993 9.52227 3.39373 9.52227H2.29998C2.24562 9.52227 2.1936 9.54439 2.1559 9.58355C2.11819 9.62271 2.09806 9.67554 2.10012 9.72986C2.14967 11.0348 3.32197 11.8656 4.8488 11.8656C6.37882 11.8656 7.60256 10.9521 7.59763 9.62472C7.6001 9.13486 7.44668 8.69975 7.14931 8.36756ZM4.83899 10.7379C4.83901 10.7379 4.83902 10.7379 4.83904 10.7379L4.83899 10.7379ZM4.11638 7.50547L4.7218 7.50547C4.73597 7.50556 4.75007 7.5055 4.76408 7.50531C4.75008 7.5055 4.736 7.50556 4.72185 7.50547H4.11638Z" fill="#A9A9A9"/>
</g>
<defs>
<clipPath id="clip0_1388_8379">
<rect width="16" height="16" fill="white"/>
</clipPath>
</defs>
</svg>
