<svg width="16" height="16" viewBox="0 0 16 16" fill="none" xmlns="http://www.w3.org/2000/svg">
<path fill-rule="evenodd" clip-rule="evenodd" d="M14 10.8416V9.23529H11.802C11.6144 9.23529 11.5206 9.23529 11.4416 9.24338C10.6832 9.32103 10.0833 9.93861 10.0079 10.7193C10 10.8006 10 10.8972 10 11.0903C10 11.3207 10 11.4359 10.01 11.5273C10.1066 12.4148 10.8727 13.0614 11.7371 12.9849C11.8262 12.977 11.9359 12.9544 12.1554 12.9092L12.3923 12.8604C12.6966 12.7978 12.8488 12.7664 12.9772 12.7153C13.5012 12.5067 13.8805 12.0304 13.9765 11.4605C14 11.3209 14 11.1611 14 10.8416ZM6 12.4886V10.8824H3.80196C3.6144 10.8824 3.52062 10.8824 3.44164 10.8904C2.68322 10.9681 2.08329 11.5857 2.00786 12.3664C2 12.4477 2 12.5442 2 12.7373C2 12.9677 2 13.0829 2.00995 13.1743C2.10657 14.0619 2.87272 14.7084 3.73711 14.6319C3.82614 14.624 3.93595 14.6014 4.15536 14.5563L4.39223 14.5075C4.6966 14.4448 4.84879 14.4135 4.9772 14.3624C5.5012 14.1537 5.8805 13.6774 5.97648 13.1076C6 12.9679 6 12.8082 6 12.4886Z" fill="#A9A9A9"/>
<path d="M6 10.8824V6.76471M6 10.8824V12.4886M6 10.8824H3.80196M14 9.23529V5.11765M14 9.23529V10.8416M14 9.23529H11.802M14 5.11765L6 6.76471M14 5.11765V5.01818M6 6.76471V5.34759M6 5.34759C6 4.05485 6 3.40848 6.36265 2.95311C6.72531 2.49773 7.34101 2.37097 8.57243 2.11744M6 5.34759V5.27344C6 4.32657 6 3.85314 6.17212 3.46553C6.3169 3.13951 6.54624 2.85815 6.83637 2.6506C7.1813 2.40385 7.64501 2.30838 8.57243 2.11744V2.11744M6 5.34759V12.4886M8.57243 2.11744L10.1724 1.78803M10.1724 1.78803C11.9433 1.42343 12.8288 1.24114 13.4144 1.73535C14 2.22956 14 3.1591 14 5.01818M10.1724 1.78803V1.78803C11.4733 1.52021 12.1237 1.3863 12.634 1.55686C13.0959 1.71126 13.4857 2.02892 13.73 2.45022C14 2.91565 14 3.57972 14 4.90785V5.01818M14 10.8416C14 11.1611 14 11.3209 13.9765 11.4605C13.8805 12.0304 13.5012 12.5067 12.9772 12.7153C12.8488 12.7664 12.6966 12.7978 12.3923 12.8604M14 10.8416V10.888C14 10.8986 14 10.904 14 10.9087C13.9955 11.8507 13.3343 12.6619 12.4126 12.8562C12.4079 12.8572 12.4027 12.8583 12.3923 12.8604V12.8604M12.3923 12.8604L12.1554 12.9092M12.1554 12.9092C11.9359 12.9544 11.8262 12.977 11.7371 12.9849C10.8727 13.0614 10.1066 12.4148 10.01 11.5273C10 11.4359 10 11.3207 10 11.0903M12.1554 12.9092V12.9092C11.0427 13.1383 10 12.2884 10 11.1524V11.0903M10 11.0903C10 10.8972 10 10.8006 10.0079 10.7193C10.0833 9.93861 10.6832 9.32103 11.4416 9.24338C11.5206 9.23529 11.6144 9.23529 11.802 9.23529M10 11.0903V11.0373C10 10.0421 10.8068 9.23529 11.802 9.23529V9.23529M6 12.4886C6 12.8082 6 12.9679 5.97648 13.1076C5.8805 13.6774 5.5012 14.1537 4.9772 14.3624C4.84879 14.4135 4.6966 14.4448 4.39223 14.5075M6 12.4886V12.535C6 12.5457 6 12.551 5.99998 12.5558C5.99551 13.4978 5.33433 14.3089 4.41259 14.5033C4.40795 14.5042 4.40271 14.5053 4.39223 14.5075V14.5075M4.39223 14.5075L4.15536 14.5563M4.15536 14.5563C3.93595 14.6014 3.82614 14.624 3.73711 14.6319C2.87272 14.7084 2.10657 14.0619 2.00995 13.1743C2 13.0829 2 12.9677 2 12.7373M4.15536 14.5563V14.5563C3.04267 14.7853 2 13.9355 2 12.7994V12.7373M2 12.7373C2 12.5442 2 12.4477 2.00786 12.3664C2.08329 11.5857 2.68322 10.9681 3.44164 10.8904C3.52063 10.8824 3.6144 10.8824 3.80196 10.8824M2 12.7373V12.6843C2 11.6891 2.80677 10.8824 3.80196 10.8824V10.8824" stroke="#A9A9A9" stroke-width="2"/>
</svg>
