<svg width="16" height="16" viewBox="0 0 16 16" fill="none" xmlns="http://www.w3.org/2000/svg">
<g clip-path="url(#clip0_1388_8373)">
<path fill-rule="evenodd" clip-rule="evenodd" d="M4 8.19871V10.8571C4 11.4255 4.42143 11.9705 5.17157 12.3724C5.92172 12.7742 6.93913 13 8 13C9.06087 13 10.0783 12.7742 10.8284 12.3724C11.5786 11.9705 12 11.4255 12 10.8571V8.19865L8.27651 9.27044C8.09577 9.32246 7.90402 9.32246 7.72328 9.27044L4 8.19871ZM7.06587 7H8.93391L7.99989 7.26885L7.06587 7Z" fill="#A9A9A9"/>
<path d="M14 5.5L14 11.5" stroke="#A9A9A9"/>
<path d="M13.8782 6.36717C14.757 6.12305 14.757 4.87695 13.8782 4.63283L8.24088 3.06691C8.08328 3.02313 7.91672 3.02313 7.75912 3.06691L2.1218 4.63283C1.24297 4.87695 1.24297 6.12305 2.1218 6.36717L7.75912 7.93309C7.91672 7.97687 8.08328 7.97687 8.24088 7.93309L13.8782 6.36717Z" fill="#A9A9A9"/>
<path fill-rule="evenodd" clip-rule="evenodd" d="M4 8.19871V10.8571C4 11.4255 4.42143 11.9705 5.17157 12.3724C5.92172 12.7742 6.93913 13 8 13C9.06087 13 10.0783 12.7742 10.8284 12.3724C11.5786 11.9705 12 11.4255 12 10.8571V8.19865L8.27651 9.27044C8.09577 9.32246 7.90402 9.32246 7.72328 9.27044L4 8.19871ZM7.06587 7H8.93391L7.99989 7.26885L7.06587 7Z" fill="#A9A9A9"/>
<path d="M14 5.5L14 11.5" stroke="#A9A9A9"/>
<path d="M13.8782 6.36717C14.757 6.12305 14.757 4.87695 13.8782 4.63283L8.24088 3.06691C8.08328 3.02313 7.91672 3.02313 7.75912 3.06691L2.1218 4.63283C1.24297 4.87695 1.24297 6.12305 2.1218 6.36717L7.75912 7.93309C7.91672 7.97687 8.08328 7.97687 8.24088 7.93309L13.8782 6.36717Z" fill="#A9A9A9"/>
<path fill-rule="evenodd" clip-rule="evenodd" d="M4 8.19871V10.8571C4 11.4255 4.42143 11.9705 5.17157 12.3724C5.92172 12.7742 6.93913 13 8 13C9.06087 13 10.0783 12.7742 10.8284 12.3724C11.5786 11.9705 12 11.4255 12 10.8571V8.19865L8.27651 9.27044C8.09577 9.32246 7.90402 9.32246 7.72328 9.27044L4 8.19871ZM7.06587 7H8.93391L7.99989 7.26885L7.06587 7Z" fill="#A9A9A9"/>
<path d="M14 5.5L14 11.5" stroke="#A9A9A9"/>
<path d="M13.8782 6.36717C14.757 6.12305 14.757 4.87695 13.8782 4.63283L8.24088 3.06691C8.08328 3.02313 7.91672 3.02313 7.75912 3.06691L2.1218 4.63283C1.24297 4.87695 1.24297 6.12305 2.1218 6.36717L7.75912 7.93309C7.91672 7.97687 8.08328 7.97687 8.24088 7.93309L13.8782 6.36717Z" fill="#A9A9A9"/>
</g>
<defs>
<clipPath id="clip0_1388_8373">
<rect width="16" height="16" fill="white"/>
</clipPath>
</defs>
</svg>
