<svg width="16" height="16" viewBox="0 0 16 16" fill="none" xmlns="http://www.w3.org/2000/svg">
<path fill-rule="evenodd" clip-rule="evenodd" d="M3.1523 12.3041C3.1523 12.4887 3.22445 12.6657 3.35288 12.7962C3.48131 12.9267 3.6555 13 3.83713 13H13.1626C13.3442 13 13.5184 12.9267 13.6468 12.7962C13.7753 12.6657 13.8474 12.4887 13.8474 12.3041V11.4343H3.1523V12.3041ZM13.9522 4.40883L11.3156 5.7936L9.1008 2.33167C9.0357 2.22986 8.9466 2.14619 8.84159 2.08826C8.73658 2.03034 8.61899 2 8.49951 2C8.38002 2 8.26243 2.03034 8.15742 2.08826C8.05241 2.14619 7.96331 2.22986 7.89822 2.33167L5.68346 5.7936L3.04683 4.40883C2.92668 4.34583 2.79146 4.3186 2.65675 4.33027C2.52204 4.34194 2.39331 4.39203 2.28538 4.47479C2.17746 4.55754 2.09474 4.66958 2.04674 4.79802C1.99875 4.92645 1.98743 5.06605 2.0141 5.20073L3.0482 10.3905H13.9508L14.9849 5.20073C15.1048 4.60089 14.487 4.1277 13.9522 4.40883Z" fill="#A9A9A9"/>
</svg>
