<svg width="16" height="16" viewBox="0 0 16 16" fill="none" xmlns="http://www.w3.org/2000/svg">
<path fill-rule="evenodd" clip-rule="evenodd" d="M1.69609 6.56473C2.82796 5.02515 4.93771 3 8.20469 3C11.4717 3 13.5814 5.02515 14.7133 6.56473C15.189 7.21181 15.4269 7.53534 15.4084 8.22114C15.3899 8.90693 15.1203 9.23499 14.5812 9.89112C13.3085 11.44 11.0567 13.5407 8.20469 13.5407C5.3527 13.5407 3.1009 11.44 1.82819 9.89112C1.28905 9.23499 1.01948 8.90693 1.001 8.22114C0.982519 7.53534 1.22038 7.21181 1.69609 6.56473ZM8.20469 11.2819C9.86796 11.2819 11.2163 9.93359 11.2163 8.27033C11.2163 6.60706 9.86796 5.25871 8.20469 5.25871C6.54143 5.25871 5.19308 6.60706 5.19308 8.27033C5.19308 9.93359 6.54143 11.2819 8.20469 11.2819Z" fill="#A9A9A9"/>
</svg>
