<svg width="16" height="16" viewBox="0 0 16 16" fill="none" xmlns="http://www.w3.org/2000/svg">
<g clip-path="url(#clip0_1390_23027)">
<path d="M7.48913 7.48892V0C5.51849 0.124037 3.74192 0.953626 2.41113 2.24653C3.77402 3.60729 4.66267 5.44449 4.79108 7.48892H7.48913Z" fill="#A9A9A9"/>
<path d="M3.76983 7.48884C3.64434 5.7443 2.8841 4.17633 1.7255 3.00308C0.731786 4.24929 0.107251 5.79756 0 7.48884H3.76983Z" fill="#A9A9A9"/>
<path d="M8.5105 7.48892H11.2085C11.3362 5.44522 12.2256 3.60802 13.5885 2.24653C12.2577 0.953626 10.4811 0.124037 8.5105 0V7.48892Z" fill="#A9A9A9"/>
<path d="M15.9998 7.48884C15.8926 5.79756 15.268 4.24929 14.2743 3.00308C13.1157 4.1756 12.3555 5.74357 12.2307 7.48811H15.9998V7.48884Z" fill="#A9A9A9"/>
<path d="M11.2085 8.51031H8.5105V16C10.4811 15.8759 12.2577 15.0463 13.5885 13.7527C12.2256 12.3912 11.337 10.554 11.2085 8.51031Z" fill="#A9A9A9"/>
<path d="M0 8.51031C0.106521 10.2009 0.731786 11.7491 1.7255 12.9953C2.8841 11.8228 3.64434 10.2549 3.7691 8.51031H0Z" fill="#A9A9A9"/>
<path d="M12.23 8.51031C12.3547 10.2549 13.115 11.8228 14.2736 12.9953C15.2673 11.7491 15.8926 10.2009 15.9991 8.51031H12.23Z" fill="#A9A9A9"/>
<path d="M7.48913 8.51031H4.79108C4.6634 10.554 3.77402 12.3912 2.41113 13.7527C3.74192 15.0456 5.51849 15.8752 7.48913 16V8.51031Z" fill="#A9A9A9"/>
</g>
<defs>
<clipPath id="clip0_1390_23027">
<rect width="16" height="16" fill="white"/>
</clipPath>
</defs>
</svg>
