<svg width="16" height="16" viewBox="0 0 16 16" fill="none" xmlns="http://www.w3.org/2000/svg">
<g clip-path="url(#clip0_1388_8381)">
<path fill-rule="evenodd" clip-rule="evenodd" d="M8 16C12.4183 16 16 12.4183 16 8C16 3.58172 12.4183 0 8 0C3.58172 0 0 3.58172 0 8C0 12.4183 3.58172 16 8 16ZM3.76419 7.05009C4.08454 6.86471 4.49163 6.7554 4.91254 6.75157L4.91509 6.75155C6.36007 6.75686 7.42881 7.83441 7.42881 9.30508C7.42881 10.8163 6.28497 11.8977 4.70928 11.8977C3.29579 11.8977 2.1716 11.0268 2.11689 9.76295C2.11453 9.70846 2.13453 9.65536 2.17225 9.61597C2.20998 9.57658 2.26216 9.5543 2.3167 9.5543H3.36162C3.46456 9.5543 3.55068 9.63243 3.56068 9.73488C3.60654 10.205 4.06842 10.5943 4.7094 10.5992C5.4596 10.5944 5.98389 10.0623 5.98389 9.33438C5.98389 8.59039 5.44335 8.04934 4.65933 8.04024C4.13978 8.04048 3.78816 8.21161 3.59542 8.5617C3.56025 8.62556 3.49312 8.66524 3.42022 8.66524H2.40459C2.34751 8.66524 2.29315 8.64085 2.2552 8.59821C2.21725 8.55558 2.19932 8.49876 2.20594 8.44207L2.66492 4.50652C2.67668 4.40571 2.76208 4.32969 2.86357 4.32969H6.86748C6.97794 4.32969 7.06748 4.41923 7.06748 4.52969V5.44766C7.06748 5.55812 6.97794 5.64766 6.86748 5.64766H3.92999L3.76419 7.05009ZM3.75225 5.44766L3.51787 7.43008H3.51782L3.7522 5.44765H6.86743V4.52969L6.86748 4.52969V5.44766H3.75225ZM7.22876 9.30508C7.22876 8.05863 6.40715 7.12692 5.24638 6.97373C6.40717 7.1269 7.22881 8.05861 7.22881 9.30508C7.22881 10.6967 6.18389 11.6977 4.70928 11.6977L4.70923 11.6977C6.18384 11.6977 7.22876 10.6967 7.22876 9.30508ZM4.37738 10.7643C3.82435 10.6488 3.41074 10.2583 3.36157 9.7543L3.36162 9.7543C3.41079 10.2583 3.82438 10.6488 4.37738 10.7643ZM4.6604 7.84023C4.69339 7.8406 4.72602 7.84181 4.75829 7.84384C4.72604 7.84181 4.69342 7.8406 4.66045 7.84024C4.09404 7.84024 3.65947 8.03067 3.42022 8.46524H2.40459L3.42017 8.46523C3.65942 8.03066 4.09399 7.84023 4.6604 7.84023ZM9.50889 8.0654C9.50649 8.93009 9.64633 9.56612 9.88332 9.97879C10.1138 10.3801 10.4337 10.5699 10.8323 10.5699C11.2281 10.5699 11.5469 10.3806 11.7777 9.97879C12.0148 9.56588 12.1558 8.9296 12.1558 8.06485C12.1558 7.20301 12.0137 6.56251 11.7755 6.14417C11.5432 5.73633 11.2237 5.54259 10.8323 5.54024C10.4383 5.54259 10.119 5.73654 9.88744 6.144C9.64977 6.56227 9.50889 7.2033 9.50889 8.0654ZM10.8323 5.34024C10.8591 5.34037 10.8857 5.34128 10.9119 5.34295C10.8856 5.34128 10.8591 5.34037 10.8323 5.34023C9.88013 5.34512 9.30884 6.30703 9.30884 8.06484C9.30471 9.55371 9.71166 10.4573 10.4149 10.7021C9.71168 10.4573 9.30476 9.55368 9.30889 8.06485C9.30889 6.30703 9.88018 5.34512 10.8323 5.34024ZM13.63 8.06527C13.6275 9.24594 13.3827 10.2007 12.9052 10.8658C12.4214 11.5396 11.7113 11.8977 10.8323 11.8977C9.95339 11.8977 9.24212 11.5397 8.7577 10.8659C8.27949 10.2007 8.03467 9.24579 8.03467 8.06485C8.03467 6.89056 8.28219 5.93591 8.76135 5.26928C9.24641 4.59445 9.95724 4.23203 10.8323 4.23203C11.7052 4.23203 12.4147 4.59463 12.8996 5.26928C13.3787 5.93574 13.6275 6.89106 13.63 8.06527ZM13.43 8.06485C13.4253 5.85262 12.526 4.53496 11.0147 4.43781C12.526 4.53498 13.4252 5.85264 13.4299 8.06484C13.425 10.3793 12.468 11.6977 10.8323 11.6977L10.8323 11.6977C12.4681 11.6977 13.4251 10.3793 13.43 8.06485Z" fill="#A9A9A9"/>
</g>
<defs>
<clipPath id="clip0_1388_8381">
<rect width="16" height="16" fill="white"/>
</clipPath>
</defs>
</svg>
