<svg width="16" height="16" viewBox="0 0 16 16" fill="none" xmlns="http://www.w3.org/2000/svg">
<g clip-path="url(#clip0_1388_8380)">
<path fill-rule="evenodd" clip-rule="evenodd" d="M8 16C12.4183 16 16 12.4183 16 8C16 3.58172 12.4183 0 8 0C3.58172 0 0 3.58172 0 8C0 12.4183 3.58172 16 8 16ZM2.00908 10.423C1.89863 10.423 1.80908 10.3335 1.80908 10.223V9.35391C1.80908 9.31532 1.82024 9.27756 1.84122 9.24517L4.96622 4.42095C5.00309 4.36404 5.06628 4.32969 5.13408 4.32969H6.46221C6.57266 4.32969 6.66221 4.41923 6.66221 4.52969V9.11485H7.429C7.53946 9.11485 7.629 9.20439 7.629 9.31485V10.223C7.629 10.3335 7.53946 10.423 7.429 10.423H6.66221V11.6C6.66221 11.7105 6.57266 11.8 6.46221 11.8H5.44658C5.33613 11.8 5.24658 11.7105 5.24658 11.6V10.423H2.00908ZM6.46216 4.52969L6.46221 4.52969V9.31485L6.46216 9.31484V4.52969ZM7.42896 10.223V9.31484L7.429 9.31485V10.223H6.46221V11.6H5.44658L6.46216 11.6V10.223H7.42896ZM3.14189 9.25625L5.36846 5.80899L5.44653 5.80898H5.36841L3.14185 9.25625V9.31484L3.14189 9.31485V9.25625ZM3.47132 9.11485H5.24658V6.3663L3.47132 9.11485ZM9.65049 8.0654C9.64809 8.93009 9.78793 9.56612 10.0249 9.97879C10.2554 10.3801 10.5753 10.5699 10.9739 10.5699C11.3697 10.5699 11.6885 10.3806 11.9193 9.97879C12.1564 9.56588 12.2974 8.9296 12.2974 8.06485C12.2974 7.20301 12.1553 6.56251 11.9171 6.14417C11.6848 5.73633 11.3653 5.54259 10.9739 5.54024C10.5799 5.54259 10.2606 5.73654 10.029 6.144C9.79137 6.56227 9.65049 7.2033 9.65049 8.0654ZM10.9739 5.34024C11.0007 5.34037 11.0273 5.34128 11.0535 5.34295C11.0272 5.34128 11.0007 5.34037 10.9739 5.34023C10.0217 5.34512 9.45044 6.30703 9.45044 8.06484C9.44634 9.54376 9.84784 10.4452 10.5424 10.6971C9.84786 10.4452 9.44639 9.54373 9.45049 8.06485C9.45049 6.30703 10.0218 5.34512 10.9739 5.34024ZM13.7716 8.06527C13.7691 9.24594 13.5243 10.2007 13.0468 10.8658C12.563 11.5396 11.8529 11.8977 10.9739 11.8977C10.095 11.8977 9.38372 11.5397 8.89931 10.8659C8.42109 10.2007 8.17627 9.24579 8.17627 8.06485C8.17627 6.89056 8.4238 5.93591 8.90296 5.26928C9.38801 4.59445 10.0988 4.23203 10.9739 4.23203C11.8468 4.23203 12.5563 4.59463 13.0412 5.26928C13.5203 5.93574 13.7691 6.89106 13.7716 8.06527ZM13.5716 8.06485C13.5669 5.85262 12.6676 4.53496 11.1563 4.43781C12.6676 4.53498 13.5668 5.85264 13.5715 8.06484C13.5667 10.3793 12.6096 11.6977 10.9739 11.6977L10.9739 11.6977C12.6097 11.6977 13.5667 10.3793 13.5716 8.06485Z" fill="#A9A9A9"/>
</g>
<defs>
<clipPath id="clip0_1388_8380">
<rect width="16" height="16" fill="white"/>
</clipPath>
</defs>
</svg>
