<svg width="16" height="16" viewBox="0 0 16 16" fill="none" xmlns="http://www.w3.org/2000/svg">
<path d="M4.5 14C5.60457 14 6.5 13.1046 6.5 12C6.5 10.8954 5.60457 10 4.5 10C3.39543 10 2.5 10.8954 2.5 12C2.5 13.1046 3.39543 14 4.5 14Z" stroke="#A9A9A9" stroke-width="2" stroke-linecap="round" stroke-linejoin="round"/>
<path d="M11.5 14C12.6046 14 13.5 13.1046 13.5 12C13.5 10.8954 12.6046 10 11.5 10C10.3954 10 9.5 10.8954 9.5 12C9.5 13.1046 10.3954 14 11.5 14Z" stroke="#A9A9A9" stroke-width="2" stroke-linecap="round" stroke-linejoin="round"/>
<path d="M3 2L11 10" stroke="#A9A9A9" stroke-width="2" stroke-linecap="round" stroke-linejoin="round"/>
<path d="M13 2L5 10" stroke="#A9A9A9" stroke-width="2" stroke-linecap="round" stroke-linejoin="round"/>
</svg>
