<svg width="260" height="50" viewBox="0 0 260 50" fill="none" xmlns="http://www.w3.org/2000/svg">
<path fill-rule="evenodd" clip-rule="evenodd" d="M19.8182 43.3182L18.4182 43.7636C17.6545 44.0182 17.0818 44.5909 16.8273 45.3545L16.3182 46.8182C16.1909 47.1364 15.8091 47.1364 15.7455 46.8182L15.3 45.4182C15.0455 44.6545 14.4727 44.0818 13.7091 43.8273L12.1818 43.3182C11.8636 43.1909 11.8636 42.8091 12.1818 42.7455L13.5818 42.3C14.3455 42.0455 14.9182 41.4727 15.1727 40.7091L15.6818 39.1818C15.8091 38.8636 16.1909 38.8636 16.2545 39.1818L16.7 40.5818C16.9545 41.3455 17.5273 41.9182 18.2909 42.1727L19.6909 42.6182C20.1364 42.8091 20.1364 43.1909 19.8182 43.3182ZM16 36C12.1182 36 9 39.1182 9 43C9 46.8818 12.1182 50 16 50C19.8818 50 23 46.8818 23 43C23 39.1182 19.8818 36 16 36Z" fill="#929292"/>
<path d="M36.9648 49.1621H35.7207V42.832H34.1348V48.5332H32.9453V37.1582H34.1348V41.7656H35.7207V36.9121H36.9648V49.1621ZM26.8613 38.3887H31.4551V39.4414H28.1602V45.1152C28.9577 45.1107 29.6572 45.0856 30.2588 45.04C30.8649 44.9945 31.4824 44.9102 32.1113 44.7871L32.207 45.8535C31.5234 45.9948 30.849 46.0905 30.1836 46.1406C29.5228 46.1862 28.6888 46.2135 27.6816 46.2227H26.8613V38.3887ZM45.8652 39.1953H38.5645V38.1562H41.5723V36.8574H42.8711V38.1562H45.8652V39.1953ZM39.2344 41.9707C39.2344 41.5286 39.3574 41.1413 39.6035 40.8086C39.8542 40.4714 40.2051 40.2116 40.6562 40.0293C41.1074 39.8424 41.627 39.7467 42.2148 39.7422C42.7982 39.7467 43.3132 39.8424 43.7598 40.0293C44.2109 40.2116 44.5596 40.4714 44.8057 40.8086C45.0563 41.1413 45.1816 41.5286 45.1816 41.9707C45.1816 42.4128 45.0563 42.8024 44.8057 43.1396C44.5596 43.4769 44.2109 43.7389 43.7598 43.9258C43.3132 44.1081 42.7982 44.1992 42.2148 44.1992C41.627 44.1992 41.1074 44.1081 40.6562 43.9258C40.2051 43.7389 39.8542 43.4769 39.6035 43.1396C39.3574 42.8024 39.2344 42.4128 39.2344 41.9707ZM40.082 45.1973H48.1758V49.1621H46.877V46.25H40.082V45.1973ZM40.4922 41.9707C40.4876 42.3444 40.6426 42.6406 40.957 42.8594C41.2715 43.0781 41.6908 43.1875 42.2148 43.1875C42.7389 43.1875 43.1605 43.0804 43.4795 42.8662C43.7985 42.6475 43.9603 42.349 43.9648 41.9707C43.9603 41.597 43.7985 41.3008 43.4795 41.082C43.1605 40.8587 42.7389 40.7448 42.2148 40.7402C41.8685 40.7402 41.5632 40.7926 41.2988 40.8975C41.0391 40.9977 40.8385 41.1413 40.6973 41.3281C40.556 41.5104 40.4876 41.7246 40.4922 41.9707ZM46.877 36.9121H48.1758V40.2344H49.9531V41.3145H48.1758V44.5684H46.877V36.9121ZM54.3965 39.2637C54.3965 39.7148 54.4899 40.1569 54.6768 40.5898C54.8682 41.0182 55.1484 41.4056 55.5176 41.752C55.8867 42.0938 56.3288 42.3626 56.8438 42.5586L56.1602 43.5566C55.6042 43.3424 55.1234 43.0394 54.7178 42.6475C54.3167 42.2555 54.0046 41.7998 53.7812 41.2803C53.5488 41.8682 53.2207 42.3923 52.7969 42.8525C52.3776 43.3083 51.8809 43.6615 51.3066 43.9121L50.5957 42.9004C51.1289 42.668 51.5869 42.3558 51.9697 41.9639C52.3525 41.5674 52.6419 41.1344 52.8379 40.665C53.0384 40.1956 53.1387 39.7285 53.1387 39.2637V37.6777H54.3965V39.2637ZM52.8516 46.9199C52.847 46.4596 53.0111 46.0632 53.3438 45.7305C53.6764 45.3932 54.1549 45.1357 54.7793 44.958C55.4036 44.7803 56.1419 44.6914 56.9941 44.6914C57.8418 44.6914 58.5778 44.7803 59.2021 44.958C59.8311 45.1357 60.3141 45.3932 60.6514 45.7305C60.9932 46.0632 61.1641 46.4596 61.1641 46.9199C61.1641 47.3802 60.9932 47.7767 60.6514 48.1094C60.3141 48.4421 59.8311 48.695 59.2021 48.8682C58.5778 49.0459 57.8418 49.1348 56.9941 49.1348C56.1419 49.1348 55.4036 49.0459 54.7793 48.8682C54.1549 48.695 53.6764 48.4421 53.3438 48.1094C53.0111 47.7767 52.847 47.3802 52.8516 46.9199ZM54.1367 46.9199C54.1322 47.1751 54.2438 47.3962 54.4717 47.583C54.6995 47.7653 55.0277 47.9043 55.4561 48C55.889 48.0957 56.4017 48.1413 56.9941 48.1367C57.582 48.1413 58.0902 48.0957 58.5186 48C58.9515 47.9043 59.2842 47.7653 59.5166 47.583C59.749 47.4007 59.8652 47.1797 59.8652 46.9199C59.8652 46.6647 59.7513 46.446 59.5234 46.2637C59.2956 46.0768 58.9697 45.9355 58.5459 45.8398C58.1221 45.7396 57.6185 45.6895 57.0352 45.6895C56.1191 45.6895 55.4059 45.7965 54.8955 46.0107C54.3851 46.2249 54.1322 46.528 54.1367 46.9199ZM57.2266 37.1445H58.4297V40.1113H59.8652V36.9258H61.0957V44.459H59.8652V41.1777H58.4297V44.0762H57.2266V37.1445Z" fill="#888888"/>
<path fill-rule="evenodd" clip-rule="evenodd" d="M85.8182 43.3182L84.4182 43.7636C83.6545 44.0182 83.0818 44.5909 82.8273 45.3545L82.3182 46.8182C82.1909 47.1364 81.8091 47.1364 81.7455 46.8182L81.3 45.4182C81.0455 44.6545 80.4727 44.0818 79.7091 43.8273L78.1818 43.3182C77.8636 43.1909 77.8636 42.8091 78.1818 42.7455L79.5818 42.3C80.3455 42.0455 80.9182 41.4727 81.1727 40.7091L81.6818 39.1818C81.8091 38.8636 82.1909 38.8636 82.2545 39.1818L82.7 40.5818C82.9545 41.3455 83.5273 41.9182 84.2909 42.1727L85.6909 42.6182C86.1364 42.8091 86.1364 43.1909 85.8182 43.3182ZM82 36C78.1182 36 75 39.1182 75 43C75 46.8818 78.1182 50 82 50C85.8818 50 89 46.8818 89 43C89 39.1182 85.8818 36 82 36Z" fill="#929292"/>
<path d="M103.076 39.4688H104.854V40.5488H103.076V43.1055H101.777V36.9121H103.076V39.4688ZM93.6426 40.0703C93.638 39.5417 93.7725 39.07 94.0459 38.6553C94.3239 38.2406 94.7067 37.917 95.1943 37.6846C95.6865 37.4521 96.2402 37.3359 96.8555 37.3359C97.4707 37.3359 98.0221 37.4521 98.5098 37.6846C98.9974 37.917 99.3779 38.2406 99.6514 38.6553C99.9294 39.0654 100.068 39.5371 100.068 40.0703C100.068 40.599 99.9294 41.0706 99.6514 41.4854C99.3779 41.9001 98.9974 42.2236 98.5098 42.4561C98.0221 42.6885 97.4707 42.8047 96.8555 42.8047C96.2448 42.8047 95.6934 42.6885 95.2012 42.4561C94.7135 42.2236 94.3307 41.9001 94.0527 41.4854C93.7747 41.0706 93.638 40.599 93.6426 40.0703ZM94.9004 40.0703C94.9004 40.3984 94.9824 40.6924 95.1465 40.9521C95.3151 41.2074 95.5475 41.4079 95.8438 41.5537C96.1445 41.695 96.4818 41.7656 96.8555 41.7656C97.2292 41.7656 97.5641 41.695 97.8604 41.5537C98.1566 41.4079 98.389 41.2074 98.5576 40.9521C98.7262 40.6924 98.8105 40.3984 98.8105 40.0703C98.8105 39.7422 98.7262 39.4528 98.5576 39.2021C98.389 38.9469 98.1566 38.751 97.8604 38.6143C97.5641 38.473 97.2292 38.4023 96.8555 38.4023C96.4818 38.4023 96.1445 38.473 95.8438 38.6143C95.5475 38.751 95.3151 38.9469 95.1465 39.2021C94.9824 39.4528 94.9004 39.7422 94.9004 40.0703ZM95.1602 43.666H103.076V46.7695H96.459V47.9727H103.5V49.0117H95.1875V45.7988H101.791V44.6777H95.1602V43.666ZM115.094 41.6562H117.062V42.75H115.094V49.1621H113.795V36.9121H115.094V41.6562ZM106.016 37.9375H107.301V41.082H110.541V37.9375H111.826V46.25H106.016V37.9375ZM110.541 45.1836V42.1074H107.301V45.1836H110.541ZM121.396 39.2637C121.396 39.7148 121.49 40.1569 121.677 40.5898C121.868 41.0182 122.148 41.4056 122.518 41.752C122.887 42.0938 123.329 42.3626 123.844 42.5586L123.16 43.5566C122.604 43.3424 122.123 43.0394 121.718 42.6475C121.317 42.2555 121.005 41.7998 120.781 41.2803C120.549 41.8682 120.221 42.3923 119.797 42.8525C119.378 43.3083 118.881 43.6615 118.307 43.9121L117.596 42.9004C118.129 42.668 118.587 42.3558 118.97 41.9639C119.353 41.5674 119.642 41.1344 119.838 40.665C120.038 40.1956 120.139 39.7285 120.139 39.2637V37.6777H121.396V39.2637ZM119.852 46.9199C119.847 46.4596 120.011 46.0632 120.344 45.7305C120.676 45.3932 121.155 45.1357 121.779 44.958C122.404 44.7803 123.142 44.6914 123.994 44.6914C124.842 44.6914 125.578 44.7803 126.202 44.958C126.831 45.1357 127.314 45.3932 127.651 45.7305C127.993 46.0632 128.164 46.4596 128.164 46.9199C128.164 47.3802 127.993 47.7767 127.651 48.1094C127.314 48.4421 126.831 48.695 126.202 48.8682C125.578 49.0459 124.842 49.1348 123.994 49.1348C123.142 49.1348 122.404 49.0459 121.779 48.8682C121.155 48.695 120.676 48.4421 120.344 48.1094C120.011 47.7767 119.847 47.3802 119.852 46.9199ZM121.137 46.9199C121.132 47.1751 121.244 47.3962 121.472 47.583C121.7 47.7653 122.028 47.9043 122.456 48C122.889 48.0957 123.402 48.1413 123.994 48.1367C124.582 48.1413 125.09 48.0957 125.519 48C125.951 47.9043 126.284 47.7653 126.517 47.583C126.749 47.4007 126.865 47.1797 126.865 46.9199C126.865 46.6647 126.751 46.446 126.523 46.2637C126.296 46.0768 125.97 45.9355 125.546 45.8398C125.122 45.7396 124.618 45.6895 124.035 45.6895C123.119 45.6895 122.406 45.7965 121.896 46.0107C121.385 46.2249 121.132 46.528 121.137 46.9199ZM124.227 37.1445H125.43V40.1113H126.865V36.9258H128.096V44.459H126.865V41.1777H125.43V44.0762H124.227V37.1445Z" fill="#888888"/>
<path fill-rule="evenodd" clip-rule="evenodd" d="M152.818 43.3182L151.418 43.7636C150.655 44.0182 150.082 44.5909 149.827 45.3545L149.318 46.8182C149.191 47.1364 148.809 47.1364 148.745 46.8182L148.3 45.4182C148.045 44.6545 147.473 44.0818 146.709 43.8273L145.182 43.3182C144.864 43.1909 144.864 42.8091 145.182 42.7455L146.582 42.3C147.345 42.0455 147.918 41.4727 148.173 40.7091L148.682 39.1818C148.809 38.8636 149.191 38.8636 149.255 39.1818L149.7 40.5818C149.955 41.3455 150.527 41.9182 151.291 42.1727L152.691 42.6182C153.136 42.8091 153.136 43.1909 152.818 43.3182ZM149 36C145.118 36 142 39.1182 142 43C142 46.8818 145.118 50 149 50C152.882 50 156 46.8818 156 43C156 39.1182 152.882 36 149 36Z" fill="#929292"/>
<path d="M171.621 44.8691H166.645V49.1484H165.373V44.8691H160.451V43.8164H171.621V44.8691ZM161.08 41.8613C161.837 41.7565 162.534 41.5492 163.172 41.2393C163.814 40.9248 164.327 40.542 164.71 40.0908C165.093 39.6396 165.291 39.168 165.305 38.6758H161.49V37.6367H170.568V38.6758H166.781C166.786 39.168 166.977 39.6396 167.355 40.0908C167.738 40.542 168.251 40.9248 168.894 41.2393C169.536 41.5492 170.24 41.7565 171.006 41.8613L170.527 42.8867C169.857 42.7819 169.226 42.6064 168.634 42.3604C168.041 42.1097 167.522 41.7998 167.075 41.4307C166.629 41.057 166.282 40.6423 166.036 40.1865C165.79 40.6423 165.444 41.057 164.997 41.4307C164.55 41.7998 164.033 42.1097 163.445 42.3604C162.857 42.6064 162.233 42.7819 161.572 42.8867L161.08 41.8613ZM183.748 45.1426H178.744V49.1621H177.473V45.1426H172.537V44.1172H183.748V45.1426ZM173.932 37.4043H175.217V39.0039H181.041V37.4043H182.34V42.7227H173.932V37.4043ZM181.041 41.6836V40.043H175.217V41.6836H181.041Z" fill="#888888"/>
<path fill-rule="evenodd" clip-rule="evenodd" d="M207.818 43.3182L206.418 43.7636C205.655 44.0182 205.082 44.5909 204.827 45.3545L204.318 46.8182C204.191 47.1364 203.809 47.1364 203.745 46.8182L203.3 45.4182C203.045 44.6545 202.473 44.0818 201.709 43.8273L200.182 43.3182C199.864 43.1909 199.864 42.8091 200.182 42.7455L201.582 42.3C202.345 42.0455 202.918 41.4727 203.173 40.7091L203.682 39.1818C203.809 38.8636 204.191 38.8636 204.255 39.1818L204.7 40.5818C204.955 41.3455 205.527 41.9182 206.291 42.1727L207.691 42.6182C208.136 42.8091 208.136 43.1909 207.818 43.3182ZM204 36C200.118 36 197 39.1182 197 43C197 46.8818 200.118 50 204 50C207.882 50 211 46.8818 211 43C211 39.1182 207.882 36 204 36Z" fill="#929292"/>
<path d="M219.99 39.1133C219.99 39.6374 220.113 40.1455 220.359 40.6377C220.61 41.1253 220.965 41.5583 221.426 41.9365C221.891 42.3102 222.433 42.5951 223.053 42.791L222.383 43.8027C221.686 43.5703 221.075 43.224 220.551 42.7637C220.031 42.3034 219.632 41.7633 219.354 41.1436C219.076 41.8135 218.671 42.3991 218.138 42.9004C217.604 43.4017 216.978 43.7799 216.258 44.0352L215.588 43.0371C216.212 42.8184 216.757 42.5085 217.222 42.1074C217.687 41.7018 218.044 41.2393 218.295 40.7197C218.55 40.2002 218.678 39.6647 218.678 39.1133V38.7715H215.93V37.7188H222.684V38.7715H219.99V39.1133ZM217.311 44.9238H225.609V49.1621H224.311V45.9766H217.311V44.9238ZM224.311 36.9121H225.609V44.3086H224.311V36.9121ZM231.83 39.168C231.826 39.6875 231.939 40.1842 232.172 40.6582C232.409 41.1276 232.748 41.5446 233.19 41.9092C233.632 42.2692 234.159 42.5449 234.77 42.7363L234.154 43.748C233.466 43.5293 232.869 43.2012 232.363 42.7637C231.862 42.3262 231.475 41.8112 231.201 41.2188C230.932 41.8978 230.534 42.4902 230.005 42.9961C229.476 43.4974 228.85 43.8757 228.125 44.1309L227.455 43.0918C228.079 42.8867 228.624 42.5859 229.089 42.1895C229.554 41.793 229.909 41.335 230.155 40.8154C230.401 40.2959 230.527 39.7513 230.531 39.1816V38.8398H227.838V37.7871H234.469V38.8398H231.83V39.168ZM229.109 46.8379C229.109 46.3639 229.273 45.9561 229.602 45.6143C229.934 45.2725 230.408 45.0127 231.023 44.835C231.643 44.6572 232.377 44.5684 233.225 44.5684C234.063 44.5684 234.785 44.6572 235.392 44.835C236.002 45.0127 236.469 45.2725 236.793 45.6143C237.121 45.9561 237.285 46.3639 237.285 46.8379C237.285 47.321 237.121 47.7334 236.793 48.0752C236.469 48.4215 236.002 48.6836 235.392 48.8613C234.785 49.0436 234.063 49.1348 233.225 49.1348C232.377 49.1348 231.643 49.0436 231.023 48.8613C230.408 48.6836 229.934 48.4215 229.602 48.0752C229.273 47.7334 229.109 47.321 229.109 46.8379ZM230.408 46.8379C230.404 47.2435 230.645 47.5579 231.133 47.7812C231.625 48 232.309 48.1094 233.184 48.1094C234.081 48.1094 234.779 48 235.275 47.7812C235.772 47.5625 236.018 47.248 236.014 46.8379C236.018 46.4414 235.779 46.1361 235.296 45.9219C234.813 45.7031 234.136 45.5938 233.266 45.5938C232.359 45.5938 231.655 45.7008 231.153 45.915C230.652 46.1292 230.404 46.4368 230.408 46.8379ZM235.877 36.9121H237.176V39.9473H238.953V41.0137H237.176V44.2676H235.877V36.9121ZM249.809 45.8262H248.51V36.9258H249.809V45.8262ZM239.896 40.7812C239.896 40.2025 240.04 39.6829 240.327 39.2227C240.614 38.7624 241.006 38.4023 241.503 38.1426C242 37.8783 242.553 37.7461 243.164 37.7461C243.775 37.7461 244.326 37.8783 244.818 38.1426C245.315 38.4023 245.705 38.7624 245.987 39.2227C246.274 39.6829 246.418 40.2025 246.418 40.7812C246.418 41.3691 246.274 41.8955 245.987 42.3604C245.705 42.8206 245.315 43.1807 244.818 43.4404C244.326 43.7002 243.775 43.8301 243.164 43.8301C242.553 43.8301 242 43.7002 241.503 43.4404C241.006 43.1807 240.614 42.8206 240.327 42.3604C240.04 41.8955 239.896 41.3691 239.896 40.7812ZM241.168 40.7812C241.168 41.1595 241.252 41.4945 241.421 41.7861C241.594 42.0732 241.833 42.2965 242.139 42.4561C242.444 42.6156 242.786 42.6953 243.164 42.6953C243.538 42.6953 243.875 42.6156 244.176 42.4561C244.477 42.2965 244.714 42.0732 244.887 41.7861C245.06 41.4945 245.146 41.1595 245.146 40.7812C245.146 40.4121 245.06 40.084 244.887 39.7969C244.714 39.5052 244.477 39.2796 244.176 39.1201C243.875 38.9606 243.538 38.8809 243.164 38.8809C242.786 38.8809 242.444 38.9606 242.139 39.1201C241.833 39.2796 241.594 39.5052 241.421 39.7969C241.252 40.084 241.168 40.4121 241.168 40.7812ZM241.797 44.9238H243.109V47.8496H250.178V48.9023H241.797V44.9238Z" fill="#888888"/>
<path d="M18.8936 11.3945H11.3311V9.48242H16.9385V7.29102H5.91699V4.5625H16.7451V2.37109H3.18848V9.48242H8.55957V11.3945H1.01855V13.5645H18.8936V11.3945ZM3.16699 20.6328H17.0459V18.4414H5.87402V14.918H3.16699V20.6328ZM28.9482 1.70508C24.4365 1.70508 21.8154 2.88672 21.8154 5.03516C21.8154 7.21582 24.4365 8.38672 28.9482 8.38672C33.4492 8.38672 36.0488 7.21582 36.0596 5.03516C36.0488 2.88672 33.4492 1.70508 28.9482 1.70508ZM20.0322 11.4805H37.8643V9.31055H20.0322V11.4805ZM22.0947 14.6172H32.9873V15.6914H22.1162V20.8477H36.21V18.7852H24.8018V17.6035H35.6943V12.6191H22.0947V14.6172ZM24.6943 5.03516C24.6836 4.16504 26.0801 3.70312 28.9482 3.70312C31.8379 3.70312 33.2236 4.16504 33.2236 5.03516C33.2236 5.99121 31.8379 6.36719 28.9482 6.36719C26.0801 6.36719 24.6836 5.99121 24.6943 5.03516ZM60.6162 1.42578H57.9092V8.32227H54.2783V2.92969H51.5928V7.67773H47.5752V2.92969H44.8467V16.3789H54.2783V10.5352H57.9092V21.0195H60.6162V1.42578ZM47.5752 14.1875V9.82617H51.5928V14.1875H47.5752ZM79.0068 6.75391H68.0713V2.11328H65.3428V8.90234H79.0068V6.75391ZM63.1084 13.1562H81.0049V11.0078H63.1084V13.1562ZM65.1709 20.5469H79.1357V18.3555H67.9209V14.7461H65.1709V20.5469ZM103.692 1.44727H100.964V6.60352H97.5049V8.83789H100.964V14.4238H103.692V1.44727ZM87.4287 11.416L88.6104 13.5645C94.5508 11.7168 97.3545 8.21484 97.3545 2.92969H88.4814V5.09961H94.4004C93.9922 7.93555 91.8652 10.1055 87.4287 11.416ZM89.4912 18.7422L90.5654 20.9121C93.6377 20.3965 95.8721 19.0107 97.0645 17.1094C98.2354 19.0107 100.448 20.3857 103.521 20.8906L104.616 18.7207C100.491 18.0869 98.4287 15.8525 98.4287 13.6289V12.9414H95.7217V13.6289C95.7002 15.8525 93.6484 18.1406 89.4912 18.7422ZM110.353 17.4102H107.302L106.228 23.5332H108.505L110.353 17.4102ZM135.103 8.83789H132.331V1.42578H129.581V20.9336H132.331V11.0723H135.103V8.83789ZM117.528 16.1641H119.226C122.104 16.1641 125.273 15.9922 128.55 15.3262L128.271 13.0488C125.445 13.6182 122.76 13.8545 120.257 13.8975V3.29492H117.528V16.1641ZM153.794 10.1914H135.897V12.2324H153.794V10.1914ZM137.938 15.0898H148.938V16.0781H137.96V20.8047H152.226V18.9355H140.688V17.8184H151.646V13.1992H137.938V15.0898ZM138.089 3.63867H148.874V4.62695H138.132V9.26758H151.968V7.41992H140.86V6.36719H151.624V1.76953H138.089V3.63867ZM167.2 5.85156V2.92969H164.45V5.85156C164.45 9.48242 162.893 13.2207 159.573 14.7461L161.271 16.959C163.483 15.8633 164.987 13.79 165.847 11.2656C166.652 13.6182 168.07 15.5518 170.165 16.5938L171.819 14.4023C168.683 12.8877 167.189 9.35352 167.2 5.85156ZM172.679 20.9766H175.429V11.2871H178.308V8.9668H175.429V1.42578H172.679V20.9766ZM194.528 1.44727H191.778V13.1562H194.528V8.25781H197.171V6.00195H194.528V1.44727ZM179.704 4.75586H186.021V6.36719H179.726V12.3828H181.38C185.344 12.3828 187.857 12.2861 190.661 11.7598L190.36 9.56836C187.868 10.0088 185.677 10.127 182.454 10.1484V8.42969H188.685V2.60742H179.704V4.75586ZM181.38 17.3027C181.38 19.6123 183.947 20.9551 188.083 20.9551C192.144 20.9551 194.711 19.6123 194.722 17.3027C194.711 14.9502 192.144 13.543 188.083 13.543C183.947 13.543 181.38 14.9502 181.38 17.3027ZM184.087 17.3027C184.065 16.2178 185.473 15.6592 188.083 15.6699C190.661 15.6592 192.015 16.2178 192.015 17.3027C192.015 18.3662 190.661 18.9141 188.083 18.9141C185.473 18.9141 184.065 18.3662 184.087 17.3027ZM213.456 1.42578H210.749V20.9766H213.456V11.3301H216.335V9.07422H213.456V1.42578ZM197.923 6.53906H209.417V4.34766H205.099V1.72656H202.349V4.34766H197.923V6.53906ZM198.718 12.2969C198.707 15.0254 200.834 16.9482 203.724 16.959C206.57 16.9482 208.708 15.0254 208.708 12.2969C208.708 9.56836 206.57 7.62402 203.724 7.63477C200.834 7.62402 198.707 9.56836 198.718 12.2969ZM201.339 12.2969C201.339 10.793 202.338 9.86914 203.724 9.84766C205.088 9.86914 206.087 10.793 206.087 12.2969C206.087 13.8115 205.088 14.7139 203.724 14.7031C202.338 14.7139 201.339 13.8115 201.339 12.2969ZM232.921 6.75391H221.985V2.11328H219.257V8.90234H232.921V6.75391ZM217.022 13.1562H234.919V11.0078H217.022V13.1562ZM219.085 20.5469H233.05V18.3555H221.835V14.7461H219.085V20.5469ZM244.716 2.41406H241.966V11.5664H251.269V8.12891H254.878V12.125H257.606V1.42578H254.878V5.89453H251.269V2.41406H248.562V4.92773H244.716V2.41406ZM244.565 20.7188H257.606V12.9414H254.878V14.7461H247.272V12.9414H244.565V20.7188ZM244.716 9.375V7.0332H248.562V9.375H244.716ZM247.272 18.5273V16.8516H254.878V18.5273H247.272Z" fill="#222222"/>
</svg>
