<svg width="375" height="227" viewBox="0 0 375 227" fill="none" xmlns="http://www.w3.org/2000/svg">
<g clip-path="url(#clip0_1723_4342)">
<path d="M13.5 222.5H356.141L13.5 163.593V222.5Z" fill="#FFC786" stroke="black" stroke-miterlimit="10"/>
<circle r="92.5" transform="matrix(-1 0 0 1 190.071 119)" fill="#FFEED3" stroke="black"/>
<path d="M220.187 123.5C220.187 125.948 218.854 128.331 217.126 130.189C216.267 131.113 215.324 131.891 214.431 132.466C213.551 133.033 212.748 133.383 212.14 133.5C211.519 133.506 210.937 133.629 210.336 133.756C210.232 133.779 210.126 133.801 210.02 133.823C209.277 133.975 208.414 134.125 207.225 134.125C204.868 134.125 201.176 133.536 194.605 131.121C194.676 131.077 194.77 131.028 194.892 130.973C195.158 130.854 195.497 130.731 195.907 130.583C195.947 130.568 195.988 130.553 196.03 130.538C196.486 130.372 197.006 130.181 197.541 129.945C198.608 129.476 199.771 128.818 200.668 127.794C201.575 126.757 202.187 125.371 202.187 123.5C202.187 118.529 206.217 114.5 211.187 114.5C216.158 114.5 220.187 118.529 220.187 123.5Z" fill="#FF6B00" stroke="black"/>
<path d="M162.408 198.202C153.819 181.481 135.011 183.681 128.227 190.502C119.862 198.914 119.77 213.338 128.893 222.4L190 222.4L187.353 192.192C177.314 192.192 169.762 193.249 162.41 198.202H162.408Z" fill="#FFA724" stroke="black" stroke-miterlimit="10"/>
<path d="M189.072 198L178.366 116H163.072L163.072 197.849C163.072 197.849 177.228 198 189.072 198Z" fill="#FFB660" stroke="black" stroke-miterlimit="10"/>
<path fill-rule="evenodd" clip-rule="evenodd" d="M65.1796 163.553C62.1365 156.478 58.9566 147.598 59.2847 141.994C59.5806 136.94 61.6713 129.901 63.9284 122.302C67.6013 109.935 71.7147 96.0861 69.2515 86.8943C66.6091 92.5114 63.8151 97.6685 62.3996 100.281C61.8869 101.227 61.5551 101.84 61.4769 102.019C58.2383 109.453 53.9539 126.764 57.8658 144.087C59.6321 151.909 62.0498 158.163 65.1796 163.553ZM71.1352 171.938C76.13 177.809 82.3192 182.928 89.8261 188.72C99.7618 196.386 109.77 198.2 120.822 200.203C129.117 201.706 137.999 203.316 147.879 207.587C148.704 207.944 150.149 208.754 151.982 209.78C157.487 212.864 166.487 217.906 172.67 218.511L182.758 220.299C187.284 220.93 191.652 221.346 195.237 221.618L204 222.103C204 222.103 131.938 225.322 121.029 219.118C114.83 215.593 106.481 208.514 97.8304 201.18C87.0013 191.998 75.6991 182.416 67.5487 178.901C66.7693 178.565 66.0478 178.245 65.3633 177.942C61.9613 176.436 59.4737 175.335 55.3409 174.602C54.1117 174.384 52.9995 174.262 51.9493 174.146C49.0204 173.823 46.5736 173.553 43.4155 171.422C40.0754 169.167 38.9337 164.862 40.5008 160.762C41.6409 157.779 43.3701 155.269 46.2586 155.376C48.8275 155.472 51.2053 159.99 51.2053 159.99C51.2053 159.99 46.6652 148.11 43.6189 143.164C36.1939 131.108 25.6878 122.37 25.6878 122.37C25.6878 122.37 11.5672 112.724 9.16812 107.165C6.59398 101.199 6.45782 95.4853 11.0797 90.9544C14.4719 87.6289 18.3767 87.3559 22.4334 89.2292C25.572 90.6786 28.4104 96.1605 28.4104 96.1605C28.4104 96.1605 25.3583 80.047 25.9184 69.5607C25.9638 68.7107 26.0041 67.8921 26.0432 67.0995C26.4088 59.6872 26.6621 54.551 29.8619 47.3043C33.7474 38.5048 36.8796 32.0517 45.1735 28.6637C53.7891 25.1442 62.0781 25.385 69.2005 31.3195C76.9821 37.8031 78.2686 45.2045 77.373 58.3919C77.1924 61.051 76.6772 64.0609 76.1808 66.5083C76.4734 66.4971 76.6491 66.4834 76.6491 66.4834C76.6491 66.4834 83.3309 58.1844 85.724 53.8919C91.5569 43.429 94.0598 32.1341 94.0598 32.1341C94.0598 32.1341 95.9738 17.8385 99.0086 13.7559C102.265 9.37542 106.168 6.86656 110.855 8.30288C114.295 9.35707 115.797 12.07 115.868 15.7982C115.923 18.6828 113.089 23.0508 113.089 23.0508C113.089 23.0508 123.198 14.0436 130.634 10.0261C131.236 9.70048 131.816 9.38442 132.376 9.07841C137.622 6.21668 141.257 4.23368 147.342 3.49457C154.731 2.5971 160.245 2.14367 165.377 6.72155C170.709 11.477 173.332 17.582 171.628 25.2437C169.766 33.6144 165.084 37.6681 155.669 42.5818C151.62 44.6952 145.955 46.3793 145.955 46.3793C139.123 48.8188 126.146 49.2557 121.681 49.406C120.854 49.4339 120.319 49.4519 120.169 49.4709C113.941 50.2609 100.536 54.4595 89.8809 64.5996C77.9624 75.9419 76.1282 86.4488 73.6355 100.728C73.2843 102.739 72.9201 104.826 72.5127 107C70.2585 119.032 71.2593 127.539 72.4047 137.276C72.9974 142.314 73.6288 147.682 73.8678 154.038C74.0814 159.715 72.2102 167.813 71.1352 171.938Z" fill="#FF6B00"/>
<path d="M59.2847 141.994L59.7838 142.024L59.2847 141.994ZM65.1796 163.553L64.7473 163.804L65.639 163.355L65.1796 163.553ZM63.9284 122.302L64.4077 122.444L63.9284 122.302ZM69.2515 86.8943L69.7345 86.7649L69.3808 85.445L68.7991 86.6815L69.2515 86.8943ZM62.3996 100.281L61.96 100.043L62.3996 100.281ZM61.4769 102.019L61.9352 102.219L61.4769 102.019ZM57.8658 144.087L57.3781 144.197L57.8658 144.087ZM89.8261 188.72L89.5206 189.116H89.5207L89.8261 188.72ZM71.1352 171.938L70.6514 171.812L70.5858 172.064L70.7544 172.262L71.1352 171.938ZM120.822 200.203L120.911 199.711L120.822 200.203ZM147.879 207.587L148.077 207.128L147.879 207.587ZM151.982 209.78L151.738 210.217L151.982 209.78ZM172.67 218.511L172.757 218.019L172.738 218.016L172.718 218.014L172.67 218.511ZM182.758 220.299L182.671 220.791L182.68 220.793L182.689 220.794L182.758 220.299ZM195.237 221.618L195.199 222.117L195.209 222.117L195.237 221.618ZM204 222.103L204.022 222.603L204.028 221.604L204 222.103ZM121.029 219.118L121.276 218.683L121.029 219.118ZM97.8304 201.18L98.1537 200.799L97.8304 201.18ZM67.5487 178.901L67.3507 179.36L67.5487 178.901ZM65.3633 177.942L65.5657 177.485H65.5657L65.3633 177.942ZM55.3409 174.602L55.2537 175.095H55.2537L55.3409 174.602ZM51.9493 174.146L52.0041 173.649H52.0041L51.9493 174.146ZM43.4155 171.422L43.1358 171.836H43.1358L43.4155 171.422ZM40.5008 160.762L40.9678 160.941L40.5008 160.762ZM46.2586 155.376L46.2771 154.877L46.2586 155.376ZM51.2053 159.99L50.7628 160.223L51.6723 159.811L51.2053 159.99ZM43.6189 143.164L43.1932 143.426L43.6189 143.164ZM25.6878 122.37L26.0075 121.986L25.9893 121.971L25.9698 121.957L25.6878 122.37ZM9.16812 107.165L8.70904 107.363H8.70904L9.16812 107.165ZM11.0797 90.9544L11.4297 91.3114H11.4297L11.0797 90.9544ZM22.4334 89.2292L22.2237 89.6831L22.2237 89.6831L22.4334 89.2292ZM28.4104 96.1605L27.9664 96.3904L28.9017 96.0674L28.4104 96.1605ZM25.9184 69.5607L25.4191 69.534L25.9184 69.5607ZM26.0432 67.0995L25.5438 67.0749L26.0432 67.0995ZM29.8619 47.3043L29.4045 47.1023L29.8619 47.3043ZM45.1735 28.6637L45.3625 29.1266L45.1735 28.6637ZM69.2005 31.3195L68.8805 31.7036L69.2005 31.3195ZM77.373 58.3919L76.8741 58.358L77.373 58.3919ZM76.1808 66.5083L75.6908 66.4089L75.5644 67.0321L76.1999 67.0079L76.1808 66.5083ZM76.6491 66.4834L76.688 66.9819L76.9032 66.9651L77.0386 66.797L76.6491 66.4834ZM85.724 53.8919L85.2873 53.6484L85.724 53.8919ZM94.0598 32.1341L94.548 32.2423L94.5526 32.2215L94.5554 32.2005L94.0598 32.1341ZM99.0086 13.7559L98.6073 13.4576V13.4576L99.0086 13.7559ZM110.855 8.30288L111.001 7.82483L110.855 8.30288ZM115.868 15.7982L115.368 15.8077V15.8077L115.868 15.7982ZM113.089 23.0508L112.67 22.7787L113.422 23.4241L113.089 23.0508ZM130.634 10.0261L130.871 10.466V10.466L130.634 10.0261ZM132.376 9.07841L132.137 8.63948L132.137 8.63948L132.376 9.07841ZM147.342 3.49457L147.402 3.99093L147.342 3.49457ZM165.377 6.72155L165.71 6.34841L165.377 6.72155ZM171.628 25.2437L172.116 25.3523L171.628 25.2437ZM155.669 42.5818L155.9 43.0251V43.0251L155.669 42.5818ZM145.955 46.3793L145.812 45.9L145.799 45.9038L145.787 45.9084L145.955 46.3793ZM121.681 49.406L121.697 49.9057L121.681 49.406ZM120.169 49.4709L120.232 49.967L120.169 49.4709ZM89.8809 64.5996L90.2256 64.9618L89.8809 64.5996ZM73.6355 100.728L73.1429 100.642L73.6355 100.728ZM72.5127 107L72.0213 106.908V106.908L72.5127 107ZM72.4047 137.276L71.9081 137.334L72.4047 137.276ZM73.8678 154.038L73.3682 154.056V154.056L73.8678 154.038ZM58.7855 141.965C58.6162 144.857 59.3503 148.546 60.4888 152.365C61.6308 156.195 63.1946 160.204 64.7203 163.751L65.639 163.355C64.1216 159.828 62.5739 155.859 61.4471 152.079C60.3169 148.288 59.625 144.736 59.7838 142.024L58.7855 141.965ZM63.4491 122.159C61.1995 129.734 59.0857 136.839 58.7855 141.965L59.7838 142.024C60.0755 137.041 62.1432 130.068 64.4077 122.444L63.4491 122.159ZM68.7686 87.0238C69.97 91.5071 69.5758 97.1756 68.3999 103.314C67.2259 109.442 65.2871 115.971 63.4491 122.159L64.4077 122.444C66.2426 116.266 68.197 109.688 69.3821 103.502C70.5653 97.3254 70.9962 91.4734 69.7345 86.7649L68.7686 87.0238ZM62.8393 100.519C64.2548 97.9065 67.0549 92.7384 69.704 87.1072L68.7991 86.6815C66.1633 92.2845 63.3754 97.4305 61.96 100.043L62.8393 100.519ZM61.9352 102.219C62.0022 102.066 62.3168 101.484 62.8393 100.519L61.96 100.043C61.457 100.971 61.108 101.614 61.0185 101.82L61.9352 102.219ZM58.3535 143.977C54.4705 126.782 58.728 109.581 61.9352 102.219L61.0185 101.82C57.7486 109.325 53.4372 126.746 57.3781 144.197L58.3535 143.977ZM65.612 163.302C62.5117 157.963 60.1106 151.758 58.3535 143.977L57.3781 144.197C59.1537 152.06 61.5879 158.363 64.7473 163.804L65.612 163.302ZM90.1315 188.324C82.6271 182.534 76.4743 177.442 71.516 171.614L70.7544 172.262C75.7857 178.176 82.0112 183.322 89.5206 189.116L90.1315 188.324ZM120.911 199.711C109.853 197.707 99.9593 195.907 90.1315 188.324L89.5207 189.116C99.5643 196.865 109.688 198.693 120.732 200.695L120.911 199.711ZM148.077 207.128C138.139 202.832 129.205 201.214 120.911 199.711L120.732 200.695C129.029 202.199 137.859 203.8 147.681 208.046L148.077 207.128ZM152.226 209.344C150.408 208.325 148.932 207.498 148.077 207.128L147.681 208.046C148.475 208.39 149.891 209.182 151.738 210.217L152.226 209.344ZM172.718 218.014C169.716 217.72 165.984 216.339 162.282 214.622C158.591 212.909 154.981 210.887 152.226 209.344L151.738 210.217C154.488 211.757 158.13 213.798 161.861 215.529C165.581 217.254 169.441 218.697 172.621 219.009L172.718 218.014ZM182.845 219.807L172.757 218.019L172.582 219.004L182.671 220.791L182.845 219.807ZM195.275 221.119C191.697 220.848 187.34 220.432 182.827 219.804L182.689 220.794C187.228 221.427 191.607 221.844 195.199 222.116L195.275 221.119ZM204.028 221.604L195.265 221.119L195.209 222.117L203.972 222.602L204.028 221.604ZM120.782 219.553C122.228 220.375 124.624 221.014 127.643 221.521C130.68 222.03 134.408 222.415 138.561 222.701C146.868 223.272 156.912 223.452 166.606 223.437C176.302 223.422 185.656 223.214 192.585 223.009C196.049 222.907 198.908 222.805 200.901 222.729C201.898 222.691 202.678 222.66 203.209 222.637C203.474 222.626 203.678 222.618 203.814 222.612C203.883 222.609 203.935 222.607 203.97 222.605C203.987 222.604 204 222.604 204.009 222.603C204.013 222.603 204.017 222.603 204.019 222.603C204.02 222.603 204.021 222.603 204.021 222.603C204.022 222.603 204.022 222.603 204 222.103C203.978 221.604 203.977 221.604 203.977 221.604C203.976 221.604 203.976 221.604 203.974 221.604C203.972 221.604 203.969 221.604 203.965 221.604C203.956 221.605 203.943 221.605 203.926 221.606C203.891 221.608 203.84 221.61 203.771 221.613C203.635 221.619 203.432 221.627 203.167 221.638C202.637 221.66 201.858 221.692 200.863 221.73C198.873 221.806 196.017 221.907 192.555 222.009C185.632 222.214 176.288 222.422 166.605 222.437C156.92 222.452 146.903 222.272 138.63 221.703C134.493 221.418 130.801 221.036 127.809 220.534C124.799 220.029 122.557 219.412 121.276 218.683L120.782 219.553ZM97.507 201.561C106.141 208.881 114.532 215.999 120.782 219.553L121.276 218.683C115.128 215.187 106.821 208.147 98.1537 200.799L97.507 201.561ZM67.3507 179.36C71.3659 181.091 76.1882 184.334 81.3809 188.312C86.5672 192.286 92.0902 196.969 97.507 201.561L98.1537 200.799C92.7414 196.21 87.1988 191.51 81.9891 187.518C76.7858 183.532 71.8819 180.225 67.7467 178.442L67.3507 179.36ZM65.1609 178.399C65.8452 178.702 66.5688 179.023 67.3507 179.36L67.7467 178.442C66.9698 178.107 66.2504 177.788 65.5657 177.485L65.1609 178.399ZM55.2537 175.095C59.3225 175.816 61.763 176.895 65.1609 178.399L65.5657 177.485C62.1597 175.977 59.6248 174.854 55.4282 174.11L55.2537 175.095ZM51.8945 174.643C52.9458 174.759 54.0428 174.88 55.2537 175.095L55.4282 174.11C54.1807 173.889 53.0532 173.765 52.0041 173.649L51.8945 174.643ZM43.1358 171.836C46.4012 174.04 48.9535 174.318 51.8945 174.643L52.0041 173.649C49.0873 173.327 46.7459 173.066 43.6952 171.007L43.1358 171.836ZM40.0337 160.584C38.3965 164.867 39.5746 169.433 43.1358 171.836L43.6952 171.007C40.5762 168.902 39.4709 164.857 40.9678 160.941L40.0337 160.584ZM46.2771 154.877C44.6615 154.817 43.375 155.497 42.3612 156.566C41.3598 157.622 40.6138 159.066 40.0337 160.584L40.9678 160.941C41.5278 159.476 42.2165 158.172 43.0869 157.254C43.9448 156.35 44.9672 155.829 46.24 155.876L46.2771 154.877ZM51.2053 159.99C51.6477 159.757 51.6477 159.757 51.6476 159.757C51.6476 159.756 51.6475 159.756 51.6474 159.756C51.6473 159.756 51.6471 159.756 51.6469 159.755C51.6465 159.754 51.6459 159.753 51.6452 159.752C51.6438 159.749 51.6418 159.746 51.6392 159.741C51.634 159.731 51.6266 159.717 51.617 159.7C51.5977 159.664 51.5696 159.613 51.5332 159.549C51.4604 159.42 51.3542 159.238 51.2188 159.019C50.9486 158.583 50.5594 157.997 50.0853 157.406C49.613 156.817 49.045 156.208 48.4148 155.737C47.7884 155.269 47.0608 154.906 46.2771 154.877L46.24 155.876C46.7408 155.895 47.2737 156.132 47.8158 156.538C48.3538 156.94 48.862 157.479 49.3052 158.032C49.7467 158.582 50.1125 159.132 50.3684 159.545C50.4961 159.752 50.5957 159.923 50.663 160.042C50.6966 160.101 50.7221 160.147 50.7389 160.178C50.7473 160.194 50.7535 160.205 50.7576 160.213C50.7596 160.216 50.761 160.219 50.7619 160.221C50.7623 160.222 50.7626 160.222 50.7628 160.222C50.7629 160.223 50.7629 160.223 50.7629 160.223C50.7629 160.223 50.7629 160.223 50.7629 160.223C50.7629 160.223 50.7628 160.223 51.2053 159.99ZM43.1932 143.426C44.6936 145.862 46.5768 150.035 48.0939 153.626C48.85 155.416 49.5113 157.052 49.9836 158.241C50.2197 158.835 50.4085 159.317 50.5382 159.651C50.6031 159.818 50.6532 159.947 50.687 160.035C50.7039 160.079 50.7167 160.112 50.7253 160.135C50.7296 160.146 50.7329 160.154 50.735 160.16C50.7361 160.163 50.7369 160.165 50.7374 160.166C50.7377 160.167 50.7379 160.167 50.738 160.168C50.7381 160.168 50.7382 160.168 50.7382 160.168C50.7382 160.168 50.7382 160.168 51.2053 159.99C51.6723 159.811 51.6723 159.811 51.6723 159.811C51.6722 159.811 51.6722 159.811 51.6721 159.811C51.6719 159.81 51.6717 159.81 51.6714 159.809C51.6709 159.807 51.67 159.805 51.6689 159.802C51.6667 159.796 51.6633 159.788 51.659 159.776C51.6502 159.753 51.6372 159.72 51.6201 159.675C51.5859 159.587 51.5355 159.456 51.4702 159.288C51.3398 158.953 51.1501 158.468 50.9129 157.872C50.4388 156.678 49.7747 155.035 49.015 153.237C47.5005 149.652 45.5905 145.412 44.0447 142.902L43.1932 143.426ZM25.6878 122.37C25.3681 122.755 25.368 122.755 25.3681 122.755C25.3681 122.755 25.3682 122.755 25.3683 122.755C25.3685 122.755 25.3689 122.755 25.3695 122.756C25.3706 122.757 25.3723 122.758 25.3747 122.76C25.3794 122.764 25.3867 122.77 25.3964 122.778C25.4158 122.795 25.4451 122.819 25.4838 122.852C25.5611 122.918 25.6762 123.016 25.8256 123.146C26.1244 123.406 26.5607 123.792 27.1078 124.293C28.2023 125.294 29.7399 126.756 31.5088 128.593C35.0487 132.269 39.5058 137.439 43.1932 143.426L44.0447 142.902C40.3071 136.833 35.7986 131.606 32.2291 127.899C30.4434 126.045 28.8904 124.568 27.7829 123.555C27.2291 123.048 26.7866 122.657 26.4818 122.392C26.3295 122.259 26.2116 122.158 26.1314 122.09C26.0913 122.056 26.0607 122.03 26.0399 122.013C26.0295 122.004 26.0216 121.997 26.0161 121.993C26.0134 121.991 26.0114 121.989 26.0099 121.988C26.0092 121.987 26.0086 121.987 26.0082 121.986C26.008 121.986 26.0078 121.986 26.0077 121.986C26.0076 121.986 26.0075 121.986 25.6878 122.37ZM8.70904 107.363C9.34791 108.843 10.7374 110.544 12.4052 112.237C14.0846 113.941 16.0902 115.681 18.0126 117.241C19.9363 118.801 21.7837 120.186 23.1496 121.18C23.8328 121.678 24.3961 122.078 24.7889 122.354C24.9853 122.492 25.1391 122.599 25.244 122.672C25.2965 122.708 25.3367 122.736 25.3639 122.754C25.3775 122.764 25.3879 122.771 25.3949 122.776C25.3984 122.778 25.4011 122.78 25.4029 122.781C25.4038 122.782 25.4045 122.782 25.405 122.782C25.4052 122.783 25.4054 122.783 25.4055 122.783C25.4057 122.783 25.4057 122.783 25.6878 122.37C25.9698 121.957 25.9698 121.957 25.9697 121.957C25.9696 121.957 25.9695 121.957 25.9693 121.957C25.9689 121.957 25.9684 121.956 25.9675 121.956C25.9659 121.955 25.9635 121.953 25.9602 121.951C25.9536 121.946 25.9437 121.939 25.9305 121.93C25.9041 121.912 25.8648 121.885 25.8132 121.849C25.7101 121.778 25.5582 121.672 25.3638 121.536C24.975 121.262 24.4164 120.866 23.7383 120.372C22.3816 119.384 20.5489 118.01 18.6426 116.464C16.7349 114.917 14.7606 113.203 13.1176 111.535C11.4631 109.856 10.1879 108.266 9.6272 106.967L8.70904 107.363ZM10.7297 90.5973C8.33408 92.9458 7.15883 95.619 6.92704 98.4813C6.69633 101.33 7.4023 104.335 8.70904 107.363L9.6272 106.967C8.3598 104.03 7.71063 101.194 7.92378 98.562C8.13585 95.9432 9.20346 93.4939 11.4297 91.3114L10.7297 90.5973ZM22.643 88.7752C20.5519 87.8096 18.4657 87.3815 16.4424 87.6465C14.4139 87.9121 12.4928 88.8689 10.7297 90.5973L11.4297 91.3114C13.0588 89.7144 14.7862 88.8719 16.5723 88.638C18.3636 88.4034 20.2581 88.7754 22.2237 89.6831L22.643 88.7752ZM28.4104 96.1605C28.8544 95.9306 28.8544 95.9305 28.8543 95.9304C28.8543 95.9303 28.8542 95.9302 28.8541 95.93C28.854 95.9298 28.8538 95.9294 28.8536 95.929C28.8531 95.9281 28.8525 95.9269 28.8517 95.9254C28.8501 95.9224 28.8479 95.918 28.8449 95.9124C28.839 95.9011 28.8304 95.8848 28.8192 95.8637C28.7967 95.8214 28.7637 95.76 28.7207 95.6817C28.6349 95.5252 28.5093 95.3011 28.349 95.0281C28.0286 94.4826 27.5679 93.7394 27.0065 92.9489C25.9013 91.3925 24.3422 89.5599 22.643 88.7752L22.2237 89.6831C23.6632 90.3478 25.0926 91.9809 26.1912 93.5279C26.7318 94.289 27.1768 95.0068 27.4867 95.5345C27.6415 95.7981 27.7622 96.0136 27.8439 96.1625C27.8847 96.2369 27.9157 96.2947 27.9364 96.3335C27.9467 96.3528 27.9544 96.3675 27.9594 96.3771C27.9619 96.3819 27.9638 96.3854 27.9649 96.3876C27.9655 96.3887 27.9659 96.3895 27.9662 96.39C27.9663 96.3902 27.9664 96.3904 27.9664 96.3904C27.9664 96.3905 27.9664 96.3905 27.9664 96.3905C27.9664 96.3904 27.9664 96.3904 28.4104 96.1605ZM25.4191 69.534C25.1365 74.825 25.7648 81.5125 26.4585 86.8573C26.806 89.534 27.1709 91.8818 27.449 93.5606C27.5881 94.4001 27.7055 95.0726 27.7881 95.5356C27.8295 95.767 27.8622 95.9461 27.8845 96.0676C27.8957 96.1283 27.9043 96.1746 27.9102 96.2058C27.9131 96.2214 27.9153 96.2332 27.9168 96.2412C27.9176 96.2452 27.9181 96.2483 27.9185 96.2503C27.9187 96.2513 27.9189 96.2521 27.919 96.2527C27.919 96.2529 27.9191 96.2532 27.9191 96.2533C27.9191 96.2534 27.9191 96.2535 28.4104 96.1605C28.9017 96.0674 28.9017 96.0674 28.9016 96.0673C28.9016 96.0672 28.9016 96.0671 28.9016 96.0668C28.9015 96.0664 28.9013 96.0657 28.9012 96.0648C28.9008 96.0629 28.9003 96.0601 28.8996 96.0563C28.8981 96.0487 28.896 96.0373 28.8932 96.0221C28.8875 95.9917 28.879 95.9462 28.868 95.8864C28.8459 95.7666 28.8136 95.5893 28.7726 95.3597C28.6905 94.9005 28.5739 94.2322 28.4355 93.3972C28.1589 91.7271 27.7958 89.3911 27.4502 86.7286C26.7579 81.3951 26.1402 74.7827 26.4176 69.5874L25.4191 69.534ZM25.5438 67.0749C25.5047 67.8676 25.4644 68.6852 25.4191 69.534L26.4176 69.5874C26.4631 68.7362 26.5035 67.9166 26.5426 67.1241L25.5438 67.0749ZM29.4045 47.1023C26.1643 54.4405 25.9096 59.6583 25.5438 67.0749L26.5426 67.1241C26.9079 59.7161 27.1598 54.6615 30.3193 47.5063L29.4045 47.1023ZM44.9844 28.2008C36.4835 31.6734 33.2846 38.3151 29.4045 47.1023L30.3193 47.5063C34.2102 38.6946 37.2756 32.43 45.3625 29.1266L44.9844 28.2008ZM69.5206 30.9353C62.2199 24.8523 53.7227 24.6312 44.9844 28.2008L45.3625 29.1266C53.8555 25.6572 61.9364 25.9177 68.8805 31.7036L69.5206 30.9353ZM77.8718 58.4258C78.3204 51.8203 78.2285 46.6033 77.0229 42.2095C75.8111 37.7929 73.4826 34.2364 69.5206 30.9353L68.8805 31.7036C72.7001 34.8861 74.9056 38.2722 76.0585 42.4741C77.2177 46.6987 77.3211 51.7761 76.8741 58.358L77.8718 58.4258ZM76.6708 66.6077C77.1688 64.1523 77.689 61.1174 77.8718 58.4258L76.8741 58.358C76.6958 60.9846 76.1856 63.9695 75.6908 66.4089L76.6708 66.6077ZM76.6491 66.4834C76.6102 65.9849 76.6102 65.9849 76.6102 65.9849C76.6102 65.9849 76.6103 65.9849 76.6103 65.9849C76.6103 65.9849 76.6103 65.9849 76.6103 65.9849C76.6103 65.9849 76.6103 65.9849 76.6103 65.9849C76.6103 65.9849 76.6103 65.9849 76.6102 65.9849C76.61 65.9849 76.6097 65.985 76.6092 65.985C76.6082 65.9851 76.6065 65.9852 76.6042 65.9854C76.5995 65.9857 76.5923 65.9862 76.5825 65.9869C76.5629 65.9883 76.5334 65.9902 76.4948 65.9926C76.4175 65.9972 76.3041 66.0032 76.1618 66.0086L76.1999 67.0079C76.3501 67.0022 76.4708 66.9958 76.5546 66.9908C76.5965 66.9883 76.6291 66.9861 76.6517 66.9845C76.6629 66.9837 76.6717 66.9831 76.6778 66.9827C76.6808 66.9824 76.6832 66.9823 76.6849 66.9821C76.6858 66.9821 76.6865 66.982 76.687 66.982C76.6872 66.982 76.6874 66.9819 76.6876 66.9819C76.6877 66.9819 76.6878 66.9819 76.6878 66.9819C76.6879 66.9819 76.6879 66.9819 76.6879 66.9819C76.688 66.9819 76.688 66.9819 76.688 66.9819C76.688 66.9819 76.688 66.9819 76.6491 66.4834ZM85.2873 53.6484C84.1098 55.7605 81.8612 58.8828 79.89 61.4963C78.9076 62.7986 77.9997 63.9675 77.3373 64.8108C77.0062 65.2323 76.7365 65.5724 76.5498 65.807C76.4564 65.9242 76.3837 66.0151 76.3345 66.0766C76.3099 66.1073 76.2911 66.1307 76.2785 66.1464C76.2722 66.1542 76.2675 66.1601 76.2643 66.1641C76.2627 66.166 76.2616 66.1675 76.2608 66.1684C76.2604 66.1689 76.2601 66.1693 76.2599 66.1695C76.2598 66.1696 76.2598 66.1697 76.2597 66.1698C76.2597 66.1698 76.2597 66.1698 76.6491 66.4834C77.0386 66.797 77.0386 66.7969 77.0387 66.7969C77.0387 66.7968 77.0388 66.7967 77.0389 66.7965C77.0391 66.7963 77.0395 66.7959 77.0399 66.7953C77.0407 66.7943 77.042 66.7927 77.0436 66.7907C77.0469 66.7866 77.0518 66.7806 77.0582 66.7726C77.071 66.7566 77.0901 66.7328 77.115 66.7017C77.1648 66.6396 77.238 66.5479 77.332 66.4299C77.52 66.1938 77.7911 65.852 78.1237 65.4285C78.789 64.5816 79.7011 63.4074 80.6883 62.0984C82.6563 59.4893 84.9451 56.3158 86.1607 54.1353L85.2873 53.6484ZM94.0598 32.1341C93.5717 32.026 93.5717 32.0259 93.5717 32.0259C93.5717 32.026 93.5717 32.0261 93.5716 32.0262C93.5716 32.0264 93.5715 32.0269 93.5714 32.0274C93.5711 32.0286 93.5707 32.0305 93.5701 32.033C93.569 32.0381 93.5672 32.0459 93.5648 32.0564C93.5601 32.0773 93.5529 32.1088 93.5432 32.1507C93.5238 32.2344 93.4945 32.3591 93.455 32.5221C93.376 32.848 93.2563 33.3264 93.0945 33.9337C92.7707 35.1484 92.2782 36.8781 91.6042 38.9336C90.2552 43.0471 88.1829 48.4543 85.2873 53.6484L86.1607 54.1353C89.098 48.8666 91.1936 43.3949 92.5544 39.2452C93.2352 37.1692 93.7329 35.4212 94.0608 34.1912C94.2247 33.5761 94.3462 33.0904 94.4268 32.7577C94.4671 32.5913 94.4973 32.4633 94.5174 32.3764C94.5275 32.3329 94.535 32.2998 94.5401 32.2773C94.5427 32.2661 94.5446 32.2575 94.5459 32.2517C94.5466 32.2487 94.5471 32.2465 94.5474 32.2449C94.5476 32.2442 94.5477 32.2435 94.5478 32.2431C94.5479 32.2429 94.5479 32.2427 94.5479 32.2426C94.548 32.2424 94.548 32.2423 94.0598 32.1341ZM98.6073 13.4576C97.7957 14.5494 97.087 16.2769 96.4784 18.1989C95.8652 20.1352 95.3375 22.3227 94.9069 24.3732C94.4759 26.4251 94.1404 28.3477 93.9127 29.7569C93.7988 30.4617 93.7118 31.0386 93.6533 31.4396C93.624 31.6402 93.6018 31.7968 93.5869 31.9034C93.5794 31.9568 93.5738 31.9976 93.57 32.0253C93.5681 32.0391 93.5667 32.0496 93.5658 32.0567C93.5653 32.0603 93.5649 32.063 93.5647 32.0648C93.5645 32.0658 93.5644 32.0665 93.5644 32.067C93.5643 32.0672 93.5643 32.0674 93.5643 32.0675C93.5643 32.0677 93.5643 32.0678 94.0598 32.1341C94.5554 32.2005 94.5554 32.2005 94.5554 32.2004C94.5554 32.2003 94.5555 32.2002 94.5555 32.2C94.5555 32.1996 94.5556 32.199 94.5557 32.1982C94.5559 32.1966 94.5563 32.1941 94.5567 32.1908C94.5576 32.1841 94.559 32.1741 94.5608 32.1607C94.5645 32.134 94.57 32.0941 94.5773 32.0417C94.5919 31.937 94.6138 31.7825 94.6428 31.5842C94.7007 31.1875 94.7869 30.6156 94.8999 29.9164C95.1259 28.5175 95.4586 26.6111 95.8855 24.5788C96.3127 22.545 96.8325 20.3931 97.4317 18.5008C98.0355 16.5942 98.7041 15.0037 99.4098 14.0542L98.6073 13.4576ZM111.001 7.82483C106.007 6.29443 101.909 9.01642 98.6073 13.4576L99.4098 14.0542C102.621 9.73443 106.328 7.4387 110.708 8.78094L111.001 7.82483ZM116.368 15.7888C116.331 13.8635 115.925 12.155 115.046 10.7788C114.162 9.39367 112.824 8.38349 111.001 7.82483L110.708 8.78094C112.325 9.27646 113.458 10.1498 114.203 11.3168C114.954 12.4927 115.334 14.0047 115.368 15.8077L116.368 15.7888ZM113.089 23.0508C113.509 23.3229 113.509 23.3228 113.509 23.3227C113.509 23.3227 113.509 23.3226 113.509 23.3225C113.509 23.3222 113.509 23.3219 113.51 23.3216C113.51 23.3209 113.511 23.3199 113.512 23.3187C113.513 23.3162 113.515 23.3127 113.518 23.3082C113.524 23.2991 113.533 23.286 113.543 23.2689C113.565 23.2347 113.596 23.1847 113.636 23.1205C113.716 22.9921 113.828 22.8064 113.963 22.5749C114.233 22.1123 114.592 21.4645 114.949 20.7237C115.653 19.2672 116.398 17.3599 116.368 15.7888L115.368 15.8077C115.393 17.1211 114.749 18.8402 114.049 20.2888C113.705 21.0006 113.359 21.625 113.099 22.0716C112.969 22.2946 112.861 22.4727 112.786 22.5945C112.748 22.6553 112.719 22.7021 112.699 22.7332C112.689 22.7488 112.682 22.7605 112.677 22.7682C112.674 22.772 112.672 22.7748 112.671 22.7766C112.671 22.7775 112.67 22.7781 112.67 22.7784C112.67 22.7786 112.67 22.7787 112.67 22.7788C112.67 22.7788 112.67 22.7788 112.67 22.7788C112.67 22.7788 112.67 22.7787 113.089 23.0508ZM130.396 9.58625C126.637 11.6173 122.222 14.897 118.762 17.654C117.028 19.0352 115.528 20.2903 114.461 21.2002C113.927 21.6552 113.502 22.0241 113.209 22.2794C113.063 22.407 112.95 22.5063 112.874 22.5738C112.836 22.6076 112.806 22.6334 112.787 22.6508C112.777 22.6595 112.77 22.6661 112.764 22.6706C112.762 22.6728 112.76 22.6745 112.759 22.6757C112.758 22.6763 112.758 22.6767 112.757 22.677C112.757 22.6772 112.757 22.6773 112.757 22.6774C112.757 22.6774 112.757 22.6775 113.089 23.0508C113.422 23.4241 113.422 23.4241 113.422 23.4241C113.422 23.424 113.422 23.4239 113.422 23.4238C113.423 23.4236 113.423 23.4232 113.424 23.4227C113.425 23.4216 113.427 23.4201 113.429 23.418C113.434 23.4137 113.441 23.4074 113.45 23.3989C113.469 23.382 113.498 23.3567 113.536 23.3235C113.611 23.2571 113.722 23.159 113.867 23.0325C114.157 22.7795 114.579 22.4133 115.109 21.9611C116.17 21.0566 117.662 19.8089 119.385 18.4361C122.838 15.6852 127.195 12.4525 130.871 10.466L130.396 9.58625ZM132.137 8.63948C131.576 8.94556 130.998 9.26115 130.396 9.58625L130.871 10.466C131.475 10.1398 132.055 9.82329 132.616 9.51734L132.137 8.63948ZM147.282 2.99822C141.093 3.74995 137.384 5.77712 132.137 8.63948L132.616 9.51734C137.86 6.65623 141.421 4.71741 147.402 3.99093L147.282 2.99822ZM165.71 6.34841C160.39 1.60326 154.651 2.10316 147.282 2.99822L147.402 3.99093C154.811 3.09103 160.099 2.68408 165.044 7.0947L165.71 6.34841ZM172.116 25.3523C173.865 17.4888 171.157 11.2065 165.71 6.34841L165.044 7.0947C170.261 11.7476 172.799 17.6753 171.14 25.1351L172.116 25.3523ZM155.9 43.0251C160.62 40.5619 164.203 38.29 166.841 35.5563C169.492 32.8091 171.167 29.6174 172.116 25.3523L171.14 25.1351C170.227 29.2407 168.631 32.2612 166.121 34.8619C163.599 37.4762 160.133 39.688 155.438 42.1386L155.9 43.0251ZM145.955 46.3793C146.097 46.8585 146.097 46.8585 146.097 46.8585C146.097 46.8585 146.098 46.8584 146.098 46.8584C146.098 46.8583 146.098 46.8583 146.099 46.8581C146.099 46.8579 146.1 46.8576 146.102 46.8571C146.105 46.8563 146.109 46.855 146.115 46.8533C146.126 46.8499 146.143 46.845 146.164 46.8384C146.207 46.8253 146.271 46.806 146.353 46.7806C146.518 46.7299 146.757 46.6553 147.056 46.5592C147.654 46.367 148.494 46.0887 149.461 45.744C151.391 45.0561 153.845 44.0977 155.9 43.0251L155.438 42.1386C153.443 43.1794 151.04 44.1197 149.125 44.8021C148.17 45.1426 147.341 45.4174 146.75 45.6071C146.455 45.7019 146.22 45.7753 146.059 45.825C145.978 45.8498 145.916 45.8686 145.875 45.8813C145.854 45.8876 145.838 45.8923 145.828 45.8954C145.822 45.897 145.818 45.8982 145.816 45.8989C145.815 45.8993 145.814 45.8996 145.813 45.8998C145.813 45.8999 145.813 45.8999 145.812 45.9C145.812 45.9 145.812 45.9 145.812 45.9C145.812 45.9 145.812 45.9 145.955 46.3793ZM121.697 49.9057C123.93 49.8306 128.304 49.6834 132.976 49.249C137.637 48.8156 142.643 48.0927 146.123 46.8501L145.787 45.9084C142.434 47.1054 137.536 47.8206 132.884 48.2532C128.244 48.6847 123.896 48.8312 121.664 48.9063L121.697 49.9057ZM120.232 49.967C120.352 49.9517 120.849 49.9343 121.697 49.9057L121.664 48.9063C120.859 48.9334 120.286 48.952 120.106 48.9749L120.232 49.967ZM90.2256 64.9618C100.79 54.9077 114.09 50.746 120.232 49.967L120.106 48.9749C113.792 49.7759 100.282 54.0113 89.5362 64.2374L90.2256 64.9618ZM74.128 100.814C76.6197 86.5409 78.435 76.1824 90.2256 64.9618L89.5362 64.2374C77.4898 75.7015 75.6367 86.3567 73.1429 100.642L74.128 100.814ZM73.0042 107.092C73.4122 104.914 73.7769 102.825 74.128 100.814L73.1429 100.642C72.7917 102.654 72.428 104.737 72.0213 106.908L73.0042 107.092ZM72.9012 137.217C71.7565 127.486 70.765 119.043 73.0042 107.092L72.0213 106.908C69.752 119.02 70.7622 127.593 71.9081 137.334L72.9012 137.217ZM74.3675 154.019C74.1276 147.641 73.4939 142.255 72.9012 137.217L71.9081 137.334C72.5009 142.373 73.13 147.723 73.3682 154.056L74.3675 154.019ZM71.6191 172.064C72.6925 167.945 74.5841 159.78 74.3675 154.019L73.3682 154.056C73.5786 159.65 71.7279 167.681 70.6514 171.812L71.6191 172.064Z" fill="black"/>
<path d="M342.604 201.997C342.604 198.17 345.46 195.064 349 195.003C349 195.003 349 195.002 349 195C349 194.998 349 194.998 349 194.997C345.459 194.936 342.604 191.83 342.604 188.003C342.57 188.003 342.534 188 342.5 188C342.466 188 342.43 188.002 342.396 188.003C342.396 191.83 339.54 194.936 336 194.997C336 194.997 336 194.998 336 195C336 195.002 336 195.002 336 195.003C339.541 195.064 342.396 198.17 342.396 201.997C342.43 201.997 342.466 202 342.5 202C342.534 202 342.57 201.998 342.604 201.997Z" fill="#FFA800" stroke="black" stroke-miterlimit="10"/>
<path d="M227.997 13.3956C224.444 13.3956 221.559 10.5398 221.503 7C221.503 7 221.502 7 221.5 7C221.498 7 221.498 7 221.497 7C221.441 10.5413 218.556 13.3956 215.003 13.3956C215.003 13.4299 215 13.4657 215 13.5C215 13.5343 215.002 13.5701 215.003 13.6044C218.556 13.6044 221.441 16.4602 221.497 20C221.497 20 221.498 20 221.5 20C221.502 20 221.502 20 221.503 20C221.559 16.4587 224.444 13.6044 227.997 13.6044C227.997 13.5701 228 13.5343 228 13.5C228 13.4657 227.998 13.4299 227.997 13.3956Z" fill="#FFA800" stroke="black" stroke-miterlimit="10"/>
<path d="M49.9969 197.396C46.4439 197.396 43.5592 194.54 43.5031 191C43.5031 191 43.5016 191 43.5 191C43.4984 191 43.4984 191 43.4969 191C43.4408 194.541 40.5561 197.396 37.0031 197.396C37.0031 197.43 37 197.466 37 197.5C37 197.534 37.0016 197.57 37.0031 197.604C40.5561 197.604 43.4408 200.46 43.4969 204C43.4969 204 43.4984 204 43.5 204C43.5016 204 43.5016 204 43.5031 204C43.5592 200.459 46.4439 197.604 49.9969 197.604C49.9969 197.57 50 197.534 50 197.5C50 197.466 49.9984 197.43 49.9969 197.396Z" fill="#FFA800" stroke="black" stroke-miterlimit="10"/>
<path d="M274.997 30.3956C271.444 30.3956 268.559 27.5398 268.503 24C268.503 24 268.502 24 268.5 24C268.498 24 268.498 24 268.497 24C268.441 27.5413 265.556 30.3956 262.003 30.3956C262.003 30.4299 262 30.4657 262 30.5C262 30.5343 262.002 30.5701 262.003 30.6044C265.556 30.6044 268.441 33.4602 268.497 37C268.497 37 268.498 37 268.5 37C268.502 37 268.502 37 268.503 37C268.559 33.4587 271.444 30.6044 274.997 30.6044C274.997 30.5701 275 30.5343 275 30.5C275 30.4657 274.998 30.4299 274.997 30.3956Z" fill="#FFA800" stroke="black" stroke-miterlimit="10"/>
<path d="M330.997 19.3956C327.444 19.3956 324.559 16.5398 324.503 13C324.503 13 324.502 13 324.5 13C324.498 13 324.498 13 324.497 13C324.441 16.5413 321.556 19.3956 318.003 19.3956C318.003 19.4299 318 19.4657 318 19.5C318 19.5343 318.002 19.5701 318.003 19.6044C321.556 19.6044 324.441 22.4602 324.497 26C324.497 26 324.498 26 324.5 26C324.502 26 324.502 26 324.503 26C324.559 22.4587 327.444 19.6044 330.997 19.6044C330.997 19.5701 331 19.5343 331 19.5C331 19.4657 330.998 19.4299 330.997 19.3956Z" fill="#FFA800" stroke="black" stroke-miterlimit="10"/>
<path d="M312.604 83.9969C312.604 80.4439 315.46 77.5592 319 77.5031C319 77.5031 319 77.5016 319 77.5C319 77.4984 319 77.4984 319 77.4969C315.459 77.4408 312.604 74.5561 312.604 71.0031C312.57 71.0031 312.534 71 312.5 71C312.466 71 312.43 71.0016 312.396 71.0031C312.396 74.5561 309.54 77.4408 306 77.4969C306 77.4969 306 77.4984 306 77.5C306 77.5016 306 77.5016 306 77.5031C309.541 77.5592 312.396 80.4439 312.396 83.9969C312.43 83.9969 312.466 84 312.5 84C312.534 84 312.57 83.9984 312.604 83.9969Z" fill="#FFA800" stroke="black" stroke-miterlimit="10"/>
<path d="M101.5 117C101.5 168.362 138.708 121.5 190.071 121.5C241.433 121.5 269 155.862 269 104.5C269 88.1919 278.873 87.3642 271.5 74.0383C255.65 45.3944 225.125 26 190.071 26C138.708 26 101.5 65.6375 101.5 117Z" fill="#FFEED3"/>
<path d="M97.0715 119C97.0715 67.6375 138.709 26 190.071 26C225.314 26 255.978 45.603 271.754 74.5" stroke="black"/>
<path d="M15.6044 49.6253C15.6044 46.0723 18.4602 43.1876 22 43.1315C22 43.1315 22 43.13 22 43.1284C22 43.1269 22 43.1269 22 43.1253C18.4587 43.0692 15.6044 40.1845 15.6044 36.6315C15.5701 36.6315 15.5343 36.6284 15.5 36.6284C15.4657 36.6284 15.4299 36.63 15.3956 36.6315C15.3956 40.1845 12.5398 43.0692 9 43.1253C9 43.1253 9 43.1269 9 43.1284C9 43.13 9 43.13 9 43.1315C12.5413 43.1876 15.3956 46.0723 15.3956 49.6253C15.4299 49.6253 15.4657 49.6284 15.5 49.6284C15.5343 49.6284 15.5701 49.6269 15.6044 49.6253Z" fill="#FFA800" stroke="black" stroke-miterlimit="10"/>
<path d="M69.6044 19.9969C69.6044 16.4439 72.4602 13.5592 76 13.5031C76 13.5031 76 13.5016 76 13.5C76 13.4984 76 13.4984 76 13.4969C72.4587 13.4408 69.6044 10.5561 69.6044 7.00311C69.5701 7.00311 69.5343 7 69.5 7C69.4657 7 69.4299 7.00156 69.3956 7.00311C69.3956 10.5561 66.5398 13.4408 63 13.4969C63 13.4969 63 13.4984 63 13.5C63 13.5016 63 13.5016 63 13.5031C66.5413 13.5592 69.3956 16.4439 69.3956 19.9969C69.4299 19.9969 69.4657 20 69.5 20C69.5343 20 69.5701 19.9984 69.6044 19.9969Z" fill="#FFA800" stroke="black" stroke-miterlimit="10"/>
<path d="M284.604 190.997C284.604 187.444 287.46 184.559 291 184.503C291 184.503 291 184.502 291 184.5C291 184.498 291 184.498 291 184.497C287.459 184.441 284.604 181.556 284.604 178.003C284.57 178.003 284.534 178 284.5 178C284.466 178 284.43 178.002 284.396 178.003C284.396 181.556 281.54 184.441 278 184.497C278 184.497 278 184.498 278 184.5C278 184.502 278 184.502 278 184.503C281.541 184.559 284.396 187.444 284.396 190.997C284.43 190.997 284.466 191 284.5 191C284.534 191 284.57 190.998 284.604 190.997Z" fill="#FFA800" stroke="black" stroke-miterlimit="10"/>
<path d="M302.604 139.997C302.604 136.444 305.46 133.559 309 133.503C309 133.503 309 133.502 309 133.5C309 133.498 309 133.498 309 133.497C305.459 133.441 302.604 130.556 302.604 127.003C302.57 127.003 302.534 127 302.5 127C302.466 127 302.43 127.002 302.396 127.003C302.396 130.556 299.54 133.441 296 133.497C296 133.497 296 133.498 296 133.5C296 133.502 296 133.502 296 133.503C299.541 133.559 302.396 136.444 302.396 139.997C302.43 139.997 302.466 140 302.5 140C302.534 140 302.57 139.998 302.604 139.997Z" fill="#FFA800" stroke="black" stroke-miterlimit="10"/>
<path d="M355.604 99.9969C355.604 96.4439 358.46 93.5592 362 93.5031C362 93.5031 362 93.5016 362 93.5C362 93.4984 362 93.4984 362 93.4969C358.459 93.4408 355.604 90.5561 355.604 87.0031C355.57 87.0031 355.534 87 355.5 87C355.466 87 355.43 87.0016 355.396 87.0031C355.396 90.5561 352.54 93.4408 349 93.4969C349 93.4969 349 93.4984 349 93.5C349 93.5016 349 93.5016 349 93.5031C352.541 93.5592 355.396 96.4439 355.396 99.9969C355.43 99.9969 355.466 100 355.5 100C355.534 100 355.57 99.9984 355.604 99.9969Z" fill="#FFA800" stroke="black" stroke-miterlimit="10"/>
<path fill-rule="evenodd" clip-rule="evenodd" d="M212.185 40.7311C212.514 44.1606 211.889 46.9857 209.862 49.7713C208.154 52.1183 206.737 52.9961 205.626 53.6775C194.865 60.2788 185.724 62.1902 174.545 61.2569C173.385 62.1136 171.885 62.8014 170.192 63.1786C165.97 64.1195 162.152 62.7682 161.668 60.1609C161.546 59.5059 161.647 58.8328 161.933 58.1793C159.132 58.0345 156.968 56.7984 156.611 54.8787C156.264 53.0097 157.722 51.0031 160.132 49.6702C159.677 46.3128 160.88 40.8584 162.982 35.3126C166.216 26.7786 171.165 18.6613 180.291 18.7238C187.95 18.7763 196.977 22.033 203.308 26.3438C208.9 30.152 211.54 33.9962 212.185 40.7311Z" fill="#FF5C00"/>
<path d="M209.862 49.7713L210.266 50.0655L209.862 49.7713ZM212.185 40.7311L211.688 40.7789L212.185 40.7311ZM205.626 53.6775L205.887 54.1037L205.887 54.1037L205.626 53.6775ZM174.545 61.2569L174.248 60.8547L174.4 60.743L174.587 60.7586L174.545 61.2569ZM170.192 63.1786L170.083 62.6905L170.192 63.1786ZM161.668 60.1609L162.16 60.0691L162.16 60.0696L161.668 60.1609ZM161.933 58.1793L161.958 57.68L162.68 57.7173L162.391 58.3797L161.933 58.1793ZM156.611 54.8787L156.119 54.97L156.119 54.97L156.611 54.8787ZM160.132 49.6702L160.627 49.603L160.673 49.9421L160.374 50.1077L160.132 49.6702ZM162.982 35.3126L162.514 35.1354L162.514 35.1354L162.982 35.3126ZM180.291 18.7238L180.295 18.2238L180.291 18.7238ZM203.308 26.3438L203.589 25.9305L203.308 26.3438ZM209.458 49.4771C211.404 46.8031 212.007 44.1037 211.688 40.7789L212.683 40.6834C213.022 44.2175 212.375 47.1682 210.266 50.0655L209.458 49.4771ZM205.364 53.2513C206.447 52.5869 207.804 51.7498 209.458 49.4771L210.266 50.0655C208.504 52.4868 207.026 53.4053 205.887 54.1037L205.364 53.2513ZM174.587 60.7586C185.66 61.6832 194.695 59.7963 205.364 53.2513L205.887 54.1037C195.034 60.7614 185.787 62.6972 174.504 61.7551L174.587 60.7586ZM170.083 62.6905C171.713 62.3273 173.149 61.6667 174.248 60.8547L174.842 61.6591C173.622 62.5606 172.056 63.2756 170.301 63.6666L170.083 62.6905ZM162.16 60.0696C162.358 61.1337 163.249 62.0169 164.695 62.529C166.135 63.0384 168.047 63.1443 170.083 62.6905L170.301 63.6666C168.115 64.1537 166.008 64.0544 164.362 63.4716C162.723 62.8914 161.463 61.7954 161.177 60.2522L162.16 60.0696ZM162.391 58.3797C162.139 58.9565 162.059 59.5277 162.16 60.0691L161.177 60.2527C161.033 59.484 161.155 58.7091 161.475 57.979L162.391 58.3797ZM157.103 54.7874C157.249 55.5745 157.769 56.2546 158.614 56.767C159.463 57.2815 160.619 57.6108 161.958 57.68L161.907 58.6787C160.445 58.6031 159.118 58.2418 158.096 57.6222C157.07 57.0004 156.33 56.1026 156.119 54.97L157.103 54.7874ZM160.374 50.1077C158.023 51.4083 156.816 53.2463 157.103 54.7874L156.119 54.97C155.712 52.773 157.422 50.5978 159.89 49.2327L160.374 50.1077ZM163.449 35.4897C162.406 38.243 161.588 40.967 161.088 43.4122C160.586 45.8654 160.411 48.005 160.627 49.603L159.636 49.7374C159.398 47.978 159.597 45.7116 160.108 43.2118C160.621 40.704 161.456 37.9279 162.514 35.1354L163.449 35.4897ZM180.288 19.2238C175.897 19.1937 172.507 21.123 169.799 24.1292C167.078 27.149 165.058 31.2436 163.449 35.4897L162.514 35.1354C164.139 30.8475 166.212 26.6165 169.056 23.4598C171.912 20.2895 175.559 18.1914 180.295 18.2238L180.288 19.2238ZM203.026 26.7571C196.763 22.4919 187.831 19.2754 180.288 19.2238L180.295 18.2238C188.069 18.2771 197.192 21.574 203.589 25.9305L203.026 26.7571ZM211.688 40.7789C211.37 37.4694 210.567 34.9046 209.179 32.707C207.788 30.5059 205.789 28.6386 203.026 26.7571L203.589 25.9305C206.418 27.8572 208.535 29.8161 210.024 32.1729C211.515 34.5332 212.355 37.2579 212.683 40.6834L211.688 40.7789Z" fill="black"/>
<path d="M222.459 188.915C208.531 201.539 214.948 215.713 223.292 220.5C227.215 222.751 233.292 223.5 249.291 222.5L256.291 173.5L219.291 161.5C221.89 171.196 215.772 183.093 222.459 188.913L222.459 188.915Z" fill="#FFA724" stroke="black" stroke-miterlimit="10"/>
<path d="M205.216 151.5L191.642 116.671L192.418 110.896L172.404 107L171.623 112.819L182.789 162.5L198.986 176.5L222.244 193L242.291 168L205.216 151.5Z" fill="#FFB660" stroke="black" stroke-miterlimit="10"/>
<path d="M195.797 113.763C196.149 111.575 194.406 109.614 192.192 109.709L165.701 110.84C164.069 110.909 162.703 112.098 162.408 113.704L158.43 135.368C158.035 137.518 159.686 139.5 161.873 139.5H188.665C190.383 139.5 191.847 138.253 192.12 136.557L195.797 113.763Z" fill="#FFA724" stroke="black"/>
<path d="M240.538 87.9812V87.9766V87.9721L232.618 82.1663L199.534 74.899C199.473 74.4465 199.265 75.0383 198.958 74.7296C198.59 74.3596 198.083 74.1303 197.525 74.1303L179.813 70L162.375 74.1303C161.817 74.1303 161.309 74.3596 160.943 74.7296C160.785 74.8885 160.655 75.0735 160.555 75.2783L152.825 75.6131L135.118 93.842L101.329 82.1663L97.1182 113.551L133.093 117.854L133.096 117.857H133.098H133.102L140.605 118.676L162.036 93V93.842L163.727 111.511C163.727 112.072 163.955 112.583 164.323 112.951C164.691 113.321 165.197 113.551 165.755 113.551H194.141C194.699 113.551 195.207 113.321 195.573 112.951C195.941 112.581 196.169 112.072 196.169 111.511L197.831 94.1477L220.118 100.015L222.618 112.951L252.07 130.703L240.535 87.9812H240.538Z" fill="#FFD493" stroke="black" stroke-miterlimit="10"/>
<path d="M189.007 64.5453L175.699 61.5078L173.763 69.9906L187.071 73.028L189.007 64.5453Z" fill="#F4DBCB" stroke="black" stroke-miterlimit="10"/>
<path d="M202.754 45.1782C202.49 45.118 202.228 45.0722 201.966 45.0375C202.131 46.6447 202.041 48.3034 201.662 49.9606L200.029 57.1155C199.651 58.7728 199.013 60.3063 198.167 61.6827C198.418 61.7651 198.675 61.838 198.938 61.8979C203.53 62.946 208.108 60.0523 209.162 55.4353C210.216 50.8183 207.346 46.2249 202.754 45.1767L202.754 45.1782Z" fill="#F4DBCB" stroke="black" stroke-miterlimit="10"/>
<path d="M172.216 50.7673L173.849 43.6123C174.194 42.0997 174.758 40.6901 175.496 39.4098C174.731 38.942 173.881 38.5881 172.96 38.378C168.368 37.3298 163.79 40.2236 162.736 44.8406C161.683 49.4575 164.552 54.051 169.144 55.0991C170.064 55.3092 170.986 55.358 171.876 55.2696C171.766 53.7958 171.87 52.2814 172.216 50.7687L172.216 50.7673Z" fill="#F4DBCB" stroke="black" stroke-miterlimit="10"/>
<path d="M166.667 48.1572C169.148 48.7236 171.414 50.2363 172.864 52.5586C174.315 54.881 174.687 57.5906 174.117 60.0853" stroke="black" stroke-miterlimit="10"/>
<path d="M204.891 56.8812C202.409 56.3148 199.712 56.6948 197.397 58.1578C195.083 59.6209 193.572 61.9008 193.003 64.3956" stroke="black" stroke-miterlimit="10"/>
<path d="M191.893 31.7009L188.926 31.0239C181.609 29.3538 174.317 33.9637 172.637 41.3203L170.324 51.4558C168.645 58.8125 173.216 66.13 180.533 67.8001L183.499 68.477C190.816 70.1471 198.109 65.5372 199.788 58.1806L202.101 48.0451C203.78 40.6885 199.21 33.3709 191.893 31.7009Z" fill="#F4DBCB" stroke="black" stroke-miterlimit="10"/>
<path d="M184.283 49.8709C184.991 50.0325 185.697 49.5864 185.859 48.8744C186.022 48.1624 185.579 47.4543 184.871 47.2926C184.163 47.131 183.457 47.5772 183.295 48.2891C183.132 49.0011 183.574 49.7092 184.283 49.8709Z" fill="black"/>
<path d="M196.612 53.8709C197.32 54.0325 198.026 53.5864 198.188 52.8744C198.351 52.1624 197.908 51.4543 197.2 51.2926C196.492 51.131 195.786 51.5772 195.624 52.2891C195.461 53.0011 195.904 53.7092 196.612 53.8709Z" fill="black"/>
<path d="M189.385 55.7678L190.076 55.9254C190.731 56.075 191.391 55.6579 191.541 54.9992C191.691 54.3405 191.278 53.6786 190.623 53.529L189.932 53.3714" fill="#F4DBCB"/>
<path d="M189.385 55.7678L190.076 55.9254C190.731 56.075 191.391 55.6579 191.541 54.9992C191.691 54.3405 191.278 53.6786 190.623 53.529L189.932 53.3714" stroke="black" stroke-miterlimit="10"/>
<path d="M192.938 59.3715C191.351 59.6201 189.464 59.3395 187.657 58.4699C185.849 57.6004 184.453 56.3001 183.656 54.9058" fill="#F4DBCB"/>
<path d="M192.938 59.3715C191.351 59.6201 189.464 59.3395 187.657 58.4699C185.849 57.6004 184.453 56.3001 183.656 54.9058" stroke="black" stroke-miterlimit="10"/>
<path d="M180.878 71.2065C183.517 70.6316 186.156 70.0568 188.794 69.482C189.679 71.1145 190.564 72.747 191.45 74.3781C188.216 76.6504 184.983 78.9228 181.749 81.1951C181.458 77.865 181.169 74.535 180.878 71.2065Z" fill="#FFD493" stroke="black" stroke-miterlimit="10"/>
<path d="M180.745 71.198C178.2 70.2931 175.656 69.3881 173.111 68.4832C172.026 69.9902 170.942 71.4973 169.855 73.0027C172.775 75.667 175.694 78.3312 178.614 80.9956C179.325 77.7292 180.034 74.4628 180.745 71.198Z" fill="#FFD493" stroke="black" stroke-miterlimit="10"/>
<path d="M221.532 131.198L233.306 143.353C239.793 150.049 250.488 150.179 257.197 143.644L276.29 127.882C282.998 121.347 279.172 111.686 272.686 104.99L260.912 92.835C254.426 86.1393 243.73 86.0089 237.022 92.5438L221.934 107.242C215.226 113.777 215.046 124.503 221.532 131.198Z" fill="#F4DBCB" stroke="black" stroke-miterlimit="10"/>
<path d="M214.824 102.551L217.516 99.9294C220.581 96.9435 220.663 92.0428 217.699 88.9835L216.496 87.7409C213.532 84.6815 208.645 84.6219 205.58 87.6078L202.889 90.2297C199.824 93.2156 199.741 98.1162 202.705 101.176L203.909 102.418C206.872 105.478 211.759 105.537 214.824 102.551Z" fill="#F4DBCB" stroke="black" stroke-miterlimit="10"/>
<path d="M212.255 110.06L213.3 111.14C215.875 113.798 220.12 113.849 222.783 111.255L241.496 93.0257C244.159 90.4317 244.23 86.1744 241.655 83.5166L240.61 82.4371C238.035 79.7793 233.79 79.7276 231.127 82.3215L212.414 100.551C209.751 103.145 209.68 107.403 212.255 110.06Z" fill="#F4DBCB" stroke="black" stroke-miterlimit="10"/>
<path d="M253.952 97.363C251.101 94.4186 246.354 94.3613 243.406 97.2353L225.773 114.412C222.823 117.285 222.744 122.045 225.596 124.987C228.448 127.932 233.194 127.989 236.142 125.115L253.776 107.938" fill="#F4DBCB"/>
<path d="M253.952 97.363C251.101 94.4186 246.354 94.3613 243.406 97.2353L225.773 114.412C222.823 117.285 222.744 122.045 225.596 124.987C228.448 127.932 233.194 127.989 236.142 125.115L253.776 107.938" stroke="black" stroke-miterlimit="10"/>
<path d="M253.701 107.865L236.068 125.042C233.118 127.914 233.039 132.674 235.891 135.617C238.743 138.561 243.49 138.618 246.437 135.744L264.071 118.568" fill="#F4DBCB"/>
<path d="M253.701 107.865L236.068 125.042C233.118 127.914 233.039 132.674 235.891 135.617C238.743 138.561 243.49 138.618 246.437 135.744L264.071 118.568" stroke="black" stroke-miterlimit="10"/>
<path d="M264.3 118.65L249.251 133.278C246.302 136.15 246.222 140.91 249.075 143.853C251.926 146.797 256.673 146.854 259.621 143.98L277.255 126.804" fill="#F4DBCB"/>
<path d="M264.3 118.65L249.251 133.278C246.302 136.15 246.222 140.91 249.075 143.853C251.926 146.797 256.673 146.854 259.621 143.98L277.255 126.804" stroke="black" stroke-miterlimit="10"/>
<rect x="-0.5" y="0.5" width="33" height="4" transform="matrix(-1 0 0 1 196.071 105)" fill="#FFA724" stroke="black"/>
<path d="M197.215 40.8765C199.408 38.9335 200.54 37.9032 202.481 35.7071C203.496 34.5585 204.424 32.0342 204.424 32.0342L190.828 21.3705L171.388 26.1288L170.48 44.5238L172.773 44.2904C172.773 44.2904 181.703 46.5487 187.246 45.3661C191.422 44.4752 194.019 43.7074 197.215 40.8765Z" fill="#FF5C00"/>
<mask id="path-52-inside-1_1723_4342" fill="white">
<path fill-rule="evenodd" clip-rule="evenodd" d="M217.101 116.065L261 73.4913V64.0001C261 62.8955 261.895 62.0001 263 62.0001H272.849L283.904 51.2793L287.561 55.0504L275 67.2319V78.0001C275 79.1047 274.105 80.0001 273 80.0001H263C262.664 80.0001 262.348 79.9174 262.07 79.7713L220.172 120.405C220.506 121.375 220.687 122.416 220.687 123.5C220.687 128.747 215 133 212.187 134C212.122 134.023 212.047 134.054 211.959 134.09C210.687 134.605 206.813 136.176 194.188 131.5C193.608 130.883 194.439 130.582 195.732 130.114C197.999 129.293 201.687 127.958 201.687 123.5C201.687 118.253 205.941 114 211.187 114C213.423 114 215.479 114.772 217.101 116.065Z"/>
</mask>
<path fill-rule="evenodd" clip-rule="evenodd" d="M217.101 116.065L261 73.4913V64.0001C261 62.8955 261.895 62.0001 263 62.0001H272.849L283.904 51.2793L287.561 55.0504L275 67.2319V78.0001C275 79.1047 274.105 80.0001 273 80.0001H263C262.664 80.0001 262.348 79.9174 262.07 79.7713L220.172 120.405C220.506 121.375 220.687 122.416 220.687 123.5C220.687 128.747 215 133 212.187 134C212.122 134.023 212.047 134.054 211.959 134.09C210.687 134.605 206.813 136.176 194.188 131.5C193.608 130.883 194.439 130.582 195.732 130.114C197.999 129.293 201.687 127.958 201.687 123.5C201.687 118.253 205.941 114 211.187 114C213.423 114 215.479 114.772 217.101 116.065Z" fill="#FF6B00"/>
<path d="M261 73.4913L261.696 74.2092L262 73.9145V73.4913H261ZM217.101 116.065L216.478 116.847L217.166 117.395L217.797 116.783L217.101 116.065ZM272.849 62.0001V63.0001H273.254L273.545 62.718L272.849 62.0001ZM283.904 51.2793L284.621 50.5831L283.925 49.8652L283.207 50.5614L283.904 51.2793ZM287.561 55.0504L288.257 55.7683L288.975 55.0721L288.279 54.3542L287.561 55.0504ZM275 67.2319L274.304 66.5141L274 66.8087V67.2319H275ZM262.07 79.7713L262.536 78.8863L261.894 78.5489L261.374 79.0535L262.07 79.7713ZM220.172 120.405L219.476 119.687L219.019 120.129L219.226 120.73L220.172 120.405ZM212.187 134L212.522 134.942H212.523L212.187 134ZM211.959 134.09L211.583 133.163H211.583L211.959 134.09ZM194.188 131.5L193.459 132.184L193.62 132.356L193.84 132.438L194.188 131.5ZM195.732 130.114L195.392 129.174H195.392L195.732 130.114ZM201.687 123.5H200.687H201.687ZM260.304 72.7735L216.405 115.347L217.797 116.783L261.696 74.2092L260.304 72.7735ZM260 64.0001V73.4913H262V64.0001H260ZM263 61.0001C261.343 61.0001 260 62.3433 260 64.0001H262C262 63.4478 262.448 63.0001 263 63.0001V61.0001ZM272.849 61.0001H263V63.0001H272.849V61.0001ZM283.207 50.5614L272.153 61.2823L273.545 62.718L284.6 51.9972L283.207 50.5614ZM288.279 54.3542L284.621 50.5831L283.186 51.9755L286.843 55.7466L288.279 54.3542ZM275.696 67.9498L288.257 55.7683L286.865 54.3325L274.304 66.5141L275.696 67.9498ZM276 78.0001V67.2319H274V78.0001H276ZM273 81.0001C274.657 81.0001 276 79.657 276 78.0001H274C274 78.5524 273.552 79.0001 273 79.0001V81.0001ZM263 81.0001H273V79.0001H263V81.0001ZM261.605 80.6563C262.023 80.8762 262.498 81.0001 263 81.0001V79.0001C262.83 79.0001 262.673 78.9587 262.536 78.8863L261.605 80.6563ZM220.868 121.123L262.766 80.4892L261.374 79.0535L219.476 119.687L220.868 121.123ZM219.226 120.73C219.525 121.597 219.687 122.529 219.687 123.5H221.687C221.687 122.304 221.487 121.153 221.117 120.079L219.226 120.73ZM219.687 123.5C219.687 125.76 218.455 127.899 216.771 129.649C215.089 131.398 213.092 132.617 211.852 133.058L212.523 134.942C214.095 134.383 216.348 132.975 218.213 131.036C220.076 129.098 221.687 126.487 221.687 123.5H219.687ZM211.852 133.058C211.762 133.09 211.664 133.13 211.583 133.163L212.334 135.016C212.429 134.978 212.482 134.957 212.522 134.942L211.852 133.058ZM211.583 133.163C211.045 133.381 209.904 133.862 207.378 133.743C204.809 133.622 200.79 132.879 194.535 130.562L193.84 132.438C200.211 134.797 204.441 135.607 207.284 135.741C210.168 135.876 211.6 135.314 212.334 135.016L211.583 133.163ZM194.917 130.816C194.858 130.752 195.037 130.908 194.994 131.224C194.954 131.516 194.764 131.618 194.837 131.566C194.89 131.529 195.011 131.462 195.246 131.365C195.472 131.272 195.743 131.173 196.073 131.054L195.392 129.174C195.075 129.288 194.757 129.403 194.482 129.517C194.215 129.627 193.923 129.763 193.679 129.936C193.455 130.095 193.085 130.418 193.012 130.954C192.936 131.514 193.228 131.939 193.459 132.184L194.917 130.816ZM196.073 131.054C197.185 130.651 198.837 130.062 200.196 128.942C201.607 127.78 202.687 126.059 202.687 123.5H200.687C200.687 125.399 199.924 126.575 198.924 127.399C197.872 128.267 196.546 128.756 195.392 129.174L196.073 131.054ZM202.687 123.5C202.687 118.806 206.493 115 211.187 115V113C205.388 113 200.687 117.701 200.687 123.5H202.687ZM211.187 115C213.189 115 215.026 115.69 216.478 116.847L217.724 115.282C215.931 113.854 213.658 113 211.187 113V115Z" fill="black" mask="url(#path-52-inside-1_1723_4342)"/>
<mask id="path-54-inside-2_1723_4342" fill="white">
<path fill-rule="evenodd" clip-rule="evenodd" d="M211.277 134.208C209.467 134.785 205.091 135.405 194.188 131.367C193.608 130.75 194.439 130.449 195.732 129.981C197.999 129.16 201.687 127.825 201.687 123.367C201.687 122.276 201.872 121.227 202.21 120.251C205.316 118.824 207.879 118.55 208.876 119.781C210.018 121.19 208.806 124.196 206.075 127.41C209.989 125.189 213.41 124.513 214.601 125.983C215.813 127.478 214.372 130.774 211.277 134.208Z"/>
</mask>
<path fill-rule="evenodd" clip-rule="evenodd" d="M211.277 134.208C209.467 134.785 205.091 135.405 194.188 131.367C193.608 130.75 194.439 130.449 195.732 129.981C197.999 129.16 201.687 127.825 201.687 123.367C201.687 122.276 201.872 121.227 202.21 120.251C205.316 118.824 207.879 118.55 208.876 119.781C210.018 121.19 208.806 124.196 206.075 127.41C209.989 125.189 213.41 124.513 214.601 125.983C215.813 127.478 214.372 130.774 211.277 134.208Z" fill="#FF5C00"/>
<path d="M211.277 134.208L211.581 135.161C211.75 135.107 211.901 135.009 212.02 134.878L211.277 134.208ZM194.188 131.367L193.459 132.051C193.564 132.164 193.695 132.251 193.84 132.305L194.188 131.367ZM195.732 129.981L196.073 130.921H196.073L195.732 129.981ZM201.687 123.367H200.687V123.367L201.687 123.367ZM202.21 120.251L201.793 119.342C201.545 119.456 201.355 119.666 201.266 119.923L202.21 120.251ZM208.876 119.781L209.653 119.151V119.151L208.876 119.781ZM206.075 127.41L205.313 126.762C204.999 127.132 204.995 127.674 205.304 128.047C205.614 128.421 206.146 128.519 206.568 128.28L206.075 127.41ZM214.601 125.983L215.378 125.353V125.353L214.601 125.983ZM210.974 133.255C209.471 133.734 205.346 134.434 194.535 130.429L193.84 132.305C204.835 136.377 209.463 135.836 211.581 135.161L210.974 133.255ZM194.917 130.683C194.858 130.62 195.037 130.775 194.994 131.091C194.954 131.383 194.764 131.485 194.837 131.434C194.89 131.396 195.011 131.33 195.246 131.232C195.472 131.139 195.743 131.041 196.073 130.921L195.392 129.041C195.075 129.156 194.757 129.27 194.482 129.384C194.215 129.495 193.923 129.63 193.679 129.803C193.455 129.962 193.085 130.285 193.012 130.821C192.936 131.381 193.228 131.806 193.459 132.051L194.917 130.683ZM196.073 130.921C197.185 130.518 198.837 129.929 200.196 128.81C201.607 127.647 202.687 125.926 202.687 123.367L200.687 123.367C200.687 125.266 199.924 126.442 198.924 127.266C197.872 128.134 196.546 128.623 195.392 129.041L196.073 130.921ZM202.687 123.367C202.687 122.389 202.852 121.451 203.155 120.579L201.266 119.923C200.891 121.003 200.687 122.163 200.687 123.367H202.687ZM209.653 119.151C208.846 118.155 207.534 117.919 206.254 118.023C204.941 118.129 203.405 118.602 201.793 119.342L202.628 121.16C204.122 120.473 205.42 120.096 206.415 120.016C207.441 119.933 207.91 120.177 208.1 120.41L209.653 119.151ZM206.837 128.057C208.245 126.4 209.307 124.746 209.863 123.271C210.397 121.856 210.575 120.289 209.653 119.151L208.1 120.41C208.319 120.682 208.462 121.321 207.992 122.565C207.545 123.749 206.636 125.205 205.313 126.762L206.837 128.057ZM215.378 125.353C214.418 124.168 212.756 124.051 211.186 124.328C209.541 124.617 207.596 125.397 205.581 126.54L206.568 128.28C208.467 127.202 210.19 126.533 211.532 126.297C212.949 126.048 213.593 126.327 213.824 126.612L215.378 125.353ZM212.02 134.878C213.612 133.111 214.824 131.332 215.478 129.751C216.101 128.244 216.354 126.558 215.378 125.353L213.824 126.612C214.06 126.903 214.198 127.613 213.63 128.986C213.093 130.285 212.037 131.872 210.534 133.539L212.02 134.878Z" fill="black" mask="url(#path-54-inside-2_1723_4342)"/>
<path d="M277.707 220.535C270.849 223.996 252.689 222.536 252.689 222.536C252.689 222.536 260.043 216.366 265.423 214.271C278.093 209.338 287.133 210.82 298.354 203.239C309.176 195.929 315.893 190.481 320.608 177.634C324.302 167.567 323.225 157.383 321.948 152.989C321.75 152.309 316.954 141.098 316.541 134.844C316.541 134.844 316.025 130.566 316.265 127.245C316.823 119.523 318.177 115.216 323.237 111.544C327.868 108.183 332.712 108.168 337.439 110.356C341.989 112.462 343.284 116.282 344.825 121.485C346.23 126.227 345.746 129.404 345.299 134.554C344.767 140.693 341.673 150.066 341.673 150.066C341.673 150.066 343.773 146.904 345.719 146.105C348.233 145.071 350.483 145.29 352.185 147.285C354.505 150.004 353.958 153.342 351.972 156.79C350.121 160.003 341.113 165.428 341.113 165.428C341.113 165.428 334.283 170.376 328.975 177.311C326.798 180.156 323.183 187.031 323.183 187.031C323.183 187.031 324.937 184.426 326.44 184.409C328.13 184.39 328.931 185.884 329.35 187.645C329.927 190.065 328.91 192.565 326.782 193.832C324.048 195.459 322.359 195.098 319.581 195.51C316.619 195.949 314.996 196.735 312.124 197.837C303.073 201.311 286.481 216.107 277.707 220.535Z" fill="#FF6B00" stroke="black"/>
<path d="M72.0175 85.0169L67.5381 101.916C65.0706 111.225 70.6059 120.812 79.9016 123.33L100.809 128.993C110.105 131.51 119.641 126.005 122.108 116.696L126.588 99.7966C129.055 90.4875 123.52 80.9001 114.224 78.3825L93.3166 72.7199C84.0209 70.2022 74.485 75.7078 72.0175 85.0169Z" fill="#F4DBCB" stroke="black" stroke-miterlimit="10"/>
<path d="M122.801 53.4292L119.071 52.419C114.824 51.2687 110.467 53.7843 109.339 58.0377L108.882 59.7653C107.754 64.0187 110.283 68.3994 114.531 69.5497L118.26 70.5598C122.507 71.7101 126.865 69.1945 127.992 64.9411L128.45 63.2136C129.577 58.9601 127.048 54.5795 122.801 53.4292Z" fill="#F4DBCB" stroke="black" stroke-miterlimit="10"/>
<path d="M85.0296 65.4102L84.6318 66.911C83.6524 70.6061 85.8496 74.4117 89.5393 75.411L115.47 82.4341C119.16 83.4335 122.945 81.2481 123.925 77.553L124.323 76.0523C125.302 72.3571 123.105 68.5515 119.415 67.5522L93.484 60.5291C89.7942 59.5297 86.0091 61.7151 85.0296 65.4102Z" fill="#F4DBCB" stroke="black" stroke-miterlimit="10"/>
<path d="M84.1146 81.7675C85.199 77.6763 89.4309 75.233 93.5162 76.3394L117.95 82.9569C122.035 84.0634 124.491 88.3181 123.407 92.4093C122.323 96.5005 118.091 98.9438 114.005 97.8374L89.5719 91.2199" fill="#F4DBCB"/>
<path d="M84.1146 81.7675C85.199 77.6763 89.4309 75.233 93.5162 76.3394L117.95 82.9569C122.035 84.0634 124.491 88.3181 123.407 92.4093C122.323 96.5005 118.091 98.9438 114.005 97.8374L89.5719 91.2199" stroke="black" stroke-miterlimit="10"/>
<path d="M89.5989 91.1144L114.032 97.7319C118.118 98.8384 120.574 103.093 119.49 107.184C118.405 111.276 114.173 113.719 110.088 112.612L85.6546 105.995" fill="#F4DBCB"/>
<path d="M89.5989 91.1144L114.032 97.7319C118.118 98.8384 120.574 103.093 119.49 107.184C118.405 111.276 114.173 113.719 110.088 112.612L85.6546 105.995" stroke="black" stroke-miterlimit="10"/>
<path d="M78.5618 103.892L102.995 110.509C107.08 111.616 109.537 115.871 108.453 119.962C107.368 124.053 103.136 126.496 99.0509 125.39L74.6175 118.772" fill="#F4DBCB"/>
<path d="M78.5618 103.892L102.995 110.509C107.08 111.616 109.537 115.871 108.453 119.962C107.368 124.053 103.136 126.496 99.0509 125.39L74.6175 118.772" stroke="black" stroke-miterlimit="10"/>
<path d="M132.997 152.396C129.444 152.396 126.559 149.54 126.503 146C126.503 146 126.502 146 126.5 146C126.498 146 126.498 146 126.497 146C126.441 149.541 123.556 152.396 120.003 152.396C120.003 152.43 120 152.466 120 152.5C120 152.534 120.002 152.57 120.003 152.604C123.556 152.604 126.441 155.46 126.497 159C126.497 159 126.498 159 126.5 159C126.502 159 126.502 159 126.503 159C126.559 155.459 129.444 152.604 132.997 152.604C132.997 152.57 133 152.534 133 152.5C133 152.466 132.998 152.43 132.997 152.396Z" fill="#FFA800" stroke="black" stroke-miterlimit="10"/>
<path d="M202.004 36.1265C200.059 38.3189 198.926 39.3471 196.728 41.2861C193.527 44.111 190.929 44.874 186.752 45.7572C181.206 46.9295 172.28 44.6547 172.28 44.6547L169.987 44.8838L171 37.4999" stroke="black"/>
</g>
<defs>
<clipPath id="clip0_1723_4342">
<rect width="375" height="227" fill="white"/>
</clipPath>
</defs>
</svg>
