<svg width="267" height="50" viewBox="0 0 267 50" fill="none" xmlns="http://www.w3.org/2000/svg">
<path fill-rule="evenodd" clip-rule="evenodd" d="M10.8182 43.3182L9.41818 43.7636C8.65454 44.0182 8.08182 44.5909 7.82727 45.3545L7.31818 46.8182C7.19091 47.1364 6.80909 47.1364 6.74545 46.8182L6.3 45.4182C6.04545 44.6545 5.47273 44.0818 4.70909 43.8273L3.18182 43.3182C2.86364 43.1909 2.86364 42.8091 3.18182 42.7455L4.58182 42.3C5.34545 42.0455 5.91818 41.4727 6.17273 40.7091L6.68182 39.1818C6.80909 38.8636 7.19091 38.8636 7.25454 39.1818L7.7 40.5818C7.95455 41.3455 8.52727 41.9182 9.29091 42.1727L10.6909 42.6182C11.1364 42.8091 11.1364 43.1909 10.8182 43.3182ZM7 36C3.11818 36 0 39.1182 0 43C0 46.8818 3.11818 50 7 50C10.8818 50 14 46.8818 14 43C14 39.1182 10.8818 36 7 36Z" fill="#929292"/>
<path d="M27.6367 36.9121H26.3242V49.1621H27.6367V36.9121ZM17.5742 45.8809L18.2578 46.9336C22.4619 44.917 23.9863 41.8135 23.9863 38.2246H18.1621V39.2637H22.6738C22.4209 42.1211 20.8281 44.3291 17.5742 45.8809ZM37.248 37.9648H34.2676V36.8301H32.9688V37.9648H30.002V38.9355H37.248V37.9648ZM29.6055 43.7891L29.7832 44.8008C31.9844 44.8008 34.9102 44.7598 37.5625 44.3223L37.4668 43.4199C36.4482 43.5498 35.3545 43.6387 34.2676 43.6934V42.9619C35.6826 42.8047 36.5986 42.1553 36.6055 41.1777C36.5986 40.043 35.3955 39.332 33.625 39.3457C31.8271 39.332 30.6514 40.043 30.6582 41.1777C30.6514 42.1553 31.5469 42.8047 32.9688 42.9619V43.7412C31.7725 43.7822 30.6104 43.7891 29.6055 43.7891ZM31.3691 46.7012H38.4102V49.1621H39.709V45.6895H31.3691V46.7012ZM31.8887 41.1777C31.8955 40.5762 32.5723 40.2207 33.625 40.2344C34.6641 40.2207 35.3613 40.5762 35.3613 41.1777C35.3613 41.7451 34.6641 42.1006 33.625 42.0938C32.5723 42.1006 31.8955 41.7451 31.8887 41.1777ZM38.4102 45.1426H39.709V36.9395H38.4102V45.1426ZM45.916 40.5215V39.2227H48.582V38.1426H41.8691V39.2227H44.6309V40.5215C44.624 42.5928 43.2773 44.9033 41.418 45.7988L42.1836 46.8242C43.5781 46.127 44.7266 44.6162 45.2871 42.873C45.8408 44.4727 46.9346 45.8535 48.3086 46.5098L49.0469 45.498C47.1875 44.6162 45.9092 42.4561 45.916 40.5215ZM49.8945 49.1621H51.1934V42.8594H53.1621V41.7656H51.1934V36.9121H49.8945V49.1621Z" fill="#888888"/>
<path fill-rule="evenodd" clip-rule="evenodd" d="M76.8182 43.3182L75.4182 43.7636C74.6545 44.0182 74.0818 44.5909 73.8273 45.3545L73.3182 46.8182C73.1909 47.1364 72.8091 47.1364 72.7455 46.8182L72.3 45.4182C72.0455 44.6545 71.4727 44.0818 70.7091 43.8273L69.1818 43.3182C68.8636 43.1909 68.8636 42.8091 69.1818 42.7455L70.5818 42.3C71.3455 42.0455 71.9182 41.4727 72.1727 40.7091L72.6818 39.1818C72.8091 38.8636 73.1909 38.8636 73.2545 39.1818L73.7 40.5818C73.9545 41.3455 74.5273 41.9182 75.2909 42.1727L76.6909 42.6182C77.1364 42.8091 77.1364 43.1909 76.8182 43.3182ZM73 36C69.1182 36 66 39.1182 66 43C66 46.8818 69.1182 50 73 50C76.8818 50 80 46.8818 80 43C80 39.1182 76.8818 36 73 36Z" fill="#929292"/>
<path d="M90.6445 38.1289H84.916V46.0859H90.6445V38.1289ZM86.1875 45.0332V39.1543H89.3594V45.0332H86.1875ZM92.6953 49.1621H93.9941V42.8047H95.9629V41.7109H93.9941V36.9121H92.6953V49.1621ZM101.965 38.334H97.1934V39.4004H100.7C100.659 40.0156 100.563 40.6104 100.413 41.1777L96.5918 41.4102L96.7695 42.5312L100.051 42.1963C99.4424 43.5566 98.3691 44.7529 96.5918 45.7441L97.3301 46.6465C99.2715 45.5664 100.447 44.2334 101.131 42.7363H103.264V48.5605H104.494V37.2266H103.264V41.6836H101.527C101.842 40.624 101.965 39.4961 101.965 38.334ZM105.848 49.1621H107.078V36.9121H105.848V49.1621ZM118.863 36.9121H117.578V41.4375H115.145V42.5039H117.578V49.1895H118.863V36.9121ZM109.211 46.291H110.168C112.438 46.2842 113.976 46.209 115.76 45.9219L115.623 44.8691C113.996 45.1494 112.574 45.2109 110.523 45.2109V42.4766H114.42V41.4375H110.523V39.0586H114.939V38.0059H109.211V46.291Z" fill="#888888"/>
<path fill-rule="evenodd" clip-rule="evenodd" d="M143.818 43.3182L142.418 43.7636C141.655 44.0182 141.082 44.5909 140.827 45.3545L140.318 46.8182C140.191 47.1364 139.809 47.1364 139.745 46.8182L139.3 45.4182C139.045 44.6545 138.473 44.0818 137.709 43.8273L136.182 43.3182C135.864 43.1909 135.864 42.8091 136.182 42.7455L137.582 42.3C138.345 42.0455 138.918 41.4727 139.173 40.7091L139.682 39.1818C139.809 38.8636 140.191 38.8636 140.255 39.1818L140.7 40.5818C140.955 41.3455 141.527 41.9182 142.291 42.1727L143.691 42.6182C144.136 42.8091 144.136 43.1909 143.818 43.3182ZM140 36C136.118 36 133 39.1182 133 43C133 46.8818 136.118 50 140 50C143.882 50 147 46.8818 147 43C147 39.1182 143.882 36 140 36Z" fill="#929292"/>
<path d="M161.938 36.9121H160.693V41.752H159.176V37.2402H157.959V48.5742H159.176V42.8047H160.693V49.1621H161.938V36.9121ZM151.41 45.6621L152.162 46.5645C155.669 44.5889 156.735 41.6904 156.742 38.4707H151.93V39.5371H155.478C155.272 42.0322 154.131 44.1172 151.41 45.6621ZM165.301 37.4316H164.029V42.7773H169.799V37.4316H168.514V39.0996H165.301V37.4316ZM165.26 44.7734H171.891V45.8809H165.287V49.0391H173.6V48H166.559V46.8379H173.176V43.748H165.26V44.7734ZM165.301 41.7383V40.0977H168.514V41.7383H165.301ZM171.877 43.2148H173.176V40.5352H174.953V39.4824H173.176V36.9121H171.877V43.2148ZM179.916 40.5215V39.2227H182.582V38.1426H175.869V39.2227H178.631V40.5215C178.624 42.5928 177.277 44.9033 175.418 45.7988L176.184 46.8242C177.578 46.127 178.727 44.6162 179.287 42.873C179.841 44.4727 180.935 45.8535 182.309 46.5098L183.047 45.498C181.188 44.6162 179.909 42.4561 179.916 40.5215ZM183.895 49.1621H185.193V42.8594H187.162V41.7656H185.193V36.9121H183.895V49.1621Z" fill="#888888"/>
<path fill-rule="evenodd" clip-rule="evenodd" d="M210.818 43.3182L209.418 43.7636C208.655 44.0182 208.082 44.5909 207.827 45.3545L207.318 46.8182C207.191 47.1364 206.809 47.1364 206.745 46.8182L206.3 45.4182C206.045 44.6545 205.473 44.0818 204.709 43.8273L203.182 43.3182C202.864 43.1909 202.864 42.8091 203.182 42.7455L204.582 42.3C205.345 42.0455 205.918 41.4727 206.173 40.7091L206.682 39.1818C206.809 38.8636 207.191 38.8636 207.255 39.1818L207.7 40.5818C207.955 41.3455 208.527 41.9182 209.291 42.1727L210.691 42.6182C211.136 42.8091 211.136 43.1909 210.818 43.3182ZM207 36C203.118 36 200 39.1182 200 43C200 46.8818 203.118 50 207 50C210.882 50 214 46.8818 214 43C214 39.1182 210.882 36 207 36Z" fill="#929292"/>
<path d="M228.596 36.9121H227.297V49.1895H228.596V36.9121ZM219.23 46.1816H220.242C222.785 46.1748 224.385 46.1064 226.217 45.7715L226.08 44.6914C224.351 44.999 222.86 45.0674 220.543 45.0742V39.127H225.096V38.0469H219.23V46.1816ZM234.816 40.5215V39.2227H237.482V38.1426H230.77V39.2227H233.531V40.5215C233.524 42.5928 232.178 44.9033 230.318 45.7988L231.084 46.8242C232.479 46.127 233.627 44.6162 234.188 42.873C234.741 44.4727 235.835 45.8535 237.209 46.5098L237.947 45.498C236.088 44.6162 234.81 42.4561 234.816 40.5215ZM238.795 49.1621H240.094V42.8594H242.062V41.7656H240.094V36.9121H238.795V49.1621ZM252.795 36.9121H251.496V49.1895H252.795V36.9121ZM243.074 42.1211C243.074 44.7666 244.394 46.4346 246.246 46.4277C248.064 46.4346 249.404 44.7666 249.404 42.1211C249.404 39.5029 248.064 37.835 246.246 37.8281C244.394 37.835 243.074 39.5029 243.074 42.1211ZM244.332 42.1211C244.325 40.2002 245.104 38.9971 246.246 38.9902C247.367 38.9971 248.146 40.2002 248.146 42.1211C248.146 44.0693 247.367 45.2656 246.246 45.2656C245.104 45.2656 244.325 44.0693 244.332 42.1211ZM264.977 36.9121H263.678V40.8633H260.027V41.9297H263.678V49.1895H264.977V36.9121ZM255.406 46.2363H256.391C258.312 46.2432 260.089 46.1338 262.064 45.7305L261.9 44.6641C260.116 45.0195 258.469 45.1289 256.719 45.1562V38.2656H255.406V46.2363Z" fill="#888888"/>
<path d="M32.1904 4.00391V2.58594H29.2686V4.00391C29.2471 6.83984 26.7012 9.91211 22.3506 10.6855L23.5322 12.9629C26.916 12.2754 29.4512 10.3418 30.7402 7.86035C32.0078 10.3633 34.5322 12.2861 37.9482 12.9629L39.1514 10.6855C34.7256 9.93359 32.1797 6.87207 32.1904 4.00391ZM21.8994 18.5703H39.7959V16.3145H21.8994V18.5703ZM51.2041 4.00391V2.58594H48.2822V4.00391C48.2607 6.83984 45.7148 9.91211 41.3643 10.6855L42.5459 12.9629C45.9297 12.2754 48.4648 10.3418 49.7539 7.86035C51.0215 10.3633 53.5459 12.2861 56.9619 12.9629L58.165 10.6855C53.7393 9.93359 51.1934 6.87207 51.2041 4.00391ZM40.9131 18.5703H58.8096V16.3145H40.9131V18.5703ZM77.8232 16.5508H70.1963V13.6074H76.2119V11.373H64.7393V9.18164H75.7607V2.69336H61.9678V4.88477H73.0537V7.0332H61.9893V13.6074H67.4678V16.5508H59.9268V18.8066H77.8232V16.5508ZM87.3193 2.30664H84.5908V10.8359H94.0654V2.30664H91.3154V4.62695H87.3193V2.30664ZM86.5459 14.2305H96.7939V15.4551H86.5889V20.8477H100.081V18.6777H89.2744V17.4102H99.5225V12.1035H86.5459V14.2305ZM87.3193 8.6875V6.68945H91.3154V8.6875H87.3193ZM96.7725 11.373H99.5225V7.44141H102.165V5.22852H99.5225V1.42578H96.7725V11.373ZM119.503 1.44727H116.774V6.49609H113.573V8.70898H116.774V15.7129H119.503V1.44727ZM102.917 11.3086L104.313 13.543C106.623 12.7803 108.181 11.2012 109.051 9.25684C109.899 11.0078 111.393 12.4258 113.552 13.1348L114.905 10.9648C111.801 9.95508 110.404 7.53809 110.415 5.27148V4.94922H114.304V2.75781H103.69V4.94922H107.622V5.25C107.611 7.75293 106.15 10.2988 102.917 11.3086ZM106.526 20.6328H119.976V18.4414H109.276V14.4668H106.526V20.6328ZM137.464 1.42578H134.757V20.9766H137.464V11.3301H140.343V9.07422H137.464V1.42578ZM121.931 6.53906H133.425V4.34766H129.106V1.72656H126.356V4.34766H121.931V6.53906ZM122.726 12.2969C122.715 15.0254 124.842 16.9482 127.731 16.959C130.578 16.9482 132.716 15.0254 132.716 12.2969C132.716 9.56836 130.578 7.62402 127.731 7.63477C124.842 7.62402 122.715 9.56836 122.726 12.2969ZM125.347 12.2969C125.347 10.793 126.346 9.86914 127.731 9.84766C129.096 9.86914 130.095 10.793 130.095 12.2969C130.095 13.8115 129.096 14.7139 127.731 14.7031C126.346 14.7139 125.347 13.8115 125.347 12.2969ZM156.929 6.75391H145.993V2.11328H143.265V8.90234H156.929V6.75391ZM141.03 13.1562H158.927V11.0078H141.03V13.1562ZM143.093 20.5469H157.058V18.3555H145.843V14.7461H143.093V20.5469ZM181.507 1.42578H178.757V13.1992H181.507V1.42578ZM165.222 10.7715L166.64 12.8984C168.938 12.1357 170.528 10.5996 171.42 8.66602C172.301 10.4385 173.837 11.8457 176.028 12.5332L177.425 10.4062C174.234 9.43945 172.773 7.05469 172.763 4.75586H176.694V2.56445H165.952V4.75586H169.97C169.948 7.19434 168.455 9.72949 165.222 10.7715ZM168.058 16.25H178.757V20.9766H181.507V14.0586H168.058V16.25ZM202.024 12.3613H184.128V14.5527H191.669V20.9551H194.376V14.5527H202.024V12.3613ZM186.233 10.2559H199.876V2.37109H186.233V10.2559ZM188.94 8.10742V4.54102H197.147V8.10742H188.94ZM225.099 1.42578H222.456V8.83789H220.673V1.94141H218.116V20.1172H220.673V11.0293H222.456V20.9766H225.099V1.42578ZM207.997 15.0684L209.587 16.959C215.098 13.7578 216.73 9.28906 216.741 3.83203H208.985V6.02344H214.066C213.701 9.8584 211.982 12.7266 207.997 15.0684ZM230.556 2.30664H227.827V10.8359H237.302V2.30664H234.552V4.62695H230.556V2.30664ZM229.782 14.2305H240.03V15.4551H229.825V20.8477H243.317V18.6777H232.511V17.4102H242.759V12.1035H229.782V14.2305ZM230.556 8.6875V6.68945H234.552V8.6875H230.556ZM240.009 11.373H242.759V7.44141H245.401V5.22852H242.759V1.42578H240.009V11.373Z" fill="#222222"/>
</svg>
