<svg width="63" height="16" viewBox="0 0 63 16" fill="none" xmlns="http://www.w3.org/2000/svg">
<path d="M33.6094 1.32812H32.1875V6.89062H30.5156V1.59375H29.1094V14.6406H30.5156V8.14062H32.1875V15.3281H33.6094V1.32812ZM21.3281 11.375L22.25 12.5C23.6797 11.6562 24.6016 10.1875 25.0781 8.35156C25.5781 9.96094 26.5 11.2656 27.875 12.0156L28.75 10.875C26.7109 9.82812 25.7656 7.54688 25.7656 5.03125V4.125H28.2031V2.92188H21.7031V4.125H24.3281V5.03125C24.3281 7.8125 23.375 10.2266 21.3281 11.375ZM41.0781 2.98438H35.8438V12.0469H36.75C38.9219 12.0391 40.25 12.0156 41.8594 11.6875L41.7344 10.4844C40.2891 10.75 39.0938 10.8203 37.2656 10.8438V7.90625H40.4531V6.75H37.2656V4.17188H41.0781V2.98438ZM41.1875 7.78125H43.0781V14.625H44.4844V1.625H43.0781V6.57812H41.1875V7.78125ZM45.9375 15.3281H47.375V1.32812H45.9375V15.3281ZM60.4375 2.6875H50.6875V3.90625H59V4.39062C58.9922 5.10938 58.9922 5.82812 58.9609 6.57812L50.2969 6.90625L50.4844 8.125L58.8906 7.67969C58.8125 8.71875 58.6562 9.83594 58.3594 11.125L59.8281 11.2656C60.4375 8.35938 60.4375 6.4375 60.4375 4.39062V2.6875ZM49.1719 13.4531H61.9375V12.2344H49.1719V13.4531Z" fill="black"/>
<path fill-rule="evenodd" clip-rule="evenodd" d="M14.4236 5.46093L7.97521 0.171311C7.8403 0.0603975 7.6729 0 7.50038 0C7.32787 0 7.16046 0.0603975 7.02555 0.171311L0.576365 5.46093C0.396624 5.60841 0.251451 5.79582 0.151659 6.0092C0.0518675 6.22259 2.75152e-05 6.45644 0 6.69336V14.11C0 14.6113 0.19303 15.092 0.536626 15.4464C0.880221 15.8009 1.34624 16 1.83215 16H5.97359V12.2578C5.97359 12.049 6.05402 11.8487 6.19718 11.701C6.34035 11.5533 6.53452 11.4703 6.73698 11.4703H8.26378C8.46624 11.4703 8.66042 11.5533 8.80358 11.701C8.94675 11.8487 9.02718 12.049 9.02718 12.2578V16H13.1678C13.6538 16 14.1198 15.8009 14.4634 15.4464C14.807 15.092 15 14.6113 15 14.11V6.69415C15 6.45723 14.9481 6.22337 14.8483 6.00999C14.7485 5.79661 14.6034 5.6092 14.4236 5.46172" fill="black"/>
</svg>
