<svg width="375" height="509" viewBox="0 0 375 509" fill="none" xmlns="http://www.w3.org/2000/svg">
<path d="M187.5 306C259.021 306 317 248.021 317 176.5C317 104.979 259.021 47 187.5 47C115.979 47 58 104.979 58 176.5C58 248.021 115.979 306 187.5 306Z" fill="#F2D9FF" stroke="black" stroke-miterlimit="10"/>
<path fill-rule="evenodd" clip-rule="evenodd" d="M16.5265 268.895L187.501 205.384L358.473 268.895H392V537H-16V268.895H16.5265Z" fill="#D092F1"/>
<path d="M187.501 205.384L187.675 204.915L187.501 204.851L187.327 204.915L187.501 205.384ZM16.5265 268.895V269.395H16.6163L16.7006 269.363L16.5265 268.895ZM358.473 268.895L358.299 269.363L358.384 269.395H358.473V268.895ZM392 268.895H392.5V268.395H392V268.895ZM392 537V537.5H392.5V537H392ZM-16 537H-16.5V537.5H-16V537ZM-16 268.895V268.395H-16.5V268.895H-16ZM187.327 204.915L16.3524 268.426L16.7006 269.363L187.675 205.853L187.327 204.915ZM358.648 268.426L187.675 204.915L187.327 205.853L358.299 269.363L358.648 268.426ZM358.473 269.395H392V268.395H358.473V269.395ZM391.5 268.895V537H392.5V268.895H391.5ZM392 536.5H-16V537.5H392V536.5ZM-15.5 537V268.895H-16.5V537H-15.5ZM-16 269.395H16.5265V268.395H-16V269.395Z" fill="black"/>
<path d="M25.1348 143.875C25.1348 143.875 25.1351 143.876 25.1354 143.878C25.1358 143.879 25.1377 143.881 25.1393 143.882C25.1386 143.88 25.1354 143.878 25.1348 143.875Z" fill="#6D50FF" stroke="black" stroke-miterlimit="10"/>
<path d="M59.3946 155.973C58.0874 155.994 57.2775 155.684 56.9191 155.524C53.8708 154.168 53.1724 150.263 53.0651 149.605C43.0706 152.316 31.8194 149.429 26.1621 145.139C33.1525 152.538 41.4651 154.736 47.463 156.187C49.1183 156.587 53.4646 156.642 58.0483 156.211C58.866 156.134 59.6092 156.027 60.2641 155.911C59.9778 155.946 59.6864 155.968 59.3933 155.973L59.3946 155.973Z" fill="#6D50FF" stroke="black" stroke-miterlimit="10"/>
<path d="M61.5463 155.655C61.7495 155.609 61.9376 155.564 62.1095 155.522C62.0997 155.512 62.0887 155.502 62.0772 155.491C61.9013 155.55 61.7247 155.606 61.5463 155.655Z" fill="#6D50FF" stroke="black" stroke-miterlimit="10"/>
<path d="M26.491 145.476C26.3938 145.376 26.2974 145.279 26.2012 145.177C26.2957 145.278 26.3929 145.378 26.491 145.476Z" fill="#C5BCFF" stroke="black" stroke-miterlimit="10"/>
<path d="M61.5464 155.655C61.5569 155.652 61.5661 155.649 61.5767 155.646C61.6858 155.617 61.7934 155.583 61.9011 155.548C61.9402 155.536 61.9789 155.523 62.0176 155.51C65.5656 154.336 68.3415 151.29 69.2129 150.284C66.9475 150.614 58.9299 151.499 50.9717 146.528C44.8963 142.733 42.0203 137.504 40.9283 135.21C39.3707 136.032 37.1279 136.972 34.3113 137.4C28.8084 138.239 24.3883 136.631 22.3669 135.737C22.564 139.296 23.676 141.69 24.6408 143.188C25.0874 143.882 25.5983 144.532 26.1668 145.14C31.825 149.429 43.0736 152.317 53.0665 149.604C53.1738 150.262 53.8722 154.167 56.9205 155.523C57.2789 155.683 58.0888 155.993 59.396 155.972C59.6891 155.967 59.9792 155.946 60.2668 155.91C60.2523 155.914 60.2371 155.915 60.2237 155.917C60.6753 155.863 61.1187 155.772 61.5513 155.652C61.5513 155.652 61.5487 155.653 61.5474 155.653L61.5464 155.655ZM25.1355 143.878C25.1355 143.878 25.1351 143.876 25.1348 143.875C25.1355 143.878 25.1388 143.88 25.1395 143.882C25.1392 143.881 25.1372 143.879 25.1355 143.878Z" fill="#C5BCFF" stroke="black" stroke-miterlimit="10"/>
<path d="M116.947 197.577C116.947 197.577 116.947 197.578 116.947 197.579C116.947 197.581 116.949 197.583 116.95 197.585C116.95 197.582 116.947 197.579 116.947 197.577Z" fill="#6D50FF" stroke="black" stroke-miterlimit="10"/>
<path d="M146.91 218.129C145.642 217.811 144.94 217.302 144.635 217.055C142.042 214.956 142.378 211.003 142.445 210.34C132.089 210.373 121.968 204.672 117.614 199.063C122.451 208.02 129.912 212.294 135.33 215.248C136.825 216.063 141.009 217.241 145.548 218.011C146.358 218.148 147.104 218.237 147.766 218.294C147.48 218.255 147.193 218.2 146.909 218.129H146.91Z" fill="#6D50FF" stroke="black" stroke-miterlimit="10"/>
<path d="M149.069 218.379C149.278 218.387 149.471 218.393 149.648 218.397C149.641 218.385 149.633 218.372 149.624 218.359C149.439 218.37 149.254 218.378 149.069 218.379Z" fill="#6D50FF" stroke="black" stroke-miterlimit="10"/>
<path d="M117.842 199.474C117.774 199.353 117.706 199.234 117.64 199.111C117.705 199.233 117.773 199.354 117.842 199.474Z" fill="#C5BCFF" stroke="black" stroke-miterlimit="10"/>
<path d="M149.069 218.379C149.08 218.379 149.09 218.379 149.101 218.379C149.214 218.379 149.327 218.374 149.439 218.368C149.48 218.367 149.521 218.364 149.562 218.361C153.293 218.146 156.762 215.922 157.865 215.176C155.591 214.908 147.618 213.688 141.217 206.827C136.331 201.588 134.906 195.793 134.445 193.295C132.728 193.686 130.318 194.013 127.487 193.698C121.954 193.084 118.101 190.387 116.38 189C115.649 192.489 116.104 195.089 116.648 196.785C116.9 197.571 117.225 198.332 117.617 199.066C121.972 204.673 132.09 210.374 142.444 210.34C142.378 211.003 142.042 214.956 144.635 217.055C144.94 217.302 145.642 217.811 146.91 218.129C147.194 218.2 147.48 218.255 147.767 218.295C147.752 218.295 147.737 218.292 147.724 218.29C148.174 218.355 148.626 218.382 149.075 218.378C149.075 218.378 149.072 218.378 149.071 218.378L149.069 218.379ZM116.947 197.58C116.947 197.58 116.947 197.578 116.947 197.577C116.947 197.58 116.95 197.582 116.95 197.585C116.95 197.584 116.949 197.581 116.947 197.58Z" fill="#C5BCFF" stroke="black" stroke-miterlimit="10"/>
<path d="M307.337 265.968C307.337 265.968 307.337 265.968 307.334 265.968C307.333 265.968 307.33 265.966 307.329 265.965C307.332 265.965 307.334 265.968 307.337 265.968Z" fill="#6D50FF" stroke="black" stroke-miterlimit="10"/>
<path d="M271.663 272.689C272.783 272.013 273.639 271.877 274.029 271.834C277.342 271.479 279.891 274.512 280.311 275.029C287.611 267.66 298.786 264.514 305.818 265.391C296.084 262.489 287.796 264.757 281.883 266.513C280.251 266.997 276.462 269.132 272.709 271.807C272.04 272.283 271.451 272.75 270.94 273.179C271.17 273.004 271.411 272.839 271.663 272.689Z" fill="#6D50FF" stroke="black" stroke-miterlimit="10"/>
<path d="M269.96 274.044C269.807 274.186 269.667 274.32 269.54 274.442C269.554 274.447 269.569 274.449 269.582 274.453C269.705 274.314 269.83 274.178 269.96 274.045V274.044Z" fill="#6D50FF" stroke="black" stroke-miterlimit="10"/>
<path d="M305.367 265.262C305.501 265.301 305.633 265.336 305.766 265.376C305.634 265.336 305.501 265.298 305.367 265.262Z" fill="#C5BCFF" stroke="black" stroke-miterlimit="10"/>
<path d="M269.961 274.044C269.954 274.051 269.947 274.059 269.939 274.066C269.86 274.146 269.783 274.23 269.708 274.313C269.681 274.343 269.652 274.374 269.625 274.404C267.138 277.202 266.252 281.237 266 282.546C267.796 281.122 274.295 276.33 283.657 276.641C290.805 276.879 295.896 279.968 297.983 281.406C298.922 279.912 300.396 277.972 302.62 276.186C306.965 272.696 311.591 271.87 313.786 271.63C311.843 268.643 309.689 267.128 308.108 266.313C307.376 265.937 306.61 265.63 305.815 265.388C298.783 264.512 287.61 267.659 280.311 275.027C279.889 274.511 277.342 271.477 274.029 271.832C273.639 271.874 272.784 272.01 271.663 272.686C271.411 272.838 271.172 273.001 270.941 273.176C270.951 273.166 270.964 273.157 270.975 273.147C270.611 273.422 270.272 273.722 269.958 274.043C269.958 274.043 269.959 274.041 269.961 274.04V274.044ZM307.336 265.967C307.336 265.967 307.336 265.967 307.339 265.967C307.336 265.967 307.334 265.964 307.331 265.964C307.332 265.964 307.335 265.965 307.336 265.967Z" fill="#C5BCFF" stroke="black" stroke-miterlimit="10"/>
<path d="M308.711 221.348C308.711 221.348 308.711 221.349 308.711 221.35C308.711 221.352 308.712 221.354 308.714 221.356C308.714 221.353 308.711 221.35 308.711 221.348Z" fill="#6D50FF" stroke="black" stroke-miterlimit="10"/>
<path d="M338.672 241.9C337.404 241.582 336.702 241.073 336.397 240.826C333.804 238.727 334.14 234.774 334.206 234.111C323.851 234.144 313.73 228.443 309.376 222.834C314.213 231.791 321.674 236.065 327.092 239.019C328.587 239.834 332.771 241.012 337.31 241.782C338.12 241.919 338.865 242.008 339.528 242.065C339.242 242.026 338.955 241.971 338.671 241.9H338.672Z" fill="#6D50FF" stroke="black" stroke-miterlimit="10"/>
<path d="M340.833 242.149C341.041 242.157 341.234 242.163 341.411 242.167C341.404 242.154 341.396 242.142 341.388 242.128C341.203 242.139 341.018 242.148 340.833 242.149Z" fill="#6D50FF" stroke="black" stroke-miterlimit="10"/>
<path d="M309.606 223.245C309.538 223.124 309.47 223.005 309.403 222.882C309.469 223.004 309.537 223.125 309.606 223.245Z" fill="#C5BCFF" stroke="black" stroke-miterlimit="10"/>
<path d="M340.833 242.149C340.844 242.149 340.853 242.149 340.864 242.149C340.977 242.149 341.09 242.143 341.203 242.138C341.244 242.136 341.285 242.134 341.326 242.131C345.056 241.915 348.526 239.692 349.628 238.945C347.355 238.678 339.381 237.458 332.981 230.596C328.095 225.358 326.67 219.563 326.209 217.065C324.492 217.455 322.082 217.783 319.25 217.467C313.718 216.853 309.865 214.156 308.143 212.77C307.413 216.258 307.867 218.858 308.412 220.555C308.663 221.341 308.988 222.101 309.38 222.836C313.736 228.443 323.854 234.144 334.208 234.11C334.141 234.773 333.805 238.726 336.399 240.825C336.703 241.072 337.406 241.581 338.674 241.899C338.958 241.97 339.244 242.024 339.531 242.064C339.516 242.064 339.501 242.061 339.487 242.06C339.938 242.124 340.389 242.151 340.838 242.147C340.838 242.147 340.836 242.147 340.834 242.147L340.833 242.149ZM308.711 221.349C308.711 221.349 308.711 221.348 308.711 221.346C308.711 221.349 308.714 221.352 308.714 221.355C308.714 221.353 308.712 221.351 308.711 221.349Z" fill="#C5BCFF" stroke="black" stroke-miterlimit="10"/>
<path d="M63.0264 119.161C63.0264 119.161 63.0264 119.161 63.0251 119.159C63.0244 119.158 63.0242 119.155 63.0247 119.153C63.026 119.155 63.0251 119.159 63.0264 119.161Z" fill="#6D50FF" stroke="black" stroke-miterlimit="10"/>
<path d="M39.3706 91.6268C40.5156 92.2587 41.0617 92.9317 41.2936 93.2487C43.2575 95.9406 41.9053 99.664 41.6676 100.287C51.6992 102.924 60.0113 111.029 62.7684 117.557C60.4143 107.676 54.3059 101.633 49.8292 97.3893C48.5938 96.2188 44.8505 94.0044 40.6573 92.0921C39.9101 91.7505 39.2113 91.4736 38.585 91.2461C38.8513 91.3578 39.1147 91.4838 39.3706 91.6268Z" fill="#6D50FF" stroke="black" stroke-miterlimit="10"/>
<path d="M37.3439 90.8297C37.1441 90.7675 36.9581 90.713 36.7885 90.6649C36.7918 90.6787 36.7969 90.693 36.8001 90.7068C36.9819 90.7433 37.1627 90.7834 37.3427 90.8304L37.3439 90.8297Z" fill="#6D50FF" stroke="black" stroke-miterlimit="10"/>
<path d="M62.6527 117.101C62.6863 117.236 62.7215 117.368 62.7539 117.503C62.7222 117.369 62.6886 117.234 62.6527 117.101Z" fill="#C5BCFF" stroke="black" stroke-miterlimit="10"/>
<path d="M37.3429 90.8296C37.3336 90.8271 37.3231 90.8253 37.3131 90.8217C37.2039 90.7936 37.093 90.768 36.9835 90.7449C36.9439 90.7363 36.9024 90.7273 36.8628 90.7187C33.196 89.9637 29.259 91.2139 27.9996 91.6503C30.1305 92.494 37.5298 95.7258 41.9416 103.99C45.3097 110.298 45.1805 116.252 44.9783 118.779C46.742 118.845 49.1585 119.151 51.8181 120.184C57.0128 122.202 60.041 125.795 61.3464 127.576C62.9612 124.4 63.1963 121.777 63.1114 120.001C63.0716 119.178 62.9546 118.361 62.7665 117.552C60.0094 111.025 51.6969 102.922 41.667 100.285C41.9029 99.6615 43.257 95.9385 41.2931 93.2466C41.0612 92.9296 40.5158 92.2578 39.3701 91.6247C39.113 91.4824 38.8514 91.3569 38.5845 91.244C38.5982 91.2486 38.6126 91.2545 38.6263 91.2591C38.2071 91.0817 37.7776 90.9384 37.3427 90.8266C37.3427 90.8266 37.3446 90.8271 37.3464 90.8275L37.3429 90.8296ZM63.0259 119.159C63.0259 119.159 63.0259 119.159 63.0273 119.161C63.0259 119.159 63.0269 119.155 63.0256 119.153C63.0262 119.154 63.0264 119.157 63.0259 119.159Z" fill="#C5BCFF" stroke="black" stroke-miterlimit="10"/>
<path d="M117.353 86.6029C114.25 86.6029 111.73 84.101 111.681 81C111.681 81 111.679 81 111.678 81C111.677 81 111.677 81 111.675 81C111.626 84.1024 109.106 86.6029 106.003 86.6029C106.003 86.6329 106 86.6643 106 86.6943C106 86.7243 106.001 86.7557 106.003 86.7858C109.106 86.7858 111.626 89.2876 111.675 92.3886C111.675 92.3886 111.677 92.3886 111.678 92.3886C111.679 92.3886 111.679 92.3886 111.681 92.3886C111.73 89.2862 114.25 86.7858 117.353 86.7858C117.353 86.7557 117.356 86.7243 117.356 86.6943C117.356 86.6643 117.355 86.6329 117.353 86.6029Z" fill="#FFDF46" stroke="black" stroke-miterlimit="10"/>
<path d="M61.4802 66.3282C58.3766 66.3282 55.8566 63.8264 55.8077 60.7253C55.8077 60.7253 55.8063 60.7253 55.8049 60.7253C55.8036 60.7253 55.8036 60.7253 55.8022 60.7253C55.7532 63.8277 53.2333 66.3282 50.1297 66.3282C50.1297 66.3582 50.127 66.3896 50.127 66.4196C50.127 66.4497 50.1283 66.4811 50.1297 66.5111C53.2333 66.5111 55.7532 69.0129 55.8022 72.114C55.8022 72.114 55.8036 72.114 55.8049 72.114C55.8063 72.114 55.8063 72.114 55.8077 72.114C55.8566 69.0116 58.3766 66.5111 61.4802 66.5111C61.4802 66.4811 61.4829 66.4497 61.4829 66.4196C61.4829 66.3896 61.4816 66.3582 61.4802 66.3282Z" fill="#FFDF46" stroke="black" stroke-miterlimit="10"/>
<path d="M130.353 40.6029C127.25 40.6029 124.73 38.101 124.681 35C124.681 35 124.679 35 124.678 35C124.677 35 124.677 35 124.675 35C124.626 38.1024 122.106 40.6029 119.003 40.6029C119.003 40.6329 119 40.6643 119 40.6943C119 40.7243 119.001 40.7557 119.003 40.7858C122.106 40.7858 124.626 43.2876 124.675 46.3886C124.675 46.3886 124.677 46.3886 124.678 46.3886C124.679 46.3886 124.679 46.3886 124.681 46.3886C124.73 43.2862 127.25 40.7858 130.353 40.7858C130.353 40.7557 130.356 40.7243 130.356 40.6943C130.356 40.6643 130.355 40.6329 130.353 40.6029Z" fill="#FFDF46" stroke="black" stroke-miterlimit="10"/>
<path d="M22.3532 44.6029C19.2496 44.6029 16.7297 42.101 16.6807 39C16.6807 39 16.6793 39 16.678 39C16.6766 39 16.6766 39 16.6753 39C16.6263 42.1024 14.1064 44.6029 11.0027 44.6029C11.0027 44.6329 11 44.6643 11 44.6943C11 44.7243 11.0014 44.7557 11.0027 44.7858C14.1064 44.7858 16.6263 47.2876 16.6753 50.3886C16.6753 50.3886 16.6766 50.3886 16.678 50.3886C16.6793 50.3886 16.6793 50.3886 16.6807 50.3886C16.7297 47.2862 19.2496 44.7858 22.3532 44.7858C22.3532 44.7557 22.356 44.7243 22.356 44.6943C22.356 44.6643 22.3546 44.6329 22.3532 44.6029Z" fill="#FFDF46" stroke="black" stroke-miterlimit="10"/>
<path d="M52.3532 8.60286C49.2496 8.60286 46.7297 6.10102 46.6807 3C46.6807 3 46.6793 3 46.678 3C46.6766 3 46.6766 3 46.6753 3C46.6263 6.10239 44.1064 8.60286 41.0027 8.60286C41.0027 8.63288 41 8.66428 41 8.6943C41 8.72433 41.0014 8.75572 41.0027 8.78575C44.1064 8.78575 46.6263 11.2876 46.6753 14.3886C46.6753 14.3886 46.6766 14.3886 46.678 14.3886C46.6793 14.3886 46.6793 14.3886 46.6807 14.3886C46.7297 11.2862 49.2496 8.78575 52.3532 8.78575C52.3532 8.75572 52.356 8.72433 52.356 8.6943C52.356 8.66428 52.3546 8.63288 52.3532 8.60286Z" fill="#FFDF46" stroke="black" stroke-miterlimit="10"/>
<path d="M289.353 26.6029C286.25 26.6029 283.73 24.101 283.681 21C283.681 21 283.679 21 283.678 21C283.677 21 283.677 21 283.675 21C283.626 24.1024 281.106 26.6029 278.003 26.6029C278.003 26.6329 278 26.6643 278 26.6943C278 26.7243 278.001 26.7557 278.003 26.7858C281.106 26.7858 283.626 29.2876 283.675 32.3886C283.675 32.3886 283.677 32.3886 283.678 32.3886C283.679 32.3886 283.679 32.3886 283.681 32.3886C283.73 29.2862 286.25 26.7858 289.353 26.7858C289.353 26.7557 289.356 26.7243 289.356 26.6943C289.356 26.6643 289.355 26.6329 289.353 26.6029Z" fill="#FFDF46" stroke="black" stroke-miterlimit="10"/>
<path d="M354.353 6.60286C351.25 6.60286 348.73 4.10102 348.681 1C348.681 1 348.679 1 348.678 1C348.677 1 348.677 1 348.675 1C348.626 4.10239 346.106 6.60286 343.003 6.60286C343.003 6.63288 343 6.66428 343 6.6943C343 6.72433 343.001 6.75572 343.003 6.78575C346.106 6.78575 348.626 9.28759 348.675 12.3886C348.675 12.3886 348.677 12.3886 348.678 12.3886C348.679 12.3886 348.679 12.3886 348.681 12.3886C348.73 9.28622 351.25 6.78575 354.353 6.78575C354.353 6.75572 354.356 6.72433 354.356 6.6943C354.356 6.66428 354.355 6.63288 354.353 6.60286Z" fill="#FFDF46" stroke="black" stroke-miterlimit="10"/>
<path d="M158.353 108.603C155.25 108.603 152.73 106.101 152.681 103C152.681 103 152.679 103 152.678 103C152.677 103 152.677 103 152.675 103C152.626 106.102 150.106 108.603 147.003 108.603C147.003 108.633 147 108.664 147 108.694C147 108.724 147.001 108.756 147.003 108.786C150.106 108.786 152.626 111.288 152.675 114.389C152.675 114.389 152.677 114.389 152.678 114.389C152.679 114.389 152.679 114.389 152.681 114.389C152.73 111.286 155.25 108.786 158.353 108.786C158.353 108.756 158.356 108.724 158.356 108.694C158.356 108.664 158.355 108.633 158.353 108.603Z" fill="#FFDF46" stroke="black" stroke-miterlimit="10"/>
<path d="M178.947 258.577C178.947 258.577 178.947 258.578 178.947 258.579C178.947 258.581 178.949 258.583 178.95 258.585C178.95 258.582 178.947 258.579 178.947 258.577Z" fill="#6D50FF" stroke="black" stroke-miterlimit="10"/>
<path d="M208.908 279.129C207.64 278.811 206.938 278.302 206.633 278.055C204.04 275.956 204.376 272.003 204.443 271.34C194.087 271.373 183.966 265.672 179.612 260.063C184.449 269.02 191.91 273.294 197.328 276.248C198.823 277.063 203.007 278.241 207.546 279.011C208.356 279.148 209.102 279.237 209.764 279.294C209.479 279.255 209.191 279.2 208.907 279.129H208.908Z" fill="#6D50FF" stroke="black" stroke-miterlimit="10"/>
<path d="M211.069 279.379C211.278 279.387 211.471 279.393 211.648 279.397C211.641 279.385 211.633 279.372 211.624 279.359C211.439 279.37 211.254 279.378 211.069 279.379Z" fill="#6D50FF" stroke="black" stroke-miterlimit="10"/>
<path d="M179.842 260.474C179.774 260.353 179.706 260.234 179.64 260.111C179.705 260.233 179.773 260.354 179.842 260.474Z" fill="#C5BCFF" stroke="black" stroke-miterlimit="10"/>
<path d="M211.069 279.379C211.08 279.379 211.09 279.379 211.101 279.379C211.214 279.379 211.327 279.374 211.439 279.368C211.48 279.367 211.521 279.364 211.562 279.361C215.293 279.146 218.762 276.922 219.865 276.176C217.591 275.908 209.618 274.688 203.217 267.827C198.331 262.588 196.906 256.793 196.445 254.295C194.728 254.686 192.318 255.013 189.487 254.698C183.954 254.084 180.101 251.387 178.38 250C177.649 253.489 178.104 256.089 178.648 257.785C178.9 258.571 179.225 259.332 179.617 260.066C183.972 265.673 194.09 271.374 204.444 271.34C204.378 272.003 204.042 275.956 206.635 278.055C206.94 278.302 207.642 278.811 208.91 279.129C209.194 279.2 209.48 279.255 209.767 279.295C209.752 279.295 209.737 279.292 209.724 279.29C210.174 279.355 210.626 279.382 211.075 279.378C211.075 279.378 211.072 279.378 211.071 279.378L211.069 279.379ZM178.947 258.58C178.947 258.58 178.947 258.578 178.947 258.577C178.947 258.58 178.95 258.582 178.95 258.585C178.95 258.584 178.949 258.581 178.947 258.58Z" fill="#C5BCFF" stroke="black" stroke-miterlimit="10"/>
<path d="M30.8152 170.473C27.7115 170.473 25.1916 167.971 25.1426 164.87C25.1426 164.87 25.1413 164.87 25.1399 164.87C25.1385 164.87 25.1385 164.87 25.1372 164.87C25.0882 167.973 22.5683 170.473 19.4646 170.473C19.4646 170.503 19.4619 170.534 19.4619 170.564C19.4619 170.594 19.4633 170.626 19.4646 170.656C22.5683 170.656 25.0882 173.158 25.1372 176.259C25.1372 176.259 25.1385 176.259 25.1399 176.259C25.1413 176.259 25.1413 176.259 25.1426 176.259C25.1916 173.156 27.7115 170.656 30.8152 170.656C30.8152 170.626 30.8179 170.594 30.8179 170.564C30.8179 170.534 30.8165 170.503 30.8152 170.473Z" fill="#FFDF46" stroke="black" stroke-miterlimit="10"/>
<path d="M334.541 114.185C334.541 111.072 337.035 108.544 340.127 108.495C340.127 108.495 340.127 108.494 340.127 108.492C340.127 108.491 340.127 108.491 340.127 108.49C337.034 108.44 334.541 105.913 334.541 102.799C334.511 102.799 334.48 102.797 334.45 102.797C334.42 102.797 334.389 102.798 334.359 102.799C334.359 105.913 331.865 108.44 328.773 108.49C328.773 108.49 328.773 108.491 328.773 108.492C328.773 108.494 328.773 108.494 328.773 108.495C331.866 108.544 334.359 111.072 334.359 114.185C334.389 114.185 334.42 114.188 334.45 114.188C334.48 114.188 334.511 114.187 334.541 114.185Z" fill="#FFDF46" stroke="black" stroke-miterlimit="10"/>
<path d="M219.768 38.3886C219.768 35.2753 222.262 32.7475 225.353 32.6984C225.353 32.6984 225.353 32.697 225.353 32.6957C225.353 32.6943 225.353 32.6943 225.353 32.6929C222.26 32.6438 219.768 30.116 219.768 27.0027C219.738 27.0027 219.707 27 219.677 27C219.647 27 219.615 27.0014 219.585 27.0027C219.585 30.116 217.091 32.6438 214 32.6929C214 32.6929 214 32.6943 214 32.6957C214 32.697 214 32.697 214 32.6984C217.093 32.7475 219.585 35.2753 219.585 38.3886C219.615 38.3886 219.647 38.3913 219.677 38.3913C219.707 38.3913 219.738 38.39 219.768 38.3886Z" fill="#FFDF46" stroke="black" stroke-miterlimit="10"/>
<path d="M316.744 66.4169C316.744 63.3036 319.238 60.7759 322.33 60.7267C322.33 60.7267 322.33 60.7254 322.33 60.724C322.33 60.7226 322.33 60.7226 322.33 60.7213C319.237 60.6721 316.744 58.1444 316.744 55.0311C316.714 55.0311 316.683 55.0283 316.653 55.0283C316.623 55.0283 316.592 55.0297 316.562 55.0311C316.562 58.1444 314.068 60.6721 310.977 60.7213C310.977 60.7213 310.977 60.7226 310.977 60.724C310.977 60.7254 310.977 60.7254 310.977 60.7267C314.069 60.7759 316.562 63.3036 316.562 66.4169C316.592 66.4169 316.623 66.4197 316.653 66.4197C316.683 66.4197 316.714 66.4183 316.744 66.4169Z" fill="#FFDF46" stroke="black" stroke-miterlimit="10"/>
<path d="M264.768 123.389C264.768 120.275 267.262 117.748 270.353 117.698C270.353 117.698 270.353 117.697 270.353 117.696C270.353 117.694 270.353 117.694 270.353 117.693C267.26 117.644 264.768 115.116 264.768 112.003C264.738 112.003 264.707 112 264.677 112C264.647 112 264.615 112.001 264.585 112.003C264.585 115.116 262.091 117.644 259 117.693C259 117.693 259 117.694 259 117.696C259 117.697 259 117.697 259 117.698C262.093 117.748 264.585 120.275 264.585 123.389C264.615 123.389 264.647 123.391 264.677 123.391C264.707 123.391 264.738 123.39 264.768 123.389Z" fill="#FFDF46" stroke="black" stroke-miterlimit="10"/>
<rect x="199.047" y="166.651" width="17.2198" height="27.2557" rx="2.25" transform="rotate(-35.7823 199.047 166.651)" fill="#5D00BF" stroke="black" stroke-width="1.5"/>
<path d="M244.768 87.3886C244.768 84.2753 247.262 81.7475 250.353 81.6984C250.353 81.6984 250.353 81.697 250.353 81.6957C250.353 81.6943 250.353 81.6943 250.353 81.6929C247.26 81.6438 244.768 79.116 244.768 76.0027C244.738 76.0027 244.707 76 244.677 76C244.647 76 244.615 76.0014 244.585 76.0027C244.585 79.116 242.091 81.6438 239 81.6929C239 81.6929 239 81.6943 239 81.6957C239 81.697 239 81.697 239 81.6984C242.093 81.7475 244.585 84.2753 244.585 87.3886C244.615 87.3886 244.647 87.3913 244.677 87.3913C244.707 87.3913 244.738 87.39 244.768 87.3886Z" fill="#FFDF46" stroke="black" stroke-miterlimit="10"/>
<path d="M349.719 215.108C349.719 211.994 352.213 209.467 355.304 209.417C355.304 209.417 355.304 209.416 355.304 209.415C355.304 209.413 355.304 209.413 355.304 209.412C352.212 209.363 349.719 206.835 349.719 203.722C349.689 203.722 349.658 203.719 349.628 203.719C349.598 203.719 349.567 203.72 349.537 203.722C349.537 206.835 347.043 209.363 343.951 209.412C343.951 209.412 343.951 209.413 343.951 209.415C343.951 209.416 343.951 209.416 343.951 209.417C347.044 209.467 349.537 211.994 349.537 215.108C349.567 215.108 349.598 215.11 349.628 215.11C349.658 215.11 349.689 215.109 349.719 215.108Z" fill="#FFDF46" stroke="black" stroke-miterlimit="10"/>
<path d="M299.546 152.996C299.546 149.882 302.04 147.355 305.132 147.306C305.132 147.306 305.132 147.304 305.132 147.303C305.132 147.301 305.132 147.301 305.132 147.3C302.039 147.251 299.546 144.723 299.546 141.61C299.516 141.61 299.485 141.607 299.455 141.607C299.425 141.607 299.394 141.609 299.364 141.61C299.364 144.723 296.87 147.251 293.778 147.3C293.778 147.3 293.778 147.301 293.778 147.303C293.778 147.304 293.778 147.304 293.778 147.306C296.871 147.355 299.364 149.882 299.364 152.996C299.394 152.996 299.425 152.999 299.455 152.999C299.485 152.999 299.516 152.997 299.546 152.996Z" fill="#FFDF46" stroke="black" stroke-miterlimit="10"/>
<path d="M91.6799 202.903C91.6799 199.789 94.174 197.262 97.2654 197.213C97.2654 197.213 97.2654 197.211 97.2654 197.21C97.2654 197.21 97.2654 197.208 97.2654 197.207C94.1726 197.158 91.6799 194.63 91.6799 191.517C91.65 191.517 91.6187 191.514 91.5887 191.514C91.5588 191.514 91.5275 191.516 91.4976 191.517C91.4976 194.63 89.0035 197.158 85.9121 197.207C85.9121 197.207 85.9121 197.208 85.9121 197.21C85.9121 197.211 85.9121 197.211 85.9121 197.213C89.0049 197.262 91.4976 199.789 91.4976 202.903C91.5275 202.903 91.5588 202.906 91.5887 202.906C91.6187 202.906 91.65 202.904 91.6799 202.903Z" fill="#FFDF46" stroke="black" stroke-miterlimit="10"/>
<path d="M274.768 184.389C274.768 181.275 277.262 178.748 280.353 178.698C280.353 178.698 280.353 178.697 280.353 178.696C280.353 178.696 280.353 178.694 280.353 178.693C277.26 178.644 274.768 176.116 274.768 173.003C274.738 173.003 274.707 173 274.677 173C274.647 173 274.615 173.001 274.585 173.003C274.585 176.116 272.091 178.644 269 178.693C269 178.693 269 178.694 269 178.696C269 178.697 269 178.697 269 178.698C272.093 178.748 274.585 181.275 274.585 184.389C274.615 184.389 274.647 184.391 274.677 184.391C274.707 184.391 274.738 184.39 274.768 184.389Z" fill="#FFDF46" stroke="black" stroke-miterlimit="10"/>
<path d="M42.4856 241.99C42.4856 238.877 44.9796 236.349 48.071 236.3C48.071 236.3 48.071 236.299 48.071 236.297C48.071 236.297 48.071 236.296 48.071 236.295C44.9783 236.246 42.4856 233.718 42.4856 230.605C42.4556 230.605 42.4243 230.602 42.3944 230.602C42.3645 230.602 42.3332 230.603 42.3032 230.605C42.3032 233.718 39.8092 236.246 36.7178 236.295C36.7178 236.295 36.7178 236.296 36.7178 236.297C36.7178 236.299 36.7178 236.299 36.7178 236.3C39.8105 236.349 42.3032 238.877 42.3032 241.99C42.3332 241.99 42.3645 241.993 42.3944 241.993C42.4243 241.993 42.4556 241.992 42.4856 241.99Z" fill="#FFDF46" stroke="black" stroke-miterlimit="10"/>
<path d="M242.521 135.183V135.178V135.174H242.51L205.826 124.395C205.771 123.991 205.585 123.626 205.31 123.35C204.981 123.02 204.528 122.815 204.028 122.815L188.177 119.127L172.572 122.815C172.072 122.815 171.618 123.02 171.29 123.35C171.148 123.492 171.033 123.657 170.943 123.84L164.025 124.139L146.196 145.927L117.94 129.991L108.693 150.274L146.367 161.855L146.37 161.858H146.371H146.375L146.379 161.85L172.136 139.033L172.268 140.416L173.781 156.192C173.781 156.693 173.985 157.149 174.315 157.478C174.644 157.808 175.097 158.013 175.596 158.013H201C201.499 158.013 201.953 157.808 202.281 157.478C202.611 157.148 202.815 156.693 202.815 156.192L204.302 140.689L229.179 143.822L230.806 176.297L252.842 173.328L242.518 135.183H242.521Z" fill="#B03EF5" stroke="black" stroke-miterlimit="10"/>
<path d="M251.428 232.124C244.51 241.01 246.843 253.831 255.532 259.454C263.609 264.68 275.188 262.405 281.002 253.735C280.049 248.931 278.886 241.457 278.826 232.23C278.751 220.346 280.562 213.971 276.65 210.725C274.124 208.627 271.504 209.74 261.646 209.574C255.212 209.467 249.994 208.887 246.643 208.424C248.24 216.34 249.828 224.209 251.425 232.124" fill="#B03EF5"/>
<path d="M251.428 232.124C244.51 241.01 246.843 253.831 255.532 259.454C263.609 264.68 275.188 262.405 281.002 253.735C280.049 248.931 278.886 241.457 278.826 232.23C278.751 220.346 280.562 213.971 276.65 210.725C274.124 208.627 271.504 209.74 261.646 209.574C255.212 209.467 249.994 208.887 246.643 208.424C248.24 216.34 249.828 224.209 251.425 232.124" stroke="black" stroke-miterlimit="10"/>
<path d="M194.159 110.763H181.943V118.532H194.159V110.763Z" fill="#F4DBCB" stroke="black" stroke-miterlimit="10"/>
<path d="M201.647 91.1732C201.405 91.1732 201.167 91.1855 200.932 91.2074C201.396 92.5736 201.647 94.0354 201.647 95.5532V102.106C201.647 103.624 201.396 105.086 200.932 106.452C201.167 106.474 201.407 106.486 201.647 106.486C205.863 106.486 209.281 103.057 209.281 98.8289C209.281 94.6005 205.863 91.1719 201.647 91.1719V91.1732Z" fill="#F4DBCB" stroke="black" stroke-miterlimit="10"/>
<path d="M176.117 102.106V95.5533C176.117 94.1679 176.328 92.8289 176.717 91.5678C175.957 91.3126 175.144 91.1733 174.299 91.1733C170.084 91.1733 166.666 94.6019 166.666 98.8304C166.666 103.059 170.084 106.487 174.299 106.487C175.144 106.487 175.958 106.347 176.717 106.093C176.328 104.832 176.117 103.493 176.117 102.107V102.106Z" fill="#F4DBCB" stroke="black" stroke-miterlimit="10"/>
<path d="M170.756 100.936C173.034 100.936 175.311 101.803 177.039 103.536C178.767 105.27 179.631 107.555 179.631 109.839" stroke="black" stroke-miterlimit="10"/>
<path d="M205.842 100.936C203.565 100.936 201.287 101.803 199.559 103.536C197.831 105.27 196.967 107.555 196.967 109.839" stroke="black" stroke-miterlimit="10"/>
<path d="M189.488 81.989H186.765C180.048 81.989 174.604 87.4508 174.604 94.1884V103.471C174.604 110.208 180.048 115.67 186.765 115.67H189.488C196.204 115.67 201.649 110.208 201.649 103.471V94.1884C201.649 87.4508 196.204 81.989 189.488 81.989Z" fill="#F4DBCB" stroke="black" stroke-miterlimit="10"/>
<path d="M182.189 100.487C182.839 100.487 183.366 99.9586 183.366 99.3066C183.366 98.6546 182.839 98.126 182.189 98.126C181.539 98.126 181.012 98.6546 181.012 99.3066C181.012 99.9586 181.539 100.487 182.189 100.487Z" fill="black"/>
<path d="M193.912 100.487C194.562 100.487 195.089 99.9586 195.089 99.3066C195.089 98.6546 194.562 98.126 193.912 98.126C193.262 98.126 192.735 98.6546 192.735 99.3066C192.735 99.9586 193.262 100.487 193.912 100.487Z" fill="black"/>
<path d="M188.125 104.967H187.491C186.89 104.967 186.397 104.473 186.397 103.869C186.397 103.266 186.89 102.772 187.491 102.772H188.125" fill="#F4DBCB"/>
<path d="M188.125 104.967H187.491C186.89 104.967 186.397 104.473 186.397 103.869C186.397 103.266 186.89 102.772 187.491 102.772H188.125" stroke="black" stroke-miterlimit="10"/>
<path d="M194.401 106.345C192.79 107.961 190.57 108.963 188.126 108.963C185.682 108.963 183.462 107.96 181.851 106.345" fill="#F4DBCB"/>
<path d="M194.401 106.345C192.79 107.961 190.57 108.963 188.126 108.963C185.682 108.963 183.462 107.96 181.851 106.345" stroke="black" stroke-miterlimit="10"/>
<path d="M177.866 95.1028C180.126 95.6624 182.386 96.2234 184.648 96.783L177.866 95.1028Z" fill="#3154B4"/>
<path d="M177.866 95.1028C180.126 95.6624 182.386 96.2234 184.648 96.783" stroke="black" stroke-miterlimit="10"/>
<path d="M176.998 81.054C176.778 81.1741 176.472 81.3897 176.299 81.7555C176.087 82.2032 176.179 82.6523 176.221 82.8474C177.178 87.2465 179.642 90.2574 179.642 90.2574C180.95 91.8489 182.931 94.2047 186.33 95.5613C187.198 95.908 190.139 97.0832 190.918 96.1073C191.98 94.7752 188.349 90.2629 188.586 90.1018C188.761 89.9817 190.405 92.7497 193.251 95.0154C195.28 96.6301 197.167 97.3794 198.694 97.9799C200.969 98.8739 204.151 100.126 208.167 99.7638C208.7 99.7161 215.861 99.0063 216.385 95.8111C216.622 94.3657 215.412 92.9531 214.472 92.085C217.981 90.3393 218.348 88.4039 218.412 87.9071C218.776 85.079 215.28 82.382 211.831 79.7205C210.361 78.5863 209.046 77.7605 208.095 77.2064C208.448 77.2528 210.379 77.4848 210.842 76.6222C211.308 75.7528 210.019 74.265 209.482 73.6481C205.195 68.7059 187.376 62.2527 180.077 70.0544C179.25 70.9388 178.745 71.8055 178.479 72.3187C179.114 69.245 178.471 66.9288 177.313 66.5466C176.42 66.2518 175.244 67.113 174.669 67.9511C173.761 69.2736 173.881 71.22 175.058 72.7869C174.51 72.6558 173.691 72.5248 172.726 72.6313C168.047 73.1458 164.705 78.7077 163.706 83.1614C162.831 87.0608 162.925 93.7938 166.35 95.0168C169.098 95.9981 172.478 92.8903 173.037 92.3648C173.642 96.6191 174.201 97.5295 174.608 97.5404C175.371 97.5582 176.186 94.4326 177.314 90.1032C177.592 89.0399 177.802 88.1541 177.941 87.5495" fill="#3154B4"/>
<path d="M176.998 81.054C176.778 81.1741 176.472 81.3897 176.299 81.7555C176.087 82.2032 176.179 82.6523 176.221 82.8474C177.178 87.2465 179.642 90.2574 179.642 90.2574C180.95 91.8489 182.931 94.2047 186.33 95.5613C187.198 95.908 190.139 97.0832 190.918 96.1073C191.98 94.7752 188.349 90.2629 188.586 90.1018C188.761 89.9817 190.405 92.7497 193.251 95.0154C195.28 96.6301 197.167 97.3794 198.694 97.9799C200.969 98.8739 204.151 100.126 208.167 99.7638C208.7 99.7161 215.861 99.0063 216.385 95.8111C216.622 94.3657 215.412 92.9531 214.472 92.085C217.981 90.3393 218.348 88.4039 218.412 87.9071C218.776 85.079 215.28 82.382 211.831 79.7205C210.361 78.5863 209.046 77.7605 208.095 77.2064C208.448 77.2528 210.379 77.4848 210.842 76.6222C211.308 75.7528 210.019 74.265 209.482 73.6481C205.195 68.7059 187.376 62.2527 180.077 70.0544C179.25 70.9388 178.745 71.8055 178.479 72.3187C179.114 69.245 178.471 66.9288 177.313 66.5466C176.42 66.2518 175.244 67.113 174.669 67.9511C173.761 69.2736 173.881 71.22 175.058 72.7869C174.51 72.6558 173.691 72.5248 172.726 72.6313C168.047 73.1458 164.705 78.7077 163.706 83.1614C162.831 87.0608 162.925 93.7938 166.35 95.0168C169.098 95.9981 172.478 92.8903 173.037 92.3648C173.642 96.6191 174.201 97.5295 174.608 97.5404C175.371 97.5582 176.186 94.4326 177.314 90.1032C177.592 89.0399 177.802 88.1541 177.941 87.5495" stroke="black" stroke-miterlimit="10"/>
<path d="M176.999 81.054C176.778 81.1741 176.472 81.3897 176.299 81.7555C176.087 82.2032 176.179 82.6523 176.222 82.8474C177.178 87.2465 179.642 90.2574 179.642 90.2574C180.95 91.8489 182.931 94.2047 186.33 95.5613C187.198 95.908 190.14 97.0832 190.918 96.1073C191.981 94.7752 188.349 90.2629 188.586 90.1018C188.761 89.9817 190.405 92.7497 193.252 95.0154C195.28 96.6301 197.167 97.3794 198.694 97.9799C200.969 98.8739 204.152 100.126 208.167 99.7638C208.7 99.7161 215.861 99.0063 216.385 95.8111C216.622 94.3657 215.412 92.9531 214.472 92.085C217.981 90.3393 218.349 88.4039 218.413 87.9071C218.776 85.079 215.28 82.382 211.831 79.7205C210.362 78.5863 209.046 77.7605 208.095 77.2064C208.449 77.2528 210.379 77.4848 210.842 76.6222C211.309 75.7528 210.019 74.265 209.483 73.6481C205.195 68.7059 187.376 62.2527 180.078 70.0544C179.25 70.9388 178.746 71.8055 178.479 72.3187C179.114 69.245 178.471 66.9288 177.313 66.5466C176.42 66.2518 175.245 67.113 174.669 67.9511C173.762 69.2736 173.881 71.22 175.058 72.7869C174.51 72.6558 173.691 72.5248 172.726 72.6313C168.047 73.1458 164.705 78.7077 163.706 83.1614C162.789 87.2506 163.057 93.8034 166.35 95.0168C166.885 95.2133 168.593 95.6746 171.473 93.6423C171.582 94.0422 172.473 97.1705 174.607 97.5404C174.994 97.6073 175.358 97.5732 175.594 97.5036C178.14 96.7584 177.966 88.4653 177.94 87.5495" fill="#5D00BF"/>
<path d="M176.999 81.054C176.778 81.1741 176.472 81.3897 176.299 81.7555C176.087 82.2032 176.179 82.6523 176.222 82.8474C177.178 87.2465 179.642 90.2574 179.642 90.2574C180.95 91.8489 182.931 94.2047 186.33 95.5613C187.198 95.908 190.14 97.0832 190.918 96.1073C191.981 94.7752 188.349 90.2629 188.586 90.1018C188.761 89.9817 190.405 92.7497 193.252 95.0154C195.28 96.6301 197.167 97.3794 198.694 97.9799C200.969 98.8739 204.152 100.126 208.167 99.7638C208.7 99.7161 215.861 99.0063 216.385 95.8111C216.622 94.3657 215.412 92.9531 214.472 92.085C217.981 90.3393 218.349 88.4039 218.413 87.9071C218.776 85.079 215.28 82.382 211.831 79.7205C210.362 78.5863 209.046 77.7605 208.095 77.2064C208.449 77.2528 210.379 77.4848 210.842 76.6222C211.309 75.7528 210.019 74.265 209.483 73.6481C205.195 68.7059 187.376 62.2527 180.078 70.0544C179.25 70.9388 178.746 71.8055 178.479 72.3187C179.114 69.245 178.471 66.9288 177.313 66.5466C176.42 66.2518 175.245 67.113 174.669 67.9511C173.762 69.2736 173.881 71.22 175.058 72.7869C174.51 72.6558 173.691 72.5248 172.726 72.6313C168.047 73.1458 164.705 78.7077 163.706 83.1614C162.789 87.2506 163.057 93.8034 166.35 95.0168C166.885 95.2133 168.593 95.6746 171.473 93.6423C171.582 94.0422 172.473 97.1705 174.607 97.5404C174.994 97.6073 175.358 97.5732 175.594 97.5036C178.14 96.7584 177.966 88.4653 177.94 87.5495" stroke="black" stroke-miterlimit="10"/>
<path d="M197.791 95.1028C195.531 95.6624 193.271 96.2234 191.01 96.783L197.791 95.1028Z" fill="#3154B4"/>
<path d="M197.791 95.1028C195.531 95.6624 193.271 96.2234 191.01 96.783" stroke="black" stroke-miterlimit="10"/>
<path d="M188.296 118.532C190.62 117.87 192.944 117.208 195.268 116.546C196.151 117.951 197.034 119.355 197.918 120.758C195.159 122.967 192.401 125.175 189.642 127.384C189.193 124.433 188.745 121.482 188.296 118.532Z" fill="#B03EF5" stroke="black" stroke-miterlimit="10"/>
<path d="M188.176 118.532C185.852 117.87 183.528 117.208 181.204 116.546C180.321 117.951 179.438 119.355 178.554 120.758C181.313 122.967 184.071 125.175 186.831 127.384C187.28 124.433 187.727 121.482 188.176 118.532Z" fill="#B03EF5" stroke="black" stroke-miterlimit="10"/>
<path d="M136.048 239.671C125.114 221.423 107.717 223.712 99.3366 232.335C91.5469 240.35 91.4612 254.093 99.9571 262.727H159.276V233.946C149.928 233.946 142.896 234.953 136.05 239.671H136.048Z" fill="#B03EF5" stroke="black" stroke-miterlimit="10"/>
<path d="M218.962 198.306L198.557 163.546V158.323H176.715V163.586L143.3 189.968L143.337 190.013L143.273 190.003L136.048 239.566L159.295 242.976L165.167 202.695L185.056 186.992L203.454 218.334L203.505 218.304L203.487 218.366L251.478 232.2L257.967 209.55L218.962 198.306Z" fill="#5D00BF" stroke="black" stroke-miterlimit="10"/>
<path d="M210.511 167.941L207.305 168.73L174.604 121.965L177.808 121.176L210.511 167.941Z" fill="#5D00BF" stroke="black" stroke-miterlimit="10"/>
<path d="M231.031 194.605L240.2 197.212C245.25 198.649 250.506 195.706 251.938 190.64L255.159 179.245C256.591 174.178 253.657 168.907 248.607 167.47L239.438 164.862C234.387 163.426 229.132 166.369 227.7 171.435L224.479 182.83C223.047 187.897 225.981 193.168 231.031 194.605Z" fill="#F4DBCB" stroke="black" stroke-miterlimit="10"/>
<path d="M219.691 182.545L220.265 180.512C220.92 178.197 219.579 175.789 217.272 175.132L216.334 174.866C214.027 174.209 211.626 175.554 210.971 177.869L210.397 179.902C209.742 182.216 211.083 184.625 213.39 185.281L214.328 185.548C216.635 186.204 219.037 184.86 219.691 182.545Z" fill="#F4DBCB" stroke="black" stroke-miterlimit="10"/>
<path d="M220.552 186.923L221.366 187.154C223.371 187.724 225.457 186.556 226.025 184.545L230.02 170.412C230.589 168.401 229.424 166.309 227.419 165.738L226.605 165.507C224.6 164.937 222.514 166.105 221.946 168.116L217.951 182.249C217.383 184.26 218.547 186.352 220.552 186.923Z" fill="#F4DBCB" stroke="black" stroke-miterlimit="10"/>
<path d="M234.524 169.631C232.303 168.999 229.971 170.305 229.343 172.533L225.578 185.85C224.948 188.077 226.25 190.417 228.47 191.047C230.691 191.679 233.023 190.373 233.652 188.146L237.417 174.828" fill="#F4DBCB"/>
<path d="M234.524 169.631C232.303 168.999 229.971 170.305 229.343 172.533L225.578 185.85C224.948 188.077 226.25 190.417 228.47 191.047C230.691 191.679 233.023 190.373 233.652 188.146L237.417 174.828" stroke="black" stroke-miterlimit="10"/>
<path d="M237.359 174.813L233.594 188.131C232.964 190.358 234.266 192.698 236.487 193.328C238.708 193.96 241.04 192.654 241.668 190.426L245.433 177.109" fill="#F4DBCB"/>
<path d="M237.359 174.813L233.594 188.131C232.964 190.358 234.266 192.698 236.487 193.328C238.708 193.96 241.04 192.654 241.668 190.426L245.433 177.109" stroke="black" stroke-miterlimit="10"/>
<path d="M95.4601 120.358L88.7214 127.118C85.0093 130.842 85.0093 136.879 88.7214 140.603L97.0707 148.978C100.783 152.702 106.801 152.702 110.513 148.978L117.252 142.218C120.964 138.495 120.964 132.457 117.252 128.734L108.903 120.358C105.191 116.635 99.1722 116.635 95.4601 120.358Z" fill="#F4DBCB" stroke="black" stroke-miterlimit="10"/>
<path d="M128.132 119.287L126.642 117.793C124.946 116.092 122.196 116.092 120.5 117.793L119.811 118.484C118.115 120.186 118.115 122.944 119.811 124.646L121.301 126.14C122.997 127.841 125.747 127.841 127.443 126.14L128.132 125.449C129.828 123.747 129.828 120.989 128.132 119.287Z" fill="#F4DBCB" stroke="black" stroke-miterlimit="10"/>
<path d="M106.978 114.647L106.38 115.247C104.906 116.725 104.906 119.121 106.38 120.599L116.735 130.987C118.209 132.465 120.598 132.465 122.071 130.987L122.67 130.387C124.143 128.909 124.143 126.512 122.67 125.034L112.314 114.647C110.841 113.168 108.452 113.168 106.978 114.647Z" fill="#F4DBCB" stroke="black" stroke-miterlimit="10"/>
<path d="M102.074 122.122C103.706 120.486 106.377 120.486 108.008 122.122L117.765 131.91C119.397 133.546 119.397 136.226 117.765 137.862C116.134 139.499 113.463 139.499 111.831 137.862L102.074 128.074" fill="#F4DBCB"/>
<path d="M102.074 122.122C103.706 120.486 106.377 120.486 108.008 122.122L117.765 131.91C119.397 133.546 119.397 136.226 117.765 137.862C116.134 139.499 113.463 139.499 111.831 137.862L102.074 128.074" stroke="black" stroke-miterlimit="10"/>
<path d="M102.116 128.032L111.874 137.82C113.505 139.456 113.505 142.135 111.874 143.772C110.242 145.408 107.571 145.408 105.94 143.772L96.1826 133.984" fill="#F4DBCB"/>
<path d="M102.116 128.032L111.874 137.82C113.505 139.456 113.505 142.135 111.874 143.772C110.242 145.408 107.571 145.408 105.94 143.772L96.1826 133.984" stroke="black" stroke-miterlimit="10"/>
<path d="M105.526 181.467C105.526 181.467 105.526 181.467 105.526 181.465C105.526 181.464 105.528 181.461 105.529 181.46C105.529 181.462 105.526 181.465 105.526 181.467Z" fill="#6D50FF" stroke="black" stroke-miterlimit="10"/>
<path d="M98.8277 145.682C99.5012 146.805 99.6372 147.664 99.6794 148.055C100.033 151.379 97.0098 153.935 96.4941 154.357C103.84 161.68 106.977 172.889 106.103 179.943C108.996 170.179 106.734 161.865 104.985 155.933C104.502 154.297 102.374 150.496 99.7066 146.731C99.2318 146.06 98.7664 145.469 98.3392 144.957C98.5133 145.188 98.678 145.429 98.8277 145.682Z" fill="#6D50FF" stroke="black" stroke-miterlimit="10"/>
<path d="M97.4756 143.973C97.3341 143.819 97.2007 143.678 97.0783 143.551C97.0742 143.565 97.0715 143.58 97.0674 143.594C97.2062 143.716 97.3422 143.842 97.4742 143.973H97.4756Z" fill="#6D50FF" stroke="black" stroke-miterlimit="10"/>
<path d="M106.231 179.49C106.193 179.624 106.158 179.756 106.118 179.89C106.158 179.758 106.196 179.624 106.231 179.49Z" fill="#C5BCFF" stroke="black" stroke-miterlimit="10"/>
<path d="M97.4755 143.973C97.4687 143.966 97.4605 143.96 97.4537 143.951C97.3734 143.872 97.2904 143.794 97.2074 143.719C97.1775 143.692 97.1462 143.663 97.1163 143.636C94.3269 141.141 90.3049 140.253 89 140C90.4192 141.802 95.1964 148.32 94.8862 157.712C94.6494 164.882 91.5703 169.989 90.1361 172.083C91.626 173.025 93.5595 174.503 95.3406 176.735C98.8198 181.093 99.643 185.733 99.8825 187.935C102.86 185.986 104.37 183.825 105.182 182.239C105.558 181.505 105.864 180.736 106.105 179.939C106.978 172.886 103.841 161.677 96.4958 154.356C97.0101 153.933 100.035 151.378 99.6811 148.054C99.6389 147.662 99.5028 146.805 98.8293 145.681C98.6783 145.428 98.515 145.188 98.3408 144.956C98.3504 144.967 98.3599 144.979 98.3694 144.99C98.0959 144.626 97.7966 144.286 97.4768 143.97C97.4768 143.97 97.4782 143.972 97.4796 143.973H97.4755ZM105.528 181.465C105.528 181.465 105.528 181.465 105.528 181.468C105.528 181.465 105.531 181.463 105.531 181.46C105.531 181.461 105.529 181.464 105.528 181.465Z" fill="#C5BCFF" stroke="black" stroke-miterlimit="10"/>
<path d="M253.239 216.139C253.239 216.139 253.239 216.139 253.242 216.139C253.243 216.139 253.246 216.141 253.247 216.142C253.244 216.142 253.242 216.139 253.239 216.139Z" fill="#6D50FF" stroke="black" stroke-miterlimit="10"/>
<path d="M288.913 209.42C287.793 210.096 286.937 210.232 286.547 210.275C283.233 210.629 280.685 207.597 280.265 207.079C272.965 214.448 261.79 217.594 254.758 216.718C264.492 219.62 272.78 217.351 278.693 215.596C280.324 215.112 284.114 212.977 287.866 210.302C288.536 209.825 289.125 209.359 289.635 208.93C289.405 209.105 289.165 209.27 288.913 209.42Z" fill="#6D50FF" stroke="black" stroke-miterlimit="10"/>
<path d="M290.616 208.064C290.77 207.922 290.91 207.788 291.037 207.665C291.023 207.661 291.008 207.658 290.994 207.654C290.872 207.793 290.747 207.93 290.616 208.062V208.064Z" fill="#6D50FF" stroke="black" stroke-miterlimit="10"/>
<path d="M255.209 216.846C255.076 216.808 254.944 216.773 254.811 216.733C254.943 216.773 255.076 216.811 255.209 216.846Z" fill="#C5BCFF" stroke="black" stroke-miterlimit="10"/>
<path d="M290.616 208.063C290.623 208.057 290.63 208.048 290.638 208.042C290.717 207.961 290.794 207.878 290.869 207.795C290.896 207.764 290.925 207.733 290.952 207.703C293.439 204.905 294.325 200.87 294.577 199.562C292.781 200.985 286.282 205.777 276.92 205.466C269.772 205.229 264.681 202.14 262.594 200.701C261.655 202.196 260.181 204.135 257.956 205.922C253.612 209.412 248.986 210.238 246.791 210.478C248.734 213.464 250.888 214.979 252.469 215.794C253.201 216.171 253.967 216.478 254.762 216.719C261.794 217.596 272.967 214.448 280.266 207.081C280.687 207.597 283.235 210.631 286.548 210.276C286.938 210.234 287.793 210.097 288.914 209.421C289.166 209.27 289.405 209.106 289.636 208.931C289.626 208.941 289.613 208.951 289.602 208.96C289.966 208.686 290.305 208.386 290.619 208.065C290.619 208.065 290.617 208.066 290.616 208.067V208.063ZM253.24 216.141C253.24 216.141 253.24 216.141 253.238 216.141C253.24 216.141 253.243 216.144 253.246 216.144C253.245 216.144 253.242 216.142 253.24 216.141Z" fill="#C5BCFF" stroke="black" stroke-miterlimit="10"/>
<path d="M69.5498 258.045C69.5498 258.045 69.5511 258.045 69.5524 258.045C69.5537 258.045 69.5563 258.043 69.5576 258.042C69.555 258.042 69.5524 258.045 69.5498 258.045Z" fill="#6D50FF" stroke="black" stroke-miterlimit="10"/>
<path d="M90.0381 227.99C89.7211 229.262 89.2136 229.966 88.9673 230.272C86.8746 232.873 82.9342 232.536 82.2729 232.469C82.3056 242.858 76.6222 253.01 71.0312 257.377C79.9598 252.525 84.2214 245.041 87.1658 239.606C87.9781 238.106 89.1524 233.909 89.9198 229.356C90.0572 228.544 90.1456 227.796 90.2028 227.131C90.1633 227.418 90.1089 227.706 90.0381 227.991V227.99Z" fill="#6D50FF" stroke="black" stroke-miterlimit="10"/>
<path d="M90.287 225.823C90.2952 225.614 90.3006 225.42 90.3047 225.242C90.2924 225.249 90.2802 225.257 90.2666 225.266C90.2775 225.451 90.2857 225.637 90.287 225.823Z" fill="#6D50FF" stroke="black" stroke-miterlimit="10"/>
<path d="M71.442 257.147C71.3209 257.215 71.2025 257.283 71.0801 257.35C71.2012 257.285 71.3223 257.216 71.442 257.147Z" fill="#C5BCFF" stroke="black" stroke-miterlimit="10"/>
<path d="M90.2879 225.823C90.2879 225.812 90.2879 225.802 90.2879 225.791C90.2879 225.678 90.2825 225.565 90.277 225.451C90.2757 225.41 90.273 225.369 90.2702 225.329C90.0553 221.586 87.8388 218.106 87.0945 217C86.8278 219.281 85.6114 227.279 78.7714 233.699C73.5492 238.601 67.7719 240.03 65.282 240.492C65.6711 242.215 65.9977 244.632 65.6833 247.472C65.0711 253.022 62.3824 256.887 61 258.614C64.4778 259.347 67.0698 258.891 68.7611 258.345C69.5449 258.093 70.3027 257.766 71.0348 257.373C76.6243 253.004 82.3077 242.855 82.2737 232.468C82.935 232.535 86.8754 232.872 88.9681 230.271C89.2144 229.965 89.7219 229.261 90.0389 227.989C90.1097 227.703 90.1641 227.417 90.2036 227.129C90.2036 227.144 90.2008 227.159 90.1995 227.172C90.2634 226.721 90.2907 226.268 90.2866 225.817C90.2866 225.817 90.2866 225.82 90.2866 225.821L90.2879 225.823ZM69.553 258.045C69.553 258.045 69.5517 258.045 69.5503 258.045C69.553 258.045 69.5557 258.042 69.5585 258.042C69.5571 258.042 69.5544 258.043 69.553 258.045Z" fill="#C5BCFF" stroke="black" stroke-miterlimit="10"/>
</svg>
