<svg width="314" height="125" viewBox="0 0 314 125" fill="none" xmlns="http://www.w3.org/2000/svg">
<path d="M87.4001 37.0943C84.2965 37.0943 81.7766 34.5925 81.7276 31.4915C81.7276 31.4915 81.7262 31.4915 81.7249 31.4915C81.7235 31.4915 81.7235 31.4915 81.7221 31.4915C81.6732 34.5938 79.1532 37.0943 76.0496 37.0943C76.0496 37.1243 76.0469 37.1557 76.0469 37.1858C76.0469 37.2158 76.0482 37.2472 76.0496 37.2772C79.1532 37.2772 81.6732 39.779 81.7221 42.8801C81.7221 42.8801 81.7235 42.8801 81.7249 42.8801C81.7262 42.8801 81.7262 42.8801 81.7276 42.8801C81.7766 39.7777 84.2965 37.2772 87.4001 37.2772C87.4001 37.2472 87.4028 37.2158 87.4028 37.1858C87.4028 37.1557 87.4015 37.1243 87.4001 37.0943Z" fill="#FFDF46" stroke="black" stroke-miterlimit="10"/>
<path d="M29.4802 17.3282C26.3766 17.3282 23.8566 14.8264 23.8077 11.7253C23.8077 11.7253 23.8063 11.7253 23.8049 11.7253C23.8036 11.7253 23.8036 11.7253 23.8022 11.7253C23.7532 14.8277 21.2333 17.3282 18.1297 17.3282C18.1297 17.3582 18.127 17.3896 18.127 17.4196C18.127 17.4497 18.1283 17.4811 18.1297 17.5111C21.2333 17.5111 23.7532 20.0129 23.8022 23.114C23.8022 23.114 23.8036 23.114 23.8049 23.114C23.8063 23.114 23.8063 23.114 23.8077 23.114C23.8566 20.0116 26.3766 17.5111 29.4802 17.5111C29.4802 17.4811 29.4829 17.4497 29.4829 17.4196C29.4829 17.3896 29.4816 17.3582 29.4802 17.3282Z" fill="#FFDF46" stroke="black" stroke-miterlimit="10"/>
<path d="M110.924 8.91902C107.82 8.91902 105.3 6.41718 105.251 3.31616C105.251 3.31616 105.25 3.31616 105.248 3.31616C105.247 3.31616 105.247 3.31616 105.246 3.31616C105.197 6.41855 102.677 8.91902 99.573 8.91902C99.573 8.94905 99.5703 8.98044 99.5703 9.01047C99.5703 9.04049 99.5717 9.07189 99.573 9.10191C102.677 9.10191 105.197 11.6038 105.246 14.7048C105.246 14.7048 105.247 14.7048 105.248 14.7048C105.25 14.7048 105.25 14.7048 105.251 14.7048C105.3 11.6024 107.82 9.10191 110.924 9.10191C110.924 9.07189 110.926 9.04049 110.926 9.01047C110.926 8.98044 110.925 8.94905 110.924 8.91902Z" fill="#FFDF46" stroke="black" stroke-miterlimit="10"/>
<path d="M125.353 56.4664C122.25 56.4664 119.73 53.9645 119.681 50.8635C119.681 50.8635 119.679 50.8635 119.678 50.8635C119.677 50.8635 119.677 50.8635 119.675 50.8635C119.626 53.9659 117.106 56.4664 114.003 56.4664C114.003 56.4964 114 56.5278 114 56.5578C114 56.5879 114.001 56.6193 114.003 56.6493C117.106 56.6493 119.626 59.1511 119.675 62.2521C119.675 62.2521 119.677 62.2521 119.678 62.2521C119.679 62.2521 119.679 62.2521 119.681 62.2521C119.73 59.1497 122.25 56.6493 125.353 56.6493C125.353 56.6193 125.356 56.5879 125.356 56.5578C125.356 56.5278 125.355 56.4964 125.353 56.4664Z" fill="#FFDF46" stroke="black" stroke-miterlimit="10"/>
<path d="M12.3532 59.6029C9.24961 59.6029 6.72969 57.101 6.6807 54C6.6807 54 6.67934 54 6.67798 54C6.67662 54 6.67662 54 6.67526 54C6.62628 57.1024 4.10636 59.6029 1.00272 59.6029C1.00272 59.6329 1 59.6643 1 59.6943C1 59.7243 1.00136 59.7557 1.00272 59.7858C4.10636 59.7858 6.62628 62.2876 6.67526 65.3886C6.67526 65.3886 6.67662 65.3886 6.67798 65.3886C6.67934 65.3886 6.67934 65.3886 6.6807 65.3886C6.72969 62.2862 9.24961 59.7858 12.3532 59.7858C12.3532 59.7557 12.356 59.7243 12.356 59.6943C12.356 59.6643 12.3546 59.6329 12.3532 59.6029Z" fill="#FFDF46" stroke="black" stroke-miterlimit="10"/>
<path d="M302.541 65.1852C302.541 62.0719 305.035 59.5442 308.127 59.495C308.127 59.495 308.127 59.4937 308.127 59.4923C308.127 59.4909 308.127 59.4909 308.127 59.4896C305.034 59.4404 302.541 56.9127 302.541 53.7994C302.511 53.7994 302.48 53.7966 302.45 53.7966C302.42 53.7966 302.389 53.798 302.359 53.7994C302.359 56.9127 299.865 59.4404 296.773 59.4896C296.773 59.4896 296.773 59.4909 296.773 59.4923C296.773 59.4937 296.773 59.4937 296.773 59.495C299.866 59.5442 302.359 62.0719 302.359 65.1852C302.389 65.1852 302.42 65.188 302.45 65.188C302.48 65.188 302.511 65.1866 302.541 65.1852Z" fill="#FFDF46" stroke="black" stroke-miterlimit="10"/>
<path d="M201.501 12.3886C201.501 9.2753 203.995 6.74754 207.087 6.6984C207.087 6.6984 207.087 6.69703 207.087 6.69567C207.087 6.6943 207.087 6.6943 207.087 6.69294C203.994 6.6438 201.501 4.11603 201.501 1.00273C201.471 1.00273 201.44 1 201.41 1C201.38 1 201.349 1.00136 201.319 1.00273C201.319 4.11603 198.825 6.6438 195.733 6.69294C195.733 6.69294 195.733 6.6943 195.733 6.69567C195.733 6.69703 195.733 6.69703 195.733 6.6984C198.826 6.74754 201.319 9.2753 201.319 12.3886C201.349 12.3886 201.38 12.3913 201.41 12.3913C201.44 12.3913 201.471 12.39 201.501 12.3886Z" fill="#FFDF46" stroke="black" stroke-miterlimit="10"/>
<path d="M284.744 17.4169C284.744 14.3036 287.238 11.7759 290.33 11.7267C290.33 11.7267 290.33 11.7254 290.33 11.724C290.33 11.7226 290.33 11.7226 290.33 11.7213C287.237 11.6721 284.744 9.14436 284.744 6.03105C284.714 6.03105 284.683 6.02832 284.653 6.02832C284.623 6.02832 284.592 6.02969 284.562 6.03105C284.562 9.14436 282.068 11.6721 278.977 11.7213C278.977 11.7213 278.977 11.7226 278.977 11.724C278.977 11.7254 278.977 11.7254 278.977 11.7267C282.069 11.7759 284.562 14.3036 284.562 17.4169C284.592 17.4169 284.623 17.4197 284.653 17.4197C284.683 17.4197 284.714 17.4183 284.744 17.4169Z" fill="#FFDF46" stroke="black" stroke-miterlimit="10"/>
<path d="M210.768 80.2521C210.768 77.1388 213.262 74.6111 216.353 74.5619C216.353 74.5619 216.353 74.5606 216.353 74.5592C216.353 74.5578 216.353 74.5578 216.353 74.5565C213.26 74.5073 210.768 71.9796 210.768 68.8663C210.738 68.8663 210.707 68.8635 210.677 68.8635C210.647 68.8635 210.615 68.8649 210.585 68.8663C210.585 71.9796 208.091 74.5073 205 74.5565C205 74.5565 205 74.5578 205 74.5592C205 74.5606 205 74.5606 205 74.5619C208.093 74.6111 210.585 77.1388 210.585 80.2521C210.615 80.2521 210.647 80.2549 210.677 80.2549C210.707 80.2549 210.738 80.2535 210.768 80.2521Z" fill="#FFDF46" stroke="black" stroke-miterlimit="10"/>
<path d="M246.649 52.1533C246.649 49.04 249.143 46.5122 252.234 46.463C252.234 46.463 252.234 46.4617 252.234 46.4603C252.234 46.459 252.234 46.459 252.234 46.4576C249.141 46.4085 246.649 43.8807 246.649 40.7674C246.619 40.7674 246.587 40.7646 246.557 40.7646C246.528 40.7646 246.496 40.766 246.466 40.7674C246.466 43.8807 243.972 46.4085 240.881 46.4576C240.881 46.4576 240.881 46.459 240.881 46.4603C240.881 46.4617 240.881 46.4617 240.881 46.463C243.974 46.5122 246.466 49.04 246.466 52.1533C246.496 52.1533 246.528 52.156 246.557 52.156C246.587 52.156 246.619 52.1546 246.649 52.1533Z" fill="#FFDF46" stroke="black" stroke-miterlimit="10"/>
<path d="M165.768 39.3886C165.768 36.2753 168.262 33.7475 171.353 33.6984C171.353 33.6984 171.353 33.697 171.353 33.6957C171.353 33.6943 171.353 33.6943 171.353 33.6929C168.26 33.6438 165.768 31.116 165.768 28.0027C165.738 28.0027 165.707 28 165.677 28C165.647 28 165.615 28.0014 165.585 28.0027C165.585 31.116 163.091 33.6438 160 33.6929C160 33.6929 160 33.6943 160 33.6957C160 33.697 160 33.697 160 33.6984C163.093 33.7475 165.585 36.2753 165.585 39.3886C165.615 39.3886 165.647 39.3913 165.677 39.3913C165.707 39.3913 165.738 39.39 165.768 39.3886Z" fill="#FFDF46" stroke="black" stroke-miterlimit="10"/>
<path d="M307.768 124.389C307.768 121.275 310.262 118.748 313.353 118.698C313.353 118.698 313.353 118.697 313.353 118.696C313.353 118.694 313.353 118.694 313.353 118.693C310.26 118.644 307.768 116.116 307.768 113.003C307.738 113.003 307.707 113 307.677 113C307.647 113 307.615 113.001 307.585 113.003C307.585 116.116 305.091 118.644 302 118.693C302 118.693 302 118.694 302 118.696C302 118.697 302 118.697 302 118.698C305.093 118.748 307.585 121.275 307.585 124.389C307.615 124.389 307.647 124.391 307.677 124.391C307.707 124.391 307.738 124.39 307.768 124.389Z" fill="#FFDF46" stroke="black" stroke-miterlimit="10"/>
<path d="M267.546 103.996C267.546 100.882 270.04 98.3547 273.132 98.3056C273.132 98.3056 273.132 98.3042 273.132 98.3029C273.132 98.3015 273.132 98.3015 273.132 98.3001C270.039 98.251 267.546 95.7232 267.546 92.6099C267.516 92.6099 267.485 92.6072 267.455 92.6072C267.425 92.6072 267.394 92.6085 267.364 92.6099C267.364 95.7232 264.87 98.251 261.778 98.3001C261.778 98.3001 261.778 98.3015 261.778 98.3029C261.778 98.3042 261.778 98.3042 261.778 98.3056C264.871 98.3547 267.364 100.882 267.364 103.996C267.394 103.996 267.425 103.999 267.455 103.999C267.485 103.999 267.516 103.997 267.546 103.996Z" fill="#FFDF46" stroke="black" stroke-miterlimit="10"/>
<path d="M90.7678 103.389C90.7678 100.275 93.2618 97.7475 96.3532 97.6984C96.3532 97.6984 96.3532 97.697 96.3532 97.6957C96.3532 97.6943 96.3532 97.6943 96.3532 97.6929C93.2605 97.6438 90.7678 95.116 90.7678 92.0027C90.7378 92.0027 90.7066 92 90.6766 92C90.6467 92 90.6154 92.0014 90.5855 92.0027C90.5855 95.116 88.0914 97.6438 85 97.6929C85 97.6929 85 97.6943 85 97.6957C85 97.697 85 97.697 85 97.6984C88.0928 97.7475 90.5855 100.275 90.5855 103.389C90.6154 103.389 90.6467 103.391 90.6766 103.391C90.7066 103.391 90.7378 103.39 90.7678 103.389Z" fill="#FFDF46" stroke="black" stroke-miterlimit="10"/>
<path d="M49.7678 75.3886C49.7678 72.2753 52.2619 69.7475 55.3532 69.6984C55.3532 69.6984 55.3532 69.697 55.3532 69.6957C55.3532 69.6957 55.3532 69.6943 55.3532 69.693C52.2605 69.6438 49.7678 67.116 49.7678 64.0027C49.7379 64.0027 49.7066 64 49.6766 64C49.6467 64 49.6154 64.0014 49.5855 64.0027C49.5855 67.116 47.0914 69.6438 44 69.693C44 69.693 44 69.6943 44 69.6957C44 69.697 44 69.697 44 69.6984C47.0928 69.7475 49.5855 72.2753 49.5855 75.3886C49.6154 75.3886 49.6467 75.3913 49.6766 75.3913C49.7066 75.3913 49.7379 75.39 49.7678 75.3886Z" fill="#FFDF46" stroke="black" stroke-miterlimit="10"/>
<path d="M12.7678 122.389C12.7678 119.275 15.2619 116.748 18.3532 116.698C18.3532 116.698 18.3532 116.697 18.3532 116.696C18.3532 116.696 18.3532 116.694 18.3532 116.693C15.2605 116.644 12.7678 114.116 12.7678 111.003C12.7378 111.003 12.7066 111 12.6766 111C12.6467 111 12.6154 111.001 12.5855 111.003C12.5855 114.116 10.0914 116.644 7 116.693C7 116.693 7 116.694 7 116.696C7 116.697 7 116.697 7 116.698C10.0928 116.748 12.5855 119.275 12.5855 122.389C12.6154 122.389 12.6467 122.391 12.6766 122.391C12.7066 122.391 12.7378 122.39 12.7678 122.389Z" fill="#FFDF46" stroke="black" stroke-miterlimit="10"/>
</svg>
