<svg width="385" height="530" viewBox="0 0 385 530" fill="none" xmlns="http://www.w3.org/2000/svg">
<circle cx="191.5" cy="137.5" r="137" fill="#F8ECFF" stroke="black"/>
<path fill-rule="evenodd" clip-rule="evenodd" d="M3 306L192.501 215L382 306H384V529H5V306H3Z" fill="#D092F1"/>
<path d="M192.501 215L192.717 214.549L192.501 214.445L192.284 214.549L192.501 215ZM3 306L2.78356 305.549L0.803744 306.5H3V306ZM382 306L381.784 306.451L381.886 306.5H382V306ZM384 306H384.5V305.5H384V306ZM384 529V529.5H384.5V529H384ZM5 529H4.5V529.5H5V529ZM5 306H5.5V305.5H5V306ZM192.284 214.549L2.78356 305.549L3.21644 306.451L192.717 215.451L192.284 214.549ZM382.216 305.549L192.717 214.549L192.284 215.451L381.784 306.451L382.216 305.549ZM382 306.5H384V305.5H382V306.5ZM383.5 306V529H384.5V306H383.5ZM384 528.5H5V529.5H384V528.5ZM5.5 529V306H4.5V529H5.5ZM3 306.5H5V305.5H3V306.5Z" fill="black"/>
<g clip-path="url(#clip0_1788_2959)">
<path d="M106.5 88.5C106.5 88.5 118.044 93.3544 124 98.5C130.324 103.964 129.821 111.221 137 115.5C144.615 120.038 148.223 118.326 156.5 121.5C164.136 124.428 171 134.5 171 134.5L150 149.5L101.5 117L106.5 88.5Z" fill="#FFDD46"/>
<line x1="106.494" y1="88.08" x2="100.494" y2="125.08" stroke="black"/>
<line x1="170.273" y1="134.419" x2="147.273" y2="149.419" stroke="black"/>
<line x1="132.416" y1="120.277" x2="122.416" y2="135.277" stroke="black"/>
<line x1="120.476" y1="104.152" x2="112.476" y2="129.152" stroke="black"/>
<line x1="149.327" y1="127.378" x2="134.327" y2="140.378" stroke="black"/>
<path d="M277.112 63.9966C277.112 60.1704 280.188 57.0637 284 57.0034C284 57.0034 284 57.0017 284 57C284 56.9983 284 56.9983 284 56.9966C280.186 56.9363 277.112 53.8296 277.112 50.0034C277.076 50.0034 277.037 50 277 50C276.963 50 276.924 50.0017 276.888 50.0034C276.888 53.8296 273.812 56.9363 270 56.9966C270 56.9966 270 56.9983 270 57C270 57.0017 270 57.0017 270 57.0034C273.814 57.0637 276.888 60.1704 276.888 63.9966C276.924 63.9966 276.963 64 277 64C277.037 64 277.076 63.9983 277.112 63.9966Z" fill="#FFDD46" stroke="black" stroke-miterlimit="10"/>
<path d="M297.112 142.997C297.112 139.17 300.188 136.064 304 136.003C304 136.003 304 136.002 304 136C304 135.998 304 135.998 304 135.997C300.186 135.936 297.112 132.83 297.112 129.003C297.076 129.003 297.037 129 297 129C296.963 129 296.924 129.002 296.888 129.003C296.888 132.83 293.812 135.936 290 135.997C290 135.997 290 135.998 290 136C290 136.002 290 136.002 290 136.003C293.814 136.064 296.888 139.17 296.888 142.997C296.924 142.997 296.963 143 297 143C297.037 143 297.076 142.998 297.112 142.997V142.997Z" fill="#FFDD46" stroke="black" stroke-miterlimit="10"/>
<path d="M277.112 228.997C277.112 225.17 280.188 222.064 284 222.003C284 222.003 284 222.002 284 222C284 221.998 284 221.998 284 221.997C280.186 221.936 277.112 218.83 277.112 215.003C277.076 215.003 277.037 215 277 215C276.963 215 276.924 215.002 276.888 215.003C276.888 218.83 273.812 221.936 270 221.997C270 221.997 270 221.998 270 222C270 222.002 270 222.002 270 222.003C273.814 222.064 276.888 225.17 276.888 228.997C276.924 228.997 276.963 229 277 229C277.037 229 277.076 228.998 277.112 228.997V228.997Z" fill="#FFDD46" stroke="black" stroke-miterlimit="10"/>
<path d="M147.604 93.9966C147.604 90.1704 150.46 87.0637 154 87.0034C154 87.0034 154 87.0017 154 87C154 86.9983 154 86.9983 154 86.9966C150.459 86.9363 147.604 83.8296 147.604 80.0034C147.57 80.0034 147.534 80 147.5 80C147.466 80 147.43 80.0017 147.396 80.0034C147.396 83.8296 144.54 86.9363 141 86.9966C141 86.9966 141 86.9983 141 87C141 87.0017 141 87.0017 141 87.0034C144.541 87.0637 147.396 90.1704 147.396 93.9966C147.43 93.9966 147.466 94 147.5 94C147.534 94 147.57 93.9983 147.604 93.9966Z" fill="#FFDD46" stroke="black" stroke-miterlimit="10"/>
<path d="M106.112 221.997C106.112 218.444 109.188 215.559 113 215.503C113 215.503 113 215.502 113 215.5C113 215.498 113 215.498 113 215.497C109.186 215.441 106.112 212.556 106.112 209.003C106.076 209.003 106.037 209 106 209C105.963 209 105.924 209.002 105.888 209.003C105.888 212.556 102.812 215.441 99 215.497C99 215.497 99 215.498 99 215.5C99 215.502 99 215.502 99 215.503C102.814 215.559 105.888 218.444 105.888 221.997C105.924 221.997 105.963 222 106 222C106.037 222 106.076 221.998 106.112 221.997Z" fill="#FFDD46" stroke="black" stroke-miterlimit="10"/>
<path d="M254.729 133.69C254.864 132.531 254.937 131.317 254.937 130.063C254.937 122.492 252.292 116.287 248.937 115.736C248.132 115.27 247.198 115 246.202 115L234.091 119.15C233.095 118.025 231.383 117.281 229.436 117.281C226.361 117.281 223.866 119.137 223.866 121.426C223.866 121.825 223.944 122.212 224.086 122.578L222.482 123.127C219.454 123.127 217 125.595 217 128.639V169.488C217 172.533 219.454 175 222.482 175H257.518C260.546 175 263 172.533 263 169.488L254.729 133.69V133.69Z" fill="#D092F1" stroke="black" stroke-miterlimit="10"/>
<path d="M204.069 145.501C204.428 143.507 206.168 142.39 209.629 140.36C216.544 136.304 220.056 134.306 222.354 133.793C225.585 133.072 229.607 132.173 232.233 134.484C235.007 136.925 235.396 142.223 233.238 147.618C233.648 146.995 234.882 145.297 237.088 144.68C237.925 144.446 238.878 144.375 239.433 144.507C241.867 145.091 243.292 151.211 242.95 159.369C241.357 161.004 238.865 163.256 235.415 165.245C231.047 167.763 224.255 171.679 217.667 169.22C211.977 167.097 211.234 157.419 206.95 152.975C206.725 152.741 205.837 151.842 205.109 150.382C204.908 149.979 203.699 147.561 204.071 145.499L204.069 145.501Z" fill="#D092F1" stroke="black" stroke-miterlimit="10"/>
<path d="M210.397 142C212.005 142.033 218.409 142.35 223.475 147.391C228.391 152.281 230.17 159.749 228.231 166.858C212.081 177.64 195.931 188.421 179.78 199.202C178.462 199.968 176.28 200.974 173.538 201C173.538 201 167.304 201.057 161.946 194.71C155.937 187.593 159.271 171.109 170.567 154.279C183.844 150.187 197.119 146.093 210.397 142Z" fill="#F2D9C9" stroke="black" stroke-miterlimit="10"/>
<path d="M178.45 188.551L174.601 194.507C172.986 197.008 169.606 197.752 167.055 196.167C106.155 157.241 86.3962 145.053 83.5624 142.973C83.5624 142.973 83.5624 142.973 83.5591 142.973C82.3925 142.042 82.0496 139.452 82.0074 138.052C81.9554 136.358 82.1325 133.111 84.0824 128.611C88.8125 121.692 89.4543 119.836 89.7582 120.011C90.1985 120.264 88.5378 124.596 90.1238 126.301C90.5462 126.755 91.1556 126.902 91.6284 126.949L182.261 183.168C184.814 184.751 180.064 186.051 178.449 188.553L178.45 188.551Z" fill="#6E00E1" stroke="black" stroke-miterlimit="10"/>
<path d="M200.793 253.127C187.986 231.856 167.608 234.524 157.792 244.575C148.668 253.917 148.567 269.936 158.519 280H228V246.453C217.051 246.453 208.814 247.627 200.795 253.127H200.793Z" fill="#B03EF5" stroke="black" stroke-miterlimit="10"/>
<path d="M91.4896 117.009L87.6506 123.069C86.039 125.614 86.7149 128.932 89.1605 130.479L176.006 185.444C178.451 186.992 181.74 186.184 183.352 183.64L187.191 177.579C188.803 175.034 188.127 171.717 185.681 170.169L98.8359 115.204C96.3903 113.656 93.1013 114.464 91.4896 117.009Z" fill="#6E00E1" stroke="black" stroke-miterlimit="10"/>
<path d="M155.557 152.537L158.097 150.126C160.348 147.989 160.44 144.434 158.303 142.185L145.687 128.905C143.55 126.656 139.994 126.564 137.744 128.7L135.203 131.112C132.953 133.248 132.861 136.803 134.998 139.053L147.613 152.332C149.75 154.582 153.306 154.674 155.557 152.537Z" fill="#F2D9C9" stroke="black" stroke-miterlimit="10"/>
<path d="M192 158.736L187.154 153.73L182.309 148.723C180 146.337 177.11 144.8 174.051 144.12C170.992 143.44 167.767 143.619 164.789 144.667C165.118 143.547 165.152 142.357 164.885 141.221C164.617 140.086 164.048 139.005 163.176 138.102C161.869 136.751 160.116 136.047 158.347 136.002C156.578 135.958 154.791 136.57 153.413 137.853L141.278 149.157L129.143 160.46C127.766 161.743 127.05 163.463 127.002 165.198C126.955 166.934 127.581 168.687 128.889 170.038C130.196 171.39 131.949 172.092 133.718 172.138C135.487 172.185 137.274 171.571 138.652 170.288L140.144 168.898L141.635 167.508C140.885 170.155 140.828 172.961 141.476 175.635C142.123 178.309 143.47 180.854 145.529 182.982L150.374 187.988L155.22 192.994C158.334 196.213 162.508 197.887 166.722 197.995C170.937 198.102 175.192 196.64 178.473 193.585L184.935 187.564L191.398 181.544" fill="#F2D9C9"/>
<path d="M192 158.736L187.154 153.73L182.309 148.723C180 146.337 177.11 144.8 174.051 144.12C170.992 143.44 167.767 143.619 164.789 144.667C165.118 143.547 165.152 142.357 164.885 141.221C164.617 140.086 164.048 139.005 163.176 138.102C161.869 136.751 160.116 136.047 158.347 136.002C156.578 135.958 154.791 136.57 153.413 137.853L141.278 149.157L129.143 160.46C127.766 161.743 127.05 163.463 127.002 165.198C126.955 166.934 127.581 168.687 128.889 170.038C130.196 171.39 131.949 172.092 133.718 172.138C135.487 172.185 137.274 171.571 138.652 170.288L140.144 168.898L141.635 167.508C140.885 170.155 140.828 172.961 141.476 175.635C142.123 178.309 143.47 180.854 145.529 182.982L150.374 187.988L155.22 192.994C158.334 196.213 162.508 197.887 166.722 197.995C170.937 198.102 175.192 196.64 178.473 193.585L184.935 187.564L191.398 181.544" stroke="black" stroke-miterlimit="10"/>
<path d="M164 156.184C161.327 153.376 156.836 153.26 154.022 155.926L137.189 171.864C134.375 174.53 134.258 179.009 136.931 181.816C139.604 184.624 144.095 184.74 146.909 182.074L161.68 169" fill="#F2D9C9"/>
<path d="M164 156.184C161.327 153.376 156.836 153.26 154.022 155.926L137.189 171.864C134.375 174.53 134.258 179.009 136.931 181.816C139.604 184.624 144.095 184.74 146.909 182.074L161.68 169" stroke="black" stroke-miterlimit="10"/>
<path d="M163.193 167L146.209 182.896C143.369 185.555 143.251 190.023 145.948 192.822C148.645 195.622 153.177 195.738 156.016 193.079L173 177.183" fill="#F2D9C9"/>
<path d="M163.193 167L146.209 182.896C143.369 185.555 143.251 190.023 145.948 192.822C148.645 195.622 153.177 195.738 156.016 193.079L173 177.183" stroke="black" stroke-miterlimit="10"/>
<path d="M254 256V175H228.27C218.507 206.22 192.683 231.01 190 252.08C205.409 252.08 240.979 256 253.998 256H254Z" fill="#F2D9FF" stroke="black" stroke-miterlimit="10"/>
<path d="M225.733 255.502C212.427 233.737 191.255 236.467 181.057 246.752C171.577 256.311 171.472 272.702 181.812 283H254V248.673C242.624 248.673 234.067 249.874 225.735 255.502H225.733Z" fill="#B03EF5" stroke="black" stroke-miterlimit="10"/>
<path d="M259 256V175H228.393C227.263 201.95 226.132 228.901 225 255.851C243.331 255.851 243.511 256 259 256Z" fill="#F2D9FF" stroke="black" stroke-miterlimit="10"/>
<path d="M204 119.719C204.721 120.11 207.737 121.632 211.529 120.706C214.82 119.902 216.695 117.743 217.265 117.03C219.265 117.521 224.887 118.621 231.334 116.134C237.599 113.717 240.992 109.319 242.179 107.616C243.894 107.982 249.425 108.931 255.05 105.893C258.048 104.274 259.945 102.131 261 100.713C257.041 97.9525 254.793 95.1096 253.471 93.0029C253.03 92.2995 252.309 91.2058 251.231 88.8784C248.214 82.3673 247.655 81.4877 247.019 80.8091C243.359 76.8988 231.762 79.7549 223.987 85.2926C216.904 90.3362 208.789 100.601 209.199 108.605C209.26 109.799 209.639 113.436 207.497 116.585C206.395 118.204 204.981 119.173 204.002 119.723L204 119.719Z" fill="#B03EF5" stroke="black" stroke-miterlimit="10"/>
<path d="M232.601 81.5741C232.327 81.6648 232.063 81.7669 231.804 81.8803C232.838 83.246 233.666 84.7996 234.231 86.512L236.671 93.8979C237.236 95.6086 237.496 97.3502 237.478 99.0642C237.753 99.001 238.027 98.9265 238.301 98.8358C243.069 97.2627 245.659 92.1239 244.084 87.3577C242.508 82.5915 237.369 80.0026 232.601 81.5773V81.5741Z" fill="#F2D9C9" stroke="black" stroke-miterlimit="10"/>
<path d="M233.464 107.644L220.12 113.444L223.059 120.201L236.403 114.401L233.464 107.644Z" fill="#F2D9C9" stroke="black" stroke-miterlimit="10"/>
<path d="M240.978 91.0125C238.401 91.863 236.148 93.6888 234.839 96.2874C233.529 98.8859 233.403 101.783 234.254 104.358" stroke="black" stroke-miterlimit="10"/>
<path d="M213.947 76.2444L213.823 76.2855C205.41 79.0618 200.841 88.1299 203.619 96.5395L206.099 104.048C208.876 112.458 217.948 117.025 226.36 114.248L226.485 114.207C234.898 111.431 239.466 102.363 236.689 93.9532L234.209 86.4443C231.432 78.0347 222.36 73.468 213.947 76.2444Z" fill="#F2D9C9" stroke="black" stroke-miterlimit="10"/>
<path d="M207.509 100.464C208.284 100.464 208.911 99.8364 208.911 99.0625C208.911 98.2885 208.284 97.6611 207.509 97.6611C206.735 97.6611 206.107 98.2885 206.107 99.0625C206.107 99.8364 206.735 100.464 207.509 100.464Z" fill="black"/>
<path d="M217.352 97.0439C218.126 97.0439 218.754 96.4165 218.754 95.6426C218.754 94.8686 218.126 94.2412 217.352 94.2412C216.578 94.2412 215.95 94.8686 215.95 95.6426C215.95 96.4165 216.578 97.0439 217.352 97.0439Z" fill="black"/>
<path d="M210.993 103.555L210.277 103.791C209.596 104.017 208.857 103.644 208.632 102.964C208.407 102.283 208.78 101.544 209.46 101.319L210.177 101.083" fill="#F2D9C9"/>
<path d="M210.993 103.555L210.277 103.791C209.596 104.017 208.857 103.644 208.632 102.964C208.407 102.283 208.78 101.544 209.46 101.319L210.177 101.083" stroke="black" stroke-miterlimit="10"/>
<path d="M221.666 102.82C221.286 103.38 220.851 103.905 220.37 104.385C219.889 104.864 219.359 105.3 218.788 105.682C218.218 106.065 217.605 106.393 216.957 106.662C216.308 106.931 215.623 107.137 214.908 107.273C214.193 107.409 213.48 107.469 212.779 107.459C212.077 107.45 211.386 107.369 210.714 107.223" fill="#F2D9C9"/>
<path d="M221.666 102.82C221.286 103.38 220.851 103.905 220.37 104.385C219.889 104.864 219.359 105.3 218.788 105.682C218.218 106.065 217.605 106.393 216.957 106.662C216.308 106.931 215.623 107.137 214.908 107.273C214.193 107.409 213.48 107.469 212.779 107.459C212.077 107.45 211.386 107.369 210.714 107.223" stroke="black" stroke-miterlimit="10"/>
<path d="M223.595 103.088C223.409 103.124 223.219 103.142 223.028 103.142C222.837 103.142 222.647 103.122 222.457 103.085C222.268 103.048 222.083 102.991 221.901 102.917C221.72 102.842 221.543 102.747 221.375 102.633C221.206 102.518 221.054 102.39 220.916 102.249C220.778 102.108 220.658 101.956 220.555 101.794" fill="#F2D9C9"/>
<path d="M223.595 103.088C223.409 103.124 223.219 103.142 223.028 103.142C222.837 103.142 222.647 103.122 222.457 103.085C222.268 103.048 222.083 102.991 221.901 102.917C221.72 102.842 221.543 102.747 221.375 102.633C221.206 102.518 221.054 102.39 220.916 102.249C220.778 102.108 220.658 101.956 220.555 101.794" stroke="black" stroke-miterlimit="10"/>
<path d="M249 84.848C248.572 82.2942 247.57 78.31 244.94 74.1723C244.208 73.022 237.89 63.4239 226.699 61.389C212.201 58.7529 195.546 69.9017 194.103 83.0885C193.511 88.4905 195.595 93.1234 197.306 96C197.625 95.9035 197.944 95.807 198.264 95.7104C200.518 95.0301 202.76 94.375 204.99 93.7452C205.432 93.606 205.874 93.4683 206.316 93.3291C205.946 92.4842 205.425 91.2136 204.911 89.6281C204.279 87.6787 203.848 85.8417 203.985 85.7974C204.123 85.7531 204.535 87.5743 205.856 89.3765C206.987 90.9209 208.366 91.8781 209.423 92.4668C212.046 91.6946 214.668 90.9224 217.29 90.1503C216.348 89.212 214.799 87.4082 213.913 84.7009C212.526 80.4683 213.678 76.8322 214.128 75.6106C214.368 76.9714 215.403 81.8433 219.88 85.367C226.393 90.4936 234.369 88.1803 235.085 87.9588C235.249 87.4351 236.002 85.223 238.23 84.1439C238.718 83.9066 239.436 83.5363 240.368 83.5885C242.663 83.7151 243.929 86.2056 244.033 86.4192" fill="#B03EF5"/>
<path d="M249 84.848C248.572 82.2942 247.57 78.31 244.94 74.1723C244.208 73.022 237.89 63.4239 226.699 61.389C212.201 58.7529 195.546 69.9017 194.103 83.0885C193.511 88.4905 195.595 93.1234 197.306 96C197.625 95.9035 197.944 95.807 198.264 95.7104C200.518 95.0301 202.76 94.375 204.99 93.7452C205.432 93.606 205.874 93.4683 206.316 93.3291C205.946 92.4842 205.425 91.2136 204.911 89.6281C204.279 87.6787 203.848 85.8417 203.985 85.7974C204.123 85.7531 204.535 87.5743 205.856 89.3765C206.987 90.9209 208.366 91.8781 209.423 92.4668C212.046 91.6946 214.668 90.9224 217.29 90.1503C216.348 89.212 214.799 87.4082 213.913 84.7009C212.526 80.4683 213.678 76.8322 214.128 75.6106C214.368 76.9714 215.403 81.8433 219.88 85.367C226.393 90.4936 234.369 88.1803 235.085 87.9588C235.249 87.4351 236.002 85.223 238.23 84.1439C238.718 83.9066 239.436 83.5363 240.368 83.5885C242.663 83.7151 243.929 86.2056 244.033 86.4192" stroke="black" stroke-miterlimit="10"/>
<path d="M211 89C211.868 88.0941 213.283 87.3952 215.034 87.1215C216.787 86.8478 218.558 87.0498 220 87.5941" stroke="black" stroke-miterlimit="10"/>
<path d="M220.002 118.65C225.348 116.434 230.695 114.216 236.042 112C237.694 114.086 239.348 116.173 241 118.259C235.462 121.506 229.921 124.753 224.383 128C222.922 124.883 221.462 121.767 220 118.65H220.002Z" fill="#D092F1" stroke="black" stroke-miterlimit="10"/>
<path d="M252 141C251.921 143.029 251.4 146.209 249.052 149.753C247.202 152.545 244.847 154.62 243 156" fill="#D092F1"/>
<path d="M252 141C251.921 143.029 251.4 146.209 249.052 149.753C247.202 152.545 244.847 154.62 243 156" stroke="black" stroke-miterlimit="10"/>
<path d="M231.559 127.778C231.051 128.508 230.217 129.625 229.113 130.752C228.243 131.641 227.501 132.235 226.98 132.612" fill="#D092F1"/>
<path d="M231.559 127.778C231.051 128.508 230.217 129.625 229.113 130.752C228.243 131.641 227.501 132.235 226.98 132.612" stroke="black" stroke-miterlimit="10"/>
</g>
<path d="M52.6044 95.9966C52.6044 92.1704 55.4602 89.0637 59 89.0034C59 89.0034 59 89.0017 59 89C59 88.9983 59 88.9983 59 88.9966C55.4587 88.9363 52.6044 85.8296 52.6044 82.0034C52.5701 82.0034 52.5343 82 52.5 82C52.4657 82 52.4299 82.0017 52.3956 82.0034C52.3956 85.8296 49.5398 88.9363 46 88.9966C46 88.9966 46 88.9983 46 89C46 89.0017 46 89.0017 46 89.0034C49.5413 89.0637 52.3956 92.1704 52.3956 95.9966C52.4299 95.9966 52.4657 96 52.5 96C52.5343 96 52.5701 95.9983 52.6044 95.9966Z" fill="#FFDD46" stroke="black" stroke-miterlimit="10"/>
<path d="M335.604 197.997C335.604 194.17 338.46 191.064 342 191.003C342 191.003 342 191.002 342 191C342 190.998 342 190.998 342 190.997C338.459 190.936 335.604 187.83 335.604 184.003C335.57 184.003 335.534 184 335.5 184C335.466 184 335.43 184.002 335.396 184.003C335.396 187.83 332.54 190.936 329 190.997C329 190.997 329 190.998 329 191C329 191.002 329 191.002 329 191.003C332.541 191.064 335.396 194.17 335.396 197.997C335.43 197.997 335.466 198 335.5 198C335.534 198 335.57 197.998 335.604 197.997Z" fill="#FFDD46" stroke="black" stroke-miterlimit="10"/>
<path d="M32.6044 203.997C32.6044 200.17 35.4602 197.064 39 197.003C39 197.003 39 197.002 39 197C39 196.998 39 196.998 39 196.997C35.4587 196.936 32.6044 193.83 32.6044 190.003C32.5701 190.003 32.5343 190 32.5 190C32.4657 190 32.4299 190.002 32.3956 190.003C32.3956 193.83 29.5398 196.936 26 196.997C26 196.997 26 196.998 26 197C26 197.002 26 197.002 26 197.003C29.5413 197.064 32.3956 200.17 32.3956 203.997C32.4299 203.997 32.4657 204 32.5 204C32.5343 204 32.5701 203.998 32.6044 203.997Z" fill="#FFDD46" stroke="black" stroke-miterlimit="10"/>
<path d="M350.604 86.9966C350.604 83.1704 353.46 80.0637 357 80.0034C357 80.0034 357 80.0017 357 80C357 79.9983 357 79.9983 357 79.9966C353.459 79.9363 350.604 76.8296 350.604 73.0034C350.57 73.0034 350.534 73 350.5 73C350.466 73 350.43 73.0017 350.396 73.0034C350.396 76.8296 347.54 79.9363 344 79.9966C344 79.9966 344 79.9983 344 80C344 80.0017 344 80.0017 344 80.0034C347.541 80.0637 350.396 83.1704 350.396 86.9966C350.43 86.9966 350.466 87 350.5 87C350.534 87 350.57 86.9983 350.604 86.9966Z" fill="#FFDD46" stroke="black" stroke-miterlimit="10"/>
<path d="M113.604 53.9966C113.604 50.1704 116.46 47.0637 120 47.0034V47V46.9966C116.459 46.9363 113.604 43.8296 113.604 40.0034C113.57 40.0034 113.534 40 113.5 40C113.466 40 113.43 40.0017 113.396 40.0034C113.396 43.8296 110.54 46.9363 107 46.9966V47V47.0034C110.541 47.0637 113.396 50.1704 113.396 53.9966C113.43 53.9966 113.466 54 113.5 54C113.534 54 113.57 53.9983 113.604 53.9966Z" fill="#FFDD46" stroke="black" stroke-miterlimit="10"/>
<path d="M185.604 29.9966C185.604 26.1704 188.46 23.0637 192 23.0034C192 23.0034 192 23.0017 192 23C192 22.9983 192 22.9983 192 22.9966C188.459 22.9363 185.604 19.8296 185.604 16.0034C185.57 16.0034 185.534 16 185.5 16C185.466 16 185.43 16.0017 185.396 16.0034C185.396 19.8296 182.54 22.9363 179 22.9966C179 22.9966 179 22.9983 179 23C179 23.0017 179 23.0017 179 23.0034C182.541 23.0637 185.396 26.1704 185.396 29.9966C185.43 29.9966 185.466 30 185.5 30C185.534 30 185.57 29.9983 185.604 29.9966Z" fill="#FFDD46" stroke="black" stroke-miterlimit="10"/>
<defs>
<clipPath id="clip0_1788_2959">
<rect width="240" height="240" fill="white" transform="translate(71 50)"/>
</clipPath>
</defs>
</svg>
