<svg width="240" height="240" viewBox="0 0 240 240" fill="none" xmlns="http://www.w3.org/2000/svg">
<g clip-path="url(#clip0_1668_5611)">
<path d="M35.5 38.5C35.5 38.5 47.0435 43.3544 53 48.5C59.3245 53.9635 58.8207 61.2214 66 65.5C73.6148 70.0381 77.2231 68.3262 85.5 71.5C93.1356 74.4279 100 84.5 100 84.5L79 99.5L30.5 67L35.5 38.5Z" fill="#FFDD46"/>
<line x1="35.4936" y1="38.08" x2="29.4936" y2="75.08" stroke="black"/>
<line x1="99.2731" y1="84.4188" x2="76.2731" y2="99.4188" stroke="black"/>
<line x1="61.416" y1="70.2774" x2="51.416" y2="85.2774" stroke="black"/>
<line x1="49.4762" y1="54.1524" x2="41.4762" y2="79.1524" stroke="black"/>
<line x1="78.3275" y1="77.3778" x2="63.3275" y2="90.3778" stroke="black"/>
<path d="M206.112 13.9966C206.112 10.1704 209.188 7.06374 213 7.00335C213 7.00335 213 7.00168 213 7C213 6.99832 213 6.99832 213 6.99664C209.186 6.93626 206.112 3.82962 206.112 0.0033549C206.076 0.0033549 206.037 0 206 0C205.963 0 205.924 0.00167745 205.888 0.0033549C205.888 3.82962 202.812 6.93626 199 6.99664C199 6.99664 199 6.99832 199 7C199 7.00168 199 7.00168 199 7.00335C202.814 7.06374 205.888 10.1704 205.888 13.9966C205.924 13.9966 205.963 14 206 14C206.037 14 206.076 13.9983 206.112 13.9966Z" fill="#FFDD46" stroke="black" stroke-miterlimit="10"/>
<path d="M226.112 92.9966C226.112 89.1704 229.188 86.0637 233 86.0034C233 86.0034 233 86.0017 233 86C233 85.9983 233 85.9983 233 85.9966C229.186 85.9363 226.112 82.8296 226.112 79.0034C226.076 79.0034 226.037 79 226 79C225.963 79 225.924 79.0017 225.888 79.0034C225.888 82.8296 222.812 85.9363 219 85.9966C219 85.9966 219 85.9983 219 86C219 86.0017 219 86.0017 219 86.0034C222.814 86.0637 225.888 89.1704 225.888 92.9966C225.924 92.9966 225.963 93 226 93C226.037 93 226.076 92.9983 226.112 92.9966Z" fill="#FFDD46" stroke="black" stroke-miterlimit="10"/>
<path d="M206.112 178.997C206.112 175.17 209.188 172.064 213 172.003C213 172.003 213 172.002 213 172C213 171.998 213 171.998 213 171.997C209.186 171.936 206.112 168.83 206.112 165.003C206.076 165.003 206.037 165 206 165C205.963 165 205.924 165.002 205.888 165.003C205.888 168.83 202.812 171.936 199 171.997C199 171.997 199 171.998 199 172C199 172.002 199 172.002 199 172.003C202.814 172.064 205.888 175.17 205.888 178.997C205.924 178.997 205.963 179 206 179C206.037 179 206.076 178.998 206.112 178.997Z" fill="#FFDD46" stroke="black" stroke-miterlimit="10"/>
<path d="M76.6044 43.9966C76.6044 40.1704 79.4602 37.0637 83 37.0034C83 37.0034 83 37.0017 83 37C83 36.9983 83 36.9983 83 36.9966C79.4587 36.9363 76.6044 33.8296 76.6044 30.0034C76.5701 30.0034 76.5343 30 76.5 30C76.4657 30 76.4299 30.0017 76.3956 30.0034C76.3956 33.8296 73.5398 36.9363 70 36.9966C70 36.9966 70 36.9983 70 37C70 37.0017 70 37.0017 70 37.0034C73.5413 37.0637 76.3956 40.1704 76.3956 43.9966C76.4299 43.9966 76.4657 44 76.5 44C76.5343 44 76.5701 43.9983 76.6044 43.9966Z" fill="#FFDD46" stroke="black" stroke-miterlimit="10"/>
<path d="M35.1124 171.997C35.1124 168.444 38.1879 165.559 42 165.503C42 165.503 42 165.502 42 165.5C42 165.498 42 165.498 42 165.497C38.1862 165.441 35.1124 162.556 35.1124 159.003C35.0755 159.003 35.0369 159 35 159C34.9631 159 34.9245 159.002 34.8876 159.003C34.8876 162.556 31.8121 165.441 28 165.497C28 165.497 28 165.498 28 165.5C28 165.502 28 165.502 28 165.503C31.8138 165.559 34.8876 168.444 34.8876 171.997C34.9245 171.997 34.9631 172 35 172C35.0369 172 35.0755 171.998 35.1124 171.997Z" fill="#FFDD46" stroke="black" stroke-miterlimit="10"/>
<path d="M183.729 83.6899C183.864 82.5309 183.937 81.3166 183.937 80.0634C183.937 72.4919 181.292 66.2874 177.937 65.7363C177.132 65.2698 176.198 65 175.202 65L163.091 69.1499C162.095 68.025 160.383 67.2806 158.436 67.2806C155.361 67.2806 152.866 69.1369 152.866 71.4256C152.866 71.8254 152.944 72.2123 153.086 72.578L151.482 73.1274C148.454 73.1274 146 75.5949 146 78.6395V119.488C146 122.533 148.454 125 151.482 125H186.518C189.546 125 192 122.533 192 119.488L183.729 83.6899Z" fill="#D092F1" stroke="black" stroke-miterlimit="10"/>
<path d="M133.069 95.5006C133.428 93.5069 135.168 92.3901 138.629 90.36C145.544 86.3043 149.056 84.3063 151.354 83.7929C154.585 83.0717 158.607 82.173 161.233 84.4837C164.007 86.9253 164.396 92.2229 162.238 97.6179C162.648 96.9955 163.882 95.297 166.088 94.6804C166.925 94.4463 167.878 94.375 168.433 94.5074C170.867 95.0905 172.292 101.211 171.95 109.369C170.357 111.004 167.865 113.256 164.415 115.245C160.047 117.763 153.255 121.679 146.667 119.22C140.977 117.097 140.234 107.419 135.95 102.975C135.725 102.741 134.837 101.842 134.109 100.382C133.908 99.9795 132.699 97.5612 133.071 95.4991L133.069 95.5006Z" fill="#D092F1" stroke="black" stroke-miterlimit="10"/>
<path d="M139.397 92C141.005 92.0326 147.409 92.3504 152.475 97.3915C157.391 102.281 159.17 109.749 157.231 116.858C141.081 127.64 124.931 138.421 108.78 149.202C107.462 149.968 105.28 150.974 102.538 151C102.538 151 96.304 151.057 90.9465 144.71C84.9371 137.593 88.271 121.109 99.5667 104.279C112.844 100.187 126.119 96.0925 139.397 92Z" fill="#F2D9C9" stroke="black" stroke-miterlimit="10"/>
<path d="M107.45 138.551L103.601 144.507C101.986 147.008 98.606 147.752 96.0549 146.167C35.1551 107.241 15.3962 95.0527 12.5624 92.9734C12.5624 92.9734 12.5624 92.9734 12.5591 92.9734C11.3925 92.0421 11.0496 89.4518 11.0074 88.0523C10.9554 86.3584 11.1325 83.1106 13.0824 78.6114C17.8125 71.6923 18.4543 69.836 18.7582 70.0111C19.1985 70.2642 17.5378 74.5962 19.1238 76.3013C19.5462 76.7551 20.1556 76.9015 20.6284 76.9493L111.261 133.168C113.814 134.751 109.064 136.051 107.449 138.553L107.45 138.551Z" fill="#6E00E1" stroke="black" stroke-miterlimit="10"/>
<path d="M129.793 203.127C116.986 181.856 96.6079 184.524 86.7919 194.575C77.6677 203.917 77.5673 219.936 87.5187 230H157V196.453C146.051 196.453 137.814 197.627 129.795 203.127H129.793Z" fill="#B03EF5" stroke="black" stroke-miterlimit="10"/>
<path d="M20.4896 67.0086L16.6506 73.0695C15.039 75.614 15.7149 78.9315 18.1605 80.4793L105.006 135.444C107.451 136.992 110.74 136.184 112.352 133.64L116.191 127.579C117.803 125.034 117.127 121.717 114.681 120.169L27.8359 65.2039C25.3903 63.6561 22.1013 64.4641 20.4896 67.0086Z" fill="#6E00E1" stroke="black" stroke-miterlimit="10"/>
<path d="M84.5564 102.537L87.0972 100.126C89.3474 97.9895 89.4393 94.4343 87.3024 92.1849L74.687 78.9055C72.5501 76.6561 68.9936 76.5642 66.7433 78.7003L64.2025 81.1122C61.9523 83.2483 61.8604 86.8034 63.9973 89.0528L76.6127 102.332C78.7496 104.582 82.3061 104.674 84.5564 102.537Z" fill="#F2D9C9" stroke="black" stroke-miterlimit="10"/>
<path d="M121 108.736L116.154 103.73L111.309 98.7232C109 96.3367 106.11 94.7996 103.051 94.1198C99.9923 93.44 96.7674 93.6192 93.7886 94.6668C94.118 93.5472 94.1522 92.3571 93.8848 91.2215C93.6174 90.0858 93.0484 89.0046 92.1762 88.1024C90.8686 86.7508 89.1159 86.0471 87.3469 86.0023C85.5779 85.9575 83.791 86.5701 82.4133 87.8529L70.2783 99.1567L58.1432 110.46C56.7655 111.743 56.0498 113.463 56.0025 115.198C55.9552 116.934 56.5813 118.687 57.8889 120.038C59.1964 121.39 60.9491 122.092 62.7181 122.138C64.4871 122.185 66.274 121.571 67.6517 120.288L69.1435 118.898L70.6353 117.508C69.8853 120.155 69.8283 122.961 70.4755 125.635C71.1228 128.309 72.4695 130.854 74.5287 132.982L79.3743 137.988L84.2198 142.994C87.3339 146.213 91.5077 147.887 95.7223 147.995C99.9369 148.102 104.192 146.64 107.473 143.585L113.935 137.564L120.398 131.544" fill="#F2D9C9"/>
<path d="M121 108.736L116.154 103.73L111.309 98.7232C109 96.3367 106.11 94.7996 103.051 94.1198C99.9923 93.44 96.7674 93.6192 93.7886 94.6668C94.118 93.5472 94.1522 92.3571 93.8848 91.2215C93.6174 90.0858 93.0484 89.0046 92.1762 88.1024C90.8686 86.7508 89.1159 86.0471 87.3469 86.0023C85.5779 85.9575 83.791 86.5701 82.4133 87.8529L70.2783 99.1567L58.1432 110.46C56.7655 111.743 56.0498 113.463 56.0025 115.198C55.9552 116.934 56.5813 118.687 57.8889 120.038C59.1964 121.39 60.9491 122.092 62.7181 122.138C64.4871 122.185 66.274 121.571 67.6517 120.288L69.1435 118.898L70.6353 117.508C69.8853 120.155 69.8283 122.961 70.4755 125.635C71.1228 128.309 72.4695 130.854 74.5287 132.982L79.3743 137.988L84.2198 142.994C87.3339 146.213 91.5077 147.887 95.7223 147.995C99.9369 148.102 104.192 146.64 107.473 143.585L113.935 137.564L120.398 131.544" stroke="black" stroke-miterlimit="10"/>
<path d="M93 106.184C90.3271 103.376 85.8362 103.26 83.0216 105.926L66.1893 121.864C63.3748 124.53 63.2581 129.009 65.931 131.816C68.6039 134.624 73.0949 134.74 75.9094 132.074L90.68 119" fill="#F2D9C9"/>
<path d="M93 106.184C90.3271 103.376 85.8362 103.26 83.0216 105.926L66.1893 121.864C63.3748 124.53 63.2581 129.009 65.931 131.816C68.6039 134.624 73.0949 134.74 75.9094 132.074L90.68 119" stroke="black" stroke-miterlimit="10"/>
<path d="M92.1926 117L75.209 132.896C72.3692 135.555 72.2515 140.023 74.9484 142.822C77.6453 145.622 82.1766 145.738 85.0165 143.079L102 127.183" fill="#F2D9C9"/>
<path d="M92.1926 117L75.209 132.896C72.3692 135.555 72.2515 140.023 74.9484 142.822C77.6453 145.622 82.1766 145.738 85.0165 143.079L102 127.183" stroke="black" stroke-miterlimit="10"/>
<path d="M183 206V125H157.27C147.507 156.22 121.683 181.01 119 202.08C134.409 202.08 169.979 206 182.998 206H183Z" fill="#F2D9FF" stroke="black" stroke-miterlimit="10"/>
<path d="M154.733 205.502C141.427 183.737 120.255 186.467 110.057 196.752C100.577 206.311 100.472 222.702 110.812 233H183V198.673C171.624 198.673 163.067 199.874 154.735 205.502H154.733Z" fill="#B03EF5" stroke="black" stroke-miterlimit="10"/>
<path d="M188 206V125H157.393C156.263 151.95 155.132 178.901 154 205.851C172.331 205.851 172.511 206 188 206Z" fill="#F2D9FF" stroke="black" stroke-miterlimit="10"/>
<path d="M133 69.7195C133.721 70.1098 136.737 71.6318 140.529 70.7061C143.82 69.9023 145.695 67.7429 146.265 67.0297C148.265 67.5205 153.887 68.6208 160.334 66.1337C166.599 63.7173 169.992 59.3194 171.179 57.6163C172.894 57.982 178.425 58.9307 184.05 55.8934C187.048 54.2742 188.945 52.1313 190 50.7131C186.041 47.9525 183.793 45.1096 182.471 43.0029C182.03 42.2995 181.309 41.2058 180.231 38.8784C177.214 32.3673 176.655 31.4877 176.019 30.8091C172.359 26.8988 160.762 29.7549 152.987 35.2926C145.904 40.3362 137.789 50.6011 138.199 58.6046C138.26 59.7988 138.639 63.4356 136.497 66.585C135.395 68.2041 133.981 69.1726 133.002 69.7228L133 69.7195Z" fill="#B03EF5" stroke="black" stroke-miterlimit="10"/>
<path d="M161.601 31.5741C161.327 31.6648 161.063 31.7669 160.804 31.8803C161.838 33.246 162.666 34.7996 163.231 36.512L165.67 43.8979C166.236 45.6086 166.495 47.3502 166.478 49.0642C166.753 49.001 167.027 48.9265 167.301 48.8358C172.069 47.2627 174.659 42.1239 173.083 37.3577C171.508 32.5915 166.369 30.0026 161.601 31.5773V31.5741Z" fill="#F2D9C9" stroke="black" stroke-miterlimit="10"/>
<path d="M162.464 57.6439L149.12 63.4436L152.059 70.2005L165.403 64.4008L162.464 57.6439Z" fill="#F2D9C9" stroke="black" stroke-miterlimit="10"/>
<path d="M169.978 41.0125C167.401 41.863 165.149 43.6888 163.839 46.2874C162.53 48.8859 162.403 51.7826 163.254 54.3585" stroke="black" stroke-miterlimit="10"/>
<path d="M142.947 26.2444L142.823 26.2855C134.41 29.0618 129.841 38.1299 132.619 46.5395L135.099 54.0484C137.876 62.458 146.948 67.0247 155.361 64.2483L155.485 64.2072C163.898 61.4309 168.467 52.3629 165.689 43.9532L163.209 36.4443C160.432 28.0347 151.36 23.468 142.947 26.2444Z" fill="#F2D9C9" stroke="black" stroke-miterlimit="10"/>
<path d="M136.509 50.4638C137.284 50.4638 137.911 49.8364 137.911 49.0625C137.911 48.2885 137.284 47.6611 136.509 47.6611C135.735 47.6611 135.108 48.2885 135.108 49.0625C135.108 49.8364 135.735 50.4638 136.509 50.4638Z" fill="black"/>
<path d="M146.352 47.0439C147.126 47.0439 147.754 46.4165 147.754 45.6426C147.754 44.8686 147.126 44.2412 146.352 44.2412C145.578 44.2412 144.95 44.8686 144.95 45.6426C144.95 46.4165 145.578 47.0439 146.352 47.0439Z" fill="black"/>
<path d="M139.994 53.555L139.278 53.7915C138.597 54.0167 137.858 53.6441 137.633 52.9636C137.407 52.2832 137.78 51.5445 138.461 51.3193L139.177 51.0828" fill="#F2D9C9"/>
<path d="M139.994 53.555L139.278 53.7915C138.597 54.0167 137.858 53.6441 137.633 52.9636C137.407 52.2832 137.78 51.5445 138.461 51.3193L139.177 51.0828" stroke="black" stroke-miterlimit="10"/>
<path d="M150.666 52.8196C150.285 53.3801 149.851 53.905 149.37 54.3846C148.888 54.8641 148.358 55.2999 147.788 55.6822C147.217 56.0646 146.605 56.3934 145.956 56.6624C145.308 56.9313 144.623 57.137 143.908 57.2731C143.193 57.4092 142.48 57.4691 141.778 57.4594C141.077 57.4497 140.386 57.3687 139.714 57.2229" fill="#F2D9C9"/>
<path d="M150.666 52.8196C150.285 53.3801 149.851 53.905 149.37 54.3846C148.888 54.8641 148.358 55.2999 147.788 55.6822C147.217 56.0646 146.605 56.3934 145.956 56.6624C145.308 56.9313 144.623 57.137 143.908 57.2731C143.193 57.4092 142.48 57.4691 141.778 57.4594C141.077 57.4497 140.386 57.3687 139.714 57.2229" stroke="black" stroke-miterlimit="10"/>
<path d="M152.595 53.0884C152.408 53.124 152.219 53.1418 152.027 53.1418C151.836 53.1418 151.647 53.1224 151.457 53.0851C151.267 53.0479 151.083 52.9912 150.901 52.9166C150.72 52.8421 150.543 52.7465 150.374 52.6331C150.206 52.5181 150.053 52.3901 149.916 52.2492C149.778 52.1082 149.658 51.956 149.554 51.7939" fill="#F2D9C9"/>
<path d="M152.595 53.0884C152.408 53.124 152.219 53.1418 152.027 53.1418C151.836 53.1418 151.647 53.1224 151.457 53.0851C151.267 53.0479 151.083 52.9912 150.901 52.9166C150.72 52.8421 150.543 52.7465 150.374 52.6331C150.206 52.5181 150.053 52.3901 149.916 52.2492C149.778 52.1082 149.658 51.956 149.554 51.7939" stroke="black" stroke-miterlimit="10"/>
<path d="M178 34.848C177.572 32.2942 176.57 28.31 173.94 24.1723C173.208 23.022 166.89 13.4239 155.699 11.389C141.201 8.75294 124.546 19.9017 123.103 33.0885C122.511 38.4905 124.595 43.1234 126.306 46C126.625 45.9035 126.944 45.807 127.264 45.7104C129.518 45.0301 131.76 44.375 133.99 43.7452C134.432 43.606 134.874 43.4683 135.316 43.3291C134.946 42.4842 134.425 41.2136 133.911 39.6281C133.279 37.6787 132.848 35.8417 132.985 35.7974C133.123 35.7531 133.535 37.5743 134.856 39.3765C135.987 40.9209 137.366 41.8781 138.423 42.4668C141.046 41.6946 143.668 40.9224 146.29 40.1503C145.348 39.212 143.799 37.4082 142.913 34.7009C141.526 30.4683 142.678 26.8322 143.128 25.6106C143.368 26.9714 144.403 31.8433 148.88 35.367C155.393 40.4936 163.369 38.1803 164.085 37.9588C164.249 37.4351 165.002 35.223 167.23 34.1439C167.718 33.9066 168.436 33.5363 169.368 33.5885C171.663 33.7151 172.929 36.2056 173.033 36.4192" fill="#B03EF5"/>
<path d="M178 34.848C177.572 32.2942 176.57 28.31 173.94 24.1723C173.208 23.022 166.89 13.4239 155.699 11.389C141.201 8.75294 124.546 19.9017 123.103 33.0885C122.511 38.4905 124.595 43.1234 126.306 46C126.625 45.9035 126.944 45.807 127.264 45.7104C129.518 45.0301 131.76 44.375 133.99 43.7452C134.432 43.606 134.874 43.4683 135.316 43.3291C134.946 42.4842 134.425 41.2136 133.911 39.6281C133.279 37.6787 132.848 35.8417 132.985 35.7974C133.123 35.7531 133.535 37.5743 134.856 39.3765C135.987 40.9209 137.366 41.8781 138.423 42.4668C141.046 41.6946 143.668 40.9224 146.29 40.1503C145.348 39.212 143.799 37.4082 142.913 34.7009C141.526 30.4683 142.678 26.8322 143.128 25.6106C143.368 26.9714 144.403 31.8433 148.88 35.367C155.393 40.4936 163.369 38.1803 164.085 37.9588C164.249 37.4351 165.002 35.223 167.23 34.1439C167.718 33.9066 168.436 33.5363 169.368 33.5885C171.663 33.7151 172.929 36.2056 173.033 36.4192" stroke="black" stroke-miterlimit="10"/>
<path d="M140 39C140.868 38.0941 142.283 37.3952 144.034 37.1215C145.787 36.8478 147.558 37.0498 149 37.5941" stroke="black" stroke-miterlimit="10"/>
<path d="M149.002 68.6496C154.348 66.4336 159.695 64.216 165.042 62C166.694 64.0863 168.348 66.1726 170 68.259C164.462 71.506 158.921 74.753 153.383 78C151.922 74.8827 150.462 71.767 149 68.6496H149.002Z" fill="#D092F1" stroke="black" stroke-miterlimit="10"/>
<path d="M181 91C180.921 93.0289 180.4 96.2089 178.052 99.7525C176.202 102.545 173.847 104.62 172 106" fill="#D092F1"/>
<path d="M181 91C180.921 93.0289 180.4 96.2089 178.052 99.7525C176.202 102.545 173.847 104.62 172 106" stroke="black" stroke-miterlimit="10"/>
<path d="M160.559 77.7781C160.051 78.5079 159.216 79.6253 158.113 80.7525C157.243 81.6407 156.501 82.2354 155.98 82.6122" fill="#D092F1"/>
<path d="M160.559 77.7781C160.051 78.5079 159.216 79.6253 158.113 80.7525C157.243 81.6407 156.501 82.2354 155.98 82.6122" stroke="black" stroke-miterlimit="10"/>
</g>
<defs>
<clipPath id="clip0_1668_5611">
<rect width="240" height="240" fill="white"/>
</clipPath>
</defs>
</svg>
