<svg width="57" height="30" viewBox="0 0 57 30" fill="none" xmlns="http://www.w3.org/2000/svg">
<rect width="57" height="30" rx="15" fill="#D4EED0"/>
<path fill-rule="evenodd" clip-rule="evenodd" d="M18.3135 13.8641L14.7607 17.4175C14.641 17.5364 14.4792 17.6031 14.3105 17.6031C14.1418 17.6031 13.98 17.5364 13.8603 17.4175L11.6865 15.2437C11.6274 15.1846 11.5805 15.1145 11.5485 15.0373C11.5166 14.9601 11.5001 14.8774 11.5001 14.7938C11.5001 14.6251 11.5671 14.4632 11.6865 14.3439C11.8058 14.2246 11.9676 14.1576 12.1364 14.1576C12.3051 14.1576 12.4669 14.2246 12.5863 14.3439L14.3102 16.0678L17.4137 12.9643C17.4728 12.9052 17.543 12.8583 17.6201 12.8263C17.6973 12.7944 17.7801 12.7779 17.8636 12.7779C17.9472 12.7779 18.0299 12.7944 18.1071 12.8263C18.1843 12.8583 18.2545 12.9052 18.3135 12.9643C18.3726 13.0234 18.4195 13.0935 18.4515 13.1707C18.4834 13.2479 18.4999 13.3306 18.4999 13.4142C18.4999 13.4977 18.4834 13.5805 18.4515 13.6577C18.4195 13.7349 18.3726 13.805 18.3135 13.8641ZM15 8C11.1341 8 8 11.1341 8 15C8 18.8659 11.1341 22 15 22C18.8659 22 22 18.8659 22 15C22 11.1341 18.8659 8 15 8Z" fill="#1FB641"/>
<path d="M29.873 10.5117V9.45898H28.1094V10.5938C28.1025 12.3301 27.1865 13.998 25.0605 14.6816L25.9766 16.0762C27.4736 15.5703 28.4785 14.5518 29.0254 13.2529C29.5518 14.374 30.4609 15.2285 31.8008 15.6934L32.7168 14.3262C30.7207 13.7109 29.8662 12.1729 29.873 10.5117ZM27.125 18.8516C27.125 20.3896 28.752 21.2646 31.4043 21.2578C34.0635 21.2646 35.6904 20.3896 35.6973 18.8516C35.6904 17.3203 34.0635 16.4248 31.4043 16.4316C28.752 16.4248 27.125 17.3203 27.125 18.8516ZM28.8613 18.8516C28.8613 18.1406 29.7568 17.7852 31.4043 17.7852C33.0586 17.7852 33.9541 18.1406 33.9609 18.8516C33.9541 19.542 33.0586 19.9043 31.4043 19.9043C29.7568 19.9043 28.8613 19.542 28.8613 18.8516ZM31.582 12.5215H33.9199V16.1035H35.6562V8.81641H33.9199V11.0996H31.582V12.5215ZM42.875 16.5684C40.1748 16.5684 38.4385 17.4297 38.4453 18.9199C38.4385 20.3896 40.1748 21.2646 42.875 21.2578C45.5957 21.2646 47.3047 20.3896 47.3184 18.9199C47.3047 17.4297 45.5957 16.5684 42.875 16.5684ZM37.2969 15.7754H48.5898V14.3672H43.2578V12.1934H41.5352V14.3672H37.2969V15.7754ZM38.5684 10.7441H45.5137C45.5 11.5918 45.4658 12.4326 45.1855 13.5605L46.8945 13.7246C47.2568 12.4463 47.2568 11.3799 47.25 10.3887V9.37695H38.5684V10.7441ZM40.1816 18.9199C40.1748 18.2295 41.1592 17.8604 42.875 17.8672C44.5908 17.8604 45.582 18.2295 45.582 18.9199C45.582 19.5898 44.5908 19.9316 42.875 19.9316C41.1592 19.9316 40.1748 19.5898 40.1816 18.9199Z" fill="#1FB641"/>
</svg>
