<svg width="48" height="48" viewBox="0 0 48 48" fill="none" xmlns="http://www.w3.org/2000/svg">
<path d="M18.1949 34.1094H17.443V37.6445H16.193V34.3047H15.4703V42.3418H16.193V38.2988H17.443V42.791H18.1949V34.1094ZM11.2223 40.5449H11.7594C12.7164 40.5449 13.7125 40.4814 14.9234 40.2617L14.8258 39.5781C13.7711 39.793 12.8434 39.8564 11.984 39.8613V35.1738H11.2223V40.5449ZM28.9129 34.1094H28.1414V42.791H28.9129V34.1094ZM21.8426 40.5352L22.2625 41.1602C25.1727 39.7637 26.3348 37.5518 26.3445 35.0566H22.243V35.6816H25.5633C25.3924 37.7568 24.1912 39.4219 21.8426 40.5352ZM38.2172 38.8945H34.6137V37.9766H37.3773V37.3613H32.0648V36.4336H37.1918V34.334H31.2738V34.959H36.4203V35.8574H31.3031V37.9766H33.8617V38.8945H30.268V39.5293H38.2172V38.8945ZM31.1566 40.8184H36.4691V42.7129H37.2406V40.1934H31.1566V40.8184Z" fill="#6B47FD"/>
<path fill-rule="evenodd" clip-rule="evenodd" d="M29.0005 12.0128C29.0005 12.6712 28.8713 13.3232 28.6201 13.9315C28.3689 14.5398 28.0007 15.0926 27.5365 15.5582C27.0723 16.0238 26.5212 16.3932 25.9147 16.6452C25.3081 16.8973 24.658 17.027 24.0015 17.0271C22.6755 17.0272 21.4038 16.4991 20.4662 15.5589C19.5285 14.6188 19.0016 13.3435 19.0015 12.0138C19.0014 11.3554 19.1307 10.7034 19.3819 10.0951C19.633 9.48675 20.0012 8.934 20.4654 8.46838C21.4029 7.52801 22.6745 6.99965 24.0005 6.99951C25.3264 6.99938 26.5981 7.52748 27.5358 8.46765C28.4735 9.40782 29.0003 10.683 29.0005 12.0128M24.001 18.5609C16.8015 18.5609 14.001 23.1558 14.001 25.2934C14.001 27.43 19.9626 27.9995 24.001 27.9995C28.0394 27.9995 34.001 27.43 34.001 25.2934C34.001 23.1558 31.2004 18.5609 24.001 18.5609Z" fill="#6B47FD"/>
</svg>
