<svg width="333" height="290" viewBox="0 0 333 290" fill="none" xmlns="http://www.w3.org/2000/svg">
<circle cx="166.5" cy="137.5" r="137" fill="#F8ECFF" stroke="black"/>
<g clip-path="url(#clip0_1788_3008)">
<path d="M81.5 88.5C81.5 88.5 93.0435 93.3544 99 98.5C105.324 103.964 104.821 111.221 112 115.5C119.615 120.038 123.223 118.326 131.5 121.5C139.136 124.428 146 134.5 146 134.5L125 149.5L76.5 117L81.5 88.5Z" fill="#FFDD46"/>
<line x1="81.4936" y1="88.08" x2="75.4936" y2="125.08" stroke="black"/>
<line x1="145.273" y1="134.419" x2="122.273" y2="149.419" stroke="black"/>
<line x1="107.416" y1="120.277" x2="97.416" y2="135.277" stroke="black"/>
<line x1="95.4762" y1="104.152" x2="87.4762" y2="129.152" stroke="black"/>
<line x1="124.327" y1="127.378" x2="109.327" y2="140.378" stroke="black"/>
<path d="M252.112 63.9966C252.112 60.1704 255.188 57.0637 259 57.0034C259 57.0034 259 57.0017 259 57C259 56.9983 259 56.9983 259 56.9966C255.186 56.9363 252.112 53.8296 252.112 50.0034C252.076 50.0034 252.037 50 252 50C251.963 50 251.924 50.0017 251.888 50.0034C251.888 53.8296 248.812 56.9363 245 56.9966C245 56.9966 245 56.9983 245 57C245 57.0017 245 57.0017 245 57.0034C248.814 57.0637 251.888 60.1704 251.888 63.9966C251.924 63.9966 251.963 64 252 64C252.037 64 252.076 63.9983 252.112 63.9966Z" fill="#FFDD46" stroke="black" stroke-miterlimit="10"/>
<path d="M272.112 142.997C272.112 139.17 275.188 136.064 279 136.003C279 136.003 279 136.002 279 136C279 135.998 279 135.998 279 135.997C275.186 135.936 272.112 132.83 272.112 129.003C272.076 129.003 272.037 129 272 129C271.963 129 271.924 129.002 271.888 129.003C271.888 132.83 268.812 135.936 265 135.997C265 135.997 265 135.998 265 136C265 136.002 265 136.002 265 136.003C268.814 136.064 271.888 139.17 271.888 142.997C271.924 142.997 271.963 143 272 143C272.037 143 272.076 142.998 272.112 142.997V142.997Z" fill="#FFDD46" stroke="black" stroke-miterlimit="10"/>
<path d="M252.112 228.997C252.112 225.17 255.188 222.064 259 222.003C259 222.003 259 222.002 259 222C259 221.998 259 221.998 259 221.997C255.186 221.936 252.112 218.83 252.112 215.003C252.076 215.003 252.037 215 252 215C251.963 215 251.924 215.002 251.888 215.003C251.888 218.83 248.812 221.936 245 221.997C245 221.997 245 221.998 245 222C245 222.002 245 222.002 245 222.003C248.814 222.064 251.888 225.17 251.888 228.997C251.924 228.997 251.963 229 252 229C252.037 229 252.076 228.998 252.112 228.997V228.997Z" fill="#FFDD46" stroke="black" stroke-miterlimit="10"/>
<path d="M122.604 93.9966C122.604 90.1704 125.46 87.0637 129 87.0034C129 87.0034 129 87.0017 129 87C129 86.9983 129 86.9983 129 86.9966C125.459 86.9363 122.604 83.8296 122.604 80.0034C122.57 80.0034 122.534 80 122.5 80C122.466 80 122.43 80.0017 122.396 80.0034C122.396 83.8296 119.54 86.9363 116 86.9966C116 86.9966 116 86.9983 116 87C116 87.0017 116 87.0017 116 87.0034C119.541 87.0637 122.396 90.1704 122.396 93.9966C122.43 93.9966 122.466 94 122.5 94C122.534 94 122.57 93.9983 122.604 93.9966Z" fill="#FFDD46" stroke="black" stroke-miterlimit="10"/>
<path d="M81.1124 221.997C81.1124 218.444 84.1879 215.559 88 215.503C88 215.503 88 215.502 88 215.5C88 215.498 88 215.498 88 215.497C84.1862 215.441 81.1124 212.556 81.1124 209.003C81.0755 209.003 81.0369 209 81 209C80.9631 209 80.9245 209.002 80.8876 209.003C80.8876 212.556 77.8121 215.441 74 215.497C74 215.497 74 215.498 74 215.5C74 215.502 74 215.502 74 215.503C77.8138 215.559 80.8876 218.444 80.8876 221.997C80.9245 221.997 80.9631 222 81 222C81.0369 222 81.0755 221.998 81.1124 221.997Z" fill="#FFDD46" stroke="black" stroke-miterlimit="10"/>
<path d="M229.729 133.69C229.864 132.531 229.937 131.317 229.937 130.063C229.937 122.492 227.292 116.287 223.937 115.736C223.132 115.27 222.198 115 221.202 115L209.091 119.15C208.095 118.025 206.383 117.281 204.436 117.281C201.361 117.281 198.866 119.137 198.866 121.426C198.866 121.825 198.944 122.212 199.086 122.578L197.482 123.127C194.454 123.127 192 125.595 192 128.639V169.488C192 172.533 194.454 175 197.482 175H232.518C235.546 175 238 172.533 238 169.488L229.729 133.69V133.69Z" fill="#D092F1" stroke="black" stroke-miterlimit="10"/>
<path d="M179.069 145.501C179.428 143.507 181.168 142.39 184.629 140.36C191.544 136.304 195.056 134.306 197.354 133.793C200.585 133.072 204.607 132.173 207.233 134.484C210.007 136.925 210.396 142.223 208.238 147.618C208.648 146.995 209.882 145.297 212.088 144.68C212.925 144.446 213.878 144.375 214.433 144.507C216.867 145.091 218.292 151.211 217.95 159.369C216.357 161.004 213.865 163.256 210.415 165.245C206.047 167.763 199.255 171.679 192.667 169.22C186.977 167.097 186.234 157.419 181.95 152.975C181.725 152.741 180.837 151.842 180.109 150.382C179.908 149.979 178.699 147.561 179.071 145.499L179.069 145.501Z" fill="#D092F1" stroke="black" stroke-miterlimit="10"/>
<path d="M185.397 142C187.005 142.033 193.409 142.35 198.475 147.391C203.391 152.281 205.17 159.749 203.231 166.858C187.081 177.64 170.931 188.421 154.78 199.202C153.462 199.968 151.28 200.974 148.538 201C148.538 201 142.304 201.057 136.946 194.71C130.937 187.593 134.271 171.109 145.567 154.279C158.844 150.187 172.119 146.093 185.397 142Z" fill="#F2D9C9" stroke="black" stroke-miterlimit="10"/>
<path d="M153.45 188.551L149.601 194.507C147.986 197.008 144.606 197.752 142.055 196.167C81.1551 157.241 61.3962 145.053 58.5624 142.973C58.5624 142.973 58.5624 142.973 58.5591 142.973C57.3925 142.042 57.0496 139.452 57.0074 138.052C56.9554 136.358 57.1325 133.111 59.0824 128.611C63.8125 121.692 64.4543 119.836 64.7582 120.011C65.1985 120.264 63.5378 124.596 65.1238 126.301C65.5462 126.755 66.1556 126.902 66.6284 126.949L157.261 183.168C159.814 184.751 155.064 186.051 153.449 188.553L153.45 188.551Z" fill="#6E00E1" stroke="black" stroke-miterlimit="10"/>
<path d="M175.793 253.127C162.986 231.856 142.608 234.524 132.792 244.575C123.668 253.917 123.567 269.936 133.519 280H203V246.453C192.051 246.453 183.814 247.627 175.795 253.127H175.793Z" fill="#871FBF" stroke="black" stroke-miterlimit="10"/>
<path d="M66.4896 117.009L62.6506 123.069C61.039 125.614 61.7149 128.932 64.1605 130.479L151.006 185.444C153.451 186.992 156.74 186.184 158.352 183.64L162.191 177.579C163.803 175.034 163.127 171.717 160.681 170.169L73.8359 115.204C71.3903 113.656 68.1013 114.464 66.4896 117.009Z" fill="#6E00E1" stroke="black" stroke-miterlimit="10"/>
<path d="M130.557 152.537L133.097 150.126C135.348 147.989 135.44 144.434 133.303 142.185L120.687 128.905C118.55 126.656 114.994 126.564 112.744 128.7L110.203 131.112C107.953 133.248 107.861 136.803 109.998 139.053L122.613 152.332C124.75 154.582 128.306 154.674 130.557 152.537Z" fill="#F2D9C9" stroke="black" stroke-miterlimit="10"/>
<path d="M167 158.736L162.154 153.73L157.309 148.723C155 146.337 152.11 144.8 149.051 144.12C145.992 143.44 142.767 143.619 139.789 144.667C140.118 143.547 140.152 142.357 139.885 141.221C139.617 140.086 139.048 139.005 138.176 138.102C136.869 136.751 135.116 136.047 133.347 136.002C131.578 135.958 129.791 136.57 128.413 137.853L116.278 149.157L104.143 160.46C102.766 161.743 102.05 163.463 102.002 165.198C101.955 166.934 102.581 168.687 103.889 170.038C105.196 171.39 106.949 172.092 108.718 172.138C110.487 172.185 112.274 171.571 113.652 170.288L115.144 168.898L116.635 167.508C115.885 170.155 115.828 172.961 116.476 175.635C117.123 178.309 118.47 180.854 120.529 182.982L125.374 187.988L130.22 192.994C133.334 196.213 137.508 197.887 141.722 197.995C145.937 198.102 150.192 196.64 153.473 193.585L159.935 187.564L166.398 181.544" fill="#F2D9C9"/>
<path d="M167 158.736L162.154 153.73L157.309 148.723C155 146.337 152.11 144.8 149.051 144.12C145.992 143.44 142.767 143.619 139.789 144.667C140.118 143.547 140.152 142.357 139.885 141.221C139.617 140.086 139.048 139.005 138.176 138.102C136.869 136.751 135.116 136.047 133.347 136.002C131.578 135.958 129.791 136.57 128.413 137.853L116.278 149.157L104.143 160.46C102.766 161.743 102.05 163.463 102.002 165.198C101.955 166.934 102.581 168.687 103.889 170.038C105.196 171.39 106.949 172.092 108.718 172.138C110.487 172.185 112.274 171.571 113.652 170.288L115.144 168.898L116.635 167.508C115.885 170.155 115.828 172.961 116.476 175.635C117.123 178.309 118.47 180.854 120.529 182.982L125.374 187.988L130.22 192.994C133.334 196.213 137.508 197.887 141.722 197.995C145.937 198.102 150.192 196.64 153.473 193.585L159.935 187.564L166.398 181.544" stroke="black" stroke-miterlimit="10"/>
<path d="M139 156.184C136.327 153.376 131.836 153.26 129.022 155.926L112.189 171.864C109.375 174.53 109.258 179.009 111.931 181.816C114.604 184.624 119.095 184.74 121.909 182.074L136.68 169" fill="#F2D9C9"/>
<path d="M139 156.184C136.327 153.376 131.836 153.26 129.022 155.926L112.189 171.864C109.375 174.53 109.258 179.009 111.931 181.816C114.604 184.624 119.095 184.74 121.909 182.074L136.68 169" stroke="black" stroke-miterlimit="10"/>
<path d="M138.193 167L121.209 182.896C118.369 185.555 118.251 190.023 120.948 192.822C123.645 195.622 128.177 195.738 131.016 193.079L148 177.183" fill="#F2D9C9"/>
<path d="M138.193 167L121.209 182.896C118.369 185.555 118.251 190.023 120.948 192.822C123.645 195.622 128.177 195.738 131.016 193.079L148 177.183" stroke="black" stroke-miterlimit="10"/>
<path d="M229 256V175H203.27C193.507 206.22 167.683 231.01 165 252.08C180.409 252.08 215.979 256 228.998 256H229Z" fill="#F2D9FF" stroke="black" stroke-miterlimit="10"/>
<path d="M200.733 255.502C187.427 233.737 166.255 236.467 156.057 246.752C146.577 256.311 146.472 272.702 156.812 283H229V248.673C217.624 248.673 209.067 249.874 200.735 255.502H200.733Z" fill="#871FBF" stroke="black" stroke-miterlimit="10"/>
<path d="M234 256V175H203.393C202.263 201.95 201.132 228.901 200 255.851C218.331 255.851 218.511 256 234 256Z" fill="#F2D9FF" stroke="black" stroke-miterlimit="10"/>
<path d="M179 119.719C179.721 120.11 182.737 121.632 186.529 120.706C189.82 119.902 191.695 117.743 192.265 117.03C194.265 117.521 199.887 118.621 206.334 116.134C212.599 113.717 215.992 109.319 217.179 107.616C218.894 107.982 224.425 108.931 230.05 105.893C233.048 104.274 234.945 102.131 236 100.713C232.041 97.9525 229.793 95.1096 228.471 93.0029C228.03 92.2995 227.309 91.2058 226.231 88.8784C223.214 82.3673 222.655 81.4877 222.019 80.8091C218.359 76.8988 206.762 79.7549 198.987 85.2926C191.904 90.3362 183.789 100.601 184.199 108.605C184.26 109.799 184.639 113.436 182.497 116.585C181.395 118.204 179.981 119.173 179.002 119.723L179 119.719Z" fill="#871FBF" stroke="black" stroke-miterlimit="10"/>
<path d="M207.601 81.5741C207.327 81.6648 207.063 81.7669 206.804 81.8803C207.838 83.246 208.666 84.7996 209.231 86.512L211.671 93.8979C212.236 95.6086 212.496 97.3502 212.478 99.0642C212.753 99.001 213.027 98.9265 213.301 98.8358C218.069 97.2627 220.659 92.1239 219.084 87.3577C217.508 82.5915 212.369 80.0026 207.601 81.5773V81.5741Z" fill="#F2D9C9" stroke="black" stroke-miterlimit="10"/>
<path d="M208.464 107.644L195.12 113.444L198.059 120.201L211.403 114.401L208.464 107.644Z" fill="#F2D9C9" stroke="black" stroke-miterlimit="10"/>
<path d="M215.978 91.0125C213.401 91.863 211.148 93.6888 209.839 96.2874C208.529 98.8859 208.403 101.783 209.254 104.358" stroke="black" stroke-miterlimit="10"/>
<path d="M188.947 76.2444L188.823 76.2855C180.41 79.0618 175.841 88.1299 178.619 96.5395L181.099 104.048C183.876 112.458 192.948 117.025 201.36 114.248L201.485 114.207C209.898 111.431 214.466 102.363 211.689 93.9532L209.209 86.4443C206.432 78.0347 197.36 73.468 188.947 76.2444Z" fill="#F2D9C9" stroke="black" stroke-miterlimit="10"/>
<path d="M182.509 100.464C183.284 100.464 183.911 99.8364 183.911 99.0625C183.911 98.2885 183.284 97.6611 182.509 97.6611C181.735 97.6611 181.107 98.2885 181.107 99.0625C181.107 99.8364 181.735 100.464 182.509 100.464Z" fill="black"/>
<path d="M192.352 97.0439C193.126 97.0439 193.754 96.4165 193.754 95.6426C193.754 94.8686 193.126 94.2412 192.352 94.2412C191.578 94.2412 190.95 94.8686 190.95 95.6426C190.95 96.4165 191.578 97.0439 192.352 97.0439Z" fill="black"/>
<path d="M185.993 103.555L185.277 103.791C184.596 104.017 183.857 103.644 183.632 102.964C183.407 102.283 183.78 101.544 184.46 101.319L185.177 101.083" fill="#F2D9C9"/>
<path d="M185.993 103.555L185.277 103.791C184.596 104.017 183.857 103.644 183.632 102.964C183.407 102.283 183.78 101.544 184.46 101.319L185.177 101.083" stroke="black" stroke-miterlimit="10"/>
<path d="M196.666 102.82C196.286 103.38 195.851 103.905 195.37 104.385C194.889 104.864 194.359 105.3 193.788 105.682C193.218 106.065 192.605 106.393 191.957 106.662C191.308 106.931 190.623 107.137 189.908 107.273C189.193 107.409 188.48 107.469 187.779 107.459C187.077 107.45 186.386 107.369 185.714 107.223" fill="#F2D9C9"/>
<path d="M196.666 102.82C196.286 103.38 195.851 103.905 195.37 104.385C194.889 104.864 194.359 105.3 193.788 105.682C193.218 106.065 192.605 106.393 191.957 106.662C191.308 106.931 190.623 107.137 189.908 107.273C189.193 107.409 188.48 107.469 187.779 107.459C187.077 107.45 186.386 107.369 185.714 107.223" stroke="black" stroke-miterlimit="10"/>
<path d="M198.595 103.088C198.409 103.124 198.219 103.142 198.028 103.142C197.837 103.142 197.647 103.122 197.457 103.085C197.268 103.048 197.083 102.991 196.901 102.917C196.72 102.842 196.543 102.747 196.375 102.633C196.206 102.518 196.054 102.39 195.916 102.249C195.778 102.108 195.658 101.956 195.555 101.794" fill="#F2D9C9"/>
<path d="M198.595 103.088C198.409 103.124 198.219 103.142 198.028 103.142C197.837 103.142 197.647 103.122 197.457 103.085C197.268 103.048 197.083 102.991 196.901 102.917C196.72 102.842 196.543 102.747 196.375 102.633C196.206 102.518 196.054 102.39 195.916 102.249C195.778 102.108 195.658 101.956 195.555 101.794" stroke="black" stroke-miterlimit="10"/>
<path d="M224 84.848C223.572 82.2942 222.57 78.31 219.94 74.1723C219.208 73.022 212.89 63.4239 201.699 61.389C187.201 58.7529 170.546 69.9017 169.103 83.0885C168.511 88.4905 170.595 93.1234 172.306 96C172.625 95.9035 172.944 95.807 173.264 95.7104C175.518 95.0301 177.76 94.375 179.99 93.7452C180.432 93.606 180.874 93.4683 181.316 93.3291C180.946 92.4842 180.425 91.2136 179.911 89.6281C179.279 87.6787 178.848 85.8417 178.985 85.7974C179.123 85.7531 179.535 87.5743 180.856 89.3765C181.987 90.9209 183.366 91.8781 184.423 92.4668C187.046 91.6946 189.668 90.9224 192.29 90.1503C191.348 89.212 189.799 87.4082 188.913 84.7009C187.526 80.4683 188.678 76.8322 189.128 75.6106C189.368 76.9714 190.403 81.8433 194.88 85.367C201.393 90.4936 209.369 88.1803 210.085 87.9588C210.249 87.4351 211.002 85.223 213.23 84.1439C213.718 83.9066 214.436 83.5363 215.368 83.5885C217.663 83.7151 218.929 86.2056 219.033 86.4192" fill="#871FBF"/>
<path d="M224 84.848C223.572 82.2942 222.57 78.31 219.94 74.1723C219.208 73.022 212.89 63.4239 201.699 61.389C187.201 58.7529 170.546 69.9017 169.103 83.0885C168.511 88.4905 170.595 93.1234 172.306 96C172.625 95.9035 172.944 95.807 173.264 95.7104C175.518 95.0301 177.76 94.375 179.99 93.7452C180.432 93.606 180.874 93.4683 181.316 93.3291C180.946 92.4842 180.425 91.2136 179.911 89.6281C179.279 87.6787 178.848 85.8417 178.985 85.7974C179.123 85.7531 179.535 87.5743 180.856 89.3765C181.987 90.9209 183.366 91.8781 184.423 92.4668C187.046 91.6946 189.668 90.9224 192.29 90.1503C191.348 89.212 189.799 87.4082 188.913 84.7009C187.526 80.4683 188.678 76.8322 189.128 75.6106C189.368 76.9714 190.403 81.8433 194.88 85.367C201.393 90.4936 209.369 88.1803 210.085 87.9588C210.249 87.4351 211.002 85.223 213.23 84.1439C213.718 83.9066 214.436 83.5363 215.368 83.5885C217.663 83.7151 218.929 86.2056 219.033 86.4192" stroke="black" stroke-miterlimit="10"/>
<path d="M186 89C186.868 88.0941 188.283 87.3952 190.034 87.1215C191.787 86.8478 193.558 87.0498 195 87.5941" stroke="black" stroke-miterlimit="10"/>
<path d="M195.002 118.65C200.348 116.434 205.695 114.216 211.042 112C212.694 114.086 214.348 116.173 216 118.259C210.462 121.506 204.921 124.753 199.383 128C197.922 124.883 196.462 121.767 195 118.65H195.002Z" fill="#D092F1" stroke="black" stroke-miterlimit="10"/>
<path d="M227 141C226.921 143.029 226.4 146.209 224.052 149.753C222.202 152.545 219.847 154.62 218 156" fill="#D092F1"/>
<path d="M227 141C226.921 143.029 226.4 146.209 224.052 149.753C222.202 152.545 219.847 154.62 218 156" stroke="black" stroke-miterlimit="10"/>
<path d="M206.559 127.778C206.051 128.508 205.217 129.625 204.113 130.752C203.243 131.641 202.501 132.235 201.98 132.612" fill="#D092F1"/>
<path d="M206.559 127.778C206.051 128.508 205.217 129.625 204.113 130.752C203.243 131.641 202.501 132.235 201.98 132.612" stroke="black" stroke-miterlimit="10"/>
</g>
<path d="M160.604 29.9966C160.604 26.1704 163.46 23.0637 167 23.0034C167 23.0034 167 23.0017 167 23C167 22.9983 167 22.9983 167 22.9966C163.459 22.9363 160.604 19.8296 160.604 16.0034C160.57 16.0034 160.534 16 160.5 16C160.466 16 160.43 16.0017 160.396 16.0034C160.396 19.8296 157.54 22.9363 154 22.9966C154 22.9966 154 22.9983 154 23C154 23.0017 154 23.0017 154 23.0034C157.541 23.0637 160.396 26.1704 160.396 29.9966C160.43 29.9966 160.466 30 160.5 30C160.534 30 160.57 29.9983 160.604 29.9966Z" fill="#FFDD46" stroke="black" stroke-miterlimit="10"/>
<path d="M27.6044 95.9966C27.6044 92.1704 30.4602 89.0637 34 89.0034C34 89.0034 34 89.0017 34 89C34 88.9983 34 88.9983 34 88.9966C30.4587 88.9363 27.6044 85.8296 27.6044 82.0034C27.5701 82.0034 27.5343 82 27.5 82C27.4657 82 27.4299 82.0017 27.3956 82.0034C27.3956 85.8296 24.5398 88.9363 21 88.9966C21 88.9966 21 88.9983 21 89C21 89.0017 21 89.0017 21 89.0034C24.5413 89.0637 27.3956 92.1704 27.3956 95.9966C27.4299 95.9966 27.4657 96 27.5 96C27.5343 96 27.5701 95.9983 27.6044 95.9966Z" fill="#FFDD46" stroke="black" stroke-miterlimit="10"/>
<path d="M310.604 197.997C310.604 194.17 313.46 191.064 317 191.003C317 191.003 317 191.002 317 191C317 190.998 317 190.998 317 190.997C313.459 190.936 310.604 187.83 310.604 184.003C310.57 184.003 310.534 184 310.5 184C310.466 184 310.43 184.002 310.396 184.003C310.396 187.83 307.54 190.936 304 190.997C304 190.997 304 190.998 304 191C304 191.002 304 191.002 304 191.003C307.541 191.064 310.396 194.17 310.396 197.997C310.43 197.997 310.466 198 310.5 198C310.534 198 310.57 197.998 310.604 197.997Z" fill="#FFDD46" stroke="black" stroke-miterlimit="10"/>
<path d="M7.60439 203.997C7.60439 200.17 10.4602 197.064 14 197.003C14 197.003 14 197.002 14 197C14 196.998 14 196.998 14 196.997C10.4587 196.936 7.60439 193.83 7.60439 190.003C7.57011 190.003 7.53428 190 7.5 190C7.46572 190 7.42989 190.002 7.39561 190.003C7.39561 193.83 4.53979 196.936 1 196.997C1 196.997 1 196.998 1 197C1 197.002 1 197.002 1 197.003C4.54135 197.064 7.39561 200.17 7.39561 203.997C7.42989 203.997 7.46572 204 7.5 204C7.53428 204 7.57011 203.998 7.60439 203.997Z" fill="#FFDD46" stroke="black" stroke-miterlimit="10"/>
<path d="M325.604 86.9966C325.604 83.1704 328.46 80.0637 332 80.0034C332 80.0034 332 80.0017 332 80C332 79.9983 332 79.9983 332 79.9966C328.459 79.9363 325.604 76.8296 325.604 73.0034C325.57 73.0034 325.534 73 325.5 73C325.466 73 325.43 73.0017 325.396 73.0034C325.396 76.8296 322.54 79.9363 319 79.9966C319 79.9966 319 79.9983 319 80C319 80.0017 319 80.0017 319 80.0034C322.541 80.0637 325.396 83.1704 325.396 86.9966C325.43 86.9966 325.466 87 325.5 87C325.534 87 325.57 86.9983 325.604 86.9966Z" fill="#FFDD46" stroke="black" stroke-miterlimit="10"/>
<path d="M88.6044 53.9966C88.6044 50.1704 91.4602 47.0637 95 47.0034V47V46.9966C91.4587 46.9363 88.6044 43.8296 88.6044 40.0034C88.5701 40.0034 88.5343 40 88.5 40C88.4657 40 88.4299 40.0017 88.3956 40.0034C88.3956 43.8296 85.5398 46.9363 82 46.9966V47V47.0034C85.5413 47.0637 88.3956 50.1704 88.3956 53.9966C88.4299 53.9966 88.4657 54 88.5 54C88.5343 54 88.5701 53.9983 88.6044 53.9966Z" fill="#FFDD46" stroke="black" stroke-miterlimit="10"/>
<defs>
<clipPath id="clip0_1788_3008">
<rect width="240" height="240" fill="white" transform="translate(46 50)"/>
</clipPath>
</defs>
</svg>
