<svg width="59" height="30" viewBox="0 0 59 30" fill="none" xmlns="http://www.w3.org/2000/svg">
<rect width="59" height="30" rx="15" fill="#FFCCCC"/>
<path fill-rule="evenodd" clip-rule="evenodd" d="M15 18.2569C14.7975 18.2569 14.6032 18.1765 14.46 18.0332C14.3168 17.89 14.2364 17.6958 14.2364 17.4933C14.2364 17.2907 14.3168 17.0965 14.46 16.9533C14.6032 16.8101 14.7975 16.7296 15 16.7296C15.2025 16.7296 15.3968 16.8101 15.54 16.9533C15.6832 17.0965 15.7636 17.2907 15.7636 17.4933C15.7636 17.6958 15.6832 17.89 15.54 18.0332C15.3968 18.1765 15.2025 18.2569 15 18.2569ZM14.3636 11.9983C14.3636 11.8295 14.4307 11.6676 14.55 11.5483C14.6694 11.429 14.8312 11.3619 15 11.3619C15.1688 11.3619 15.3306 11.429 15.45 11.5483C15.5693 11.6676 15.6364 11.8295 15.6364 11.9983V15.1801C15.6364 15.3489 15.5693 15.5107 15.45 15.6301C15.3306 15.7494 15.1688 15.8165 15 15.8165C14.8312 15.8165 14.6694 15.7494 14.55 15.6301C14.4307 15.5107 14.3636 15.3489 14.3636 15.1801V11.9983ZM15 8C11.1341 8 8 11.1341 8 15C8 18.8665 11.1341 22 15 22C18.8659 22 22 18.8665 22 15C22 11.1341 18.8659 8 15 8Z" fill="#E95D5D"/>
<path d="M37.5742 8.81641H35.8379V15.1191H37.5742V8.81641ZM27.1152 13.7793L27.9766 15.1465C29.46 14.7021 30.4785 13.752 31.0391 12.542C31.6064 13.6494 32.5908 14.5176 34.0195 14.9277L34.8672 13.5879C32.8301 13 31.9277 11.5576 31.9414 10.0469V9.08984H30.123V10.0469C30.123 11.5918 29.1934 13.1572 27.1152 13.7793ZM29.2344 17.0059H35.8516V17.7305H29.2617V21.1758H37.9297V19.7949H30.9707V19.0293H37.5879V15.6523H29.2344V17.0059ZM50.0566 8.81641H48.3887V13.6152H47.3633V9.02148H45.7227V20.6562H47.3633V15.0234H48.3887V21.2578H50.0566V8.81641ZM39.1328 16.9785L39.3242 18.4141C40.8623 18.4141 43.4053 18.3662 45.3125 17.9629L45.2168 16.6914C44.9297 16.7324 44.6221 16.7666 44.3008 16.8008V11.6328H45.1074V10.2246H39.3652V11.6328H40.1855V16.9785H39.1328ZM41.7578 16.9512V11.6328H42.7422V16.9102C42.4141 16.9307 42.0791 16.9375 41.7578 16.9512Z" fill="#E95D5D"/>
</svg>
