<svg width="29" height="38" viewBox="0 0 29 38" fill="none" xmlns="http://www.w3.org/2000/svg">
<path d="M8.19492 28.1094H7.44297V31.6445H6.19297V28.3047H5.47031V36.3418H6.19297V32.2988H7.44297V36.791H8.19492V28.1094ZM1.22227 34.5449H1.75937C2.71641 34.5449 3.7125 34.4814 4.92344 34.2617L4.82578 33.5781C3.77109 33.793 2.84336 33.8564 1.98398 33.8613V29.1738H1.22227V34.5449ZM18.9129 28.1094H18.1414V36.791H18.9129V28.1094ZM11.8426 34.5352L12.2625 35.1602C15.1727 33.7637 16.3348 31.5518 16.3445 29.0566H12.243V29.6816H15.5633C15.3924 31.7568 14.1912 33.4219 11.8426 34.5352ZM28.2172 32.8945H24.6137V31.9766H27.3773V31.3613H22.0648V30.4336H27.1918V28.334H21.2738V28.959H26.4203V29.8574H21.3031V31.9766H23.8617V32.8945H20.268V33.5293H28.2172V32.8945ZM21.1566 34.8184H26.4691V36.7129H27.2406V34.1934H21.1566V34.8184Z" fill="#888888"/>
<path fill-rule="evenodd" clip-rule="evenodd" d="M19.0005 6.01278C19.0005 6.6712 18.8713 7.32318 18.6201 7.93151C18.3689 8.53983 18.0007 9.09258 17.5365 9.5582C17.0723 10.0238 16.5212 10.3932 15.9147 10.6452C15.3081 10.8973 14.658 11.027 14.0015 11.0271C12.6755 11.0272 11.4038 10.4991 10.4662 9.55893C9.52848 8.61876 9.00162 7.34354 9.00149 6.0138C9.00142 5.35538 9.13067 4.7034 9.38185 4.09507C9.63304 3.48675 10.0012 2.934 10.4654 2.46838C11.4029 1.52801 12.6745 0.999648 14.0005 0.999512C15.3264 0.999376 16.5981 1.52748 17.5358 2.46765C18.4735 3.40782 19.0003 4.68304 19.0005 6.01278ZM14.001 12.5609C6.80151 12.5609 4.00098 17.1558 4.00098 19.2934C4.00098 21.43 9.96257 21.9995 14.001 21.9995C18.0394 21.9995 24.001 21.43 24.001 19.2934C24.001 17.1558 21.2004 12.5609 14.001 12.5609Z" fill="#888888"/>
</svg>
