<svg width="57" height="30" viewBox="0 0 57 30" fill="none" xmlns="http://www.w3.org/2000/svg">
<rect width="57" height="30" rx="15" fill="#EDEDED"/>
<path fill-rule="evenodd" clip-rule="evenodd" d="M17.8585 15.6752H12.1313C12.0409 15.678 11.9509 15.6626 11.8666 15.6299C11.7823 15.5972 11.7054 15.548 11.6405 15.485C11.5756 15.4221 11.524 15.3467 11.4888 15.2635C11.4535 15.1802 11.4354 15.0907 11.4354 15.0003C11.4354 14.9099 11.4535 14.8204 11.4888 14.7372C11.524 14.6539 11.5756 14.5786 11.6405 14.5156C11.7054 14.4527 11.7823 14.4034 11.8666 14.3707C11.9509 14.3381 12.0409 14.3227 12.1313 14.3255H17.8585C18.0339 14.3308 18.2004 14.4043 18.3225 14.5303C18.4447 14.6563 18.513 14.8248 18.513 15.0003C18.513 15.1758 18.4447 15.3444 18.3225 15.4704C18.2004 15.5963 18.0339 15.6698 17.8585 15.6752ZM15 8C11.1341 8 8 11.1341 8 15C8 18.8665 11.1341 22 15 22C18.8659 22 22 18.8665 22 15C22 11.1341 18.8659 8 15 8Z" fill="#B0B0B0"/>
<path d="M30.0234 11.2773V11.0996H32.5254V9.70508H25.6895V11.0996H28.2461V11.2773C28.2461 12.8496 27.2959 14.4697 25.2246 15.1328L26.127 16.5C27.5898 16.0146 28.6016 15.0371 29.1689 13.8066C29.7295 14.9277 30.707 15.8232 32.1016 16.2676L32.9902 14.9004C30.9463 14.2783 30.0166 12.7607 30.0234 11.2773ZM27.248 21.0391H35.916V19.6445H29.0117V17.0059H27.248V21.0391ZM33.8379 17.8262H35.5879V8.83008H33.8379V17.8262ZM47.9609 8.81641H46.3066V11.8926H45.3086V9.04883H43.6816V16.2129H45.3086V13.3145H46.3066V16.623H47.9609V8.81641ZM37.2012 11.4551H43.3125V10.1016H41.1387V8.92578H39.4023V10.1016H37.2012V11.4551ZM37.584 14.0391C37.5771 15.3311 38.7188 16.1924 40.2773 16.1992C41.8564 16.1924 42.9912 15.3311 42.998 14.0391C42.9912 12.7334 41.8564 11.8652 40.2773 11.8652C38.7188 11.8652 37.5771 12.7334 37.584 14.0391ZM39.1426 14.0391C39.1357 13.458 39.6006 13.1162 40.2773 13.123C40.9541 13.1162 41.4189 13.458 41.4258 14.0391C41.4189 14.6133 40.9541 14.9619 40.2773 14.9551C39.5938 14.9619 39.1357 14.6133 39.1426 14.0391ZM39.4023 19.002C39.3955 20.4375 41.0293 21.2646 43.709 21.2578C46.3955 21.2646 48.0156 20.4375 48.0293 19.002C48.0156 17.5596 46.3955 16.7393 43.709 16.7324C41.0293 16.7393 39.3955 17.5596 39.4023 19.002ZM41.1523 19.002C41.1387 18.3457 42.0205 18.0381 43.709 18.0449C45.4043 18.0381 46.2656 18.3457 46.2656 19.002C46.2656 19.6309 45.4043 19.9453 43.709 19.9453C42.0205 19.9453 41.1387 19.6309 41.1523 19.002Z" fill="#B0B0B0"/>
</svg>
