<svg width="280" height="280" viewBox="0 0 280 280" fill="none" xmlns="http://www.w3.org/2000/svg">
<path d="M93.8287 230.961C107.03 209.036 128.035 211.786 138.153 222.147C147.558 231.776 147.661 248.288 137.404 258.661H65.7846V224.082C77.0706 224.082 85.5605 225.292 93.8271 230.961H93.8287Z" fill="#6E00E1" stroke="black" stroke-miterlimit="10"/>
<path fill-rule="evenodd" clip-rule="evenodd" d="M80.2145 42.2C81.7373 45.2904 82.1538 48.1537 81.2452 51.477C80.4797 54.277 79.4655 55.6 78.6683 56.6308C70.9449 66.6171 63.0744 71.6437 52.2907 74.7322C51.5096 75.9444 50.3498 77.1195 48.9009 78.0719C45.2862 80.4479 41.2375 80.5371 39.8609 78.2706C39.5144 77.7014 39.3702 77.0362 39.4058 76.3239C36.7353 77.1811 34.2737 76.7921 33.2599 75.1233C32.2731 73.4985 32.9258 71.1053 34.7066 69.0051C33.0913 66.0268 32.2837 60.4999 32.2837 54.5693C32.2836 45.4431 34.0355 36.0987 42.5914 32.9231C49.7716 30.2582 59.3672 30.1046 66.8145 31.8923C73.3934 33.4717 77.2239 36.1311 80.2145 42.2Z" fill="#B03EF5"/>
<path d="M81.2452 51.477L80.7629 51.3451L81.2452 51.477ZM80.2145 42.2L79.766 42.421L80.2145 42.2ZM78.6683 56.6308L78.2728 56.3249L78.6683 56.6308ZM52.2907 74.7322L51.8704 74.4614L51.9722 74.3033L52.153 74.2516L52.2907 74.7322ZM48.9009 78.0719L48.6263 77.654L48.9009 78.0719ZM39.8609 78.2706L40.288 78.0105L40.2883 78.011L39.8609 78.2706ZM39.4058 76.3239L39.253 75.8479L39.9413 75.627L39.9052 76.3489L39.4058 76.3239ZM33.2599 75.1233L32.8326 75.3829L32.8325 75.3829L33.2599 75.1233ZM34.7066 69.0051L35.1461 68.7667L35.3093 69.0675L35.088 69.3285L34.7066 69.0051ZM32.2837 54.5693L32.7837 54.5693L32.2837 54.5693ZM42.5914 32.9231L42.7654 33.3919L42.5914 32.9231ZM66.8145 31.8923L66.9312 31.4062V31.4062L66.8145 31.8923ZM80.7629 51.3451C81.635 48.1551 81.2424 45.4171 79.766 42.421L80.663 41.979C82.2323 45.1637 82.6725 48.1524 81.7275 51.6088L80.7629 51.3451ZM78.2728 56.3249C79.0501 55.3199 80.0216 54.0565 80.7629 51.3451L81.7275 51.6088C80.9378 54.4974 79.8809 55.8802 79.0638 56.9367L78.2728 56.3249ZM52.153 74.2516C62.8355 71.192 70.6153 66.226 78.2728 56.3249L79.0638 56.9367C71.2746 67.0082 63.3132 72.0954 52.4283 75.2129L52.153 74.2516ZM48.6263 77.654C50.0218 76.7367 51.1301 75.6102 51.8704 74.4614L52.711 75.003C51.8891 76.2786 50.6779 77.5022 49.1756 78.4897L48.6263 77.654ZM40.2883 78.011C40.8501 78.936 41.9967 79.446 43.5306 79.4123C45.057 79.3787 46.8829 78.8 48.6263 77.654L49.1756 78.4897C47.3042 79.7197 45.2984 80.3736 43.5526 80.412C41.8144 80.4503 40.2484 79.8717 39.4336 78.5301L40.2883 78.011ZM39.9052 76.3489C39.8738 76.9777 40.0016 77.5401 40.288 78.0105L39.4339 78.5306C39.0271 77.8627 38.8667 77.0948 38.9065 76.299L39.9052 76.3489ZM33.6872 74.8637C34.1029 75.5479 34.8302 75.9996 35.8024 76.1791C36.7786 76.3594 37.9764 76.2576 39.253 75.8479L39.5586 76.8C38.1648 77.2474 36.7964 77.3796 35.6208 77.1625C34.4411 76.9447 33.4307 76.3675 32.8326 75.3829L33.6872 74.8637ZM35.088 69.3285C33.3502 71.3779 32.8736 73.524 33.6872 74.8638L32.8325 75.3829C31.6726 73.473 32.5013 70.8328 34.3253 68.6817L35.088 69.3285ZM32.7837 54.5693C32.7837 57.5136 32.9843 60.3506 33.383 62.8144C33.783 65.2863 34.3773 67.3491 35.1461 68.7667L34.2671 69.2435C33.4207 67.6828 32.8035 65.493 32.3958 62.9742C31.9869 60.4473 31.7837 57.5556 31.7837 54.5693L32.7837 54.5693ZM42.7654 33.3919C38.649 34.9197 36.1624 37.9251 34.695 41.696C33.221 45.484 32.7837 50.0285 32.7837 54.5693L31.7837 54.5693C31.7837 49.9838 32.2222 45.2931 33.7631 41.3334C35.3106 37.3566 37.9779 34.1021 42.4174 32.4544L42.7654 33.3919ZM66.6978 32.3785C59.3294 30.6097 49.837 30.7672 42.7654 33.3919L42.4174 32.4544C49.7063 29.7491 59.405 29.5994 66.9312 31.4062L66.6978 32.3785ZM79.766 42.421C78.2965 39.4388 76.6364 37.3251 74.5595 35.7621C72.4792 34.1966 69.9482 33.1588 66.6978 32.3785L66.9312 31.4062C70.2597 32.2052 72.9334 33.2868 75.1608 34.9631C77.3914 36.6418 79.142 38.8923 80.663 41.979L79.766 42.421Z" fill="black"/>
<path d="M167.159 45.2922H274V178.978C274 185.671 268.129 191.098 260.887 191.098H204.667C211.909 191.098 217.78 185.671 217.78 178.978V170.693H174.048L177.14 130.579H167.159V45.2922Z" fill="#F2D9FF" stroke="black" stroke-miterlimit="10"/>
<path d="M185.748 191.098H260.676C254.079 191.098 248.731 185.763 248.731 179.181V132.478C248.731 124.669 242.386 118.338 234.559 118.338C226.733 118.338 220.388 124.669 220.388 132.478H173.802V179.178C173.802 185.76 179.15 191.096 185.747 191.096L185.748 191.098Z" fill="#871FBF" stroke="black" stroke-miterlimit="10"/>
<path d="M179.397 97.169C183.909 98.7188 188.421 100.267 192.933 101.817L206.469 97.169L220.005 101.817L233.541 97.169V90.5552L220.005 95.2029L206.469 90.5552L192.933 95.2029C188.421 93.6532 183.909 92.1049 179.397 90.5552V97.169Z" fill="#D092F1" stroke="black" stroke-miterlimit="10"/>
<path d="M179.597 62.6139C184.109 64.1636 188.621 65.7119 193.133 67.2616L206.669 62.6139L220.205 67.2616L233.741 62.6139L247.277 67.2616L260.813 62.6139V56L247.277 60.6477L233.741 56L220.205 60.6477L206.669 56L193.133 60.6477C188.621 59.098 184.109 57.5497 179.597 56V62.6139Z" fill="#D092F1" stroke="black" stroke-miterlimit="10"/>
<path d="M179.597 79.8897C184.109 81.4395 188.621 82.9877 193.133 84.5375L206.669 79.8897L220.205 84.5375L233.741 79.8897L247.277 84.5375L260.813 79.8897V73.2759L247.277 77.9236L233.741 73.2759L220.205 77.9236L206.669 73.2759L193.133 77.9236C188.621 76.3739 184.109 74.8256 179.597 73.2759V79.8897Z" fill="#D092F1" stroke="black" stroke-miterlimit="10"/>
<path fill-rule="evenodd" clip-rule="evenodd" d="M146.654 89.7108C147.713 88.7827 148.908 88.0082 150.205 87.4244C149.346 86.9289 148.628 86.2171 148.126 85.362C147.625 84.5069 147.342 83.5085 147.349 82.4425C147.361 80.845 148.027 79.385 149.088 78.3206C150.15 77.2563 151.608 76.5858 153.207 76.5672L167.294 76.4065L181.382 76.2458C182.981 76.2272 184.429 76.8651 185.475 77.9047C186.521 78.9442 187.164 80.3892 187.152 81.9867C187.14 83.5843 186.473 85.0433 185.413 86.1086C184.352 87.1739 182.893 87.8434 181.294 87.862L179.562 87.8815L177.83 87.9011C179.843 89.0895 181.522 90.7813 182.691 92.8053C183.861 94.8293 184.524 97.1836 184.505 99.6987L184.459 105.617L184.413 111.536C184.384 115.34 182.799 118.816 180.27 121.352C177.741 123.888 174.243 125.145 170.435 125.189L162.957 125.612L160.481 125.529C160.393 125.536 160.307 125.542 160.224 125.546L110.738 125.177C106.045 121.034 103.825 114.902 105.035 109.137C106.281 103.195 110.68 99.9826 111.807 99.2095C117.473 97.5667 123.14 95.9243 128.806 94.2819C134.476 92.6387 140.145 90.9955 145.814 89.3518C146.096 89.4704 146.376 89.5901 146.654 89.7108Z" fill="#F2D9C9"/>
<path d="M146.654 89.7108L146.984 90.0868L146.745 90.2957L146.455 90.1694L146.654 89.7108ZM150.205 87.4244L150.455 86.9913L151.301 87.4793L150.41 87.8803L150.205 87.4244ZM147.349 82.4425L146.849 82.4389V82.4387L147.349 82.4425ZM149.088 78.3206L149.442 78.6737V78.6737L149.088 78.3206ZM153.207 76.5672L153.201 76.0673L153.201 76.0673L153.207 76.5672ZM167.294 76.4065L167.3 76.9065L167.294 76.4065ZM181.382 76.2458L181.388 76.7457L181.388 76.7457L181.382 76.2458ZM185.475 77.9047L185.827 77.55L185.475 77.9047ZM187.152 81.9867L187.652 81.9905L187.152 81.9867ZM185.413 86.1086L185.767 86.4614L185.413 86.1086ZM181.294 87.862L181.3 88.362L181.3 88.362L181.294 87.862ZM179.562 87.8815L179.568 88.3815H179.568L179.562 87.8815ZM177.83 87.9011L177.576 88.3316L176.034 87.4213L177.824 87.4011L177.83 87.9011ZM182.691 92.8053L183.124 92.5552L182.691 92.8053ZM184.505 99.6987L184.005 99.6948V99.6948L184.505 99.6987ZM184.459 105.617L183.959 105.614V105.614L184.459 105.617ZM184.413 111.536L183.913 111.532L183.913 111.532L184.413 111.536ZM180.27 121.352L179.916 120.999L180.27 121.352ZM170.435 125.189L170.407 124.69L170.418 124.689L170.43 124.689L170.435 125.189ZM162.957 125.612L162.985 126.112L162.962 126.113L162.94 126.112L162.957 125.612ZM160.481 125.529L160.444 125.031L160.471 125.029L160.498 125.03L160.481 125.529ZM160.224 125.546L160.251 126.045L160.236 126.046L160.22 126.046L160.224 125.546ZM110.738 125.177L110.734 125.677L110.547 125.676L110.407 125.552L110.738 125.177ZM105.035 109.137L105.525 109.24L105.525 109.24L105.035 109.137ZM111.807 99.2095L111.524 98.7973L111.59 98.7517L111.668 98.7293L111.807 99.2095ZM128.806 94.2819L128.667 93.8017L128.806 94.2819ZM145.814 89.3518L145.675 88.8716L145.845 88.8222L146.008 88.891L145.814 89.3518ZM146.324 89.3349C147.42 88.3746 148.657 87.573 150 86.9685L150.41 87.8803C149.16 88.4435 148.006 89.1907 146.984 90.0868L146.324 89.3349ZM149.955 87.8575C149.022 87.3189 148.24 86.5451 147.695 85.6148L148.558 85.1092C149.015 85.8891 149.671 86.5389 150.455 86.9913L149.955 87.8575ZM147.695 85.6148C147.149 84.6838 146.841 83.597 146.849 82.4389L147.849 82.4461C147.842 83.4199 148.101 84.33 148.558 85.1092L147.695 85.6148ZM146.849 82.4387C146.862 80.7024 147.586 79.119 148.734 77.9675L149.442 78.6737C148.468 79.6509 147.86 80.9875 147.849 82.4462L146.849 82.4387ZM148.734 77.9675C149.883 76.8162 151.463 76.0874 153.201 76.0673L153.213 77.0672C151.752 77.0841 150.417 77.6964 149.442 78.6737L148.734 77.9675ZM153.201 76.0673L167.289 75.9065L167.3 76.9065L153.212 77.0672L153.201 76.0673ZM167.289 75.9065L181.376 75.7458L181.388 76.7457L167.3 76.9065L167.289 75.9065ZM181.376 75.7458C183.115 75.7256 184.69 76.4199 185.827 77.55L185.123 78.2594C184.168 77.3104 182.847 76.7288 181.388 76.7457L181.376 75.7458ZM185.827 77.55C186.966 78.6808 187.665 80.2537 187.652 81.9905L186.652 81.983C186.663 80.5247 186.077 79.2076 185.123 78.2594L185.827 77.55ZM187.652 81.9905C187.639 83.7272 186.914 85.3093 185.767 86.4614L185.058 85.7558C186.033 84.7773 186.641 83.4414 186.652 81.983L187.652 81.9905ZM185.767 86.4614C184.619 87.6142 183.037 88.3418 181.3 88.362L181.288 87.362C182.749 87.3451 184.085 86.7336 185.058 85.7558L185.767 86.4614ZM181.3 88.362L179.568 88.3815L179.556 87.3816L181.288 87.362L181.3 88.362ZM179.568 88.3815L177.836 88.4011L177.824 87.4011L179.556 87.3816L179.568 88.3815ZM178.084 87.4705C180.171 88.7025 181.912 90.4564 183.124 92.5552L182.259 93.0555C181.132 91.1063 179.515 89.4764 177.576 88.3316L178.084 87.4705ZM183.124 92.5552C184.337 94.6542 185.025 97.0959 185.005 99.7026L184.005 99.6948C184.023 97.2713 183.385 95.0044 182.259 93.0555L183.124 92.5552ZM185.005 99.7025L184.959 105.621L183.959 105.614L184.005 99.6948L185.005 99.7025ZM184.959 105.621L184.913 111.54L183.913 111.532L183.959 105.614L184.959 105.621ZM184.913 111.54C184.883 115.483 183.24 119.082 180.624 121.705L179.916 120.999C182.358 118.55 183.885 115.198 183.913 111.532L184.913 111.54ZM180.624 121.705C177.986 124.351 174.354 125.644 170.441 125.689L170.43 124.689C174.132 124.647 177.496 123.426 179.916 120.999L180.624 121.705ZM170.464 125.688L162.985 126.112L162.928 125.113L170.407 124.69L170.464 125.688ZM162.94 126.112L160.465 126.029L160.498 125.03L162.973 125.113L162.94 126.112ZM160.197 125.047C160.276 125.042 160.359 125.037 160.444 125.031L160.519 126.028C160.427 126.035 160.338 126.041 160.251 126.045L160.197 125.047ZM110.741 124.677L160.228 125.046L160.22 126.046L110.734 125.677L110.741 124.677ZM105.525 109.24C104.355 114.811 106.497 120.766 111.069 124.803L110.407 125.552C105.592 121.302 103.295 114.992 104.546 109.035L105.525 109.24ZM112.09 99.6218C110.99 100.376 106.73 103.493 105.525 109.24L104.546 109.035C105.833 102.897 110.37 99.589 111.524 98.7973L112.09 99.6218ZM128.945 94.7622C123.279 96.4045 117.612 98.0469 111.946 99.6897L111.668 98.7293C117.334 97.0864 123.001 95.4441 128.667 93.8017L128.945 94.7622ZM145.954 89.832C140.284 91.4757 134.615 93.119 128.945 94.7622L128.667 93.8017C134.336 92.1585 140.006 90.5153 145.675 88.8716L145.954 89.832ZM146.455 90.1694C146.179 90.0494 145.9 89.9305 145.62 89.8126L146.008 88.891C146.292 89.0103 146.573 89.1307 146.853 89.2522L146.455 90.1694Z" fill="black"/>
<path d="M165.197 88.0408C167.745 88.0408 166.396 88.0481 169.689 88.038L189.382 87.9745C192.675 87.9643 195.372 90.6504 195.373 93.9432C195.375 97.2361 192.681 99.9397 189.388 99.9498L172.642 100.566" fill="#F2D9C9"/>
<path d="M165.197 88.0408C167.745 88.0408 166.396 88.0481 169.689 88.038L189.382 87.9745C192.675 87.9643 195.372 90.6504 195.373 93.9432C195.375 97.2361 192.681 99.9397 189.388 99.9498L172.642 100.566" stroke="black" stroke-miterlimit="10"/>
<path d="M170.54 100.223L190.301 100.045C193.606 100.016 196.296 102.694 196.278 105.996C196.261 109.299 193.542 112.026 190.238 112.055L170.477 112.233" fill="#F2D9C9"/>
<path d="M170.54 100.223L190.301 100.045C193.606 100.016 196.296 102.694 196.278 105.996C196.261 109.299 193.542 112.026 190.238 112.055L170.477 112.233" stroke="black" stroke-miterlimit="10"/>
<path d="M166.293 112.287L186.054 112.109C189.359 112.079 192.049 114.758 192.031 118.06C192.014 121.362 189.295 124.089 185.991 124.119L174.967 124.119" fill="#F2D9C9"/>
<path d="M166.293 112.287L186.054 112.109C189.359 112.079 192.049 114.758 192.031 118.06C192.014 121.362 189.295 124.089 185.991 124.119L174.967 124.119" stroke="black" stroke-miterlimit="10"/>
<path d="M150.656 96.1053L147.68 96.1112C145.044 96.1164 142.903 93.6443 142.898 90.5895L142.87 72.5557C142.865 69.501 144.998 67.0204 147.633 67.0152L150.609 67.0093C153.245 67.0041 155.386 69.4762 155.391 72.5309L155.419 87.1318C155.424 90.1865 153.292 96.1001 150.656 96.1053Z" fill="#F2D9C9"/>
<path d="M155.392 87.5564L155.392 72.5307C155.387 69.476 153.246 67.0039 150.61 67.0091L147.634 67.015C144.999 67.0202 142.866 69.5008 142.871 72.5555L142.899 90.5894" stroke="black" stroke-miterlimit="10"/>
<path d="M155.429 106.67C160.59 106.67 164.773 102.296 164.773 96.901C164.773 91.5055 160.59 87.1316 155.429 87.1316" stroke="black"/>
<path d="M259.977 227.735C259.977 224.073 257.033 221.099 253.385 221.042C253.385 221.042 253.385 221.04 253.385 221.038C253.385 221.037 253.385 221.037 253.385 221.035C257.035 220.977 259.977 218.004 259.977 214.342C260.012 214.342 260.049 214.338 260.085 214.338C260.12 214.338 260.157 214.34 260.192 214.342C260.192 218.004 263.136 220.977 266.785 221.035C266.785 221.035 266.785 221.037 266.785 221.038C266.785 221.04 266.785 221.04 266.785 221.042C263.134 221.099 260.192 224.073 260.192 227.735C260.157 227.735 260.12 227.738 260.085 227.738C260.049 227.738 260.012 227.737 259.977 227.735Z" fill="#FFDD46" stroke="black" stroke-miterlimit="10"/>
<path d="M127.008 46.3199C127.008 42.6576 124.064 39.6841 120.415 39.6263C120.415 39.6263 120.415 39.6247 120.415 39.6231C120.415 39.6215 120.415 39.6215 120.415 39.6199C124.066 39.5621 127.008 36.5886 127.008 32.9263C127.043 32.9263 127.08 32.9231 127.115 32.9231C127.151 32.9231 127.188 32.9247 127.223 32.9263C127.223 36.5886 130.167 39.5621 133.815 39.6199C133.815 39.6199 133.815 39.6215 133.815 39.6231C133.815 39.6247 133.815 39.6247 133.815 39.6263C130.165 39.6841 127.223 42.6576 127.223 46.3199C127.188 46.3199 127.151 46.3231 127.115 46.3231C127.08 46.3231 127.043 46.3215 127.008 46.3199Z" fill="#FFDD46" stroke="black" stroke-miterlimit="10"/>
<path d="M205.853 209.181C205.853 205.519 202.683 202.546 198.754 202.488C198.754 202.488 198.754 202.486 198.754 202.485C198.754 202.483 198.754 202.483 198.754 202.481C202.685 202.424 205.853 199.45 205.853 195.788C205.891 195.788 205.931 195.785 205.969 195.785C206.007 195.785 206.047 195.786 206.085 195.788C206.085 199.45 209.255 202.424 213.185 202.481C213.185 202.481 213.185 202.483 213.185 202.485C213.185 202.486 213.185 202.486 213.185 202.488C209.253 202.546 206.085 205.519 206.085 209.181C206.047 209.181 206.007 209.185 205.969 209.185C205.931 209.185 205.891 209.183 205.853 209.181Z" fill="#FFDD46" stroke="black" stroke-miterlimit="10"/>
<path d="M156.7 135.044V118.34H235.322C227.984 118.34 222.034 124.276 222.034 131.598V135.044H222.046V233.616H158.192V135.044H156.7Z" fill="#D092F1" stroke="black" stroke-miterlimit="10"/>
<path d="M130.275 118.338H235.381C224.766 118.338 216.161 126.922 216.16 137.514C216.16 137.514 216.16 229.828 216.16 242.394C202.194 242.394 205.95 242.394 193.356 242.394C180.761 242.394 190.855 242.394 170.552 242.394H111.054V137.517C111.054 126.925 119.659 118.338 130.275 118.338Z" fill="#F2D9FF" stroke="black" stroke-miterlimit="10"/>
<path d="M12.5923 215.366C12.5923 211.704 9.64861 208.73 5.9999 208.672C5.9999 208.672 5.9999 208.671 5.9999 208.669C5.9999 208.668 5.9999 208.668 5.9999 208.666C9.65022 208.608 12.5923 205.635 12.5923 201.972C12.6276 201.972 12.6646 201.969 12.6999 201.969C12.7352 201.969 12.7722 201.971 12.8075 201.972C12.8075 205.635 15.7512 208.608 19.3999 208.666C19.3999 208.666 19.3999 208.668 19.3999 208.669C19.3999 208.671 19.3999 208.671 19.3999 208.672C15.7496 208.73 12.8075 211.704 12.8075 215.366C12.7722 215.366 12.7352 215.369 12.6999 215.369C12.6646 215.369 12.6276 215.368 12.5923 215.366Z" fill="#FFDD46" stroke="black" stroke-miterlimit="10"/>
<path d="M206.377 266.904C206.377 263.242 203.433 260.269 199.785 260.211C199.785 260.211 199.785 260.209 199.785 260.208C199.785 260.206 199.785 260.206 199.785 260.204C203.435 260.147 206.377 257.173 206.377 253.511C206.412 253.511 206.449 253.508 206.485 253.508C206.52 253.508 206.557 253.509 206.592 253.511C206.592 257.173 209.536 260.147 213.185 260.204C213.185 260.204 213.185 260.206 213.185 260.208C213.185 260.209 213.185 260.209 213.185 260.211C209.534 260.269 206.592 263.242 206.592 266.904C206.557 266.904 206.52 266.908 206.485 266.908C206.449 266.908 206.412 266.906 206.377 266.904Z" fill="#FFDD46" stroke="black" stroke-miterlimit="10"/>
<path d="M229.054 18.4891C229.054 14.8268 226.11 11.8533 222.461 11.7955C222.461 11.7955 222.461 11.7939 222.461 11.7923C222.461 11.7907 222.461 11.7907 222.461 11.7891C226.112 11.7313 229.054 8.75778 229.054 5.0955C229.089 5.0955 229.126 5.09229 229.161 5.09229C229.197 5.09229 229.234 5.09389 229.269 5.0955C229.269 8.75778 232.213 11.7313 235.861 11.7891C235.861 11.7891 235.861 11.7907 235.861 11.7923C235.861 11.7939 235.861 11.7939 235.861 11.7955C232.211 11.8533 229.269 14.8268 229.269 18.4891C229.234 18.4891 229.197 18.4923 229.161 18.4923C229.126 18.4923 229.089 18.4907 229.054 18.4891Z" fill="#FFDD46" stroke="black" stroke-miterlimit="10"/>
<path d="M52.3844 232.892V149.4H78.9058C94.1306 203.515 101.861 231.861 101.861 231.861C101.861 231.861 65.8064 232.892 52.3861 232.892H52.3844Z" fill="#B03EF5" stroke="black" stroke-miterlimit="10"/>
<path d="M59.3928 226.968C60.6155 224.968 64.754 226.968 64.754 226.968C78.4232 210.507 97.3823 213.703 106.957 223.359C116.729 233.212 116.836 250.108 106.179 260.723H31.7694V225.339C43.4951 225.339 50.8042 221.167 59.3928 226.968Z" fill="#6E00E1"/>
<path d="M59.3928 226.968C50.8042 221.167 43.4951 225.339 31.7694 225.339V260.723H106.179C116.836 250.108 116.729 233.212 106.957 223.359C97.3823 213.703 78.4232 210.507 64.754 226.968M59.3928 226.968C60.6155 224.968 64.754 226.968 64.754 226.968M59.3928 226.968H64.754" stroke="black" stroke-miterlimit="10"/>
<rect x="-0.5" y="0.5" width="9" height="28" transform="matrix(-1 0 0 1 118 95)" fill="#F2D9FF" stroke="black"/>
<path d="M31.7695 227.223V139.092L78.6694 149.4C78.6694 149.4 71.6467 162.564 63.9202 168.469C63.9202 172.077 63.877 169.463 63.9202 173.108C64.1319 190.97 63.9356 207.741 64.7541 227.223C45.8593 227.223 47.7348 227.223 31.7695 227.223Z" stroke="black" stroke-miterlimit="10"/>
<rect x="-0.323807" y="0.628609" width="23.4809" height="10.3385" transform="matrix(-0.952416 0.304801 0.304801 0.952416 69.7514 143.344)" fill="#F2D9FF" stroke="black"/>
<path d="M31.7693 227.223V140.123H63.3176C63.4989 144.445 63.6303 157.909 63.7274 162.006C63.8166 165.773 63.8768 169.463 63.92 173.108C64.1318 190.97 63.9354 207.741 64.7539 227.223C45.8591 227.223 47.7346 227.223 31.7693 227.223Z" fill="#B03EF5"/>
<path d="M31.7693 140.123V227.223C47.7346 227.223 45.8591 227.223 64.7539 227.223C63.9354 207.741 64.1318 190.97 63.92 173.108C63.8768 169.463 63.92 171.645 63.92 167.954" stroke="black" stroke-miterlimit="10"/>
<path fill-rule="evenodd" clip-rule="evenodd" d="M32.8647 103.081C32.8647 104.372 32.9397 105.624 33.0797 106.819L28.6769 137.534C28.6769 140.672 31.2067 143.215 34.328 143.215H43.1077L47.7461 158.161L72.5027 152.492C75.2818 152.492 75.1406 143.132 75.0762 138.864C75.0683 138.338 75.0615 137.89 75.0615 137.546L75.0615 124H113V94H73.1252C72.8035 91.7229 66.3636 89.9044 63.2735 89.9044C61.2671 89.9044 59.5022 90.6718 58.4757 91.8313L45.9919 87.5537C44.9653 87.5537 44.0021 87.8318 43.1722 88.3127C39.7142 88.8807 32.8647 95.2761 32.8647 103.081Z" fill="#D092F1"/>
<path d="M33.0797 106.819L33.5763 106.76L33.5838 106.825L33.5746 106.89L33.0797 106.819ZM28.6769 137.534H28.1769V137.498L28.182 137.463L28.6769 137.534ZM43.1077 143.215V142.715H43.476L43.5852 143.067L43.1077 143.215ZM47.7461 158.161L47.8577 158.649L47.406 158.752L47.2686 158.31L47.7461 158.161ZM72.5027 152.492L72.3911 152.005L72.4462 151.992H72.5027V152.492ZM75.0762 138.864L74.5763 138.872L75.0762 138.864ZM75.0615 137.546H75.5615H75.0615ZM75.0615 124H74.5615V123.5H75.0615V124ZM113 124H113.5V124.5H113V124ZM113 94V93.5H113.5V94H113ZM73.1252 94V94.5H72.6909L72.6301 94.0699L73.1252 94ZM58.4757 91.8313L58.85 92.1627L58.629 92.4123L58.3136 92.3043L58.4757 91.8313ZM45.9919 87.5537V87.0537H46.0752L46.154 87.0807L45.9919 87.5537ZM43.1722 88.3127L43.4228 88.7453L43.3436 88.7913L43.2532 88.8061L43.1722 88.3127ZM32.5831 106.877C32.4408 105.663 32.3647 104.392 32.3647 103.081H33.3647C33.3647 104.353 33.4386 105.585 33.5763 106.76L32.5831 106.877ZM28.182 137.463L32.5847 106.748L33.5746 106.89L29.1718 137.605L28.182 137.463ZM34.328 143.715C30.928 143.715 28.1769 140.945 28.1769 137.534H29.1769C29.1769 140.398 31.4853 142.715 34.328 142.715V143.715ZM43.1077 143.715H34.328V142.715H43.1077V143.715ZM47.2686 158.31L42.6301 143.363L43.5852 143.067L48.2237 158.013L47.2686 158.31ZM72.6143 152.98L47.8577 158.649L47.6345 157.674L72.3911 152.005L72.6143 152.98ZM75.5762 138.856C75.6083 140.985 75.6608 144.422 75.353 147.331C75.1996 148.78 74.9532 150.139 74.5507 151.148C74.1642 152.117 73.5352 152.992 72.5027 152.992V151.992C72.8598 151.992 73.2553 151.697 73.6219 150.778C73.9725 149.898 74.2079 148.65 74.3586 147.226C74.6589 144.388 74.6086 141.011 74.5763 138.872L75.5762 138.856ZM75.5615 137.546C75.5615 137.885 75.5682 138.329 75.5762 138.856L74.5763 138.872C74.5684 138.347 74.5615 137.895 74.5615 137.546H75.5615ZM75.5615 124L75.5615 137.546H74.5615L74.5615 124H75.5615ZM75.0615 123.5H113V124.5H75.0615V123.5ZM112.5 124V94H113.5V124H112.5ZM113 94.5H73.1252V93.5H113V94.5ZM63.2735 89.4044C64.89 89.4044 67.331 89.8743 69.4081 90.6283C70.4485 91.006 71.4253 91.4647 72.1725 91.9905C72.8994 92.5021 73.5098 93.1483 73.6203 93.9301L72.6301 94.0699C72.5797 93.7132 72.2645 93.2781 71.5969 92.8083C70.9495 92.3527 70.0629 91.9299 69.0669 91.5683C67.071 90.8438 64.7471 90.4044 63.2735 90.4044V89.4044ZM58.1013 91.4998C59.2384 90.2155 61.1493 89.4044 63.2735 89.4044V90.4044C61.3848 90.4044 59.7661 91.1281 58.85 92.1627L58.1013 91.4998ZM46.154 87.0807L58.6377 91.3583L58.3136 92.3043L45.8298 88.0267L46.154 87.0807ZM42.9215 87.8801C43.8246 87.3568 44.8739 87.0537 45.9919 87.0537V88.0537C45.0568 88.0537 44.1796 88.3069 43.4228 88.7453L42.9215 87.8801ZM32.3647 103.081C32.3647 99.0328 34.1387 95.3751 36.3333 92.6681C37.4323 91.3124 38.6455 90.184 39.8133 89.3547C40.9724 88.5314 42.1211 87.9787 43.0911 87.8193L43.2532 88.8061C42.4942 88.9308 41.49 89.3904 40.3923 90.17C39.3032 90.9434 38.1557 92.0081 37.1101 93.2978C35.0154 95.8816 33.3647 99.3239 33.3647 103.081H32.3647Z" fill="black"/>
<path d="M18.7769 25.7044C18.7769 22.0421 15.8332 19.0686 12.1845 19.0108C12.1845 19.0108 12.1845 19.0092 12.1845 19.0076C12.1845 19.006 12.1845 19.006 12.1845 19.0044C15.8348 18.9466 18.7769 15.9731 18.7769 12.3108C18.8122 12.3108 18.8491 12.3076 18.8845 12.3076C18.9198 12.3076 18.9567 12.3092 18.9921 12.3108C18.9921 15.9731 21.9358 18.9466 25.5845 19.0044C25.5845 19.0044 25.5845 19.006 25.5845 19.0076C25.5845 19.0092 25.5845 19.0092 25.5845 19.0108C21.9342 19.0686 18.9921 22.0421 18.9921 25.7044C18.9567 25.7044 18.9198 25.7076 18.8845 25.7076C18.8491 25.7076 18.8122 25.706 18.7769 25.7044Z" fill="#FFDD46" stroke="black" stroke-miterlimit="10"/>
<path d="M44.8634 52.1454C45.1603 52.1627 45.4506 52.1938 45.739 52.2375C45.0738 53.8732 44.6638 55.641 44.5575 57.4968L44.0994 65.5012C43.9926 67.3554 44.199 69.1586 44.6741 70.8604C44.3829 70.871 44.0903 70.8699 43.7934 70.8526C38.6265 70.5584 34.6769 66.1329 34.9738 60.9672C35.2707 55.8014 39.6969 51.8528 44.8643 52.1486L44.8634 52.1454Z" fill="#F2D9C9" stroke="black" stroke-miterlimit="10"/>
<path d="M50.3893 75.4616L65.2222 77.6763L64.0985 85.1879L49.2656 82.9732L50.3893 75.4616Z" fill="#F2D9C9" stroke="black" stroke-miterlimit="10"/>
<path d="M39.0407 63.7775C41.8333 63.9368 44.5633 65.1537 46.5603 67.3916C48.5574 69.6295 49.4561 72.4798 49.2961 75.2715" stroke="black" stroke-miterlimit="10"/>
<path d="M61.4452 38.992L61.5803 38.9997C70.6972 39.5195 77.6649 47.3293 77.1431 56.4432L76.6773 64.581C76.1555 73.695 68.3418 80.6619 59.2249 80.1421L59.0898 80.1344C49.9729 79.6145 43.0051 71.8048 43.5269 62.6908L43.9928 54.553C44.5145 45.439 52.3282 38.4721 61.4452 38.992Z" fill="#F2D9C9" stroke="black" stroke-miterlimit="10"/>
<path d="M74.3163 61.3884C73.5454 61.5949 72.7531 61.1377 72.5466 60.3671C72.3402 59.5966 72.7977 58.8044 73.5686 58.5979C74.3394 58.3913 75.1317 58.8486 75.3382 59.6191C75.5447 60.3897 75.0872 61.1818 74.3163 61.3884Z" fill="black"/>
<path d="M63.6039 60.6093C62.833 60.8159 62.0407 60.3586 61.8342 59.5881C61.6278 58.8175 62.0853 58.0254 62.8562 57.8188C63.627 57.6123 64.4193 58.0695 64.6258 58.8401C64.8323 59.6106 64.3748 60.4028 63.6039 60.6093Z" fill="black"/>
<path d="M71.6713 65.3958L72.4476 65.4402C73.1854 65.4828 73.8218 64.9147 73.8646 64.1771C73.9073 63.4395 73.3391 62.8035 72.6013 62.7608L71.825 62.7164" fill="#F2D9C9"/>
<path d="M71.6713 65.3958L72.4476 65.4402C73.1854 65.4828 73.8218 64.9147 73.8646 64.1771C73.9073 63.4395 73.3391 62.8035 72.6013 62.7608L71.825 62.7164" stroke="black" stroke-miterlimit="10"/>
<path d="M60.849 67.5106C61.3778 67.9671 61.9503 68.3738 62.5574 68.7228C63.1646 69.0719 63.8085 69.3644 64.4785 69.5929C65.1485 69.8213 65.8462 69.9853 66.5634 70.0802C67.2806 70.175 68.0181 70.1969 68.766 70.1417C69.5139 70.0866 70.2399 69.956 70.936 69.7591C71.6321 69.5622 72.2979 69.2974 72.9286 68.9728" fill="#F2D9C9"/>
<path d="M60.849 67.5106C61.3778 67.9671 61.9503 68.3738 62.5574 68.7228C63.1646 69.0719 63.8085 69.3644 64.4785 69.5929C65.1485 69.8213 65.8462 69.9853 66.5634 70.0802C67.2806 70.175 68.0181 70.1969 68.766 70.1417C69.5139 70.0866 70.2399 69.956 70.936 69.7591C71.6321 69.5622 72.2979 69.2974 72.9286 68.9728" stroke="black" stroke-miterlimit="10"/>
<path d="M59.0013 68.2928C59.1963 68.2785 59.3899 68.2457 59.5803 68.1947C59.7707 68.1437 59.9543 68.0737 60.1332 67.986C60.312 67.8984 60.4809 67.7926 60.6417 67.67C60.8025 67.5474 60.9529 67.4051 61.0905 67.2472C61.2276 67.0877 61.3452 66.9196 61.4447 66.7425C61.5443 66.5655 61.6231 66.3818 61.6831 66.1929" fill="#F2D9C9"/>
<path d="M59.0013 68.2928C59.1963 68.2785 59.3899 68.2457 59.5803 68.1947C59.7707 68.1437 59.9543 68.0737 60.1332 67.986C60.312 67.8984 60.4809 67.7926 60.6417 67.67C60.8025 67.5474 60.9529 67.4051 61.0905 67.2472C61.2276 67.0877 61.3452 66.9196 61.4447 66.7425C61.5443 66.5655 61.6231 66.3818 61.6831 66.1929" stroke="black" stroke-miterlimit="10"/>
<path d="M66.1584 83.3631C60.2119 82.8826 54.2649 82.4006 48.3184 81.9201C47.3586 84.4898 46.397 87.06 45.4371 89.6297C51.8981 91.0608 58.3609 92.4914 64.8219 93.9225C65.2672 90.4022 65.7131 86.8834 66.16 83.3626L66.1584 83.3631Z" fill="#D092F1" stroke="black" stroke-miterlimit="10"/>
<path d="M75.0615 99.9231L75.0615 147.338" stroke="black"/>
<path d="M67.3308 50.4462C68.6936 47.8518 69.3868 46.4874 70.4231 43.7462C70.9651 42.3124 70.9385 39.6231 70.9385 39.6231L54.4462 34.4692L37.9539 45.8077L43.6231 63.3308L45.6846 62.3C45.6846 62.3 54.8357 61.2471 59.6 58.1769C63.189 55.8642 65.3452 54.226 67.3308 50.4462Z" fill="#B03EF5"/>
<path d="M39.4998 49.9307L43.6229 63.3307L45.6844 62.3C45.6844 62.3 54.8355 61.2471 59.5998 58.1769C63.1887 55.8641 65.345 54.2259 67.3306 50.4461C68.6934 47.8518 69.3866 46.4873 70.4229 43.7461C70.9649 42.3123 70.9383 39.623 70.9383 39.623" stroke="black"/>
<path d="M68.8124 52.9671C67.7061 52.2968 66.1108 51.9785 64.2943 52.1731C62.4762 52.3682 60.7674 53.0416 59.4765 53.9684" stroke="black" stroke-miterlimit="10"/>
<path d="M77.0637 53.9351C76.4466 52.9987 75.5842 52.34 74.6258 52.1845C73.6666 52.0292 72.7859 52.4061 72.1383 53.1369" stroke="black" stroke-miterlimit="10"/>
<path d="M45.1694 149.4L32.8002 106.108" stroke="black"/>
<path d="M62.8985 106.108L73.0005 140L65.0005 142" stroke="black"/>
<path d="M123.197 137.378C127.709 138.927 132.221 140.476 136.733 142.025L150.269 137.378L163.805 142.025L177.341 137.378L190.877 142.025L204.413 137.378V130.764L190.877 135.411L177.341 130.764L163.805 135.411L150.269 130.764L136.733 135.411C132.221 133.862 127.709 132.313 123.197 130.764V137.378Z" fill="#D092F1" stroke="black" stroke-miterlimit="10"/>
<path d="M123 154.648C127.512 156.198 132.024 157.746 136.536 159.296L150.072 154.648L163.608 159.296L177.144 154.648V148.034L163.608 152.682L150.072 148.034L136.536 152.682C132.024 151.132 127.512 149.584 123 148.034V154.648Z" fill="#D092F1" stroke="black" stroke-miterlimit="10"/>
<path d="M53.7095 140.54C52.5831 141.313 48.1842 144.525 46.938 150.467C45.728 156.232 47.9476 162.364 52.6404 166.508C69.1359 166.63 85.6313 166.753 102.127 166.876C103.42 166.805 105.439 166.502 107.398 165.241C107.398 165.241 111.851 162.374 112.695 155.369C113.642 147.513 79.6238 167.808 72.9238 135.854C60.9238 138.354 56.9237 139.354 53.7095 140.54Z" fill="#F2D9FF" stroke="black" stroke-miterlimit="10"/>
<path fill-rule="evenodd" clip-rule="evenodd" d="M92.6787 135.164C93.7373 134.236 94.9333 133.461 96.2298 132.878C95.371 132.382 94.6525 131.67 94.1514 130.815C93.6502 129.96 93.3664 128.962 93.3741 127.896C93.3861 126.298 94.0515 124.838 95.1131 123.774C96.1747 122.709 97.6326 122.039 99.2317 122.02L113.319 121.86L127.407 121.699C129.006 121.68 130.454 122.318 131.5 123.358C132.546 124.397 133.189 125.842 133.177 127.44C133.165 129.037 132.498 130.496 131.438 131.562C130.377 132.627 128.918 133.297 127.319 133.315L125.587 133.335L123.855 133.354C125.868 134.543 127.547 136.234 128.716 138.258C129.886 140.282 130.549 142.637 130.529 145.152L130.484 151.07L130.438 156.989C130.409 160.793 128.824 164.269 126.295 166.805C123.766 169.341 120.268 170.599 116.46 170.642L108.981 171.066L106.509 170.983C106.419 170.989 106.333 170.995 106.249 170.999L56.7626 170.631C52.0697 166.487 49.8502 160.355 51.0602 154.591C52.3063 148.648 56.7052 145.436 57.8317 144.663C63.5012 143.019 69.1706 141.376 74.84 139.733C80.5064 138.09 86.1729 136.448 91.8394 134.805C92.121 134.924 92.4008 135.043 92.6787 135.164Z" fill="#F2D9C9"/>
<path d="M92.6787 135.164L93.0084 135.54L92.7701 135.749L92.4795 135.623L92.6787 135.164ZM96.2298 132.878L96.4797 132.444L97.3254 132.932L96.4351 133.333L96.2298 132.878ZM94.1514 130.815L93.72 131.068L93.72 131.068L94.1514 130.815ZM93.3741 127.896L92.8741 127.892L92.8741 127.892L93.3741 127.896ZM99.2317 122.02L99.2259 121.52L99.226 121.52L99.2317 122.02ZM113.319 121.86L113.325 122.36L113.319 121.86ZM127.407 121.699L127.413 122.199L127.412 122.199L127.407 121.699ZM131.5 123.358L131.148 123.712L131.5 123.358ZM133.177 127.44L132.677 127.436L133.177 127.44ZM131.438 131.562L131.792 131.915L131.438 131.562ZM127.319 133.315L127.325 133.815L127.325 133.815L127.319 133.315ZM125.587 133.335L125.593 133.835L125.593 133.835L125.587 133.335ZM123.855 133.354L123.601 133.785L122.059 132.874L123.849 132.854L123.855 133.354ZM128.716 138.258L128.283 138.509L128.716 138.258ZM130.529 145.152L130.029 145.148L130.029 145.148L130.529 145.152ZM130.484 151.07L129.984 151.067L130.484 151.07ZM130.438 156.989L129.938 156.985L129.938 156.985L130.438 156.989ZM126.295 166.805L126.649 167.159L126.295 166.805ZM116.46 170.642L116.432 170.143L116.443 170.142L116.455 170.142L116.46 170.642ZM108.981 171.066L109.01 171.565L108.987 171.566L108.965 171.565L108.981 171.066ZM106.509 170.983L106.471 170.484L106.498 170.482L106.526 170.483L106.509 170.983ZM106.249 170.999L106.276 171.499L106.261 171.5L106.245 171.499L106.249 170.999ZM56.7626 170.631L56.7588 171.131L56.5718 171.129L56.4316 171.006L56.7626 170.631ZM51.0602 154.591L51.5495 154.693L51.5495 154.693L51.0602 154.591ZM57.8317 144.663L57.5488 144.251L57.6151 144.205L57.6925 144.183L57.8317 144.663ZM74.84 139.733L74.9792 140.213L74.84 139.733ZM91.8394 134.805L91.7001 134.325L91.8702 134.276L92.0334 134.344L91.8394 134.805ZM92.3491 134.788C93.4443 133.828 94.682 133.026 96.0245 132.422L96.4351 133.333C95.1845 133.897 94.0303 134.644 93.0084 135.54L92.3491 134.788ZM95.9799 133.311C95.0465 132.772 94.2652 131.998 93.72 131.068L94.5827 130.562C95.0398 131.342 95.6956 131.992 96.4797 132.444L95.9799 133.311ZM93.72 131.068C93.1743 130.137 92.8658 129.05 92.8741 127.892L93.8741 127.899C93.8671 128.873 94.1261 129.783 94.5827 130.562L93.72 131.068ZM92.8741 127.892C92.8872 126.156 93.6105 124.572 94.7591 123.421L95.4671 124.127C94.4924 125.104 93.885 126.441 93.8741 127.899L92.8741 127.892ZM94.7591 123.421C95.9075 122.269 97.4883 121.541 99.2259 121.52L99.2375 122.52C97.777 122.537 96.4419 123.15 95.4671 124.127L94.7591 123.421ZM99.226 121.52L113.314 121.36L113.325 122.36L99.2374 122.52L99.226 121.52ZM113.314 121.36L127.401 121.199L127.412 122.199L113.325 122.36L113.314 121.36ZM127.401 121.199C129.14 121.179 130.715 121.873 131.852 123.003L131.148 123.712C130.192 122.763 128.872 122.182 127.413 122.199L127.401 121.199ZM131.852 123.003C132.99 124.134 133.69 125.707 133.677 127.444L132.677 127.436C132.688 125.978 132.102 124.661 131.148 123.712L131.852 123.003ZM133.677 127.444C133.664 129.18 132.939 130.762 131.792 131.915L131.083 131.209C132.058 130.23 132.666 128.895 132.677 127.436L133.677 127.444ZM131.792 131.915C130.644 133.067 129.062 133.795 127.325 133.815L127.313 132.815C128.774 132.798 130.11 132.187 131.083 131.209L131.792 131.915ZM127.325 133.815L125.593 133.835L125.581 132.835L127.313 132.815L127.325 133.815ZM125.593 133.835L123.861 133.854L123.849 132.854L125.581 132.835L125.593 133.835ZM124.109 132.924C126.196 134.156 127.937 135.909 129.149 138.008L128.283 138.509C127.157 136.559 125.54 134.93 123.601 133.785L124.109 132.924ZM129.149 138.008C130.362 140.107 131.05 142.549 131.029 145.156L130.029 145.148C130.048 142.724 129.409 140.458 128.283 138.509L129.149 138.008ZM131.029 145.156L130.984 151.074L129.984 151.067L130.029 145.148L131.029 145.156ZM130.984 151.074L130.938 156.993L129.938 156.985L129.984 151.067L130.984 151.074ZM130.938 156.993C130.908 160.936 129.265 164.535 126.649 167.159L125.941 166.452C128.383 164.003 129.91 160.651 129.938 156.985L130.938 156.993ZM126.649 167.159C124.011 169.804 120.379 171.097 116.466 171.142L116.455 170.142C120.157 170.1 123.521 168.879 125.941 166.452L126.649 167.159ZM116.489 171.142L109.01 171.565L108.953 170.566L116.432 170.143L116.489 171.142ZM108.965 171.565L106.492 171.482L106.526 170.483L108.998 170.566L108.965 171.565ZM106.222 170.5C106.302 170.496 106.385 170.49 106.471 170.484L106.546 171.481C106.453 171.488 106.363 171.494 106.276 171.499L106.222 170.5ZM56.7663 170.131L106.253 170.499L106.245 171.499L56.7588 171.131L56.7663 170.131ZM51.5495 154.693C50.38 160.265 52.522 166.22 57.0935 170.256L56.4316 171.006C51.6174 166.755 49.3203 160.445 50.5708 154.488L51.5495 154.693ZM58.1146 145.075C57.0154 145.83 52.7546 148.947 51.5495 154.693L50.5708 154.488C51.858 148.35 56.3951 145.042 57.5488 144.251L58.1146 145.075ZM74.9792 140.213C69.3098 141.856 63.6404 143.499 57.9709 145.143L57.6925 144.183C63.362 142.539 69.0314 140.896 74.7008 139.253L74.9792 140.213ZM91.9786 135.285C86.3121 136.928 80.6456 138.571 74.9792 140.213L74.7008 139.253C80.3672 137.61 86.0336 135.968 91.7001 134.325L91.9786 135.285ZM92.4795 135.623C92.2033 135.503 91.9253 135.384 91.6454 135.266L92.0334 134.344C92.3167 134.464 92.5983 134.584 92.8779 134.706L92.4795 135.623Z" fill="black"/>
<path d="M111.224 133.494C113.772 133.494 112.423 133.501 115.716 133.491L135.408 133.428C138.702 133.417 141.399 136.104 141.4 139.396C141.401 142.689 138.708 145.393 135.415 145.403L118.669 146.02" fill="#F2D9C9"/>
<path d="M111.224 133.494C113.772 133.494 112.423 133.501 115.716 133.491L135.408 133.428C138.702 133.417 141.399 136.104 141.4 139.396C141.401 142.689 138.708 145.393 135.415 145.403L118.669 146.02" stroke="black" stroke-miterlimit="10"/>
<path d="M116.566 145.676L136.327 145.498C139.632 145.469 142.323 148.147 142.305 151.449C142.287 154.752 139.569 157.479 136.264 157.508L116.503 157.686" fill="#F2D9C9"/>
<path d="M116.566 145.676L136.327 145.498C139.632 145.469 142.323 148.147 142.305 151.449C142.287 154.752 139.569 157.479 136.264 157.508L116.503 157.686" stroke="black" stroke-miterlimit="10"/>
<path d="M112.319 157.74L132.08 157.562C135.385 157.532 138.075 160.211 138.058 163.513C138.04 166.815 135.322 169.542 132.017 169.572L120.994 169.572" fill="#F2D9C9"/>
<path d="M112.319 157.74L132.08 157.562C135.385 157.532 138.075 160.211 138.058 163.513C138.04 166.815 135.322 169.542 132.017 169.572L120.994 169.572" stroke="black" stroke-miterlimit="10"/>
<path d="M96.6826 141.558L93.7065 141.564C91.0708 141.57 88.9301 139.097 88.9253 136.043L88.8965 118.009C88.8916 114.954 91.0244 112.474 93.6601 112.468L96.6362 112.462C99.2719 112.457 101.413 114.929 101.417 117.984L101.532 122.066C101.537 125.12 99.3184 141.553 96.6826 141.558Z" fill="#F2D9C9"/>
<path d="M101.431 121.981L101.529 117.531C101.524 114.476 99.3833 112.004 96.7476 112.009L93.7715 112.015C91.1357 112.02 89.003 114.501 89.0079 117.556L89.0366 135.59" stroke="black" stroke-miterlimit="10"/>
</svg>
