<svg width="280" height="280" viewBox="0 0 280 280" fill="none" xmlns="http://www.w3.org/2000/svg">
<g clip-path="url(#clip0_1672_5783)">
<path d="M273.236 113.152L205.79 74.2115C200.383 71.0896 193.489 72.9072 190.392 78.2713L126.153 189.536C123.057 194.9 124.929 201.779 130.337 204.901L197.783 243.841C203.19 246.963 210.084 245.145 213.181 239.781L277.42 128.517C280.517 123.153 278.644 116.274 273.236 113.152Z" fill="#D092F1" stroke="black" stroke-miterlimit="10"/>
<path d="M214.265 88.8243L208.98 85.7729C204.715 83.3104 199.277 84.7441 196.834 88.9751L187.599 104.971C185.157 109.202 186.634 114.628 190.899 117.09L196.184 120.142C200.449 122.604 205.887 121.17 208.33 116.939L217.565 100.944C220.008 96.7129 218.53 91.2867 214.265 88.8243Z" fill="#6E00E1" stroke="black" stroke-miterlimit="10"/>
<path d="M263.373 117.177L260.959 115.783C257.925 114.032 254.057 115.051 252.32 118.061L197.81 212.474C196.073 215.484 197.123 219.343 200.157 221.095L202.571 222.489C205.605 224.24 209.473 223.221 211.211 220.211L265.72 125.798C267.458 122.788 266.407 118.929 263.373 117.177Z" fill="#B03EF5" stroke="black" stroke-miterlimit="10"/>
<path d="M179.041 65H101.161C94.9171 65 89.8555 70.0211 89.8555 76.2149V204.692C89.8555 210.886 94.9171 215.907 101.161 215.907H179.041C185.285 215.907 190.346 210.886 190.346 204.692V76.2149C190.346 70.0211 185.285 65 179.041 65Z" fill="#F2D9FF" stroke="black" stroke-miterlimit="10"/>
<path d="M115.807 73.4177H109.704C104.779 73.4177 100.787 77.3782 100.787 82.2637V100.734C100.787 105.619 104.779 109.58 109.704 109.58H115.807C120.732 109.58 124.724 105.619 124.724 100.734V82.2637C124.724 77.3782 120.732 73.4177 115.807 73.4177Z" fill="#B03EF5" stroke="black" stroke-miterlimit="10"/>
<path d="M172.512 73.4177H169.724C166.221 73.4177 163.381 76.2348 163.381 79.7099V188.729C163.381 192.204 166.221 195.021 169.724 195.021H172.512C176.015 195.021 178.855 192.204 178.855 188.729V79.7099C178.855 76.2348 176.015 73.4177 172.512 73.4177Z" fill="#D092F1" stroke="black" stroke-miterlimit="10"/>
<path d="M74.2369 74.2119L6.79078 113.152C1.38348 116.274 -0.489449 123.153 2.60747 128.517L66.846 239.782C69.943 245.146 76.837 246.963 82.2443 243.841L149.69 204.901C155.098 201.779 156.971 194.9 153.874 189.536L89.6352 78.2716C86.5383 72.9076 79.6442 71.09 74.2369 74.2119Z" fill="#D092F1" stroke="black" stroke-miterlimit="10"/>
<path d="M23.6831 113.119L18.398 116.171C14.1329 118.633 12.6555 124.059 15.0983 128.29L24.3333 144.286C26.7761 148.517 32.2139 149.95 36.479 147.488L41.7641 144.437C46.0293 141.974 47.5066 136.548 45.0638 132.317L35.8288 116.322C33.386 112.091 27.9482 110.657 23.6831 113.119Z" fill="#B03EF5" stroke="black" stroke-miterlimit="10"/>
<path d="M72.7912 84.7665L70.3769 86.1603C67.3431 87.9119 66.2923 91.7715 68.0299 94.781L122.539 189.194C124.277 192.204 128.145 193.224 131.179 191.472L133.593 190.078C136.627 188.327 137.678 184.467 135.94 181.458L81.4304 87.0442C79.6929 84.0347 75.8249 83.0149 72.7912 84.7665Z" fill="#6E00E1" stroke="black" stroke-miterlimit="10"/>
<path d="M144.997 43.3956C141.444 43.3956 138.559 40.5398 138.503 37C138.503 37 138.502 37 138.5 37C138.498 37 138.498 37 138.497 37C138.441 40.5413 135.556 43.3956 132.003 43.3956C132.003 43.4299 132 43.4657 132 43.5C132 43.5343 132.002 43.5701 132.003 43.6044C135.556 43.6044 138.441 46.4602 138.497 50C138.497 50 138.498 50 138.5 50C138.502 50 138.502 50 138.503 50C138.559 46.4587 141.444 43.6044 144.997 43.6044C144.997 43.5701 145 43.5343 145 43.5C145 43.4657 144.998 43.4299 144.997 43.3956Z" fill="#FFDE46" stroke="black" stroke-miterlimit="10"/>
<path d="M68.9969 21.3956C65.4439 21.3956 62.5592 18.5398 62.5031 15C62.5031 15 62.5016 15 62.5 15C62.4984 15 62.4984 15 62.4969 15C62.4408 18.5413 59.5561 21.3956 56.0031 21.3956C56.0031 21.4299 56 21.4657 56 21.5C56 21.5343 56.0016 21.5701 56.0031 21.6044C59.5561 21.6044 62.4408 24.4602 62.4969 28C62.4969 28 62.4984 28 62.5 28C62.5016 28 62.5016 28 62.5031 28C62.5592 24.4587 65.4439 21.6044 68.9969 21.6044C68.9969 21.5701 69 21.5343 69 21.5C69 21.4657 68.9984 21.4299 68.9969 21.3956Z" fill="#FFDE46" stroke="black" stroke-miterlimit="10"/>
<path d="M261.604 78.9969C261.604 75.4439 264.46 72.5592 268 72.5031C268 72.5031 268 72.5016 268 72.5C268 72.4984 268 72.4984 268 72.4969C264.459 72.4408 261.604 69.5561 261.604 66.0031C261.57 66.0031 261.534 66 261.5 66C261.466 66 261.43 66.0016 261.396 66.0031C261.396 69.5561 258.54 72.4408 255 72.4969C255 72.4969 255 72.4984 255 72.5C255 72.5016 255 72.5016 255 72.5031C258.541 72.5592 261.396 75.4439 261.396 78.9969C261.43 78.9969 261.466 79 261.5 79C261.534 79 261.57 78.9984 261.604 78.9969Z" fill="#FFDE46" stroke="black" stroke-miterlimit="10"/>
<path d="M206.604 27.9969C206.604 24.4439 209.46 21.5592 213 21.5031C213 21.5031 213 21.5016 213 21.5C213 21.4984 213 21.4984 213 21.4969C209.459 21.4408 206.604 18.5561 206.604 15.0031C206.57 15.0031 206.534 15 206.5 15C206.466 15 206.43 15.0016 206.396 15.0031C206.396 18.5561 203.54 21.4408 200 21.4969C200 21.4969 200 21.4984 200 21.5C200 21.5016 200 21.5016 200 21.5031C203.541 21.5592 206.396 24.4439 206.396 27.9969C206.43 27.9969 206.466 28 206.5 28C206.534 28 206.57 27.9984 206.604 27.9969Z" fill="#FFDE46" stroke="black" stroke-miterlimit="10"/>
<path d="M18.6044 214.997C18.6044 211.444 21.4602 208.559 25 208.503C25 208.503 25 208.502 25 208.5C25 208.5 25 208.498 25 208.497C21.4587 208.441 18.6044 205.556 18.6044 202.003C18.5701 202.003 18.5343 202 18.5 202C18.4657 202 18.4299 202.002 18.3956 202.003C18.3956 205.556 15.5398 208.441 12 208.497C12 208.497 12 208.498 12 208.5C12 208.502 12 208.502 12 208.503C15.5413 208.559 18.3956 211.444 18.3956 214.997C18.4299 214.997 18.4657 215 18.5 215C18.5343 215 18.5701 214.998 18.6044 214.997Z" fill="#FFDE46" stroke="black" stroke-miterlimit="10"/>
<path d="M92.6044 277.997C92.6044 274.444 95.4602 271.559 99 271.503V271.5V271.497C95.4587 271.441 92.6044 268.556 92.6044 265.003C92.5701 265.003 92.5343 265 92.5 265C92.4657 265 92.4299 265.002 92.3956 265.003C92.3956 268.556 89.5398 271.441 86 271.497V271.5V271.503C89.5413 271.559 92.3956 274.444 92.3956 277.997C92.4299 277.997 92.4657 278 92.5 278C92.5343 278 92.5701 277.998 92.6044 277.997Z" fill="#FFDE46" stroke="black" stroke-miterlimit="10"/>
<path d="M252.604 227.997C252.604 224.444 255.46 221.559 259 221.503C259 221.503 259 221.502 259 221.5C259 221.5 259 221.498 259 221.497C255.459 221.441 252.604 218.556 252.604 215.003C252.57 215.003 252.534 215 252.5 215C252.466 215 252.43 215.002 252.396 215.003C252.396 218.556 249.54 221.441 246 221.497C246 221.497 246 221.498 246 221.5C246 221.502 246 221.502 246 221.503C249.541 221.559 252.396 224.444 252.396 227.997C252.43 227.997 252.466 228 252.5 228C252.534 228 252.57 227.998 252.604 227.997Z" fill="#FFDE46" stroke="black" stroke-miterlimit="10"/>
<path d="M159.604 259.997C159.604 256.444 162.46 253.559 166 253.503C166 253.503 166 253.502 166 253.5C166 253.5 166 253.498 166 253.497C162.459 253.441 159.604 250.556 159.604 247.003C159.57 247.003 159.534 247 159.5 247C159.466 247 159.43 247.002 159.396 247.003C159.396 250.556 156.54 253.441 153 253.497C153 253.497 153 253.498 153 253.5C153 253.502 153 253.502 153 253.503C156.541 253.559 159.396 256.444 159.396 259.997C159.43 259.997 159.466 260 159.5 260C159.534 260 159.57 259.998 159.604 259.997Z" fill="#FFDE46" stroke="black" stroke-miterlimit="10"/>
<path d="M26.9969 81.3956C23.4439 81.3956 20.5592 78.5398 20.5031 75H20.5H20.4969C20.4408 78.5413 17.5561 81.3956 14.0031 81.3956C14.0031 81.4299 14 81.4657 14 81.5C14 81.5343 14.0016 81.5701 14.0031 81.6044C17.5561 81.6044 20.4408 84.4602 20.4969 88H20.5H20.5031C20.5592 84.4587 23.4439 81.6044 26.9969 81.6044C26.9969 81.5701 27 81.5343 27 81.5C27 81.4657 26.9984 81.4299 26.9969 81.3956Z" fill="#FFDE46" stroke="black" stroke-miterlimit="10"/>
</g>
<defs>
<clipPath id="clip0_1672_5783">
<rect width="280" height="280" fill="white"/>
</clipPath>
</defs>
</svg>
