<svg width="279" height="50" viewBox="0 0 279 50" fill="none" xmlns="http://www.w3.org/2000/svg">
<path fill-rule="evenodd" clip-rule="evenodd" d="M10.8182 43.3182L9.41818 43.7636C8.65455 44.0182 8.08182 44.5909 7.82727 45.3545L7.31818 46.8182C7.19091 47.1364 6.80909 47.1364 6.74545 46.8182L6.3 45.4182C6.04545 44.6545 5.47273 44.0818 4.70909 43.8273L3.18182 43.3182C2.86364 43.1909 2.86364 42.8091 3.18182 42.7455L4.58182 42.3C5.34545 42.0455 5.91818 41.4727 6.17273 40.7091L6.68182 39.1818C6.80909 38.8636 7.19091 38.8636 7.25454 39.1818L7.7 40.5818C7.95455 41.3455 8.52727 41.9182 9.29091 42.1727L10.6909 42.6182C11.1364 42.8091 11.1364 43.1909 10.8182 43.3182ZM7 36C3.11818 36 0 39.1182 0 43C0 46.8818 3.11818 50 7 50C10.8818 50 14 46.8818 14 43C14 39.1182 10.8818 36 7 36Z" fill="#929292"/>
<path d="M28.6621 47.6309H17.4512V46.5371H28.6621V47.6309ZM18.4082 38.0879H27.6367V39.1543H25.7637V43.2422H27.5957V44.2812H18.4355V43.2422H20.2676V39.1543H18.4082V38.0879ZM24.4922 43.2422V39.1543H21.5527V43.2422H24.4922ZM39.7227 49.1895H38.4238V36.9121H39.7227V49.1895ZM30.2344 38.0195H35.9766V42.4902H31.5742V45.1699C32.6361 45.1654 33.6182 45.1312 34.5205 45.0674C35.4274 45.0036 36.3685 44.8919 37.3438 44.7324L37.4668 45.7988C36.4505 45.9674 35.4639 46.0837 34.5068 46.1475C33.5498 46.2113 32.4766 46.2454 31.2871 46.25H30.248V41.4512H34.6504V39.0723H30.2344V38.0195ZM52.0957 46.0312H50.8652V41.5879H49.3613V45.7031H48.1445V37.1445H49.3613V40.5215H50.8652V36.9258H52.0957V46.0312ZM42.1699 37.9512H46.8184V41.5469H43.4551V43.2012C44.2526 43.1966 44.959 43.1693 45.5742 43.1191C46.194 43.069 46.8275 42.9824 47.4746 42.8594L47.6113 43.8984C46.9095 44.0306 46.2282 44.1217 45.5674 44.1719C44.9066 44.2174 44.1364 44.2402 43.2568 44.2402H43.0039H42.1973V40.5625H45.5742V38.9902H42.1699V37.9512ZM43.9746 45.1836H45.2598V47.8496H52.4512V48.9023H43.9746V45.1836ZM58.166 40.0293C58.166 40.7721 58.2959 41.5013 58.5557 42.2168C58.82 42.9277 59.1891 43.5589 59.6631 44.1104C60.137 44.6618 60.6816 45.0742 61.2969 45.3477L60.5039 46.3867C59.8203 46.0404 59.221 45.5413 58.7061 44.8896C58.1911 44.2334 57.7969 43.4814 57.5234 42.6338C57.25 43.5316 56.8512 44.3314 56.3271 45.0332C55.8076 45.7305 55.1992 46.2591 54.502 46.6191L53.6816 45.5664C54.3014 45.2702 54.8506 44.8327 55.3291 44.2539C55.8122 43.6706 56.1859 43.0098 56.4502 42.2715C56.7191 41.5286 56.8535 40.7812 56.8535 40.0293V37.9375H58.166V40.0293ZM59.9434 40.9863H62.6777V36.9121H63.9629V49.1895H62.6777V42.0391H59.9434V40.9863Z" fill="#888888"/>
<path fill-rule="evenodd" clip-rule="evenodd" d="M88.8182 43.3182L87.4182 43.7636C86.6545 44.0182 86.0818 44.5909 85.8273 45.3545L85.3182 46.8182C85.1909 47.1364 84.8091 47.1364 84.7455 46.8182L84.3 45.4182C84.0455 44.6545 83.4727 44.0818 82.7091 43.8273L81.1818 43.3182C80.8636 43.1909 80.8636 42.8091 81.1818 42.7455L82.5818 42.3C83.3455 42.0455 83.9182 41.4727 84.1727 40.7091L84.6818 39.1818C84.8091 38.8636 85.1909 38.8636 85.2545 39.1818L85.7 40.5818C85.9545 41.3455 86.5273 41.9182 87.2909 42.1727L88.6909 42.6182C89.1364 42.8091 89.1364 43.1909 88.8182 43.3182ZM85 36C81.1182 36 78 39.1182 78 43C78 46.8818 81.1182 50 85 50C88.8818 50 92 46.8818 92 43C92 39.1182 88.8818 36 85 36Z" fill="#929292"/>
<path d="M106.965 49.1621H105.721V42.832H104.135V48.5332H102.945V37.1582H104.135V41.7656H105.721V36.9121H106.965V49.1621ZM96.8613 38.3887H101.455V39.4414H98.1602V45.1152C98.9577 45.1107 99.6572 45.0856 100.259 45.04C100.865 44.9945 101.482 44.9102 102.111 44.7871L102.207 45.8535C101.523 45.9948 100.849 46.0905 100.184 46.1406C99.5228 46.1862 98.6888 46.2135 97.6816 46.2227H96.8613V38.3887ZM115.865 39.1953H108.564V38.1562H111.572V36.8574H112.871V38.1562H115.865V39.1953ZM109.234 41.9707C109.234 41.5286 109.357 41.1413 109.604 40.8086C109.854 40.4714 110.205 40.2116 110.656 40.0293C111.107 39.8424 111.627 39.7467 112.215 39.7422C112.798 39.7467 113.313 39.8424 113.76 40.0293C114.211 40.2116 114.56 40.4714 114.806 40.8086C115.056 41.1413 115.182 41.5286 115.182 41.9707C115.182 42.4128 115.056 42.8024 114.806 43.1396C114.56 43.4769 114.211 43.7389 113.76 43.9258C113.313 44.1081 112.798 44.1992 112.215 44.1992C111.627 44.1992 111.107 44.1081 110.656 43.9258C110.205 43.7389 109.854 43.4769 109.604 43.1396C109.357 42.8024 109.234 42.4128 109.234 41.9707ZM110.082 45.1973H118.176V49.1621H116.877V46.25H110.082V45.1973ZM110.492 41.9707C110.488 42.3444 110.643 42.6406 110.957 42.8594C111.271 43.0781 111.691 43.1875 112.215 43.1875C112.739 43.1875 113.16 43.0804 113.479 42.8662C113.799 42.6475 113.96 42.349 113.965 41.9707C113.96 41.597 113.799 41.3008 113.479 41.082C113.16 40.8587 112.739 40.7448 112.215 40.7402C111.868 40.7402 111.563 40.7926 111.299 40.8975C111.039 40.9977 110.839 41.1413 110.697 41.3281C110.556 41.5104 110.488 41.7246 110.492 41.9707ZM116.877 36.9121H118.176V40.2344H119.953V41.3145H118.176V44.5684H116.877V36.9121ZM124.396 39.2637C124.396 39.7148 124.49 40.1569 124.677 40.5898C124.868 41.0182 125.148 41.4056 125.518 41.752C125.887 42.0938 126.329 42.3626 126.844 42.5586L126.16 43.5566C125.604 43.3424 125.123 43.0394 124.718 42.6475C124.317 42.2555 124.005 41.7998 123.781 41.2803C123.549 41.8682 123.221 42.3923 122.797 42.8525C122.378 43.3083 121.881 43.6615 121.307 43.9121L120.596 42.9004C121.129 42.668 121.587 42.3558 121.97 41.9639C122.353 41.5674 122.642 41.1344 122.838 40.665C123.038 40.1956 123.139 39.7285 123.139 39.2637V37.6777H124.396V39.2637ZM122.852 46.9199C122.847 46.4596 123.011 46.0632 123.344 45.7305C123.676 45.3932 124.155 45.1357 124.779 44.958C125.404 44.7803 126.142 44.6914 126.994 44.6914C127.842 44.6914 128.578 44.7803 129.202 44.958C129.831 45.1357 130.314 45.3932 130.651 45.7305C130.993 46.0632 131.164 46.4596 131.164 46.9199C131.164 47.3802 130.993 47.7767 130.651 48.1094C130.314 48.4421 129.831 48.695 129.202 48.8682C128.578 49.0459 127.842 49.1348 126.994 49.1348C126.142 49.1348 125.404 49.0459 124.779 48.8682C124.155 48.695 123.676 48.4421 123.344 48.1094C123.011 47.7767 122.847 47.3802 122.852 46.9199ZM124.137 46.9199C124.132 47.1751 124.244 47.3962 124.472 47.583C124.7 47.7653 125.028 47.9043 125.456 48C125.889 48.0957 126.402 48.1413 126.994 48.1367C127.582 48.1413 128.09 48.0957 128.519 48C128.951 47.9043 129.284 47.7653 129.517 47.583C129.749 47.4007 129.865 47.1797 129.865 46.9199C129.865 46.6647 129.751 46.446 129.523 46.2637C129.296 46.0768 128.97 45.9355 128.546 45.8398C128.122 45.7396 127.618 45.6895 127.035 45.6895C126.119 45.6895 125.406 45.7965 124.896 46.0107C124.385 46.2249 124.132 46.528 124.137 46.9199ZM127.227 37.1445H128.43V40.1113H129.865V36.9258H131.096V44.459H129.865V41.1777H128.43V44.0762H127.227V37.1445Z" fill="#888888"/>
<path fill-rule="evenodd" clip-rule="evenodd" d="M155.818 43.3182L154.418 43.7636C153.655 44.0182 153.082 44.5909 152.827 45.3545L152.318 46.8182C152.191 47.1364 151.809 47.1364 151.745 46.8182L151.3 45.4182C151.045 44.6545 150.473 44.0818 149.709 43.8273L148.182 43.3182C147.864 43.1909 147.864 42.8091 148.182 42.7455L149.582 42.3C150.345 42.0455 150.918 41.4727 151.173 40.7091L151.682 39.1818C151.809 38.8636 152.191 38.8636 152.255 39.1818L152.7 40.5818C152.955 41.3455 153.527 41.9182 154.291 42.1727L155.691 42.6182C156.136 42.8091 156.136 43.1909 155.818 43.3182ZM152 36C148.118 36 145 39.1182 145 43C145 46.8818 148.118 50 152 50C155.882 50 159 46.8818 159 43C159 39.1182 155.882 36 152 36Z" fill="#929292"/>
<path d="M168.182 39.2773C168.182 39.6602 168.298 40.0225 168.53 40.3643C168.763 40.7061 169.095 41.0046 169.528 41.2598C169.966 41.5104 170.479 41.6973 171.066 41.8203L170.533 42.832C169.836 42.6725 169.232 42.4242 168.722 42.0869C168.211 41.7497 167.819 41.3464 167.546 40.877C167.277 41.3919 166.883 41.834 166.363 42.2031C165.848 42.5677 165.233 42.832 164.518 42.9961L163.971 41.9844C164.563 41.8568 165.078 41.6585 165.516 41.3896C165.953 41.1208 166.288 40.804 166.521 40.4395C166.757 40.0749 166.878 39.6875 166.883 39.2773H164.244V38.252H166.883V36.9395H168.182V38.252H170.807V39.2773H168.182ZM163.438 43.748C165.01 43.748 166.452 43.7275 167.765 43.6865C169.077 43.641 170.324 43.543 171.504 43.3926L171.6 44.3359C170.556 44.5091 169.421 44.6322 168.195 44.7051V48.793H166.896V44.7734C165.999 44.8099 164.905 44.8281 163.615 44.8281L163.438 43.748ZM172.352 36.9258H173.637V49.1621H172.352V36.9258ZM181.977 46.1406H176.234V38.0879H181.977V46.1406ZM180.719 45.0879V39.1133H177.52V45.0879H180.719ZM184.396 36.9121H185.695V49.1895H184.396V36.9121ZM198.848 45.1426H193.844V49.1621H192.572V45.1426H187.637V44.1172H198.848V45.1426ZM189.031 37.4043H190.316V39.0039H196.141V37.4043H197.439V42.7227H189.031V37.4043ZM196.141 41.6836V40.043H190.316V41.6836H196.141ZM204.016 40.5215C204.016 41.1641 204.148 41.8158 204.412 42.4766C204.676 43.1328 205.046 43.7298 205.52 44.2676C205.998 44.8008 206.54 45.2109 207.146 45.498L206.408 46.5098C205.734 46.1862 205.132 45.7031 204.604 45.0605C204.075 44.4134 203.669 43.6842 203.387 42.873C203.104 43.7526 202.687 44.5456 202.136 45.252C201.589 45.9538 200.971 46.4779 200.283 46.8242L199.518 45.7988C200.124 45.5072 200.671 45.0788 201.158 44.5137C201.65 43.944 202.035 43.3083 202.313 42.6064C202.591 41.9001 202.73 41.2051 202.73 40.5215V39.2227H199.969V38.1426H206.682V39.2227H204.016V40.5215ZM207.994 36.9121H209.293V41.7656H211.262V42.8594H209.293V49.1621H207.994V36.9121Z" fill="#888888"/>
<path fill-rule="evenodd" clip-rule="evenodd" d="M234.818 43.3182L233.418 43.7636C232.655 44.0182 232.082 44.5909 231.827 45.3545L231.318 46.8182C231.191 47.1364 230.809 47.1364 230.745 46.8182L230.3 45.4182C230.045 44.6545 229.473 44.0818 228.709 43.8273L227.182 43.3182C226.864 43.1909 226.864 42.8091 227.182 42.7455L228.582 42.3C229.345 42.0455 229.918 41.4727 230.173 40.7091L230.682 39.1818C230.809 38.8636 231.191 38.8636 231.255 39.1818L231.7 40.5818C231.955 41.3455 232.527 41.9182 233.291 42.1727L234.691 42.6182C235.136 42.8091 235.136 43.1909 234.818 43.3182ZM231 36C227.118 36 224 39.1182 224 43C224 46.8818 227.118 50 231 50C234.882 50 238 46.8818 238 43C238 39.1182 234.882 36 231 36Z" fill="#929292"/>
<path d="M253.854 41.3281H252.076V45.0195H250.777V36.8984H252.076V40.248H253.854V41.3281ZM242.424 43.3926C243.39 43.1146 244.229 42.7546 244.939 42.3125C245.65 41.8659 246.211 41.3555 246.621 40.7812C247.031 40.2025 247.277 39.5781 247.359 38.9082H243.025V37.8418H248.768C248.768 38.8991 248.537 39.8607 248.077 40.7266C247.621 41.5924 246.961 42.3398 246.095 42.9688C245.233 43.5931 244.197 44.0853 242.984 44.4453L242.424 43.3926ZM243.6 48.0684C244.365 47.9408 245.056 47.7106 245.671 47.3779C246.286 47.0452 246.771 46.6396 247.127 46.1611C247.482 45.6826 247.66 45.1699 247.66 44.623V44.1309H248.945V44.623C248.945 45.1654 249.118 45.6735 249.465 46.1475C249.816 46.6214 250.297 47.0247 250.907 47.3574C251.522 47.6855 252.213 47.9134 252.979 48.041L252.445 49.0801C251.507 48.9023 250.673 48.5856 249.943 48.1299C249.214 47.6742 248.665 47.1136 248.296 46.4482C247.931 47.1182 247.382 47.681 246.648 48.1367C245.915 48.597 245.076 48.916 244.133 49.0938L243.6 48.0684ZM258.297 39.2637C258.297 39.7148 258.39 40.1569 258.577 40.5898C258.769 41.0182 259.049 41.4056 259.418 41.752C259.787 42.0938 260.229 42.3626 260.744 42.5586L260.061 43.5566C259.505 43.3424 259.024 43.0394 258.618 42.6475C258.217 42.2555 257.905 41.7998 257.682 41.2803C257.449 41.8682 257.121 42.3923 256.697 42.8525C256.278 43.3083 255.781 43.6615 255.207 43.9121L254.496 42.9004C255.029 42.668 255.487 42.3558 255.87 41.9639C256.253 41.5674 256.542 41.1344 256.738 40.665C256.939 40.1956 257.039 39.7285 257.039 39.2637V37.6777H258.297V39.2637ZM256.752 46.9199C256.747 46.4596 256.911 46.0632 257.244 45.7305C257.577 45.3932 258.055 45.1357 258.68 44.958C259.304 44.7803 260.042 44.6914 260.895 44.6914C261.742 44.6914 262.478 44.7803 263.103 44.958C263.731 45.1357 264.215 45.3932 264.552 45.7305C264.894 46.0632 265.064 46.4596 265.064 46.9199C265.064 47.3802 264.894 47.7767 264.552 48.1094C264.215 48.4421 263.731 48.695 263.103 48.8682C262.478 49.0459 261.742 49.1348 260.895 49.1348C260.042 49.1348 259.304 49.0459 258.68 48.8682C258.055 48.695 257.577 48.4421 257.244 48.1094C256.911 47.7767 256.747 47.3802 256.752 46.9199ZM258.037 46.9199C258.033 47.1751 258.144 47.3962 258.372 47.583C258.6 47.7653 258.928 47.9043 259.356 48C259.789 48.0957 260.302 48.1413 260.895 48.1367C261.482 48.1413 261.991 48.0957 262.419 48C262.852 47.9043 263.185 47.7653 263.417 47.583C263.649 47.4007 263.766 47.1797 263.766 46.9199C263.766 46.6647 263.652 46.446 263.424 46.2637C263.196 46.0768 262.87 45.9355 262.446 45.8398C262.022 45.7396 261.519 45.6895 260.936 45.6895C260.02 45.6895 259.306 45.7965 258.796 46.0107C258.285 46.2249 258.033 46.528 258.037 46.9199ZM261.127 37.1445H262.33V40.1113H263.766V36.9258H264.996V44.459H263.766V41.1777H262.33V44.0762H261.127V37.1445ZM276.809 45.8262H275.51V36.9258H276.809V45.8262ZM266.896 40.7812C266.896 40.2025 267.04 39.6829 267.327 39.2227C267.614 38.7624 268.006 38.4023 268.503 38.1426C269 37.8783 269.553 37.7461 270.164 37.7461C270.775 37.7461 271.326 37.8783 271.818 38.1426C272.315 38.4023 272.705 38.7624 272.987 39.2227C273.274 39.6829 273.418 40.2025 273.418 40.7812C273.418 41.3691 273.274 41.8955 272.987 42.3604C272.705 42.8206 272.315 43.1807 271.818 43.4404C271.326 43.7002 270.775 43.8301 270.164 43.8301C269.553 43.8301 269 43.7002 268.503 43.4404C268.006 43.1807 267.614 42.8206 267.327 42.3604C267.04 41.8955 266.896 41.3691 266.896 40.7812ZM268.168 40.7812C268.168 41.1595 268.252 41.4945 268.421 41.7861C268.594 42.0732 268.833 42.2965 269.139 42.4561C269.444 42.6156 269.786 42.6953 270.164 42.6953C270.538 42.6953 270.875 42.6156 271.176 42.4561C271.477 42.2965 271.714 42.0732 271.887 41.7861C272.06 41.4945 272.146 41.1595 272.146 40.7812C272.146 40.4121 272.06 40.084 271.887 39.7969C271.714 39.5052 271.477 39.2796 271.176 39.1201C270.875 38.9606 270.538 38.8809 270.164 38.8809C269.786 38.8809 269.444 38.9606 269.139 39.1201C268.833 39.2796 268.594 39.5052 268.421 39.7969C268.252 40.084 268.168 40.4121 268.168 40.7812ZM268.797 44.9238H270.109V47.8496H277.178V48.9023H268.797V44.9238Z" fill="#888888"/>
<path d="M31.3691 1.42578H28.6191V11.2012H31.3691V7.46289H34.0117V5.20703H31.3691V1.42578ZM15.9863 6.43164C15.9756 9.00977 18.2422 10.8574 21.25 10.8574C24.2471 10.8574 26.4922 9.00977 26.4922 6.43164C26.4922 3.82129 24.2471 2.0166 21.25 2.00586C18.2422 2.0166 15.9756 3.82129 15.9863 6.43164ZM18.3926 14.0801H28.6406V15.3262H18.4355V20.7617H31.9277V18.6133H21.1211V17.3027H31.3691V11.9746H18.3926V14.0801ZM18.6719 6.43164C18.6504 5.06738 19.7461 4.24023 21.25 4.24023C22.7432 4.24023 23.8281 5.06738 23.8281 6.43164C23.8281 7.81738 22.7432 8.6875 21.25 8.6875C19.7461 8.6875 18.6504 7.81738 18.6719 6.43164ZM41.9395 7.54883V6.79688H45.9355V4.60547H41.9609V1.85547H39.2109V4.60547H35.1934V6.79688H39.2324V7.54883C39.2109 10.4814 37.6963 13.8115 34.5059 15.2188L36.0098 17.3457C38.2227 16.3682 39.7588 14.3916 40.6074 12.0391C41.4238 14.2197 42.874 16.0566 44.9688 17.002L46.4941 14.9395C43.3789 13.4678 41.9395 10.3311 41.9395 7.54883ZM47.5469 20.9766H50.2969V11.3086H53.1758V9.00977H50.2969V1.42578H47.5469V20.9766ZM70.8359 1.42578H68.2578V20.9766H70.8359V1.42578ZM53.6484 14.9824L55.1953 16.916C57.9775 15.3047 59.793 13.3711 60.9102 11.1367H64.1113V20.1172H66.668V1.85547H64.1113V8.9668H61.7588C62.2314 7.35547 62.4355 5.61523 62.4355 3.74609H54.7227V5.95898H59.7178C59.3418 9.79395 57.6016 12.6406 53.6484 14.9824ZM93.3945 1.42578H90.6445V20.9336H93.3945V11.1797H96.166V8.92383H93.3945V1.42578ZM77.7539 15.4551L79.3008 17.5605C85.875 14.3271 88.1523 9.26758 88.1738 3.42383H78.8711V5.6582H85.3916C84.876 10.0195 82.3838 13.1348 77.7539 15.4551ZM114.814 10.5137H112.29C112.859 7.64551 112.859 5.5293 112.859 3.96094V2.60742H106.221V4.79883H110.142C110.12 6.28125 110.045 8.10742 109.529 10.5137H104.137C104.867 7.52734 104.867 5.36816 104.867 3.81055V2.60742H98.4004V4.79883H102.149C102.128 6.25977 101.999 8.08594 101.344 10.5137H96.9824V12.748H104.416V20.9766H107.188V12.748H114.814V10.5137ZM121.389 2.80078C118.424 2.80078 116.297 5.49707 116.318 9.76172C116.297 14.0586 118.424 16.7441 121.389 16.7441C124.117 16.7441 126.137 14.4453 126.427 10.6855H129.789V21.0195H132.496V1.42578H129.789V8.49414H126.395C126.008 4.9707 124.031 2.80078 121.389 2.80078ZM118.939 9.76172C118.929 6.86133 119.928 5.27148 121.389 5.27148C122.86 5.27148 123.838 6.86133 123.838 9.76172C123.838 12.6729 122.86 14.2627 121.389 14.252C119.928 14.2627 118.929 12.6729 118.939 9.76172ZM158.277 8.83789H155.506V1.42578H152.756V20.9336H155.506V11.0723H158.277V8.83789ZM140.703 16.1641H142.4C145.279 16.1641 148.448 15.9922 151.725 15.3262L151.445 13.0488C148.62 13.6182 145.935 13.8545 143.432 13.8975V3.29492H140.703V16.1641ZM174.52 1.42578H171.77V20.9336H174.52V11.1797H177.291V8.92383H174.52V1.42578ZM158.879 15.4551L160.426 17.5605C167 14.3271 169.277 9.26758 169.299 3.42383H159.996V5.6582H166.517C166.001 10.0195 163.509 13.1348 158.879 15.4551ZM193.984 6.75391H183.049V2.11328H180.32V8.90234H193.984V6.75391ZM178.086 13.1562H195.982V11.0078H178.086V13.1562ZM180.148 20.5469H194.113V18.3555H182.898V14.7461H180.148V20.5469ZM220.389 8.83789H217.617V1.42578H214.867V20.9336H217.617V11.0723H220.389V8.83789ZM202.814 16.1641H204.512C207.391 16.1641 210.56 15.9922 213.836 15.3262L213.557 13.0488C210.731 13.6182 208.046 13.8545 205.543 13.8975V3.29492H202.814V16.1641ZM227.543 2.73633C224.46 2.72559 222.097 4.72363 222.107 7.52734C222.097 10.3418 224.46 12.3291 227.543 12.3398C230.647 12.3291 232.946 10.3418 232.957 7.52734C232.946 4.72363 230.647 2.72559 227.543 2.73633ZM221.291 14.7891L221.613 17.0234C225.029 17.0234 229.67 16.9912 234.01 16.1426L233.795 14.166C229.616 14.7568 224.782 14.7998 221.291 14.7891ZM224.836 7.52734C224.825 6.00195 225.996 5.09961 227.543 5.09961C229.101 5.09961 230.282 6.00195 230.293 7.52734C230.282 9.07422 229.101 9.96582 227.543 9.95508C225.996 9.96582 224.825 9.07422 224.836 7.52734ZM234.912 21.0195H237.641V1.42578H234.912V21.0195ZM252.465 3.42383V2.17773H249.715V3.48828C249.693 6.07715 248.265 8.58008 244.967 9.58984L246.363 11.7812C248.694 11.0293 250.273 9.49316 251.133 7.52734C251.981 9.22461 253.432 10.5459 255.537 11.2227L256.998 9.0957C253.808 8.13965 252.443 5.91602 252.465 3.42383ZM246.814 14.5957H250.617V15.6484H246.836V20.8691H248.018C250.671 20.8799 252.078 20.8584 253.797 20.5039L253.561 18.4629C252.25 18.7207 251.154 18.7959 249.521 18.8066V17.5605H253.26V12.5977H246.814V14.5957ZM254.291 20.8691H260.801V12.5977H254.291V20.8691ZM256.654 18.8926V14.5957H258.438V18.8926H256.654ZM258.051 11.8027H260.801V7.52734H263.443V5.31445H260.801V1.42578H258.051V11.8027Z" fill="#222222"/>
</svg>
