<svg width="375" height="227" viewBox="0 0 375 227" fill="none" xmlns="http://www.w3.org/2000/svg">
<g clip-path="url(#clip0_1723_3535)">
<mask id="path-1-inside-1_1723_3535" fill="white">
<path d="M268.508 92.598C270.017 92.6354 272.947 91.7329 277.682 96.4868C280.654 99.7844 281.476 104.406 281.869 110.915C266.662 120.969 251.651 134.889 236.444 144.942C235.203 145.656 233.15 146.59 230.576 146.603C230.576 146.603 224.723 146.631 219.72 140.65C214.109 133.943 217.308 118.482 227.983 102.73C240.465 98.9438 256.026 96.384 268.508 92.598Z"/>
</mask>
<path d="M268.508 92.598C270.017 92.6354 272.947 91.7329 277.682 96.4868C280.654 99.7844 281.476 104.406 281.869 110.915C266.662 120.969 251.651 134.889 236.444 144.942C235.203 145.656 233.15 146.59 230.576 146.603C230.576 146.603 224.723 146.631 219.72 140.65C214.109 133.943 217.308 118.482 227.983 102.73C240.465 98.9438 256.026 96.384 268.508 92.598Z" fill="#F2D9C9"/>
<path d="M268.508 92.598L268.533 91.5983L268.372 91.5943L268.218 91.6411L268.508 92.598ZM277.682 96.4868L278.425 95.8173L278.408 95.7987L278.39 95.7811L277.682 96.4868ZM281.869 110.915L282.421 111.749L282.902 111.431L282.867 110.855L281.869 110.915ZM236.444 144.942L236.942 145.809L236.969 145.793L236.995 145.776L236.444 144.942ZM230.576 146.603L230.581 147.603L230.581 147.603L230.576 146.603ZM219.72 140.65L220.487 140.008L220.487 140.008L219.72 140.65ZM227.983 102.73L227.693 101.773L227.354 101.876L227.155 102.169L227.983 102.73ZM268.483 93.5977C269.48 93.6224 270.267 93.4044 271.646 93.7446C272.943 94.0645 274.704 94.9138 276.973 97.1925L278.39 95.7811C275.925 93.3059 273.854 92.2295 272.125 91.8028C270.478 91.3964 269.045 91.611 268.533 91.5983L268.483 93.5977ZM276.939 97.1563C279.655 100.169 280.477 104.457 280.871 110.976L282.867 110.855C282.474 104.356 281.654 99.4002 278.425 95.8173L276.939 97.1563ZM281.318 110.081C273.672 115.136 266.082 121.157 258.535 127.145C250.973 133.144 243.453 139.109 235.892 144.108L236.995 145.776C244.641 140.721 252.23 134.7 259.778 128.712C267.34 122.713 274.86 116.748 282.421 111.749L281.318 110.081ZM235.945 144.075C234.784 144.743 232.906 145.592 230.571 145.603L230.581 147.603C233.394 147.589 235.621 146.568 236.942 145.809L235.945 144.075ZM230.576 146.603C230.571 145.603 230.572 145.603 230.572 145.603C230.572 145.603 230.573 145.603 230.573 145.603C230.574 145.603 230.574 145.603 230.574 145.603C230.575 145.603 230.575 145.603 230.575 145.603C230.575 145.603 230.574 145.603 230.571 145.603C230.565 145.603 230.554 145.603 230.538 145.603C230.505 145.602 230.452 145.6 230.379 145.595C230.234 145.586 230.012 145.566 229.727 145.524C229.156 145.442 228.333 145.272 227.359 144.927C225.415 144.238 222.859 142.844 220.487 140.008L218.953 141.292C221.584 144.437 224.456 146.02 226.69 146.812C227.804 147.207 228.757 147.405 229.44 147.504C229.781 147.553 230.056 147.578 230.25 147.591C230.348 147.597 230.425 147.6 230.48 147.602C230.508 147.603 230.531 147.603 230.547 147.603C230.556 147.603 230.563 147.603 230.568 147.603C230.571 147.603 230.574 147.603 230.576 147.603C230.577 147.603 230.578 147.603 230.578 147.603C230.579 147.603 230.579 147.603 230.58 147.603C230.58 147.603 230.581 147.603 230.576 146.603ZM220.487 140.008C217.98 137.011 217.312 131.86 218.722 125.292C220.122 118.773 223.527 111.088 228.811 103.291L227.155 102.169C221.764 110.124 218.233 118.045 216.767 124.872C215.311 131.649 215.849 137.581 218.953 141.292L220.487 140.008ZM228.274 103.687C234.473 101.806 241.447 100.228 248.466 98.6393C255.469 97.0547 262.516 95.4604 268.798 93.5549L268.218 91.6411C262.018 93.5216 255.044 95.1002 248.025 96.6886C241.023 98.2732 233.975 99.8675 227.693 101.773L228.274 103.687Z" fill="black" mask="url(#path-1-inside-1_1723_3535)"/>
<path d="M268.508 92.598L268.533 91.5983L268.372 91.5943L268.218 91.6411L268.508 92.598ZM277.682 96.4868L278.425 95.8173L278.408 95.7987L278.39 95.7811L277.682 96.4868ZM281.869 110.915L282.421 111.749L282.902 111.431L282.867 110.855L281.869 110.915ZM236.444 144.942L236.942 145.809L236.969 145.793L236.995 145.776L236.444 144.942ZM230.576 146.603L230.581 147.603L230.581 147.603L230.576 146.603ZM219.72 140.65L220.487 140.008L220.487 140.008L219.72 140.65ZM227.983 102.73L227.693 101.773L227.354 101.876L227.155 102.169L227.983 102.73ZM268.483 93.5977C269.48 93.6224 270.267 93.4044 271.646 93.7446C272.943 94.0645 274.704 94.9138 276.973 97.1925L278.39 95.7811C275.925 93.3059 273.854 92.2295 272.125 91.8028C270.478 91.3964 269.045 91.611 268.533 91.5983L268.483 93.5977ZM276.939 97.1563C279.655 100.169 280.477 104.457 280.871 110.976L282.867 110.855C282.474 104.356 281.654 99.4002 278.425 95.8173L276.939 97.1563ZM281.318 110.081C273.672 115.136 266.082 121.157 258.535 127.145C250.973 133.144 243.453 139.109 235.892 144.108L236.995 145.776C244.641 140.721 252.23 134.7 259.778 128.712C267.34 122.713 274.86 116.748 282.421 111.749L281.318 110.081ZM235.945 144.075C234.784 144.743 232.906 145.592 230.571 145.603L230.581 147.603C233.394 147.589 235.621 146.568 236.942 145.809L235.945 144.075ZM230.576 146.603C230.571 145.603 230.572 145.603 230.572 145.603C230.572 145.603 230.573 145.603 230.573 145.603C230.574 145.603 230.574 145.603 230.574 145.603C230.575 145.603 230.575 145.603 230.575 145.603C230.575 145.603 230.574 145.603 230.571 145.603C230.565 145.603 230.554 145.603 230.538 145.603C230.505 145.602 230.452 145.6 230.379 145.595C230.234 145.586 230.012 145.566 229.727 145.524C229.156 145.442 228.333 145.272 227.359 144.927C225.415 144.238 222.859 142.844 220.487 140.008L218.953 141.292C221.584 144.437 224.456 146.02 226.69 146.812C227.804 147.207 228.757 147.405 229.44 147.504C229.781 147.553 230.056 147.578 230.25 147.591C230.348 147.597 230.425 147.6 230.48 147.602C230.508 147.603 230.531 147.603 230.547 147.603C230.556 147.603 230.563 147.603 230.568 147.603C230.571 147.603 230.574 147.603 230.576 147.603C230.577 147.603 230.578 147.603 230.578 147.603C230.579 147.603 230.579 147.603 230.58 147.603C230.58 147.603 230.581 147.603 230.576 146.603ZM220.487 140.008C217.98 137.011 217.312 131.86 218.722 125.292C220.122 118.773 223.527 111.088 228.811 103.291L227.155 102.169C221.764 110.124 218.233 118.045 216.767 124.872C215.311 131.649 215.849 137.581 218.953 141.292L220.487 140.008ZM228.274 103.687C234.473 101.806 241.447 100.228 248.466 98.6393C255.469 97.0547 262.516 95.4604 268.798 93.5549L268.218 91.6411C262.018 93.5216 255.044 95.1002 248.025 96.6886C241.023 98.2732 233.975 99.8675 227.693 101.773L228.274 103.687Z" fill="black" fill-opacity="0.2" mask="url(#path-1-inside-1_1723_3535)"/>
<path d="M206.445 107.009L208.83 104.745C210.943 102.74 211.029 99.4021 209.023 97.2904L197.18 84.8237C195.173 82.7119 191.835 82.6257 189.722 84.6311L187.337 86.8953C185.224 88.9007 185.138 92.2382 187.144 94.35L198.987 106.817C200.994 108.928 204.332 109.015 206.445 107.009Z" fill="#F2D9C9" stroke="black" stroke-miterlimit="10"/>
<path d="M236.046 107.846L231.531 103.244C229.38 101.05 226.687 99.6363 223.837 99.0114C220.988 98.3864 217.983 98.5511 215.208 99.5143C215.515 98.4849 215.546 97.3908 215.297 96.3468C215.048 95.3027 214.518 94.3086 213.705 93.4793C212.487 92.2367 210.854 91.5897 209.206 91.5485C207.558 91.5073 205.893 92.0705 204.609 93.2499L193.303 103.642L181.997 114.034C180.713 115.214 180.046 116.794 180.002 118.39C179.958 119.985 180.542 121.597 181.76 122.84C182.978 124.082 184.611 124.728 186.259 124.77C187.907 124.813 189.572 124.248 190.856 123.069L192.246 121.791L193.636 120.513C192.937 122.947 192.884 125.526 193.487 127.985C194.09 130.444 195.345 132.783 197.263 134.739L201.778 139.342L206.292 143.945C209.194 146.903 213.083 148.443 217.009 148.541C220.936 148.64 224.901 147.296 227.957 144.487L233.979 138.952L240 133.417" fill="#F2D9C9"/>
<path d="M236.046 107.846L231.531 103.244C229.38 101.05 226.687 99.6363 223.837 99.0114C220.988 98.3864 217.983 98.5511 215.208 99.5143C215.515 98.4849 215.546 97.3908 215.297 96.3468C215.048 95.3027 214.518 94.3086 213.705 93.4793C212.487 92.2367 210.854 91.5897 209.206 91.5485C207.558 91.5073 205.893 92.0705 204.609 93.2499L193.303 103.642L181.997 114.034C180.713 115.214 180.046 116.794 180.002 118.39C179.958 119.985 180.542 121.597 181.76 122.84C182.978 124.082 184.611 124.728 186.259 124.77C187.907 124.813 189.572 124.248 190.856 123.069L192.246 121.791L193.636 120.513C192.937 122.947 192.884 125.526 193.487 127.985C194.09 130.444 195.345 132.783 197.263 134.739L201.778 139.342L206.292 143.945C209.194 146.903 213.083 148.443 217.009 148.541C220.936 148.64 224.901 147.296 227.957 144.487L233.979 138.952L240 133.417" stroke="black" stroke-miterlimit="10"/>
<path d="M215 110.584C212.419 107.964 208.083 107.856 205.366 110.344L189.114 125.22C186.396 127.708 186.284 131.888 188.864 134.508C191.445 137.128 195.781 137.237 198.499 134.749L212.76 122.546" fill="#F2D9C9"/>
<path d="M215 110.584C212.419 107.964 208.083 107.856 205.366 110.344L189.114 125.22C186.396 127.708 186.284 131.888 188.864 134.508C191.445 137.128 195.781 137.237 198.499 134.749L212.76 122.546" stroke="black" stroke-miterlimit="10"/>
<path d="M213.207 120.546L197.98 135.875C195.434 138.439 195.329 142.747 197.747 145.446C200.165 148.146 204.227 148.258 206.773 145.694L222 130.365" fill="#F2D9C9"/>
<path d="M213.207 120.546L197.98 135.875C195.434 138.439 195.329 142.747 197.747 145.446C200.165 148.146 204.227 148.258 206.773 145.694L222 130.365" stroke="black" stroke-miterlimit="10"/>
<path d="M139.5 205C188.377 205 228 165.377 228 116.5C228 67.6228 188.377 28 139.5 28C90.6228 28 51 67.6228 51 116.5C51 165.377 90.6228 205 139.5 205Z" fill="#FFD601" stroke="black" stroke-miterlimit="10"/>
<path d="M139.5 200C185.616 200 223 162.616 223 116.5C223 70.3842 185.616 33 139.5 33C93.3842 33 56 70.3842 56 116.5C56 162.616 93.3842 200 139.5 200Z" fill="#FFF494" stroke="black" stroke-miterlimit="10"/>
<path d="M361.5 222.5H9.02483L361.5 163.591V222.5Z" fill="#FFF8D9" stroke="black" stroke-miterlimit="10"/>
<path d="M149.997 61.3956C146.444 61.3956 143.559 58.5398 143.503 55C143.503 55 143.502 55 143.5 55C143.498 55 143.498 55 143.497 55C143.441 58.5413 140.556 61.3956 137.003 61.3956C137.003 61.4299 137 61.4657 137 61.5C137 61.5343 137.002 61.5701 137.003 61.6044C140.556 61.6044 143.441 64.4602 143.497 68C143.497 68 143.498 68 143.5 68C143.502 68 143.502 68 143.503 68C143.559 64.4587 146.444 61.6044 149.997 61.6044C149.997 61.5701 150 61.5343 150 61.5C150 61.4657 149.998 61.4299 149.997 61.3956Z" fill="#FFDF46" stroke="black" stroke-miterlimit="10"/>
<path d="M88.0018 17.7672C84.4488 17.7672 81.5641 14.9114 81.508 11.3716C81.508 11.3716 81.5064 11.3716 81.5049 11.3716C81.5033 11.3716 81.5033 11.3716 81.5018 11.3716C81.4457 14.9129 78.561 17.7672 75.008 17.7672C75.008 17.8015 75.0049 17.8373 75.0049 17.8716C75.0049 17.9059 75.0064 17.9417 75.008 17.976C78.561 17.976 81.4457 20.8318 81.5018 24.3716C81.5018 24.3716 81.5033 24.3716 81.5049 24.3716C81.5064 24.3716 81.5064 24.3716 81.508 24.3716C81.5641 20.8302 84.4488 17.976 88.0018 17.976C88.0018 17.9417 88.0049 17.9059 88.0049 17.8716C88.0049 17.8373 88.0033 17.8015 88.0018 17.7672Z" fill="#FFDF46" stroke="black" stroke-miterlimit="10"/>
<path d="M192.997 13.3956C189.444 13.3956 186.559 10.5398 186.503 7C186.503 7 186.502 7 186.5 7C186.498 7 186.498 7 186.497 7C186.441 10.5413 183.556 13.3956 180.003 13.3956C180.003 13.4299 180 13.4657 180 13.5C180 13.5343 180.002 13.5701 180.003 13.6044C183.556 13.6044 186.441 16.4602 186.497 20C186.497 20 186.498 20 186.5 20C186.502 20 186.502 20 186.503 20C186.559 16.4587 189.444 13.6044 192.997 13.6044C192.997 13.5701 193 13.5343 193 13.5C193 13.4657 192.998 13.4299 192.997 13.3956Z" fill="#FFDF46" stroke="black" stroke-miterlimit="10"/>
<path d="M38.9969 147.396C35.4439 147.396 32.5592 144.54 32.5031 141C32.5031 141 32.5016 141 32.5 141C32.4984 141 32.4984 141 32.4969 141C32.4408 144.541 29.5561 147.396 26.0031 147.396C26.0031 147.43 26 147.466 26 147.5C26 147.534 26.0016 147.57 26.0031 147.604C29.5561 147.604 32.4408 150.46 32.4969 154C32.4969 154 32.4984 154 32.5 154C32.5016 154 32.5016 154 32.5031 154C32.5592 150.459 35.4439 147.604 38.9969 147.604C38.9969 147.57 39 147.534 39 147.5C39 147.466 38.9984 147.43 38.9969 147.396Z" fill="#FFDF46" stroke="black" stroke-miterlimit="10"/>
<path d="M334.604 80.9969C334.604 77.4439 337.46 74.5592 341 74.5031C341 74.5031 341 74.5016 341 74.5C341 74.4984 341 74.4984 341 74.4969C337.459 74.4408 334.604 71.5561 334.604 68.0031C334.57 68.0031 334.534 68 334.5 68C334.466 68 334.43 68.0016 334.396 68.0031C334.396 71.5561 331.54 74.4408 328 74.4969C328 74.4969 328 74.4984 328 74.5C328 74.5016 328 74.5016 328 74.5031C331.541 74.5592 334.396 77.4439 334.396 80.9969C334.43 80.9969 334.466 81 334.5 81C334.534 81 334.57 80.9984 334.604 80.9969Z" fill="#FFDF46" stroke="black" stroke-miterlimit="10"/>
<path d="M267.131 13.14C267.131 9.58699 269.987 6.70226 273.526 6.64618C273.526 6.64618 273.526 6.64462 273.526 6.64307C273.526 6.64151 273.526 6.64151 273.526 6.63995C269.985 6.58388 267.131 3.69914 267.131 0.146182C267.096 0.146182 267.061 0.143066 267.026 0.143066C266.992 0.143066 266.956 0.144624 266.922 0.146182C266.922 3.69914 264.066 6.58388 260.526 6.63995C260.526 6.63995 260.526 6.64151 260.526 6.64307C260.526 6.64462 260.526 6.64462 260.526 6.64618C264.068 6.70226 266.922 9.58699 266.922 13.14C266.956 13.14 266.992 13.1431 267.026 13.1431C267.061 13.1431 267.096 13.1415 267.131 13.14Z" fill="#FFDF46" stroke="black" stroke-miterlimit="10"/>
<path d="M335.604 37.9969C335.604 34.4439 338.46 31.5592 342 31.5031C342 31.5031 342 31.5016 342 31.5C342 31.4984 342 31.4984 342 31.4969C338.459 31.4408 335.604 28.5561 335.604 25.0031C335.57 25.0031 335.534 25 335.5 25C335.466 25 335.43 25.0016 335.396 25.0031C335.396 28.5561 332.54 31.4408 329 31.4969C329 31.4969 329 31.4984 329 31.5C329 31.5016 329 31.5016 329 31.5031C332.541 31.5592 335.396 34.4439 335.396 37.9969C335.43 37.9969 335.466 38 335.5 38C335.534 38 335.57 37.9984 335.604 37.9969Z" fill="#FFDF46" stroke="black" stroke-miterlimit="10"/>
<path d="M32.6044 65.9969C32.6044 62.4439 35.4602 59.5592 39 59.5031C39 59.5031 39 59.5016 39 59.5C39 59.4984 39 59.4984 39 59.4969C35.4587 59.4408 32.6044 56.5561 32.6044 53.0031C32.5701 53.0031 32.5343 53 32.5 53C32.4657 53 32.4299 53.0016 32.3956 53.0031C32.3956 56.5561 29.5398 59.4408 26 59.4969C26 59.4969 26 59.4984 26 59.5C26 59.5016 26 59.5016 26 59.5031C29.5413 59.5592 32.3956 62.4439 32.3956 65.9969C32.4299 65.9969 32.4657 66 32.5 66C32.5343 66 32.5701 65.9984 32.6044 65.9969Z" fill="#FFDF46" stroke="black" stroke-miterlimit="10"/>
<path d="M340.604 140.997C340.604 137.444 343.46 134.559 347 134.503C347 134.503 347 134.502 347 134.5C347 134.498 347 134.498 347 134.497C343.459 134.441 340.604 131.556 340.604 128.003C340.57 128.003 340.534 128 340.5 128C340.466 128 340.43 128.002 340.396 128.003C340.396 131.556 337.54 134.441 334 134.497C334 134.497 334 134.498 334 134.5C334 134.502 334 134.502 334 134.503C337.541 134.559 340.396 137.444 340.396 140.997C340.43 140.997 340.466 141 340.5 141C340.534 141 340.57 140.998 340.604 140.997Z" fill="#FFDF46" stroke="black" stroke-miterlimit="10"/>
<path d="M83.9892 163.298C83.9892 159.745 86.845 156.86 90.3848 156.804V156.801V156.798C86.8434 156.742 83.9892 153.857 83.9892 150.304C83.9549 150.304 83.919 150.301 83.8848 150.301C83.8505 150.301 83.8147 150.302 83.7804 150.304C83.7804 153.857 80.9246 156.742 77.3848 156.798V156.801V156.804C80.9261 156.86 83.7804 159.745 83.7804 163.298C83.8147 163.298 83.8505 163.301 83.8848 163.301C83.919 163.301 83.9549 163.299 83.9892 163.298Z" fill="#FFD300" stroke="black" stroke-miterlimit="10"/>
<path d="M67.6024 202.221C67.6024 198.668 70.4583 195.783 73.998 195.727C73.998 195.727 73.998 195.725 73.998 195.724C73.998 195.724 73.998 195.722 73.998 195.721C70.4567 195.664 67.6024 192.78 67.6024 189.227C67.5682 189.227 67.5323 189.224 67.498 189.224C67.4638 189.224 67.4279 189.225 67.3937 189.227C67.3937 192.78 64.5378 195.664 60.998 195.721C60.998 195.721 60.998 195.722 60.998 195.724C60.998 195.725 60.998 195.725 60.998 195.727C64.5394 195.783 67.3937 198.668 67.3937 202.221C67.4279 202.221 67.4638 202.224 67.498 202.224C67.5323 202.224 67.5682 202.222 67.6024 202.221Z" fill="#FFD300" stroke="black" stroke-miterlimit="10"/>
<path d="M254.104 10.6332C254.104 10.6332 261.647 11.3264 265.549 17.6665C268.461 22.3982 275.35 13.6781 280.668 15.228C286.309 16.8719 285.057 26.9329 288.959 27.4206C305.541 21.0805 305.053 27.4206 305.053 27.4206L292.423 42.7779L255.872 29.975L254.104 10.6332Z" fill="#FFDD46"/>
<line x1="254.288" y1="10.6666" x2="256.777" y2="35.2124" stroke="black"/>
<path d="M307.085 25.4797L290.422 44.4902" stroke="black"/>
<line x1="279.674" y1="18.3265" x2="272.439" y2="38.0452" stroke="black"/>
<line x1="265.916" y1="18.5286" x2="265.089" y2="35.7858" stroke="black"/>
<line x1="288.187" y1="28.4672" x2="280.865" y2="39.2876" stroke="black"/>
<path d="M255.301 31.5471C252.269 33.2658 249 37.8869 249 37.8869L249.485 43.2514L277.595 73C277.595 73 283.694 66.8924 286.319 64.2217C289.833 60.6469 290.98 57.5 291.65 52.5174C292.574 45.6475 291.899 40.1143 286.803 35.4485C284.424 33.2695 281.576 30.736 278.564 29.5963C273.553 27.7002 273.251 27.9289 267.902 28.1333C263.673 28.2949 258.988 29.4566 255.301 31.5471Z" fill="#FFD601" stroke="black"/>
<path d="M269.173 101.286C264.988 95.311 262.164 89.5381 265.41 83.0088C268.73 76.3309 275.341 74.7045 282.813 75.0416C287.049 75.2328 289.352 76.4642 293.161 78.3222C299.138 81.2385 302.282 83.8377 306.331 89.1014C312.946 97.7014 311.504 111.128 312.915 113.472C313.728 114.822 314.326 115.815 315.267 117.221C316.043 118.381 316.208 118.627 315.738 120.033C315.447 120.901 313.386 121.439 313.386 121.439L307.742 128L282.813 110.66C282.813 110.66 272.876 106.574 269.173 101.286Z" fill="#FFD601" stroke="black"/>
<path d="M283.379 196.84C274.158 178.763 253.968 181.141 246.685 188.516C237.704 197.609 237.606 213.203 247.4 223L313 223L310.158 190.343C299.381 190.343 291.274 191.486 283.381 196.84H283.379Z" fill="#FFE600" stroke="black" stroke-miterlimit="10"/>
<path d="M313 194L299.823 118H281L281 193.86C281 193.86 298.422 194 313 194Z" fill="#FFF494" stroke="black" stroke-miterlimit="10"/>
<path d="M161.5 115.499L161.5 115.501C161.52 125.315 163.981 133.068 168.483 138.376C172.994 143.694 179.507 146.5 187.5 146.5C195.491 146.5 202.015 143.716 206.532 138.407C211.04 133.109 213.5 125.355 213.5 115.5C213.5 105.706 211.039 97.9528 206.532 92.6397C202.016 87.3162 195.493 84.5 187.5 84.5C179.508 84.5 172.995 87.295 168.483 92.6088C163.981 97.9118 161.52 105.665 161.5 115.499ZM178.397 115.502C178.437 109.372 179.421 104.993 181.044 102.159C182.651 99.3541 184.876 98.0646 187.5 98.0444C190.125 98.0646 192.36 99.3548 193.971 102.159C195.599 104.993 196.583 109.372 196.603 115.502C196.623 121.754 195.638 126.13 194.003 128.93C192.387 131.698 190.134 132.935 187.5 132.956C184.866 132.935 182.613 131.698 180.997 128.93C179.362 126.13 178.377 121.755 178.397 115.502Z" fill="#E1B000" stroke="black"/>
<path d="M105.5 115.499L105.5 115.501C105.52 125.315 107.981 133.068 112.483 138.376C116.994 143.694 123.507 146.5 131.5 146.5C139.491 146.5 146.015 143.716 150.532 138.407C155.04 133.109 157.5 125.355 157.5 115.5C157.5 105.706 155.039 97.9528 150.532 92.6397C146.016 87.3162 139.493 84.5 131.5 84.5C123.508 84.5 116.995 87.295 112.483 92.6088C107.981 97.9118 105.52 105.665 105.5 115.499ZM122.397 115.502C122.437 109.372 123.421 104.993 125.044 102.159C126.651 99.3541 128.876 98.0646 131.5 98.0444C134.125 98.0646 136.36 99.3548 137.971 102.159C139.599 104.993 140.583 109.372 140.603 115.502C140.623 121.754 139.638 126.13 138.003 128.93C136.387 131.698 134.134 132.935 131.5 132.956C128.866 132.935 126.613 131.698 124.997 128.93C123.362 126.13 122.377 121.755 122.397 115.502Z" fill="#E1B000" stroke="black"/>
<path d="M175.391 116.001V116C175.391 109.272 176.567 104.136 178.667 100.694C180.751 97.2793 183.747 95.5187 187.5 95.5C191.232 95.5187 194.229 97.2788 196.318 100.694C198.423 104.136 199.609 109.273 199.609 116C199.609 122.747 198.433 127.854 196.334 131.257C194.253 134.632 191.257 136.349 187.5 136.349C183.722 136.349 180.716 134.631 178.636 131.257C176.537 127.855 175.371 122.748 175.391 116.001ZM209.5 116.001L209.5 115.999C209.48 107.069 207.444 99.9476 203.662 95.0473C199.867 90.1301 194.35 87.5 187.5 87.5C180.63 87.5 175.103 90.1297 171.308 95.0473C167.525 99.948 165.5 107.07 165.5 116C165.5 124.985 167.504 132.107 171.277 136.995C175.064 141.9 180.592 144.5 187.5 144.5C194.408 144.5 199.926 141.9 203.708 136.995C207.476 132.107 209.48 124.985 209.5 116.001Z" fill="#FFD601" stroke="black"/>
<path d="M119.391 116.001V116C119.391 109.272 120.567 104.136 122.667 100.694C124.751 97.2793 127.747 95.5187 131.5 95.5C135.232 95.5187 138.229 97.2788 140.318 100.694C142.423 104.136 143.609 109.273 143.609 116C143.609 122.747 142.433 127.854 140.334 131.257C138.253 134.632 135.257 136.349 131.5 136.349C127.722 136.349 124.716 134.631 122.636 131.257C120.537 127.855 119.371 122.748 119.391 116.001ZM153.5 116.001L153.5 115.999C153.48 107.069 151.444 99.9476 147.662 95.0473C143.867 90.1301 138.35 87.5 131.5 87.5C124.63 87.5 119.103 90.1297 115.308 95.0473C111.525 99.948 109.5 107.07 109.5 116C109.5 124.985 111.504 132.107 115.277 136.995C119.064 141.9 124.592 144.5 131.5 144.5C138.408 144.5 143.926 141.9 147.708 136.995C151.476 132.107 153.48 124.985 153.5 116.001Z" fill="#FFD601" stroke="black"/>
<path d="M98.5 86V85.5H98H85.3879H85.2398L85.1156 85.5807L67.7277 96.8712L67.5 97.019V97.2905V110.767V111.632L68.2492 111.201L83.4972 102.435V147V147.5H83.9972H98H98.5V147V86Z" fill="#E1B000" stroke="black"/>
<path d="M95.5 88V87.5H95H86.8143H86.6674L86.5439 87.5794L70.7297 97.7435L70.5 97.8911V98.1641V106.286V107.148L71.2482 106.72L86.0869 98.2339V144V144.5H86.5869H95H95.5V144V88Z" fill="#FFD601" stroke="black"/>
<path d="M297.785 197.494C288.69 179.869 268.776 182.188 261.593 189.378C252.736 198.244 252.638 213.448 262.299 223L327 223L324.197 191.159C313.568 191.159 305.572 192.274 297.787 197.494H297.785Z" fill="#FFE600" stroke="black" stroke-miterlimit="10"/>
<path d="M327 198L313.823 121H295L295 197.858C295 197.858 312.422 198 327 198Z" fill="#FFF494" stroke="black" stroke-miterlimit="10"/>
<path d="M279.518 47.5712C279.248 47.592 278.984 47.6253 278.722 47.6701C279.356 49.1481 279.759 50.7509 279.888 52.439L280.442 59.72C280.571 61.4067 280.414 63.0522 280.011 64.61C280.276 64.6147 280.543 64.6086 280.813 64.5878C285.513 64.2313 289.033 60.1337 288.675 55.4348C288.316 50.7359 284.217 47.2162 279.517 47.5741L279.518 47.5712Z" fill="#F2D9C9" stroke="black" stroke-miterlimit="10"/>
<path d="M276.143 70.8001L263.616 76.2449L266.375 82.5882L278.902 77.1435L276.143 70.8001Z" fill="#F2D9C9" stroke="black" stroke-miterlimit="10"/>
<rect x="137.599" y="123.7" width="152.963" height="25.2863" transform="rotate(27.4118 137.599 123.7)" fill="#FFD601" stroke="black"/>
<path d="M285.019 58.0637C282.479 58.2567 280.014 59.4116 278.234 61.4837C276.454 63.5559 275.684 66.1668 275.878 68.7062" stroke="black" stroke-miterlimit="10"/>
<path d="M263.724 38.5014L263.601 38.5107C255.308 39.1404 249.097 46.3715 249.728 54.6619L250.292 62.0643C250.923 70.3546 258.158 76.5648 266.451 75.9351L266.574 75.9258C274.867 75.296 281.078 68.0649 280.447 59.7746L279.883 52.3722C279.252 44.0818 272.017 37.8717 263.724 38.5014Z" fill="#F2D9C9" stroke="black" stroke-miterlimit="10"/>
<path d="M252.387 59.1169C253.092 59.2917 253.806 58.8618 253.981 58.1565C254.155 57.4513 253.725 56.7378 253.02 56.563C252.314 56.3881 251.6 56.818 251.426 57.5233C251.251 58.2285 251.681 58.942 252.387 59.1169Z" fill="black"/>
<path d="M262.129 58.2235C262.834 58.3984 263.548 57.9685 263.723 57.2632C263.898 56.558 263.467 55.8445 262.762 55.6697C262.056 55.4948 261.343 55.9247 261.168 56.63C260.993 57.3352 261.423 58.0487 262.129 58.2235Z" fill="black"/>
<path d="M254.864 62.7206L254.158 62.7743C253.487 62.8258 252.898 62.3193 252.846 61.6484C252.794 60.9775 253.301 60.3886 253.972 60.3371L254.678 60.2834" fill="#F2D9C9"/>
<path d="M254.864 62.7206L254.158 62.7743C253.487 62.8258 252.898 62.3193 252.846 61.6484C252.794 60.9775 253.301 60.3886 253.972 60.3371L254.678 60.2834" stroke="black" stroke-miterlimit="10"/>
<path d="M264.755 64.4608C264.281 64.8856 263.767 65.2658 263.22 65.594C262.673 65.9223 262.091 66.1997 261.485 66.4192C260.879 66.6388 260.247 66.8001 259.595 66.8987C258.944 66.9973 258.272 67.03 257.59 66.9926C256.908 66.9551 256.245 66.8487 255.608 66.6813C254.971 66.514 254.36 66.2842 253.78 65.9995" fill="#F2D9C9"/>
<path d="M264.755 64.4608C264.281 64.8856 263.767 65.2658 263.22 65.594C262.673 65.9223 262.091 66.1997 261.485 66.4192C260.879 66.6388 260.247 66.8001 259.595 66.8987C258.944 66.9973 258.272 67.03 257.59 66.9926C256.908 66.9551 256.245 66.8487 255.608 66.6813C254.971 66.514 254.36 66.2842 253.78 65.9995" stroke="black" stroke-miterlimit="10"/>
<path d="M266.452 65.1414C266.274 65.1317 266.097 65.1052 265.923 65.062C265.749 65.0188 265.58 64.9582 265.416 64.8814C265.251 64.8047 265.096 64.7113 264.947 64.6024C264.799 64.4935 264.659 64.3665 264.531 64.2251C264.404 64.0822 264.294 63.9311 264.2 63.7716C264.106 63.6121 264.032 63.4462 263.974 63.2751" fill="#F2D9C9"/>
<path d="M266.452 65.1414C266.274 65.1317 266.097 65.1052 265.923 65.062C265.749 65.0188 265.58 64.9582 265.416 64.8814C265.251 64.8047 265.096 64.7113 264.947 64.6024C264.799 64.4935 264.659 64.3665 264.531 64.2251C264.404 64.0822 264.294 63.9311 264.2 63.7716C264.106 63.6121 264.032 63.4462 263.974 63.2751" stroke="black" stroke-miterlimit="10"/>
<mask id="path-55-inside-2_1723_3535" fill="white">
<path fill-rule="evenodd" clip-rule="evenodd" d="M289.824 77.4626C288.461 76.807 286.886 76.4329 285.208 76.4329C280.023 76.4329 275.82 80.0055 275.82 84.4126C275.82 87.3874 277.307 90.1958 279.869 91.7071L288.938 100.484C286.398 102.647 283.769 104.817 281.141 106.988L281.141 106.988L281.141 106.988C275.598 111.565 270.055 116.141 265.338 120.644C262.91 139.517 267.025 154.76 275.057 158.218C282.219 161.301 287.431 158.638 287.431 158.638C289.723 157.466 291.134 155.706 291.92 154.509C296.441 146.595 300.482 137.839 304.524 129.084L304.524 129.084C308.565 120.328 312.606 111.573 317.127 103.658C315.033 100.068 313.13 97.2407 310.953 95.247L311.025 95.2088L293.063 80.041C292.344 79.1089 291.401 78.3126 290.299 77.7071L289.902 77.3717L289.824 77.4626Z"/>
</mask>
<path fill-rule="evenodd" clip-rule="evenodd" d="M289.824 77.4626C288.461 76.807 286.886 76.4329 285.208 76.4329C280.023 76.4329 275.82 80.0055 275.82 84.4126C275.82 87.3874 277.307 90.1958 279.869 91.7071L288.938 100.484C286.398 102.647 283.769 104.817 281.141 106.988L281.141 106.988L281.141 106.988C275.598 111.565 270.055 116.141 265.338 120.644C262.91 139.517 267.025 154.76 275.057 158.218C282.219 161.301 287.431 158.638 287.431 158.638C289.723 157.466 291.134 155.706 291.92 154.509C296.441 146.595 300.482 137.839 304.524 129.084L304.524 129.084C308.565 120.328 312.606 111.573 317.127 103.658C315.033 100.068 313.13 97.2407 310.953 95.247L311.025 95.2088L293.063 80.041C292.344 79.1089 291.401 78.3126 290.299 77.7071L289.902 77.3717L289.824 77.4626Z" fill="#F2D9C9"/>
<path d="M289.824 77.4626L289.391 78.3638L290.083 78.6968L290.584 78.1133L289.824 77.4626ZM279.869 91.7071L280.564 90.9885L280.479 90.9061L280.377 90.8459L279.869 91.7071ZM288.938 100.484L289.587 101.246L290.425 100.532L289.634 99.7656L288.938 100.484ZM281.141 106.988L280.504 106.217L280.49 106.228L280.476 106.24L281.141 106.988ZM281.141 106.988L280.476 106.24L280.454 106.26L280.433 106.281L281.141 106.988ZM281.141 106.988L281.777 107.759L281.814 107.729L281.848 107.695L281.141 106.988ZM265.338 120.644L264.647 119.921L264.391 120.166L264.346 120.517L265.338 120.644ZM275.057 158.218L275.453 157.299L275.453 157.299L275.057 158.218ZM287.431 158.638L287.886 159.528L287.887 159.528L287.431 158.638ZM291.92 154.509L292.756 155.058L292.773 155.032L292.788 155.005L291.92 154.509ZM304.524 129.084L303.629 128.636L303.622 128.65L303.616 128.665L304.524 129.084ZM304.524 129.084L305.418 129.531L305.425 129.517L305.432 129.503L304.524 129.084ZM317.127 103.658L317.996 104.154L318.282 103.653L317.991 103.154L317.127 103.658ZM310.953 95.247L310.487 94.3621L309.229 95.0243L310.277 95.9845L310.953 95.247ZM311.025 95.2088L311.491 96.0937L312.804 95.4024L311.67 94.4448L311.025 95.2088ZM293.063 80.041L292.272 80.652L292.337 80.7363L292.418 80.805L293.063 80.041ZM290.299 77.7071L289.654 78.4712L289.73 78.5355L289.818 78.5835L290.299 77.7071ZM289.902 77.3717L290.547 76.6076L289.789 75.9672L289.143 76.7209L289.902 77.3717ZM290.258 76.5613C288.758 75.8401 287.035 75.4329 285.208 75.4329V77.4329C286.738 77.4329 288.164 77.7739 289.391 78.3638L290.258 76.5613ZM285.208 75.4329C279.63 75.4329 274.82 79.307 274.82 84.4126H276.82C276.82 80.704 280.417 77.4329 285.208 77.4329V75.4329ZM274.82 84.4126C274.82 87.7138 276.472 90.8637 279.36 92.5683L280.377 90.8459C278.143 89.5279 276.82 87.0609 276.82 84.4126H274.82ZM289.634 99.7656L280.564 90.9885L279.173 92.4257L288.243 101.203L289.634 99.7656ZM288.29 99.7227C285.756 101.88 283.134 104.045 280.504 106.217L281.777 107.759C284.405 105.589 287.039 103.414 289.587 101.246L288.29 99.7227ZM280.476 106.24L280.476 106.24L281.805 107.735L281.805 107.735L280.476 106.24ZM280.433 106.281L280.433 106.281L281.848 107.695L281.848 107.695L280.433 106.281ZM280.504 106.217C274.968 110.788 269.396 115.388 264.647 119.921L266.028 121.368C270.715 116.894 276.228 112.341 281.777 107.759L280.504 106.217ZM264.346 120.517C263.12 130.048 263.538 138.711 265.308 145.465C267.064 152.171 270.219 157.224 274.662 159.136L275.453 157.299C271.864 155.754 268.945 151.457 267.242 144.959C265.553 138.509 265.128 130.114 266.33 120.772L264.346 120.517ZM274.662 159.136C278.429 160.758 281.706 160.876 284.057 160.576C285.229 160.426 286.169 160.173 286.823 159.954C287.15 159.844 287.407 159.742 287.586 159.666C287.675 159.628 287.746 159.596 287.796 159.572C287.821 159.56 287.841 159.55 287.856 159.543C287.864 159.539 287.87 159.536 287.875 159.534C287.878 159.532 287.88 159.531 287.882 159.53C287.883 159.53 287.883 159.53 287.884 159.529C287.885 159.529 287.885 159.529 287.885 159.529C287.886 159.528 287.886 159.528 287.431 158.638C286.976 157.747 286.977 157.747 286.977 157.747C286.977 157.747 286.978 157.746 286.978 157.746C286.978 157.746 286.979 157.746 286.979 157.746C286.979 157.746 286.98 157.745 286.98 157.745C286.98 157.745 286.978 157.746 286.976 157.747C286.971 157.75 286.961 157.755 286.946 157.762C286.916 157.776 286.868 157.798 286.801 157.826C286.667 157.883 286.46 157.966 286.187 158.058C285.64 158.241 284.829 158.461 283.804 158.592C281.758 158.853 278.848 158.761 275.453 157.299L274.662 159.136ZM287.887 159.528C290.391 158.247 291.919 156.332 292.756 155.058L291.084 153.96C290.349 155.079 289.055 156.684 286.976 157.747L287.887 159.528ZM292.788 155.005C297.334 147.046 301.394 138.25 305.432 129.503L303.616 128.665C299.57 137.428 295.547 146.143 291.052 154.013L292.788 155.005ZM305.418 129.531L305.418 129.531L303.629 128.636L303.629 128.636L305.418 129.531ZM305.432 129.503C309.477 120.739 313.5 112.024 317.996 104.154L316.259 103.162C311.713 111.121 307.653 119.917 303.616 128.664L305.432 129.503ZM317.991 103.154C315.891 99.5536 313.924 96.6124 311.628 94.5095L310.277 95.9845C312.335 97.8689 314.175 100.582 316.263 104.162L317.991 103.154ZM310.559 94.3239L310.487 94.3621L311.418 96.1319L311.491 96.0937L310.559 94.3239ZM292.418 80.805L310.38 95.9728L311.67 94.4448L293.708 79.2769L292.418 80.805ZM293.855 79.43C293.046 78.382 291.995 77.498 290.781 76.8308L289.818 78.5835C290.807 79.1273 291.642 79.8359 292.272 80.652L293.855 79.43ZM289.257 78.1357L289.654 78.4712L290.945 76.9431L290.547 76.6076L289.257 78.1357ZM290.584 78.1133L290.661 78.0225L289.143 76.7209L289.065 76.8118L290.584 78.1133Z" fill="black" mask="url(#path-55-inside-2_1723_3535)"/>
<path d="M289.824 77.4626L289.391 78.3638L290.083 78.6968L290.584 78.1133L289.824 77.4626ZM279.869 91.7071L280.564 90.9885L280.479 90.9061L280.377 90.8459L279.869 91.7071ZM288.938 100.484L289.587 101.246L290.425 100.532L289.634 99.7656L288.938 100.484ZM281.141 106.988L280.504 106.217L280.49 106.228L280.476 106.24L281.141 106.988ZM281.141 106.988L280.476 106.24L280.454 106.26L280.433 106.281L281.141 106.988ZM281.141 106.988L281.777 107.759L281.814 107.729L281.848 107.695L281.141 106.988ZM265.338 120.644L264.647 119.921L264.391 120.166L264.346 120.517L265.338 120.644ZM275.057 158.218L275.453 157.299L275.453 157.299L275.057 158.218ZM287.431 158.638L287.886 159.528L287.887 159.528L287.431 158.638ZM291.92 154.509L292.756 155.058L292.773 155.032L292.788 155.005L291.92 154.509ZM304.524 129.084L303.629 128.636L303.622 128.65L303.616 128.665L304.524 129.084ZM304.524 129.084L305.418 129.531L305.425 129.517L305.432 129.503L304.524 129.084ZM317.127 103.658L317.996 104.154L318.282 103.653L317.991 103.154L317.127 103.658ZM310.953 95.247L310.487 94.3621L309.229 95.0243L310.277 95.9845L310.953 95.247ZM311.025 95.2088L311.491 96.0937L312.804 95.4024L311.67 94.4448L311.025 95.2088ZM293.063 80.041L292.272 80.652L292.337 80.7363L292.418 80.805L293.063 80.041ZM290.299 77.7071L289.654 78.4712L289.73 78.5355L289.818 78.5835L290.299 77.7071ZM289.902 77.3717L290.547 76.6076L289.789 75.9672L289.143 76.7209L289.902 77.3717ZM290.258 76.5613C288.758 75.8401 287.035 75.4329 285.208 75.4329V77.4329C286.738 77.4329 288.164 77.7739 289.391 78.3638L290.258 76.5613ZM285.208 75.4329C279.63 75.4329 274.82 79.307 274.82 84.4126H276.82C276.82 80.704 280.417 77.4329 285.208 77.4329V75.4329ZM274.82 84.4126C274.82 87.7138 276.472 90.8637 279.36 92.5683L280.377 90.8459C278.143 89.5279 276.82 87.0609 276.82 84.4126H274.82ZM289.634 99.7656L280.564 90.9885L279.173 92.4257L288.243 101.203L289.634 99.7656ZM288.29 99.7227C285.756 101.88 283.134 104.045 280.504 106.217L281.777 107.759C284.405 105.589 287.039 103.414 289.587 101.246L288.29 99.7227ZM280.476 106.24L280.476 106.24L281.805 107.735L281.805 107.735L280.476 106.24ZM280.433 106.281L280.433 106.281L281.848 107.695L281.848 107.695L280.433 106.281ZM280.504 106.217C274.968 110.788 269.396 115.388 264.647 119.921L266.028 121.368C270.715 116.894 276.228 112.341 281.777 107.759L280.504 106.217ZM264.346 120.517C263.12 130.048 263.538 138.711 265.308 145.465C267.064 152.171 270.219 157.224 274.662 159.136L275.453 157.299C271.864 155.754 268.945 151.457 267.242 144.959C265.553 138.509 265.128 130.114 266.33 120.772L264.346 120.517ZM274.662 159.136C278.429 160.758 281.706 160.876 284.057 160.576C285.229 160.426 286.169 160.173 286.823 159.954C287.15 159.844 287.407 159.742 287.586 159.666C287.675 159.628 287.746 159.596 287.796 159.572C287.821 159.56 287.841 159.55 287.856 159.543C287.864 159.539 287.87 159.536 287.875 159.534C287.878 159.532 287.88 159.531 287.882 159.53C287.883 159.53 287.883 159.53 287.884 159.529C287.885 159.529 287.885 159.529 287.885 159.529C287.886 159.528 287.886 159.528 287.431 158.638C286.976 157.747 286.977 157.747 286.977 157.747C286.977 157.747 286.978 157.746 286.978 157.746C286.978 157.746 286.979 157.746 286.979 157.746C286.979 157.746 286.98 157.745 286.98 157.745C286.98 157.745 286.978 157.746 286.976 157.747C286.971 157.75 286.961 157.755 286.946 157.762C286.916 157.776 286.868 157.798 286.801 157.826C286.667 157.883 286.46 157.966 286.187 158.058C285.64 158.241 284.829 158.461 283.804 158.592C281.758 158.853 278.848 158.761 275.453 157.299L274.662 159.136ZM287.887 159.528C290.391 158.247 291.919 156.332 292.756 155.058L291.084 153.96C290.349 155.079 289.055 156.684 286.976 157.747L287.887 159.528ZM292.788 155.005C297.334 147.046 301.394 138.25 305.432 129.503L303.616 128.665C299.57 137.428 295.547 146.143 291.052 154.013L292.788 155.005ZM305.418 129.531L305.418 129.531L303.629 128.636L303.629 128.636L305.418 129.531ZM305.432 129.503C309.477 120.739 313.5 112.024 317.996 104.154L316.259 103.162C311.713 111.121 307.653 119.917 303.616 128.664L305.432 129.503ZM317.991 103.154C315.891 99.5536 313.924 96.6124 311.628 94.5095L310.277 95.9845C312.335 97.8689 314.175 100.582 316.263 104.162L317.991 103.154ZM310.559 94.3239L310.487 94.3621L311.418 96.1319L311.491 96.0937L310.559 94.3239ZM292.418 80.805L310.38 95.9728L311.67 94.4448L293.708 79.2769L292.418 80.805ZM293.855 79.43C293.046 78.382 291.995 77.498 290.781 76.8308L289.818 78.5835C290.807 79.1273 291.642 79.8359 292.272 80.652L293.855 79.43ZM289.257 78.1357L289.654 78.4712L290.945 76.9431L290.547 76.6076L289.257 78.1357ZM290.584 78.1133L290.661 78.0225L289.143 76.7209L289.065 76.8118L290.584 78.1133Z" fill="black" fill-opacity="0.2" mask="url(#path-55-inside-2_1723_3535)"/>
<path d="M259.445 117.463L261.83 115.199C263.943 113.193 264.029 109.856 262.023 107.744L250.18 95.2773C248.173 93.1656 244.835 93.0793 242.722 95.0847L240.337 97.349C238.224 99.3543 238.138 102.692 240.144 104.804L251.987 117.27C253.994 119.382 257.332 119.468 259.445 117.463Z" fill="#F2D9C9" stroke="black" stroke-miterlimit="10"/>
<path d="M289.046 118.3L284.531 113.697C282.38 111.503 279.687 110.09 276.837 109.465C273.988 108.84 270.983 109.005 268.208 109.968C268.515 108.939 268.546 107.844 268.297 106.8C268.048 105.756 267.518 104.762 266.705 103.933C265.487 102.69 263.854 102.043 262.206 102.002C260.558 101.961 258.893 102.524 257.609 103.703L246.303 114.096L234.997 124.488C233.713 125.667 233.046 127.248 233.002 128.843C232.958 130.439 233.542 132.051 234.76 133.293C235.978 134.536 237.611 135.181 239.259 135.224C240.907 135.267 242.572 134.702 243.856 133.523L245.246 132.245L247 131C246.301 133.434 245.884 135.98 246.487 138.439C247.09 140.897 248.345 143.237 250.263 145.193L254.778 149.795L259.292 154.398C262.194 157.357 266.083 158.896 270.009 158.995C273.936 159.093 277.901 157.749 280.957 154.941L286.979 149.406L293 143.871" fill="#F2D9C9"/>
<path d="M289.046 118.3L284.531 113.697C282.38 111.503 279.687 110.09 276.837 109.465C273.988 108.84 270.983 109.005 268.208 109.968C268.515 108.939 268.546 107.844 268.297 106.8C268.048 105.756 267.518 104.762 266.705 103.933C265.487 102.69 263.854 102.043 262.206 102.002C260.558 101.961 258.893 102.524 257.609 103.703L246.303 114.096L234.997 124.488C233.713 125.667 233.046 127.248 233.002 128.843C232.958 130.439 233.542 132.051 234.76 133.293C235.978 134.536 237.611 135.181 239.259 135.224C240.907 135.267 242.572 134.702 243.856 133.523L245.246 132.245L247 131C246.301 133.434 245.884 135.98 246.487 138.439C247.09 140.897 248.345 143.237 250.263 145.193L254.778 149.795L259.292 154.398C262.194 157.357 266.083 158.896 270.009 158.995C273.936 159.093 277.901 157.749 280.957 154.941L286.979 149.406L293 143.871" stroke="black" stroke-miterlimit="10"/>
<path d="M268 121.038C265.419 118.418 261.083 118.309 258.366 120.798L242.114 135.673C239.396 138.162 239.284 142.342 241.864 144.962C244.445 147.582 248.781 147.691 251.499 145.202L265.76 133" fill="#F2D9C9"/>
<path d="M268 121.038C265.419 118.418 261.083 118.309 258.366 120.798L242.114 135.673C239.396 138.162 239.284 142.342 241.864 144.962C244.445 147.582 248.781 147.691 251.499 145.202L265.76 133" stroke="black" stroke-miterlimit="10"/>
<path d="M266.207 131L250.98 146.329C248.434 148.893 248.329 153.2 250.747 155.9C253.165 158.6 257.227 158.712 259.773 156.148L275 140.819" fill="#F2D9C9"/>
<path d="M266.207 131L250.98 146.329C248.434 148.893 248.329 153.2 250.747 155.9C253.165 158.6 257.227 158.712 259.773 156.148L275 140.819" stroke="black" stroke-miterlimit="10"/>
<rect x="-0.674051" y="0.213669" width="4" height="25" transform="matrix(-0.887721 -0.460382 -0.460382 0.887721 144.094 127.09)" fill="#E1B000" stroke="black"/>
<rect x="-0.674051" y="0.213669" width="4" height="25" transform="matrix(-0.887721 -0.460382 -0.460382 0.887721 156.521 133.535)" fill="#E1B000" stroke="black"/>
<rect x="-0.674051" y="0.213669" width="4" height="25" transform="matrix(-0.887721 -0.460382 -0.460382 0.887721 168.95 139.981)" fill="#E1B000" stroke="black"/>
<rect x="-0.674051" y="0.213669" width="4" height="25" transform="matrix(-0.887721 -0.460382 -0.460382 0.887721 181.378 146.426)" fill="#E1B000" stroke="black"/>
<rect x="-0.674051" y="0.213669" width="4" height="25" transform="matrix(-0.887721 -0.460382 -0.460382 0.887721 193.806 152.871)" fill="#E1B000" stroke="black"/>
<rect x="-0.674051" y="0.213669" width="4" height="25" transform="matrix(-0.887721 -0.460382 -0.460382 0.887721 206.234 159.316)" fill="#E1B000" stroke="black"/>
<rect x="-0.674051" y="0.213669" width="4" height="25" transform="matrix(-0.887721 -0.460382 -0.460382 0.887721 218.662 165.762)" fill="#E1B000" stroke="black"/>
<rect x="-0.674051" y="0.213669" width="4" height="25" transform="matrix(-0.887721 -0.460382 -0.460382 0.887721 231.091 172.207)" fill="#E1B000" stroke="black"/>
<rect x="-0.674051" y="0.213669" width="4" height="25" transform="matrix(-0.887721 -0.460382 -0.460382 0.887721 243.518 178.653)" fill="#E1B000" stroke="black"/>
<rect x="-0.674051" y="0.213669" width="4" height="25" transform="matrix(-0.887721 -0.460382 -0.460382 0.887721 255.946 185.098)" fill="#E1B000" stroke="black"/>
<rect x="-0.674051" y="0.213669" width="4" height="25" transform="matrix(-0.887721 -0.460382 -0.460382 0.887721 268.375 191.543)" fill="#E1B000" stroke="black"/>
<rect x="0.674051" y="-0.213669" width="161" height="4" transform="matrix(0.887721 0.460382 0.460382 -0.887721 133.442 121.565)" fill="#E1B000" stroke="black"/>
<rect x="0.674051" y="-0.213669" width="161" height="4" transform="matrix(0.887721 0.460382 0.460382 -0.887721 120.09 147.309)" fill="#E1B000" stroke="black"/>
<rect x="43.5" y="193.267" width="152.963" height="25.2863" fill="#FFD601" stroke="black"/>
<rect x="-0.5" y="0.5" width="4" height="25" transform="matrix(-1 6.79865e-09 6.79865e-09 1 51 193)" fill="#E1B000" stroke="black"/>
<rect x="-0.5" y="0.5" width="4" height="25" transform="matrix(-1 6.79865e-09 6.79865e-09 1 65 193)" fill="#E1B000" stroke="black"/>
<rect x="-0.5" y="0.5" width="4" height="25" transform="matrix(-1 6.79865e-09 6.79865e-09 1 79 193)" fill="#E1B000" stroke="black"/>
<rect x="-0.5" y="0.5" width="4" height="25" transform="matrix(-1 6.79865e-09 6.79865e-09 1 93 193)" fill="#E1B000" stroke="black"/>
<rect x="-0.5" y="0.5" width="4" height="25" transform="matrix(-1 6.79865e-09 6.79865e-09 1 107 193)" fill="#E1B000" stroke="black"/>
<rect x="-0.5" y="0.5" width="4" height="25" transform="matrix(-1 6.79865e-09 6.79865e-09 1 121 193)" fill="#E1B000" stroke="black"/>
<rect x="-0.5" y="0.5" width="4" height="25" transform="matrix(-1 6.79865e-09 6.79865e-09 1 135 193)" fill="#E1B000" stroke="black"/>
<rect x="-0.5" y="0.5" width="4" height="25" transform="matrix(-1 6.79865e-09 6.79865e-09 1 149 193)" fill="#E1B000" stroke="black"/>
<rect x="-0.5" y="0.5" width="4" height="25" transform="matrix(-1 6.79865e-09 6.79865e-09 1 163 193)" fill="#E1B000" stroke="black"/>
<rect x="-0.5" y="0.5" width="4" height="25" transform="matrix(-1 6.79865e-09 6.79865e-09 1 177 193)" fill="#E1B000" stroke="black"/>
<rect x="-0.5" y="0.5" width="4" height="25" transform="matrix(-1 6.79865e-09 6.79865e-09 1 191 193)" fill="#E1B000" stroke="black"/>
<rect x="0.5" y="-0.5" width="161" height="4" transform="matrix(1 -6.79865e-09 -6.79865e-09 -1 39 193)" fill="#E1B000" stroke="black"/>
<rect x="0.5" y="-0.5" width="161" height="4" transform="matrix(1 -6.79865e-09 -6.79865e-09 -1 39 222)" fill="#E1B000" stroke="black"/>
<path fill-rule="evenodd" clip-rule="evenodd" d="M266.525 45.1725C264.693 47.6154 262.538 49.8663 260.429 51.3577C254.265 55.7181 248.967 55.4159 245.215 53.5246C243.602 52.9774 240.676 50.5389 244.987 48.588C246.167 47.4448 246.365 46.0871 246.594 44.515C246.854 42.7339 247.154 40.6777 248.967 38.3462C254.588 30.131 265.734 29.7792 269.749 32.0096C281.137 32.1121 282.406 34.4822 284.614 38.604C284.9 39.1392 285.203 39.7039 285.545 40.2971C286.571 42.0737 286.608 44.1357 286.101 46.1495C285.106 50.1029 282.012 53.8704 280.18 54.9282C278.775 53.8355 276.983 52.9728 275.144 52.0872C271.686 50.4224 268.061 48.677 266.525 45.1725Z" fill="#FFD601"/>
<path d="M260 51C260 51 262.398 49.4058 263.769 48.2308C265.14 47.0557 267 45 267 45" stroke="black"/>
<mask id="path-93-inside-3_1723_3535" fill="white">
<path fill-rule="evenodd" clip-rule="evenodd" d="M283.048 51.1369C282.058 52.515 281.009 53.5739 280.206 54.1247C279.124 53.3321 277.86 52.6623 276.563 52.0234C276.159 51.8249 275.754 51.6297 275.349 51.4346L275.348 51.4342C274.319 50.9387 273.29 50.4434 272.3 49.8936C269.548 48.366 267.266 46.5066 266.523 43.3987L266.506 43.3279L266.47 43.2649C264.968 40.6635 264.091 37.9858 264.345 35.9463C264.47 34.945 264.864 34.1139 265.579 33.4983C266.301 32.8773 267.398 32.4338 269.002 32.3085L268.924 31.3115C267.18 31.4478 265.857 31.9402 264.927 32.7403C263.991 33.5459 263.502 34.6213 263.353 35.8228C263.06 38.1704 264.051 41.0565 265.568 43.7024C266.428 47.1841 269.007 49.2094 271.814 50.7679C272.832 51.3327 273.901 51.8477 274.94 52.3479L274.94 52.3479L274.94 52.3479C275.34 52.5403 275.735 52.7305 276.121 52.9205C277.525 53.6121 278.819 54.3067 279.873 55.1268L280.139 55.3333L280.43 55.1651C281.434 54.5856 282.715 53.3152 283.861 51.7204C285.013 50.1158 286.069 48.1287 286.586 46.0755L285.616 45.8314C285.138 47.7316 284.149 49.6049 283.048 51.1369ZM245.335 48.7511C246.642 47.485 246.862 45.9632 247.085 44.4182L247.085 44.4181C247.102 44.3042 247.118 44.1902 247.135 44.0761C247.385 42.3984 247.734 40.5501 249.362 38.4571L248.572 37.8432C246.786 40.1396 246.404 42.1929 246.146 43.9291C246.132 44.0231 246.119 44.1156 246.105 44.2068C245.873 45.7868 245.7 46.9658 244.699 47.9741C243.624 48.472 242.92 49.0319 242.548 49.6522C242.15 50.3168 242.167 50.9924 242.42 51.5832C242.663 52.1508 243.115 52.6308 243.587 52.9959C244.05 53.3548 244.57 53.6324 245.021 53.7903C248.947 55.7566 254.429 56.0181 260.718 51.5699L260.141 50.7534C254.116 55.0144 249.016 54.6844 245.44 52.882L245.409 52.8663L245.376 52.855C245.028 52.7371 244.592 52.5095 244.199 52.2054C243.803 51.8984 243.491 51.5442 243.34 51.19C243.198 50.8589 243.191 50.5249 243.406 50.1665C243.638 49.7795 244.159 49.3157 245.193 48.8475L245.273 48.8116L245.335 48.7511Z"/>
</mask>
<path fill-rule="evenodd" clip-rule="evenodd" d="M283.048 51.1369C282.058 52.515 281.009 53.5739 280.206 54.1247C279.124 53.3321 277.86 52.6623 276.563 52.0234C276.159 51.8249 275.754 51.6297 275.349 51.4346L275.348 51.4342C274.319 50.9387 273.29 50.4434 272.3 49.8936C269.548 48.366 267.266 46.5066 266.523 43.3987L266.506 43.3279L266.47 43.2649C264.968 40.6635 264.091 37.9858 264.345 35.9463C264.47 34.945 264.864 34.1139 265.579 33.4983C266.301 32.8773 267.398 32.4338 269.002 32.3085L268.924 31.3115C267.18 31.4478 265.857 31.9402 264.927 32.7403C263.991 33.5459 263.502 34.6213 263.353 35.8228C263.06 38.1704 264.051 41.0565 265.568 43.7024C266.428 47.1841 269.007 49.2094 271.814 50.7679C272.832 51.3327 273.901 51.8477 274.94 52.3479L274.94 52.3479L274.94 52.3479C275.34 52.5403 275.735 52.7305 276.121 52.9205C277.525 53.6121 278.819 54.3067 279.873 55.1268L280.139 55.3333L280.43 55.1651C281.434 54.5856 282.715 53.3152 283.861 51.7204C285.013 50.1158 286.069 48.1287 286.586 46.0755L285.616 45.8314C285.138 47.7316 284.149 49.6049 283.048 51.1369ZM245.335 48.7511C246.642 47.485 246.862 45.9632 247.085 44.4182L247.085 44.4181C247.102 44.3042 247.118 44.1902 247.135 44.0761C247.385 42.3984 247.734 40.5501 249.362 38.4571L248.572 37.8432C246.786 40.1396 246.404 42.1929 246.146 43.9291C246.132 44.0231 246.119 44.1156 246.105 44.2068C245.873 45.7868 245.7 46.9658 244.699 47.9741C243.624 48.472 242.92 49.0319 242.548 49.6522C242.15 50.3168 242.167 50.9924 242.42 51.5832C242.663 52.1508 243.115 52.6308 243.587 52.9959C244.05 53.3548 244.57 53.6324 245.021 53.7903C248.947 55.7566 254.429 56.0181 260.718 51.5699L260.141 50.7534C254.116 55.0144 249.016 54.6844 245.44 52.882L245.409 52.8663L245.376 52.855C245.028 52.7371 244.592 52.5095 244.199 52.2054C243.803 51.8984 243.491 51.5442 243.34 51.19C243.198 50.8589 243.191 50.5249 243.406 50.1665C243.638 49.7795 244.159 49.3157 245.193 48.8475L245.273 48.8116L245.335 48.7511Z" fill="#EDD500"/>
<path d="M280.206 54.1247L279.614 54.9313L280.186 55.3505L280.771 54.9494L280.206 54.1247ZM283.048 51.1369L283.861 51.7204V51.7204L283.048 51.1369ZM276.563 52.0234L276.121 52.9205L276.121 52.9205L276.563 52.0234ZM275.349 51.4346L274.914 52.3349L274.915 52.3356L275.349 51.4346ZM275.348 51.4342L275.783 50.5339L275.782 50.5332L275.348 51.4342ZM272.3 49.8936L271.814 50.7679V50.7679L272.3 49.8936ZM266.523 43.3987L265.551 43.6311L265.551 43.6311L266.523 43.3987ZM266.506 43.3279L267.479 43.0956L267.445 42.954L267.372 42.8279L266.506 43.3279ZM266.47 43.2649L265.604 43.7649L265.604 43.7649L266.47 43.2649ZM264.345 35.9463L263.353 35.8228L263.352 35.8228L264.345 35.9463ZM265.579 33.4983L264.927 32.7403L264.927 32.7403L265.579 33.4983ZM269.002 32.3085L269.08 33.3055L270.077 33.2276L269.999 32.2306L269.002 32.3085ZM268.924 31.3115L269.921 31.2337L269.843 30.2367L268.846 30.3146L268.924 31.3115ZM264.927 32.7403L265.579 33.4983L265.579 33.4983L264.927 32.7403ZM263.353 35.8228L264.345 35.9463V35.9463L263.353 35.8228ZM265.568 43.7024L266.539 43.4625L266.505 43.3265L266.435 43.2049L265.568 43.7024ZM271.814 50.7679L272.3 49.8936V49.8936L271.814 50.7679ZM274.94 52.3479L275.387 51.4534L275.381 51.4501L275.374 51.4469L274.94 52.3479ZM274.94 52.3479L274.493 53.2424L274.5 53.2457L274.506 53.2489L274.94 52.3479ZM276.121 52.9205L275.679 53.8176L275.679 53.8176L276.121 52.9205ZM279.873 55.1268L279.259 55.9161L279.873 55.1268ZM280.139 55.3333L279.525 56.1227L280.056 56.5358L280.639 56.1994L280.139 55.3333ZM280.43 55.1651L280.93 56.0311L280.93 56.0311L280.43 55.1651ZM283.861 51.7204L284.673 52.3038L283.861 51.7204ZM286.586 46.0755L287.556 46.3197L287.8 45.35L286.83 45.1058L286.586 46.0755ZM285.616 45.8314L285.86 44.8616L284.891 44.6175L284.647 45.5872L285.616 45.8314ZM247.085 44.4182L246.096 44.2739L246.096 44.275L247.085 44.4182ZM245.335 48.7511L244.639 48.0329L244.639 48.0329L245.335 48.7511ZM247.085 44.4181L248.075 44.5624L248.075 44.5613L247.085 44.4181ZM247.135 44.0761L246.146 43.9291V43.9291L247.135 44.0761ZM249.362 38.4571L250.151 39.0711L250.765 38.2817L249.976 37.6678L249.362 38.4571ZM248.572 37.8432L249.186 37.0538L248.397 36.4399L247.783 37.2293L248.572 37.8432ZM246.146 43.9291L245.157 43.7822L245.157 43.7822L246.146 43.9291ZM246.105 44.2068L247.095 44.3521V44.3521L246.105 44.2068ZM244.699 47.9741L245.119 48.8815L245.282 48.806L245.408 48.6788L244.699 47.9741ZM242.548 49.6522L241.691 49.138L241.691 49.138L242.548 49.6522ZM242.42 51.5832L243.34 51.19H243.34L242.42 51.5832ZM243.587 52.9959L244.199 52.2054L244.199 52.2054L243.587 52.9959ZM245.021 53.7903L245.469 52.8962L245.411 52.8676L245.351 52.8465L245.021 53.7903ZM260.718 51.5699L261.296 52.3863L262.112 51.8088L261.535 50.9924L260.718 51.5699ZM260.141 50.7534L260.957 50.176L260.38 49.3596L259.563 49.937L260.141 50.7534ZM245.44 52.882L244.99 53.775L244.99 53.775L245.44 52.882ZM245.409 52.8663L245.859 51.9733L245.797 51.9418L245.73 51.9193L245.409 52.8663ZM245.376 52.855L245.055 53.802H245.055L245.376 52.855ZM244.199 52.2054L244.812 51.4148H244.812L244.199 52.2054ZM243.34 51.19L242.42 51.5832H242.42L243.34 51.19ZM243.406 50.1665L244.264 50.6807H244.264L243.406 50.1665ZM245.193 48.8475L244.781 47.9364L244.781 47.9364L245.193 48.8475ZM245.273 48.8116L245.685 49.7227L245.843 49.6509L245.968 49.5298L245.273 48.8116ZM280.771 54.9494C281.701 54.3118 282.829 53.1562 283.861 51.7204L282.236 50.5534C281.288 51.8737 280.317 52.8359 279.64 53.3L280.771 54.9494ZM276.121 52.9205C277.409 53.5552 278.608 54.1933 279.614 54.9313L280.797 53.3182C279.641 52.4708 278.31 51.7693 277.004 51.1263L276.121 52.9205ZM274.915 52.3356C275.321 52.5311 275.722 52.7243 276.121 52.9205L277.004 51.1263C276.597 50.9255 276.187 50.7284 275.782 50.5336L274.915 52.3356ZM274.913 52.3346L274.914 52.3349L275.784 50.5342L275.783 50.5339L274.913 52.3346ZM271.814 50.7679C272.834 51.3341 273.889 51.8419 274.914 52.3353L275.782 50.5332C274.748 50.0355 273.746 49.5526 272.785 49.0193L271.814 50.7679ZM265.551 43.6311C266.393 47.1564 268.988 49.1987 271.814 50.7679L272.785 49.0193C270.108 47.5333 268.139 45.8568 267.496 43.1663L265.551 43.6311ZM265.534 43.5603L265.551 43.6311L267.496 43.1663L267.479 43.0956L265.534 43.5603ZM265.604 43.7649L265.64 43.8279L267.372 42.8279L267.336 42.7649L265.604 43.7649ZM263.352 35.8228C263.058 38.1889 264.067 41.1021 265.604 43.7649L267.336 42.7649C265.87 40.225 265.124 37.7828 265.337 36.0699L263.352 35.8228ZM264.927 32.7403C263.991 33.5457 263.502 34.621 263.353 35.8228L265.337 36.0699C265.437 35.269 265.736 34.6821 266.231 34.2563L264.927 32.7403ZM268.924 31.3115C267.179 31.4478 265.856 31.9402 264.927 32.7403L266.231 34.2563C266.745 33.8143 267.617 33.4197 269.08 33.3055L268.924 31.3115ZM267.927 31.3894L268.005 32.3864L269.999 32.2306L269.921 31.2337L267.927 31.3894ZM265.579 33.4983C266.301 32.8773 267.398 32.4338 269.002 32.3085L268.846 30.3146C266.961 30.4618 265.413 31.003 264.275 31.9823L265.579 33.4983ZM264.345 35.9463C264.47 34.9447 264.864 34.1138 265.579 33.4983L264.275 31.9823C263.118 32.978 262.535 34.2978 262.36 35.6992L264.345 35.9463ZM266.435 43.2049C264.954 40.6211 264.093 37.9693 264.345 35.9463L262.36 35.6992C262.027 38.3714 263.148 41.492 264.7 44.1998L266.435 43.2049ZM272.3 49.8936C269.566 48.376 267.297 46.5314 266.539 43.4625L264.597 43.9422C265.559 47.8369 268.448 50.0427 271.329 51.6422L272.3 49.8936ZM275.374 51.4469C274.33 50.9445 273.287 50.4419 272.3 49.8936L271.329 51.6422C272.376 52.2235 273.472 52.7509 274.506 53.2489L275.374 51.4469ZM275.387 51.4535L275.387 51.4534L274.493 53.2423L274.493 53.2423L275.387 51.4535ZM275.387 51.4535L275.387 51.4535L274.493 53.2423L274.493 53.2424L275.387 51.4535ZM276.563 52.0234C276.172 51.8311 275.773 51.639 275.374 51.4469L274.506 53.2489C274.907 53.4417 275.298 53.6299 275.679 53.8176L276.563 52.0234ZM280.487 54.3374C279.347 53.4505 277.974 52.7186 276.563 52.0234L275.679 53.8176C277.076 54.5057 278.291 55.163 279.259 55.9161L280.487 54.3374ZM280.753 54.544L280.487 54.3374L279.259 55.9161L279.525 56.1227L280.753 54.544ZM279.93 54.2991L279.639 54.4673L280.639 56.1994L280.93 56.0311L279.93 54.2991ZM283.048 51.1369C281.941 52.6785 280.759 53.8208 279.93 54.2991L280.93 56.0311C282.109 55.3505 283.489 53.952 284.673 52.3038L283.048 51.1369ZM285.616 45.8314C285.138 47.7316 284.149 49.6049 283.048 51.1369L284.673 52.3038C285.878 50.6266 287 48.5257 287.556 46.3197L285.616 45.8314ZM285.372 46.8011L286.342 47.0453L286.83 45.1058L285.86 44.8616L285.372 46.8011ZM283.861 51.7204C285.013 50.1158 286.069 48.1286 286.586 46.0755L284.647 45.5872C284.207 47.3345 283.285 49.0941 282.236 50.5534L283.861 51.7204ZM246.096 44.275C245.868 45.851 245.67 47.0338 244.639 48.0329L246.031 49.4692C247.613 47.9363 247.856 46.0754 248.075 44.5613L246.096 44.275ZM246.096 44.2738L246.096 44.2739L248.075 44.5625L248.075 44.5624L246.096 44.2738ZM246.146 43.9291C246.129 44.0454 246.112 44.1614 246.096 44.2749L248.075 44.5613C248.092 44.447 248.108 44.3349 248.124 44.2231L246.146 43.9291ZM248.572 37.8432C246.786 40.1396 246.404 42.193 246.146 43.9291L248.124 44.2231C248.365 42.6039 248.682 40.9605 250.151 39.0711L248.572 37.8432ZM247.958 38.6325L248.748 39.2465L249.976 37.6678L249.186 37.0538L247.958 38.6325ZM247.135 44.0761C247.385 42.3985 247.734 40.5501 249.362 38.4571L247.783 37.2293C245.839 39.7291 245.424 41.9872 245.157 43.7822L247.135 44.0761ZM247.095 44.3521C247.108 44.2608 247.121 44.1691 247.135 44.0761L245.157 43.7822C245.143 43.8771 245.129 43.9705 245.116 44.0616L247.095 44.3521ZM245.408 48.6788C246.677 47.4013 246.87 45.8792 247.095 44.3521L245.116 44.0616C244.876 45.6944 244.723 46.5302 243.989 47.2695L245.408 48.6788ZM243.406 50.1665C243.632 49.7897 244.132 49.3388 245.119 48.8815L244.278 47.0668C243.117 47.6051 242.209 48.2742 241.691 49.138L243.406 50.1665ZM243.34 51.19C243.198 50.8582 243.192 50.5242 243.406 50.1665L241.691 49.138C241.108 50.1095 241.137 51.1265 241.501 51.9765L243.34 51.19ZM244.199 52.2054C243.803 51.8984 243.491 51.5442 243.34 51.19L241.501 51.9765C241.835 52.7575 242.428 53.3632 242.974 53.7865L244.199 52.2054ZM245.351 52.8465C245.007 52.7259 244.582 52.5017 244.199 52.2054L242.974 53.7865C243.519 54.208 244.133 54.5389 244.69 54.7342L245.351 52.8465ZM260.141 50.7534C254.131 55.0037 249.042 54.6858 245.469 52.8962L244.573 54.6844C248.852 56.8273 254.727 57.0325 261.296 52.3863L260.141 50.7534ZM259.324 51.3309L259.902 52.1473L261.535 50.9924L260.957 50.176L259.324 51.3309ZM244.99 53.775C248.918 55.7551 254.413 56.0296 260.718 51.5699L259.563 49.937C253.82 53.9992 249.113 53.6137 245.891 51.9891L244.99 53.775ZM244.959 53.7592L244.99 53.775L245.891 51.9891L245.859 51.9733L244.959 53.7592ZM245.055 53.802L245.088 53.8133L245.73 51.9193L245.697 51.908L245.055 53.802ZM243.587 52.9959C244.062 53.3639 244.596 53.6463 245.055 53.802L245.697 51.908C245.461 51.8279 245.122 51.6552 244.812 51.4148L243.587 52.9959ZM242.42 51.5832C242.663 52.1508 243.115 52.6308 243.587 52.9959L244.812 51.4148C244.491 51.1661 244.319 50.9377 244.259 50.7967L242.42 51.5832ZM242.548 49.6522C242.151 50.3156 242.167 50.9909 242.42 51.5832L244.259 50.7967C244.234 50.7389 244.239 50.7226 244.238 50.7326C244.238 50.7361 244.237 50.7366 244.239 50.7316C244.241 50.726 244.247 50.7093 244.264 50.6807L242.548 49.6522ZM244.781 47.9364C243.66 48.4437 242.93 49.0163 242.548 49.6522L244.264 50.6807C244.347 50.5427 244.657 50.1877 245.606 49.7586L244.781 47.9364ZM244.86 47.9006L244.781 47.9364L245.606 49.7586L245.685 49.7227L244.86 47.9006ZM244.639 48.0329L244.577 48.0934L245.968 49.5298L246.031 49.4692L244.639 48.0329Z" fill="black" mask="url(#path-93-inside-3_1723_3535)"/>
<path d="M258.157 49.4589C259.153 48.8295 260.6 48.5123 262.257 48.6584C263.916 48.8049 265.484 49.3888 266.675 50.2106" stroke="black" stroke-miterlimit="10"/>
<path d="M249 38L250.333 36L253 33" stroke="black"/>
</g>
<defs>
<clipPath id="clip0_1723_3535">
<rect width="375" height="227" fill="white"/>
</clipPath>
</defs>
</svg>
