<svg width="279" height="50" viewBox="0 0 279 50" fill="none" xmlns="http://www.w3.org/2000/svg">
<path fill-rule="evenodd" clip-rule="evenodd" d="M10.8182 43.3182L9.41818 43.7636C8.65455 44.0182 8.08182 44.5909 7.82727 45.3545L7.31818 46.8182C7.19091 47.1364 6.80909 47.1364 6.74545 46.8182L6.3 45.4182C6.04545 44.6545 5.47273 44.0818 4.70909 43.8273L3.18182 43.3182C2.86364 43.1909 2.86364 42.8091 3.18182 42.7455L4.58182 42.3C5.34545 42.0455 5.91818 41.4727 6.17273 40.7091L6.68182 39.1818C6.80909 38.8636 7.19091 38.8636 7.25454 39.1818L7.7 40.5818C7.95455 41.3455 8.52727 41.9182 9.29091 42.1727L10.6909 42.6182C11.1364 42.8091 11.1364 43.1909 10.8182 43.3182ZM7 36C3.11818 36 0 39.1182 0 43C0 46.8818 3.11818 50 7 50C10.8818 50 14 46.8818 14 43C14 39.1182 10.8818 36 7 36Z" fill="#929292"/>
<path d="M28.6621 47.6309H17.4512V46.5371H28.6621V47.6309ZM18.4082 38.0879H27.6367V39.1543H25.7637V43.2422H27.5957V44.2812H18.4355V43.2422H20.2676V39.1543H18.4082V38.0879ZM24.4922 43.2422V39.1543H21.5527V43.2422H24.4922ZM39.7227 49.1895H38.4238V36.9121H39.7227V49.1895ZM30.2344 38.0195H35.9766V42.4902H31.5742V45.1699C32.6361 45.1654 33.6182 45.1312 34.5205 45.0674C35.4274 45.0036 36.3685 44.8919 37.3438 44.7324L37.4668 45.7988C36.4505 45.9674 35.4639 46.0837 34.5068 46.1475C33.5498 46.2113 32.4766 46.2454 31.2871 46.25H30.248V41.4512H34.6504V39.0723H30.2344V38.0195ZM52.0957 46.0312H50.8652V41.5879H49.3613V45.7031H48.1445V37.1445H49.3613V40.5215H50.8652V36.9258H52.0957V46.0312ZM42.1699 37.9512H46.8184V41.5469H43.4551V43.2012C44.2526 43.1966 44.959 43.1693 45.5742 43.1191C46.194 43.069 46.8275 42.9824 47.4746 42.8594L47.6113 43.8984C46.9095 44.0306 46.2282 44.1217 45.5674 44.1719C44.9066 44.2174 44.1364 44.2402 43.2568 44.2402H43.0039H42.1973V40.5625H45.5742V38.9902H42.1699V37.9512ZM43.9746 45.1836H45.2598V47.8496H52.4512V48.9023H43.9746V45.1836ZM58.166 40.0293C58.166 40.7721 58.2959 41.5013 58.5557 42.2168C58.82 42.9277 59.1891 43.5589 59.6631 44.1104C60.137 44.6618 60.6816 45.0742 61.2969 45.3477L60.5039 46.3867C59.8203 46.0404 59.221 45.5413 58.7061 44.8896C58.1911 44.2334 57.7969 43.4814 57.5234 42.6338C57.25 43.5316 56.8512 44.3314 56.3271 45.0332C55.8076 45.7305 55.1992 46.2591 54.502 46.6191L53.6816 45.5664C54.3014 45.2702 54.8506 44.8327 55.3291 44.2539C55.8122 43.6706 56.1859 43.0098 56.4502 42.2715C56.7191 41.5286 56.8535 40.7812 56.8535 40.0293V37.9375H58.166V40.0293ZM59.9434 40.9863H62.6777V36.9121H63.9629V49.1895H62.6777V42.0391H59.9434V40.9863Z" fill="#888888"/>
<path fill-rule="evenodd" clip-rule="evenodd" d="M88.8182 43.3182L87.4182 43.7636C86.6545 44.0182 86.0818 44.5909 85.8273 45.3545L85.3182 46.8182C85.1909 47.1364 84.8091 47.1364 84.7455 46.8182L84.3 45.4182C84.0455 44.6545 83.4727 44.0818 82.7091 43.8273L81.1818 43.3182C80.8636 43.1909 80.8636 42.8091 81.1818 42.7455L82.5818 42.3C83.3455 42.0455 83.9182 41.4727 84.1727 40.7091L84.6818 39.1818C84.8091 38.8636 85.1909 38.8636 85.2545 39.1818L85.7 40.5818C85.9545 41.3455 86.5273 41.9182 87.2909 42.1727L88.6909 42.6182C89.1364 42.8091 89.1364 43.1909 88.8182 43.3182ZM85 36C81.1182 36 78 39.1182 78 43C78 46.8818 81.1182 50 85 50C88.8818 50 92 46.8818 92 43C92 39.1182 88.8818 36 85 36Z" fill="#929292"/>
<path d="M106.965 49.1621H105.721V42.832H104.135V48.5332H102.945V37.1582H104.135V41.7656H105.721V36.9121H106.965V49.1621ZM96.8613 38.3887H101.455V39.4414H98.1602V45.1152C98.9577 45.1107 99.6572 45.0856 100.259 45.04C100.865 44.9945 101.482 44.9102 102.111 44.7871L102.207 45.8535C101.523 45.9948 100.849 46.0905 100.184 46.1406C99.5228 46.1862 98.6888 46.2135 97.6816 46.2227H96.8613V38.3887ZM115.865 39.1953H108.564V38.1562H111.572V36.8574H112.871V38.1562H115.865V39.1953ZM109.234 41.9707C109.234 41.5286 109.357 41.1413 109.604 40.8086C109.854 40.4714 110.205 40.2116 110.656 40.0293C111.107 39.8424 111.627 39.7467 112.215 39.7422C112.798 39.7467 113.313 39.8424 113.76 40.0293C114.211 40.2116 114.56 40.4714 114.806 40.8086C115.056 41.1413 115.182 41.5286 115.182 41.9707C115.182 42.4128 115.056 42.8024 114.806 43.1396C114.56 43.4769 114.211 43.7389 113.76 43.9258C113.313 44.1081 112.798 44.1992 112.215 44.1992C111.627 44.1992 111.107 44.1081 110.656 43.9258C110.205 43.7389 109.854 43.4769 109.604 43.1396C109.357 42.8024 109.234 42.4128 109.234 41.9707ZM110.082 45.1973H118.176V49.1621H116.877V46.25H110.082V45.1973ZM110.492 41.9707C110.488 42.3444 110.643 42.6406 110.957 42.8594C111.271 43.0781 111.691 43.1875 112.215 43.1875C112.739 43.1875 113.16 43.0804 113.479 42.8662C113.799 42.6475 113.96 42.349 113.965 41.9707C113.96 41.597 113.799 41.3008 113.479 41.082C113.16 40.8587 112.739 40.7448 112.215 40.7402C111.868 40.7402 111.563 40.7926 111.299 40.8975C111.039 40.9977 110.839 41.1413 110.697 41.3281C110.556 41.5104 110.488 41.7246 110.492 41.9707ZM116.877 36.9121H118.176V40.2344H119.953V41.3145H118.176V44.5684H116.877V36.9121ZM124.396 39.2637C124.396 39.7148 124.49 40.1569 124.677 40.5898C124.868 41.0182 125.148 41.4056 125.518 41.752C125.887 42.0938 126.329 42.3626 126.844 42.5586L126.16 43.5566C125.604 43.3424 125.123 43.0394 124.718 42.6475C124.317 42.2555 124.005 41.7998 123.781 41.2803C123.549 41.8682 123.221 42.3923 122.797 42.8525C122.378 43.3083 121.881 43.6615 121.307 43.9121L120.596 42.9004C121.129 42.668 121.587 42.3558 121.97 41.9639C122.353 41.5674 122.642 41.1344 122.838 40.665C123.038 40.1956 123.139 39.7285 123.139 39.2637V37.6777H124.396V39.2637ZM122.852 46.9199C122.847 46.4596 123.011 46.0632 123.344 45.7305C123.676 45.3932 124.155 45.1357 124.779 44.958C125.404 44.7803 126.142 44.6914 126.994 44.6914C127.842 44.6914 128.578 44.7803 129.202 44.958C129.831 45.1357 130.314 45.3932 130.651 45.7305C130.993 46.0632 131.164 46.4596 131.164 46.9199C131.164 47.3802 130.993 47.7767 130.651 48.1094C130.314 48.4421 129.831 48.695 129.202 48.8682C128.578 49.0459 127.842 49.1348 126.994 49.1348C126.142 49.1348 125.404 49.0459 124.779 48.8682C124.155 48.695 123.676 48.4421 123.344 48.1094C123.011 47.7767 122.847 47.3802 122.852 46.9199ZM124.137 46.9199C124.132 47.1751 124.244 47.3962 124.472 47.583C124.7 47.7653 125.028 47.9043 125.456 48C125.889 48.0957 126.402 48.1413 126.994 48.1367C127.582 48.1413 128.09 48.0957 128.519 48C128.951 47.9043 129.284 47.7653 129.517 47.583C129.749 47.4007 129.865 47.1797 129.865 46.9199C129.865 46.6647 129.751 46.446 129.523 46.2637C129.296 46.0768 128.97 45.9355 128.546 45.8398C128.122 45.7396 127.618 45.6895 127.035 45.6895C126.119 45.6895 125.406 45.7965 124.896 46.0107C124.385 46.2249 124.132 46.528 124.137 46.9199ZM127.227 37.1445H128.43V40.1113H129.865V36.9258H131.096V44.459H129.865V41.1777H128.43V44.0762H127.227V37.1445Z" fill="#888888"/>
<path fill-rule="evenodd" clip-rule="evenodd" d="M155.818 43.3182L154.418 43.7636C153.655 44.0182 153.082 44.5909 152.827 45.3545L152.318 46.8182C152.191 47.1364 151.809 47.1364 151.745 46.8182L151.3 45.4182C151.045 44.6545 150.473 44.0818 149.709 43.8273L148.182 43.3182C147.864 43.1909 147.864 42.8091 148.182 42.7455L149.582 42.3C150.345 42.0455 150.918 41.4727 151.173 40.7091L151.682 39.1818C151.809 38.8636 152.191 38.8636 152.255 39.1818L152.7 40.5818C152.955 41.3455 153.527 41.9182 154.291 42.1727L155.691 42.6182C156.136 42.8091 156.136 43.1909 155.818 43.3182ZM152 36C148.118 36 145 39.1182 145 43C145 46.8818 148.118 50 152 50C155.882 50 159 46.8818 159 43C159 39.1182 155.882 36 152 36Z" fill="#929292"/>
<path d="M168.182 39.2773C168.182 39.6602 168.298 40.0225 168.53 40.3643C168.763 40.7061 169.095 41.0046 169.528 41.2598C169.966 41.5104 170.479 41.6973 171.066 41.8203L170.533 42.832C169.836 42.6725 169.232 42.4242 168.722 42.0869C168.211 41.7497 167.819 41.3464 167.546 40.877C167.277 41.3919 166.883 41.834 166.363 42.2031C165.848 42.5677 165.233 42.832 164.518 42.9961L163.971 41.9844C164.563 41.8568 165.078 41.6585 165.516 41.3896C165.953 41.1208 166.288 40.804 166.521 40.4395C166.757 40.0749 166.878 39.6875 166.883 39.2773H164.244V38.252H166.883V36.9395H168.182V38.252H170.807V39.2773H168.182ZM163.438 43.748C165.01 43.748 166.452 43.7275 167.765 43.6865C169.077 43.641 170.324 43.543 171.504 43.3926L171.6 44.3359C170.556 44.5091 169.421 44.6322 168.195 44.7051V48.793H166.896V44.7734C165.999 44.8099 164.905 44.8281 163.615 44.8281L163.438 43.748ZM172.352 36.9258H173.637V49.1621H172.352V36.9258ZM181.977 46.1406H176.234V38.0879H181.977V46.1406ZM180.719 45.0879V39.1133H177.52V45.0879H180.719ZM184.396 36.9121H185.695V49.1895H184.396V36.9121ZM198.848 45.1426H193.844V49.1621H192.572V45.1426H187.637V44.1172H198.848V45.1426ZM189.031 37.4043H190.316V39.0039H196.141V37.4043H197.439V42.7227H189.031V37.4043ZM196.141 41.6836V40.043H190.316V41.6836H196.141ZM204.016 40.5215C204.016 41.1641 204.148 41.8158 204.412 42.4766C204.676 43.1328 205.046 43.7298 205.52 44.2676C205.998 44.8008 206.54 45.2109 207.146 45.498L206.408 46.5098C205.734 46.1862 205.132 45.7031 204.604 45.0605C204.075 44.4134 203.669 43.6842 203.387 42.873C203.104 43.7526 202.687 44.5456 202.136 45.252C201.589 45.9538 200.971 46.4779 200.283 46.8242L199.518 45.7988C200.124 45.5072 200.671 45.0788 201.158 44.5137C201.65 43.944 202.035 43.3083 202.313 42.6064C202.591 41.9001 202.73 41.2051 202.73 40.5215V39.2227H199.969V38.1426H206.682V39.2227H204.016V40.5215ZM207.994 36.9121H209.293V41.7656H211.262V42.8594H209.293V49.1621H207.994V36.9121Z" fill="#888888"/>
<path fill-rule="evenodd" clip-rule="evenodd" d="M234.818 43.3182L233.418 43.7636C232.655 44.0182 232.082 44.5909 231.827 45.3545L231.318 46.8182C231.191 47.1364 230.809 47.1364 230.745 46.8182L230.3 45.4182C230.045 44.6545 229.473 44.0818 228.709 43.8273L227.182 43.3182C226.864 43.1909 226.864 42.8091 227.182 42.7455L228.582 42.3C229.345 42.0455 229.918 41.4727 230.173 40.7091L230.682 39.1818C230.809 38.8636 231.191 38.8636 231.255 39.1818L231.7 40.5818C231.955 41.3455 232.527 41.9182 233.291 42.1727L234.691 42.6182C235.136 42.8091 235.136 43.1909 234.818 43.3182ZM231 36C227.118 36 224 39.1182 224 43C224 46.8818 227.118 50 231 50C234.882 50 238 46.8818 238 43C238 39.1182 234.882 36 231 36Z" fill="#929292"/>
<path d="M253.854 41.3281H252.076V45.0195H250.777V36.8984H252.076V40.248H253.854V41.3281ZM242.424 43.3926C243.39 43.1146 244.229 42.7546 244.939 42.3125C245.65 41.8659 246.211 41.3555 246.621 40.7812C247.031 40.2025 247.277 39.5781 247.359 38.9082H243.025V37.8418H248.768C248.768 38.8991 248.537 39.8607 248.077 40.7266C247.621 41.5924 246.961 42.3398 246.095 42.9688C245.233 43.5931 244.197 44.0853 242.984 44.4453L242.424 43.3926ZM243.6 48.0684C244.365 47.9408 245.056 47.7106 245.671 47.3779C246.286 47.0452 246.771 46.6396 247.127 46.1611C247.482 45.6826 247.66 45.1699 247.66 44.623V44.1309H248.945V44.623C248.945 45.1654 249.118 45.6735 249.465 46.1475C249.816 46.6214 250.297 47.0247 250.907 47.3574C251.522 47.6855 252.213 47.9134 252.979 48.041L252.445 49.0801C251.507 48.9023 250.673 48.5856 249.943 48.1299C249.214 47.6742 248.665 47.1136 248.296 46.4482C247.931 47.1182 247.382 47.681 246.648 48.1367C245.915 48.597 245.076 48.916 244.133 49.0938L243.6 48.0684ZM258.324 40.2344C258.324 40.9225 258.418 41.5924 258.604 42.2441C258.796 42.8958 259.078 43.4814 259.452 44.001C259.83 44.516 260.288 44.9193 260.826 45.2109L260.061 46.2363C259.5 45.9219 259.019 45.4889 258.618 44.9375C258.222 44.3815 257.912 43.7435 257.688 43.0234C257.456 43.8073 257.128 44.5068 256.704 45.1221C256.285 45.7327 255.786 46.209 255.207 46.5508L254.387 45.6074C254.952 45.2793 255.435 44.835 255.836 44.2744C256.242 43.7139 256.547 43.0918 256.752 42.4082C256.962 41.7201 257.066 41.0228 257.066 40.3164V38.0332H258.324V40.2344ZM261.127 37.1445H262.371V41.793H263.848V36.9121H265.092V49.1621H263.848V42.8457H262.371V48.5605H261.127V37.1445ZM276.809 45.8262H275.51V36.9258H276.809V45.8262ZM266.896 40.7812C266.896 40.2025 267.04 39.6829 267.327 39.2227C267.614 38.7624 268.006 38.4023 268.503 38.1426C269 37.8783 269.553 37.7461 270.164 37.7461C270.775 37.7461 271.326 37.8783 271.818 38.1426C272.315 38.4023 272.705 38.7624 272.987 39.2227C273.274 39.6829 273.418 40.2025 273.418 40.7812C273.418 41.3691 273.274 41.8955 272.987 42.3604C272.705 42.8206 272.315 43.1807 271.818 43.4404C271.326 43.7002 270.775 43.8301 270.164 43.8301C269.553 43.8301 269 43.7002 268.503 43.4404C268.006 43.1807 267.614 42.8206 267.327 42.3604C267.04 41.8955 266.896 41.3691 266.896 40.7812ZM268.168 40.7812C268.168 41.1595 268.252 41.4945 268.421 41.7861C268.594 42.0732 268.833 42.2965 269.139 42.4561C269.444 42.6156 269.786 42.6953 270.164 42.6953C270.538 42.6953 270.875 42.6156 271.176 42.4561C271.477 42.2965 271.714 42.0732 271.887 41.7861C272.06 41.4945 272.146 41.1595 272.146 40.7812C272.146 40.4121 272.06 40.084 271.887 39.7969C271.714 39.5052 271.477 39.2796 271.176 39.1201C270.875 38.9606 270.538 38.8809 270.164 38.8809C269.786 38.8809 269.444 38.9606 269.139 39.1201C268.833 39.2796 268.594 39.5052 268.421 39.7969C268.252 40.084 268.168 40.4121 268.168 40.7812ZM268.797 44.9238H270.109V47.8496H277.178V48.9023H268.797V44.9238Z" fill="#888888"/>
<path d="M38.1904 4.00391V2.58594H35.2686V4.00391C35.2471 6.83984 32.7012 9.91211 28.3506 10.6855L29.5322 12.9629C32.916 12.2754 35.4512 10.3418 36.7402 7.86035C38.0078 10.3633 40.5322 12.2861 43.9482 12.9629L45.1514 10.6855C40.7256 9.93359 38.1797 6.87207 38.1904 4.00391ZM27.8994 18.5703H45.7959V16.3145H27.8994V18.5703ZM57.2041 4.00391V2.58594H54.2822V4.00391C54.2607 6.83984 51.7148 9.91211 47.3643 10.6855L48.5459 12.9629C51.9297 12.2754 54.4648 10.3418 55.7539 7.86035C57.0215 10.3633 59.5459 12.2861 62.9619 12.9629L64.165 10.6855C59.7393 9.93359 57.1934 6.87207 57.2041 4.00391ZM46.9131 18.5703H64.8096V16.3145H46.9131V18.5703ZM83.8232 16.5508H76.1963V13.6074H82.2119V11.373H70.7393V9.18164H81.7607V2.69336H67.9678V4.88477H79.0537V7.0332H67.9893V13.6074H73.4678V16.5508H65.9268V18.8066H83.8232V16.5508ZM93.3193 2.30664H90.5908V10.8359H100.065V2.30664H97.3154V4.62695H93.3193V2.30664ZM92.5459 14.2305H102.794V15.4551H92.5889V20.8477H106.081V18.6777H95.2744V17.4102H105.522V12.1035H92.5459V14.2305ZM93.3193 8.6875V6.68945H97.3154V8.6875H93.3193ZM102.772 11.373H105.522V7.44141H108.165V5.22852H105.522V1.42578H102.772V11.373ZM125.503 1.44727H122.774V6.49609H119.573V8.70898H122.774V15.7129H125.503V1.44727ZM108.917 11.3086L110.313 13.543C112.623 12.7803 114.181 11.2012 115.051 9.25684C115.899 11.0078 117.393 12.4258 119.552 13.1348L120.905 10.9648C117.801 9.95508 116.404 7.53809 116.415 5.27148V4.94922H120.304V2.75781H109.69V4.94922H113.622V5.25C113.611 7.75293 112.15 10.2988 108.917 11.3086ZM112.526 20.6328H125.976V18.4414H115.276V14.4668H112.526V20.6328ZM143.464 1.42578H140.757V20.9766H143.464V11.3301H146.343V9.07422H143.464V1.42578ZM127.931 6.53906H139.425V4.34766H135.106V1.72656H132.356V4.34766H127.931V6.53906ZM128.726 12.2969C128.715 15.0254 130.842 16.9482 133.731 16.959C136.578 16.9482 138.716 15.0254 138.716 12.2969C138.716 9.56836 136.578 7.62402 133.731 7.63477C130.842 7.62402 128.715 9.56836 128.726 12.2969ZM131.347 12.2969C131.347 10.793 132.346 9.86914 133.731 9.84766C135.096 9.86914 136.095 10.793 136.095 12.2969C136.095 13.8115 135.096 14.7139 133.731 14.7031C132.346 14.7139 131.347 13.8115 131.347 12.2969ZM162.929 6.75391H151.993V2.11328H149.265V8.90234H162.929V6.75391ZM147.03 13.1562H164.927V11.0078H147.03V13.1562ZM149.093 20.5469H163.058V18.3555H151.843V14.7461H149.093V20.5469ZM187.507 1.42578H184.757V13.1992H187.507V1.42578ZM171.222 10.7715L172.64 12.8984C174.938 12.1357 176.528 10.5996 177.42 8.66602C178.301 10.4385 179.837 11.8457 182.028 12.5332L183.425 10.4062C180.234 9.43945 178.773 7.05469 178.763 4.75586H182.694V2.56445H171.952V4.75586H175.97C175.948 7.19434 174.455 9.72949 171.222 10.7715ZM174.058 16.25H184.757V20.9766H187.507V14.0586H174.058V16.25ZM208.024 12.3613H190.128V14.5527H197.669V20.9551H200.376V14.5527H208.024V12.3613ZM192.233 10.2559H205.876V2.37109H192.233V10.2559ZM194.94 8.10742V4.54102H203.147V8.10742H194.94ZM231.099 1.42578H228.456V8.83789H226.673V1.94141H224.116V20.1172H226.673V11.0293H228.456V20.9766H231.099V1.42578ZM213.997 15.0684L215.587 16.959C221.098 13.7578 222.73 9.28906 222.741 3.83203H214.985V6.02344H220.066C219.701 9.8584 217.982 12.7266 213.997 15.0684ZM236.556 2.30664H233.827V10.8359H243.302V2.30664H240.552V4.62695H236.556V2.30664ZM235.782 14.2305H246.03V15.4551H235.825V20.8477H249.317V18.6777H238.511V17.4102H248.759V12.1035H235.782V14.2305ZM236.556 8.6875V6.68945H240.552V8.6875H236.556ZM246.009 11.373H248.759V7.44141H251.401V5.22852H248.759V1.42578H246.009V11.373Z" fill="#222222"/>
</svg>
