<svg width="267" height="50" viewBox="0 0 267 50" fill="none" xmlns="http://www.w3.org/2000/svg">
<path fill-rule="evenodd" clip-rule="evenodd" d="M10.8182 43.3182L9.41818 43.7636C8.65454 44.0182 8.08182 44.5909 7.82727 45.3545L7.31818 46.8182C7.19091 47.1364 6.80909 47.1364 6.74545 46.8182L6.3 45.4182C6.04545 44.6545 5.47273 44.0818 4.70909 43.8273L3.18182 43.3182C2.86364 43.1909 2.86364 42.8091 3.18182 42.7455L4.58182 42.3C5.34545 42.0455 5.91818 41.4727 6.17273 40.7091L6.68182 39.1818C6.80909 38.8636 7.19091 38.8636 7.25454 39.1818L7.7 40.5818C7.95455 41.3455 8.52727 41.9182 9.29091 42.1727L10.6909 42.6182C11.1364 42.8091 11.1364 43.1909 10.8182 43.3182ZM7 36C3.11818 36 0 39.1182 0 43C0 46.8818 3.11818 50 7 50C10.8818 50 14 46.8818 14 43C14 39.1182 10.8818 36 7 36Z" fill="#929292"/>
<path d="M27.6367 36.9121H26.3242V49.1621H27.6367V36.9121ZM17.5742 45.8809L18.2578 46.9336C22.4619 44.917 23.9863 41.8135 23.9863 38.2246H18.1621V39.2637H22.6738C22.4209 42.1211 20.8281 44.3291 17.5742 45.8809ZM37.248 37.9648H34.2676V36.8301H32.9688V37.9648H30.002V38.9355H37.248V37.9648ZM29.6055 43.7891L29.7832 44.8008C31.9844 44.8008 34.9102 44.7598 37.5625 44.3223L37.4668 43.4199C36.4482 43.5498 35.3545 43.6387 34.2676 43.6934V42.9619C35.6826 42.8047 36.5986 42.1553 36.6055 41.1777C36.5986 40.043 35.3955 39.332 33.625 39.3457C31.8271 39.332 30.6514 40.043 30.6582 41.1777C30.6514 42.1553 31.5469 42.8047 32.9688 42.9619V43.7412C31.7725 43.7822 30.6104 43.7891 29.6055 43.7891ZM31.3691 46.7012H38.4102V49.1621H39.709V45.6895H31.3691V46.7012ZM31.8887 41.1777C31.8955 40.5762 32.5723 40.2207 33.625 40.2344C34.6641 40.2207 35.3613 40.5762 35.3613 41.1777C35.3613 41.7451 34.6641 42.1006 33.625 42.0938C32.5723 42.1006 31.8955 41.7451 31.8887 41.1777ZM38.4102 45.1426H39.709V36.9395H38.4102V45.1426ZM45.916 40.5215V39.2227H48.582V38.1426H41.8691V39.2227H44.6309V40.5215C44.624 42.5928 43.2773 44.9033 41.418 45.7988L42.1836 46.8242C43.5781 46.127 44.7266 44.6162 45.2871 42.873C45.8408 44.4727 46.9346 45.8535 48.3086 46.5098L49.0469 45.498C47.1875 44.6162 45.9092 42.4561 45.916 40.5215ZM49.8945 49.1621H51.1934V42.8594H53.1621V41.7656H51.1934V36.9121H49.8945V49.1621Z" fill="#888888"/>
<path fill-rule="evenodd" clip-rule="evenodd" d="M76.8182 43.3182L75.4182 43.7636C74.6545 44.0182 74.0818 44.5909 73.8273 45.3545L73.3182 46.8182C73.1909 47.1364 72.8091 47.1364 72.7455 46.8182L72.3 45.4182C72.0455 44.6545 71.4727 44.0818 70.7091 43.8273L69.1818 43.3182C68.8636 43.1909 68.8636 42.8091 69.1818 42.7455L70.5818 42.3C71.3455 42.0455 71.9182 41.4727 72.1727 40.7091L72.6818 39.1818C72.8091 38.8636 73.1909 38.8636 73.2545 39.1818L73.7 40.5818C73.9545 41.3455 74.5273 41.9182 75.2909 42.1727L76.6909 42.6182C77.1364 42.8091 77.1364 43.1909 76.8182 43.3182ZM73 36C69.1182 36 66 39.1182 66 43C66 46.8818 69.1182 50 73 50C76.8818 50 80 46.8818 80 43C80 39.1182 76.8818 36 73 36Z" fill="#929292"/>
<path d="M90.6445 38.1289H84.916V46.0859H90.6445V38.1289ZM86.1875 45.0332V39.1543H89.3594V45.0332H86.1875ZM92.6953 49.1621H93.9941V42.8047H95.9629V41.7109H93.9941V36.9121H92.6953V49.1621ZM101.965 38.334H97.1934V39.4004H100.7C100.659 40.0156 100.563 40.6104 100.413 41.1777L96.5918 41.4102L96.7695 42.5312L100.051 42.1963C99.4424 43.5566 98.3691 44.7529 96.5918 45.7441L97.3301 46.6465C99.2715 45.5664 100.447 44.2334 101.131 42.7363H103.264V48.5605H104.494V37.2266H103.264V41.6836H101.527C101.842 40.624 101.965 39.4961 101.965 38.334ZM105.848 49.1621H107.078V36.9121H105.848V49.1621ZM118.863 36.9121H117.578V41.4375H115.145V42.5039H117.578V49.1895H118.863V36.9121ZM109.211 46.291H110.168C112.438 46.2842 113.976 46.209 115.76 45.9219L115.623 44.8691C113.996 45.1494 112.574 45.2109 110.523 45.2109V42.4766H114.42V41.4375H110.523V39.0586H114.939V38.0059H109.211V46.291Z" fill="#888888"/>
<path fill-rule="evenodd" clip-rule="evenodd" d="M143.818 43.3182L142.418 43.7636C141.655 44.0182 141.082 44.5909 140.827 45.3545L140.318 46.8182C140.191 47.1364 139.809 47.1364 139.745 46.8182L139.3 45.4182C139.045 44.6545 138.473 44.0818 137.709 43.8273L136.182 43.3182C135.864 43.1909 135.864 42.8091 136.182 42.7455L137.582 42.3C138.345 42.0455 138.918 41.4727 139.173 40.7091L139.682 39.1818C139.809 38.8636 140.191 38.8636 140.255 39.1818L140.7 40.5818C140.955 41.3455 141.527 41.9182 142.291 42.1727L143.691 42.6182C144.136 42.8091 144.136 43.1909 143.818 43.3182ZM140 36C136.118 36 133 39.1182 133 43C133 46.8818 136.118 50 140 50C143.882 50 147 46.8818 147 43C147 39.1182 143.882 36 140 36Z" fill="#929292"/>
<path d="M161.938 36.9121H160.693V41.752H159.176V37.2402H157.959V48.5742H159.176V42.8047H160.693V49.1621H161.938V36.9121ZM151.41 45.6621L152.162 46.5645C155.669 44.5889 156.735 41.6904 156.742 38.4707H151.93V39.5371H155.478C155.272 42.0322 154.131 44.1172 151.41 45.6621ZM165.301 37.4316H164.029V42.7773H169.799V37.4316H168.514V39.0996H165.301V37.4316ZM165.26 44.7734H171.891V45.8809H165.287V49.0391H173.6V48H166.559V46.8379H173.176V43.748H165.26V44.7734ZM165.301 41.7383V40.0977H168.514V41.7383H165.301ZM171.877 43.2148H173.176V40.5352H174.953V39.4824H173.176V36.9121H171.877V43.2148ZM179.916 40.5215V39.2227H182.582V38.1426H175.869V39.2227H178.631V40.5215C178.624 42.5928 177.277 44.9033 175.418 45.7988L176.184 46.8242C177.578 46.127 178.727 44.6162 179.287 42.873C179.841 44.4727 180.935 45.8535 182.309 46.5098L183.047 45.498C181.188 44.6162 179.909 42.4561 179.916 40.5215ZM183.895 49.1621H185.193V42.8594H187.162V41.7656H185.193V36.9121H183.895V49.1621Z" fill="#888888"/>
<path fill-rule="evenodd" clip-rule="evenodd" d="M210.818 43.3182L209.418 43.7636C208.655 44.0182 208.082 44.5909 207.827 45.3545L207.318 46.8182C207.191 47.1364 206.809 47.1364 206.745 46.8182L206.3 45.4182C206.045 44.6545 205.473 44.0818 204.709 43.8273L203.182 43.3182C202.864 43.1909 202.864 42.8091 203.182 42.7455L204.582 42.3C205.345 42.0455 205.918 41.4727 206.173 40.7091L206.682 39.1818C206.809 38.8636 207.191 38.8636 207.255 39.1818L207.7 40.5818C207.955 41.3455 208.527 41.9182 209.291 42.1727L210.691 42.6182C211.136 42.8091 211.136 43.1909 210.818 43.3182ZM207 36C203.118 36 200 39.1182 200 43C200 46.8818 203.118 50 207 50C210.882 50 214 46.8818 214 43C214 39.1182 210.882 36 207 36Z" fill="#929292"/>
<path d="M228.596 36.9121H227.297V49.1895H228.596V36.9121ZM219.23 46.1816H220.242C222.785 46.1748 224.385 46.1064 226.217 45.7715L226.08 44.6914C224.351 44.999 222.86 45.0674 220.543 45.0742V39.127H225.096V38.0469H219.23V46.1816ZM234.816 40.5215V39.2227H237.482V38.1426H230.77V39.2227H233.531V40.5215C233.524 42.5928 232.178 44.9033 230.318 45.7988L231.084 46.8242C232.479 46.127 233.627 44.6162 234.188 42.873C234.741 44.4727 235.835 45.8535 237.209 46.5098L237.947 45.498C236.088 44.6162 234.81 42.4561 234.816 40.5215ZM238.795 49.1621H240.094V42.8594H242.062V41.7656H240.094V36.9121H238.795V49.1621ZM252.795 36.9121H251.496V49.1895H252.795V36.9121ZM243.074 42.1211C243.074 44.7666 244.394 46.4346 246.246 46.4277C248.064 46.4346 249.404 44.7666 249.404 42.1211C249.404 39.5029 248.064 37.835 246.246 37.8281C244.394 37.835 243.074 39.5029 243.074 42.1211ZM244.332 42.1211C244.325 40.2002 245.104 38.9971 246.246 38.9902C247.367 38.9971 248.146 40.2002 248.146 42.1211C248.146 44.0693 247.367 45.2656 246.246 45.2656C245.104 45.2656 244.325 44.0693 244.332 42.1211ZM264.977 36.9121H263.678V40.8633H260.027V41.9297H263.678V49.1895H264.977V36.9121ZM255.406 46.2363H256.391C258.312 46.2432 260.089 46.1338 262.064 45.7305L261.9 44.6641C260.116 45.0195 258.469 45.1289 256.719 45.1562V38.2656H255.406V46.2363Z" fill="#888888"/>
<path d="M21.8936 11.3945H14.3311V9.48242H19.9385V7.29102H8.91699V4.5625H19.7451V2.37109H6.18848V9.48242H11.5596V11.3945H4.01855V13.5645H21.8936V11.3945ZM6.16699 20.6328H20.0459V18.4414H8.87402V14.918H6.16699V20.6328ZM31.9482 1.70508C27.4365 1.70508 24.8154 2.88672 24.8154 5.03516C24.8154 7.21582 27.4365 8.38672 31.9482 8.38672C36.4492 8.38672 39.0488 7.21582 39.0596 5.03516C39.0488 2.88672 36.4492 1.70508 31.9482 1.70508ZM23.0322 11.4805H40.8643V9.31055H23.0322V11.4805ZM25.0947 14.6172H35.9873V15.6914H25.1162V20.8477H39.21V18.7852H27.8018V17.6035H38.6943V12.6191H25.0947V14.6172ZM27.6943 5.03516C27.6836 4.16504 29.0801 3.70312 31.9482 3.70312C34.8379 3.70312 36.2236 4.16504 36.2236 5.03516C36.2236 5.99121 34.8379 6.36719 31.9482 6.36719C29.0801 6.36719 27.6836 5.99121 27.6943 5.03516ZM63.6162 1.42578H60.9092V8.32227H57.2783V2.92969H54.5928V7.67773H50.5752V2.92969H47.8467V16.3789H57.2783V10.5352H60.9092V21.0195H63.6162V1.42578ZM50.5752 14.1875V9.82617H54.5928V14.1875H50.5752ZM82.0068 6.75391H71.0713V2.11328H68.3428V8.90234H82.0068V6.75391ZM66.1084 13.1562H84.0049V11.0078H66.1084V13.1562ZM68.1709 20.5469H82.1357V18.3555H70.9209V14.7461H68.1709V20.5469ZM106.692 1.44727H103.964V6.60352H100.505V8.83789H103.964V14.4238H106.692V1.44727ZM90.4287 11.416L91.6104 13.5645C97.5508 11.7168 100.354 8.21484 100.354 2.92969H91.4814V5.09961H97.4004C96.9922 7.93555 94.8652 10.1055 90.4287 11.416ZM92.4912 18.7422L93.5654 20.9121C96.6377 20.3965 98.8721 19.0107 100.064 17.1094C101.235 19.0107 103.448 20.3857 106.521 20.8906L107.616 18.7207C103.491 18.0869 101.429 15.8525 101.429 13.6289V12.9414H98.7217V13.6289C98.7002 15.8525 96.6484 18.1406 92.4912 18.7422ZM113.353 17.4102H110.302L109.228 23.5332H111.505L113.353 17.4102ZM138.103 8.83789H135.331V1.42578H132.581V20.9336H135.331V11.0723H138.103V8.83789ZM120.528 16.1641H122.226C125.104 16.1641 128.273 15.9922 131.55 15.3262L131.271 13.0488C128.445 13.6182 125.76 13.8545 123.257 13.8975V3.29492H120.528V16.1641ZM156.794 10.1914H138.897V12.2324H156.794V10.1914ZM140.938 15.0898H151.938V16.0781H140.96V20.8047H155.226V18.9355H143.688V17.8184H154.646V13.1992H140.938V15.0898ZM141.089 3.63867H151.874V4.62695H141.132V9.26758H154.968V7.41992H143.86V6.36719H154.624V1.76953H141.089V3.63867ZM170.2 5.85156V2.92969H167.45V5.85156C167.45 9.48242 165.893 13.2207 162.573 14.7461L164.271 16.959C166.483 15.8633 167.987 13.79 168.847 11.2656C169.652 13.6182 171.07 15.5518 173.165 16.5938L174.819 14.4023C171.683 12.8877 170.189 9.35352 170.2 5.85156ZM175.679 20.9766H178.429V11.2871H181.308V8.9668H178.429V1.42578H175.679V20.9766ZM197.528 1.44727H194.778V13.1562H197.528V8.25781H200.171V6.00195H197.528V1.44727ZM182.704 4.75586H189.021V6.36719H182.726V12.3828H184.38C188.344 12.3828 190.857 12.2861 193.661 11.7598L193.36 9.56836C190.868 10.0088 188.677 10.127 185.454 10.1484V8.42969H191.685V2.60742H182.704V4.75586ZM184.38 17.3027C184.38 19.6123 186.947 20.9551 191.083 20.9551C195.144 20.9551 197.711 19.6123 197.722 17.3027C197.711 14.9502 195.144 13.543 191.083 13.543C186.947 13.543 184.38 14.9502 184.38 17.3027ZM187.087 17.3027C187.065 16.2178 188.473 15.6592 191.083 15.6699C193.661 15.6592 195.015 16.2178 195.015 17.3027C195.015 18.3662 193.661 18.9141 191.083 18.9141C188.473 18.9141 187.065 18.3662 187.087 17.3027ZM216.456 1.42578H213.749V20.9766H216.456V11.3301H219.335V9.07422H216.456V1.42578ZM200.923 6.53906H212.417V4.34766H208.099V1.72656H205.349V4.34766H200.923V6.53906ZM201.718 12.2969C201.707 15.0254 203.834 16.9482 206.724 16.959C209.57 16.9482 211.708 15.0254 211.708 12.2969C211.708 9.56836 209.57 7.62402 206.724 7.63477C203.834 7.62402 201.707 9.56836 201.718 12.2969ZM204.339 12.2969C204.339 10.793 205.338 9.86914 206.724 9.84766C208.088 9.86914 209.087 10.793 209.087 12.2969C209.087 13.8115 208.088 14.7139 206.724 14.7031C205.338 14.7139 204.339 13.8115 204.339 12.2969ZM235.921 6.75391H224.985V2.11328H222.257V8.90234H235.921V6.75391ZM220.022 13.1562H237.919V11.0078H220.022V13.1562ZM222.085 20.5469H236.05V18.3555H224.835V14.7461H222.085V20.5469ZM247.716 2.41406H244.966V11.5664H254.269V8.12891H257.878V12.125H260.606V1.42578H257.878V5.89453H254.269V2.41406H251.562V4.92773H247.716V2.41406ZM247.565 20.7188H260.606V12.9414H257.878V14.7461H250.272V12.9414H247.565V20.7188ZM247.716 9.375V7.0332H251.562V9.375H247.716ZM250.272 18.5273V16.8516H257.878V18.5273H250.272Z" fill="#222222"/>
</svg>
