<svg width="24" height="24" viewBox="0 0 24 24" fill="none" xmlns="http://www.w3.org/2000/svg">
<circle cx="12" cy="12" r="12" fill="#6B47FD"/>
<path fill-rule="evenodd" clip-rule="evenodd" d="M12.3333 14.2226C12.0379 14.2226 11.7453 14.1651 11.4724 14.0534C11.1995 13.9418 10.9514 13.7781 10.7425 13.5717C10.5336 13.3654 10.3679 13.1204 10.2549 12.8508C10.1418 12.5812 10.0836 12.2923 10.0836 12.0005C10.0836 11.7087 10.1418 11.4197 10.2549 11.1501C10.3679 10.8805 10.5336 10.6355 10.7425 10.4292C10.9514 10.2228 11.1995 10.0592 11.4724 9.94749C11.7453 9.83582 12.0379 9.77834 12.3333 9.77834C12.93 9.77834 13.5022 10.0125 13.9241 10.4292C14.346 10.8459 14.5831 11.4111 14.5831 12.0005C14.5831 12.5898 14.346 13.155 13.9241 13.5717C13.5022 13.9885 12.93 14.2226 12.3333 14.2226ZM17.8759 13.1832C17.5673 12.8675 17.395 12.4457 17.3955 12.0068V11.9941C17.395 11.5553 17.5673 11.1334 17.8759 10.8177L18.4521 10.2299C18.6889 9.98744 18.7343 9.61895 18.5643 9.32744L17.7924 8.00744C17.7096 7.86534 17.5821 7.7538 17.4293 7.68971C17.2765 7.62562 17.1067 7.61248 16.9457 7.65228L16.1388 7.85107C15.7055 7.95822 15.247 7.89362 14.8613 7.67107L14.8503 7.66501C14.4704 7.44696 14.1909 7.09201 14.0704 6.67471L13.8397 5.88137C13.7942 5.72361 13.6979 5.58478 13.5654 5.48592C13.4328 5.38706 13.2713 5.33355 13.1052 5.3335H11.5614C11.2209 5.3335 10.9202 5.55713 10.827 5.88137L10.5785 6.73531C10.4694 7.11696 10.2129 7.44103 9.86425 7.63774C9.82824 7.65763 9.79264 7.67824 9.75748 7.69956C9.40768 7.90531 8.98963 7.96589 8.59473 7.86804L7.72036 7.65228C7.55939 7.61253 7.38969 7.62563 7.23692 7.68959C7.08415 7.75356 6.95662 7.86492 6.87361 8.00683L6.10233 9.32744C6.01937 9.46952 5.98546 9.6344 6.00571 9.79719C6.02597 9.95998 6.09929 10.1118 6.21462 10.2299L6.79078 10.8177C7.09941 11.1335 7.27183 11.5553 7.27183 11.9935V12.0068C7.27183 12.4456 7.09941 12.8674 6.79078 13.1832L6.48214 13.4983C6.28967 13.6949 6.16725 13.948 6.13337 14.2194C6.09949 14.4908 6.15601 14.7657 6.29438 15.0026L6.87422 15.9935C7.0448 16.2856 7.38964 16.4305 7.72098 16.3486L8.59534 16.1329C8.99024 16.035 9.40829 16.0956 9.7581 16.3014C9.79307 16.3226 9.82866 16.3432 9.86486 16.3632C10.214 16.5583 10.4686 16.8838 10.5791 17.2656L10.827 18.1196C10.9202 18.4438 11.2209 18.6668 11.5614 18.6668H13.1052C13.4458 18.6668 13.7464 18.4438 13.8397 18.1196L14.0876 17.2656C14.198 16.8838 14.4527 16.5583 14.8018 16.3632C14.838 16.3432 14.8736 16.3226 14.9086 16.3014C15.2584 16.0956 15.6764 16.035 16.0713 16.1329L16.9457 16.3486C17.1067 16.3884 17.2764 16.3753 17.4291 16.3113C17.5819 16.2474 17.7094 16.136 17.7924 15.9941L18.5643 14.6735C18.6473 14.5314 18.6812 14.3665 18.661 14.2037C18.6407 14.0409 18.5674 13.8891 18.4521 13.7711L17.8759 13.1832Z" fill="white"/>
</svg>
