<?xml version="1.0" encoding="utf-8"?>
<!-- Generator: Adobe Illustrator 26.5.0, SVG Export Plug-In . SVG Version: 6.00 Build 0)  -->
<svg version="1.1" id="레이어_1" xmlns="http://www.w3.org/2000/svg" xmlns:xlink="http://www.w3.org/1999/xlink" x="0px"
	 y="0px" viewBox="0 0 24 24" style="enable-background:new 0 0 24 24;" xml:space="preserve">
<style type="text/css">
	.st0{clip-path:url(#SVGID_00000134249970083175105370000009024528332062880397_);}
	.st1{fill-rule:evenodd;clip-rule:evenodd;fill:#6B47FD;}
</style>
<g>
	<defs>
		<rect id="SVGID_1_" width="24" height="24"/>
	</defs>
	<clipPath id="SVGID_00000087380495178078069700000018330144739389524413_">
		<use xlink:href="#SVGID_1_"  style="overflow:visible;"/>
	</clipPath>
	<g style="clip-path:url(#SVGID_00000087380495178078069700000018330144739389524413_);">
		<path class="st1" d="M24,12c0,6.6-5.4,12-12,12C5.4,24,0,18.6,0,12C0,5.4,5.4,0,12,0C18.6,0,24,5.4,24,12z M8.4,7.4
			c-0.6,0-1,0.4-1,1c0,0.6,0.4,1,1,1h0c0.6,0,1-0.4,1-1C9.4,7.8,9,7.4,8.4,7.4L8.4,7.4z M6.6,13.6C7,13.3,7.7,13.4,8,13.8l0,0
			c0,0,0,0,0,0.1c0,0.1,0.1,0.1,0.2,0.2c0.2,0.2,0.5,0.4,0.8,0.7c0.7,0.5,1.7,1,2.9,1c1.2,0,2.2-0.5,2.9-1c0.4-0.3,0.6-0.5,0.8-0.7
			c0.1-0.1,0.2-0.2,0.2-0.2c0,0,0,0,0-0.1l0,0c0.3-0.4,1-0.5,1.4-0.2c0.4,0.3,0.5,1,0.2,1.4l-0.8-0.6c0.8,0.6,0.8,0.6,0.8,0.6l0,0
			l0,0l0,0l0,0l0,0c0,0,0,0.1-0.1,0.1c-0.1,0.1-0.2,0.2-0.3,0.3c-0.2,0.3-0.6,0.6-1.1,0.9c-0.9,0.7-2.3,1.4-4.1,1.4
			c-1.8,0-3.2-0.7-4.1-1.4c-0.5-0.3-0.8-0.7-1.1-0.9c-0.1-0.1-0.2-0.2-0.3-0.3c0,0-0.1-0.1-0.1-0.1l0,0l0,0l0,0l0,0l0,0
			c0,0,0,0,0.8-0.6L6.4,15C6.1,14.6,6.2,13.9,6.6,13.6z M14.6,8.4c0-0.6,0.4-1,1-1h0c0.6,0,1,0.4,1,1c0,0.6-0.4,1-1,1h0
			C15,9.4,14.6,9,14.6,8.4z"/>
	</g>
</g>
</svg>
