<?xml version="1.0" encoding="utf-8"?>
<!-- Generator: Adobe Illustrator 26.5.0, SVG Export Plug-In . SVG Version: 6.00 Build 0)  -->
<svg version="1.1" id="레이어_1" xmlns="http://www.w3.org/2000/svg" xmlns:xlink="http://www.w3.org/1999/xlink" x="0px"
	 y="0px" viewBox="0 0 24 24" style="enable-background:new 0 0 24 24;" xml:space="preserve">
<style type="text/css">
	.st0{fill-rule:evenodd;clip-rule:evenodd;fill:#6B47FD;}
</style>
<path class="st0" d="M17.3,2.6h2.1c0.7,0,1.3,0.3,1.8,0.8C21.7,3.8,22,4.5,22,5.2v15c0,0.7-0.3,1.3-0.8,1.8
	c-0.5,0.5-1.1,0.8-1.8,0.8H4.6c-0.7,0-1.3-0.3-1.8-0.8C2.3,21.5,2,20.9,2,20.2v-15c0-0.7,0.3-1.3,0.8-1.8s1.1-0.8,1.8-0.8h2.1V1.3
	c0-0.3,0.1-0.7,0.4-0.9C7.3,0.1,7.6,0,8,0c0.3,0,0.7,0.1,0.9,0.4C9.1,0.6,9.3,1,9.3,1.3v1.3h5.5V1.3c0-0.3,0.1-0.7,0.4-0.9
	S15.7,0,16,0c0.3,0,0.7,0.1,0.9,0.4c0.2,0.2,0.4,0.6,0.4,0.9V2.6z M7.6,17.2c-0.3,0-0.5-0.2-0.5-0.5v-1.3c0-0.1,0-0.2,0.1-0.3
	l4.7-7.2c0.1-0.1,0.3-0.2,0.4-0.2h2c0.3,0,0.5,0.2,0.5,0.5v6.7h1c0.3,0,0.5,0.2,0.5,0.5v1.4c0,0.3-0.2,0.5-0.5,0.5h-1v1.6
	c0,0.3-0.2,0.5-0.5,0.5h-1.5c-0.3,0-0.5-0.2-0.5-0.5v-1.6H7.6z M10.1,14.8h2.1v-3.2L10.1,14.8z"/>
</svg>
