<?xml version="1.0" encoding="utf-8"?>
<!-- Generator: Adobe Illustrator 26.5.0, SVG Export Plug-In . SVG Version: 6.00 Build 0)  -->
<svg version="1.1" id="레이어_1" xmlns="http://www.w3.org/2000/svg" xmlns:xlink="http://www.w3.org/1999/xlink" x="0px"
	 y="0px" viewBox="0 0 24 24" style="enable-background:new 0 0 24 24;" xml:space="preserve">
<style type="text/css">
	.st0{fill-rule:evenodd;clip-rule:evenodd;fill:#6B47FD;}
</style>
<path class="st0" d="M17.3,2.6h2.1c0.7,0,1.3,0.3,1.8,0.8C21.7,3.8,22,4.5,22,5.2v15c0,0.7-0.3,1.3-0.8,1.8
	c-0.5,0.5-1.1,0.8-1.8,0.8H4.6c-0.7,0-1.3-0.3-1.8-0.8C2.3,21.5,2,20.9,2,20.2v-15c0-0.7,0.3-1.3,0.8-1.8s1.1-0.8,1.8-0.8h2.1V1.3
	c0-0.3,0.1-0.7,0.4-0.9C7.3,0.1,7.6,0,8,0c0.3,0,0.7,0.1,0.9,0.4C9.1,0.6,9.3,1,9.3,1.3v1.3h5.5V1.3c0-0.3,0.1-0.7,0.4-0.9
	S15.7,0,16,0c0.3,0,0.7,0.1,0.9,0.4c0.2,0.2,0.4,0.6,0.4,0.9V2.6z M12,19.4c-1.2,0-2.5-0.4-3.4-1.4c-1-1-1.6-2.6-1.6-4.8
	c0-2.1,0.5-3.8,1.4-5.1c0.9-1.2,2.2-1.9,3.8-1.9c2.4,0,4.2,1.5,4.5,3.7c0,0.2,0,0.2-0.1,0.3l0,0c-0.1,0.1-0.3,0.1-0.4,0.1h-1.8
	c-0.3,0-0.5,0-0.5-0.3c-0.1-0.4-0.3-0.7-0.5-0.9c-0.3-0.2-0.6-0.3-1.1-0.3c-0.7,0-1.3,0.3-1.7,0.9c-0.2,0.4-0.4,0.8-0.5,1.4
	c0.7-0.5,1.6-0.8,2.5-0.8h0c2.4,0,4.3,1.9,4.3,4.4C16.8,17.4,14.8,19.4,12,19.4z M12,16.8c1.1,0,1.9-0.9,1.9-1.9
	c0-1.1-0.8-1.9-1.9-1.9h0c-1.1,0-2,0.9-2,1.9C10.1,15.9,10.9,16.8,12,16.8z"/>
</svg>
