<?xml version="1.0" encoding="utf-8"?>
<!-- Generator: Adobe Illustrator 26.5.0, SVG Export Plug-In . SVG Version: 6.00 Build 0)  -->
<svg version="1.1" id="레이어_1" xmlns="http://www.w3.org/2000/svg" xmlns:xlink="http://www.w3.org/1999/xlink" x="0px"
	 y="0px" viewBox="0 0 24 24" style="enable-background:new 0 0 24 24;" xml:space="preserve">
<style type="text/css">
	.st0{fill-rule:evenodd;clip-rule:evenodd;fill:#6B47FD;}
</style>
<path class="st0" d="M7.4,14.5h1.7v-1.9H7.4V14.5L7.4,14.5z M7.4,10.5h1.7V8.7H7.4V10.5L7.4,10.5z M7.4,6.6h1.7V4.8H7.4V6.6L7.4,6.6
	z M11.2,14.5h1.7v-1.9h-1.7V14.5z M11.2,10.5h1.7V8.7h-1.7V10.5z M11.2,6.6h1.7V4.8h-1.7V6.6L11.2,6.6z M14.9,14.5h1.7v-1.9h-1.7
	V14.5z M14.9,10.5h1.7V8.7h-1.7V10.5z M14.9,6.6h1.7V4.8h-1.7V6.6L14.9,6.6z M19.1,1H4.9C4.8,1,4.7,1,4.6,1.1
	C4.5,1.1,4.4,1.2,4.3,1.3C4.2,1.4,4.1,1.5,4.1,1.6C4,1.8,4,1.9,4,2v19.7c0,0.3,0.1,0.7,0.3,0.9C4.5,22.9,4.8,23,5.1,23h5v-3.9
	c0-0.3,0.1-0.5,0.3-0.7c0.2-0.2,0.4-0.3,0.7-0.3h1.9c0.2,0,0.5,0.1,0.7,0.3c0.2,0.2,0.3,0.5,0.3,0.7V23h5c0.3,0,0.6-0.1,0.8-0.4
	c0.2-0.2,0.3-0.6,0.3-0.9V2c0-0.3-0.1-0.5-0.3-0.7C19.5,1.1,19.3,1,19.1,1z"/>
</svg>
