<svg width="24" height="24" viewBox="0 0 24 24" fill="none" xmlns="http://www.w3.org/2000/svg">
<path fill-rule="evenodd" clip-rule="evenodd" d="M16.9995 7.01327C16.9996 7.67169 16.8703 8.32367 16.6191 8.932C16.3679 9.54032 15.9997 10.0931 15.5355 10.5587C15.0713 11.0243 14.5202 11.3937 13.9137 11.6457C13.3072 11.8977 12.6571 12.0275 12.0005 12.0276C10.6746 12.0277 9.40287 11.4996 8.46519 10.5594C7.52751 9.61925 7.00065 8.34403 7.00051 7.01429C7.00044 6.35587 7.12969 5.70389 7.38088 5.09556C7.63206 4.48724 8.00027 3.93448 8.46447 3.46886C9.40196 2.5285 10.6735 2.00014 11.9995 2C13.3254 1.99986 14.5971 2.52797 15.5348 3.46814C16.4725 4.40831 16.9994 5.68353 16.9995 7.01327ZM12 13.5614C4.80053 13.5614 2 18.1562 2 20.2939C2 22.4305 7.9616 23 12 23C16.0384 23 22 22.4305 22 20.2939C22 18.1562 19.1995 13.5614 12 13.5614Z" fill="#929292"/>
</svg>
