<svg width="24" height="24" viewBox="0 0 24 24" fill="none" xmlns="http://www.w3.org/2000/svg">
<path fill-rule="evenodd" clip-rule="evenodd" d="M21 3.45239H3C2.73478 3.45239 2.48043 3.55753 2.29289 3.74467C2.10536 3.93181 2 4.18562 2 4.45028V5.30953C2 5.86182 2.44772 6.30954 3 6.30954H21C21.5523 6.30954 22 5.86182 22 5.30954V4.45028C22 4.18562 21.8946 3.93181 21.7071 3.74467C21.5196 3.55753 21.2652 3.45239 21 3.45239ZM3.176 19.1527C3.176 19.7877 3.42872 20.3967 3.87859 20.8458C4.32846 21.2949 4.93865 21.5474 5.575 21.5476H10V15.8968C10 15.6322 10.1054 15.3783 10.2929 15.1912C10.4804 15.0041 10.7348 14.8989 11 14.8989H13C13.2652 14.8989 13.5196 15.0041 13.7071 15.1912C13.8946 15.3783 14 15.6322 14 15.8968V21.5466H18.425C19.0613 21.5464 19.6715 21.2939 20.1214 20.8448C20.5713 20.3957 20.824 19.7867 20.824 19.1517V6.30954H3.176V19.1527Z" fill="#929292"/>
</svg>
