<svg width="24" height="24" viewBox="0 0 24 24" fill="none" xmlns="http://www.w3.org/2000/svg">
<g clip-path="url(#clip0_1388_8362)">
<path fill-rule="evenodd" clip-rule="evenodd" d="M4.34236 18.4316C5.16269 16.6159 7.51381 14.3592 12 14.3592C16.4862 14.3592 18.8373 16.6159 19.6576 18.4316C21.1194 16.6929 22 14.4493 22 12C22 6.47715 17.5228 2 12 2C6.47715 2 2 6.47715 2 12C2 14.4493 2.88055 16.6929 4.34236 18.4316ZM24 12C24 18.6274 18.6274 24 12 24C5.37258 24 0 18.6274 0 12C0 5.37258 5.37258 0 12 0C18.6274 0 24 5.37258 24 12ZM15.6953 10.6116C15.8962 10.1192 15.9996 9.59136 15.9996 9.05836C15.9995 7.9819 15.578 6.94958 14.8278 6.18849C14.0777 5.4274 13.0603 4.99989 11.9996 5C10.9388 5.00011 9.92156 5.42783 9.17157 6.18908C8.80021 6.56601 8.50565 7.01348 8.3047 7.50593C8.10375 7.99838 8.00035 8.52618 8.00041 9.05919C8.00052 10.1356 8.422 11.168 9.17215 11.9291C9.9223 12.6901 10.9397 13.1177 12.0004 13.1175C12.5256 13.1175 13.0457 13.0125 13.531 12.8084C14.0162 12.6044 14.4571 12.3054 14.8284 11.9285C15.1998 11.5515 15.4943 11.1041 15.6953 10.6116Z" fill="#929292"/>
</g>
<defs>
<clipPath id="clip0_1388_8362">
<rect width="24" height="24" fill="white"/>
</clipPath>
</defs>
</svg>
