<svg width="24" height="24" viewBox="0 0 24 24" fill="none" xmlns="http://www.w3.org/2000/svg">
<path fill-rule="evenodd" clip-rule="evenodd" d="M16.4905 8.97142L11.0671 14.7319L7.50993 10.9536C7.35801 10.7776 7.27593 10.546 7.28083 10.3072C7.28572 10.0685 7.3772 9.84092 7.53619 9.67205C7.69519 9.50317 7.90942 9.406 8.13422 9.40081C8.35901 9.39561 8.57702 9.48279 8.74278 9.64415L11.0671 12.1129L15.2576 7.66194C15.3386 7.57596 15.4347 7.50776 15.5404 7.46123C15.6462 7.41469 15.7596 7.39074 15.874 7.39074C15.9885 7.39074 16.1019 7.41469 16.2076 7.46123C16.3134 7.50776 16.4095 7.57596 16.4905 7.66194C16.5714 7.74793 16.6356 7.85 16.6794 7.96234C16.7232 8.07468 16.7458 8.19508 16.7458 8.31668C16.7458 8.43828 16.7232 8.55868 16.6794 8.67102C16.6356 8.78336 16.5714 8.88544 16.4905 8.97142V8.97142ZM20.8582 10.9228C20.949 10.8263 21 10.6955 21 10.5591C21 10.4228 20.949 10.292 20.8582 10.1955L19.454 8.70397C19.3937 8.6402 19.3505 8.56066 19.3285 8.47341C19.3066 8.38615 19.3068 8.29429 19.329 8.20713L19.8423 6.1704C19.8754 6.03863 19.8579 5.89829 19.7936 5.78023C19.7293 5.66218 19.6235 5.57608 19.4995 5.54087L17.5819 4.99568C17.4996 4.97226 17.4245 4.92615 17.3643 4.86203C17.3041 4.79791 17.2609 4.71805 17.2391 4.63051L16.7258 2.59378C16.6924 2.46195 16.6112 2.34956 16.4999 2.28129C16.3886 2.21302 16.2563 2.19444 16.1321 2.22964L14.2136 2.77586C14.1316 2.79917 14.0453 2.79909 13.9633 2.77561C13.8813 2.75213 13.8067 2.70608 13.7468 2.64213L12.3426 1.15059C12.2517 1.05417 12.1286 1 12.0002 1C11.8718 1 11.7487 1.05417 11.6579 1.15059L10.2536 2.64316C10.1935 2.70702 10.1186 2.75299 10.0365 2.77646C9.95444 2.79993 9.86798 2.80008 9.78582 2.77688L7.86826 2.22964C7.80677 2.21207 7.74262 2.20756 7.67948 2.21636C7.61635 2.22516 7.55546 2.24709 7.50032 2.28092C7.44518 2.31474 7.39685 2.35979 7.35812 2.41347C7.31939 2.46716 7.29101 2.52843 7.2746 2.59378L6.76035 4.63051C6.73846 4.71773 6.69535 4.7973 6.63534 4.86122C6.57533 4.92514 6.50054 4.97116 6.41848 4.99465L4.49996 5.54087C4.37609 5.5763 4.27052 5.66249 4.20642 5.78052C4.14233 5.89855 4.12494 6.03877 4.15809 6.1704L4.67138 8.20713C4.69363 8.29429 4.6938 8.38615 4.67186 8.47341C4.64992 8.56066 4.60665 8.6402 4.54645 8.70397L3.14218 10.1955C3.09711 10.2432 3.06136 10.2999 3.03696 10.3623C3.01256 10.4247 3 10.4916 3 10.5591C3 10.6267 3.01256 10.6936 3.03696 10.756C3.06136 10.8184 3.09711 10.8751 3.14218 10.9228L4.54645 12.4143C4.60665 12.4783 4.64991 12.558 4.67184 12.6454C4.69377 12.7328 4.69361 12.8249 4.67138 12.9122L4.15809 14.9489C4.12494 15.0805 4.14233 15.2208 4.20642 15.3388C4.27052 15.4568 4.37609 15.543 4.49996 15.5784L6.41848 16.1247C6.50054 16.1481 6.57533 16.1942 6.63534 16.2581C6.69535 16.322 6.73846 16.4016 6.76035 16.4888L7.27363 18.5255C7.29062 18.5915 7.31984 18.6533 7.35958 18.7072C7.39933 18.761 7.4488 18.806 7.50509 18.8393L5.70279 24H10.7223L11.9997 20.3401L13.2791 24H18.2976L16.4953 18.8393C16.5516 18.8061 16.601 18.7612 16.6406 18.7073C16.6802 18.6534 16.7092 18.5916 16.7258 18.5255L17.2391 16.4888C17.261 16.4014 17.3042 16.3217 17.3644 16.2578C17.4246 16.1938 17.4996 16.1479 17.5819 16.1247L19.4995 15.5795C19.561 15.562 19.6187 15.5319 19.6692 15.4908C19.7198 15.4496 19.7622 15.3983 19.794 15.3397C19.8259 15.2811 19.8465 15.2165 19.8548 15.1494C19.8631 15.0824 19.8588 15.0142 19.8423 14.9489L19.329 12.9122C19.3068 12.825 19.3066 12.7332 19.3285 12.6459C19.3505 12.5586 19.3937 12.4791 19.454 12.4153L20.8582 10.9238V10.9228Z" fill="#6B47FD"/>
</svg>
