<svg width="280" height="280" viewBox="0 0 280 280" fill="none" xmlns="http://www.w3.org/2000/svg">
<path d="M93.8287 230.961C107.03 209.036 128.035 211.786 138.153 222.147C147.558 231.776 147.661 248.288 137.404 258.661H65.7846V224.082C77.0706 224.082 85.5605 225.292 93.8271 230.961H93.8287Z" fill="#6E00E1" stroke="black" stroke-miterlimit="10"/>
<path fill-rule="evenodd" clip-rule="evenodd" d="M80.2148 42.2C81.7376 45.2904 82.154 48.1537 81.2455 51.477C80.4799 54.277 79.4657 55.6 78.6685 56.6308C70.9452 66.6171 63.0746 71.6437 52.2909 74.7322C51.5099 75.9444 50.3501 77.1195 48.9012 78.0719C45.2865 80.4479 41.2377 80.5371 39.8612 78.2706C39.5146 77.7014 39.3705 77.0362 39.4061 76.3239C36.7356 77.1811 34.2739 76.7921 33.2601 75.1233C32.2733 73.4985 32.926 71.1053 34.7069 69.0051C33.0916 66.0268 32.2839 60.4999 32.2839 54.5693C32.2839 45.4431 34.0357 36.0987 42.5916 32.9231C49.7719 30.2582 59.3674 30.1046 66.8147 31.8923C73.3936 33.4717 77.2242 36.1311 80.2148 42.2Z" fill="#B03EF5"/>
<path d="M81.2455 51.477L80.7632 51.3451L81.2455 51.477ZM80.2148 42.2L79.7663 42.421L80.2148 42.2ZM78.6685 56.6308L78.273 56.3249L78.6685 56.6308ZM52.2909 74.7322L51.8706 74.4614L51.9725 74.3033L52.1533 74.2516L52.2909 74.7322ZM48.9012 78.0719L48.6265 77.654L48.9012 78.0719ZM39.8612 78.2706L40.2882 78.0105L40.2885 78.011L39.8612 78.2706ZM39.4061 76.3239L39.2533 75.8479L39.9416 75.627L39.9055 76.3489L39.4061 76.3239ZM33.2601 75.1233L32.8328 75.3829L32.8328 75.3829L33.2601 75.1233ZM34.7069 69.0051L35.1464 68.7667L35.3095 69.0675L35.0882 69.3285L34.7069 69.0051ZM32.2839 54.5693L32.7839 54.5693L32.2839 54.5693ZM42.5916 32.9231L42.7656 33.3919L42.5916 32.9231ZM66.8147 31.8923L66.9314 31.4062V31.4062L66.8147 31.8923ZM80.7632 51.3451C81.6353 48.1551 81.2426 45.4171 79.7663 42.421L80.6633 41.979C82.2326 45.1637 82.6727 48.1524 81.7278 51.6088L80.7632 51.3451ZM78.273 56.3249C79.0503 55.3199 80.0219 54.0565 80.7632 51.3451L81.7278 51.6088C80.938 54.4974 79.8811 55.8802 79.0641 56.9367L78.273 56.3249ZM52.1533 74.2516C62.8358 71.192 70.6156 66.226 78.273 56.3249L79.0641 56.9367C71.2748 67.0082 63.3135 72.0954 52.4286 75.2129L52.1533 74.2516ZM48.6265 77.654C50.022 76.7367 51.1304 75.6102 51.8706 74.4614L52.7112 75.003C51.8894 76.2786 50.6781 77.5022 49.1758 78.4897L48.6265 77.654ZM40.2885 78.011C40.8503 78.936 41.9969 79.446 43.5309 79.4123C45.0572 79.3787 46.8832 78.8 48.6265 77.654L49.1758 78.4897C47.3044 79.7197 45.2987 80.3736 43.5529 80.412C41.8146 80.4503 40.2486 79.8717 39.4338 78.5301L40.2885 78.011ZM39.9055 76.3489C39.874 76.9777 40.0018 77.5401 40.2882 78.0105L39.4341 78.5306C39.0274 77.8627 38.8669 77.0948 38.9067 76.299L39.9055 76.3489ZM33.6874 74.8637C34.1031 75.5479 34.8304 75.9996 35.8026 76.1791C36.7789 76.3594 37.9766 76.2576 39.2533 75.8479L39.5589 76.8C38.165 77.2474 36.7967 77.3796 35.621 77.1625C34.4413 76.9447 33.4309 76.3675 32.8328 75.3829L33.6874 74.8637ZM35.0882 69.3285C33.3505 71.3779 32.8738 73.524 33.6875 74.8638L32.8328 75.3829C31.6728 73.473 32.5015 70.8328 34.3255 68.6817L35.0882 69.3285ZM32.7839 54.5693C32.7839 57.5136 32.9845 60.3506 33.3833 62.8144C33.7833 65.2863 34.3776 67.3491 35.1464 68.7667L34.2673 69.2435C33.4209 67.6828 32.8037 65.493 32.3961 62.9742C31.9872 60.4473 31.7839 57.5556 31.7839 54.5693L32.7839 54.5693ZM42.7656 33.3919C38.6492 34.9197 36.1627 37.9251 34.6953 41.696C33.2212 45.484 32.7839 50.0285 32.7839 54.5693L31.7839 54.5693C31.7839 49.9838 32.2225 45.2931 33.7633 41.3334C35.3108 37.3566 37.9781 34.1021 42.4177 32.4544L42.7656 33.3919ZM66.698 32.3785C59.3297 30.6097 49.8373 30.7672 42.7656 33.3919L42.4177 32.4544C49.7065 29.7491 59.4052 29.5994 66.9314 31.4062L66.698 32.3785ZM79.7663 42.421C78.2967 39.4388 76.6367 37.3251 74.5597 35.7621C72.4794 34.1966 69.9484 33.1588 66.698 32.3785L66.9314 31.4062C70.2599 32.2052 72.9336 33.2868 75.161 34.9631C77.3917 36.6418 79.1422 38.8923 80.6633 41.979L79.7663 42.421Z" fill="black"/>
<path d="M167.159 45.2922H274V178.978C274 185.671 268.129 191.098 260.887 191.098H204.667C211.909 191.098 217.78 185.671 217.78 178.978V170.693H174.048L177.14 130.579H167.159V45.2922Z" fill="#F2D9FF" stroke="black" stroke-miterlimit="10"/>
<path d="M185.749 191.098H260.677C254.08 191.098 248.731 185.763 248.731 179.181V132.478C248.731 124.669 242.386 118.338 234.56 118.338C226.733 118.338 220.388 124.669 220.388 132.478H173.802V179.178C173.802 185.76 179.15 191.096 185.747 191.096L185.749 191.098Z" fill="#871FBF" stroke="black" stroke-miterlimit="10"/>
<path d="M179.397 97.169C183.909 98.7188 188.421 100.267 192.933 101.817L206.469 97.169L220.005 101.817L233.541 97.169V90.5552L220.005 95.2029L206.469 90.5552L192.933 95.2029C188.421 93.6532 183.909 92.1049 179.397 90.5552V97.169Z" fill="#D092F1" stroke="black" stroke-miterlimit="10"/>
<path d="M179.597 62.6139C184.109 64.1636 188.621 65.7119 193.133 67.2616L206.669 62.6139L220.205 67.2616L233.741 62.6139L247.277 67.2616L260.813 62.6139V56L247.277 60.6477L233.741 56L220.205 60.6477L206.669 56L193.133 60.6477C188.621 59.098 184.109 57.5497 179.597 56V62.6139Z" fill="#D092F1" stroke="black" stroke-miterlimit="10"/>
<path d="M179.597 79.8897C184.109 81.4395 188.621 82.9877 193.133 84.5375L206.669 79.8897L220.205 84.5375L233.741 79.8897L247.277 84.5375L260.813 79.8897V73.2759L247.277 77.9236L233.741 73.2759L220.205 77.9236L206.669 73.2759L193.133 77.9236C188.621 76.3739 184.109 74.8256 179.597 73.2759V79.8897Z" fill="#D092F1" stroke="black" stroke-miterlimit="10"/>
<path fill-rule="evenodd" clip-rule="evenodd" d="M146.654 89.7108C147.712 88.7827 148.908 88.0082 150.205 87.4244C149.346 86.9289 148.627 86.2171 148.126 85.362C147.625 84.5069 147.341 83.5085 147.349 82.4425C147.361 80.845 148.026 79.385 149.088 78.3206C150.15 77.2563 151.607 76.5858 153.207 76.5672L167.294 76.4065L181.382 76.2458C182.981 76.2272 184.429 76.8651 185.475 77.9047C186.521 78.9442 187.163 80.3892 187.151 81.9867C187.139 83.5843 186.473 85.0433 185.412 86.1086C184.352 87.1739 182.893 87.8434 181.294 87.862L179.562 87.8815L177.83 87.9011C179.842 89.0895 181.522 90.7813 182.691 92.8053C183.861 94.8293 184.524 97.1836 184.504 99.6987L184.459 105.617L184.413 111.536C184.384 115.34 182.799 118.816 180.27 121.352C177.741 123.888 174.243 125.145 170.435 125.189L162.956 125.612L160.481 125.529C160.393 125.536 160.307 125.542 160.224 125.546L110.737 125.177C106.045 121.034 103.825 114.902 105.035 109.137C106.281 103.195 110.68 99.9826 111.807 99.2095C117.473 97.5667 123.139 95.9243 128.806 94.2819C134.475 92.6387 140.145 90.9955 145.814 89.3518C146.096 89.4704 146.376 89.5901 146.654 89.7108Z" fill="#F2D9C9"/>
<path d="M146.654 89.7108L146.983 90.0868L146.745 90.2957L146.455 90.1694L146.654 89.7108ZM150.205 87.4244L150.455 86.9913L151.3 87.4793L150.41 87.8803L150.205 87.4244ZM148.126 85.362L147.695 85.6148L147.695 85.6148L148.126 85.362ZM147.349 82.4425L146.849 82.4389V82.4387L147.349 82.4425ZM149.088 78.3206L149.442 78.6737L149.088 78.3206ZM153.207 76.5672L153.201 76.0673L153.201 76.0673L153.207 76.5672ZM167.294 76.4065L167.3 76.9065L167.294 76.4065ZM181.382 76.2458L181.387 76.7457L181.387 76.7457L181.382 76.2458ZM185.475 77.9047L185.827 77.55L185.475 77.9047ZM187.151 81.9867L187.651 81.9905L187.151 81.9867ZM181.294 87.862L181.3 88.362L181.3 88.362L181.294 87.862ZM179.562 87.8815L179.567 88.3815H179.567L179.562 87.8815ZM177.83 87.9011L177.576 88.3316L176.034 87.4213L177.824 87.4011L177.83 87.9011ZM182.691 92.8053L182.258 93.0555L182.691 92.8053ZM184.504 99.6987L184.004 99.6948L184.004 99.6948L184.504 99.6987ZM184.459 105.617L183.959 105.614V105.614L184.459 105.617ZM184.413 111.536L183.913 111.532L183.913 111.532L184.413 111.536ZM180.27 121.352L179.916 120.999L180.27 121.352ZM170.435 125.189L170.407 124.69L170.418 124.689L170.429 124.689L170.435 125.189ZM162.956 125.612L162.985 126.112L162.962 126.113L162.94 126.112L162.956 125.612ZM160.481 125.529L160.444 125.031L160.471 125.029L160.498 125.03L160.481 125.529ZM160.224 125.546L160.251 126.045L160.236 126.046L160.22 126.046L160.224 125.546ZM110.737 125.177L110.734 125.677L110.547 125.676L110.406 125.552L110.737 125.177ZM105.035 109.137L105.524 109.24L105.524 109.24L105.035 109.137ZM111.807 99.2095L111.524 98.7973L111.59 98.7517L111.667 98.7293L111.807 99.2095ZM128.806 94.2819L128.667 93.8017L128.806 94.2819ZM145.814 89.3518L145.675 88.8716L145.845 88.8222L146.008 88.891L145.814 89.3518ZM146.324 89.3349C147.419 88.3746 148.657 87.573 149.999 86.9685L150.41 87.8803C149.159 88.4435 148.005 89.1907 146.983 90.0868L146.324 89.3349ZM149.955 87.8575C149.021 87.3189 148.24 86.5451 147.695 85.6148L148.558 85.1092C149.015 85.8891 149.67 86.5389 150.455 86.9913L149.955 87.8575ZM147.695 85.6148C147.149 84.6838 146.841 83.597 146.849 82.4389L147.849 82.4461C147.842 83.4199 148.101 84.33 148.558 85.1092L147.695 85.6148ZM146.849 82.4387C146.862 80.7024 147.585 79.119 148.734 77.9675L149.442 78.6737C148.467 79.6509 147.86 80.9875 147.849 82.4462L146.849 82.4387ZM148.734 77.9675C149.882 76.8162 151.463 76.0874 153.201 76.0673L153.212 77.0672C151.752 77.0841 150.417 77.6964 149.442 78.6737L148.734 77.9675ZM153.201 76.0673L167.288 75.9065L167.3 76.9065L153.212 77.0672L153.201 76.0673ZM167.288 75.9065L181.376 75.7458L181.387 76.7457L167.3 76.9065L167.288 75.9065ZM181.376 75.7458C183.114 75.7256 184.69 76.4199 185.827 77.55L185.122 78.2594C184.167 77.3104 182.847 76.7288 181.387 76.7457L181.376 75.7458ZM185.827 77.55C186.965 78.6808 187.664 80.2537 187.651 81.9905L186.651 81.983C186.662 80.5247 186.077 79.2076 185.122 78.2594L185.827 77.55ZM187.651 81.9905C187.638 83.7272 186.914 85.3093 185.767 86.4614L185.058 85.7558C186.032 84.7773 186.641 83.4414 186.651 81.983L187.651 81.9905ZM185.767 86.4614C184.619 87.6142 183.037 88.3418 181.3 88.362L181.288 87.362C182.749 87.3451 184.085 86.7336 185.058 85.7558L185.767 86.4614ZM181.3 88.362L179.567 88.3815L179.556 87.3816L181.288 87.362L181.3 88.362ZM179.567 88.3815L177.835 88.4011L177.824 87.4011L179.556 87.3816L179.567 88.3815ZM178.084 87.4705C180.17 88.7025 181.912 90.4564 183.124 92.5552L182.258 93.0555C181.132 91.1063 179.514 89.4764 177.576 88.3316L178.084 87.4705ZM183.124 92.5552C184.337 94.6542 185.025 97.0959 185.004 99.7026L184.004 99.6948C184.023 97.2713 183.384 95.0044 182.258 93.0555L183.124 92.5552ZM185.004 99.7025L184.959 105.621L183.959 105.614L184.004 99.6948L185.004 99.7025ZM184.959 105.621L184.913 111.54L183.913 111.532L183.959 105.614L184.959 105.621ZM184.913 111.54C184.883 115.483 183.24 119.082 180.624 121.705L179.916 120.999C182.358 118.55 183.885 115.198 183.913 111.532L184.913 111.54ZM180.624 121.705C177.986 124.351 174.354 125.644 170.441 125.689L170.429 124.689C174.132 124.647 177.496 123.426 179.916 120.999L180.624 121.705ZM170.463 125.688L162.985 126.112L162.928 125.113L170.407 124.69L170.463 125.688ZM162.94 126.112L160.464 126.029L160.498 125.03L162.973 125.113L162.94 126.112ZM160.196 125.047C160.276 125.042 160.359 125.037 160.444 125.031L160.519 126.028C160.426 126.035 160.337 126.041 160.251 126.045L160.196 125.047ZM110.741 124.677L160.228 125.046L160.22 126.046L110.734 125.677L110.741 124.677ZM105.524 109.24C104.355 114.811 106.497 120.766 111.068 124.803L110.406 125.552C105.592 121.302 103.295 114.992 104.546 109.035L105.524 109.24ZM112.089 99.6218C110.99 100.376 106.729 103.493 105.524 109.24L104.546 109.035C105.833 102.897 110.37 99.589 111.524 98.7973L112.089 99.6218ZM128.945 94.7622C123.279 96.4045 117.612 98.0469 111.946 99.6897L111.667 98.7293C117.334 97.0864 123 95.4441 128.667 93.8017L128.945 94.7622ZM145.953 89.832C140.284 91.4757 134.614 93.119 128.945 94.7622L128.667 93.8017C134.336 92.1585 140.005 90.5153 145.675 88.8716L145.953 89.832ZM146.455 90.1694C146.178 90.0494 145.9 89.9305 145.62 89.8126L146.008 88.891C146.292 89.0103 146.573 89.1307 146.853 89.2522L146.455 90.1694Z" fill="black"/>
<path d="M165.197 88.0408C167.745 88.0408 166.396 88.0481 169.689 88.038L189.381 87.9745C192.675 87.9643 195.371 90.6504 195.373 93.9432C195.374 97.2361 192.681 99.9397 189.388 99.9498L172.642 100.566" fill="#F2D9C9"/>
<path d="M165.197 88.0408C167.745 88.0408 166.396 88.0481 169.689 88.038L189.381 87.9745C192.675 87.9643 195.371 90.6504 195.373 93.9432C195.374 97.2361 192.681 99.9397 189.388 99.9498L172.642 100.566" stroke="black" stroke-miterlimit="10"/>
<path d="M170.54 100.223L190.301 100.045C193.605 100.016 196.296 102.694 196.278 105.996C196.261 109.299 193.542 112.026 190.237 112.055L170.476 112.233" fill="#F2D9C9"/>
<path d="M170.54 100.223L190.301 100.045C193.605 100.016 196.296 102.694 196.278 105.996C196.261 109.299 193.542 112.026 190.237 112.055L170.476 112.233" stroke="black" stroke-miterlimit="10"/>
<path d="M166.293 112.287L186.054 112.109C189.358 112.079 192.049 114.758 192.031 118.06C192.014 121.362 189.295 124.089 185.99 124.119L174.967 124.119" fill="#F2D9C9"/>
<path d="M166.293 112.287L186.054 112.109C189.358 112.079 192.049 114.758 192.031 118.06C192.014 121.362 189.295 124.089 185.99 124.119L174.967 124.119" stroke="black" stroke-miterlimit="10"/>
<path d="M150.656 96.1053L147.679 96.1112C145.044 96.1164 142.903 93.6443 142.898 90.5895L142.869 72.5557C142.865 69.501 144.997 67.0204 147.633 67.0152L150.609 67.0093C153.245 67.0041 155.385 69.4762 155.39 72.5309L155.419 87.1318C155.424 90.1865 153.291 96.1001 150.656 96.1053Z" fill="#F2D9C9"/>
<path d="M155.392 87.5564L155.392 72.5307C155.387 69.476 153.246 67.0039 150.61 67.0091L147.634 67.015C144.999 67.0202 142.866 69.5008 142.871 72.5555L142.899 90.5894" stroke="black" stroke-miterlimit="10"/>
<path d="M155.429 106.67C160.59 106.67 164.773 102.296 164.773 96.901C164.773 91.5055 160.59 87.1316 155.429 87.1316" stroke="black"/>
<path d="M259.977 227.735C259.977 224.073 257.033 221.099 253.385 221.042C253.385 221.042 253.385 221.04 253.385 221.038C253.385 221.037 253.385 221.037 253.385 221.035C257.035 220.977 259.977 218.004 259.977 214.342C260.012 214.342 260.049 214.338 260.085 214.338C260.12 214.338 260.157 214.34 260.192 214.342C260.192 218.004 263.136 220.977 266.785 221.035C266.785 221.035 266.785 221.037 266.785 221.038C266.785 221.04 266.785 221.04 266.785 221.042C263.134 221.099 260.192 224.073 260.192 227.735C260.157 227.735 260.12 227.738 260.085 227.738C260.049 227.738 260.012 227.737 259.977 227.735Z" fill="#FFDD46" stroke="black" stroke-miterlimit="10"/>
<path d="M127.008 46.3199C127.008 42.6576 124.064 39.6841 120.415 39.6263C120.415 39.6263 120.415 39.6247 120.415 39.6231C120.415 39.6215 120.415 39.6215 120.415 39.6199C124.066 39.5621 127.008 36.5886 127.008 32.9263C127.043 32.9263 127.08 32.9231 127.115 32.9231C127.151 32.9231 127.188 32.9247 127.223 32.9263C127.223 36.5886 130.167 39.5621 133.815 39.6199C133.815 39.6199 133.815 39.6215 133.815 39.6231C133.815 39.6247 133.815 39.6247 133.815 39.6263C130.165 39.6841 127.223 42.6576 127.223 46.3199C127.188 46.3199 127.151 46.3231 127.115 46.3231C127.08 46.3231 127.043 46.3215 127.008 46.3199Z" fill="#FFDD46" stroke="black" stroke-miterlimit="10"/>
<path d="M205.853 209.181C205.853 205.519 202.683 202.546 198.754 202.488C198.754 202.488 198.754 202.486 198.754 202.485C198.754 202.483 198.754 202.483 198.754 202.481C202.685 202.424 205.853 199.45 205.853 195.788C205.891 195.788 205.931 195.785 205.969 195.785C206.007 195.785 206.047 195.786 206.085 195.788C206.085 199.45 209.255 202.424 213.185 202.481C213.185 202.481 213.185 202.483 213.185 202.485C213.185 202.486 213.185 202.486 213.185 202.488C209.253 202.546 206.085 205.519 206.085 209.181C206.047 209.181 206.007 209.185 205.969 209.185C205.931 209.185 205.891 209.183 205.853 209.181Z" fill="#FFDD46" stroke="black" stroke-miterlimit="10"/>
<path d="M156.7 135.044V118.34H235.322C227.984 118.34 222.035 124.276 222.035 131.598V135.044H222.047V233.616H158.192V135.044H156.7Z" fill="#D092F1" stroke="black" stroke-miterlimit="10"/>
<path d="M130.275 118.338H235.381C224.766 118.338 216.161 126.922 216.16 137.514C216.16 137.514 216.16 229.828 216.16 242.394C202.194 242.394 205.95 242.394 193.356 242.394C180.761 242.394 190.855 242.394 170.552 242.394H111.054V137.517C111.054 126.925 119.659 118.338 130.275 118.338Z" fill="#F2D9FF" stroke="black" stroke-miterlimit="10"/>
<path d="M12.5923 215.366C12.5923 211.704 9.64861 208.73 5.9999 208.672C5.9999 208.672 5.9999 208.671 5.9999 208.669C5.9999 208.668 5.9999 208.668 5.9999 208.666C9.65022 208.608 12.5923 205.635 12.5923 201.972C12.6276 201.972 12.6646 201.969 12.6999 201.969C12.7352 201.969 12.7722 201.971 12.8075 201.972C12.8075 205.635 15.7512 208.608 19.3999 208.666C19.3999 208.666 19.3999 208.668 19.3999 208.669C19.3999 208.671 19.3999 208.671 19.3999 208.672C15.7496 208.73 12.8075 211.704 12.8075 215.366C12.7722 215.366 12.7352 215.369 12.6999 215.369C12.6646 215.369 12.6276 215.368 12.5923 215.366Z" fill="#FFDD46" stroke="black" stroke-miterlimit="10"/>
<path d="M206.377 266.904C206.377 263.242 203.433 260.269 199.785 260.211C199.785 260.211 199.785 260.209 199.785 260.208C199.785 260.206 199.785 260.206 199.785 260.204C203.435 260.147 206.377 257.173 206.377 253.511C206.412 253.511 206.449 253.508 206.485 253.508C206.52 253.508 206.557 253.509 206.592 253.511C206.592 257.173 209.536 260.147 213.185 260.204C213.185 260.204 213.185 260.206 213.185 260.208C213.185 260.209 213.185 260.209 213.185 260.211C209.534 260.269 206.592 263.242 206.592 266.904C206.557 266.904 206.52 266.908 206.485 266.908C206.449 266.908 206.412 266.906 206.377 266.904Z" fill="#FFDD46" stroke="black" stroke-miterlimit="10"/>
<path d="M229.054 18.4891C229.054 14.8268 226.11 11.8533 222.462 11.7955C222.462 11.7955 222.462 11.7939 222.462 11.7923C222.462 11.7907 222.462 11.7907 222.462 11.7891C226.112 11.7313 229.054 8.75778 229.054 5.0955C229.089 5.0955 229.126 5.09229 229.162 5.09229C229.197 5.09229 229.234 5.09389 229.269 5.0955C229.269 8.75778 232.213 11.7313 235.862 11.7891C235.862 11.7891 235.862 11.7907 235.862 11.7923C235.862 11.7939 235.862 11.7939 235.862 11.7955C232.211 11.8533 229.269 14.8268 229.269 18.4891C229.234 18.4891 229.197 18.4923 229.162 18.4923C229.126 18.4923 229.089 18.4907 229.054 18.4891Z" fill="#FFDD46" stroke="black" stroke-miterlimit="10"/>
<path d="M52.3847 232.892V149.4H78.9061C94.1308 203.515 101.862 231.861 101.862 231.861C101.862 231.861 65.8066 232.892 52.3863 232.892H52.3847Z" fill="#B03EF5" stroke="black" stroke-miterlimit="10"/>
<path d="M59.3925 226.968C60.6153 224.968 64.7538 226.968 64.7538 226.968C78.4229 210.507 97.382 213.703 106.957 223.359C116.728 233.212 116.836 250.108 106.179 260.723H31.7692V225.339C43.4949 225.339 50.8039 221.167 59.3925 226.968Z" fill="#6E00E1"/>
<path d="M59.3925 226.968C50.8039 221.167 43.4949 225.339 31.7692 225.339V260.723H106.179C116.836 250.108 116.728 233.212 106.957 223.359C97.382 213.703 78.4229 210.507 64.7538 226.968M59.3925 226.968C60.6153 224.968 64.7538 226.968 64.7538 226.968M59.3925 226.968H64.7538" stroke="black" stroke-miterlimit="10"/>
<rect x="-0.5" y="0.5" width="9" height="28" transform="matrix(-1 0 0 1 118 95)" fill="#F2D9FF" stroke="black"/>
<path d="M31.7693 227.223V139.092L78.6692 149.4C78.6692 149.4 71.6465 162.564 63.92 168.469C63.92 172.077 63.8768 169.463 63.92 173.108C64.1317 190.97 63.9353 207.741 64.7538 227.223C45.859 227.223 47.7345 227.223 31.7693 227.223Z" stroke="black" stroke-miterlimit="10"/>
<rect x="-0.323807" y="0.628609" width="23.4809" height="10.3385" transform="matrix(-0.952416 0.304801 0.304801 0.952416 69.7514 143.344)" fill="#F2D9FF" stroke="black"/>
<path d="M31.7693 227.223V140.123H63.3176C63.4989 144.445 63.6303 157.909 63.7274 162.006C63.8166 165.773 63.8768 169.463 63.92 173.108C64.1318 190.97 63.9354 207.741 64.7539 227.223C45.8591 227.223 47.7346 227.223 31.7693 227.223Z" fill="#B03EF5"/>
<path d="M31.7693 140.123V227.223C47.7346 227.223 45.8591 227.223 64.7539 227.223C63.9354 207.741 64.1318 190.97 63.92 173.108C63.8768 169.463 63.92 171.645 63.92 167.954" stroke="black" stroke-miterlimit="10"/>
<path fill-rule="evenodd" clip-rule="evenodd" d="M32.8644 103.081C32.8644 104.372 32.9394 105.624 33.0794 106.819L28.6767 137.534C28.6767 140.672 31.2064 143.215 34.3278 143.215H43.1074L47.7459 158.161L72.5025 152.492C75.2816 152.492 75.1404 143.132 75.076 138.864C75.0681 138.338 75.0613 137.89 75.0613 137.546L75.0613 124H113V94H73.1249C72.8033 91.7229 66.3633 89.9044 63.2733 89.9044C61.2668 89.9044 59.502 90.6718 58.4754 91.8313L45.9916 87.5537C44.9651 87.5537 44.0018 87.8318 43.1719 88.3127C39.7139 88.8807 32.8644 95.2761 32.8644 103.081Z" fill="#D092F1"/>
<path d="M33.0794 106.819L33.576 106.76L33.5836 106.825L33.5744 106.89L33.0794 106.819ZM28.6767 137.534H28.1767V137.498L28.1817 137.463L28.6767 137.534ZM43.1074 143.215V142.715H43.4758L43.585 143.067L43.1074 143.215ZM47.7459 158.161L47.8575 158.649L47.4057 158.752L47.2684 158.31L47.7459 158.161ZM72.5025 152.492L72.3909 152.005L72.4459 151.992H72.5025V152.492ZM75.076 138.864L74.576 138.872L75.076 138.864ZM75.0613 137.546H75.5613H75.0613ZM75.0613 124H74.5613V123.5H75.0613V124ZM113 124H113.5V124.5H113V124ZM113 94V93.5H113.5V94H113ZM73.1249 94V94.5H72.6906L72.6299 94.0699L73.1249 94ZM58.4754 91.8313L58.8498 92.1627L58.6288 92.4123L58.3133 92.3043L58.4754 91.8313ZM45.9916 87.5537V87.0537H46.0749L46.1537 87.0807L45.9916 87.5537ZM43.1719 88.3127L43.4226 88.7453L43.3433 88.7913L43.253 88.8061L43.1719 88.3127ZM32.5828 106.877C32.4406 105.663 32.3644 104.392 32.3644 103.081H33.3644C33.3644 104.353 33.4383 105.585 33.576 106.76L32.5828 106.877ZM28.1817 137.463L32.5845 106.748L33.5744 106.89L29.1716 137.605L28.1817 137.463ZM34.3278 143.715C30.9277 143.715 28.1767 140.945 28.1767 137.534H29.1767C29.1767 140.398 31.4851 142.715 34.3278 142.715V143.715ZM43.1074 143.715H34.3278V142.715H43.1074V143.715ZM47.2684 158.31L42.6299 143.363L43.585 143.067L48.2234 158.013L47.2684 158.31ZM72.6141 152.98L47.8575 158.649L47.6343 157.674L72.3909 152.005L72.6141 152.98ZM75.5759 138.856C75.608 140.985 75.6605 144.422 75.3528 147.331C75.1994 148.78 74.953 150.139 74.5505 151.148C74.1639 152.117 73.5349 152.992 72.5025 152.992V151.992C72.8596 151.992 73.2551 151.697 73.6216 150.778C73.9723 149.898 74.2076 148.65 74.3583 147.226C74.6586 144.388 74.6083 141.011 74.576 138.872L75.5759 138.856ZM75.5613 137.546C75.5613 137.885 75.568 138.329 75.5759 138.856L74.576 138.872C74.5681 138.347 74.5613 137.895 74.5613 137.546H75.5613ZM75.5613 124L75.5613 137.546H74.5613L74.5613 124H75.5613ZM75.0613 123.5H113V124.5H75.0613V123.5ZM112.5 124V94H113.5V124H112.5ZM113 94.5H73.1249V93.5H113V94.5ZM63.2733 89.4044C64.8898 89.4044 67.3308 89.8743 69.4079 90.6283C70.4483 91.006 71.4251 91.4647 72.1722 91.9905C72.8991 92.5021 73.5096 93.1483 73.62 93.9301L72.6299 94.0699C72.5795 93.7132 72.2643 93.2781 71.5967 92.8083C70.9493 92.3527 70.0627 91.9299 69.0666 91.5683C67.0708 90.8438 64.7468 90.4044 63.2733 90.4044V89.4044ZM58.1011 91.4998C59.2382 90.2155 61.1491 89.4044 63.2733 89.4044V90.4044C61.3846 90.4044 59.7658 91.1281 58.8498 92.1627L58.1011 91.4998ZM46.1537 87.0807L58.6375 91.3583L58.3133 92.3043L45.8296 88.0267L46.1537 87.0807ZM42.9212 87.8801C43.8243 87.3568 44.8736 87.0537 45.9916 87.0537V88.0537C45.0565 88.0537 44.1794 88.3069 43.4226 88.7453L42.9212 87.8801ZM32.3644 103.081C32.3644 99.0328 34.1384 95.3751 36.333 92.6681C37.4321 91.3124 38.6452 90.184 39.813 89.3547C40.9722 88.5314 42.1208 87.9787 43.0909 87.8193L43.253 88.8061C42.494 88.9308 41.4897 89.3904 40.392 90.17C39.303 90.9434 38.1554 92.0081 37.1098 93.2978C35.0152 95.8816 33.3644 99.3239 33.3644 103.081H32.3644Z" fill="black"/>
<path d="M18.7771 25.7044C18.7771 22.0421 15.8334 19.0686 12.1847 19.0108C12.1847 19.0108 12.1847 19.0092 12.1847 19.0076C12.1847 19.006 12.1847 19.006 12.1847 19.0044C15.835 18.9466 18.7771 15.9731 18.7771 12.3108C18.8125 12.3108 18.8494 12.3076 18.8847 12.3076C18.92 12.3076 18.957 12.3092 18.9923 12.3108C18.9923 15.9731 21.936 18.9466 25.5847 19.0044C25.5847 19.0044 25.5847 19.006 25.5847 19.0076C25.5847 19.0092 25.5847 19.0092 25.5847 19.0108C21.9344 19.0686 18.9923 22.0421 18.9923 25.7044C18.957 25.7044 18.92 25.7076 18.8847 25.7076C18.8494 25.7076 18.8125 25.706 18.7771 25.7044Z" fill="#FFDD46" stroke="black" stroke-miterlimit="10"/>
<path d="M44.8629 52.1454C45.1598 52.1627 45.4501 52.1938 45.7385 52.2375C45.0734 53.8732 44.6633 55.641 44.557 57.4968L44.0989 65.5012C43.9921 67.3554 44.1986 69.1586 44.6736 70.8604C44.3824 70.871 44.0898 70.8699 43.7929 70.8526C38.626 70.5584 34.6764 66.1329 34.9734 60.9672C35.2703 55.8014 39.6964 51.8528 44.8638 52.1486L44.8629 52.1454Z" fill="#F2D9C9" stroke="black" stroke-miterlimit="10"/>
<path d="M50.3891 75.4616L65.2219 77.6763L64.0982 85.1879L49.2654 82.9732L50.3891 75.4616Z" fill="#F2D9C9" stroke="black" stroke-miterlimit="10"/>
<path d="M39.0402 63.7775C41.8328 63.9368 44.5628 65.1537 46.5599 67.3916C48.5569 69.6295 49.4556 72.4798 49.2956 75.2715" stroke="black" stroke-miterlimit="10"/>
<path d="M61.4447 38.992L61.5798 38.9997C70.6967 39.5195 77.6644 47.3293 77.1427 56.4432L76.6768 64.581C76.155 73.695 68.3413 80.6619 59.2244 80.1421L59.0893 80.1344C49.9724 79.6145 43.0046 71.8048 43.5264 62.6908L43.9923 54.553C44.514 45.439 52.3278 38.4721 61.4447 38.992Z" fill="#F2D9C9" stroke="black" stroke-miterlimit="10"/>
<path d="M74.3158 61.3884C73.5449 61.5949 72.7526 61.1377 72.5462 60.3671C72.3397 59.5966 72.7972 58.8044 73.5681 58.5979C74.339 58.3913 75.1312 58.8486 75.3377 59.6191C75.5442 60.3897 75.0867 61.1818 74.3158 61.3884Z" fill="black"/>
<path d="M63.6036 60.6093C62.8328 60.8159 62.0405 60.3586 61.834 59.5881C61.6275 58.8175 62.0851 58.0254 62.8559 57.8188C63.6268 57.6123 64.4191 58.0695 64.6256 58.8401C64.832 59.6106 64.3745 60.4028 63.6036 60.6093Z" fill="black"/>
<path d="M71.671 65.3958L72.4473 65.4402C73.1851 65.4828 73.8216 64.9147 73.8643 64.1771C73.9071 63.4395 73.3389 62.8035 72.6011 62.7608L71.8247 62.7164" fill="#F2D9C9"/>
<path d="M71.671 65.3958L72.4473 65.4402C73.1851 65.4828 73.8216 64.9147 73.8643 64.1771C73.9071 63.4395 73.3389 62.8035 72.6011 62.7608L71.8247 62.7164" stroke="black" stroke-miterlimit="10"/>
<path d="M60.849 67.5106C61.3778 67.9671 61.9503 68.3738 62.5574 68.7228C63.1646 69.0719 63.8085 69.3644 64.4785 69.5929C65.1485 69.8213 65.8462 69.9853 66.5634 70.0802C67.2806 70.175 68.0181 70.1969 68.766 70.1417C69.5139 70.0866 70.2399 69.956 70.936 69.7591C71.6321 69.5622 72.2979 69.2974 72.9286 68.9728" fill="#F2D9C9"/>
<path d="M60.849 67.5106C61.3778 67.9671 61.9503 68.3738 62.5574 68.7228C63.1646 69.0719 63.8085 69.3644 64.4785 69.5929C65.1485 69.8213 65.8462 69.9853 66.5634 70.0802C67.2806 70.175 68.0181 70.1969 68.766 70.1417C69.5139 70.0866 70.2399 69.956 70.936 69.7591C71.6321 69.5622 72.2979 69.2974 72.9286 68.9728" stroke="black" stroke-miterlimit="10"/>
<path d="M59.001 68.2928C59.1961 68.2785 59.3897 68.2457 59.5801 68.1947C59.7705 68.1437 59.9541 68.0737 60.1329 67.986C60.3118 67.8984 60.4806 67.7926 60.6415 67.67C60.8023 67.5474 60.9527 67.4051 61.0902 67.2472C61.2274 67.0877 61.3449 66.9196 61.4445 66.7425C61.544 66.5655 61.6228 66.3818 61.6829 66.1929" fill="#F2D9C9"/>
<path d="M59.001 68.2928C59.1961 68.2785 59.3897 68.2457 59.5801 68.1947C59.7705 68.1437 59.9541 68.0737 60.1329 67.986C60.3118 67.8984 60.4806 67.7926 60.6415 67.67C60.8023 67.5474 60.9527 67.4051 61.0902 67.2472C61.2274 67.0877 61.3449 66.9196 61.4445 66.7425C61.544 66.5655 61.6228 66.3818 61.6829 66.1929" stroke="black" stroke-miterlimit="10"/>
<path d="M66.1584 83.3631C60.2119 82.8826 54.2649 82.4006 48.3184 81.9201C47.3586 84.4898 46.397 87.06 45.4371 89.6297C51.8981 91.0608 58.3609 92.4914 64.8219 93.9225C65.2672 90.4022 65.7131 86.8834 66.16 83.3626L66.1584 83.3631Z" fill="#D092F1" stroke="black" stroke-miterlimit="10"/>
<path d="M75.0615 99.9231L75.0615 147.338" stroke="black"/>
<path d="M67.3308 50.4462C68.6936 47.8518 69.3868 46.4874 70.4231 43.7462C70.9651 42.3124 70.9385 39.6231 70.9385 39.6231L54.4462 34.4692L37.9539 45.8077L43.6231 63.3308L45.6846 62.3C45.6846 62.3 54.8357 61.2471 59.6 58.1769C63.189 55.8642 65.3452 54.226 67.3308 50.4462Z" fill="#B03EF5"/>
<path d="M39.4998 49.9307L43.6229 63.3307L45.6844 62.3C45.6844 62.3 54.8355 61.2471 59.5998 58.1769C63.1887 55.8641 65.345 54.2259 67.3306 50.4461C68.6934 47.8518 69.3866 46.4873 70.4229 43.7461C70.9649 42.3123 70.9383 39.623 70.9383 39.623" stroke="black"/>
<path d="M68.8126 52.9671C67.7064 52.2968 66.1111 51.9785 64.2945 52.1731C62.4764 52.3682 60.7676 53.0416 59.4767 53.9684" stroke="black" stroke-miterlimit="10"/>
<path d="M77.0637 53.9351C76.4466 52.9987 75.5842 52.34 74.6258 52.1845C73.6666 52.0292 72.7859 52.4061 72.1383 53.1369" stroke="black" stroke-miterlimit="10"/>
<path d="M45.1692 149.4L32.8 106.108" stroke="black"/>
<path d="M62.8985 106.108L73.0005 140L65.0005 142" stroke="black"/>
<path d="M123.197 137.378C127.709 138.927 132.221 140.476 136.733 142.025L150.269 137.378L163.805 142.025L177.341 137.378L190.877 142.025L204.413 137.378V130.764L190.877 135.411L177.341 130.764L163.805 135.411L150.269 130.764L136.733 135.411C132.221 133.862 127.709 132.313 123.197 130.764V137.378Z" fill="#D092F1" stroke="black" stroke-miterlimit="10"/>
<path d="M123 154.648C127.512 156.198 132.024 157.746 136.536 159.296L150.072 154.648L163.608 159.296L177.144 154.648V148.034L163.608 152.682L150.072 148.034L136.536 152.682C132.024 151.132 127.512 149.584 123 148.034V154.648Z" fill="#D092F1" stroke="black" stroke-miterlimit="10"/>
<path d="M53.7095 140.54C52.5831 141.313 48.1842 144.525 46.938 150.467C45.728 156.232 47.9476 162.364 52.6404 166.508C69.1359 166.63 85.6313 166.753 102.127 166.876C103.42 166.805 105.439 166.502 107.398 165.241C107.398 165.241 111.851 162.374 112.695 155.369C113.642 147.513 79.6238 167.808 72.9238 135.854C60.9238 138.354 56.9237 139.354 53.7095 140.54Z" fill="#F2D9FF" stroke="black" stroke-miterlimit="10"/>
<path fill-rule="evenodd" clip-rule="evenodd" d="M92.679 135.164C93.7375 134.236 94.9335 133.461 96.23 132.878C95.3713 132.382 94.6528 131.67 94.1516 130.815C93.6505 129.96 93.3667 128.962 93.3744 127.896C93.3863 126.298 94.0517 124.838 95.1133 123.774C96.1749 122.709 97.6329 122.039 99.2319 122.02L113.319 121.86L127.407 121.699C129.006 121.68 130.454 122.318 131.5 123.358C132.546 124.397 133.189 125.842 133.177 127.44C133.165 129.037 132.499 130.496 131.438 131.562C130.377 132.627 128.918 133.297 127.319 133.315L125.587 133.335L123.855 133.354C125.868 134.543 127.547 136.234 128.717 138.258C129.886 140.282 130.549 142.637 130.53 145.152L130.484 151.07L130.438 156.989C130.41 160.793 128.824 164.269 126.295 166.805C123.766 169.341 120.268 170.599 116.461 170.642L108.982 171.066L106.509 170.983C106.42 170.989 106.333 170.995 106.249 170.999L56.7628 170.631C52.0699 166.487 49.8504 160.355 51.0604 154.591C52.3066 148.648 56.7055 145.436 57.8319 144.663C63.5014 143.019 69.1708 141.376 74.8403 139.733C80.5067 138.09 86.1731 136.448 91.8396 134.805C92.1212 134.924 92.401 135.043 92.679 135.164Z" fill="#F2D9C9"/>
<path d="M92.679 135.164L93.0086 135.54L92.7704 135.749L92.4798 135.623L92.679 135.164ZM96.23 132.878L96.4799 132.444L97.3257 132.932L96.4353 133.333L96.23 132.878ZM93.3744 127.896L92.8744 127.892L92.8744 127.892L93.3744 127.896ZM95.1133 123.774L94.7593 123.421L94.7593 123.421L95.1133 123.774ZM99.2319 122.02L99.2261 121.52L99.2262 121.52L99.2319 122.02ZM113.319 121.86L113.325 122.36L113.319 121.86ZM127.407 121.699L127.413 122.199L127.413 122.199L127.407 121.699ZM131.5 123.358L131.148 123.712L131.5 123.358ZM133.177 127.44L132.677 127.436L133.177 127.44ZM127.319 133.315L127.325 133.815L127.325 133.815L127.319 133.315ZM125.587 133.335L125.593 133.835L125.593 133.835L125.587 133.335ZM123.855 133.354L123.601 133.785L122.059 132.874L123.85 132.854L123.855 133.354ZM128.717 138.258L128.284 138.509L128.717 138.258ZM130.53 145.152L130.03 145.148L130.03 145.148L130.53 145.152ZM130.484 151.07L129.984 151.067L130.484 151.07ZM130.438 156.989L129.938 156.985L129.938 156.985L130.438 156.989ZM126.295 166.805L125.941 166.452L126.295 166.805ZM116.461 170.642L116.432 170.143L116.444 170.142L116.455 170.142L116.461 170.642ZM108.982 171.066L109.01 171.565L108.987 171.566L108.965 171.565L108.982 171.066ZM106.509 170.983L106.472 170.484L106.499 170.482L106.526 170.483L106.509 170.983ZM106.249 170.999L106.277 171.499L106.261 171.5L106.245 171.499L106.249 170.999ZM56.7628 170.631L56.7591 171.131L56.5721 171.129L56.4319 171.006L56.7628 170.631ZM51.0604 154.591L51.5498 154.693L51.5498 154.693L51.0604 154.591ZM57.8319 144.663L57.549 144.251L57.6154 144.205L57.6927 144.183L57.8319 144.663ZM74.8403 139.733L74.9795 140.213L74.8403 139.733ZM91.8396 134.805L91.7004 134.325L91.8704 134.276L92.0336 134.344L91.8396 134.805ZM92.3493 134.788C93.4445 133.828 94.6823 133.026 96.0247 132.422L96.4353 133.333C95.1848 133.897 94.0306 134.644 93.0086 135.54L92.3493 134.788ZM95.9801 133.311C95.0467 132.772 94.2655 131.998 93.7202 131.068L94.583 130.562C95.0401 131.342 95.6959 131.992 96.4799 132.444L95.9801 133.311ZM93.7202 131.068C93.1746 130.137 92.866 129.05 92.8744 127.892L93.8744 127.899C93.8673 128.873 94.1263 129.783 94.583 130.562L93.7202 131.068ZM92.8744 127.892C92.8874 126.156 93.6107 124.572 94.7593 123.421L95.4673 124.127C94.4927 125.104 93.8853 126.441 93.8744 127.899L92.8744 127.892ZM94.7593 123.421C95.9077 122.269 97.4885 121.541 99.2261 121.52L99.2377 122.52C97.7772 122.537 96.4422 123.15 95.4673 124.127L94.7593 123.421ZM99.2262 121.52L113.314 121.36L113.325 122.36L99.2376 122.52L99.2262 121.52ZM113.314 121.36L127.401 121.199L127.413 122.199L113.325 122.36L113.314 121.36ZM127.401 121.199C129.14 121.179 130.715 121.873 131.853 123.003L131.148 123.712C130.193 122.763 128.872 122.182 127.413 122.199L127.401 121.199ZM131.853 123.003C132.991 124.134 133.69 125.707 133.677 127.444L132.677 127.436C132.688 125.978 132.102 124.661 131.148 123.712L131.853 123.003ZM133.677 127.444C133.664 129.18 132.939 130.762 131.792 131.915L131.084 131.209C132.058 130.23 132.666 128.895 132.677 127.436L133.677 127.444ZM131.792 131.915C130.644 133.067 129.062 133.795 127.325 133.815L127.313 132.815C128.774 132.798 130.11 132.187 131.084 131.209L131.792 131.915ZM127.325 133.815L125.593 133.835L125.582 132.835L127.314 132.815L127.325 133.815ZM125.593 133.835L123.861 133.854L123.85 132.854L125.582 132.835L125.593 133.835ZM124.109 132.924C126.196 134.156 127.937 135.909 129.15 138.008L128.284 138.509C127.158 136.559 125.54 134.93 123.601 133.785L124.109 132.924ZM129.15 138.008C130.362 140.107 131.05 142.549 131.03 145.156L130.03 145.148C130.049 142.724 129.41 140.458 128.284 138.509L129.15 138.008ZM131.03 145.156L130.984 151.074L129.984 151.067L130.03 145.148L131.03 145.156ZM130.984 151.074L130.938 156.993L129.938 156.985L129.984 151.067L130.984 151.074ZM130.938 156.993C130.908 160.936 129.265 164.535 126.649 167.159L125.941 166.452C128.383 164.003 129.911 160.651 129.938 156.985L130.938 156.993ZM126.649 167.159C124.011 169.804 120.379 171.097 116.466 171.142L116.455 170.142C120.157 170.1 123.521 168.879 125.941 166.452L126.649 167.159ZM116.489 171.142L109.01 171.565L108.953 170.566L116.432 170.143L116.489 171.142ZM108.965 171.565L106.492 171.482L106.526 170.483L108.998 170.566L108.965 171.565ZM106.222 170.5C106.302 170.496 106.386 170.49 106.472 170.484L106.547 171.481C106.454 171.488 106.363 171.494 106.277 171.499L106.222 170.5ZM56.7665 170.131L106.253 170.499L106.245 171.499L56.7591 171.131L56.7665 170.131ZM51.5498 154.693C50.3802 160.265 52.5223 166.22 57.0937 170.256L56.4319 171.006C51.6176 166.755 49.3206 160.445 50.5711 154.488L51.5498 154.693ZM58.1148 145.075C57.0156 145.83 52.7549 148.947 51.5498 154.693L50.5711 154.488C51.8583 148.35 56.3953 145.042 57.549 144.251L58.1148 145.075ZM74.9795 140.213C69.31 141.856 63.6406 143.499 57.9711 145.143L57.6927 144.183C63.3622 142.539 69.0317 140.896 74.7011 139.253L74.9795 140.213ZM91.9788 135.285C86.3123 136.928 80.6459 138.571 74.9795 140.213L74.7011 139.253C80.3675 137.61 86.0339 135.968 91.7004 134.325L91.9788 135.285ZM92.4798 135.623C92.2036 135.503 91.9255 135.384 91.6456 135.266L92.0336 134.344C92.317 134.464 92.5985 134.584 92.8782 134.706L92.4798 135.623Z" fill="black"/>
<path d="M111.224 133.494C113.772 133.494 112.422 133.501 115.716 133.491L135.408 133.428C138.701 133.417 141.398 136.104 141.4 139.396C141.401 142.689 138.708 145.393 135.414 145.403L118.669 146.02" fill="#F2D9C9"/>
<path d="M111.224 133.494C113.772 133.494 112.422 133.501 115.716 133.491L135.408 133.428C138.701 133.417 141.398 136.104 141.4 139.396C141.401 142.689 138.708 145.393 135.414 145.403L118.669 146.02" stroke="black" stroke-miterlimit="10"/>
<path d="M116.566 145.676L136.327 145.498C139.632 145.469 142.322 148.147 142.305 151.449C142.287 154.752 139.568 157.479 136.264 157.508L116.503 157.686" fill="#F2D9C9"/>
<path d="M116.566 145.676L136.327 145.498C139.632 145.469 142.322 148.147 142.305 151.449C142.287 154.752 139.568 157.479 136.264 157.508L116.503 157.686" stroke="black" stroke-miterlimit="10"/>
<path d="M112.319 157.74L132.08 157.562C135.385 157.532 138.075 160.211 138.058 163.513C138.04 166.815 135.322 169.542 132.017 169.572L120.994 169.572" fill="#F2D9C9"/>
<path d="M112.319 157.74L132.08 157.562C135.385 157.532 138.075 160.211 138.058 163.513C138.04 166.815 135.322 169.542 132.017 169.572L120.994 169.572" stroke="black" stroke-miterlimit="10"/>
<path d="M96.6826 141.558L93.7065 141.564C91.0708 141.57 88.9301 139.097 88.9253 136.043L88.8965 118.009C88.8916 114.954 91.0244 112.474 93.6601 112.468L96.6362 112.462C99.2719 112.457 101.413 114.929 101.417 117.984L101.532 122.066C101.537 125.12 99.3184 141.553 96.6826 141.558Z" fill="#F2D9C9"/>
<path d="M101.431 121.981L101.529 117.531C101.524 114.476 99.3833 112.004 96.7476 112.009L93.7715 112.015C91.1357 112.02 89.003 114.501 89.0079 117.556L89.0366 135.59" stroke="black" stroke-miterlimit="10"/>
</svg>
