<svg width="359" height="213" viewBox="0 0 359 213" fill="none" xmlns="http://www.w3.org/2000/svg">
<g clip-path="url(#clip0_1574_3018)">
<path d="M179.5 197.67C224.147 197.67 260.34 161.363 260.34 116.578C260.34 71.7917 224.147 35.4856 179.5 35.4856C134.854 35.4856 98.6602 71.7917 98.6602 116.578C98.6602 161.363 134.854 197.67 179.5 197.67Z" fill="#CDE8FF" stroke="black" stroke-miterlimit="10"/>
<path d="M179.501 155.521L6.33105 212.863H352.669L179.501 155.521Z" fill="#6B9FDD" stroke="black" stroke-miterlimit="10"/>
<path d="M33.499 82.416C33.499 82.416 33.499 82.4173 33.499 82.4186C33.499 82.4199 33.5003 82.4225 33.5016 82.4238C33.5016 82.4212 33.499 82.4186 33.499 82.416Z" fill="#2E80EF" stroke="black" stroke-miterlimit="10"/>
<path d="M63.4602 102.968C62.192 102.65 61.4899 102.141 61.1852 101.894C58.5918 99.7951 58.9278 95.8424 58.9945 95.179C48.6386 95.2118 38.5181 89.5107 34.1641 83.9023C39.0012 92.8587 46.4616 97.1335 51.8797 100.087C53.375 100.902 57.559 102.08 62.0982 102.85C62.9077 102.988 63.6534 103.076 64.316 103.134C64.0303 103.094 63.7432 103.039 63.4588 102.968H63.4602Z" fill="#2E80EF" stroke="black" stroke-miterlimit="10"/>
<path d="M65.6211 103.218C65.8293 103.226 66.0225 103.232 66.1994 103.236C66.1926 103.224 66.1844 103.211 66.1762 103.198C65.9912 103.209 65.8061 103.217 65.6211 103.218Z" fill="#2E80EF" stroke="black" stroke-miterlimit="10"/>
<path d="M34.3941 84.313C34.3261 84.1915 34.2581 84.0728 34.1914 83.95C34.2567 84.0714 34.3248 84.1929 34.3941 84.313Z" fill="#9AC6FF" stroke="black" stroke-miterlimit="10"/>
<path d="M65.6211 103.218C65.632 103.218 65.6415 103.218 65.6524 103.218C65.7653 103.218 65.8783 103.213 65.9912 103.207C66.032 103.206 66.0728 103.203 66.1137 103.2C69.8446 102.985 73.3142 100.761 74.4163 100.015C72.1427 99.7471 64.1693 98.5269 57.7688 91.6656C52.8827 86.4272 51.4581 80.6319 50.9969 78.1342C49.2797 78.5245 46.87 78.8521 44.0385 78.5368C38.5061 77.9226 34.6528 75.2256 32.9316 73.8389C32.2009 77.3275 32.6554 79.9276 33.1996 81.6242C33.4513 82.4104 33.7765 83.1706 34.1684 83.9049C38.5238 89.5119 48.6416 95.213 58.9961 95.1789C58.9295 95.8422 58.5934 99.7949 61.1868 101.894C61.4916 102.141 62.1936 102.65 63.4618 102.968C63.7461 103.039 64.0319 103.094 64.319 103.133C64.304 103.133 64.289 103.131 64.2754 103.129C64.7258 103.193 65.1775 103.221 65.6266 103.217C65.6266 103.217 65.6238 103.217 65.6225 103.217L65.6211 103.218ZM33.499 82.4185C33.499 82.4185 33.499 82.4172 33.499 82.4158C33.499 82.4185 33.5017 82.4213 33.5017 82.424C33.5017 82.4226 33.5003 82.4199 33.499 82.4185Z" fill="#9AC6FF" stroke="black" stroke-miterlimit="10"/>
<path d="M208.106 195.028C206.665 195.973 204.628 197.076 202.03 197.824C197.518 199.124 193.63 198.689 191.465 198.271C192.084 199.258 197.014 206.836 206.297 207.74C213.701 208.46 218.998 204.461 220.541 203.259C226.757 198.411 228.221 191.723 228.547 189.987C225.305 195.475 219.845 198.647 214.596 198.008C211.571 197.639 209.349 196.094 208.104 195.028H208.106Z" fill="#9AC6FF" stroke="black" stroke-miterlimit="10"/>
<path d="M219.733 184.892C221.034 185.018 223.701 185.469 226.187 187.452C227.259 188.306 228.02 189.224 228.546 189.988C228.206 191.802 227.436 194.667 225.528 197.701C223.844 200.382 221.91 202.175 220.54 203.26C221.289 201.635 222.468 198.501 222.38 194.421C222.281 189.846 220.637 186.473 219.733 184.89V184.892Z" fill="#2E80EF" stroke="black" stroke-miterlimit="10"/>
<path d="M81.6973 191.773C81.6973 191.773 81.6986 191.773 81.6999 191.773C81.7012 191.773 81.7037 191.772 81.705 191.771C81.7025 191.771 81.6999 191.773 81.6973 191.773Z" fill="#2E80EF" stroke="black" stroke-miterlimit="10"/>
<path d="M102.186 161.718C101.869 162.99 101.361 163.695 101.115 164C99.0221 166.602 95.0817 166.265 94.4204 166.198C94.453 176.586 88.7696 186.738 83.1787 191.106C92.1073 186.254 96.3688 178.77 99.3133 173.335C100.126 171.835 101.3 167.638 102.067 163.085C102.205 162.273 102.293 161.525 102.35 160.86C102.311 161.146 102.256 161.434 102.186 161.72V161.718Z" fill="#2E80EF" stroke="black" stroke-miterlimit="10"/>
<path d="M102.434 159.551C102.443 159.342 102.448 159.148 102.452 158.971C102.44 158.978 102.428 158.986 102.414 158.994C102.425 159.18 102.433 159.365 102.434 159.551Z" fill="#2E80EF" stroke="black" stroke-miterlimit="10"/>
<path d="M83.5895 190.875C83.4684 190.943 83.35 191.012 83.2275 191.079C83.3486 191.013 83.4697 190.945 83.5895 190.875Z" fill="#9AC6FF" stroke="black" stroke-miterlimit="10"/>
<path d="M102.435 159.551C102.435 159.54 102.435 159.531 102.435 159.52C102.435 159.406 102.43 159.293 102.425 159.18C102.423 159.139 102.42 159.098 102.418 159.057C102.203 155.315 99.9862 151.834 99.242 150.729C98.9753 153.009 97.7588 161.007 90.9189 167.428C85.6967 172.329 79.9194 173.758 77.4294 174.221C77.8186 175.943 78.1451 178.361 77.8308 181.201C77.2185 186.751 74.5299 190.616 73.1475 192.343C76.6253 193.075 79.2173 192.62 80.9086 192.074C81.6923 191.821 82.4502 191.495 83.1822 191.102C88.7718 186.733 94.4552 176.584 94.4212 166.197C95.0825 166.264 99.0229 166.601 101.116 163.999C101.362 163.694 101.869 162.989 102.186 161.717C102.257 161.432 102.312 161.145 102.351 160.857C102.351 160.872 102.348 160.887 102.347 160.901C102.411 160.449 102.438 159.996 102.434 159.546C102.434 159.546 102.434 159.548 102.434 159.55L102.435 159.551ZM81.7005 191.773C81.7005 191.773 81.6991 191.773 81.6978 191.773C81.7005 191.773 81.7032 191.771 81.7059 191.771C81.7046 191.771 81.7018 191.772 81.7005 191.773Z" fill="#9AC6FF" stroke="black" stroke-miterlimit="10"/>
<path d="M109.104 134.803C109.104 134.803 109.104 134.804 109.104 134.806C109.104 134.807 109.105 134.809 109.106 134.811C109.106 134.808 109.104 134.806 109.104 134.803Z" fill="#2E80EF" stroke="black" stroke-miterlimit="10"/>
<path d="M139.067 155.355C137.798 155.037 137.096 154.528 136.792 154.281C134.198 152.182 134.534 148.229 134.601 147.566C124.245 147.599 114.125 141.898 109.771 136.289C114.608 145.246 122.068 149.521 127.486 152.474C128.981 153.289 133.165 154.467 137.705 155.237C138.514 155.375 139.26 155.463 139.922 155.521C139.637 155.481 139.35 155.426 139.065 155.355H139.067Z" fill="#2E80EF" stroke="black" stroke-miterlimit="10"/>
<path d="M141.226 155.605C141.434 155.613 141.627 155.619 141.804 155.623C141.797 155.611 141.789 155.598 141.781 155.585C141.596 155.596 141.411 155.604 141.226 155.605Z" fill="#2E80EF" stroke="black" stroke-miterlimit="10"/>
<path d="M109.999 136.7C109.931 136.579 109.863 136.46 109.796 136.337C109.861 136.459 109.929 136.58 109.999 136.7Z" fill="#9AC6FF" stroke="black" stroke-miterlimit="10"/>
<path d="M141.226 155.605C141.236 155.605 141.246 155.605 141.257 155.605C141.37 155.605 141.483 155.6 141.596 155.594C141.637 155.593 141.677 155.59 141.718 155.588C145.449 155.372 148.919 153.148 150.021 152.402C147.747 152.134 139.774 150.914 133.373 144.053C128.487 138.814 127.063 133.019 126.601 130.521C124.884 130.912 122.475 131.239 119.643 130.924C114.111 130.31 110.257 127.613 108.536 126.226C107.805 129.715 108.26 132.315 108.804 134.011C109.056 134.798 109.381 135.558 109.773 136.292C114.128 141.899 124.246 147.6 134.601 147.566C134.534 148.229 134.198 152.182 136.791 154.281C137.096 154.528 137.798 155.037 139.066 155.355C139.351 155.426 139.636 155.481 139.923 155.521C139.908 155.521 139.894 155.518 139.88 155.517C140.33 155.581 140.782 155.608 141.231 155.604C141.231 155.604 141.228 155.604 141.227 155.604L141.226 155.605ZM109.103 134.806C109.103 134.806 109.103 134.804 109.103 134.803C109.103 134.806 109.106 134.808 109.106 134.811C109.106 134.81 109.105 134.807 109.103 134.806Z" fill="#9AC6FF" stroke="black" stroke-miterlimit="10"/>
<path d="M303.221 195.948C303.221 195.948 303.221 195.948 303.218 195.948C303.217 195.948 303.214 195.947 303.213 195.946C303.215 195.946 303.218 195.948 303.221 195.948Z" fill="#2E80EF" stroke="black" stroke-miterlimit="10"/>
<path d="M267.547 202.669C268.667 201.993 269.522 201.857 269.913 201.815C273.226 201.46 275.775 204.493 276.195 205.01C283.495 197.641 294.67 194.495 301.702 195.371C291.968 192.469 283.68 194.738 277.767 196.493C276.135 196.978 272.346 199.112 268.593 201.787C267.924 202.264 267.334 202.73 266.824 203.159C267.054 202.984 267.295 202.819 267.547 202.669Z" fill="#2E80EF" stroke="black" stroke-miterlimit="10"/>
<path d="M265.844 204.024C265.691 204.166 265.55 204.3 265.424 204.423C265.437 204.427 265.452 204.43 265.466 204.434C265.588 204.295 265.714 204.158 265.844 204.026V204.024Z" fill="#2E80EF" stroke="black" stroke-miterlimit="10"/>
<path d="M301.251 195.243C301.384 195.281 301.516 195.317 301.65 195.356C301.518 195.317 301.384 195.278 301.251 195.243Z" fill="#9AC6FF" stroke="black" stroke-miterlimit="10"/>
<path d="M265.845 204.025C265.838 204.031 265.831 204.04 265.823 204.046C265.744 204.127 265.666 204.21 265.592 204.293C265.564 204.323 265.536 204.355 265.509 204.385C263.021 207.183 262.136 211.218 261.884 212.526C263.68 211.103 270.178 206.311 279.541 206.622C286.688 206.859 291.78 209.948 293.867 211.387C294.806 209.892 296.28 207.953 298.504 206.166C302.849 202.676 307.475 201.85 309.67 201.61C307.727 198.624 305.573 197.109 303.992 196.294C303.26 195.917 302.494 195.61 301.699 195.368C294.667 194.492 283.494 197.64 276.195 205.007C275.773 204.491 273.226 201.457 269.913 201.812C269.522 201.854 268.668 201.991 267.547 202.666C267.295 202.818 267.056 202.982 266.824 203.156C266.835 203.147 266.847 203.137 266.858 203.128C266.495 203.402 266.156 203.702 265.842 204.023C265.842 204.023 265.843 204.022 265.845 204.02V204.025ZM303.22 195.947C303.22 195.947 303.22 195.947 303.223 195.947C303.22 195.947 303.218 195.944 303.215 195.944C303.216 195.944 303.219 195.946 303.22 195.947Z" fill="#9AC6FF" stroke="black" stroke-miterlimit="10"/>
<path d="M251.811 131.331C251.459 133.022 250.795 135.245 249.486 137.616C247.212 141.735 244.156 144.186 242.33 145.427C243.463 145.686 252.291 147.548 259.493 141.601C265.237 136.86 266.163 130.276 266.407 128.331C267.385 120.492 263.706 114.725 262.713 113.266C264.29 119.447 262.665 125.561 258.503 128.833C256.104 130.718 253.444 131.202 251.812 131.331H251.811Z" fill="#9AC6FF" stroke="black" stroke-miterlimit="10"/>
<path d="M252.887 115.916C253.895 115.083 256.1 113.511 259.255 113.148C260.616 112.991 261.801 113.1 262.711 113.268C263.749 114.792 265.224 117.365 266.013 120.862C266.711 123.952 266.609 126.593 266.405 128.332C265.787 126.652 264.415 123.6 261.476 120.777C258.18 117.614 254.64 116.393 252.886 115.916H252.887Z" fill="#2E80EF" stroke="black" stroke-miterlimit="10"/>
<path d="M300.711 171.484C300.711 171.484 300.711 171.486 300.711 171.487C300.711 171.488 300.712 171.491 300.714 171.492C300.714 171.49 300.711 171.487 300.711 171.484Z" fill="#2E80EF" stroke="black" stroke-miterlimit="10"/>
<path d="M330.672 192.037C329.404 191.719 328.702 191.21 328.397 190.963C325.804 188.863 326.14 184.911 326.206 184.247C315.851 184.28 305.73 178.579 301.376 172.971C306.213 181.927 313.674 186.202 319.092 189.156C320.587 189.97 324.771 191.148 329.31 191.918C330.12 192.056 330.865 192.145 331.528 192.202C331.242 192.162 330.955 192.108 330.671 192.037H330.672Z" fill="#2E80EF" stroke="black" stroke-miterlimit="10"/>
<path d="M332.833 192.285C333.041 192.293 333.234 192.299 333.411 192.303C333.404 192.291 333.396 192.278 333.388 192.265C333.203 192.276 333.018 192.284 332.833 192.285Z" fill="#2E80EF" stroke="black" stroke-miterlimit="10"/>
<path d="M301.606 173.382C301.538 173.26 301.47 173.141 301.403 173.019C301.469 173.14 301.537 173.262 301.606 173.382Z" fill="#9AC6FF" stroke="black" stroke-miterlimit="10"/>
<path d="M332.833 192.285C332.844 192.285 332.853 192.285 332.864 192.285C332.977 192.285 333.09 192.28 333.203 192.274C333.244 192.273 333.285 192.27 333.326 192.267C337.056 192.052 340.526 189.828 341.628 189.082C339.355 188.814 331.381 187.594 324.981 180.733C320.095 175.494 318.67 169.699 318.209 167.201C316.492 167.592 314.082 167.919 311.25 167.604C305.718 166.99 301.865 164.293 300.143 162.906C299.413 166.395 299.867 168.995 300.412 170.691C300.663 171.477 300.988 172.238 301.38 172.972C305.736 178.579 315.854 184.28 326.208 184.246C326.141 184.909 325.805 188.862 328.399 190.961C328.703 191.208 329.406 191.717 330.674 192.035C330.958 192.106 331.244 192.161 331.531 192.201C331.516 192.201 331.501 192.198 331.487 192.196C331.938 192.261 332.389 192.288 332.838 192.284C332.838 192.284 332.836 192.284 332.834 192.284L332.833 192.285ZM300.711 171.486C300.711 171.486 300.711 171.484 300.711 171.483C300.711 171.486 300.714 171.488 300.714 171.491C300.714 171.49 300.712 171.487 300.711 171.486Z" fill="#9AC6FF" stroke="black" stroke-miterlimit="10"/>
<path d="M22.6504 56.6467C22.6504 56.6467 22.6504 56.6467 22.653 56.6467C22.6543 56.6467 22.6569 56.648 22.6582 56.6493C22.6556 56.6493 22.653 56.6467 22.6504 56.6467Z" fill="#2E80EF" stroke="black" stroke-miterlimit="10"/>
<path d="M58.3239 49.9274C57.2041 50.6031 56.3483 50.7396 55.9578 50.7819C52.6446 51.1367 50.0961 48.104 49.6756 47.5867C42.3758 54.9557 31.2008 58.1018 24.1689 57.2255C33.903 60.1272 42.1907 57.8588 48.1041 56.1036C49.7355 55.619 53.5249 53.4843 57.2776 50.8092C57.947 50.3328 58.5362 49.866 59.0464 49.4375C58.8165 49.6122 58.5756 49.7773 58.3239 49.9274Z" fill="#2E80EF" stroke="black" stroke-miterlimit="10"/>
<path d="M60.0273 48.5708C60.1811 48.4289 60.3212 48.2951 60.4478 48.1723C60.4342 48.1682 60.4192 48.1655 60.4056 48.1614C60.2831 48.3006 60.158 48.4371 60.0273 48.5695V48.5708Z" fill="#2E80EF" stroke="black" stroke-miterlimit="10"/>
<path d="M24.6203 57.3538C24.487 57.3155 24.355 57.2801 24.2217 57.2405C24.3537 57.2801 24.487 57.3183 24.6203 57.3538Z" fill="#9AC6FF" stroke="black" stroke-miterlimit="10"/>
<path d="M60.0272 48.5707C60.034 48.5639 60.0408 48.5557 60.049 48.5489C60.1279 48.4684 60.2055 48.3851 60.2803 48.3018C60.3075 48.2718 60.3361 48.2404 60.3633 48.2104C62.8506 45.4124 63.7364 41.3778 63.9881 40.0688C62.192 41.4924 55.6936 46.2845 46.331 45.9733C39.1835 45.7359 34.0919 42.6471 32.0047 41.2085C31.0659 42.7031 29.5923 44.6426 27.3676 46.4292C23.0231 49.9192 18.3969 50.745 16.2021 50.9852C18.1452 53.9716 20.2991 55.4866 21.8801 56.3014C22.6122 56.6781 23.3782 56.9852 24.1728 57.2268C31.2046 58.1031 42.3783 54.9557 49.6768 47.588C50.0986 48.1039 52.6457 51.1381 55.9589 50.7832C56.3494 50.7409 57.2039 50.6044 58.3251 49.9288C58.5768 49.7773 58.8163 49.6135 59.0476 49.4388C59.0367 49.4483 59.0244 49.4579 59.0136 49.4675C59.3769 49.1931 59.7156 48.8928 60.03 48.5721C60.03 48.5721 60.0286 48.5735 60.0272 48.5748V48.5707ZM22.6516 56.6481C22.6516 56.6481 22.6516 56.6481 22.6489 56.6481C22.6516 56.6481 22.6543 56.6508 22.6571 56.6508C22.6557 56.6508 22.653 56.6495 22.6516 56.6481Z" fill="#9AC6FF" stroke="black" stroke-miterlimit="10"/>
<path d="M318.133 121.989C317.781 123.68 317.117 125.904 315.808 128.275C313.534 132.394 310.478 134.845 308.652 136.086C309.786 136.345 318.614 138.207 325.816 132.26C331.559 127.518 332.485 120.934 332.729 118.989C333.707 111.151 330.028 105.384 329.035 103.925C330.612 110.105 328.987 116.22 324.825 119.492C322.426 121.376 319.766 121.861 318.135 121.989H318.133Z" fill="#9AC6FF" stroke="black" stroke-miterlimit="10"/>
<path d="M319.209 106.573C320.218 105.74 322.422 104.168 325.577 103.805C326.938 103.648 328.123 103.757 329.033 103.925C330.071 105.45 331.546 108.022 332.336 111.519C333.034 114.609 332.932 117.25 332.727 118.989C332.11 117.309 330.737 114.257 327.798 111.435C324.502 108.271 320.962 107.051 319.208 106.573H319.209Z" fill="#2E80EF" stroke="black" stroke-miterlimit="10"/>
<path d="M111.4 36.2308C108.296 36.2308 105.777 33.729 105.728 30.6279C105.728 30.6279 105.726 30.6279 105.725 30.6279C105.724 30.6279 105.723 30.6279 105.722 30.6279C105.673 33.7303 103.153 36.2308 100.05 36.2308C100.05 36.2608 100.047 36.2922 100.047 36.3222C100.047 36.3523 100.048 36.3837 100.05 36.4137C103.153 36.4137 105.673 38.9155 105.722 42.0165C105.722 42.0165 105.724 42.0165 105.725 42.0165C105.726 42.0165 105.726 42.0165 105.728 42.0165C105.777 38.9142 108.296 36.4137 111.4 36.4137C111.4 36.3837 111.403 36.3523 111.403 36.3222C111.403 36.2922 111.401 36.2608 111.4 36.2308Z" fill="#FFDF46" stroke="black" stroke-miterlimit="10"/>
<path d="M53.4802 16.4647C50.3766 16.4647 47.8566 13.9628 47.8077 10.8618C47.8077 10.8618 47.8063 10.8618 47.8049 10.8618C47.8036 10.8618 47.8036 10.8618 47.8022 10.8618C47.7532 13.9642 45.2333 16.4647 42.1297 16.4647C42.1297 16.4947 42.127 16.5261 42.127 16.5561C42.127 16.5861 42.1283 16.6175 42.1297 16.6476C45.2333 16.6476 47.7532 19.1494 47.8022 22.2504C47.8022 22.2504 47.8036 22.2504 47.8049 22.2504C47.8063 22.2504 47.8063 22.2504 47.8077 22.2504C47.8566 19.148 50.3766 16.6476 53.4802 16.6476C53.4802 16.6175 53.4829 16.5861 53.4829 16.5561C53.4829 16.5261 53.4816 16.4947 53.4802 16.4647Z" fill="#FFDF46" stroke="black" stroke-miterlimit="10"/>
<path d="M134.924 8.05549C131.82 8.05549 129.3 5.55366 129.251 2.45264C129.251 2.45264 129.25 2.45264 129.248 2.45264C129.247 2.45264 129.247 2.45264 129.246 2.45264C129.197 5.55502 126.677 8.05549 123.573 8.05549C123.573 8.08552 123.57 8.11691 123.57 8.14694C123.57 8.17697 123.572 8.20836 123.573 8.23839C126.677 8.23839 129.197 10.7402 129.246 13.8412C129.246 13.8412 129.247 13.8412 129.248 13.8412C129.25 13.8412 129.25 13.8412 129.251 13.8412C129.3 10.7389 131.82 8.23839 134.924 8.23839C134.924 8.20836 134.926 8.17697 134.926 8.14694C134.926 8.11691 134.925 8.08552 134.924 8.05549Z" fill="#FFDF46" stroke="black" stroke-miterlimit="10"/>
<path d="M148.086 62.0831C144.982 62.0831 142.462 59.5812 142.413 56.4802C142.413 56.4802 142.412 56.4802 142.41 56.4802C142.409 56.4802 142.409 56.4802 142.408 56.4802C142.359 59.5826 139.839 62.0831 136.735 62.0831C136.735 62.1131 136.732 62.1445 136.732 62.1745C136.732 62.2046 136.734 62.236 136.735 62.266C139.839 62.266 142.359 64.7678 142.408 67.8688C142.408 67.8688 142.409 67.8688 142.41 67.8688C142.412 67.8688 142.412 67.8688 142.413 67.8688C142.462 64.7664 144.982 62.266 148.086 62.266C148.086 62.236 148.088 62.2046 148.088 62.1745C148.088 62.1445 148.087 62.1131 148.086 62.0831Z" fill="#FFDF46" stroke="black" stroke-miterlimit="10"/>
<path d="M141.516 184.295C141.516 184.295 141.516 184.296 141.516 184.298C141.516 184.299 141.517 184.302 141.518 184.303C141.518 184.3 141.516 184.298 141.516 184.295Z" fill="#2E80EF" stroke="black" stroke-miterlimit="10"/>
<path d="M171.477 204.848C170.209 204.53 169.507 204.02 169.202 203.773C166.608 201.674 166.944 197.722 167.011 197.058C156.655 197.091 146.535 191.39 142.181 185.781C147.018 194.738 154.478 199.013 159.896 201.966C161.392 202.781 165.576 203.959 170.115 204.729C170.924 204.867 171.67 204.955 172.333 205.013C172.047 204.973 171.76 204.919 171.475 204.848H171.477Z" fill="#2E80EF" stroke="black" stroke-miterlimit="10"/>
<path d="M173.638 205.097C173.846 205.106 174.039 205.111 174.216 205.115C174.209 205.103 174.201 205.091 174.193 205.077C174.008 205.088 173.823 205.096 173.638 205.097Z" fill="#2E80EF" stroke="black" stroke-miterlimit="10"/>
<path d="M142.411 186.192C142.343 186.071 142.275 185.952 142.208 185.829C142.273 185.951 142.341 186.072 142.411 186.192Z" fill="#9AC6FF" stroke="black" stroke-miterlimit="10"/>
<path d="M173.638 205.097C173.649 205.097 173.658 205.097 173.669 205.097C173.782 205.097 173.895 205.092 174.008 205.087C174.049 205.085 174.089 205.082 174.13 205.08C177.861 204.864 181.331 202.641 182.433 201.894C180.159 201.627 172.186 200.406 165.785 193.545C160.899 188.307 159.475 182.511 159.013 180.014C157.296 180.404 154.887 180.731 152.055 180.416C146.523 179.802 142.669 177.105 140.948 175.718C140.217 179.207 140.672 181.807 141.216 183.504C141.468 184.29 141.793 185.05 142.185 185.784C146.54 191.391 156.658 197.092 167.013 197.058C166.946 197.722 166.61 201.674 169.203 203.773C169.508 204.021 170.21 204.53 171.478 204.848C171.763 204.919 172.048 204.973 172.336 205.013C172.321 205.013 172.306 205.01 172.292 205.009C172.742 205.073 173.194 205.1 173.643 205.096C173.643 205.096 173.64 205.096 173.639 205.096L173.638 205.097ZM141.516 184.298C141.516 184.298 141.516 184.297 141.516 184.295C141.516 184.298 141.518 184.301 141.518 184.303C141.518 184.302 141.517 184.299 141.516 184.298Z" fill="#9AC6FF" stroke="black" stroke-miterlimit="10"/>
<path d="M22.8152 120.609C19.7115 120.609 17.1916 118.108 17.1426 115.007C17.1426 115.007 17.1413 115.007 17.1399 115.007C17.1385 115.007 17.1385 115.007 17.1372 115.007C17.0882 118.109 14.5683 120.609 11.4646 120.609C11.4646 120.639 11.4619 120.671 11.4619 120.701C11.4619 120.731 11.4633 120.762 11.4646 120.792C14.5683 120.792 17.0882 123.294 17.1372 126.395C17.1372 126.395 17.1385 126.395 17.1399 126.395C17.1413 126.395 17.1413 126.395 17.1426 126.395C17.1916 123.293 19.7115 120.792 22.8152 120.792C22.8152 120.762 22.8179 120.731 22.8179 120.701C22.8179 120.671 22.8165 120.639 22.8152 120.609Z" fill="#FFDF46" stroke="black" stroke-miterlimit="10"/>
<path d="M326.542 64.3217C326.542 61.2084 329.036 58.6806 332.128 58.6315C332.128 58.6315 332.128 58.6301 332.128 58.6288C332.128 58.6274 332.128 58.6274 332.128 58.626C329.035 58.5769 326.542 56.0491 326.542 52.9358C326.512 52.9358 326.481 52.9331 326.451 52.9331C326.421 52.9331 326.39 52.9345 326.36 52.9358C326.36 56.0491 323.866 58.5769 320.774 58.626C320.774 58.626 320.774 58.6274 320.774 58.6288C320.774 58.6301 320.774 58.6301 320.774 58.6315C323.867 58.6806 326.36 61.2084 326.36 64.3217C326.39 64.3217 326.421 64.3244 326.451 64.3244C326.481 64.3244 326.512 64.3231 326.542 64.3217Z" fill="#FFDF46" stroke="black" stroke-miterlimit="10"/>
<path d="M225.501 11.5251C225.501 8.41178 227.995 5.88401 231.087 5.83487C231.087 5.83487 231.087 5.83351 231.087 5.83214C231.087 5.83078 231.087 5.83078 231.087 5.82941C227.994 5.78028 225.501 3.25251 225.501 0.139204C225.471 0.139204 225.44 0.136475 225.41 0.136475C225.38 0.136475 225.349 0.137839 225.319 0.139204C225.319 3.25251 222.825 5.78028 219.733 5.82941C219.733 5.82941 219.733 5.83078 219.733 5.83214C219.733 5.83351 219.733 5.83351 219.733 5.83487C222.826 5.88401 225.319 8.41178 225.319 11.5251C225.349 11.5251 225.38 11.5278 225.41 11.5278C225.44 11.5278 225.471 11.5264 225.501 11.5251Z" fill="#FFDF46" stroke="black" stroke-miterlimit="10"/>
<path d="M308.744 16.5534C308.744 13.4401 311.238 10.9123 314.33 10.8632C314.33 10.8632 314.33 10.8618 314.33 10.8605C314.33 10.8591 314.33 10.8591 314.33 10.8577C311.237 10.8086 308.744 8.28083 308.744 5.16752C308.714 5.16752 308.683 5.16479 308.653 5.16479C308.623 5.16479 308.592 5.16616 308.562 5.16752C308.562 8.28083 306.068 10.8086 302.977 10.8577C302.977 10.8577 302.977 10.8591 302.977 10.8605C302.977 10.8618 302.977 10.8618 302.977 10.8632C306.069 10.9123 308.562 13.4401 308.562 16.5534C308.592 16.5534 308.623 16.5561 308.653 16.5561C308.683 16.5561 308.714 16.5548 308.744 16.5534Z" fill="#FFDF46" stroke="black" stroke-miterlimit="10"/>
<path d="M233.934 91.6315C233.934 88.5182 236.428 85.9905 239.519 85.9413C239.519 85.9413 239.519 85.94 239.519 85.9386C239.519 85.9372 239.519 85.9372 239.519 85.9359C236.426 85.8867 233.934 83.359 233.934 80.2457C233.904 80.2457 233.873 80.2429 233.843 80.2429C233.813 80.2429 233.781 80.2443 233.751 80.2457C233.751 83.359 231.257 85.8867 228.166 85.9359C228.166 85.9359 228.166 85.9372 228.166 85.9386C228.166 85.94 228.166 85.94 228.166 85.9413C231.259 85.9905 233.751 88.5182 233.751 91.6315C233.781 91.6315 233.813 91.6343 233.843 91.6343C233.873 91.6343 233.904 91.6329 233.934 91.6315Z" fill="#FFDF46" stroke="black" stroke-miterlimit="10"/>
<rect x="191.047" y="116.788" width="17.2198" height="27.2557" rx="2.25" transform="rotate(-35.7823 191.047 116.788)" fill="#5D00BF" stroke="black" stroke-width="1.5"/>
<path d="M270.649 51.2897C270.649 48.1764 273.143 45.6487 276.234 45.5995C276.234 45.5995 276.234 45.5982 276.234 45.5968C276.234 45.5954 276.234 45.5954 276.234 45.5941C273.141 45.5449 270.649 43.0172 270.649 39.9039C270.619 39.9039 270.587 39.9011 270.557 39.9011C270.528 39.9011 270.496 39.9025 270.466 39.9039C270.466 43.0172 267.972 45.5449 264.881 45.5941C264.881 45.5941 264.881 45.5954 264.881 45.5968C264.881 45.5982 264.881 45.5982 264.881 45.5995C267.974 45.6487 270.466 48.1764 270.466 51.2897C270.496 51.2897 270.528 51.2925 270.557 51.2925C270.587 51.2925 270.619 51.2911 270.649 51.2897Z" fill="#FFDF46" stroke="black" stroke-miterlimit="10"/>
<path d="M341.718 165.244C341.718 162.131 344.212 159.603 347.303 159.554C347.303 159.554 347.303 159.552 347.303 159.551C347.303 159.55 347.303 159.55 347.303 159.548C344.211 159.499 341.718 156.972 341.718 153.858C341.688 153.858 341.657 153.855 341.627 153.855C341.597 153.855 341.566 153.857 341.536 153.858C341.536 156.972 339.042 159.499 335.95 159.548C335.95 159.548 335.95 159.55 335.95 159.551C335.95 159.552 335.95 159.553 335.95 159.554C339.043 159.603 341.536 162.131 341.536 165.244C341.566 165.244 341.597 165.247 341.627 165.247C341.657 165.247 341.688 165.245 341.718 165.244Z" fill="#FFDF46" stroke="black" stroke-miterlimit="10"/>
<path d="M291.546 103.132C291.546 100.019 294.04 97.4912 297.132 97.4421C297.132 97.4421 297.132 97.4407 297.132 97.4393C297.132 97.438 297.132 97.438 297.132 97.4366C294.039 97.3875 291.546 94.8597 291.546 91.7464C291.516 91.7464 291.485 91.7437 291.455 91.7437C291.425 91.7437 291.394 91.745 291.364 91.7464C291.364 94.8597 288.87 97.3875 285.778 97.4366C285.778 97.4366 285.778 97.438 285.778 97.4393C285.778 97.4407 285.778 97.4407 285.778 97.4421C288.871 97.4912 291.364 100.019 291.364 103.132C291.394 103.132 291.425 103.135 291.455 103.135C291.485 103.135 291.516 103.134 291.546 103.132Z" fill="#FFDF46" stroke="black" stroke-miterlimit="10"/>
<path d="M83.6799 153.039C83.6799 149.926 86.174 147.398 89.2654 147.349C89.2654 147.349 89.2654 147.348 89.2654 147.346C89.2654 147.346 89.2654 147.345 89.2654 147.344C86.1726 147.294 83.6799 144.767 83.6799 141.653C83.65 141.653 83.6187 141.651 83.5887 141.651C83.5588 141.651 83.5275 141.652 83.4976 141.653C83.4976 144.767 81.0035 147.294 77.9121 147.344C77.9121 147.344 77.9121 147.345 77.9121 147.346C77.9121 147.348 77.9121 147.348 77.9121 147.349C81.0049 147.398 83.4976 149.926 83.4976 153.039C83.5275 153.039 83.5588 153.042 83.5887 153.042C83.6187 153.042 83.65 153.041 83.6799 153.039Z" fill="#FFDF46" stroke="black" stroke-miterlimit="10"/>
<path d="M34.4856 192.127C34.4856 189.014 36.9796 186.486 40.071 186.437C40.071 186.437 40.071 186.435 40.071 186.434C40.071 186.434 40.071 186.433 40.071 186.431C36.9783 186.382 34.4856 183.854 34.4856 180.741C34.4556 180.741 34.4243 180.738 34.3944 180.738C34.3645 180.738 34.3332 180.74 34.3032 180.741C34.3032 183.854 31.8092 186.382 28.7178 186.431C28.7178 186.431 28.7178 186.433 28.7178 186.434C28.7178 186.435 28.7178 186.435 28.7178 186.437C31.8105 186.486 34.3032 189.014 34.3032 192.127C34.3332 192.127 34.3645 192.13 34.3944 192.13C34.4243 192.13 34.4556 192.128 34.4856 192.127Z" fill="#FFDF46" stroke="black" stroke-miterlimit="10"/>
<path d="M239.738 165.615C239.738 165.615 239.738 165.617 239.738 165.618C239.738 165.619 239.74 165.622 239.741 165.623C239.741 165.62 239.738 165.618 239.738 165.615Z" fill="#2E80EF" stroke="black" stroke-miterlimit="10"/>
<path d="M269.701 186.168C268.433 185.85 267.731 185.341 267.426 185.093C264.833 182.994 265.169 179.042 265.236 178.378C254.88 178.411 244.759 172.71 240.405 167.102C245.242 176.058 252.703 180.333 258.121 183.286C259.616 184.101 263.8 185.279 268.339 186.049C269.149 186.187 269.895 186.275 270.557 186.333C270.271 186.293 269.984 186.239 269.7 186.168H269.701Z" fill="#2E80EF" stroke="black" stroke-miterlimit="10"/>
<path d="M271.861 186.417C272.07 186.426 272.263 186.431 272.44 186.435C272.433 186.423 272.425 186.411 272.416 186.397C272.231 186.408 272.046 186.416 271.861 186.417Z" fill="#2E80EF" stroke="black" stroke-miterlimit="10"/>
<path d="M240.633 167.512C240.565 167.391 240.497 167.272 240.431 167.149C240.496 167.271 240.564 167.392 240.633 167.512Z" fill="#9AC6FF" stroke="black" stroke-miterlimit="10"/>
<path d="M271.861 186.418C271.872 186.418 271.882 186.418 271.893 186.418C272.006 186.418 272.119 186.412 272.231 186.407C272.272 186.405 272.313 186.402 272.354 186.4C276.085 186.184 279.554 183.961 280.657 183.214C278.383 182.947 270.41 181.726 264.009 174.865C259.123 169.627 257.698 163.831 257.237 161.334C255.52 161.724 253.11 162.052 250.279 161.736C244.746 161.122 240.893 158.425 239.172 157.038C238.441 160.527 238.896 163.127 239.44 164.824C239.692 165.61 240.017 166.37 240.409 167.104C244.764 172.711 254.882 178.412 265.236 178.378C265.17 179.042 264.834 182.994 267.427 185.094C267.732 185.341 268.434 185.85 269.702 186.168C269.986 186.239 270.272 186.293 270.559 186.333C270.544 186.333 270.529 186.33 270.516 186.329C270.966 186.393 271.418 186.42 271.867 186.416C271.867 186.416 271.864 186.416 271.863 186.416L271.861 186.418ZM239.739 165.618C239.739 165.618 239.739 165.617 239.739 165.615C239.739 165.618 239.742 165.621 239.742 165.623C239.742 165.622 239.741 165.619 239.739 165.618Z" fill="#9AC6FF" stroke="black" stroke-miterlimit="10"/>
<path d="M238.307 85.3191V85.315V85.3109H238.296L201.612 74.531C201.558 74.127 201.371 73.7626 201.096 73.4869C200.767 73.1566 200.314 72.9518 199.815 72.9518L183.963 69.2639L168.358 72.9518C167.858 72.9518 167.404 73.1566 167.076 73.4869C166.935 73.6288 166.819 73.794 166.729 73.9769L159.812 74.2758L141.982 96.0635L113.726 80.127L104.479 100.411L142.153 111.992L142.156 111.994H142.157H142.161L142.165 111.986L167.922 89.1694L168.054 90.552L169.567 106.329C169.567 106.83 169.772 107.286 170.101 107.614C170.43 107.945 170.883 108.15 171.383 108.15H196.786C197.285 108.15 197.74 107.945 198.068 107.614C198.397 107.284 198.601 106.83 198.601 106.329L200.088 90.825L224.965 93.9588L226.592 126.434L248.628 123.465L238.305 85.3191H238.307Z" fill="#871FBF" stroke="black" stroke-miterlimit="10"/>
<path d="M247.214 182.26C240.297 191.147 242.629 203.967 251.318 209.591C259.395 214.817 270.974 212.542 276.788 203.872C275.835 199.067 274.672 191.593 274.612 182.367C274.537 170.483 276.348 164.107 272.436 160.861C269.91 158.764 267.29 159.876 257.433 159.711C250.998 159.603 245.78 159.023 242.429 158.56C244.026 166.477 245.614 174.345 247.211 182.26" fill="#871FBF"/>
<path d="M247.214 182.26C240.297 191.147 242.629 203.967 251.318 209.591C259.395 214.817 270.974 212.542 276.788 203.872C275.835 199.067 274.672 191.593 274.612 182.367C274.537 170.483 276.348 164.107 272.436 160.861C269.91 158.764 267.29 159.876 257.433 159.711C250.998 159.603 245.78 159.023 242.429 158.56C244.026 166.477 245.614 174.345 247.211 182.26" stroke="black" stroke-miterlimit="10"/>
<path d="M189.945 60.8999H177.729V68.6688H189.945V60.8999Z" fill="#F4DBCB" stroke="black" stroke-miterlimit="10"/>
<path d="M197.433 41.3097C197.191 41.3097 196.953 41.322 196.718 41.3438C197.182 42.7101 197.433 44.1719 197.433 45.6896V52.2425C197.433 53.7602 197.182 55.222 196.718 56.5882C196.953 56.6101 197.193 56.6224 197.433 56.6224C201.649 56.6224 205.067 53.1938 205.067 48.9654C205.067 44.7369 201.649 41.3083 197.433 41.3083V41.3097Z" fill="#F4DBCB" stroke="black" stroke-miterlimit="10"/>
<path d="M171.903 52.2426V45.6897C171.903 44.3044 172.114 42.9654 172.503 41.7043C171.743 41.449 170.93 41.3098 170.085 41.3098C165.87 41.3098 162.452 44.7384 162.452 48.9668C162.452 53.1952 165.87 56.6238 170.085 56.6238C170.93 56.6238 171.744 56.4833 172.503 56.2294C172.114 54.9682 171.903 53.6293 171.903 52.2439V52.2426Z" fill="#F4DBCB" stroke="black" stroke-miterlimit="10"/>
<path d="M166.542 51.0728C168.82 51.0728 171.097 51.9395 172.825 53.6729C174.553 55.4063 175.417 57.6911 175.417 59.9759" stroke="black" stroke-miterlimit="10"/>
<path d="M201.628 51.0728C199.351 51.0728 197.073 51.9395 195.345 53.6729C193.617 55.4063 192.753 57.6911 192.753 59.9759" stroke="black" stroke-miterlimit="10"/>
<path d="M185.274 32.1255H182.551C175.835 32.1255 170.39 37.5873 170.39 44.3248V53.6074C170.39 60.3449 175.835 65.8068 182.551 65.8068H185.274C191.99 65.8068 197.435 60.3449 197.435 53.6074V44.3248C197.435 37.5873 191.99 32.1255 185.274 32.1255Z" fill="#F4DBCB" stroke="black" stroke-miterlimit="10"/>
<path d="M177.975 50.6237C178.625 50.6237 179.152 50.0951 179.152 49.4431C179.152 48.791 178.625 48.2625 177.975 48.2625C177.325 48.2625 176.798 48.791 176.798 49.4431C176.798 50.0951 177.325 50.6237 177.975 50.6237Z" fill="black"/>
<path d="M189.698 50.6237C190.348 50.6237 190.875 50.0951 190.875 49.4431C190.875 48.791 190.348 48.2625 189.698 48.2625C189.048 48.2625 188.521 48.791 188.521 49.4431C188.521 50.0951 189.048 50.6237 189.698 50.6237Z" fill="black"/>
<path d="M183.912 55.1032H183.278C182.676 55.1032 182.184 54.6091 182.184 54.0058C182.184 53.4025 182.676 52.9084 183.278 52.9084H183.912" fill="#F4DBCB"/>
<path d="M183.912 55.1032H183.278C182.676 55.1032 182.184 54.6091 182.184 54.0058C182.184 53.4025 182.676 52.9084 183.278 52.9084H183.912" stroke="black" stroke-miterlimit="10"/>
<path d="M190.187 56.4817C188.576 58.0977 186.356 59.0995 183.912 59.0995C181.468 59.0995 179.248 58.0963 177.637 56.4817" fill="#F4DBCB"/>
<path d="M190.187 56.4817C188.576 58.0977 186.356 59.0995 183.912 59.0995C181.468 59.0995 179.248 58.0963 177.637 56.4817" stroke="black" stroke-miterlimit="10"/>
<path d="M173.652 45.2393C175.912 45.7989 178.172 46.3598 180.434 46.9194L173.652 45.2393Z" fill="#3154B4"/>
<path d="M173.652 45.2393C175.912 45.7989 178.172 46.3598 180.434 46.9194" stroke="black" stroke-miterlimit="10"/>
<path d="M172.784 31.1905C172.564 31.3106 172.258 31.5262 172.085 31.892C171.873 32.3397 171.965 32.7887 172.008 32.9839C172.964 37.3829 175.428 40.3939 175.428 40.3939C176.736 41.9853 178.717 44.3411 182.116 45.6978C182.984 46.0445 185.926 47.2197 186.704 46.2438C187.767 44.9116 184.135 40.3993 184.372 40.2383C184.547 40.1182 186.191 42.8862 189.037 45.1519C191.066 46.7665 192.953 47.5159 194.48 48.1164C196.755 49.0104 199.938 50.262 203.953 49.9003C204.486 49.8525 211.647 49.1428 212.171 45.9476C212.408 44.5022 211.198 43.0895 210.258 42.2215C213.767 40.4758 214.135 38.5404 214.198 38.0435C214.562 35.2155 211.066 32.5185 207.617 29.857C206.148 28.7227 204.832 27.897 203.881 27.3428C204.234 27.3892 206.165 27.6213 206.628 26.7587C207.095 25.8892 205.805 24.4015 205.269 23.7846C200.981 18.8423 183.162 12.3891 175.864 20.1908C175.036 21.0753 174.532 21.942 174.265 22.4552C174.9 19.3815 174.257 17.0652 173.099 16.6831C172.206 16.3883 171.031 17.2495 170.455 18.0875C169.547 19.4101 169.667 21.3564 170.844 22.9233C170.296 22.7923 169.477 22.6613 168.512 22.7677C163.833 23.2823 160.491 28.8442 159.492 33.2978C158.617 37.1973 158.711 43.9303 162.136 45.1532C164.885 46.1346 168.264 43.0267 168.824 42.5013C169.428 46.7556 169.987 47.666 170.394 47.6769C171.157 47.6947 171.972 44.5691 173.1 40.2396C173.378 39.1764 173.589 38.2906 173.727 37.6859" fill="#3154B4"/>
<path d="M172.784 31.1905C172.564 31.3106 172.258 31.5262 172.085 31.892C171.873 32.3397 171.965 32.7887 172.008 32.9839C172.964 37.3829 175.428 40.3939 175.428 40.3939C176.736 41.9853 178.717 44.3411 182.116 45.6978C182.984 46.0445 185.926 47.2197 186.704 46.2438C187.767 44.9116 184.135 40.3993 184.372 40.2383C184.547 40.1182 186.191 42.8862 189.037 45.1519C191.066 46.7665 192.953 47.5159 194.48 48.1164C196.755 49.0104 199.938 50.262 203.953 49.9003C204.486 49.8525 211.647 49.1428 212.171 45.9476C212.408 44.5022 211.198 43.0895 210.258 42.2215C213.767 40.4758 214.135 38.5404 214.198 38.0435C214.562 35.2155 211.066 32.5185 207.617 29.857C206.148 28.7227 204.832 27.897 203.881 27.3428C204.234 27.3892 206.165 27.6213 206.628 26.7587C207.095 25.8892 205.805 24.4015 205.269 23.7846C200.981 18.8423 183.162 12.3891 175.864 20.1908C175.036 21.0753 174.532 21.942 174.265 22.4552C174.9 19.3815 174.257 17.0652 173.099 16.6831C172.206 16.3883 171.031 17.2495 170.455 18.0875C169.547 19.4101 169.667 21.3564 170.844 22.9233C170.296 22.7923 169.477 22.6613 168.512 22.7677C163.833 23.2823 160.491 28.8442 159.492 33.2978C158.617 37.1973 158.711 43.9303 162.136 45.1532C164.885 46.1346 168.264 43.0267 168.824 42.5013C169.428 46.7556 169.987 47.666 170.394 47.6769C171.157 47.6947 171.972 44.5691 173.1 40.2396C173.378 39.1764 173.589 38.2906 173.727 37.6859" stroke="black" stroke-miterlimit="10"/>
<path d="M172.785 31.1905C172.564 31.3106 172.258 31.5262 172.085 31.892C171.873 32.3397 171.966 32.7887 172.008 32.9839C172.964 37.3829 175.428 40.3939 175.428 40.3939C176.736 41.9853 178.717 44.3411 182.116 45.6978C182.984 46.0445 185.926 47.2197 186.704 46.2438C187.767 44.9116 184.135 40.3993 184.372 40.2383C184.548 40.1182 186.191 42.8862 189.038 45.1519C191.066 46.7665 192.954 47.5159 194.48 48.1164C196.755 49.0104 199.938 50.262 203.953 49.9003C204.486 49.8525 211.648 49.1428 212.171 45.9476C212.408 44.5022 211.199 43.0895 210.258 42.2215C213.767 40.4758 214.135 38.5404 214.199 38.0435C214.562 35.2155 211.067 32.5185 207.617 29.857C206.148 28.7227 204.832 27.897 203.881 27.3428C204.235 27.3892 206.165 27.6213 206.628 26.7587C207.095 25.8892 205.805 24.4015 205.269 23.7846C200.981 18.8423 183.162 12.3891 175.864 20.1908C175.037 21.0753 174.532 21.942 174.265 22.4552C174.901 19.3815 174.257 17.0652 173.099 16.6831C172.206 16.3883 171.031 17.2495 170.455 18.0875C169.548 19.4101 169.667 21.3564 170.844 22.9233C170.296 22.7923 169.477 22.6613 168.512 22.7677C163.833 23.2823 160.491 28.8442 159.493 33.2978C158.575 37.387 158.844 43.9398 162.136 45.1532C162.671 45.3498 164.379 45.8111 167.259 43.7788C167.368 44.1787 168.259 47.307 170.393 47.6769C170.78 47.7438 171.144 47.7097 171.381 47.6401C173.926 46.8948 173.752 38.6018 173.726 37.6859" fill="#5D00BF"/>
<path d="M172.785 31.1905C172.564 31.3106 172.258 31.5262 172.085 31.892C171.873 32.3397 171.966 32.7887 172.008 32.9839C172.964 37.3829 175.428 40.3939 175.428 40.3939C176.736 41.9853 178.717 44.3411 182.116 45.6978C182.984 46.0445 185.926 47.2197 186.704 46.2438C187.767 44.9116 184.135 40.3993 184.372 40.2383C184.548 40.1182 186.191 42.8862 189.038 45.1519C191.066 46.7665 192.954 47.5159 194.48 48.1164C196.755 49.0104 199.938 50.262 203.953 49.9003C204.486 49.8525 211.648 49.1428 212.171 45.9476C212.408 44.5022 211.199 43.0895 210.258 42.2215C213.767 40.4758 214.135 38.5404 214.199 38.0435C214.562 35.2155 211.067 32.5185 207.617 29.857C206.148 28.7227 204.832 27.897 203.881 27.3428C204.235 27.3892 206.165 27.6213 206.628 26.7587C207.095 25.8892 205.805 24.4015 205.269 23.7846C200.981 18.8423 183.162 12.3891 175.864 20.1908C175.037 21.0753 174.532 21.942 174.265 22.4552C174.901 19.3815 174.257 17.0652 173.099 16.6831C172.206 16.3883 171.031 17.2495 170.455 18.0875C169.548 19.4101 169.667 21.3564 170.844 22.9233C170.296 22.7923 169.477 22.6613 168.512 22.7677C163.833 23.2823 160.491 28.8442 159.493 33.2978C158.575 37.387 158.844 43.9399 162.136 45.1532C162.671 45.3498 164.379 45.8111 167.259 43.7788C167.368 44.1787 168.259 47.307 170.393 47.6769C170.78 47.7438 171.144 47.7097 171.381 47.6401C173.926 46.8948 173.752 38.6018 173.726 37.6859" stroke="black" stroke-miterlimit="10"/>
<path d="M193.577 45.2393C191.317 45.7989 189.057 46.3598 186.796 46.9194L193.577 45.2393Z" fill="#3154B4"/>
<path d="M193.577 45.2393C191.317 45.7989 189.057 46.3598 186.796 46.9194" stroke="black" stroke-miterlimit="10"/>
<path d="M184.082 68.6688C186.406 68.0068 188.73 67.3448 191.054 66.6829C191.937 68.0873 192.82 69.4918 193.705 70.8949C190.945 73.1033 188.187 75.3117 185.428 77.5201C184.979 74.5692 184.531 71.6183 184.082 68.6688Z" fill="#871FBF" stroke="black" stroke-miterlimit="10"/>
<path d="M183.962 68.6688C181.638 68.0068 179.314 67.3448 176.99 66.6829C176.107 68.0873 175.224 69.4918 174.34 70.8949C177.099 73.1033 179.857 75.3117 182.617 77.5201C183.066 74.5692 183.513 71.6183 183.962 68.6688Z" fill="#871FBF" stroke="black" stroke-miterlimit="10"/>
<path d="M131.834 189.808C120.9 171.559 103.503 173.848 95.1227 182.472C87.333 190.486 87.2473 204.229 95.7432 212.864H155.062V184.082C145.714 184.082 138.682 185.089 131.836 189.808H131.834Z" fill="#871FBF" stroke="black" stroke-miterlimit="10"/>
<path d="M214.748 148.442L194.343 113.683V108.459H172.501V113.722L139.086 140.104L139.123 140.149L139.059 140.14L131.834 189.703L155.081 193.112L160.953 152.832L180.842 137.129L199.24 168.471L199.291 168.441L199.273 168.502L247.265 182.337L253.753 159.686L214.748 148.442Z" fill="#5D00BF" stroke="black" stroke-miterlimit="10"/>
<path d="M206.297 118.078L203.091 118.867L170.39 72.1017L173.594 71.3127L206.297 118.078Z" fill="#5D00BF" stroke="black" stroke-miterlimit="10"/>
<path d="M226.817 144.741L235.986 147.349C241.037 148.785 246.292 145.843 247.724 140.776L250.945 129.381C252.377 124.315 249.443 119.043 244.393 117.607L235.224 114.999C230.174 113.562 224.918 116.505 223.486 121.571L220.265 132.967C218.833 138.033 221.767 143.305 226.817 144.741Z" fill="#F4DBCB" stroke="black" stroke-miterlimit="10"/>
<path d="M215.477 132.681L216.052 130.649C216.706 128.334 215.366 125.925 213.058 125.269L212.121 125.002C209.813 124.346 207.412 125.69 206.757 128.005L206.183 130.038C205.528 132.353 206.869 134.762 209.177 135.418L210.114 135.685C212.422 136.341 214.823 134.996 215.477 132.681Z" fill="#F4DBCB" stroke="black" stroke-miterlimit="10"/>
<path d="M216.338 137.059L217.152 137.291C219.157 137.861 221.243 136.693 221.811 134.682L225.806 120.549C226.375 118.538 225.21 116.445 223.206 115.875L222.391 115.643C220.387 115.073 218.301 116.241 217.732 118.252L213.737 132.385C213.169 134.396 214.333 136.489 216.338 137.059Z" fill="#F4DBCB" stroke="black" stroke-miterlimit="10"/>
<path d="M230.31 119.767C228.09 119.135 225.757 120.442 225.129 122.669L221.364 135.986C220.734 138.214 222.036 140.553 224.257 141.184C226.477 141.816 228.809 140.51 229.438 138.282L233.203 124.965" fill="#F4DBCB"/>
<path d="M230.31 119.767C228.09 119.135 225.757 120.442 225.129 122.669L221.364 135.986C220.734 138.214 222.036 140.553 224.257 141.184C226.477 141.816 228.809 140.51 229.438 138.282L233.203 124.965" stroke="black" stroke-miterlimit="10"/>
<path d="M233.145 124.95L229.38 138.267C228.75 140.495 230.053 142.834 232.273 143.465C234.494 144.097 236.826 142.79 237.455 140.563L241.219 127.246" fill="#F4DBCB"/>
<path d="M233.145 124.95L229.38 138.267C228.75 140.495 230.053 142.834 232.273 143.465C234.494 144.097 236.826 142.79 237.455 140.563L241.219 127.246" stroke="black" stroke-miterlimit="10"/>
<path d="M91.2462 70.4948L84.5075 77.2545C80.7954 80.9782 80.7954 87.0155 84.5075 90.7392L92.8568 99.1145C96.5689 102.838 102.587 102.838 106.3 99.1145L113.038 92.3548C116.75 88.6311 116.75 82.5938 113.038 78.8701L104.689 70.4948C100.977 66.7711 94.9584 66.7711 91.2462 70.4948Z" fill="#F4DBCB" stroke="black" stroke-miterlimit="10"/>
<path d="M123.918 69.4238L122.429 67.9298C120.732 66.2284 117.982 66.2284 116.286 67.9298L115.597 68.6208C113.901 70.3222 113.901 73.0807 115.597 74.7821L117.087 76.2761C118.783 77.9776 121.533 77.9775 123.229 76.2761L123.918 75.5851C125.614 73.8837 125.614 71.1252 123.918 69.4238Z" fill="#F4DBCB" stroke="black" stroke-miterlimit="10"/>
<path d="M102.764 64.783L102.166 65.3833C100.693 66.8614 100.693 69.2578 102.166 70.7358L112.521 81.1234C113.995 82.6015 116.384 82.6015 117.857 81.1234L118.456 80.5231C119.929 79.0451 119.929 76.6486 118.456 75.1706L108.1 64.783C106.627 63.3049 104.238 63.3049 102.764 64.783Z" fill="#F4DBCB" stroke="black" stroke-miterlimit="10"/>
<path d="M97.8604 72.2586C99.4918 70.6221 102.163 70.6221 103.794 72.2586L113.551 82.0462C115.183 83.6827 115.183 86.362 113.551 87.9985C111.92 89.635 109.249 89.635 107.618 87.9985L97.8604 78.2109" fill="#F4DBCB"/>
<path d="M97.8604 72.2586C99.4918 70.6221 102.163 70.6221 103.794 72.2586L113.551 82.0462C115.183 83.6827 115.183 86.362 113.551 87.9985C111.92 89.635 109.249 89.635 107.618 87.9985L97.8604 78.2109" stroke="black" stroke-miterlimit="10"/>
<path d="M97.9025 78.1685L107.66 87.956C109.291 89.5925 109.291 92.2718 107.66 93.9083C106.028 95.5448 103.357 95.5448 101.726 93.9083L91.9688 84.1207" fill="#F4DBCB"/>
<path d="M97.9025 78.1685L107.66 87.956C109.291 89.5925 109.291 92.2718 107.66 93.9083C106.028 95.5448 103.357 95.5448 101.726 93.9083L91.9688 84.1207" stroke="black" stroke-miterlimit="10"/>
<path d="M100.047 130.004C100.047 130.004 100.047 130.004 100.047 130.001C100.047 130 100.048 129.997 100.049 129.996C100.049 129.998 100.047 130.001 100.047 130.004Z" fill="#2E80EF" stroke="black" stroke-miterlimit="10"/>
<path d="M93.3482 94.2179C94.0217 95.3412 94.1577 96.1997 94.1999 96.5915C94.5537 99.915 91.5303 102.471 91.0146 102.893C98.3608 110.216 101.497 121.426 100.624 128.479C103.516 118.715 101.255 110.401 99.5051 104.47C99.0221 102.833 96.894 99.0319 94.2271 95.2675C93.7523 94.596 93.2869 94.005 92.8597 93.4932C93.0338 93.7238 93.1985 93.9654 93.3482 94.2179Z" fill="#2E80EF" stroke="black" stroke-miterlimit="10"/>
<path d="M91.9961 92.5092C91.8546 92.3549 91.7212 92.2143 91.5988 92.0874C91.5947 92.1011 91.592 92.1161 91.5879 92.1297C91.7267 92.2526 91.8627 92.3781 91.9947 92.5092H91.9961Z" fill="#2E80EF" stroke="black" stroke-miterlimit="10"/>
<path d="M100.752 128.026C100.714 128.16 100.678 128.293 100.639 128.426C100.678 128.294 100.716 128.16 100.752 128.026Z" fill="#9AC6FF" stroke="black" stroke-miterlimit="10"/>
<path d="M91.996 92.5093C91.9892 92.5025 91.981 92.4957 91.9742 92.4875C91.8939 92.4083 91.8109 92.3305 91.7279 92.2554C91.698 92.2281 91.6667 92.1995 91.6368 92.1722C88.8474 89.6772 84.8254 88.7886 83.5205 88.5361C84.9397 90.3378 89.7169 96.8565 89.4067 106.248C89.1699 113.418 86.0908 118.525 84.6566 120.619C86.1466 121.561 88.08 123.039 89.8611 125.271C93.3403 129.629 94.1635 134.269 94.403 136.471C97.3801 134.522 98.8904 132.361 99.7027 130.775C100.078 130.041 100.384 129.273 100.625 128.475C101.499 121.422 98.3611 110.213 91.0163 102.892C91.5306 102.469 94.5554 99.9138 94.2016 96.5903C94.1594 96.1986 94.0233 95.3415 93.3498 94.2168C93.1988 93.9643 93.0355 93.7241 92.8613 93.492C92.8709 93.503 92.8804 93.5152 92.8899 93.5262C92.6164 93.1617 92.3171 92.8219 91.9973 92.5066C91.9973 92.5066 91.9987 92.508 92.0001 92.5093H91.996ZM100.048 130.001C100.048 130.001 100.048 130.001 100.048 130.004C100.048 130.001 100.051 129.999 100.051 129.996C100.051 129.997 100.05 130 100.048 130.001Z" fill="#9AC6FF" stroke="black" stroke-miterlimit="10"/>
<path d="M0 212.864H359H0Z" fill="#6B9FDD"/>
<path d="M0 212.864H359" stroke="black" stroke-miterlimit="10"/>
<path d="M245.239 166.276C245.239 166.276 245.239 166.276 245.242 166.276C245.243 166.276 245.246 166.277 245.247 166.278C245.244 166.278 245.242 166.276 245.239 166.276Z" fill="#2E80EF" stroke="black" stroke-miterlimit="10"/>
<path d="M280.913 159.557C279.793 160.232 278.937 160.369 278.547 160.411C275.233 160.766 272.685 157.733 272.265 157.216C264.965 164.585 253.79 167.731 246.758 166.855C256.492 169.756 264.78 167.488 270.693 165.733C272.324 165.248 276.114 163.113 279.866 160.438C280.536 159.962 281.125 159.495 281.635 159.067C281.405 159.241 281.165 159.406 280.913 159.557Z" fill="#2E80EF" stroke="black" stroke-miterlimit="10"/>
<path d="M282.616 158.2C282.77 158.058 282.91 157.924 283.037 157.801C283.023 157.797 283.008 157.795 282.994 157.791C282.872 157.93 282.747 158.066 282.616 158.199V158.2Z" fill="#2E80EF" stroke="black" stroke-miterlimit="10"/>
<path d="M247.209 166.983C247.076 166.945 246.944 166.909 246.811 166.87C246.943 166.909 247.076 166.947 247.209 166.983Z" fill="#9AC6FF" stroke="black" stroke-miterlimit="10"/>
<path d="M282.616 158.2C282.623 158.193 282.63 158.185 282.638 158.178C282.717 158.098 282.794 158.014 282.869 157.931C282.896 157.901 282.925 157.87 282.952 157.84C285.439 155.042 286.325 151.007 286.577 149.698C284.781 151.122 278.282 155.914 268.92 155.602C261.772 155.365 256.681 152.276 254.594 150.838C253.655 152.332 252.181 154.272 249.956 156.058C245.612 159.548 240.986 160.374 238.791 160.614C240.734 163.601 242.888 165.116 244.469 165.931C245.201 166.307 245.967 166.614 246.762 166.856C253.794 167.732 264.967 164.585 272.266 157.217C272.687 157.733 275.235 160.767 278.548 160.412C278.938 160.37 279.793 160.234 280.914 159.558C281.166 159.406 281.405 159.243 281.636 159.068C281.626 159.077 281.613 159.087 281.602 159.097C281.966 158.822 282.305 158.522 282.619 158.201C282.619 158.201 282.617 158.203 282.616 158.204V158.2ZM245.24 166.277C245.24 166.277 245.24 166.277 245.238 166.277C245.24 166.277 245.243 166.28 245.246 166.28C245.245 166.28 245.242 166.279 245.24 166.277Z" fill="#9AC6FF" stroke="black" stroke-miterlimit="10"/>
</g>
<defs>
<clipPath id="clip0_1574_3018">
<rect width="359" height="213" fill="white"/>
</clipPath>
</defs>
</svg>
