<svg width="371" height="308" viewBox="0 0 371 308" fill="none" xmlns="http://www.w3.org/2000/svg">
<g clip-path="url(#clip0_1677_6441)">
<circle cx="186.5" cy="147.5" r="137" fill="#F8ECFF" stroke="black"/>
<path d="M125.829 262.961C139.031 241.036 160.035 243.786 170.153 254.147C179.558 263.776 179.662 280.288 169.404 290.661H97.7851V256.082C109.071 256.082 117.561 257.292 125.828 262.961H125.829Z" fill="#6E00E1" stroke="black" stroke-miterlimit="10"/>
<path fill-rule="evenodd" clip-rule="evenodd" d="M112.215 79.3104C113.737 82.4008 114.154 85.2641 113.245 88.5873C112.48 91.3873 111.465 92.7104 110.668 93.7412C102.945 103.727 95.0744 108.754 84.2907 111.843C83.5096 113.055 82.3498 114.23 80.9009 115.182C77.2862 117.558 73.2375 117.647 71.8609 115.381C71.5144 114.812 71.3702 114.147 71.4058 113.434C68.7353 114.291 66.2737 113.902 65.2599 112.234C64.2731 110.609 64.9258 108.216 66.7066 106.115C65.0913 103.137 64.2837 97.6103 64.2837 91.6796C64.2836 82.5534 66.0355 73.209 74.5914 70.0335C81.7716 67.3685 91.3672 67.2149 98.8145 69.0027C105.393 70.582 109.224 73.2414 112.215 79.3104Z" fill="#B03EF5"/>
<path d="M113.245 88.5873L112.763 88.4555L113.245 88.5873ZM112.215 79.3104L111.766 79.5314L112.215 79.3104ZM110.668 93.7412L110.273 93.4353L110.668 93.7412ZM84.2907 111.843L83.8704 111.572L83.9722 111.414L84.153 111.362L84.2907 111.843ZM80.9009 115.182L80.6263 114.764L80.9009 115.182ZM71.8609 115.381L72.288 115.121L72.2883 115.121L71.8609 115.381ZM71.4058 113.434L71.253 112.958L71.9413 112.737L71.9052 113.459L71.4058 113.434ZM65.2599 112.234L64.8326 112.493L64.8325 112.493L65.2599 112.234ZM66.7066 106.115L67.1461 105.877L67.3093 106.178L67.088 106.439L66.7066 106.115ZM64.2837 91.6796L64.7837 91.6796L64.2837 91.6796ZM74.5914 70.0335L74.7654 70.5022L74.5914 70.0335ZM98.8145 69.0027L98.9312 68.5165V68.5165L98.8145 69.0027ZM112.763 88.4555C113.635 85.2655 113.242 82.5275 111.766 79.5314L112.663 79.0894C114.232 82.274 114.673 85.2627 113.728 88.7192L112.763 88.4555ZM110.273 93.4353C111.05 92.4302 112.022 91.1669 112.763 88.4555L113.728 88.7192C112.938 91.6078 111.881 92.9906 111.064 94.0471L110.273 93.4353ZM84.153 111.362C94.8355 108.302 102.615 103.336 110.273 93.4353L111.064 94.0471C103.275 104.119 95.3132 109.206 84.4283 112.323L84.153 111.362ZM80.6263 114.764C82.0218 113.847 83.1301 112.721 83.8704 111.572L84.711 112.113C83.8891 113.389 82.6779 114.613 81.1756 115.6L80.6263 114.764ZM72.2883 115.121C72.8501 116.046 73.9967 116.556 75.5306 116.523C77.057 116.489 78.8829 115.91 80.6263 114.764L81.1756 115.6C79.3042 116.83 77.2984 117.484 75.5526 117.522C73.8144 117.561 72.2484 116.982 71.4336 115.64L72.2883 115.121ZM71.9052 113.459C71.8738 114.088 72.0016 114.65 72.288 115.121L71.4339 115.641C71.0271 114.973 70.8667 114.205 70.9065 113.409L71.9052 113.459ZM65.6872 111.974C66.1029 112.658 66.8302 113.11 67.8024 113.289C68.7786 113.47 69.9764 113.368 71.253 112.958L71.5586 113.91C70.1648 114.358 68.7964 114.49 67.6208 114.273C66.4411 114.055 65.4307 113.478 64.8326 112.493L65.6872 111.974ZM67.088 106.439C65.3502 108.488 64.8736 110.634 65.6872 111.974L64.8325 112.493C63.6726 110.583 64.5013 107.943 66.3253 105.792L67.088 106.439ZM64.7837 91.6796C64.7837 94.6239 64.9843 97.461 65.383 99.9248C65.783 102.397 66.3773 104.459 67.1461 105.877L66.2671 106.354C65.4207 104.793 64.8035 102.603 64.3958 100.085C63.9869 97.5577 63.7837 94.666 63.7837 91.6796L64.7837 91.6796ZM74.7654 70.5022C70.649 72.03 68.1624 75.0355 66.695 78.8064C65.221 82.5943 64.7837 87.1388 64.7837 91.6796L63.7837 91.6796C63.7837 87.0942 64.2222 82.4034 65.7631 78.4437C67.3106 74.467 69.9779 71.2125 74.4174 69.5647L74.7654 70.5022ZM98.6978 69.4889C91.3294 67.72 81.837 67.8776 74.7654 70.5022L74.4174 69.5647C81.7063 66.8595 91.405 66.7098 98.9312 68.5165L98.6978 69.4889ZM111.766 79.5314C110.296 76.5492 108.636 74.4355 106.559 72.8724C104.479 71.3069 101.948 70.2692 98.6978 69.4889L98.9312 68.5165C102.26 69.3155 104.933 70.3972 107.161 72.0734C109.391 73.7521 111.142 76.0026 112.663 79.0894L111.766 79.5314Z" fill="black"/>
<path d="M199.159 77.2922H306V210.978C306 217.671 300.129 223.098 292.887 223.098H236.667C243.909 223.098 249.78 217.671 249.78 210.978V202.693H206.048L209.14 162.579H199.159V77.2922Z" fill="#F2D9FF" stroke="black" stroke-miterlimit="10"/>
<path d="M217.749 223.098H292.677C286.08 223.098 280.732 217.763 280.732 211.181V164.478C280.732 156.669 274.386 150.338 266.56 150.338C258.734 150.338 252.388 156.669 252.388 164.478H205.802V211.178C205.802 217.76 211.15 223.096 217.747 223.096L217.749 223.098Z" fill="#871FBF" stroke="black" stroke-miterlimit="10"/>
<path d="M211.397 129.169C215.909 130.719 220.421 132.267 224.933 133.817L238.469 129.169L252.005 133.817L265.541 129.169V122.555L252.005 127.203L238.469 122.555L224.933 127.203C220.421 125.653 215.909 124.105 211.397 122.555V129.169Z" fill="#D092F1" stroke="black" stroke-miterlimit="10"/>
<path d="M211.597 94.6139C216.109 96.1636 220.621 97.7119 225.133 99.2616L238.669 94.6139L252.205 99.2616L265.741 94.6139L279.277 99.2616L292.813 94.6139V88L279.277 92.6477L265.741 88L252.205 92.6477L238.669 88L225.133 92.6477C220.621 91.098 216.109 89.5497 211.597 88V94.6139Z" fill="#D092F1" stroke="black" stroke-miterlimit="10"/>
<path d="M211.597 111.89C216.109 113.439 220.621 114.988 225.133 116.537L238.669 111.89L252.205 116.537L265.741 111.89L279.277 116.537L292.813 111.89V105.276L279.277 109.924L265.741 105.276L252.205 109.924L238.669 105.276L225.133 109.924C220.621 108.374 216.109 106.826 211.597 105.276V111.89Z" fill="#D092F1" stroke="black" stroke-miterlimit="10"/>
<path fill-rule="evenodd" clip-rule="evenodd" d="M178.654 126.711C179.712 125.783 180.908 125.008 182.204 124.425C181.346 123.929 180.627 123.217 180.126 122.362C179.625 121.507 179.341 120.509 179.349 119.443C179.361 117.845 180.026 116.385 181.088 115.321C182.149 114.257 183.607 113.586 185.206 113.567L199.294 113.407L213.381 113.246C214.98 113.227 216.428 113.865 217.475 114.905C218.521 115.944 219.163 117.389 219.151 118.987C219.139 120.585 218.473 122.044 217.412 123.109C216.352 124.174 214.893 124.844 213.294 124.862L211.562 124.882L209.83 124.901C211.842 126.09 213.522 127.782 214.691 129.806C215.86 131.83 216.524 134.184 216.504 136.699L216.458 142.618L216.413 148.536C216.384 152.34 214.799 155.817 212.27 158.353C209.741 160.889 206.243 162.146 202.435 162.189L194.956 162.613L192.481 162.53C192.392 162.536 192.306 162.542 192.224 162.546L142.737 162.178C138.044 158.034 135.825 151.902 137.035 146.138C138.281 140.195 142.68 136.983 143.806 136.21C149.473 134.567 155.139 132.925 160.806 131.282C166.475 129.639 172.144 127.996 177.814 126.352C178.096 126.471 178.376 126.59 178.654 126.711Z" fill="#F2D9C9"/>
<path d="M178.654 126.711L178.983 127.087L178.745 127.296L178.454 127.17L178.654 126.711ZM182.204 124.425L182.454 123.992L183.3 124.48L182.41 124.881L182.204 124.425ZM179.349 119.443L178.849 119.439L178.849 119.439L179.349 119.443ZM181.088 115.321L181.442 115.674L181.088 115.321ZM185.206 113.567L185.2 113.068L185.201 113.068L185.206 113.567ZM199.294 113.407L199.3 113.907L199.294 113.407ZM213.381 113.246L213.387 113.746L213.387 113.746L213.381 113.246ZM217.475 114.905L217.827 114.55L217.475 114.905ZM219.151 118.987L219.651 118.991L219.151 118.987ZM217.412 123.109L217.767 123.462L217.412 123.109ZM213.294 124.862L213.299 125.362L213.299 125.362L213.294 124.862ZM211.562 124.882L211.567 125.382H211.567L211.562 124.882ZM209.83 124.901L209.575 125.332L208.034 124.422L209.824 124.401L209.83 124.901ZM214.691 129.806L215.124 129.555L214.691 129.806ZM216.504 136.699L216.004 136.695V136.695L216.504 136.699ZM216.458 142.618L215.958 142.614V142.614L216.458 142.618ZM216.413 148.536L215.913 148.533L215.913 148.532L216.413 148.536ZM212.27 158.353L211.916 157.999L212.27 158.353ZM202.435 162.189L202.407 161.69L202.418 161.69L202.429 161.689L202.435 162.189ZM194.956 162.613L194.984 163.112L194.962 163.113L194.939 163.112L194.956 162.613ZM192.481 162.53L192.444 162.031L192.471 162.029L192.498 162.03L192.481 162.53ZM192.224 162.546L192.251 163.046L192.235 163.046L192.22 163.046L192.224 162.546ZM142.737 162.178L142.733 162.678L142.546 162.676L142.406 162.552L142.737 162.178ZM137.035 146.138L137.524 146.24L137.524 146.24L137.035 146.138ZM143.806 136.21L143.523 135.797L143.59 135.752L143.667 135.73L143.806 136.21ZM160.806 131.282L160.666 130.802L160.806 131.282ZM177.814 126.352L177.675 125.872L177.845 125.822L178.008 125.891L177.814 126.352ZM178.324 126.335C179.419 125.375 180.657 124.573 181.999 123.969L182.41 124.881C181.159 125.444 180.005 126.191 178.983 127.087L178.324 126.335ZM181.954 124.858C181.021 124.319 180.24 123.545 179.695 122.615L180.557 122.109C181.014 122.889 181.67 123.539 182.454 123.992L181.954 124.858ZM179.695 122.615C179.149 121.684 178.84 120.597 178.849 119.439L179.849 119.446C179.842 120.42 180.101 121.33 180.557 122.109L179.695 122.615ZM178.849 119.439C178.862 117.703 179.585 116.119 180.734 114.968L181.442 115.674C180.467 116.651 179.86 117.988 179.849 119.446L178.849 119.439ZM180.734 114.968C181.882 113.816 183.463 113.088 185.2 113.068L185.212 114.067C183.752 114.084 182.417 114.697 181.442 115.674L180.734 114.968ZM185.201 113.068L199.288 112.907L199.3 113.907L185.212 114.067L185.201 113.068ZM199.288 112.907L213.376 112.746L213.387 113.746L199.3 113.907L199.288 112.907ZM213.376 112.746C215.114 112.726 216.69 113.42 217.827 114.55L217.122 115.26C216.167 114.311 214.847 113.729 213.387 113.746L213.376 112.746ZM217.827 114.55C218.965 115.681 219.664 117.254 219.651 118.991L218.651 118.983C218.662 117.525 218.076 116.208 217.122 115.26L217.827 114.55ZM219.651 118.991C219.638 120.727 218.914 122.31 217.767 123.462L217.058 122.756C218.032 121.778 218.64 120.442 218.651 118.983L219.651 118.991ZM217.767 123.462C216.619 124.614 215.037 125.342 213.299 125.362L213.288 124.362C214.749 124.345 216.084 123.734 217.058 122.756L217.767 123.462ZM213.299 125.362L211.567 125.382L211.556 124.382L213.288 124.362L213.299 125.362ZM211.567 125.382L209.835 125.401L209.824 124.401L211.556 124.382L211.567 125.382ZM210.084 124.471C212.17 125.703 213.911 127.457 215.124 129.555L214.258 130.056C213.132 128.107 211.514 126.477 209.575 125.332L210.084 124.471ZM215.124 129.555C216.337 131.654 217.024 134.096 217.004 136.703L216.004 136.695C216.023 134.272 215.384 132.005 214.258 130.056L215.124 129.555ZM217.004 136.703L216.958 142.621L215.958 142.614L216.004 136.695L217.004 136.703ZM216.958 142.621L216.913 148.54L215.913 148.532L215.958 142.614L216.958 142.621ZM216.913 148.54C216.883 152.483 215.239 156.083 212.624 158.706L211.916 157.999C214.358 155.551 215.885 152.198 215.913 148.533L216.913 148.54ZM212.624 158.706C209.986 161.351 206.354 162.644 202.441 162.689L202.429 161.689C206.132 161.647 209.496 160.426 211.916 157.999L212.624 158.706ZM202.463 162.689L194.984 163.112L194.928 162.113L202.407 161.69L202.463 162.689ZM194.939 163.112L192.464 163.029L192.498 162.03L194.973 162.113L194.939 163.112ZM192.196 162.047C192.276 162.043 192.358 162.037 192.444 162.031L192.518 163.028C192.426 163.035 192.337 163.041 192.251 163.046L192.196 162.047ZM142.741 161.678L192.227 162.046L192.22 163.046L142.733 162.678L142.741 161.678ZM137.524 146.24C136.355 151.812 138.497 157.767 143.068 161.803L142.406 162.552C137.592 158.302 135.295 151.992 136.545 146.035L137.524 146.24ZM144.089 136.622C142.99 137.376 138.729 140.494 137.524 146.24L136.545 146.035C137.833 139.897 142.37 136.589 143.523 135.797L144.089 136.622ZM160.945 131.762C155.278 133.405 149.612 135.047 143.945 136.69L143.667 135.73C149.334 134.087 155 132.444 160.666 130.802L160.945 131.762ZM177.953 126.832C172.284 128.476 166.614 130.119 160.945 131.762L160.666 130.802C166.336 129.159 172.005 127.516 177.675 125.872L177.953 126.832ZM178.454 127.17C178.178 127.05 177.9 126.931 177.62 126.813L178.008 125.891C178.291 126.011 178.573 126.131 178.853 126.252L178.454 127.17Z" fill="black"/>
<path d="M197.197 125.041C199.745 125.041 198.396 125.048 201.689 125.038L221.382 124.975C224.675 124.965 227.372 127.651 227.373 130.943C227.375 134.236 224.681 136.94 221.388 136.95L204.642 137.567" fill="#F2D9C9"/>
<path d="M197.197 125.041C199.745 125.041 198.396 125.048 201.689 125.038L221.382 124.975C224.675 124.965 227.372 127.651 227.373 130.943C227.375 134.236 224.681 136.94 221.388 136.95L204.642 137.567" stroke="black" stroke-miterlimit="10"/>
<path d="M202.54 137.223L222.301 137.045C225.606 137.016 228.296 139.694 228.278 142.997C228.261 146.299 225.542 149.026 222.238 149.055L202.477 149.233" fill="#F2D9C9"/>
<path d="M202.54 137.223L222.301 137.045C225.606 137.016 228.296 139.694 228.278 142.997C228.261 146.299 225.542 149.026 222.238 149.055L202.477 149.233" stroke="black" stroke-miterlimit="10"/>
<path d="M198.293 149.287L218.054 149.109C221.359 149.08 224.049 151.758 224.031 155.06C224.014 158.363 221.295 161.09 217.991 161.119L206.967 161.119" fill="#F2D9C9"/>
<path d="M198.293 149.287L218.054 149.109C221.359 149.08 224.049 151.758 224.031 155.06C224.014 158.363 221.295 161.09 217.991 161.119L206.967 161.119" stroke="black" stroke-miterlimit="10"/>
<path d="M182.656 133.106L179.68 133.111C177.044 133.117 174.903 130.645 174.898 127.59L174.87 109.556C174.865 106.501 176.998 104.021 179.633 104.015L182.609 104.01C185.245 104.004 187.386 106.476 187.391 109.531L187.419 124.132C187.424 127.187 185.292 133.1 182.656 133.106Z" fill="#F2D9C9"/>
<path d="M187.392 124.557L187.392 109.531C187.387 106.476 185.246 104.004 182.61 104.009L179.634 104.015C176.999 104.02 174.866 106.501 174.871 109.556L174.899 127.59" stroke="black" stroke-miterlimit="10"/>
<path d="M187.429 143.671C192.59 143.671 196.773 139.297 196.773 133.901C196.773 128.506 192.59 124.132 187.429 124.132" stroke="black"/>
<path d="M140.593 99.3968C140.593 95.7345 137.649 92.761 134 92.7032V92.7V92.6968C137.651 92.639 140.593 89.6655 140.593 86.0032C140.628 86.0032 140.665 86 140.7 86C140.736 86 140.773 86.0016 140.808 86.0032C140.808 89.6655 143.752 92.639 147.4 92.6968V92.7V92.7032C143.75 92.761 140.808 95.7345 140.808 99.3968C140.773 99.3968 140.736 99.4 140.7 99.4C140.665 99.4 140.628 99.3984 140.593 99.3968Z" fill="#FFDD46" stroke="black" stroke-miterlimit="10"/>
<path d="M176.593 48.3968C176.593 44.7345 173.649 41.761 170 41.7032C170 41.7032 170 41.7016 170 41.7C170 41.6984 170 41.6984 170 41.6968C173.651 41.639 176.593 38.6655 176.593 35.0032C176.628 35.0032 176.665 35 176.7 35C176.736 35 176.773 35.0016 176.808 35.0032C176.808 38.6655 179.752 41.639 183.4 41.6968C183.4 41.6968 183.4 41.6984 183.4 41.7C183.4 41.7016 183.4 41.7016 183.4 41.7032C179.75 41.761 176.808 44.7345 176.808 48.3968C176.773 48.3968 176.736 48.4 176.7 48.4C176.665 48.4 176.628 48.3984 176.593 48.3968Z" fill="#FFDD46" stroke="black" stroke-miterlimit="10"/>
<path d="M237.853 241.181C237.853 237.519 234.683 234.546 230.754 234.488C230.754 234.488 230.754 234.486 230.754 234.485C230.754 234.483 230.754 234.483 230.754 234.481C234.685 234.424 237.853 231.45 237.853 227.788C237.891 227.788 237.931 227.785 237.969 227.785C238.007 227.785 238.047 227.786 238.085 227.788C238.085 231.45 241.255 234.424 245.185 234.481C245.185 234.481 245.185 234.483 245.185 234.485C245.185 234.486 245.185 234.486 245.185 234.488C241.253 234.546 238.085 237.519 238.085 241.181C238.047 241.181 238.007 241.185 237.969 241.185C237.931 241.185 237.891 241.183 237.853 241.181Z" fill="#FFDD46" stroke="black" stroke-miterlimit="10"/>
<path d="M188.7 167.044V150.34H267.322C259.984 150.34 254.035 156.276 254.035 163.598V167.044H254.047V265.616H190.192V167.044H188.7Z" fill="#D092F1" stroke="black" stroke-miterlimit="10"/>
<path d="M162.276 150.338H267.382C256.767 150.338 248.162 158.922 248.16 169.514C248.16 169.514 248.16 261.828 248.16 274.394C234.194 274.394 237.951 274.394 225.356 274.394C212.762 274.394 222.856 274.394 202.552 274.394H143.054V169.517C143.054 158.925 151.659 150.338 162.276 150.338Z" fill="#F2D9FF" stroke="black" stroke-miterlimit="10"/>
<path d="M265.593 297.397C265.593 293.735 262.649 290.761 259 290.703C259 290.703 259 290.702 259 290.7C259 290.698 259 290.698 259 290.697C262.651 290.639 265.593 287.665 265.593 284.003C265.628 284.003 265.665 284 265.7 284C265.736 284 265.773 284.002 265.808 284.003C265.808 287.665 268.752 290.639 272.4 290.697C272.4 290.697 272.4 290.698 272.4 290.7C272.4 290.702 272.4 290.702 272.4 290.703C268.75 290.761 265.808 293.735 265.808 297.397C265.773 297.397 265.736 297.4 265.7 297.4C265.665 297.4 265.628 297.398 265.593 297.397Z" fill="#FFDD46" stroke="black" stroke-miterlimit="10"/>
<path d="M251.593 61.3968C251.593 57.7345 248.649 54.761 245 54.7032C245 54.7032 245 54.7016 245 54.7C245 54.6984 245 54.6984 245 54.6968C248.651 54.639 251.593 51.6655 251.593 48.0032C251.628 48.0032 251.665 48 251.7 48C251.736 48 251.773 48.0016 251.808 48.0032C251.808 51.6655 254.752 54.639 258.4 54.6968C258.4 54.6968 258.4 54.6984 258.4 54.7C258.4 54.7016 258.4 54.7016 258.4 54.7032C254.75 54.761 251.808 57.7345 251.808 61.3968C251.773 61.3968 251.736 61.4 251.7 61.4C251.665 61.4 251.628 61.3984 251.593 61.3968Z" fill="#FFDD46" stroke="black" stroke-miterlimit="10"/>
<path d="M84.3844 264.892V181.4H110.906C126.131 235.515 133.861 263.861 133.861 263.861C133.861 263.861 97.8064 264.892 84.3861 264.892H84.3844Z" fill="#B03EF5" stroke="black" stroke-miterlimit="10"/>
<path d="M91.3923 258.968C92.6151 256.968 96.7535 258.968 96.7535 258.968C110.423 242.507 129.382 245.703 138.957 255.359C148.728 265.212 148.836 282.108 138.179 292.723H63.7689V257.339C75.4946 257.339 82.8037 253.167 91.3923 258.968Z" fill="#6E00E1"/>
<path d="M91.3923 258.968C82.8037 253.167 75.4946 257.339 63.7689 257.339V292.723H138.179C148.836 282.108 148.728 265.212 138.957 255.359C129.382 245.703 110.423 242.507 96.7535 258.968M91.3923 258.968C92.615 256.968 96.7535 258.968 96.7535 258.968M91.3923 258.968H96.7535" stroke="black" stroke-miterlimit="10"/>
<rect x="-0.5" y="0.5" width="9" height="28" transform="matrix(-1 0 0 1 150 132)" fill="#F2D9FF" stroke="black"/>
<path d="M63.769 259.223V171.092L110.669 181.4C110.669 181.4 103.646 194.564 95.9197 200.469C95.9197 204.077 95.8765 201.463 95.9197 205.108C96.1314 222.97 95.9351 239.741 96.7536 259.223C77.8588 259.223 79.7343 259.223 63.769 259.223Z" stroke="black" stroke-miterlimit="10"/>
<rect x="-0.323807" y="0.628609" width="23.4809" height="10.3385" transform="matrix(-0.952416 0.304801 0.304801 0.952416 101.751 175.344)" fill="#F2D9FF" stroke="black"/>
<path d="M64 259V180H95.5631C95.7444 183.92 95.8759 196.132 95.973 199.848C96.0623 203.265 96.1225 206.612 96.1657 209.917C96.3776 226.119 96.1811 241.329 97 259C78.0963 259 79.9727 259 64 259Z" fill="#B03EF5"/>
<path d="M64 180V259C79.9727 259 78.0963 259 97 259C96.1811 241.329 96.3776 226.119 96.1657 209.917C96.1225 206.612 96.1657 208.591 96.1657 205.243" stroke="black" stroke-miterlimit="10"/>
<path fill-rule="evenodd" clip-rule="evenodd" d="M64.8647 140.081C64.8647 141.373 64.9397 142.624 65.0797 143.819L60.6769 174.534C60.6769 177.672 63.2067 180.215 66.328 180.215H75.1077L79.7461 195.162L104.503 189.492C107.282 189.492 107.141 180.132 107.076 175.864C107.068 175.339 107.062 174.89 107.062 174.546L107.062 161H145V131H107.045C106.632 128.723 98.3636 126.905 95.2735 126.905C93.2671 126.905 91.5022 127.672 90.4757 128.832L77.9919 124.554C76.9653 124.554 76.0021 124.832 75.1721 125.313C71.7142 125.881 64.8647 132.276 64.8647 140.081Z" fill="#D092F1"/>
<path d="M65.0797 143.819L65.5763 143.761L65.5838 143.825L65.5746 143.89L65.0797 143.819ZM60.6769 174.534H60.1769V174.498L60.182 174.463L60.6769 174.534ZM75.1077 180.215V179.715H75.476L75.5852 180.067L75.1077 180.215ZM79.7461 195.162L79.8577 195.649L79.406 195.752L79.2686 195.31L79.7461 195.162ZM104.503 189.492L104.391 189.005L104.446 188.992H104.503V189.492ZM107.076 175.864L106.576 175.872L107.076 175.864ZM107.062 174.546H107.562H107.062ZM107.062 161H106.562V160.5H107.062V161ZM145 161H145.5V161.5H145V161ZM145 131V130.5H145.5V131H145ZM107.045 131V131.5H106.628L106.553 131.09L107.045 131ZM90.4757 128.832L90.85 129.163L90.629 129.413L90.3136 129.305L90.4757 128.832ZM77.9919 124.554V124.054H78.0752L78.154 124.081L77.9919 124.554ZM75.1721 125.313L75.4228 125.746L75.3436 125.792L75.2532 125.806L75.1721 125.313ZM64.5831 143.877C64.4408 142.663 64.3647 141.392 64.3647 140.081H65.3647C65.3647 141.353 65.4386 142.586 65.5763 143.761L64.5831 143.877ZM60.182 174.463L64.5847 143.748L65.5746 143.89L61.1718 174.605L60.182 174.463ZM66.328 180.715C62.928 180.715 60.1769 177.946 60.1769 174.534H61.1769C61.1769 177.398 63.4853 179.715 66.328 179.715V180.715ZM75.1077 180.715H66.328V179.715H75.1077V180.715ZM79.2686 195.31L74.6301 180.364L75.5852 180.067L80.2237 195.013L79.2686 195.31ZM104.614 189.98L79.8577 195.649L79.6345 194.674L104.391 189.005L104.614 189.98ZM107.576 175.857C107.608 177.985 107.661 181.423 107.353 184.331C107.2 185.781 106.953 187.139 106.551 188.148C106.164 189.118 105.535 189.992 104.503 189.992V188.992C104.86 188.992 105.255 188.697 105.622 187.778C105.973 186.899 106.208 185.65 106.359 184.226C106.659 181.388 106.609 178.011 106.576 175.872L107.576 175.857ZM107.562 174.546C107.562 174.886 107.568 175.33 107.576 175.857L106.576 175.872C106.568 175.348 106.562 174.895 106.562 174.546H107.562ZM107.562 161L107.562 174.546H106.562L106.562 161H107.562ZM107.062 160.5H145V161.5H107.062V160.5ZM144.5 161V131H145.5V161H144.5ZM145 131.5H107.045V130.5H145V131.5ZM95.2735 126.405C96.8815 126.405 99.7708 126.871 102.305 127.619C103.574 127.994 104.782 128.447 105.709 128.963C106.173 129.221 106.583 129.504 106.898 129.814C107.211 130.122 107.461 130.488 107.537 130.911L106.553 131.09C106.527 130.943 106.427 130.754 106.197 130.527C105.968 130.302 105.641 130.069 105.223 129.837C104.387 129.371 103.257 128.943 102.022 128.578C99.5455 127.847 96.7556 127.405 95.2735 127.405V126.405ZM90.1013 128.5C91.2384 127.216 93.1493 126.405 95.2735 126.405V127.405C93.3848 127.405 91.7661 128.128 90.85 129.163L90.1013 128.5ZM78.154 124.081L90.6377 128.359L90.3136 129.305L77.8298 125.027L78.154 124.081ZM74.9215 124.88C75.8246 124.357 76.8739 124.054 77.9919 124.054V125.054C77.0568 125.054 76.1796 125.307 75.4228 125.746L74.9215 124.88ZM64.3647 140.081C64.3647 136.033 66.1387 132.375 68.3333 129.668C69.4323 128.313 70.6455 127.184 71.8133 126.355C72.9724 125.532 74.1211 124.979 75.0911 124.82L75.2532 125.806C74.4942 125.931 73.49 126.391 72.3923 127.17C71.3032 127.944 70.1557 129.008 69.1101 130.298C67.0154 132.882 65.3647 136.324 65.3647 140.081H64.3647Z" fill="black"/>
<path d="M76.8634 89.2558C77.1603 89.273 77.4506 89.3042 77.739 89.3479C77.0738 90.9835 76.6638 92.7513 76.5575 94.6072L76.0994 102.612C75.9926 104.466 76.199 106.269 76.6741 107.971C76.3829 107.981 76.0903 107.98 75.7934 107.963C70.6265 107.669 66.6769 103.243 66.9738 98.0775C67.2707 92.9118 71.6969 88.9632 76.8643 89.259L76.8634 89.2558Z" fill="#F2D9C9" stroke="black" stroke-miterlimit="10"/>
<path d="M82.3898 112.572L97.2227 114.787L96.099 122.298L81.2661 120.084L82.3898 112.572Z" fill="#F2D9C9" stroke="black" stroke-miterlimit="10"/>
<path d="M71.0402 100.888C73.8328 101.047 76.5628 102.264 78.5599 104.502C80.5569 106.74 81.4556 109.59 81.2956 112.382" stroke="black" stroke-miterlimit="10"/>
<path d="M93.4452 76.1023L93.5803 76.11C102.697 76.6299 109.665 84.4396 109.143 93.5536L108.677 101.691C108.155 110.805 100.342 117.772 91.2249 117.252L91.0898 117.245C81.9729 116.725 75.0051 108.915 75.5269 99.8012L75.9928 91.6634C76.5145 82.5494 84.3282 75.5825 93.4452 76.1023Z" fill="#F2D9C9" stroke="black" stroke-miterlimit="10"/>
<path d="M106.316 98.4987C105.545 98.7053 104.753 98.2481 104.546 97.4775C104.34 96.7069 104.797 95.9148 105.568 95.7082C106.339 95.5017 107.131 95.9589 107.338 96.7295C107.544 97.5001 107.087 98.2922 106.316 98.4987Z" fill="black"/>
<path d="M95.6039 97.7197C94.833 97.9262 94.0407 97.469 93.8342 96.6984C93.6278 95.9278 94.0853 95.1357 94.8562 94.9292C95.627 94.7226 96.4193 95.1798 96.6258 95.9504C96.8323 96.721 96.3748 97.5131 95.6039 97.7197Z" fill="black"/>
<path d="M103.671 102.506L104.447 102.551C105.185 102.593 105.821 102.025 105.864 101.287C105.907 100.55 105.339 99.9138 104.601 99.8712L103.825 99.8268" fill="#F2D9C9"/>
<path d="M103.671 102.506L104.447 102.551C105.185 102.593 105.821 102.025 105.864 101.287C105.907 100.55 105.339 99.9138 104.601 99.8712L103.825 99.8268" stroke="black" stroke-miterlimit="10"/>
<path d="M92.849 104.621C93.3778 105.077 93.9503 105.484 94.5574 105.833C95.1646 106.182 95.8085 106.475 96.4785 106.703C97.1485 106.932 97.8462 107.096 98.5634 107.191C99.2806 107.285 100.018 107.307 100.766 107.252C101.514 107.197 102.24 107.066 102.936 106.869C103.632 106.673 104.298 106.408 104.929 106.083" fill="#F2D9C9"/>
<path d="M92.849 104.621C93.3778 105.077 93.9503 105.484 94.5574 105.833C95.1646 106.182 95.8085 106.475 96.4785 106.703C97.1485 106.932 97.8462 107.096 98.5634 107.191C99.2806 107.285 100.018 107.307 100.766 107.252C101.514 107.197 102.24 107.066 102.936 106.869C103.632 106.673 104.298 106.408 104.929 106.083" stroke="black" stroke-miterlimit="10"/>
<path d="M91.0008 105.403C91.1959 105.389 91.3894 105.356 91.5798 105.305C91.7702 105.254 91.9538 105.184 92.1327 105.096C92.3115 105.009 92.4804 104.903 92.6412 104.78C92.8021 104.658 92.9524 104.515 93.09 104.358C93.2271 104.198 93.3447 104.03 93.4442 103.853C93.5438 103.676 93.6226 103.492 93.6826 103.303" fill="#F2D9C9"/>
<path d="M91.0008 105.403C91.1959 105.389 91.3894 105.356 91.5798 105.305C91.7702 105.254 91.9538 105.184 92.1327 105.096C92.3115 105.009 92.4804 104.903 92.6412 104.78C92.8021 104.658 92.9524 104.515 93.09 104.358C93.2271 104.198 93.3447 104.03 93.4442 103.853C93.5438 103.676 93.6226 103.492 93.6826 103.303" stroke="black" stroke-miterlimit="10"/>
<path d="M98.1588 120.473C92.2124 119.993 86.2654 119.511 80.3189 119.03C79.359 121.6 78.3975 124.17 77.4376 126.74C83.8986 128.171 90.3614 129.602 96.8224 131.033C97.2677 127.513 97.7136 123.994 98.1605 120.473L98.1588 120.473Z" fill="#D092F1" stroke="black" stroke-miterlimit="10"/>
<path d="M107 146L107 179" stroke="black"/>
<path d="M99.3308 87.5565C100.694 84.9622 101.387 83.5977 102.423 80.8565C102.965 79.4227 102.938 76.7334 102.938 76.7334L86.4462 71.5796L69.9539 82.9181L75.6231 100.441L77.6846 99.4104C77.6846 99.4104 86.8357 98.3575 91.6 95.2873C95.189 92.9745 97.3452 91.3363 99.3308 87.5565Z" fill="#B03EF5"/>
<path d="M71.4998 87.0411L75.6229 100.441L77.6844 99.4103C77.6844 99.4103 86.8355 98.3574 91.5998 95.2872C95.1887 92.9745 97.345 91.3363 99.3306 87.5565C100.693 84.9621 101.387 83.5977 102.423 80.8565C102.965 79.4227 102.938 76.7334 102.938 76.7334" stroke="black"/>
<path d="M100.813 90.0775C99.7066 89.4071 98.1113 89.0888 96.2948 89.2835C94.4767 89.4786 92.7679 90.152 91.477 91.0788" stroke="black" stroke-miterlimit="10"/>
<path d="M109.064 91.0455C108.447 90.109 107.584 89.4503 106.626 89.2949C105.667 89.1395 104.786 89.5164 104.138 90.2473" stroke="black" stroke-miterlimit="10"/>
<path d="M77.1689 186.4L64.7997 143.108" stroke="black"/>
<path d="M94.898 138.108L105 172L97 174" stroke="black"/>
<path d="M155.197 169.378C159.709 170.927 164.221 172.476 168.733 174.025L182.269 169.378L195.805 174.025L209.341 169.378L222.877 174.025L236.413 169.378V162.764L222.877 167.411L209.341 162.764L195.805 167.411L182.269 162.764L168.733 167.411C164.221 165.862 159.709 164.313 155.197 162.764V169.378Z" fill="#D092F1" stroke="black" stroke-miterlimit="10"/>
<path d="M155 186.648C159.512 188.198 164.024 189.746 168.536 191.296L182.072 186.648L195.608 191.296L209.144 186.648V180.034L195.608 184.682L182.072 180.034L168.536 184.682C164.024 183.132 159.512 181.584 155 180.034V186.648Z" fill="#D092F1" stroke="black" stroke-miterlimit="10"/>
<path d="M85.7095 172.54C84.5831 173.313 80.1842 176.525 78.938 182.467C77.728 188.232 79.9476 194.364 84.6404 198.508C101.136 198.63 117.631 198.753 134.127 198.876C135.42 198.805 137.439 198.502 139.398 197.241C139.398 197.241 143.851 194.374 144.695 187.369C145.642 179.513 111.624 199.808 104.924 167.854C92.9238 170.354 88.9237 171.354 85.7095 172.54Z" fill="#F2D9FF" stroke="black" stroke-miterlimit="10"/>
<path fill-rule="evenodd" clip-rule="evenodd" d="M124.68 167.164C125.738 166.236 126.934 165.461 128.231 164.878C127.372 164.382 126.653 163.67 126.152 162.815C125.651 161.96 125.367 160.962 125.375 159.896C125.387 158.298 126.052 156.838 127.114 155.774C128.176 154.709 129.634 154.039 131.233 154.02L145.32 153.86L159.408 153.699C161.007 153.68 162.455 154.318 163.501 155.358C164.547 156.397 165.19 157.842 165.178 159.44C165.166 161.037 164.499 162.496 163.439 163.562C162.378 164.627 160.919 165.297 159.32 165.315L157.588 165.335L155.856 165.354C157.869 166.543 159.548 168.234 160.717 170.258C161.887 172.282 162.55 174.637 162.53 177.152L162.485 183.07L162.439 188.989C162.41 192.793 160.825 196.269 158.296 198.805C155.767 201.341 152.269 202.599 148.461 202.642L140.982 203.066L138.51 202.983C138.42 202.989 138.334 202.995 138.25 202.999L88.7635 202.631C84.0707 198.487 81.8511 192.355 83.0612 186.591C84.3073 180.648 88.7062 177.436 89.8327 176.663C95.5022 175.019 101.172 173.376 106.841 171.733C112.507 170.09 118.174 168.448 123.84 166.805C124.122 166.924 124.402 167.043 124.68 167.164Z" fill="#F2D9C9"/>
<path d="M124.68 167.164L125.009 167.54L124.771 167.749L124.481 167.623L124.68 167.164ZM128.231 164.878L128.481 164.444L129.326 164.932L128.436 165.333L128.231 164.878ZM125.375 159.896L124.875 159.892L124.875 159.892L125.375 159.896ZM127.114 155.774L126.76 155.421L126.76 155.421L127.114 155.774ZM131.233 154.02L131.227 153.52L131.227 153.52L131.233 154.02ZM145.32 153.86L145.326 154.36L145.32 153.86ZM159.408 153.699L159.414 154.199L159.413 154.199L159.408 153.699ZM163.501 155.358L163.148 155.712L163.501 155.358ZM165.178 159.44L164.678 159.436L165.178 159.44ZM163.439 163.562L163.793 163.915L163.439 163.562ZM159.32 165.315L159.326 165.815L159.326 165.815L159.32 165.315ZM157.588 165.335L157.594 165.835L157.594 165.835L157.588 165.335ZM155.856 165.354L155.602 165.785L154.06 164.874L155.85 164.854L155.856 165.354ZM160.717 170.258L160.284 170.509L160.717 170.258ZM162.53 177.152L162.03 177.148L162.03 177.148L162.53 177.152ZM162.485 183.07L161.985 183.067L162.485 183.07ZM162.439 188.989L161.939 188.985L161.939 188.985L162.439 188.989ZM158.296 198.805L158.65 199.159L158.296 198.805ZM148.461 202.642L148.433 202.143L148.444 202.142L148.455 202.142L148.461 202.642ZM140.982 203.066L141.011 203.565L140.988 203.566L140.966 203.565L140.982 203.066ZM138.51 202.983L138.472 202.484L138.499 202.482L138.527 202.483L138.51 202.983ZM138.25 202.999L138.277 203.499L138.262 203.5L138.246 203.499L138.25 202.999ZM88.7635 202.631L88.7598 203.131L88.5728 203.129L88.4326 203.006L88.7635 202.631ZM83.0612 186.591L83.5505 186.693L83.5505 186.693L83.0612 186.591ZM89.8327 176.663L89.5497 176.251L89.6161 176.205L89.6934 176.183L89.8327 176.663ZM106.841 171.733L106.98 172.213L106.98 172.213L106.841 171.733ZM123.84 166.805L123.701 166.325L123.871 166.276L124.034 166.344L123.84 166.805ZM124.35 166.788C125.445 165.828 126.683 165.026 128.025 164.422L128.436 165.333C127.186 165.897 126.031 166.644 125.009 167.54L124.35 166.788ZM127.981 165.311C127.047 164.772 126.266 163.998 125.721 163.068L126.584 162.562C127.041 163.342 127.697 163.992 128.481 164.444L127.981 165.311ZM125.721 163.068C125.175 162.137 124.867 161.05 124.875 159.892L125.875 159.899C125.868 160.873 126.127 161.783 126.584 162.562L125.721 163.068ZM124.875 159.892C124.888 158.156 125.611 156.572 126.76 155.421L127.468 156.127C126.493 157.104 125.886 158.441 125.875 159.899L124.875 159.892ZM126.76 155.421C127.908 154.269 129.489 153.541 131.227 153.52L131.238 154.52C129.778 154.537 128.443 155.15 127.468 156.127L126.76 155.421ZM131.227 153.52L145.314 153.36L145.326 154.36L131.238 154.52L131.227 153.52ZM145.314 153.36L159.402 153.199L159.413 154.199L145.326 154.36L145.314 153.36ZM159.402 153.199C161.141 153.179 162.716 153.873 163.853 155.003L163.148 155.712C162.193 154.763 160.873 154.182 159.414 154.199L159.402 153.199ZM163.853 155.003C164.991 156.134 165.691 157.707 165.678 159.444L164.678 159.436C164.689 157.978 164.103 156.661 163.148 155.712L163.853 155.003ZM165.678 159.444C165.665 161.18 164.94 162.762 163.793 163.915L163.084 163.209C164.059 162.23 164.667 160.895 164.678 159.436L165.678 159.444ZM163.793 163.915C162.645 165.067 161.063 165.795 159.326 165.815L159.314 164.815C160.775 164.798 162.111 164.187 163.084 163.209L163.793 163.915ZM159.326 165.815L157.594 165.835L157.582 164.835L159.314 164.815L159.326 165.815ZM157.594 165.835L155.862 165.854L155.85 164.854L157.582 164.835L157.594 165.835ZM156.11 164.924C158.197 166.156 159.938 167.909 161.15 170.008L160.284 170.509C159.158 168.559 157.541 166.93 155.602 165.785L156.11 164.924ZM161.15 170.008C162.363 172.107 163.051 174.549 163.03 177.156L162.03 177.148C162.049 174.724 161.41 172.458 160.284 170.509L161.15 170.008ZM163.03 177.156L162.985 183.074L161.985 183.067L162.03 177.148L163.03 177.156ZM162.985 183.074L162.939 188.993L161.939 188.985L161.985 183.067L162.985 183.074ZM162.939 188.993C162.909 192.936 161.266 196.535 158.65 199.159L157.942 198.452C160.384 196.003 161.911 192.651 161.939 188.985L162.939 188.993ZM158.65 199.159C156.012 201.804 152.38 203.097 148.467 203.142L148.455 202.142C152.158 202.1 155.522 200.879 157.942 198.452L158.65 199.159ZM148.489 203.142L141.011 203.565L140.954 202.566L148.433 202.143L148.489 203.142ZM140.966 203.565L138.493 203.482L138.527 202.483L140.999 202.566L140.966 203.565ZM138.223 202.5C138.303 202.496 138.386 202.49 138.472 202.484L138.547 203.481C138.454 203.488 138.364 203.494 138.277 203.499L138.223 202.5ZM88.7673 202.131L138.254 202.499L138.246 203.499L88.7598 203.131L88.7673 202.131ZM83.5505 186.693C82.381 192.265 84.523 198.22 89.0945 202.256L88.4326 203.006C83.6183 198.755 81.3213 192.445 82.5718 186.488L83.5505 186.693ZM90.1156 177.075C89.0163 177.83 84.7556 180.947 83.5505 186.693L82.5718 186.488C83.859 180.35 88.3961 177.042 89.5497 176.251L90.1156 177.075ZM106.98 172.213C101.311 173.856 95.6414 175.499 89.9719 177.143L89.6934 176.183C95.363 174.539 101.032 172.896 106.702 171.253L106.98 172.213ZM123.98 167.285C118.313 168.928 112.647 170.571 106.98 172.213L106.702 171.253C112.368 169.61 118.035 167.968 123.701 166.325L123.98 167.285ZM124.481 167.623C124.204 167.503 123.926 167.384 123.646 167.266L124.034 166.344C124.318 166.464 124.599 166.584 124.879 166.706L124.481 167.623Z" fill="black"/>
<path d="M143.224 165.494C145.773 165.494 144.423 165.501 147.716 165.491L167.409 165.428C170.702 165.417 173.399 168.104 173.401 171.396C173.402 174.689 170.708 177.393 167.415 177.403L150.669 178.02" fill="#F2D9C9"/>
<path d="M143.224 165.494C145.773 165.494 144.423 165.501 147.716 165.491L167.409 165.428C170.702 165.417 173.399 168.104 173.401 171.396C173.402 174.689 170.708 177.393 167.415 177.403L150.669 178.02" stroke="black" stroke-miterlimit="10"/>
<path d="M148.566 177.676L168.327 177.498C171.632 177.469 174.323 180.147 174.305 183.449C174.287 186.752 171.569 189.479 168.264 189.508L148.503 189.686" fill="#F2D9C9"/>
<path d="M148.566 177.676L168.327 177.498C171.632 177.469 174.323 180.147 174.305 183.449C174.287 186.752 171.569 189.479 168.264 189.508L148.503 189.686" stroke="black" stroke-miterlimit="10"/>
<path d="M144.32 189.74L164.081 189.562C167.386 189.532 170.076 192.211 170.059 195.513C170.041 198.815 167.323 201.542 164.018 201.572L152.995 201.572" fill="#F2D9C9"/>
<path d="M144.32 189.74L164.081 189.562C167.386 189.532 170.076 192.211 170.059 195.513C170.041 198.815 167.323 201.542 164.018 201.572L152.995 201.572" stroke="black" stroke-miterlimit="10"/>
<path d="M128.683 173.558L125.707 173.564C123.071 173.57 120.931 171.097 120.926 168.043L120.897 150.009C120.892 146.954 123.025 144.474 125.661 144.468L128.637 144.462C131.272 144.457 133.413 146.929 133.418 149.984L133.533 154.066C133.537 157.12 131.319 173.553 128.683 173.558Z" fill="#F2D9C9"/>
<path d="M133.432 153.981L133.529 149.531C133.524 146.476 131.384 144.004 128.748 144.009L125.772 144.015C123.136 144.02 121.003 146.501 121.008 149.556L121.037 167.59" stroke="black" stroke-miterlimit="10"/>
<path d="M46.5928 63.3968C46.5928 59.7345 43.6491 56.761 40.0004 56.7032V56.7V56.6968C43.6507 56.639 46.5928 53.6655 46.5928 50.0032C46.6281 50.0032 46.6651 50 46.7004 50C46.7357 50 46.7727 50.0016 46.808 50.0032C46.808 53.6655 49.7517 56.639 53.4004 56.6968V56.7V56.7032C49.7501 56.761 46.808 59.7345 46.808 63.3968C46.7727 63.3968 46.7357 63.4 46.7004 63.4C46.6651 63.4 46.6281 63.3984 46.5928 63.3968Z" fill="#FFDD46" stroke="black" stroke-miterlimit="10"/>
<path d="M319.593 265.397C319.593 261.735 316.649 258.761 313 258.703C313 258.703 313 258.702 313 258.7C313 258.698 313 258.698 313 258.697C316.651 258.639 319.593 255.665 319.593 252.003C319.628 252.003 319.665 252 319.7 252C319.736 252 319.773 252.002 319.808 252.003C319.808 255.665 322.752 258.639 326.4 258.697C326.4 258.697 326.4 258.698 326.4 258.7C326.4 258.702 326.4 258.702 326.4 258.703C322.75 258.761 319.808 261.735 319.808 265.397C319.773 265.397 319.736 265.4 319.7 265.4C319.665 265.4 319.628 265.398 319.593 265.397Z" fill="#FFDD46" stroke="black" stroke-miterlimit="10"/>
<path d="M332.593 81.3968C332.593 77.7345 329.649 74.761 326 74.7032C326 74.7032 326 74.7016 326 74.7C326 74.6984 326 74.6984 326 74.6968C329.651 74.639 332.593 71.6655 332.593 68.0032C332.628 68.0032 332.665 68 332.7 68C332.736 68 332.773 68.0016 332.808 68.0032C332.808 71.6655 335.752 74.639 339.4 74.6968C339.4 74.6968 339.4 74.6984 339.4 74.7C339.4 74.7016 339.4 74.7016 339.4 74.7032C335.75 74.761 332.808 77.7345 332.808 81.3968C332.773 81.3968 332.736 81.4 332.7 81.4C332.665 81.4 332.628 81.3984 332.593 81.3968Z" fill="#FFDD46" stroke="black" stroke-miterlimit="10"/>
<path d="M345.593 163.397C345.593 159.735 342.649 156.761 339 156.703C339 156.703 339 156.702 339 156.7C339 156.698 339 156.698 339 156.697C342.651 156.639 345.593 153.665 345.593 150.003C345.628 150.003 345.665 150 345.7 150C345.736 150 345.773 150.002 345.808 150.003C345.808 153.665 348.752 156.639 352.4 156.697C352.4 156.697 352.4 156.698 352.4 156.7C352.4 156.702 352.4 156.702 352.4 156.703C348.75 156.761 345.808 159.735 345.808 163.397C345.773 163.397 345.736 163.4 345.7 163.4C345.665 163.4 345.628 163.398 345.593 163.397Z" fill="#FFDD46" stroke="black" stroke-miterlimit="10"/>
<path d="M25.5928 150.397C25.5928 146.735 22.6491 143.761 19.0004 143.703C19.0004 143.703 19.0004 143.702 19.0004 143.7C19.0004 143.698 19.0004 143.698 19.0004 143.697C22.6507 143.639 25.5928 140.665 25.5928 137.003C25.6281 137.003 25.6651 137 25.7004 137C25.7357 137 25.7727 137.002 25.808 137.003C25.808 140.665 28.7517 143.639 32.4004 143.697C32.4004 143.697 32.4004 143.698 32.4004 143.7C32.4004 143.702 32.4004 143.702 32.4004 143.703C28.7501 143.761 25.808 146.735 25.808 150.397C25.7727 150.397 25.7357 150.4 25.7004 150.4C25.6651 150.4 25.6281 150.398 25.5928 150.397Z" fill="#FFDD46" stroke="black" stroke-miterlimit="10"/>
</g>
<defs>
<clipPath id="clip0_1677_6441">
<rect width="371" height="308" fill="white"/>
</clipPath>
</defs>
</svg>
