<svg width="26" height="38" viewBox="0 0 26 38" fill="none" xmlns="http://www.w3.org/2000/svg">
<path d="M8.42715 33.373H0.47793V34.0078H4.06191V36.791H4.81387V34.0078H8.42715V33.373ZM1.54238 32.4746H7.52871V31.8496H2.3041V30.7754H7.22598V30.1602H2.3041V29.1445H7.43106V28.5195H1.54238V32.4746ZM15.9541 31.3613H10.9053V29.2617H15.8369V28.627H10.124V31.9766H15.9541V31.3613ZM9.02051 33.7539H12.5947V36.7617H13.3467V33.7539H16.9697V33.1289H9.02051V33.7539ZM25.483 31.9082H21.8893V31.0488H24.4576V28.4023H18.5982V31.0488H21.1373V31.9082H17.5729V32.543H25.483V31.9082ZM18.5299 33.8613H23.7154V34.6328H18.5494V36.6934H24.7311V36.0879H19.3111V35.209H24.4674V33.2656H18.5299V33.8613ZM19.36 30.4336V29.0176H23.6959V30.4336H19.36Z" fill="#888888"/>
<path fill-rule="evenodd" clip-rule="evenodd" d="M21.999 3H3.99902C3.73381 3 3.47945 3.10513 3.29192 3.29227C3.10438 3.47941 2.99902 3.73323 2.99902 3.99788V4.85714C2.99902 5.40943 3.44674 5.85714 3.99902 5.85714H21.999C22.5513 5.85714 22.999 5.40943 22.999 4.85714V3.99788C22.999 3.73323 22.8937 3.47941 22.7061 3.29227C22.5186 3.10513 22.2642 3 21.999 3ZM4.17502 18.7003C4.17502 19.3353 4.42774 19.9443 4.87761 20.3934C5.32748 20.8425 5.93768 21.095 6.57402 21.0952H10.999V15.4444C10.999 15.1798 11.1044 14.9259 11.2919 14.7388C11.4795 14.5517 11.7338 14.4465 11.999 14.4465H13.999C14.2642 14.4465 14.5186 14.5517 14.7061 14.7388C14.8937 14.9259 14.999 15.1798 14.999 15.4444V21.0942H19.424C20.0604 21.094 20.6706 20.8415 21.1204 20.3924C21.5703 19.9433 21.823 19.3343 21.823 18.6993V5.85714H4.17502V18.7003Z" fill="#888888"/>
</svg>
