<svg width="26" height="38" viewBox="0 0 26 38" fill="none" xmlns="http://www.w3.org/2000/svg">
<path d="M8.42715 33.373H0.47793V34.0078H4.06191V36.791H4.81387V34.0078H8.42715V33.373ZM1.54238 32.4746H7.52871V31.8496H2.3041V30.7754H7.22598V30.1602H2.3041V29.1445H7.43106V28.5195H1.54238V32.4746ZM15.9541 31.3613H10.9053V29.2617H15.8369V28.627H10.124V31.9766H15.9541V31.3613ZM9.02051 33.7539H12.5947V36.7617H13.3467V33.7539H16.9697V33.1289H9.02051V33.7539ZM24.36 28.1094H23.5982V33.3438H24.36V31.0781H25.6686V30.4238H24.36V28.1094ZM17.5924 29.6719H22.7682V29.0371H20.5611V28.041H19.7994V29.0371H17.5924V29.6719ZM18.0904 31.6445C18.0855 32.5869 18.9205 33.1973 20.1803 33.1973C21.4254 33.1973 22.2604 32.5869 22.2701 31.6445C22.2604 30.7168 21.4254 30.1016 20.1803 30.1016C18.9205 30.1016 18.0855 30.7168 18.0904 31.6445ZM18.8229 31.6445C18.818 31.0781 19.36 30.6973 20.1803 30.6973C20.9908 30.6973 21.5377 31.0781 21.5475 31.6445C21.5377 32.2354 20.9908 32.6016 20.1803 32.6113C19.36 32.6016 18.818 32.2354 18.8229 31.6445ZM18.8814 36.6738H24.36V33.8418H18.8814V36.6738ZM19.6334 36.0488V34.457H23.5982V36.0488H19.6334Z" fill="#888888"/>
<path fill-rule="evenodd" clip-rule="evenodd" d="M19.799 6.33325H2.99902V17.5777C2.99902 18.6978 2.99902 19.2579 3.21701 19.6857C3.40876 20.062 3.71472 20.368 4.09104 20.5597C4.51886 20.7777 5.07891 20.7777 6.19901 20.7777H6.19902H19.799H19.799C20.9191 20.7777 21.4792 20.7777 21.907 20.5597C22.2833 20.368 22.5893 20.062 22.781 19.6857C22.999 19.2579 22.999 18.6978 22.999 17.5777V9.53325C22.999 8.41315 22.999 7.85309 22.781 7.42527C22.5893 7.04895 22.2833 6.74299 21.907 6.55124C21.4792 6.33325 20.9191 6.33325 19.799 6.33325ZM17.5953 11.4853C17.9859 11.0947 17.9859 10.4616 17.5953 10.071C17.2048 9.68051 16.5717 9.68051 16.1811 10.071L12.4438 13.8084L10.3731 11.7377C9.9826 11.3472 9.34943 11.3472 8.95891 11.7377C8.56838 12.1282 8.56838 12.7614 8.95891 13.1519L11.7367 15.9297C11.9242 16.1172 12.1786 16.2226 12.4438 16.2226C12.709 16.2226 12.9634 16.1172 13.1509 15.9297L17.5953 11.4853Z" fill="#888888"/>
<path d="M2.99902 6.33333C2.99902 5.08718 2.99902 4.4641 3.26697 4C3.44251 3.69596 3.69498 3.44349 3.99902 3.26795C4.46312 3 5.0862 3 6.33236 3H9.11995C9.93745 3 10.3462 3 10.7137 3.15224C11.0813 3.30448 11.3703 3.59351 11.9484 4.17157L14.1101 6.33333H2.99902V6.33333Z" fill="#888888"/>
</svg>
