<svg width="16" height="16" viewBox="0 0 16 16" fill="none" xmlns="http://www.w3.org/2000/svg">
<path fill-rule="evenodd" clip-rule="evenodd" d="M15 8C15 11.866 11.866 15 8 15C4.13401 15 1 11.866 1 8C1 4.13401 4.13401 1 8 1C11.866 1 15 4.13401 15 8ZM5.89998 5.61668C5.48577 5.61668 5.14998 5.95247 5.14998 6.36668C5.14998 6.78089 5.48577 7.11668 5.89998 7.11668H5.90757C6.32178 7.11668 6.65757 6.78089 6.65757 6.36668C6.65757 5.95247 6.32178 5.61668 5.90757 5.61668H5.89998ZM5.59907 9.09895L5.59881 9.09861L5.5988 9.0986C5.43284 8.87891 5.12031 8.83469 4.89987 9.00002C4.67896 9.1657 4.63418 9.47911 4.79987 9.70002L5.19987 9.40002C4.79987 9.70002 4.79999 9.70018 4.80012 9.70035L4.80039 9.70071L4.80101 9.70153L4.80254 9.70356L4.8068 9.70912L4.82007 9.72609C4.83101 9.73991 4.84615 9.75865 4.86542 9.78161C4.90392 9.82749 4.95909 9.89043 5.03028 9.96472C5.17226 10.1129 5.38034 10.3086 5.64953 10.5044C6.186 10.8945 6.9871 11.3 7.99987 11.3C9.01264 11.3 9.81374 10.8945 10.3502 10.5044C10.6194 10.3086 10.8275 10.1129 10.9695 9.96472C11.0407 9.89043 11.0958 9.82749 11.1343 9.78161C11.1536 9.75865 11.1687 9.73991 11.1797 9.72609L11.1929 9.70912L11.1972 9.70356L11.1987 9.70153L11.1994 9.70071L11.1996 9.70035C11.1997 9.70018 11.1999 9.70002 10.7999 9.40002L11.1999 9.70002C11.3656 9.47911 11.3208 9.1657 11.0999 9.00002C10.8793 8.83458 10.5665 8.87897 10.4006 9.09903L10.3956 9.10539C10.3903 9.11208 10.3812 9.12342 10.3683 9.13874C10.3426 9.16943 10.3021 9.21586 10.2475 9.27282C10.1379 9.38717 9.97409 9.54143 9.76203 9.69565C9.336 10.0055 8.7371 10.3 7.99987 10.3C7.26264 10.3 6.66374 10.0055 6.23771 9.69565C6.02565 9.54143 5.86186 9.38717 5.75227 9.27282C5.69768 9.21586 5.65715 9.16943 5.63139 9.13874C5.61853 9.12342 5.60941 9.11208 5.60411 9.10539L5.59911 9.09902L5.59907 9.09895ZM5.19987 9.40002C5.59987 9.10002 5.59976 9.09987 5.59965 9.09972L5.59987 9.10002L5.19987 9.40002ZM9.34981 6.36668C9.34981 5.95247 9.6856 5.61668 10.0998 5.61668H10.1074C10.5216 5.61668 10.8574 5.95247 10.8574 6.36668C10.8574 6.78089 10.5216 7.11668 10.1074 7.11668H10.0998C9.6856 7.11668 9.34981 6.78089 9.34981 6.36668Z" fill="#CECECE"/>
</svg>
