<svg width="36" height="36" viewBox="0 0 36 36" fill="none" xmlns="http://www.w3.org/2000/svg">
<rect width="36" height="36" fill="#F5F5F5"/>
<g clip-path="url(#clip0_1_4)">
<rect width="375" height="1541" transform="translate(-247 -841)" fill="#FBFBFB"/>
<rect x="-231" y="-72" width="343" height="278" rx="16" fill="white"/>
<rect x="-55.5" y="-15.5" width="147" height="96" rx="15.5" fill="white" stroke="#EDEDED"/>
<path d="M17.1 28.4802C11.49 28.4802 6.92999 23.9202 6.92999 18.3202C6.92999 12.7202 11.49 8.16016 17.1 8.16016C22.71 8.16016 27.26 12.7202 27.26 18.3202C27.26 23.9202 22.7 28.4802 17.1 28.4802ZM17.1 9.65016C12.32 9.65016 8.42999 13.5402 8.42999 18.3102C8.42999 23.0802 12.32 26.9702 17.1 26.9702C21.88 26.9702 25.76 23.0802 25.76 18.3102C25.76 13.5402 21.87 9.65016 17.1 9.65016Z" fill="#222222"/>
<path d="M4.29 20.0596C3.9 20.0596 3.57 19.7596 3.54 19.3696C3.51 19.0196 3.5 18.6696 3.5 18.3096C3.5 17.8996 3.84 17.5596 4.25 17.5596C4.66 17.5596 5 17.8996 5 18.3096C5 18.6296 5.01 18.9396 5.04 19.2496C5.07 19.6596 4.76 20.0196 4.35 20.0596C4.33 20.0596 4.31 20.0596 4.29 20.0596Z" fill="#222222"/>
<path d="M17.1 31.9092C16.74 31.9092 16.38 31.8992 16.03 31.8692C15.62 31.8392 15.31 31.4792 15.34 31.0592C15.37 30.6492 15.74 30.3292 16.15 30.3692C16.78 30.4192 17.43 30.4192 18.05 30.3692C18.47 30.3292 18.82 30.6492 18.86 31.0592C18.9 31.4692 18.58 31.8292 18.17 31.8692C17.82 31.8992 17.47 31.9092 17.11 31.9092H17.1ZM21.06 31.2892C20.74 31.2892 20.45 31.0892 20.35 30.7692C20.22 30.3792 20.44 29.9492 20.83 29.8292C21.43 29.6392 22.02 29.3892 22.58 29.0992C22.95 28.9092 23.4 29.0592 23.59 29.4292C23.78 29.7992 23.63 30.2492 23.26 30.4392C22.63 30.7592 21.97 31.0392 21.29 31.2592C21.21 31.2792 21.13 31.2992 21.06 31.2992V31.2892ZM13.12 31.2892C13.04 31.2892 12.96 31.2792 12.89 31.2492C12.22 31.0292 11.55 30.7492 10.92 30.4292C10.55 30.2392 10.4 29.7892 10.59 29.4192C10.78 29.0492 11.23 28.8992 11.6 29.0892C12.16 29.3792 12.75 29.6192 13.35 29.8192C13.74 29.9492 13.96 30.3692 13.83 30.7692C13.73 31.0892 13.43 31.2892 13.12 31.2892ZM25.44 28.8392C25.23 28.8392 25.02 28.7492 24.87 28.5792C24.6 28.2592 24.64 27.7892 24.95 27.5192C25.43 27.1092 25.88 26.6592 26.29 26.1792C26.56 25.8592 27.03 25.8292 27.35 26.0992C27.66 26.3692 27.7 26.8392 27.43 27.1592C26.97 27.6992 26.46 28.1992 25.92 28.6692C25.78 28.7892 25.61 28.8492 25.43 28.8492L25.44 28.8392ZM8.75002 28.8392C8.58002 28.8392 8.40002 28.7792 8.26002 28.6592C7.72002 28.1992 7.22002 27.6892 6.75002 27.1492C6.48002 26.8392 6.52002 26.3592 6.83002 26.0892C7.14002 25.8192 7.62002 25.8592 7.89002 26.1692C8.30002 26.6492 8.75002 27.0992 9.23002 27.5092C9.54002 27.7792 9.58002 28.2492 9.31002 28.5692C9.16002 28.7392 8.95002 28.8292 8.74002 28.8292L8.75002 28.8392ZM28.55 24.9192C28.44 24.9192 28.32 24.8892 28.21 24.8392C27.84 24.6492 27.7 24.1992 27.88 23.8292C28.17 23.2692 28.41 22.6792 28.61 22.0792C28.74 21.6892 29.16 21.4692 29.56 21.5992C29.95 21.7292 30.17 22.1492 30.04 22.5392C29.82 23.2092 29.55 23.8792 29.22 24.5092C29.09 24.7692 28.82 24.9192 28.55 24.9192ZM5.65002 24.9092C5.38002 24.9092 5.11002 24.7592 4.98002 24.4992C4.66002 23.8592 4.38002 23.1992 4.16002 22.5292C4.03002 22.1392 4.25002 21.7092 4.64002 21.5892C5.04002 21.4592 5.46002 21.6792 5.59002 22.0692C5.78002 22.6692 6.03002 23.2592 6.32002 23.8192C6.51002 24.1892 6.36002 24.6392 5.99002 24.8292C5.88002 24.8892 5.77002 24.9092 5.65002 24.9092Z" fill="#222222"/>
<path d="M29.91 20.0596C29.91 20.0596 29.87 20.0596 29.85 20.0596C29.44 20.0296 29.13 19.6696 29.16 19.2496C29.18 18.9396 29.2 18.6196 29.2 18.3096C29.2 17.8996 29.54 17.5596 29.95 17.5596C30.36 17.5596 30.7 17.8996 30.7 18.3096C30.7 18.6696 30.69 19.0196 30.66 19.3696C30.63 19.7596 30.3 20.0596 29.91 20.0596Z" fill="#222222"/>
<path d="M4.61997 15.9497C4.55997 15.9497 4.49997 15.9497 4.43997 15.9297C4.03997 15.8297 3.78997 15.4197 3.88997 15.0197C5.39997 8.95973 10.83 4.71973 17.09 4.71973C19.71 4.71973 22.25 5.46973 24.44 6.87973C24.79 7.09973 24.89 7.56973 24.66 7.91973C24.44 8.26973 23.97 8.36973 23.62 8.14973C21.67 6.89973 19.41 6.22973 17.08 6.22973C11.51 6.22973 6.67997 9.99973 5.33997 15.3897C5.25997 15.7297 4.94997 15.9597 4.60997 15.9597L4.61997 15.9497Z" fill="#222222"/>
<path d="M22.45 9.18958C22.11 9.18958 21.8 8.95958 21.72 8.60958C21.63 8.20958 21.88 7.79958 22.28 7.70958L23.7 7.37958L23.37 5.94958C23.28 5.54958 23.53 5.13958 23.93 5.04958C24.33 4.95958 24.74 5.20958 24.83 5.60958L25.33 7.76958C25.42 8.16958 25.17 8.57958 24.77 8.66958L22.61 9.17958C22.55 9.18958 22.49 9.19958 22.44 9.19958L22.45 9.18958Z" fill="#222222"/>
<path d="M28.23 14.3903C28.08 14.3903 28.05 14.3103 28.01 14.1603L27.45 11.8203H26.79C26.66 11.8203 26.58 11.7303 26.58 11.6003V10.9503C26.58 10.8203 26.66 10.7403 26.79 10.7403H27.19L26.92 9.62029C26.88 9.45029 26.91 9.35029 27.05 9.30029L27.71 9.11029C27.85 9.07029 27.99 9.10029 28.02 9.24029L28.33 10.7403H29.05L29.33 9.54029C29.37 9.40029 29.39 9.33029 29.54 9.33029H30.31C30.46 9.33029 30.49 9.40029 30.52 9.54029L30.82 10.7203H31.47C31.58 10.1803 31.69 9.65029 31.77 9.23029C31.8 9.09029 31.93 9.06029 32.08 9.10029L32.88 9.31029C33.02 9.35029 33.06 9.46029 33.01 9.63029L32.71 10.7103H33.14C33.27 10.7103 33.35 10.7903 33.35 10.9203V11.6203C33.35 11.7503 33.27 11.8303 33.14 11.8303H32.41C32.2 12.6403 32 13.4503 31.83 14.1403C31.77 14.2903 31.75 14.3703 31.6 14.3703H30.88C30.73 14.3703 30.7 14.2903 30.65 14.1403L30.02 11.8203H29.81C29.6 12.6103 29.38 13.3703 29.17 14.1403C29.12 14.2903 29.09 14.3703 28.94 14.3703H28.22L28.23 14.3903ZM28.64 12.5303L28.77 11.8303H28.53L28.64 12.5303ZM31.18 12.4803C31.21 12.3503 31.24 12.0503 31.27 11.8403H31.06L31.17 12.4803H31.18Z" fill="#222222"/>
<path d="M17.1 11.7304C16.69 11.7304 16.35 11.3904 16.35 10.9804V8.90039C16.35 8.49039 16.69 8.15039 17.1 8.15039C17.51 8.15039 17.85 8.49039 17.85 8.90039V10.9804C17.85 11.3904 17.51 11.7304 17.1 11.7304Z" fill="#222222"/>
<path d="M17.1 28.4804C16.69 28.4804 16.35 28.1404 16.35 27.7304V25.6504C16.35 25.2404 16.69 24.9004 17.1 24.9004C17.51 24.9004 17.85 25.2404 17.85 25.6504V27.7304C17.85 28.1404 17.51 28.4804 17.1 28.4804Z" fill="#222222"/>
<path d="M26.51 19.0596H24.43C24.02 19.0596 23.68 18.7196 23.68 18.3096C23.68 17.8996 24.02 17.5596 24.43 17.5596H26.51C26.92 17.5596 27.26 17.8996 27.26 18.3096C27.26 18.7196 26.92 19.0596 26.51 19.0596Z" fill="#222222"/>
<path d="M9.77 19.0596H7.69C7.28 19.0596 6.94 18.7196 6.94 18.3096C6.94 17.8996 7.28 17.5596 7.69 17.5596H9.77C10.18 17.5596 10.52 17.8996 10.52 18.3096C10.52 18.7196 10.18 19.0596 9.77 19.0596Z" fill="#222222"/>
<path d="M20.65 22.6195C20.46 22.6195 20.27 22.5495 20.12 22.3995L16.57 18.8495C16.43 18.7095 16.35 18.5195 16.35 18.3195V15.0195C16.35 14.6095 16.69 14.2695 17.1 14.2695C17.51 14.2695 17.85 14.6095 17.85 15.0195V18.0095L21.18 21.3395C21.47 21.6295 21.47 22.1095 21.18 22.3995C21.03 22.5495 20.84 22.6195 20.65 22.6195Z" fill="#222222"/>
</g>
<defs>
<clipPath id="clip0_1_4">
<rect width="375" height="1541" fill="white" transform="translate(-247 -841)"/>
</clipPath>
</defs>
</svg>
