<svg width="36" height="36" viewBox="0 0 36 36" fill="none" xmlns="http://www.w3.org/2000/svg">
<rect width="36" height="36" fill="#F5F5F5"/>
<g clip-path="url(#clip0_1_4)">
<rect width="375" height="1541" transform="translate(-92 -841)" fill="#FBFBFB"/>
<rect x="-76" y="-72" width="343" height="278" rx="16" fill="white"/>
<rect x="-55" y="-15" width="146" height="95" rx="15" fill="white" stroke="#6B47FD" stroke-width="2"/>
<path d="M28.87 12.4502H4.01001C3.18158 12.4502 2.51001 13.1218 2.51001 13.9502V28.0902C2.51001 28.9186 3.18158 29.5902 4.01001 29.5902H28.87C29.6984 29.5902 30.37 28.9186 30.37 28.0902V13.9502C30.37 13.1218 29.6984 12.4502 28.87 12.4502Z" stroke="#222222" stroke-width="1.5" stroke-miterlimit="10"/>
<path d="M4.00003 12.46L3.72003 10.75C3.59003 9.91999 4.15003 9.13999 4.98003 8.99999L29.48 5.04999C30.31 4.91999 31.09 5.47999 31.23 6.30999L33.47 20.22C33.6 21.05 33.04 21.83 32.21 21.97L30.36 22.27" stroke="#222222" stroke-width="1.5" stroke-miterlimit="10"/>
<path d="M9.35005 16.3896H6.30005C5.74776 16.3896 5.30005 16.8374 5.30005 17.3896V20.4396C5.30005 20.9919 5.74776 21.4396 6.30005 21.4396H9.35005C9.90233 21.4396 10.35 20.9919 10.35 20.4396V17.3896C10.35 16.8374 9.90233 16.3896 9.35005 16.3896Z" fill="#222222"/>
<path d="M9.85005 24.1201H5.80005C5.52391 24.1201 5.30005 24.344 5.30005 24.6201V25.1401C5.30005 25.4163 5.52391 25.6401 5.80005 25.6401H9.85005C10.1262 25.6401 10.35 25.4163 10.35 25.1401V24.6201C10.35 24.344 10.1262 24.1201 9.85005 24.1201Z" fill="#222222"/>
<path d="M15.59 24.1201H11.54C11.2639 24.1201 11.04 24.344 11.04 24.6201V25.1401C11.04 25.4163 11.2639 25.6401 11.54 25.6401H15.59C15.8662 25.6401 16.09 25.4163 16.09 25.1401V24.6201C16.09 24.344 15.8662 24.1201 15.59 24.1201Z" fill="#222222"/>
<path d="M21.33 24.1201H17.28C17.0039 24.1201 16.78 24.344 16.78 24.6201V25.1401C16.78 25.4163 17.0039 25.6401 17.28 25.6401H21.33C21.6062 25.6401 21.83 25.4163 21.83 25.1401V24.6201C21.83 24.344 21.6062 24.1201 21.33 24.1201Z" fill="#222222"/>
<path d="M27.07 24.1201H23.02C22.7439 24.1201 22.52 24.344 22.52 24.6201V25.1401C22.52 25.4163 22.7439 25.6401 23.02 25.6401H27.07C27.3462 25.6401 27.57 25.4163 27.57 25.1401V24.6201C27.57 24.344 27.3462 24.1201 27.07 24.1201Z" fill="#222222"/>
<path d="M4.34998 12.2404L31.48 7.86035L31.96 10.8104H31.48L21.33 12.4504L4.34998 12.2404Z" fill="#222222" stroke="#222222" stroke-miterlimit="10"/>
</g>
<defs>
<clipPath id="clip0_1_4">
<rect width="375" height="1541" fill="white" transform="translate(-92 -841)"/>
</clipPath>
</defs>
</svg>
