<svg width="52" height="24" viewBox="0 0 52 24" fill="none" xmlns="http://www.w3.org/2000/svg">
<rect width="52" height="24" rx="12" fill="#FAEA01"/>
<path fill-rule="evenodd" clip-rule="evenodd" d="M14 15.9884C17.3137 15.9884 20 13.8643 20 11.2442C20 8.62404 17.3137 6.5 14 6.5C10.6863 6.5 8 8.62404 8 11.2442C8 12.6972 8.82609 13.9976 10.1272 14.8678C10.3033 14.9857 10.3999 15.1948 10.3596 15.4029L10.0413 17.0473C9.95698 17.4832 10.4402 17.8046 10.8096 17.5583L13.0741 16.0487C13.1707 15.9842 13.2867 15.9561 13.4024 15.9651C13.599 15.9805 13.7983 15.9884 14 15.9884Z" fill="#1D1E20"/>
<path d="M24.0458 16.3906H25.7802V12.9805H25.827C26.0731 13.5078 26.6063 14.1055 27.6434 14.1055C29.0966 14.1055 30.2274 12.9512 30.2216 10.8242C30.2274 8.64453 29.0497 7.55469 27.6434 7.55469C26.5712 7.55469 26.0673 8.1875 25.827 8.70312H25.7567V7.63672H24.0458V16.3906ZM25.745 10.8125C25.7391 9.66992 26.2255 8.9375 27.0927 8.9375C27.9891 8.9375 28.4579 9.70508 28.452 10.8125C28.4579 11.9375 27.9774 12.7168 27.0927 12.7227C26.2313 12.7168 25.7391 11.9609 25.745 10.8125ZM30.9219 12.2188C30.9277 13.4785 31.8242 14.123 33.043 14.1172C33.9863 14.123 34.5957 13.707 34.9062 13.1211H34.9531V14H36.5938V9.71094C36.5996 8.17578 35.2871 7.55469 33.8984 7.55469C32.2109 7.55469 31.25 8.42188 31.1445 9.52344H32.7969C32.8906 9.08984 33.2598 8.82617 33.8516 8.82031C34.502 8.82617 34.8652 9.13086 34.8711 9.66406V10.1797C34.6016 10.1914 33.7461 10.2324 33.2891 10.2617C32.0645 10.3379 30.9277 10.8008 30.9219 12.2188ZM32.5859 12.1719C32.5859 11.6797 32.9668 11.3926 33.5703 11.3398C33.8633 11.3164 34.6074 11.2754 34.8711 11.2637V11.7266C34.877 12.4004 34.3262 12.916 33.5352 12.9219C32.9785 12.916 32.5859 12.6582 32.5859 12.1719ZM38.5831 16.3906C39.9249 16.3848 40.6222 15.7285 40.9855 14.7031L43.4698 7.63672H41.63L40.2823 12.3242H40.212L38.8761 7.63672H37.0597L39.3448 14.1758L39.2394 14.4453C39.0284 14.9961 38.753 15.0312 38.4073 15.0312C38.1905 15.0312 37.9269 15.0254 37.7042 15.0078V16.3555C37.9269 16.3789 38.2433 16.3848 38.5831 16.3906Z" fill="black"/>
</svg>
