<svg width="16" height="16" viewBox="0 0 16 16" fill="none" xmlns="http://www.w3.org/2000/svg">
<g clip-path="url(#clip0_1388_8378)">
<path fill-rule="evenodd" clip-rule="evenodd" d="M8 16C12.4183 16 16 12.4183 16 8C16 3.58172 12.4183 0 8 0C3.58172 0 0 3.58172 0 8C0 12.4183 3.58172 16 8 16ZM2.16548 11.6C2.16548 11.7105 2.25502 11.8 2.36548 11.8H7.12134C7.23179 11.8 7.32134 11.7105 7.32134 11.6V10.682C7.32134 10.5716 7.23179 10.482 7.12134 10.482H4.28008L5.43641 9.30996C6.76454 8.0061 7.19332 7.32534 7.20418 6.44622L7.20414 6.44205C7.19326 5.16375 6.13948 4.23203 4.6897 4.23203C3.97398 4.23203 3.34019 4.45925 2.88418 4.87288C2.42627 5.28824 2.16019 5.88068 2.16548 6.58198C2.16631 6.69184 2.25561 6.78047 2.36548 6.78047H3.3811C3.49105 6.78047 3.58038 6.69172 3.5811 6.58177C3.58325 6.25066 3.69294 5.99211 3.87251 5.81646C4.0523 5.64061 4.31996 5.53047 4.67016 5.53047C5.00251 5.53047 5.28135 5.62989 5.47358 5.79258C5.66285 5.95277 5.77876 6.18248 5.77876 6.47305C5.77876 6.9977 5.46405 7.38793 4.67364 8.20822L2.2235 10.6779C2.18633 10.7154 2.16548 10.766 2.16548 10.8188V11.6ZM9.82468 9.97879C9.58768 9.56612 9.44785 8.93009 9.45024 8.0654C9.45024 7.2033 9.59113 6.56227 9.82879 6.144C10.0603 5.73654 10.3797 5.54259 10.7737 5.54024C11.165 5.54259 11.4846 5.73633 11.7168 6.14417C11.9551 6.56251 12.0971 7.20301 12.0971 8.06484C12.0971 8.9296 11.9562 9.56588 11.719 9.97879C11.4883 10.3806 11.1694 10.5699 10.7737 10.5699C10.3751 10.5699 10.0552 10.3801 9.82468 9.97879ZM12.8465 10.8658C13.324 10.2007 13.5688 9.24594 13.5713 8.06527C13.5688 6.89106 13.32 5.93574 12.841 5.26928C12.3561 4.59463 11.6466 4.23203 10.7737 4.23203C9.8986 4.23203 9.18777 4.59445 8.70271 5.26928C8.22355 5.93591 7.97602 6.89056 7.97602 8.06484C7.97602 9.24579 8.22084 10.2007 8.69906 10.8659C9.18348 11.5397 9.89475 11.8977 10.7737 11.8977C11.6527 11.8977 12.3628 11.5396 12.8465 10.8658Z" fill="#A9A9A9"/>
</g>
<defs>
<clipPath id="clip0_1388_8378">
<rect width="16" height="16" fill="white"/>
</clipPath>
</defs>
</svg>
