<svg width="16" height="16" viewBox="0 0 16 16" fill="none" xmlns="http://www.w3.org/2000/svg">
<path d="M2.09134 6.96132H13.9087V10.4807C13.9087 12.1397 13.9087 12.9692 13.4142 13.4846C12.9197 14 12.1239 14 10.5323 14H5.46772C3.87608 14 3.08026 14 2.5858 13.4846C2.09134 12.9692 2.09134 12.1397 2.09134 10.4807V6.96132Z" fill="#A9A9A9"/>
<path d="M0.247248 4.15931L2.09134 6.08148L5.46772 2.56214L3.43234 1.14777C3.13457 0.940846 2.74397 0.952147 2.45767 1.17597L0.337656 2.8333C-0.0732821 3.15455 -0.115973 3.78071 0.247248 4.15931Z" fill="#A9A9A9"/>
<path d="M15.7528 4.15931L13.9087 6.08148L10.5323 2.56214L12.5677 1.14777C12.8654 0.940846 13.256 0.952147 13.5423 1.17597L15.6623 2.8333C16.0733 3.15455 16.116 3.78071 15.7528 4.15931Z" fill="#A9A9A9"/>
<path fill-rule="evenodd" clip-rule="evenodd" d="M5.11808 2.56214H10.8819L13.9087 5.71704V7.84115H2.09134V5.71704L5.11808 2.56214ZM5.81735 4.32181L4.12916 6.08148H11.8708L10.1826 4.32181H5.81735Z" fill="#A9A9A9"/>
</svg>
