<svg width="24" height="24" viewBox="0 0 24 24" fill="none" xmlns="http://www.w3.org/2000/svg">
<path fill-rule="evenodd" clip-rule="evenodd" d="M18.8 6.4444H2V17.6888C2 18.8089 2 19.369 2.21799 19.7968C2.40973 20.1731 2.71569 20.4791 3.09202 20.6709C3.51984 20.8888 4.07989 20.8888 5.19999 20.8888H5.2H18.8H18.8C19.9201 20.8888 20.4802 20.8888 20.908 20.6709C21.2843 20.4791 21.5903 20.1731 21.782 19.7968C22 19.369 22 18.8089 22 17.6888V9.6444C22 8.52429 22 7.96424 21.782 7.53642C21.5903 7.16009 21.2843 6.85413 20.908 6.66238C20.4802 6.4444 19.9201 6.4444 18.8 6.4444ZM16.596 11.5959C16.9865 11.2054 16.9865 10.5722 16.596 10.1817C16.2055 9.7912 15.5723 9.7912 15.1818 10.1817L11.4444 13.9191L9.37377 11.8484C8.98325 11.4579 8.35008 11.4579 7.95956 11.8484C7.56904 12.2389 7.56904 12.8721 7.95956 13.2626L10.7373 16.0404C10.9249 16.2279 11.1792 16.3333 11.4444 16.3333C11.7097 16.3333 11.964 16.2279 12.1516 16.0404L16.596 11.5959Z" fill="#929292"/>
<path d="M2 6.44442C2 5.19826 2 4.57519 2.26795 4.11108C2.44349 3.80705 2.69596 3.55457 3 3.37903C3.4641 3.11108 4.08718 3.11108 5.33333 3.11108H8.12092C8.93842 3.11108 9.34717 3.11108 9.71472 3.26332C10.0823 3.41557 10.3713 3.7046 10.9494 4.28266L13.1111 6.44442H2V6.44442Z" fill="#929292"/>
</svg>
