<svg width="24" height="24" viewBox="0 0 24 24" fill="none" xmlns="http://www.w3.org/2000/svg">
<path fill-rule="evenodd" clip-rule="evenodd" d="M12 15.3336C11.5568 15.3336 11.118 15.2474 10.7086 15.0799C10.2992 14.9124 9.92716 14.6669 9.6138 14.3574C9.30044 14.0479 9.05187 13.6804 8.88228 13.276C8.7127 12.8716 8.62541 12.4382 8.62541 12.0005C8.62541 11.5627 8.7127 11.1293 8.88228 10.7249C9.05187 10.3205 9.30044 9.95305 9.6138 9.64354C9.92716 9.33402 10.2992 9.0885 10.7086 8.921C11.118 8.75349 11.5568 8.66727 12 8.66727C12.895 8.66727 13.7533 9.01845 14.3862 9.64354C15.0191 10.2686 15.3746 11.1164 15.3746 12.0005C15.3746 12.8845 15.0191 13.7323 14.3862 14.3574C13.7533 14.9825 12.895 15.3336 12 15.3336ZM20.3138 13.7745C19.8509 13.301 19.5925 12.6683 19.5932 12.01V11.9909C19.5925 11.3326 19.8509 10.6999 20.3138 10.2264L21.1781 9.34455C21.5333 8.98091 21.6015 8.42818 21.3465 7.99091L20.1887 6.01091C20.0644 5.79777 19.8732 5.63045 19.644 5.53432C19.4148 5.43819 19.1601 5.41848 18.9185 5.47818L17.7082 5.77636C17.0583 5.93709 16.3705 5.84018 15.792 5.50636L15.7754 5.49727C15.2056 5.1702 14.7864 4.63778 14.6056 4.01182L14.2595 2.82182C14.1913 2.58517 14.0469 2.37692 13.8481 2.22863C13.6493 2.08034 13.407 2.00008 13.1578 2H10.8422C10.3313 2 9.88035 2.33545 9.74046 2.82182L9.3677 4.10273C9.20403 4.6752 8.81931 5.1613 8.29637 5.45636C8.24236 5.4862 8.18896 5.51711 8.13622 5.54909C7.61152 5.85772 6.98444 5.94859 6.3921 5.80182L5.08055 5.47818C4.83909 5.41855 4.58453 5.4382 4.35538 5.53415C4.12622 5.6301 3.93493 5.79713 3.81042 6.01L2.65349 7.99091C2.52905 8.20403 2.47819 8.45135 2.50857 8.69554C2.53896 8.93973 2.64894 9.16753 2.82192 9.34455L3.68616 10.2264C4.14912 10.7 4.40775 11.3327 4.40775 11.99V12.01C4.40775 12.6682 4.14912 13.3009 3.68616 13.7745L3.22321 14.2473C2.93451 14.5421 2.75087 14.9218 2.70005 15.3289C2.64924 15.736 2.73402 16.1484 2.94157 16.5036L3.81134 17.99C4.0672 18.4282 4.58446 18.6455 5.08147 18.5227L6.39302 18.1991C6.98536 18.0523 7.61244 18.1432 8.13715 18.4518C8.18961 18.4836 8.24299 18.5145 8.29729 18.5445C8.82099 18.8373 9.20295 19.3255 9.36862 19.8982L9.74046 21.1791C9.88035 21.6655 10.3313 22 10.8422 22H13.1578C13.6687 22 14.1196 21.6655 14.2595 21.1791L14.6314 19.8982C14.7971 19.3255 15.179 18.8373 15.7027 18.5445C15.757 18.5145 15.8104 18.4836 15.8629 18.4518C16.3876 18.1432 17.0146 18.0523 17.607 18.1991L18.9185 18.5227C19.16 18.5824 19.4145 18.5627 19.6437 18.4668C19.8729 18.3708 20.0642 18.2038 20.1887 17.9909L21.3465 16.01C21.4709 15.7969 21.5218 15.5496 21.4914 15.3054C21.461 15.0612 21.3511 14.8334 21.1781 14.6564L20.3138 13.7745Z" fill="#929292"/>
</svg>
