<?xml version="1.0" encoding="utf-8"?>
<!-- Generator: Adobe Illustrator 26.5.0, SVG Export Plug-In . SVG Version: 6.00 Build 0)  -->
<svg version="1.1" id="레이어_1" xmlns="http://www.w3.org/2000/svg" xmlns:xlink="http://www.w3.org/1999/xlink" x="0px"
	 y="0px" viewBox="0 0 24 24" style="enable-background:new 0 0 24 24;" xml:space="preserve">
<style type="text/css">
	.st0{fill:#6B47FD;}
</style>
<path class="st0" d="M4,16.5h16c1.1,0,2,0.9,2,2v1c0,1.1-0.9,2-2,2H4c-1.1,0-2-0.9-2-2v-1C2,17.4,2.9,16.5,4,16.5z"/>
<path class="st0" d="M4,9.5h16c1.1,0,2,0.9,2,2v1c0,1.1-0.9,2-2,2H4c-1.1,0-2-0.9-2-2v-1C2,10.4,2.9,9.5,4,9.5z"/>
<path class="st0" d="M4,2.5h16c1.1,0,2,0.9,2,2v1c0,1.1-0.9,2-2,2H4c-1.1,0-2-0.9-2-2v-1C2,3.4,2.9,2.5,4,2.5z"/>
</svg>
