<?xml version="1.0" encoding="utf-8"?>
<!-- Generator: Adobe Illustrator 26.5.0, SVG Export Plug-In . SVG Version: 6.00 Build 0)  -->
<svg version="1.1" id="레이어_1" xmlns="http://www.w3.org/2000/svg" xmlns:xlink="http://www.w3.org/1999/xlink" x="0px"
	 y="0px" viewBox="0 0 24 24" style="enable-background:new 0 0 24 24;" xml:space="preserve">
<style type="text/css">
	.st0{fill-rule:evenodd;clip-rule:evenodd;fill:#6B47FD;}
</style>
<path class="st0" d="M17.3,2.6h2.1c0.7,0,1.3,0.3,1.8,0.8C21.7,3.8,22,4.5,22,5.2v15c0,0.7-0.3,1.3-0.8,1.8
	c-0.5,0.5-1.1,0.8-1.8,0.8H4.6c-0.7,0-1.3-0.3-1.8-0.8C2.3,21.5,2,20.9,2,20.2v-15c0-0.7,0.3-1.3,0.8-1.8s1.1-0.8,1.8-0.8h2.1V1.3
	c0-0.3,0.1-0.7,0.4-0.9C7.3,0.1,7.6,0,8,0c0.3,0,0.7,0.1,0.9,0.4C9.1,0.6,9.3,1,9.3,1.3v1.3h5.5V1.3c0-0.3,0.1-0.7,0.4-0.9
	S15.7,0,16,0c0.3,0,0.7,0.1,0.9,0.4c0.2,0.2,0.4,0.6,0.4,0.9V2.6z M13.2,13.2L13.2,13.2L13.2,13.2L13.2,13.2L13.2,13.2z M16,15.8
	c0,2.1-2,3.6-4.3,3.6c-2.4,0-4.2-1.3-4.3-3.4c0-0.1,0-0.3,0.1-0.4c0.1-0.1,0.2-0.2,0.4-0.2h1.6c0.3,0,0.5,0.2,0.5,0.5
	c0,0.5,0.6,1.1,1.7,1.1c0.6,0,1-0.2,1.3-0.4c0.3-0.2,0.4-0.5,0.4-0.9c0-0.4-0.1-0.7-0.4-0.9c-0.3-0.2-0.8-0.4-1.5-0.4h-0.9
	c-0.3,0-0.5-0.2-0.5-0.5v-1.3c0-0.3,0.2-0.5,0.5-0.5h0.9c0.5,0,0.9-0.1,1.2-0.3c0.2-0.2,0.4-0.5,0.4-0.8c0-0.4-0.1-0.6-0.3-0.8
	c-0.2-0.2-0.5-0.3-1-0.3c-0.4,0-0.8,0.1-1.1,0.3c-0.3,0.2-0.4,0.4-0.4,0.7c0,0.3-0.2,0.5-0.5,0.5H8.1c-0.1,0-0.3-0.1-0.4-0.2
	c-0.1-0.1-0.1-0.2-0.1-0.4c0.1-2.1,2-3.4,4.1-3.4c2.3,0,3.9,1.5,3.9,3.4c0,1-0.4,1.8-1.1,2.3c0.3,0.2,0.6,0.4,0.8,0.6
	C15.7,14.4,16,15.1,16,15.8z"/>
</svg>
