<?xml version="1.0" encoding="utf-8"?>
<!-- Generator: Adobe Illustrator 26.5.0, SVG Export Plug-In . SVG Version: 6.00 Build 0)  -->
<svg version="1.1" id="레이어_1" xmlns="http://www.w3.org/2000/svg" xmlns:xlink="http://www.w3.org/1999/xlink" x="0px"
	 y="0px" viewBox="0 0 24 24" style="enable-background:new 0 0 24 24;" xml:space="preserve">
<style type="text/css">
	.st0{fill-rule:evenodd;clip-rule:evenodd;fill:#6B47FD;}
</style>
<path class="st0" d="M3.7,17.2H2.4c-0.4,0-0.7-0.1-1-0.4c-0.3-0.3-0.4-0.6-0.4-1c0-0.4,0.1-0.7,0.4-1c0.3-0.3,0.6-0.4,1-0.4h1.4V13
	H2.4c-0.4,0-0.7-0.1-1-0.4C1.1,12.3,1,12,1,11.6c0,0,0,0,0,0c0,0,0,0,0,0c0-0.4,0.1-0.7,0.4-1c0.3-0.3,0.6-0.4,1-0.4h1.4V8.7H2.4
	c-0.4,0-0.7-0.1-1-0.4C1.1,8,1,7.7,1,7.3s0.1-0.7,0.4-1C1.7,6.1,2,6,2.4,6h1.4V3.7l0,0C3.7,3,4,2.3,4.5,1.8C5,1.3,5.7,1,6.5,1h11.8
	c0.7,0,1.4,0.3,1.9,0.8C20.7,2.3,21,3,21,3.7v0v15.7v0c0,0.7-0.3,1.4-0.8,1.9c-0.5,0.5-1.2,0.8-1.9,0.8H6.5c-0.7,0-1.4-0.3-1.9-0.8
	c-0.5-0.5-0.8-1.2-0.8-1.9v0V17.2z M8.6,16c-0.3,0-0.5-0.2-0.5-0.5v-1.2c0-0.1,0-0.2,0.1-0.3l4.4-6.8C12.7,7.1,12.8,7,13,7h1.9
	c0.3,0,0.5,0.2,0.5,0.5v6.3h0.9c0.3,0,0.5,0.2,0.5,0.5v1.3c0,0.3-0.2,0.5-0.5,0.5h-0.9v1.5c0,0.3-0.2,0.5-0.5,0.5h-1.4
	c-0.3,0-0.5-0.2-0.5-0.5V16H8.6z M11,13.8h2v-3.1L11,13.8z"/>
</svg>
