<?xml version="1.0" encoding="utf-8"?>
<!-- Generator: Adobe Illustrator 26.5.0, SVG Export Plug-In . SVG Version: 6.00 Build 0)  -->
<svg version="1.1" id="레이어_1" xmlns="http://www.w3.org/2000/svg" xmlns:xlink="http://www.w3.org/1999/xlink" x="0px"
	 y="0px" viewBox="0 0 24 24" style="enable-background:new 0 0 24 24;" xml:space="preserve">
<style type="text/css">
	.st0{fill-rule:evenodd;clip-rule:evenodd;fill:#6B47FD;}
</style>
<path class="st0" d="M22.2,8.2l-9.5-7.9C12.5,0.1,12.3,0,12,0c-0.3,0-0.5,0.1-0.7,0.3L1.8,8.2C1.6,8.4,1.4,8.7,1.2,9
	C1.1,9.3,1,9.7,1,10v11.1c0,0.8,0.3,1.5,0.8,2C2.3,23.7,3,24,3.7,24h6.1v-5.6c0-0.3,0.1-0.6,0.3-0.8c0.2-0.2,0.5-0.3,0.8-0.3h2.2
	c0.3,0,0.6,0.1,0.8,0.3c0.2,0.2,0.3,0.5,0.3,0.8V24h6.1c0.7,0,1.4-0.3,1.9-0.8c0.5-0.5,0.8-1.3,0.8-2V10c0-0.4-0.1-0.7-0.2-1
	C22.6,8.7,22.4,8.4,22.2,8.2"/>
</svg>
