<?xml version="1.0" encoding="utf-8"?>
<!-- Generator: Adobe Illustrator 26.5.0, SVG Export Plug-In . SVG Version: 6.00 Build 0)  -->
<svg version="1.1" id="레이어_1" xmlns="http://www.w3.org/2000/svg" xmlns:xlink="http://www.w3.org/1999/xlink" x="0px"
	 y="0px" viewBox="0 0 24 24" style="enable-background:new 0 0 24 24;" xml:space="preserve">
<style type="text/css">
	.st0{fill-rule:evenodd;clip-rule:evenodd;fill:#6B47FD;}
</style>
<path class="st0" d="M3.7,17.2H2.4c-0.4,0-0.7-0.1-1-0.4c-0.3-0.3-0.4-0.6-0.4-1c0-0.4,0.1-0.7,0.4-1c0.3-0.3,0.6-0.4,1-0.4h1.4V13
	H2.4c-0.4,0-0.7-0.1-1-0.4C1.1,12.3,1,12,1,11.6c0,0,0,0,0,0c0,0,0,0,0,0c0-0.4,0.1-0.7,0.4-1c0.3-0.3,0.6-0.4,1-0.4h1.4V8.7H2.4
	c-0.4,0-0.7-0.1-1-0.4C1.1,8,1,7.7,1,7.3s0.1-0.7,0.4-1C1.7,6.1,2,6,2.4,6h1.4V3.7l0,0C3.7,3,4,2.3,4.5,1.8C5,1.3,5.7,1,6.5,1h11.8
	c0.7,0,1.4,0.3,1.9,0.8C20.7,2.3,21,3,21,3.7v0v15.7v0c0,0.7-0.3,1.4-0.8,1.9c-0.5,0.5-1.2,0.8-1.9,0.8H6.5c-0.7,0-1.4-0.3-1.9-0.8
	c-0.5-0.5-0.8-1.2-0.8-1.9v0V17.2z M16.5,14.7c0,2-1.8,3.4-4.1,3.4c-2.2,0-4-1.2-4.1-3.2c0-0.1,0-0.3,0.1-0.3
	c0.1-0.1,0.2-0.1,0.3-0.1h1.5c0.2,0,0.5,0.2,0.5,0.4c0,0.5,0.6,1,1.6,1c0.5,0,0.9-0.1,1.2-0.4c0.3-0.2,0.4-0.5,0.4-0.8
	c0-0.3-0.1-0.6-0.4-0.8c-0.3-0.2-0.7-0.4-1.4-0.4h-0.9c-0.3,0-0.5-0.2-0.5-0.5v-1.2c0-0.3,0.2-0.5,0.5-0.5h0.9
	c0.5,0,0.9-0.1,1.1-0.3c0.2-0.2,0.4-0.5,0.4-0.8c0-0.3-0.1-0.6-0.3-0.8c-0.2-0.2-0.5-0.3-1-0.3c-0.4,0-0.8,0.1-1.1,0.3
	C11.1,9.6,11,9.8,11,10.1c0,0.3-0.2,0.5-0.5,0.5H9.1c-0.1,0-0.2-0.1-0.3-0.1c-0.1-0.1-0.1-0.2-0.1-0.3c0.1-2,1.9-3.2,3.9-3.2
	c2.2,0,3.7,1.4,3.7,3.2c0,0.9-0.4,1.7-1,2.2c0.3,0.2,0.5,0.3,0.8,0.6C16.3,13.3,16.5,14,16.5,14.7z"/>
</svg>
