<svg width="18" height="23" viewBox="0 0 18 23" fill="none" xmlns="http://www.w3.org/2000/svg">
<path fill-rule="evenodd" clip-rule="evenodd" d="M13.4905 7.97142L8.06709 13.7319L4.50993 9.95363C4.35801 9.77756 4.27593 9.54601 4.28083 9.30724C4.28572 9.06847 4.3772 8.84092 4.53619 8.67204C4.69519 8.50317 4.90942 8.406 5.13422 8.40081C5.35901 8.39561 5.57702 8.48279 5.74278 8.64415L8.06709 11.1129L12.2576 6.66194C12.3386 6.57596 12.4347 6.50776 12.5404 6.46123C12.6462 6.41469 12.7596 6.39074 12.874 6.39074C12.9885 6.39074 13.1019 6.41469 13.2076 6.46123C13.3134 6.50776 13.4095 6.57596 13.4905 6.66194C13.5714 6.74793 13.6356 6.85 13.6794 6.96234C13.7232 7.07468 13.7458 7.19508 13.7458 7.31668C13.7458 7.43828 13.7232 7.55868 13.6794 7.67102C13.6356 7.78336 13.5714 7.88544 13.4905 7.97142ZM17.8582 9.92277C17.949 9.82632 18 9.69552 18 9.55914C18 9.42276 17.949 9.29196 17.8582 9.19551L16.454 7.70397C16.3937 7.6402 16.3505 7.56066 16.3285 7.47341C16.3066 7.38615 16.3068 7.29429 16.329 7.20713L16.8423 5.1704C16.8754 5.03863 16.8579 4.89829 16.7936 4.78023C16.7293 4.66218 16.6235 4.57608 16.4995 4.54087L14.5819 3.99568C14.4996 3.97226 14.4245 3.92615 14.3643 3.86203C14.3041 3.79791 14.2609 3.71805 14.2391 3.63051L13.7258 1.59378C13.6924 1.46195 13.6112 1.34956 13.4999 1.28129C13.3886 1.21302 13.2563 1.19444 13.1321 1.22964L11.2136 1.77586C11.1316 1.79917 11.0453 1.79909 10.9633 1.77561C10.8813 1.75213 10.8067 1.70608 10.7468 1.64213L9.34255 0.150588C9.25175 0.0541664 9.1286 0 9.0002 0C8.8718 0 8.74866 0.0541664 8.65785 0.150588L7.25358 1.64316C7.19348 1.70702 7.11863 1.75299 7.03654 1.77646C6.95444 1.79993 6.86798 1.80008 6.78582 1.77688L4.86826 1.22964C4.80677 1.21207 4.74262 1.20756 4.67948 1.21636C4.61635 1.22516 4.55546 1.24709 4.50032 1.28092C4.44518 1.31474 4.39685 1.35979 4.35812 1.41347C4.31939 1.46716 4.29101 1.52843 4.2746 1.59378L3.76035 3.63051C3.73846 3.71773 3.69535 3.7973 3.63534 3.86122C3.57533 3.92514 3.50054 3.97116 3.41848 3.99465L1.49996 4.54087C1.37609 4.5763 1.27052 4.66249 1.20642 4.78052C1.14233 4.89855 1.12494 5.03877 1.15809 5.1704L1.67138 7.20713C1.69363 7.29429 1.6938 7.38615 1.67186 7.47341C1.64992 7.56066 1.60665 7.6402 1.54645 7.70397L0.142178 9.19551C0.0971133 9.2432 0.0613561 9.29987 0.0369577 9.36227C0.0125593 9.42467 0 9.49157 0 9.55914C0 9.62671 0.0125593 9.69361 0.0369577 9.75601C0.0613561 9.81841 0.0971133 9.87508 0.142178 9.92277L1.54645 11.4143C1.60665 11.4783 1.64991 11.558 1.67184 11.6454C1.69377 11.7328 1.69361 11.8249 1.67138 11.9122L1.15809 13.9489C1.12494 14.0805 1.14233 14.2208 1.20642 14.3388C1.27052 14.4568 1.37609 14.543 1.49996 14.5784L3.41848 15.1247C3.50054 15.1481 3.57533 15.1942 3.63534 15.2581C3.69535 15.322 3.73846 15.4016 3.76035 15.4888L4.27363 17.5255C4.29062 17.5915 4.31984 17.6533 4.35958 17.7072C4.39933 17.761 4.4488 17.806 4.50509 17.8393L2.70279 23H7.72232L8.99972 19.3401L10.2791 23H15.2976L13.4953 17.8393C13.5516 17.8061 13.601 17.7612 13.6406 17.7073C13.6802 17.6534 13.7092 17.5916 13.7258 17.5255L14.2391 15.4888C14.261 15.4014 14.3042 15.3217 14.3644 15.2578C14.4246 15.1938 14.4996 15.1479 14.5819 15.1247L16.4995 14.5795C16.561 14.562 16.6187 14.5319 16.6692 14.4908C16.7198 14.4496 16.7622 14.3983 16.794 14.3397C16.8259 14.2811 16.8465 14.2165 16.8548 14.1494C16.8631 14.0824 16.8588 14.0142 16.8423 13.9489L16.329 11.9122C16.3068 11.825 16.3066 11.7332 16.3285 11.6459C16.3505 11.5586 16.3937 11.4791 16.454 11.4153L17.8582 9.92379V9.92277Z" fill="#6B47FD"/>
</svg>
