<svg width="267" height="50" viewBox="0 0 267 50" fill="none" xmlns="http://www.w3.org/2000/svg">
<path fill-rule="evenodd" clip-rule="evenodd" d="M10.8182 43.3182L9.41818 43.7636C8.65454 44.0182 8.08182 44.5909 7.82727 45.3545L7.31818 46.8182C7.19091 47.1364 6.80909 47.1364 6.74545 46.8182L6.3 45.4182C6.04545 44.6545 5.47273 44.0818 4.70909 43.8273L3.18182 43.3182C2.86364 43.1909 2.86364 42.8091 3.18182 42.7455L4.58182 42.3C5.34545 42.0455 5.91818 41.4727 6.17273 40.7091L6.68182 39.1818C6.80909 38.8636 7.19091 38.8636 7.25454 39.1818L7.7 40.5818C7.95455 41.3455 8.52727 41.9182 9.29091 42.1727L10.6909 42.6182C11.1364 42.8091 11.1364 43.1909 10.8182 43.3182ZM7 36C3.11818 36 0 39.1182 0 43C0 46.8818 3.11818 50 7 50C10.8818 50 14 46.8818 14 43C14 39.1182 10.8818 36 7 36Z" fill="#A9A9A9"/>
<path d="M27.6367 36.9121H26.3242V49.1621H27.6367V36.9121ZM17.5742 45.8809L18.2578 46.9336C22.4619 44.917 23.9863 41.8135 23.9863 38.2246H18.1621V39.2637H22.6738C22.4209 42.1211 20.8281 44.3291 17.5742 45.8809ZM37.248 37.9648H34.2676V36.8301H32.9688V37.9648H30.002V38.9355H37.248V37.9648ZM29.6055 43.7891L29.7832 44.8008C31.9844 44.8008 34.9102 44.7598 37.5625 44.3223L37.4668 43.4199C36.4482 43.5498 35.3545 43.6387 34.2676 43.6934V42.9619C35.6826 42.8047 36.5986 42.1553 36.6055 41.1777C36.5986 40.043 35.3955 39.332 33.625 39.3457C31.8271 39.332 30.6514 40.043 30.6582 41.1777C30.6514 42.1553 31.5469 42.8047 32.9688 42.9619V43.7412C31.7725 43.7822 30.6104 43.7891 29.6055 43.7891ZM31.3691 46.7012H38.4102V49.1621H39.709V45.6895H31.3691V46.7012ZM31.8887 41.1777C31.8955 40.5762 32.5723 40.2207 33.625 40.2344C34.6641 40.2207 35.3613 40.5762 35.3613 41.1777C35.3613 41.7451 34.6641 42.1006 33.625 42.0938C32.5723 42.1006 31.8955 41.7451 31.8887 41.1777ZM38.4102 45.1426H39.709V36.9395H38.4102V45.1426ZM45.916 40.5215V39.2227H48.582V38.1426H41.8691V39.2227H44.6309V40.5215C44.624 42.5928 43.2773 44.9033 41.418 45.7988L42.1836 46.8242C43.5781 46.127 44.7266 44.6162 45.2871 42.873C45.8408 44.4727 46.9346 45.8535 48.3086 46.5098L49.0469 45.498C47.1875 44.6162 45.9092 42.4561 45.916 40.5215ZM49.8945 49.1621H51.1934V42.8594H53.1621V41.7656H51.1934V36.9121H49.8945V49.1621Z" fill="#888888"/>
<path fill-rule="evenodd" clip-rule="evenodd" d="M76.8182 43.3182L75.4182 43.7636C74.6545 44.0182 74.0818 44.5909 73.8273 45.3545L73.3182 46.8182C73.1909 47.1364 72.8091 47.1364 72.7455 46.8182L72.3 45.4182C72.0455 44.6545 71.4727 44.0818 70.7091 43.8273L69.1818 43.3182C68.8636 43.1909 68.8636 42.8091 69.1818 42.7455L70.5818 42.3C71.3455 42.0455 71.9182 41.4727 72.1727 40.7091L72.6818 39.1818C72.8091 38.8636 73.1909 38.8636 73.2545 39.1818L73.7 40.5818C73.9545 41.3455 74.5273 41.9182 75.2909 42.1727L76.6909 42.6182C77.1364 42.8091 77.1364 43.1909 76.8182 43.3182ZM73 36C69.1182 36 66 39.1182 66 43C66 46.8818 69.1182 50 73 50C76.8818 50 80 46.8818 80 43C80 39.1182 76.8818 36 73 36Z" fill="#A9A9A9"/>
<path d="M90.6445 38.1289H84.916V46.0859H90.6445V38.1289ZM86.1875 45.0332V39.1543H89.3594V45.0332H86.1875ZM92.6953 49.1621H93.9941V42.8047H95.9629V41.7109H93.9941V36.9121H92.6953V49.1621ZM101.965 38.334H97.1934V39.4004H100.7C100.659 40.0156 100.563 40.6104 100.413 41.1777L96.5918 41.4102L96.7695 42.5312L100.051 42.1963C99.4424 43.5566 98.3691 44.7529 96.5918 45.7441L97.3301 46.6465C99.2715 45.5664 100.447 44.2334 101.131 42.7363H103.264V48.5605H104.494V37.2266H103.264V41.6836H101.527C101.842 40.624 101.965 39.4961 101.965 38.334ZM105.848 49.1621H107.078V36.9121H105.848V49.1621ZM118.863 36.9121H117.578V41.4375H115.145V42.5039H117.578V49.1895H118.863V36.9121ZM109.211 46.291H110.168C112.438 46.2842 113.976 46.209 115.76 45.9219L115.623 44.8691C113.996 45.1494 112.574 45.2109 110.523 45.2109V42.4766H114.42V41.4375H110.523V39.0586H114.939V38.0059H109.211V46.291Z" fill="#888888"/>
<path fill-rule="evenodd" clip-rule="evenodd" d="M143.818 43.3182L142.418 43.7636C141.655 44.0182 141.082 44.5909 140.827 45.3545L140.318 46.8182C140.191 47.1364 139.809 47.1364 139.745 46.8182L139.3 45.4182C139.045 44.6545 138.473 44.0818 137.709 43.8273L136.182 43.3182C135.864 43.1909 135.864 42.8091 136.182 42.7455L137.582 42.3C138.345 42.0455 138.918 41.4727 139.173 40.7091L139.682 39.1818C139.809 38.8636 140.191 38.8636 140.255 39.1818L140.7 40.5818C140.955 41.3455 141.527 41.9182 142.291 42.1727L143.691 42.6182C144.136 42.8091 144.136 43.1909 143.818 43.3182ZM140 36C136.118 36 133 39.1182 133 43C133 46.8818 136.118 50 140 50C143.882 50 147 46.8818 147 43C147 39.1182 143.882 36 140 36Z" fill="#A9A9A9"/>
<path d="M161.938 36.9121H160.693V41.752H159.176V37.2402H157.959V48.5742H159.176V42.8047H160.693V49.1621H161.938V36.9121ZM151.41 45.6621L152.162 46.5645C155.669 44.5889 156.735 41.6904 156.742 38.4707H151.93V39.5371H155.478C155.272 42.0322 154.131 44.1172 151.41 45.6621ZM165.301 37.4316H164.029V42.7773H169.799V37.4316H168.514V39.0996H165.301V37.4316ZM165.26 44.7734H171.891V45.8809H165.287V49.0391H173.6V48H166.559V46.8379H173.176V43.748H165.26V44.7734ZM165.301 41.7383V40.0977H168.514V41.7383H165.301ZM171.877 43.2148H173.176V40.5352H174.953V39.4824H173.176V36.9121H171.877V43.2148ZM179.916 40.5215V39.2227H182.582V38.1426H175.869V39.2227H178.631V40.5215C178.624 42.5928 177.277 44.9033 175.418 45.7988L176.184 46.8242C177.578 46.127 178.727 44.6162 179.287 42.873C179.841 44.4727 180.935 45.8535 182.309 46.5098L183.047 45.498C181.188 44.6162 179.909 42.4561 179.916 40.5215ZM183.895 49.1621H185.193V42.8594H187.162V41.7656H185.193V36.9121H183.895V49.1621Z" fill="#888888"/>
<path fill-rule="evenodd" clip-rule="evenodd" d="M210.818 43.3182L209.418 43.7636C208.655 44.0182 208.082 44.5909 207.827 45.3545L207.318 46.8182C207.191 47.1364 206.809 47.1364 206.745 46.8182L206.3 45.4182C206.045 44.6545 205.473 44.0818 204.709 43.8273L203.182 43.3182C202.864 43.1909 202.864 42.8091 203.182 42.7455L204.582 42.3C205.345 42.0455 205.918 41.4727 206.173 40.7091L206.682 39.1818C206.809 38.8636 207.191 38.8636 207.255 39.1818L207.7 40.5818C207.955 41.3455 208.527 41.9182 209.291 42.1727L210.691 42.6182C211.136 42.8091 211.136 43.1909 210.818 43.3182ZM207 36C203.118 36 200 39.1182 200 43C200 46.8818 203.118 50 207 50C210.882 50 214 46.8818 214 43C214 39.1182 210.882 36 207 36Z" fill="#A9A9A9"/>
<path d="M228.596 36.9121H227.297V49.1895H228.596V36.9121ZM219.23 46.1816H220.242C222.785 46.1748 224.385 46.1064 226.217 45.7715L226.08 44.6914C224.351 44.999 222.86 45.0674 220.543 45.0742V39.127H225.096V38.0469H219.23V46.1816ZM234.816 40.5215V39.2227H237.482V38.1426H230.77V39.2227H233.531V40.5215C233.524 42.5928 232.178 44.9033 230.318 45.7988L231.084 46.8242C232.479 46.127 233.627 44.6162 234.188 42.873C234.741 44.4727 235.835 45.8535 237.209 46.5098L237.947 45.498C236.088 44.6162 234.81 42.4561 234.816 40.5215ZM238.795 49.1621H240.094V42.8594H242.062V41.7656H240.094V36.9121H238.795V49.1621ZM252.795 36.9121H251.496V49.1895H252.795V36.9121ZM243.074 42.1211C243.074 44.7666 244.394 46.4346 246.246 46.4277C248.064 46.4346 249.404 44.7666 249.404 42.1211C249.404 39.5029 248.064 37.835 246.246 37.8281C244.394 37.835 243.074 39.5029 243.074 42.1211ZM244.332 42.1211C244.325 40.2002 245.104 38.9971 246.246 38.9902C247.367 38.9971 248.146 40.2002 248.146 42.1211C248.146 44.0693 247.367 45.2656 246.246 45.2656C245.104 45.2656 244.325 44.0693 244.332 42.1211ZM264.977 36.9121H263.678V40.8633H260.027V41.9297H263.678V49.1895H264.977V36.9121ZM255.406 46.2363H256.391C258.312 46.2432 260.089 46.1338 262.064 45.7305L261.9 44.6641C260.116 45.0195 258.469 45.1289 256.719 45.1562V38.2656H255.406V46.2363Z" fill="#888888"/>
<path d="M54.7432 1.42578H52.1006V8.98828H50.2744V1.74805H47.6963V20.0312H50.2744V11.2012H52.1006V20.9766H54.7432V1.42578ZM38.6729 16.207H40.0049C42.0244 16.2178 44.2588 16.0781 46.8799 15.627L46.6006 13.2637C44.7207 13.6289 42.9912 13.7686 41.4229 13.8115V3.5957H38.6729V16.207ZM72.3818 3.1875H62.9287V16.3145H72.3818V3.1875ZM65.6787 14.1445V5.33594H69.7178V14.1445H65.6787ZM75.5615 21.0195H78.333V1.42578H75.5615V21.0195ZM88.9463 3.31641H81.5127V5.5293H86.3037V8.66602H81.5342V16.6367H82.8877C85.3047 16.6367 87.4209 16.5723 89.9775 16.1426L89.7842 13.9512C87.7754 14.2627 86.0137 14.3379 84.1553 14.3594V10.8574H88.9463V3.31641ZM90.8799 20.0312H93.3936V11.0293H95.2842V20.9766H97.8838V1.42578H95.2842V8.81641H93.3936V1.74805H90.8799V20.0312ZM105.812 2.58594C102.729 2.59668 100.44 4.57324 100.44 7.37695C100.44 9.77246 102.095 11.5557 104.479 12.0391V14.7891C102.782 14.832 101.171 14.832 99.7529 14.832L100.118 17.0449C103.438 17.0879 107.842 17.0986 111.935 16.3145L111.741 14.2949C110.291 14.4883 108.744 14.6172 107.208 14.6924V12.0176C109.518 11.5127 111.161 9.74023 111.183 7.37695C111.161 4.57324 108.83 2.59668 105.812 2.58594ZM103.126 7.37695C103.115 5.81934 104.265 4.91699 105.812 4.90625C107.326 4.91699 108.476 5.81934 108.476 7.37695C108.476 8.91309 107.326 9.84766 105.812 9.84766C104.265 9.84766 103.115 8.91309 103.126 7.37695ZM112.772 20.9766H115.522V11.3945H118.187V9.0957H115.522V1.42578H112.772V20.9766ZM140.938 1.42578H138.296V8.98828H136.47V1.74805H133.892V20.0312H136.47V11.2012H138.296V20.9766H140.938V1.42578ZM124.868 16.207H126.2C128.22 16.2178 130.454 16.0781 133.075 15.627L132.796 13.2637C130.916 13.6289 129.187 13.7686 127.618 13.8115V3.5957H124.868V16.207ZM163.862 14.1016H150.22V20.7617H163.862V14.1016ZM148.157 12.748H165.989V10.5566H158.427V8.94531H163.733V2.0918H150.37V8.94531H155.677V10.5566H148.157V12.748ZM152.927 18.5703V16.2715H161.177V18.5703H152.927ZM153.056 6.77539V4.2832H161.048V6.77539H153.056ZM176.087 1.70508C171.575 1.70508 168.954 2.88672 168.954 5.03516C168.954 7.21582 171.575 8.38672 176.087 8.38672C180.588 8.38672 183.188 7.21582 183.198 5.03516C183.188 2.88672 180.588 1.70508 176.087 1.70508ZM167.171 11.4805H185.003V9.31055H167.171V11.4805ZM169.233 14.6172H180.126V15.6914H169.255V20.8477H183.349V18.7852H171.94V17.6035H182.833V12.6191H169.233V14.6172ZM171.833 5.03516C171.822 4.16504 173.219 3.70312 176.087 3.70312C178.977 3.70312 180.362 4.16504 180.362 5.03516C180.362 5.99121 178.977 6.36719 176.087 6.36719C173.219 6.36719 171.822 5.99121 171.833 5.03516ZM197.636 2.24219C194.66 2.2207 192.49 3.92871 192.501 6.38867C192.49 8.82715 194.66 10.5566 197.636 10.5352C200.622 10.5566 202.792 8.82715 202.792 6.38867C202.792 3.92871 200.622 2.2207 197.636 2.24219ZM191.298 11.7383L191.642 13.9727C193.049 13.9512 194.671 13.9404 196.39 13.8652V20.3965H199.118V13.7041C200.751 13.5752 202.405 13.3711 204.017 13.0488L203.845 11.0293C199.677 11.6631 194.768 11.7275 191.298 11.7383ZM195.144 6.38867C195.133 5.14258 196.175 4.42285 197.636 4.43359C199.14 4.42285 200.192 5.14258 200.192 6.38867C200.192 7.61328 199.14 8.32227 197.636 8.30078C196.175 8.32227 195.133 7.61328 195.144 6.38867ZM205.026 20.9766H207.733V1.44727H205.026V20.9766ZM219.7 4.41211H216.349V1.96289H213.642V4.41211H210.247V6.58203H219.7V4.41211ZM210.698 12.1035C210.698 14.832 212.524 16.7656 215.017 16.7656C217.52 16.7656 219.303 14.832 219.313 12.1035C219.303 9.38574 217.52 7.47363 215.017 7.46289C212.524 7.47363 210.698 9.38574 210.698 12.1035ZM213.104 12.1035C213.104 10.6318 213.878 9.74023 215.017 9.74023C216.112 9.74023 216.896 10.6318 216.907 12.1035C216.896 13.5967 216.112 14.4453 215.017 14.4453C213.878 14.4453 213.104 13.5967 213.104 12.1035ZM220.431 20.1387H222.987V11.5664H224.577V20.9766H227.177V1.42578H224.577V9.375H222.987V1.8125H220.431V20.1387Z" fill="black"/>
</svg>
