<svg width="327" height="52" viewBox="0 0 327 52" fill="none" xmlns="http://www.w3.org/2000/svg">
<rect width="327" height="52" rx="26" fill="#E1DCFE"/>
<path d="M140.586 19.2812H138.852V28.8281H140.586V24.8281H142.492V23.3906H140.586V19.2812ZM129.273 27.1406L129.461 28.5C131.945 28.5 135.25 28.4688 138.258 27.9375L138.117 26.7344C136.984 26.8828 135.773 26.9766 134.57 27.0391V26.2266C136.117 26.0234 137.086 25.2734 137.086 24.1719C137.086 22.8672 135.734 22.0703 133.68 22.0781C131.633 22.0703 130.266 22.8672 130.273 24.1719C130.266 25.2812 131.266 26.0391 132.836 26.2344V27.1016C131.562 27.1328 130.336 27.1406 129.273 27.1406ZM129.633 21.6719H137.742V20.3906H134.57V19.1562H132.836V20.3906H129.633V21.6719ZM131.055 30.7969H138.852V33.3906H140.586V29.4375H131.055V30.7969ZM131.945 24.1719C131.93 23.5547 132.586 23.2422 133.68 23.25C134.773 23.2422 135.43 23.5547 135.43 24.1719C135.43 24.7578 134.773 25.125 133.68 25.1094C132.586 25.125 131.93 24.7578 131.945 24.1719ZM154.992 19.2812H153.242V29.4844H154.992V19.2812ZM143.477 23.7344C143.477 25.8203 145.141 27.2812 147.289 27.2812C149.438 27.2812 151.094 25.8203 151.086 23.7344C151.094 21.6797 149.438 20.2109 147.289 20.2031C145.141 20.2109 143.477 21.6797 143.477 23.7344ZM145.18 23.7344C145.172 22.5156 146.078 21.7188 147.289 21.7188C148.469 21.7188 149.383 22.5156 149.383 23.7344C149.383 24.9844 148.469 25.7656 147.289 25.7656C146.078 25.7656 145.172 24.9844 145.18 23.7344ZM145.648 33.1094H155.383V31.7031H147.398V28.4531H145.648V33.1094ZM169.133 19.2812H167.477V22.9844H166.133V19.4844H164.508V27.8125H166.133V24.4062H167.477V27.9844H169.133V19.2812ZM156.977 22.0938H164.008V20.7188H161.367V19.3438H159.648V20.7188H156.977V22.0938ZM157.477 25.0781C157.461 26.5312 158.742 27.5234 160.508 27.5312C162.305 27.5234 163.57 26.5312 163.586 25.0781C163.57 23.6016 162.305 22.6328 160.508 22.625C158.742 22.6328 157.461 23.6016 157.477 25.0781ZM157.883 31.9062L158.695 33.2188C160.008 32.7734 160.93 31.9297 161.445 30.8984C161.891 31.9688 162.727 32.875 164.055 33.3438C165.352 32.8594 166.18 31.8984 166.633 30.8281C167.117 31.9062 168.047 32.7812 169.43 33.2188L170.242 31.9062C168.391 31.4062 167.508 30.1094 167.508 28.7656V28.4219H165.789V28.7656C165.781 29.75 165.227 30.9453 164.023 31.6953C162.836 30.9922 162.312 29.8672 162.32 28.7656V28.4219H160.602V28.7656C160.609 30.0312 159.688 31.3594 157.883 31.9062ZM159.023 25.0781C159.023 24.3203 159.625 23.8906 160.508 23.8906C161.398 23.8906 162.008 24.3203 162.008 25.0781C162.008 25.8203 161.398 26.2656 160.508 26.2656C159.625 26.2656 159.023 25.8203 159.023 25.0781ZM174.742 20.2969C172.617 20.2969 171.109 22.2344 171.117 25.2812C171.109 28.3516 172.617 30.2812 174.742 30.2812C176.703 30.2812 178.141 28.6016 178.328 25.875H181.008V33.4062H182.727V19.2656H181.008V24.4688H178.312C178.062 21.8906 176.648 20.2969 174.742 20.2969ZM172.789 25.2812C172.781 23.125 173.578 21.8594 174.742 21.8594C175.914 21.8594 176.703 23.125 176.711 25.2812C176.703 27.4531 175.914 28.7109 174.742 28.7188C173.578 28.7109 172.781 27.4531 172.789 25.2812ZM197.617 30.25H194.648V26.6406C195.742 25.9922 196.406 25 196.398 23.7656C196.406 21.5156 194.188 20.0312 191.133 20.0312C188.094 20.0312 185.891 21.5156 185.898 23.7656C185.891 25.0156 186.57 26.0312 187.695 26.6797V30.25H184.711V31.6719H197.617V30.25ZM187.602 23.7656C187.594 22.2969 189.023 21.3984 191.133 21.4062C193.234 21.3984 194.695 22.2969 194.695 23.7656C194.695 25.2109 193.234 26.1328 191.133 26.125C189.023 26.1328 187.594 25.2109 187.602 23.7656ZM189.414 30.25V27.3125C189.945 27.4219 190.523 27.4844 191.133 27.4844C191.758 27.4844 192.344 27.4219 192.883 27.3047V30.25H189.414Z" fill="#6B47FD"/>
</svg>
