<svg width="80" height="14" viewBox="0 0 80 14" fill="none" xmlns="http://www.w3.org/2000/svg">
<path fill-rule="evenodd" clip-rule="evenodd" d="M8.30435 0.487751L9.92733 3.6952C10.0578 3.95302 10.3102 4.13193 10.6025 4.17343L14.2313 4.68771C14.9665 4.79179 15.2608 5.6741 14.7279 6.17953L12.102 8.67611C11.9979 8.77512 11.9201 8.8973 11.8751 9.03215C11.8302 9.167 11.8195 9.31048 11.8439 9.45025L12.464 12.9754C12.5895 13.6903 11.8209 14.2346 11.1632 13.8978L7.91726 12.2332C7.78865 12.1672 7.64551 12.1327 7.50018 12.1327C7.35485 12.1327 7.2117 12.1672 7.0831 12.2332L3.83714 13.8978C3.17874 14.2346 2.41014 13.6903 2.53568 12.9754L3.15572 9.45025C3.18014 9.31048 3.16941 9.16701 3.12446 9.03218C3.07951 8.89734 3.00169 8.77515 2.89766 8.67611L0.271738 6.17953C-0.260421 5.6741 0.0332081 4.79179 0.769025 4.68771L4.39719 4.17343C4.68943 4.13193 4.94261 3.95302 5.07303 3.6952L6.69531 0.487751C7.02451 -0.162583 7.97515 -0.162583 8.30435 0.487751Z" fill="#A9A9A9"/>
<path d="M29.3271 0.912109H28.0283V7.10547H29.3271V4.54883H31.1045V3.46875H29.3271V0.912109ZM19.8936 4.07031C19.8799 5.67676 21.2539 6.80469 23.1064 6.80469C24.9658 6.80469 26.3193 5.67676 26.3193 4.07031C26.3193 2.4502 24.9658 1.34277 23.1064 1.33594C21.2539 1.34277 19.8799 2.4502 19.8936 4.07031ZM21.1514 4.07031C21.1445 3.07227 21.9785 2.39551 23.1064 2.40234C24.2344 2.39551 25.0615 3.07227 25.0615 4.07031C25.0615 5.06836 24.2344 5.76562 23.1064 5.76562C21.9785 5.76562 21.1445 5.06836 21.1514 4.07031ZM21.4111 8.67773H28.042V9.79883H21.4385V13.0117H29.751V11.9727H22.71V10.7695H29.3271V7.66602H21.4111V8.67773ZM35.083 1.82812C33.251 1.83496 31.9453 3.50293 31.9521 6.12109C31.9453 8.7666 33.251 10.4346 35.083 10.4277C36.915 10.4346 38.2207 8.7666 38.2275 6.12109C38.2207 3.50293 36.915 1.83496 35.083 1.82812ZM33.1963 6.12109C33.1895 4.2002 33.9688 2.99707 35.083 2.99023C36.2178 2.99707 36.9834 4.2002 36.9834 6.12109C36.9834 8.06934 36.2178 9.26562 35.083 9.26562C33.9688 9.26562 33.1895 8.06934 33.1963 6.12109ZM40.0459 13.1621H41.3447V6.80469H43.3135V5.71094H41.3447V0.912109H40.0459V13.1621ZM53.7588 4.04297H46.6631V2.41602H53.6357V1.36328H45.3643V5.08203H53.7588V4.04297ZM43.9014 7.00977H48.8369V8.08984H45.2412V9.06055H52.3779V10.0176H45.2549V13.0391H54.0049V12.0273H46.5264V10.9473H53.6631V8.08984H50.1221V7.00977H55.0713V5.95703H43.9014V7.00977ZM62.208 1.99219H56.4795V7.70703H62.208V1.99219ZM57.751 6.68164V3.04492H60.9365V6.68164H57.751ZM57.8604 12.9023H66.1455V11.8496H59.1592V9.01953H57.8604V12.9023ZM64.3271 9.88086H65.626V5.65625H67.4033V4.5625H65.626V0.898438H64.3271V9.88086ZM77.7256 0.925781H76.4268V10.0859H77.7256V5.94336H79.5029V4.86328H77.7256V0.925781ZM68.1143 3.40039H75.415V2.34766H72.4209V0.912109H71.1221V2.34766H68.1143V3.40039ZM68.7842 6.29883C68.7773 7.68652 69.9873 8.58887 71.7646 8.5957C73.5215 8.58887 74.7314 7.68652 74.7314 6.29883C74.7314 4.89746 73.5215 3.98145 71.7646 3.98828C69.9873 3.98145 68.7773 4.89746 68.7842 6.29883ZM69.96 12.9023H78.2451V11.8496H71.2588V9.36133H69.96V12.9023ZM70.042 6.29883C70.0283 5.49219 70.7256 4.99316 71.7646 4.98633C72.8037 4.99316 73.501 5.49219 73.5146 6.29883C73.501 7.09863 72.8037 7.59082 71.7646 7.58398C70.7256 7.59082 70.0283 7.09863 70.042 6.29883Z" fill="#A9A9A9"/>
</svg>
