<svg width="61" height="16" viewBox="0 0 61 16" fill="none" xmlns="http://www.w3.org/2000/svg">
<path d="M31.6094 1.32812H30.1875V6.89062H28.5156V1.59375H27.1094V14.6406H28.5156V8.14062H30.1875V15.3281H31.6094V1.32812ZM19.3281 11.375L20.25 12.5C21.6797 11.6562 22.6016 10.1875 23.0781 8.35156C23.5781 9.96094 24.5 11.2656 25.875 12.0156L26.75 10.875C24.7109 9.82812 23.7656 7.54688 23.7656 5.03125V4.125H26.2031V2.92188H19.7031V4.125H22.3281V5.03125C22.3281 7.8125 21.375 10.2266 19.3281 11.375ZM39.0781 2.98438H33.8438V12.0469H34.75C36.9219 12.0391 38.25 12.0156 39.8594 11.6875L39.7344 10.4844C38.2891 10.75 37.0938 10.8203 35.2656 10.8438V7.90625H38.4531V6.75H35.2656V4.17188H39.0781V2.98438ZM39.1875 7.78125H41.0781V14.625H42.4844V1.625H41.0781V6.57812H39.1875V7.78125ZM43.9375 15.3281H45.375V1.32812H43.9375V15.3281ZM58.4375 2.6875H48.6875V3.90625H57V4.39062C56.9922 5.10938 56.9922 5.82812 56.9609 6.57812L48.2969 6.90625L48.4844 8.125L56.8906 7.67969C56.8125 8.71875 56.6562 9.83594 56.3594 11.125L57.8281 11.2656C58.4375 8.35938 58.4375 6.4375 58.4375 4.39062V2.6875ZM47.1719 13.4531H59.9375V12.2344H47.1719V13.4531Z" fill="#222222"/>
<path fill-rule="evenodd" clip-rule="evenodd" d="M14.4236 5.46093L7.97521 0.171311C7.8403 0.0603975 7.6729 0 7.50038 0C7.32787 0 7.16046 0.0603975 7.02555 0.171311L0.576365 5.46093C0.396624 5.60841 0.251451 5.79582 0.151659 6.0092C0.0518675 6.22259 2.75152e-05 6.45644 0 6.69336V14.11C0 14.6113 0.19303 15.092 0.536626 15.4464C0.880221 15.8009 1.34624 16 1.83215 16H5.97359V12.2578C5.97359 12.049 6.05402 11.8487 6.19718 11.701C6.34035 11.5533 6.53452 11.4703 6.73698 11.4703H8.26378C8.46624 11.4703 8.66042 11.5533 8.80358 11.701C8.94675 11.8487 9.02718 12.049 9.02718 12.2578V16H13.1678C13.6538 16 14.1198 15.8009 14.4634 15.4464C14.807 15.092 15 14.6113 15 14.11V6.69415C15 6.45723 14.9481 6.22337 14.8483 6.00999C14.7485 5.79661 14.6034 5.6092 14.4236 5.46172" fill="#222222"/>
</svg>
