<svg width="49" height="30" viewBox="0 0 49 30" fill="none" xmlns="http://www.w3.org/2000/svg">
<path d="M17.5996 10.7441V9.5957H16.3145V10.7988C16.3008 12.6377 15.166 14.2715 13.2109 14.9414L13.9082 15.9805C15.3916 15.4473 16.458 14.3467 16.9844 12.9453C17.5176 14.1758 18.5088 15.1191 19.8555 15.6113L20.5664 14.5996C18.707 13.9912 17.5928 12.46 17.5996 10.7441ZM15.2207 18.8242C15.2139 20.3008 16.7861 21.1416 19.3633 21.1348C21.9268 21.1416 23.499 20.3008 23.5059 18.8242C23.499 17.3408 21.9268 16.4795 19.3633 16.4863C16.7861 16.4795 15.2139 17.3408 15.2207 18.8242ZM16.5059 18.8242C16.499 17.9834 17.5654 17.498 19.3633 17.498C21.1475 17.498 22.2139 17.9834 22.2207 18.8242C22.2139 19.6377 21.1475 20.1162 19.3633 20.1094C17.5654 20.1162 16.499 19.6377 16.5059 18.8242ZM19.582 12.4668H22.166V16.1445H23.4648V8.91211H22.166V11.4004H19.582V12.4668ZM30.875 16.6094C28.25 16.6094 26.5684 17.4502 26.5684 18.8789C26.5684 20.3008 28.25 21.1416 30.875 21.1348C33.5273 21.1416 35.2021 20.3008 35.209 18.8789C35.2021 17.4502 33.5273 16.6094 30.875 16.6094ZM25.3652 15.5977H36.5078V14.5449H31.1074V12.248H29.8359V14.5449H25.3652V15.5977ZM26.6641 10.5527H33.8281C33.8281 11.5029 33.8281 12.4053 33.5 13.6562L34.7715 13.793C35.1201 12.5283 35.1201 11.5166 35.1133 10.5391V9.51367H26.6641V10.5527ZM27.8672 18.8789C27.8535 18.0723 29.0225 17.6006 30.875 17.5938C32.748 17.6006 33.9102 18.0723 33.9238 18.8789C33.9102 19.6719 32.748 20.1299 30.875 20.1367C29.0225 20.1299 27.8535 19.6719 27.8672 18.8789Z" fill="#6B47FD"/>
<rect x="0.5" y="0.5" width="48" height="29" rx="14.5" stroke="#6B47FD"/>
</svg>
