<svg width="159" height="26" viewBox="0 0 159 26" fill="none" xmlns="http://www.w3.org/2000/svg">
<rect width="96" height="26" rx="8" fill="#F2F2F2"/>
<path fill-rule="evenodd" clip-rule="evenodd" d="M16.3043 6.48775L17.9273 9.6952C18.0578 9.95302 18.3102 10.1319 18.6025 10.1734L22.2313 10.6877C22.9665 10.7918 23.2608 11.6741 22.7279 12.1795L20.102 14.6761C19.9979 14.7751 19.9201 14.8973 19.8751 15.0321C19.8302 15.167 19.8195 15.3105 19.8439 15.4503L20.464 18.9754C20.5895 19.6903 19.8209 20.2346 19.1632 19.8978L15.9173 18.2332C15.7887 18.1672 15.6455 18.1327 15.5002 18.1327C15.3548 18.1327 15.2117 18.1672 15.0831 18.2332L11.8371 19.8978C11.1787 20.2346 10.4101 19.6903 10.5357 18.9754L11.1557 15.4503C11.1801 15.3105 11.1694 15.167 11.1245 15.0322C11.0795 14.8973 11.0017 14.7752 10.8977 14.6761L8.27174 12.1795C7.73958 11.6741 8.03321 10.7918 8.76902 10.6877L12.3972 10.1734C12.6894 10.1319 12.9426 9.95302 13.073 9.6952L14.6953 6.48775C15.0245 5.83742 15.9751 5.83742 16.3043 6.48775Z" fill="#A9A9A9"/>
<path d="M37.3271 6.91211H36.0283V13.1055H37.3271V10.5488H39.1045V9.46875H37.3271V6.91211ZM27.8936 10.0703C27.8799 11.6768 29.2539 12.8047 31.1064 12.8047C32.9658 12.8047 34.3193 11.6768 34.3193 10.0703C34.3193 8.4502 32.9658 7.34277 31.1064 7.33594C29.2539 7.34277 27.8799 8.4502 27.8936 10.0703ZM29.1514 10.0703C29.1445 9.07227 29.9785 8.39551 31.1064 8.40234C32.2344 8.39551 33.0615 9.07227 33.0615 10.0703C33.0615 11.0684 32.2344 11.7656 31.1064 11.7656C29.9785 11.7656 29.1445 11.0684 29.1514 10.0703ZM29.4111 14.6777H36.042V15.7988H29.4385V19.0117H37.751V17.9727H30.71V16.7695H37.3271V13.666H29.4111V14.6777ZM43.083 7.82812C41.251 7.83496 39.9453 9.50293 39.9521 12.1211C39.9453 14.7666 41.251 16.4346 43.083 16.4277C44.915 16.4346 46.2207 14.7666 46.2275 12.1211C46.2207 9.50293 44.915 7.83496 43.083 7.82812ZM41.1963 12.1211C41.1895 10.2002 41.9688 8.99707 43.083 8.99023C44.2178 8.99707 44.9834 10.2002 44.9834 12.1211C44.9834 14.0693 44.2178 15.2656 43.083 15.2656C41.9688 15.2656 41.1895 14.0693 41.1963 12.1211ZM48.0459 19.1621H49.3447V12.8047H51.3135V11.7109H49.3447V6.91211H48.0459V19.1621ZM61.7588 10.043H54.6631V8.41602H61.6357V7.36328H53.3643V11.082H61.7588V10.043ZM51.9014 13.0098H56.8369V14.0898H53.2412V15.0605H60.3779V16.0176H53.2549V19.0391H62.0049V18.0273H54.5264V16.9473H61.6631V14.0898H58.1221V13.0098H63.0713V11.957H51.9014V13.0098ZM70.208 7.99219H64.4795V13.707H70.208V7.99219ZM65.751 12.6816V9.04492H68.9365V12.6816H65.751ZM65.8604 18.9023H74.1455V17.8496H67.1592V15.0195H65.8604V18.9023ZM72.3271 15.8809H73.626V11.6562H75.4033V10.5625H73.626V6.89844H72.3271V15.8809ZM85.7256 6.92578H84.4268V16.0859H85.7256V11.9434H87.5029V10.8633H85.7256V6.92578ZM76.1143 9.40039H83.415V8.34766H80.4209V6.91211H79.1221V8.34766H76.1143V9.40039ZM76.7842 12.2988C76.7773 13.6865 77.9873 14.5889 79.7646 14.5957C81.5215 14.5889 82.7314 13.6865 82.7314 12.2988C82.7314 10.8975 81.5215 9.98145 79.7646 9.98828C77.9873 9.98145 76.7773 10.8975 76.7842 12.2988ZM77.96 18.9023H86.2451V17.8496H79.2588V15.3613H77.96V18.9023ZM78.042 12.2988C78.0283 11.4922 78.7256 10.9932 79.7646 10.9863C80.8037 10.9932 81.501 11.4922 81.5146 12.2988C81.501 13.0986 80.8037 13.5908 79.7646 13.584C78.7256 13.5908 78.0283 13.0986 78.042 12.2988Z" fill="#A9A9A9"/>
<rect x="100" width="59" height="26" rx="8" fill="#F2F2F2"/>
<path fill-rule="evenodd" clip-rule="evenodd" d="M110.907 20H108.778C108.571 20 108.374 19.9181 108.228 19.7722C108.082 19.6263 108 19.4285 108 19.2222V14.1464C108 13.9402 108.082 13.7423 108.228 13.5965C108.374 13.4506 108.571 13.3687 108.778 13.3687H110.907C111.113 13.3687 111.311 13.4506 111.457 13.5965C111.602 13.7423 111.684 13.9402 111.684 14.1464V19.2222C111.684 19.4285 111.602 19.6263 111.457 19.7722C111.311 19.9181 111.113 20 110.907 20ZM116.065 20H113.936C113.73 20 113.532 19.9181 113.386 19.7722C113.24 19.6263 113.158 19.4285 113.158 19.2222V10.4621C113.158 10.2558 113.24 10.058 113.386 9.91214C113.532 9.76628 113.73 9.68433 113.936 9.68433H116.065C116.271 9.68433 116.469 9.76628 116.615 9.91214C116.761 10.058 116.843 10.2558 116.843 10.4621V19.2222C116.843 19.4285 116.761 19.6263 116.615 19.7722C116.469 19.9181 116.271 20 116.065 20ZM121.222 20H119.093C118.887 20 118.689 19.9181 118.543 19.7722C118.398 19.6263 118.316 19.4285 118.316 19.2222V6.77778C118.316 6.5715 118.398 6.37367 118.543 6.22781C118.689 6.08194 118.887 6 119.093 6H121.222C121.429 6 121.626 6.08194 121.772 6.22781C121.918 6.37367 122 6.5715 122 6.77778V19.2222C122 19.4285 121.918 19.6263 121.772 19.7722C121.626 19.9181 121.429 20 121.222 20Z" fill="#A9A9A9"/>
<path d="M131.199 8.74414V7.5957H129.914V8.79883C129.9 10.6377 128.766 12.2715 126.811 12.9414L127.508 13.9805C128.991 13.4473 130.058 12.3467 130.584 10.9453C131.117 12.1758 132.108 13.1191 133.455 13.6113L134.166 12.5996C132.307 11.9912 131.192 10.46 131.199 8.74414ZM128.82 16.8242C128.813 18.3008 130.386 19.1416 132.963 19.1348C135.526 19.1416 137.099 18.3008 137.105 16.8242C137.099 15.3408 135.526 14.4795 132.963 14.4863C130.386 14.4795 128.813 15.3408 128.82 16.8242ZM130.105 16.8242C130.099 15.9834 131.165 15.498 132.963 15.498C134.747 15.498 135.813 15.9834 135.82 16.8242C135.813 17.6377 134.747 18.1162 132.963 18.1094C131.165 18.1162 130.099 17.6377 130.105 16.8242ZM133.182 10.4668H135.766V14.1445H137.064V6.91211H135.766V9.40039H133.182V10.4668ZM143.23 9.16797V8.83984H145.869V7.78711H139.238V8.83984H141.932V9.18164C141.925 10.8838 140.77 12.4629 138.855 13.0918L139.525 14.1309C140.995 13.6182 142.068 12.5586 142.602 11.2188C143.142 12.3809 144.16 13.3037 145.555 13.748L146.17 12.7363C144.311 12.1484 143.224 10.7266 143.23 9.16797ZM140.51 16.8379C140.51 18.2939 142.075 19.1416 144.625 19.1348C147.147 19.1416 148.686 18.2939 148.686 16.8379C148.686 15.4023 147.147 14.5615 144.625 14.5684C142.075 14.5615 140.51 15.4023 140.51 16.8379ZM141.809 16.8379C141.802 16.0381 142.854 15.5869 144.625 15.5938C146.382 15.5869 147.421 16.0381 147.414 16.8379C147.421 17.6582 146.382 18.1162 144.625 18.1094C142.854 18.1162 141.802 17.6582 141.809 16.8379ZM147.277 14.2676H148.576V11.0137H150.354V9.94727H148.576V6.91211H147.277V14.2676Z" fill="#A9A9A9"/>
</svg>
