<svg width="327" height="52" viewBox="0 0 327 52" fill="none" xmlns="http://www.w3.org/2000/svg">
<rect x="0.5" y="0.5" width="326" height="51" rx="25.5" fill="#6B47FD"/>
<path d="M132.055 25.6875H123.883V21.7031H131.945V20.3125H122.148V27.0625H126.148V30.2969H120.586V31.7188H133.492V30.2969H127.867V27.0625H132.055V25.6875ZM146.242 19.2812H144.508V23.0156H142.008V24.4219H144.508V29.5938H146.242V19.2812ZM134.383 26.5469L135.273 27.9531C136.945 27.375 138.125 26.1875 138.742 24.7031C139.359 26.0391 140.477 27.1172 142.055 27.6562L142.93 26.2656C140.742 25.5469 139.602 23.7891 139.602 22.0938V21.7031H142.523V20.2969H134.898V21.7031H137.836V22.0781C137.836 23.9609 136.633 25.8047 134.383 26.5469ZM136.977 33.1094H146.602V31.7031H138.711V28.6875H136.977V33.1094ZM157.383 22.6562V20.4062H155.617V22.6562C155.609 25.3828 154.234 28.0781 151.883 29.0938L152.945 30.5469C154.656 29.7422 155.875 28.1172 156.523 26.1328C157.18 27.9766 158.367 29.4688 159.992 30.2188L161.023 28.8281C158.734 27.8438 157.367 25.25 157.383 22.6562ZM162.039 33.4062H163.789V19.2656H162.039V33.4062ZM170.93 21.7188V21.5469H173.867V20.1562H166.195V21.5469H169.18V21.7188C169.18 23.5703 167.984 25.3984 165.711 26.1562L166.633 27.5C168.281 26.9375 169.453 25.7891 170.078 24.3438C170.695 25.6641 171.812 26.7188 173.398 27.25L174.273 25.9062C172.047 25.1719 170.93 23.4609 170.93 21.7188ZM167.602 29.8281H175.273V33.3906H177.008V28.4375H167.602V29.8281ZM175.273 27.7812H177.008V24.25H178.977V22.7969H177.008V19.2656H175.273V27.7812ZM190.758 19.2656H189.039V33.3906H190.758V26.3281H192.93V24.8906H190.758V19.2656ZM179.617 22.8281H187.945V21.4375H184.695V19.4688H182.961V21.4375H179.617V22.8281ZM180.273 27.0781C180.258 29.0234 181.773 30.3906 183.836 30.3906C185.867 30.3906 187.375 29.0234 187.383 27.0781C187.375 25.125 185.867 23.7422 183.836 23.75C181.773 23.7422 180.258 25.125 180.273 27.0781ZM181.93 27.0781C181.922 25.9297 182.727 25.1719 183.836 25.1719C184.922 25.1719 185.711 25.9297 185.727 27.0781C185.711 28.2266 184.922 28.9609 183.836 28.9531C182.727 28.9609 181.922 28.2266 181.93 27.0781ZM205.32 19.2656H203.57V33.3906H205.32V19.2656ZM193.617 29.5L194.523 30.8906C199.469 28.5391 201.102 24.9688 201.102 20.7656H194.336V22.1406H199.336C199.023 25.3516 197.32 27.7422 193.617 29.5Z" fill="white"/>
<rect x="0.5" y="0.5" width="326" height="51" rx="25.5" stroke="#6B47FD"/>
</svg>
