<svg width="79" height="16" viewBox="0 0 79 16" fill="none" xmlns="http://www.w3.org/2000/svg">
<path d="M24.3906 5.45312V3.96875H27.4375V2.73438H19.7656V3.96875H22.9219V5.45312C22.9141 7.82031 21.375 10.4609 19.25 11.4844L20.125 12.6562C21.7188 11.8594 23.0312 10.1328 23.6719 8.14062C24.3047 9.96875 25.5547 11.5469 27.125 12.2969L27.9688 11.1406C25.8438 10.1328 24.3828 7.66406 24.3906 5.45312ZM28.9375 15.3281H30.4219V8.125H32.6719V6.875H30.4219V1.32812H28.9375V15.3281ZM44.9844 1.32812H43.4844V15.3281H44.9844V1.32812ZM33.4844 11.5781L34.2656 12.7812C39.0703 10.4766 40.8125 6.92969 40.8125 2.82812H34.1562V4.01562H39.3125C39.0234 7.28125 37.2031 9.80469 33.4844 11.5781ZM63.1094 1.32812H61.7031V15.3281H63.1094V1.32812ZM51 11.2812L51.875 12.3438C54.5156 10.7734 56.0078 8.72656 56.6875 6.375H58.8438V8.65625H56.4531V9.875H58.8438V14.6406H60.25V1.6875H58.8438V5.15625H56.9609C57.0703 4.47656 57.125 3.78125 57.125 3.0625H51.6875V4.28125H55.6562C55.3984 7.16406 53.9766 9.51562 51 11.2812ZM66.9062 1.92188H65.4531V8.03125H72.0469V1.92188H70.5781V3.82812H66.9062V1.92188ZM66.8594 10.3125H74.4375V11.5781H66.8906V15.1875H76.3906V14H68.3438V12.6719H75.9062V9.14062H66.8594V10.3125ZM66.9062 6.84375V4.96875H70.5781V6.84375H66.9062ZM74.4219 8.53125H75.9062V5.46875H77.9375V4.26562H75.9062V1.32812H74.4219V8.53125Z" fill="#CECECE"/>
<path d="M7.48913 7.48892V0C5.51849 0.124037 3.74192 0.953626 2.41113 2.24653C3.77402 3.60729 4.66267 5.44449 4.79108 7.48892H7.48913Z" fill="#CECECE"/>
<path d="M3.76983 7.48894C3.64434 5.74439 2.8841 4.17642 1.7255 3.00317C0.731786 4.24938 0.107251 5.79765 0 7.48894H3.76983Z" fill="#CECECE"/>
<path d="M8.51074 7.48892H11.2088C11.3365 5.44522 12.2258 3.60802 13.5887 2.24653C12.258 0.953626 10.4814 0.124037 8.51074 0V7.48892Z" fill="#CECECE"/>
<path d="M15.9996 7.48894C15.8923 5.79765 15.2678 4.24938 14.2741 3.00317C13.1155 4.17569 12.3552 5.74366 12.2305 7.48821H15.9996V7.48894Z" fill="#CECECE"/>
<path d="M11.2088 8.51025H8.51074V15.9999C10.4814 15.8759 12.258 15.0463 13.5887 13.7526C12.2258 12.3912 11.3372 10.5539 11.2088 8.51025Z" fill="#CECECE"/>
<path d="M0 8.51025C0.106521 10.2008 0.731786 11.7491 1.7255 12.9953C2.8841 11.8228 3.64434 10.2548 3.7691 8.51025H0Z" fill="#CECECE"/>
<path d="M12.2305 8.51025C12.3552 10.2548 13.1155 11.8228 14.2741 12.9953C15.2678 11.7491 15.893 10.2008 15.9996 8.51025H12.2305Z" fill="#CECECE"/>
<path d="M7.48913 8.51025H4.79108C4.6634 10.5539 3.77402 12.3912 2.41113 13.7526C3.74192 15.0455 5.51849 15.8751 7.48913 15.9999V8.51025Z" fill="#CECECE"/>
</svg>
