<svg width="52" height="20" viewBox="0 0 52 20" fill="none" xmlns="http://www.w3.org/2000/svg">
<path fill-rule="evenodd" clip-rule="evenodd" d="M9.5 13.3336C9.05684 13.3336 8.61802 13.2474 8.2086 13.0799C7.79918 12.9124 7.42716 12.6669 7.1138 12.3574C6.80044 12.0479 6.55187 11.6804 6.38228 11.276C6.2127 10.8716 6.12541 10.4382 6.12541 10.0005C6.12541 9.56274 6.2127 9.1293 6.38228 8.7249C6.55187 8.3205 6.80044 7.95305 7.1138 7.64354C7.42716 7.33402 7.79918 7.0885 8.2086 6.921C8.61802 6.75349 9.05684 6.66727 9.5 6.66727C10.395 6.66727 11.2533 7.01845 11.8862 7.64354C12.5191 8.26863 12.8746 9.11644 12.8746 10.0005C12.8746 10.8845 12.5191 11.7323 11.8862 12.3574C11.2533 12.9825 10.395 13.3336 9.5 13.3336ZM17.8138 11.7745C17.3509 11.301 17.0925 10.6683 17.0932 10.01V9.99091C17.0925 9.33264 17.3509 8.69989 17.8138 8.22636L18.6781 7.34455C19.0333 6.98091 19.1015 6.42818 18.8465 5.99091L17.6887 4.01091C17.5644 3.79777 17.3732 3.63045 17.144 3.53432C16.9148 3.43819 16.6601 3.41848 16.4185 3.47818L15.2082 3.77636C14.5583 3.93709 13.8705 3.84018 13.292 3.50636L13.2754 3.49727C12.7056 3.1702 12.2864 2.63778 12.1056 2.01182L11.7595 0.821818C11.6913 0.585167 11.5469 0.376924 11.3481 0.228632C11.1493 0.0803403 10.907 7.71809e-05 10.6578 0H8.34216C7.83134 0 7.38035 0.335455 7.24046 0.821818L6.8677 2.10273C6.70403 2.6752 6.31931 3.1613 5.79637 3.45636C5.74236 3.4862 5.68896 3.51711 5.63622 3.54909C5.11152 3.85772 4.48444 3.94859 3.8921 3.80182L2.58055 3.47818C2.33909 3.41855 2.08453 3.4382 1.85538 3.53415C1.62622 3.6301 1.43493 3.79713 1.31042 4.01L0.153493 5.99091C0.0290549 6.20403 -0.0218113 6.45135 0.00857249 6.69554C0.0389563 6.93973 0.148941 7.16753 0.321923 7.34455L1.18616 8.22636C1.64912 8.7 1.90775 9.33273 1.90775 9.99V10.01C1.90775 10.6682 1.64912 11.3009 1.18616 11.7745L0.723211 12.2473C0.434512 12.5421 0.250868 12.9218 0.200055 13.3289C0.149241 13.736 0.234021 14.1484 0.441573 14.5036L1.31134 15.99C1.5672 16.4282 2.08446 16.6455 2.58147 16.5227L3.89302 16.1991C4.48536 16.0523 5.11244 16.1432 5.63715 16.4518C5.68961 16.4836 5.74299 16.5145 5.79729 16.5445C6.32099 16.8373 6.70295 17.3255 6.86862 17.8982L7.24046 19.1791C7.38035 19.6655 7.83134 20 8.34216 20H10.6578C11.1687 20 11.6196 19.6655 11.7595 19.1791L12.1314 17.8982C12.2971 17.3255 12.679 16.8373 13.2027 16.5445C13.257 16.5145 13.3104 16.4836 13.3629 16.4518C13.8876 16.1432 14.5146 16.0523 15.107 16.1991L16.4185 16.5227C16.66 16.5824 16.9145 16.5627 17.1437 16.4668C17.3729 16.3708 17.5642 16.2038 17.6887 15.9909L18.8465 14.01C18.9709 13.7969 19.0218 13.5496 18.9914 13.3054C18.961 13.0612 18.8511 12.8334 18.6781 12.6564L17.8138 11.7745Z" fill="#929292"/>
<path d="M36.1875 3.32812H34.7031V5.73438H31.75V6.9375H34.7031V10.5312H36.1875V3.32812ZM24.4688 9.40625L25.2656 10.5938C26.9219 10.0234 28.1172 8.85156 28.7266 7.34375C29.3438 8.67969 30.5078 9.73438 32.0469 10.2656L32.8281 9.10938C30.7188 8.4375 29.4375 6.78125 29.4375 5V3.78125H27.9688V5C27.9609 6.96875 26.6562 8.71094 24.4688 9.40625ZM27.0312 12.3594H34.7188V13.5469H27.0625V17.1562H36.6719V15.9688H28.5156V14.6719H36.1875V11.1875H27.0312V12.3594ZM50.0156 3.32812H48.5312V6.89062H45.9219V8.10938H48.5312V11.6562H50.0156V3.32812ZM38.3438 10.3906L39.125 11.5781C40.7969 10.9609 42.0234 9.70312 42.6328 8.14062C43.2422 9.52344 44.3984 10.6484 45.9688 11.1875L46.7344 10.0156C44.6172 9.29688 43.3516 7.57031 43.3594 5.79688V5.5H46.3594V4.29688H38.8125V5.5H41.8438V5.8125C41.8516 7.74219 40.5156 9.63281 38.3438 10.3906ZM40.5938 14.6875C40.5859 16.3516 42.3828 17.3203 45.3281 17.3281C48.2578 17.3203 50.0547 16.3516 50.0625 14.6875C50.0547 13.0234 48.2578 12.0547 45.3281 12.0469C42.3828 12.0547 40.5859 13.0234 40.5938 14.6875ZM42.0625 14.6875C42.0547 13.7344 43.2734 13.1953 45.3281 13.2031C47.3672 13.1953 48.5859 13.7344 48.5938 14.6875C48.5859 15.6328 47.3672 16.1719 45.3281 16.1562C43.2734 16.1719 42.0547 15.6328 42.0625 14.6875Z" fill="#929292"/>
</svg>
