<svg width="140" height="140" viewBox="0 0 140 140" fill="black" xmlns="http://www.w3.org/2000/svg">
<path fill-rule="evenodd" clip-rule="evenodd" d="M70 91.0361C65.2915 91.0307 60.7774 89.145 57.448 85.7929C54.1186 82.4407 52.2457 77.8957 52.2404 73.155C52.2448 68.4137 54.1173 63.8678 57.4468 60.5149C60.7763 57.162 65.2909 55.2759 70 55.2705C74.7091 55.2759 79.2237 57.162 82.5532 60.5149C85.8827 63.8678 87.7552 68.4137 87.7596 73.155C87.7543 77.8957 85.8814 82.4407 82.552 85.7929C79.2226 89.145 74.7085 91.0307 70 91.0361ZM97.4655 46.2788H87.4651L83.6972 38.8857C83.0997 37.7153 82.1933 36.7334 81.0777 36.0479C79.9621 35.3624 78.6803 34.9998 77.3733 35H62.4337C61.101 34.9998 59.7951 35.3768 58.6649 36.088C57.5348 36.7992 56.626 37.8159 56.0421 39.0221L52.5349 46.2788H42.5345C41.4139 46.2783 40.3042 46.5002 39.2688 46.9317C38.2333 47.3631 37.2925 47.9957 36.4999 48.7934C35.7074 49.591 35.0787 50.5381 34.6497 51.5804C34.2208 52.6228 34 53.74 34 54.8683V94.4105C34 95.5388 34.2208 96.656 34.6497 97.6984C35.0787 98.7407 35.7074 99.6878 36.4999 100.485C37.2925 101.283 38.2333 101.916 39.2688 102.347C40.3042 102.779 41.4139 103 42.5345 103H97.4655C98.5861 103 99.6958 102.779 100.731 102.347C101.767 101.916 102.708 101.283 103.5 100.485C104.293 99.6878 104.921 98.7407 105.35 97.6984C105.779 96.656 106 95.5388 106 94.4105V54.8683C106 53.74 105.779 52.6228 105.35 51.5804C104.921 50.5381 104.293 49.591 103.5 48.7934C102.708 47.9957 101.767 47.3631 100.731 46.9317C99.6958 46.5002 98.5861 46.2783 97.4655 46.2788Z" fill="#D8D8D8"/>
<path fill-rule="evenodd" clip-rule="evenodd" d="M70 62C67.0831 62.0035 64.2867 63.1636 62.2245 65.2259C60.1623 67.2881 59.0026 70.084 59 73C59.0017 75.9163 60.1611 78.7127 62.2235 80.7751C64.286 82.8375 67.0828 83.9974 70 84C72.9172 83.9974 75.714 82.8375 77.7765 80.7751C79.8389 78.7127 80.9983 75.9163 81 73C80.9974 70.084 79.8377 67.2881 77.7755 65.2259C75.7133 63.1636 72.9169 62.0035 70 62Z" fill="#D8D8D8"/>
</svg>
