<svg width="327" height="52" viewBox="0 0 327 52" fill="none" xmlns="http://www.w3.org/2000/svg">
<rect x="0.5" y="0.5" width="326" height="51" rx="25.5" fill="#6B47FD"/>
<path d="M126.461 27.3594H113.648V28.5625H119.289V33.3125H120.742V28.5625H126.461V27.3594ZM115.258 25.5781H124.852V20.0781H115.258V25.5781ZM116.711 24.4219V21.2656H123.367V24.4219H116.711ZM140.305 30.4062H136.945V27.9375H139.07V26.7188H130.523V24.6875H138.742V20.3125H129.023V21.5312H137.273V23.4844H129.055V27.9375H130.992V30.4062H127.492V31.6562H140.305V30.4062ZM132.43 30.4062V27.9375H135.492V30.4062H132.43ZM154.133 30.4062H148.43V27.9531H152.898V26.7344H144.352V24.6875H152.57V20.3125H142.852V21.5312H151.102V23.5H142.883V27.9531H146.961V30.4062H141.32V31.6562H154.133V30.4062ZM170.398 25.7812H162.133V21.6094H170.273V20.4062H160.648V26.9688H164.695V30.3906H159.055V31.6094H171.867V30.3906H166.164V26.9688H170.398V25.7812ZM184.555 19.3438H183.07V23.125H180.398V24.3281H183.07V29.5938H184.555V19.3438ZM172.898 26.6719L173.664 27.875C175.328 27.2812 176.555 26.0469 177.164 24.5C177.773 25.8906 178.938 27.0156 180.508 27.5625L181.273 26.375C179.156 25.6719 177.891 23.9141 177.898 22.1719V21.625H180.898V20.4062H173.352V21.625H176.383V22.1719C176.391 24.1016 175.047 25.9453 172.898 26.6719ZM175.461 33.0312H184.93V31.8281H176.945V28.6719H175.461V33.0312ZM197.617 19.3281H196.148V33.3281H197.617V26.2344H199.867V25H197.617V19.3281ZM186.633 22.7344H194.93V21.5156H191.57V19.5156H190.086V21.5156H186.633V22.7344ZM187.352 27.0156C187.352 28.9375 188.82 30.2734 190.836 30.2812C192.844 30.2734 194.312 28.9375 194.32 27.0156C194.312 25.1094 192.844 23.7656 190.836 23.7656C188.82 23.7656 187.352 25.1094 187.352 27.0156ZM188.773 27.0156C188.766 25.8203 189.641 24.9922 190.836 24.9844C192.023 24.9922 192.891 25.8203 192.898 27.0156C192.891 28.2344 192.023 29.0469 190.836 29.0312C189.641 29.0469 188.766 28.2344 188.773 27.0156ZM212.18 19.3281H210.68V33.3281H212.18V19.3281ZM200.68 29.5781L201.461 30.7812C206.266 28.4766 208.008 24.9297 208.008 20.8281H201.352V22.0156H206.508C206.219 25.2812 204.398 27.8047 200.68 29.5781Z" fill="white"/>
<rect x="0.5" y="0.5" width="326" height="51" rx="25.5" stroke="#6B47FD"/>
</svg>
